<svg xmlns="http://www.w3.org/2000/svg" viewBox="0 0 877.6 392.611">
  <defs>
    <style>
      .cls-1 {
        fill: #b4b4b4;
      }

      .cls-1, .cls-2, .cls-3 {
        opacity: 0.11;
      }

      .cls-2 {
        fill: #c5c5c5;
      }

      .cls-3 {
        fill: #d5d5d5;
      }

      .cls-4 {
        fill: #f6f6f6;
      }

      .cls-17, .cls-5 {
        fill: none;
      }

      .cls-5 {
        stroke: #717071;
        stroke-miterlimit: 10;
        stroke-width: 3px;
      }

      .cls-10, .cls-6, .cls-8 {
        fill: #cecece;
      }

      .cls-6, .cls-7 {
        opacity: 0.75;
      }

      .cls-9 {
        fill: #ffe9b4;
      }

      .cls-10 {
        fill-rule: evenodd;
      }

      .cls-11 {
        fill: #dadbdb;
      }

      .cls-12 {
        fill: #c7c8c9;
      }

      .cls-13 {
        fill: #b3b3b4;
      }

      .cls-14 {
        fill: #fbefdb;
      }

      .cls-15 {
        opacity: 0.83;
      }

      .cls-16 {
        fill: #9d9d9e;
      }

      .cls-18, .cls-19 {
        fill: #292929;
        font-size: 14px;
        letter-spacing: 0.1em;
        opacity: 0.82;
      }

      .cls-18 {
        font-family: YuGothicUI-Regular, Yu Gothic UI;
      }

      .cls-19, .cls-20 {
        font-family: SegoeUI, Segoe UI;
      }
    </style>
  </defs>
  <g id="_011" data-name="011" transform="translate(-344.4 -6308.423)">
    <rect id="Rectangle_966" data-name="Rectangle 966" class="cls-1" width="261.9" height="336.8" transform="translate(344.4 6308.423)"/>
    <rect id="Rectangle_967" data-name="Rectangle 967" class="cls-2" width="354.7" height="334.6" transform="translate(866.3 6308.423)"/>
    <rect id="Rectangle_968" data-name="Rectangle 968" class="cls-3" width="259.1" height="334.1" transform="translate(606.8 6308.423)"/>
    <g id="Group_2367" data-name="Group 2367" transform="translate(331 6176.423)">
      <path id="Path_18390" data-name="Path 18390" class="cls-4" d="M13.4,468H89.7l4.7,6.6L84,485.3l8.3.3,5,6.6-2.7,10.7,6.1,16.4,5.2-23.8,6.5-3.5L109,477l3.5-9H890"/>
      <path id="Path_18391" data-name="Path 18391" class="cls-5" d="M13.4,468H89.7l4.7,6.6L84,485.3l8.3.3,5,6.6-2.7,10.7,6.1,16.4,5.2-23.8,6.5-3.5L109,477l3.5-9H890"/>
    </g>
    <path id="Path_18392" data-name="Path 18392" class="cls-6" d="M117.1,422.9l.3-7.5-5.6-.2.2-5.4-13.1-.5-.2,5.4-5.6-.2-.3,7.5,4,.1L95.9,447H94.6l-.2,5.7,8.5.3-1.1,29.4,1.9.1,1.1-29.4,8.5.3.2-5.7h-1.3l.9-24.9ZM99.8,410.7l11.1.4-.1,4-11.1-.4Z" transform="translate(331 6176.423)"/>
    <g id="Group_2368" data-name="Group 2368" class="cls-7" transform="translate(331 6176.423)">
      <path id="Path_18393" data-name="Path 18393" class="cls-8" d="M136,412v0Z"/>
      <path id="Path_18394" data-name="Path 18394" class="cls-8" d="M152.9,412.1v.2c0-.1.1-.1,0-.2Z"/>
      <path id="Path_18395" data-name="Path 18395" class="cls-8" d="M137.5,412h0v0Z"/>
      <circle id="Ellipse_427" data-name="Ellipse 427" class="cls-8" cx="6.2" cy="6.2" r="6.2" transform="translate(139.499 402.022) rotate(-89.523)"/>
      <path id="Path_18396" data-name="Path 18396" class="cls-8" d="M158.5,407.8c0-2.4-2.7-4.3-5.1-4.4l-17.3-.1a4.419,4.419,0,0,0-4.4,4.3v.3l-.2,21.1a2.125,2.125,0,0,0,4.2,0l.1-17h0a.634.634,0,0,1,.6-.5h.2a.634.634,0,0,1,.6.5h0v.1h0l-.2,21v4.1l-.2,27a3.193,3.193,0,0,0,3.1,2.5,3.3,3.3,0,0,0,3.1-2.3l.2-27.1c0-.6.7-1.1,1.4-1.1a1.266,1.266,0,0,1,1.4,1.1l-.2,27a3.261,3.261,0,0,0,6.4.3l.2-27.4v-3.7l.2-21.5v-.2h0c.1-.3.3-.5.5-.5h.2a.472.472,0,0,1,.5.5h0l-.1,17.1a2.125,2.125,0,0,0,4.2,0l.2-21.1v-.1C158.5,408,158.5,407.9,158.5,407.8Z"/>
    </g>
    <g id="Group_2370" data-name="Group 2370" class="cls-7" transform="translate(331 6176.423)">
      <path id="Path_18398" data-name="Path 18398" class="cls-8" d="M176.5,413.4v0Z"/>
      <path id="Path_18399" data-name="Path 18399" class="cls-8" d="M192.7,413.6v0Z"/>
      <path id="Path_18400" data-name="Path 18400" class="cls-8" d="M177.9,413.5h0v0Z"/>
      <circle id="Ellipse_428" data-name="Ellipse 428" class="cls-8" cx="6" cy="6" r="6" transform="translate(179.733 403.912) rotate(-89.511)"/>
      <path id="Path_18401" data-name="Path 18401" class="cls-8" d="M198.1,409.5c0-2.3-2.6-4.2-4.9-4.2l-16.6-.1a4.14,4.14,0,0,0-4.2,4.1v.3l-.2,20.3a2.019,2.019,0,0,0,4,.1l.1-16.3v-.2h0a.634.634,0,0,1,.6-.5h.2a.634.634,0,0,1,.6.5h0v.1h0l-.2,20.2v3.9l-.2,25.9a3.109,3.109,0,0,0,6,.2l.2-26c0-.6.6-1,1.4-1a1.266,1.266,0,0,1,1.4,1.1l-.2,25.9a3.308,3.308,0,0,0,3.1,2.7,3.1,3.1,0,0,0,3-2.4l.2-26.3v-3.5l.2-20.6v-.2h0c.1-.3.3-.5.5-.5h.2c.2,0,.4.2.5.5h0l-.1,16.5a1.977,1.977,0,0,0,2,1.8,1.9,1.9,0,0,0,2-1.7l.2-20.3v-.1C198.1,409.6,198.1,409.6,198.1,409.5Z"/>
    </g>
    <g id="Group_2372" data-name="Group 2372" class="cls-7" transform="translate(331 6176.423)">
      <path id="Path_18403" data-name="Path 18403" class="cls-8" d="M210.7,413.4v.2a.139.139,0,0,0,0-.2Z"/>
      <path id="Path_18404" data-name="Path 18404" class="cls-8" d="M227,413.6v0Z"/>
      <path id="Path_18405" data-name="Path 18405" class="cls-8" d="M212.2,413.5h0v0Z"/>
      <circle id="Ellipse_429" data-name="Ellipse 429" class="cls-8" cx="6" cy="6" r="6" transform="translate(214.011 403.99) rotate(-89.536)"/>
      <path id="Path_18406" data-name="Path 18406" class="cls-8" d="M232.4,409.5c0-2.3-2.6-4.2-4.9-4.2l-16.6-.1a4.14,4.14,0,0,0-4.2,4.1v.3l-.2,20.3a2.019,2.019,0,0,0,4,.1l.1-16.3v-.2h0a.634.634,0,0,1,.6-.5h.2a.634.634,0,0,1,.6.5h0v.1h0l-.2,20.2v3.9l-.2,25.9a3.109,3.109,0,0,0,6,.2l.2-26c0-.6.6-1,1.4-1a1.266,1.266,0,0,1,1.4,1.1l-.2,25.9a3.308,3.308,0,0,0,3.1,2.7,3.1,3.1,0,0,0,3-2.4l.2-26.3v-3.5l.2-20.6v-.2h0c.1-.3.3-.5.5-.5h.2c.2,0,.4.2.5.5h0L228,430a1.977,1.977,0,0,0,2,1.8,1.9,1.9,0,0,0,2-1.7l.2-20.3v-.1C232.4,409.6,232.4,409.6,232.4,409.5Z"/>
    </g>
    <g id="Group_2373" data-name="Group 2373" class="cls-7" transform="translate(331 6176.423)">
      <path id="Path_18407" data-name="Path 18407" class="cls-8" d="M702.2,431.2v.1c0-.1.1-.1,0-.1Z"/>
      <path id="Path_18408" data-name="Path 18408" class="cls-8" d="M713.3,431.3v0Z"/>
      <path id="Path_18409" data-name="Path 18409" class="cls-8" d="M703.2,431.2Z"/>
      <circle id="Ellipse_430" data-name="Ellipse 430" class="cls-8" cx="4.1" cy="4.1" r="4.1" transform="translate(704.427 424.658) rotate(-89.54)"/>
      <path id="Path_18410" data-name="Path 18410" class="cls-8" d="M717,428.5c0-1.6-1.8-2.8-3.3-2.9l-11.3-.1a2.881,2.881,0,0,0-2.9,2.8v.3l-.1,13.8a1.417,1.417,0,0,0,2.8,0l.1-11.1v-.1h0c0-.2.2-.3.4-.3h.2c.2,0,.3.1.4.3h0v.1h0l-.1,13.8v2.7l-.1,17.7a2.229,2.229,0,0,0,2,1.7,2.131,2.131,0,0,0,2-1.5l.1-17.7a.929.929,0,0,1,1.8,0l-.1,17.7a2.148,2.148,0,0,0,2.1,1.8,2.252,2.252,0,0,0,2.1-1.6l.2-17.9v-2.4l.1-14v-.1h0a.319.319,0,0,1,.3-.3h.1a.265.265,0,0,1,.3.3h0l-.1,11.2a1.417,1.417,0,0,0,2.8,0l.1-13.8v-.1A.775.775,0,0,0,717,428.5Z"/>
    </g>
    <g id="Group_2596" data-name="Group 2596">
      <g id="Group_2369" data-name="Group 2369" transform="translate(331 6176.423)">
        <path id="Path_18397" data-name="Path 18397" class="cls-9" d="M153.8,394.3c-.4-4.1-.5-8.9-8-8.9-8.1-.1-7.7,4.7-8.2,8.8Z"/>
      </g>
      <g id="Group_2371" data-name="Group 2371" transform="translate(331 6176.423)">
        <path id="Path_18402" data-name="Path 18402" class="cls-9" d="M193.6,396.5c-.4-4-.5-8.5-7.7-8.6-7.8-.1-7.4,4.5-7.9,8.5Z"/>
      </g>
      <g id="Group_2374" data-name="Group 2374" transform="translate(331 6176.423)">
        <path id="Path_18411" data-name="Path 18411" class="cls-9" d="M227.9,396.5c-.4-4-.5-8.5-7.7-8.6-7.8-.1-7.4,4.5-7.9,8.5Z"/>
      </g>
      <g id="Group_2375" data-name="Group 2375" transform="translate(331 6176.423)">
        <path id="Path_18412" data-name="Path 18412" class="cls-9" d="M385.4,462l-3.7-.3a12.749,12.749,0,0,0,.1-2,25.1,25.1,0,0,0-50.2,0,13.4,13.4,0,0,0,.1,2l-3.7.3a16.949,16.949,0,0,1-.1-2.3,28.8,28.8,0,0,1,57.6,0A17.69,17.69,0,0,1,385.4,462Z"/>
      </g>
      <g id="Group_2376" data-name="Group 2376" transform="translate(331 6176.423)">
        <path id="Path_18413" data-name="Path 18413" class="cls-9" d="M434.7,463.8H397.5v-58c0-25.2-29.6-36.7-29.9-36.8l1.4-3.7c1.3.5,32.5,12.6,32.5,40.6v54h33.2Z"/>
      </g>
      <g id="Group_2377" data-name="Group 2377" transform="translate(331 6176.423)">
        <path id="Path_18414" data-name="Path 18414" class="cls-9" d="M488.9,463.4H445.1V396.1c0-27.3-32.4-39.9-32.7-40l2.8-7.4c1.5.6,37.9,14.7,37.9,47.5v59.3H489v7.9Z"/>
      </g>
    </g>
    <g id="Group_2378" data-name="Group 2378" class="cls-7" transform="translate(331 6176.423)">
      <path id="Path_18415" data-name="Path 18415" class="cls-10" d="M686.7,426.9c.4,1.2.7,2.4,1.1,3.6,1.3,3.2,2.7,6.4,4,9.6v8.8H679.1c-13.6,0-27.1-.1-40.7.1-4.1.1-5.6-1.1-5.3-3.8a23.332,23.332,0,0,1,.9-5.8c2.3-6.6,4.8-13.2,7.1-19.9,1-2.9,3.3-4.4,7.5-4.4,9.5,0,18.9-.1,28.4.1,2,0,4,1.4,5.9,2.1l.8.8h0c.6,1.7,1.3,3.4,1.9,5.2.1.5.2,1,.3,1.4C686.1,425.4,686.4,426.1,686.7,426.9Zm-45,5.6h41.7c-.9-2.9-1.4-5.7-2.6-8.3a5.222,5.222,0,0,0-3.9-2.4q-14.4-.3-28.8,0a4.717,4.717,0,0,0-3.5,1.9C643.3,426.3,642.7,429.2,641.7,432.5Zm21,8.4h0c-3.6,0-7.1-.2-10.7.1-1.7.1-3.3,1.2-4.9,1.8,1.3,1.4,2.5,3.8,4,3.9a214.906,214.906,0,0,0,22.7.3c1.3-.1,2.5-2.7,3.7-4.1-1.6-.6-3.1-1.7-4.7-1.8A84.718,84.718,0,0,0,662.7,440.9Zm28,2.3c-1.4-1-2.7-2.8-4.2-2.8-3.9-.1-6.2,1.8-5.9,4.7.1.8,2,2,3.3,2.1C687,447.4,690.3,447.3,690.7,443.2Zm-46,3.9,1.2-1.5a55.8,55.8,0,0,0-6-4.9c-.5-.3-3.8.5-3.9,1.1-.4,1.6-.6,4.3.5,4.7C638.8,447.3,641.9,446.9,644.7,447.1Z"/>
      <path id="Path_18416" data-name="Path 18416" class="cls-10" d="M691.6,450.7c-.3,4.4-1.6,5.6-7.1,5.6-14.6.1-29.2.1-43.7,0-5.7,0-7.1-1.3-6.7-5.6Z"/>
      <path id="Path_18417" data-name="Path 18417" class="cls-10" d="M679.4,458.9c4.7-.5,8-.9,12.4-1.4-.9,2-1,4.3-2.6,5.2s-4.9.8-7,.2C680.9,462.5,680.5,460.4,679.4,458.9Z"/>
      <path id="Path_18418" data-name="Path 18418" class="cls-10" d="M634.1,457.6c3.7.4,7.2.7,10.8,1.1.8,3.2-.9,4.8-5.4,4.8C634.8,463.5,633.8,462.4,634.1,457.6Z"/>
      <path id="Path_18419" data-name="Path 18419" class="cls-10" d="M634.6,426.3c-.6,2.4-1.2,4.5-1.7,6.5-1.3-.8-3.4-1.5-3.8-2.5C628.2,428.1,628.7,426.1,634.6,426.3Z"/>
      <path id="Path_18420" data-name="Path 18420" class="cls-10" d="M695.8,426.9a.864.864,0,0,0,.3.6c-.1,1.5-.2,2.9-.3,4.4h0a8.741,8.741,0,0,1-1,.8h0c-2.7.4-4.3-.4-5.1-2.2.4-1,.8-1.9,1.1-2.9C692.5,427.4,694.2,427.1,695.8,426.9Z"/>
      <path id="Path_18421" data-name="Path 18421" class="cls-10" d="M686.7,426.9c-.3-.7-.5-1.5-.8-2.2C686.1,425.4,686.4,426.1,686.7,426.9Z"/>
      <path id="Path_18422" data-name="Path 18422" class="cls-10" d="M694.8,432.7a8.741,8.741,0,0,1,1-.8C695.5,432.2,695.1,432.4,694.8,432.7Z"/>
      <path id="Path_18423" data-name="Path 18423" class="cls-10" d="M683.6,418a6.035,6.035,0,0,1-.8-.8Z"/>
    </g>
    <g id="Group_2384" data-name="Group 2384" class="cls-7" transform="translate(340 6179.423)">
      <path id="Path_18424" data-name="Path 18424" class="cls-11" d="M858.8,350.6V319.3h-6.1v-6.5H832v6.5h-8.3v32.8L799,376.7h-8.2V358.4h-7.5v-7.5H770v7.5h-4v27.5H752.4V324.1c0-.3-10.2,0-10.2,0v72h-4.5v67.7h63.6l25.6-25.6,33-33V360.7h16V350.5H858.8Z"/>
      <path id="Path_18425" data-name="Path 18425" class="cls-12" d="M882,314.6h-4.9v45.5H856.7v53.7c0-1.6-1.6,33.3-2.3,50H882Z"/>
      <path id="Path_18426" data-name="Path 18426" class="cls-13" d="M882,404.6H838.4V347.2l-17.7-17.7-22.4,22.4v37.4H784.7V407H769.1v56.8H882Z"/>
      <rect id="Rectangle_969" data-name="Rectangle 969" class="cls-14" width="6.6" height="12.2" transform="translate(744.2 326.6)"/>
      <rect id="Rectangle_970" data-name="Rectangle 970" class="cls-14" width="6.6" height="12.2" transform="translate(743.9 341.7)"/>
      <rect id="Rectangle_971" data-name="Rectangle 971" class="cls-14" width="6.6" height="12.2" transform="translate(744.2 357.2)"/>
      <rect id="Rectangle_972" data-name="Rectangle 972" class="cls-14" width="6.6" height="12.2" transform="translate(744.2 373)"/>
      <rect id="Rectangle_973" data-name="Rectangle 973" class="cls-14" width="6.6" height="12.2" transform="translate(743.9 388)"/>
      <rect id="Rectangle_974" data-name="Rectangle 974" class="cls-14" width="6.6" height="12.2" transform="translate(744.2 403.6)"/>
      <rect id="Rectangle_975" data-name="Rectangle 975" class="cls-14" width="6.6" height="12.2" transform="translate(801.5 352.4)"/>
      <rect id="Rectangle_976" data-name="Rectangle 976" class="cls-14" width="6.6" height="12.2" transform="translate(813.5 352.1)"/>
      <rect id="Rectangle_977" data-name="Rectangle 977" class="cls-14" width="1.7" height="12.2" transform="translate(880.2 321)"/>
      <rect id="Rectangle_978" data-name="Rectangle 978" class="cls-14" width="1.5" height="12.2" transform="translate(880.5 340.4)"/>
      <rect id="Rectangle_979" data-name="Rectangle 979" class="cls-14" width="6.6" height="12.2" transform="translate(860.4 368.9)"/>
      <rect id="Rectangle_980" data-name="Rectangle 980" class="cls-14" width="6.6" height="12.2" transform="translate(872.3 368.7)"/>
      <rect id="Rectangle_981" data-name="Rectangle 981" class="cls-14" width="6.6" height="12.2" transform="translate(860.4 387.8)"/>
      <rect id="Rectangle_982" data-name="Rectangle 982" class="cls-14" width="6.6" height="12.2" transform="translate(872.3 387.5)"/>
      <rect id="Rectangle_983" data-name="Rectangle 983" class="cls-14" width="6.6" height="12.2" transform="translate(825.7 352.1)"/>
      <rect id="Rectangle_984" data-name="Rectangle 984" class="cls-14" width="6.6" height="12.2" transform="translate(774.5 415)"/>
      <rect id="Rectangle_985" data-name="Rectangle 985" class="cls-14" width="6.6" height="12.2" transform="translate(786.5 414.8)"/>
      <rect id="Rectangle_986" data-name="Rectangle 986" class="cls-14" width="6.6" height="12.2" transform="translate(798.7 414.8)"/>
      <rect id="Rectangle_987" data-name="Rectangle 987" class="cls-14" width="6.6" height="12.2" transform="translate(812.7 415)"/>
      <rect id="Rectangle_988" data-name="Rectangle 988" class="cls-14" width="6.6" height="12.2" transform="translate(824.7 414.8)"/>
      <rect id="Rectangle_989" data-name="Rectangle 989" class="cls-14" width="6.6" height="12.2" transform="translate(836.9 414.8)"/>
      <rect id="Rectangle_990" data-name="Rectangle 990" class="cls-14" width="6.6" height="12.2" transform="translate(850.9 415)"/>
      <rect id="Rectangle_991" data-name="Rectangle 991" class="cls-14" width="6.6" height="12.2" transform="translate(862.9 414.8)"/>
      <rect id="Rectangle_992" data-name="Rectangle 992" class="cls-14" width="6.6" height="12.2" transform="translate(875.1 414.8)"/>
      <rect id="Rectangle_993" data-name="Rectangle 993" class="cls-14" width="6.6" height="12.2" transform="translate(774.5 433.1)"/>
      <rect id="Rectangle_994" data-name="Rectangle 994" class="cls-14" width="6.6" height="12.2" transform="translate(786.5 432.9)"/>
      <rect id="Rectangle_995" data-name="Rectangle 995" class="cls-14" width="6.6" height="12.2" transform="translate(798.7 432.9)"/>
      <rect id="Rectangle_996" data-name="Rectangle 996" class="cls-14" width="6.6" height="12.2" transform="translate(812.7 433.1)"/>
      <rect id="Rectangle_997" data-name="Rectangle 997" class="cls-14" width="6.6" height="12.2" transform="translate(824.7 432.9)"/>
      <rect id="Rectangle_998" data-name="Rectangle 998" class="cls-14" width="6.6" height="12.2" transform="translate(836.9 432.9)"/>
      <rect id="Rectangle_999" data-name="Rectangle 999" class="cls-14" width="6.6" height="12.2" transform="translate(850.9 433.1)"/>
      <rect id="Rectangle_1000" data-name="Rectangle 1000" class="cls-14" width="6.6" height="12.2" transform="translate(862.9 432.9)"/>
      <rect id="Rectangle_1001" data-name="Rectangle 1001" class="cls-14" width="6.6" height="12.2" transform="translate(875.1 432.9)"/>
      <rect id="Rectangle_1002" data-name="Rectangle 1002" class="cls-14" width="6.6" height="12.2" transform="translate(801.5 375.3)"/>
      <rect id="Rectangle_1003" data-name="Rectangle 1003" class="cls-14" width="6.6" height="12.2" transform="translate(813.5 375)"/>
      <rect id="Rectangle_1004" data-name="Rectangle 1004" class="cls-14" width="6.6" height="12.2" transform="translate(825.7 375)"/>
      <rect id="Rectangle_1005" data-name="Rectangle 1005" class="cls-14" width="31.8" height="12.2" transform="translate(801.3 392.6)"/>
      <g id="Group_2383" data-name="Group 2383" class="cls-15">
        <rect id="Rectangle_1006" data-name="Rectangle 1006" class="cls-16" width="2.1" height="23" transform="translate(756.7 440.7)"/>
        <circle id="Ellipse_431" data-name="Ellipse 431" class="cls-16" cx="11.9" cy="11.9" r="11.9" transform="translate(745.6 419.5)"/>
        <circle id="Ellipse_432" data-name="Ellipse 432" class="cls-16" cx="11.9" cy="11.9" r="11.9" transform="translate(807.2 419.5)"/>
        <g id="Group_2379" data-name="Group 2379">
          <rect id="Rectangle_1007" data-name="Rectangle 1007" class="cls-16" width="2.1" height="23" transform="translate(818.3 440.7)"/>
          <circle id="Ellipse_433" data-name="Ellipse 433" class="cls-16" cx="11.9" cy="11.9" r="11.9" transform="translate(807.2 419.5)"/>
          <path id="Path_18427" data-name="Path 18427" class="cls-16" d="M819.3,419.4h-.2a11.9,11.9,0,1,0,0,23.8h.2Z"/>
        </g>
        <g id="Group_2382" data-name="Group 2382">
          <g id="Group_2380" data-name="Group 2380">
            <rect id="Rectangle_1008" data-name="Rectangle 1008" class="cls-16" width="2.1" height="23" transform="translate(785.2 440.7)"/>
          </g>
          <g id="Group_2381" data-name="Group 2381">
            <circle id="Ellipse_434" data-name="Ellipse 434" class="cls-16" cx="11.9" cy="11.9" r="11.9" transform="translate(774.1 419.5)"/>
            <path id="Path_18428" data-name="Path 18428" class="cls-16" d="M786.6,419.5c-.2,0-.4-.1-.6-.1a11.9,11.9,0,1,0,0,23.8,1.268,1.268,0,0,0,.6-.1Z"/>
          </g>
        </g>
      </g>
    </g>
    <rect id="Rectangle_1012" data-name="Rectangle 1012" class="cls-17" width="204.5" height="78.6" transform="translate(945.3 6368.123)"/>
    <text id="美化市容" class="cls-18" transform="translate(1006.489 6391.396)"><tspan x="0" y="0">美化市容</tspan></text>
    <text id="_" data-name="/" class="cls-19" transform="translate(1031.689 6412.596)"><tspan x="0" y="0">/</tspan></text>
    <text id="受到抗噪保護" class="cls-18" transform="translate(992.389 6433.696)"><tspan x="0" y="0">受到抗噪保護</tspan></text>
    <rect id="Rectangle_1013" data-name="Rectangle 1013" class="cls-17" width="204.5" height="62.5" transform="translate(653.2 6362.623)"/>
    <text id="減低分貝" class="cls-18" transform="translate(714.352 6385.926)"><tspan x="0" y="0">減低分貝</tspan></text>
    <text id="_2" data-name="/" class="cls-19" transform="translate(739.552 6407.126)"><tspan x="0" y="0">/</tspan></text>
    <text id="輕_易搬_模組化" data-name="輕,易搬,模組化" class="cls-18" transform="translate(696.752 6428.226)"><tspan x="0" y="0">輕</tspan><tspan class="cls-20" y="0">,</tspan><tspan y="0">易搬</tspan><tspan class="cls-20" y="0">,</tspan><tspan y="0">模組化</tspan></text>
    <rect id="Rectangle_1014" data-name="Rectangle 1014" class="cls-17" width="204.5" height="114.1" transform="translate(387.3 6368.123)"/>
    <text id="舒適工作環境" class="cls-18" transform="translate(434.333 6391.397)"><tspan x="0" y="0">舒適工作環境</tspan></text>
    <text id="_3" data-name="/" class="cls-19" transform="translate(473.633 6412.597)"><tspan x="0" y="0">/</tspan></text>
    <text id="視野開闊" class="cls-18" transform="translate(448.433 6433.697)"><tspan x="0" y="0">視野開闊</tspan></text>
  </g>
</svg>
