<?xml version="1.0" encoding="utf-8"?>
<!-- Generator: Adobe Illustrator 16.0.0, SVG Export Plug-In . SVG Version: 6.00 Build 0)  -->
<!DOCTYPE svg PUBLIC "-//W3C//DTD SVG 1.1//EN" "http://www.w3.org/Graphics/SVG/1.1/DTD/svg11.dtd">
<svg version="1.1" xmlns="http://www.w3.org/2000/svg" xmlns:xlink="http://www.w3.org/1999/xlink" x="0px" y="0px" width="960.4px"
	 height="806.736px" viewBox="0 0 960.4 806.736" enable-background="new 0 0 960.4 806.736" xml:space="preserve">
<g id="back" display="none">
	<rect x="-478.636" y="-0.273" display="inline" fill="#F7F7F7" width="1918.882" height="5805"/>
</g>
<g id="content">
	<g>
		<path fill="#BAB3A4" d="M371.928,226.421c-0.648,0.955-1.621,1.891-2.899,2.809l-0.198-0.288c1.351-0.973,2.323-1.945,2.935-2.917
			v-5.06h-2.827v-0.36h3.169v5.438c1.026,1.891,2.521,2.503,6.176,2.503h5.996v0.36h-5.996
			C374.665,228.906,373.009,228.276,371.928,226.421z M369.336,214.736l0.252-0.252c0.954,0.936,1.909,1.945,2.827,3.007
			l-0.252,0.234C371.316,216.734,370.362,215.744,369.336,214.736z M381.309,224.819c1.044,0.594,2.017,1.188,2.899,1.819
			l-0.198,0.288c-1.675-1.152-3.403-2.161-5.186-3.043v4.141h-0.36v-4.231c-1.206,1.081-2.935,2.125-5.222,3.151l-0.144-0.324
			c2.646-1.188,4.555-2.431,5.762-3.709h-4.448v-2.827h8.463v2.827h-3.529c-0.108,0.126-0.288,0.306-0.522,0.54v0.054
			c0.702,0.342,1.404,0.703,2.143,1.117c0.99-0.63,1.854-1.261,2.593-1.854l0.216,0.27
			C382.911,223.703,382.083,224.297,381.309,224.819z M383.938,219.021H373.26v-0.36h10.677V219.021z M383.758,217.617h-10.155
			v-3.187h10.155V217.617z M373.963,214.79v2.467h2.917v-2.467H373.963z M374.755,220.426v2.125h7.76v-2.125H374.755z
			 M377.222,214.79v2.467h2.917v-2.467H377.222z M383.398,217.257v-2.467h-2.899v2.467H383.398z"/>
		<path fill="#BAB3A4" d="M410.919,218.409h0.9c0.342,0,0.882-0.18,0.99-0.271c0.108-0.09,0.324-0.63,0.378-1.008
			c0.018-0.198,0.072-0.504,0.126-0.955l0.342,0.036c-0.126,0.936-0.144,1.26-0.342,1.729c-0.198,0.468-0.252,0.54-0.72,0.684
			c-0.468,0.144-0.792,0.126-1.674,0.126c-1.026,0-1.657-0.036-1.909-0.126c-0.252-0.072-0.378-0.306-0.378-0.684v-2.539h-2.233
			c-0.27,1.674-2.179,3.115-5.06,3.709l-0.072-0.342c2.719-0.576,4.501-1.854,4.771-3.367h-5.167v2.646h-0.36v-3.007h6.968v-1.765
			h0.36v1.765h6.968v3.007h-0.36v-2.646h-5.456v2.539c0,0.198,0.054,0.324,0.162,0.378
			C409.334,218.373,409.928,218.409,410.919,218.409z M412.863,219.381v3.781h1.945v4.321c0,1.387-0.198,1.603-1.584,1.603
			c-0.198,0-1.081-0.036-2.665-0.09l0.018-0.36c1.566,0.054,2.449,0.09,2.647,0.09c1.207,0,1.224-0.036,1.224-1.243v-3.961h-13.576
			v5.726h-0.36v-6.086h1.945v-3.781H412.863z M402.798,223.162h4.159v-2.106h5.564v-1.332h-9.723V223.162z M411.621,227.574h-7.58
			v0.882h-0.342v-3.871h7.922V227.574z M404.041,224.927v2.305h7.238v-2.305H404.041z M407.3,221.398v1.764h5.222v-1.764H407.3z"/>
		<path fill="#BAB3A4" d="M436.279,215.853h-5.24v-0.36h5.438c0.45-0.774,0.811-1.495,1.099-2.179l0.324,0.126
			c-0.324,0.756-0.667,1.44-1.009,2.053h9.309v0.36h-9.525c-0.918,1.53-1.962,2.898-3.169,4.141v9.255h-0.36v-8.913
			c-0.738,0.738-1.53,1.405-2.358,1.999l-0.216-0.288c0.829-0.576,1.693-1.314,2.575-2.196v-1.188h0.36v0.81
			C434.604,218.301,435.541,217.095,436.279,215.853z M440.996,222.028v6.176h5.474v0.342h-11.812v-0.342h5.996v-6.176h-5.042v-0.36
			h5.042v-4.411h0.342v4.411h4.682v0.36H440.996z"/>
		<path fill="#BAB3A4" d="M469.76,220.605v1.495h7.581v0.36h-15.521v-0.36h7.581v-1.495h-6.446v-0.342h6.446v-1.423h-5.906v-0.342
			h5.906v-1.513h-7.851v-0.342h7.851v-1.422h-5.906v-0.342h5.906v-1.513h0.36v1.513h5.726v1.765h2.125v0.342h-2.125v1.854h-5.726
			v1.423h6.446v0.342H469.76z M475.053,228.546h-10.947v0.882h-0.342v-5.726h11.631v5.726h-0.342V228.546z M464.106,224.045v1.854
			h10.947v-1.854H464.106z M464.106,226.259v1.945h10.947v-1.945H464.106z M475.143,215.222h-5.384v1.422h5.384V215.222z
			 M475.143,216.986h-5.384v1.513h5.384V216.986z"/>
		<path fill="#BAB3A4" d="M494.976,217.347h2.467v0.36h-2.467v9.254c0.811-0.378,1.729-0.828,2.737-1.386l0.18,0.306
			c-1.891,1.044-3.727,1.873-5.51,2.485l-0.108-0.342c1.098-0.378,1.873-0.684,2.359-0.9v-9.417h-2.305v-0.36h2.305v-3.097h0.342
			V217.347z M503.979,216.555v3.438h3.799v0.342h-3.799v3.619h3.799v0.36h-3.799v3.709h4.501v0.342h-9.345v1.062h-0.36v-12.244
			c-0.558,1.044-1.225,1.999-1.981,2.845l-0.27-0.252c1.513-1.674,2.611-3.763,3.313-6.266l0.342,0.09
			c-0.306,1.044-0.612,1.909-0.918,2.593h4.357c0.558-0.882,1.008-1.782,1.351-2.701l0.324,0.126
			c-0.324,0.882-0.738,1.747-1.261,2.575h4.087v0.36H503.979z M503.636,216.555h-4.501v3.438h4.501V216.555z M503.636,223.955
			v-3.619h-4.501v3.619H503.636z M503.636,224.314h-4.501v3.709h4.501V224.314z"/>
		<path fill="#BAB3A4" d="M531.32,223.162h-6.446v1.243h-0.342v-7.508h6.788v-3.169h0.36v3.169h6.788v7.508h-0.342v-1.243h-6.446
			v6.446h-0.36V223.162z M524.873,217.257v5.563h6.446v-5.563H524.873z M531.679,222.82h6.446v-5.563h-6.446V222.82z"/>
		<path fill="#BAB3A4" d="M556.104,218.859v10.569h-0.342v-9.741c-0.486,1.063-1.044,2.07-1.71,3.043l-0.288-0.198
			c1.639-2.395,2.791-5.293,3.493-8.661l0.342,0.072C557.256,215.654,556.752,217.293,556.104,218.859z M563.072,227.322h-4.573
			v1.404h-0.36v-7.418h2.287v-3.781h-2.827v-0.36h2.827v-3.259h0.36v3.259h2.827v0.36h-2.827v3.781h2.287V227.322z M558.498,221.668
			v5.293h4.231v-5.293H558.498z M565.286,217.797l0.342-0.036c0.271,2.863,0.829,5.149,1.693,6.86
			c1.17-1.891,1.854-4.52,2.088-7.887h-4.105c-0.45,1.818-0.99,3.439-1.621,4.826l-0.324-0.144c0.99-2.197,1.71-4.771,2.197-7.725
			l0.342,0.072c-0.126,0.774-0.288,1.639-0.522,2.611h5.384v0.36h-0.99c-0.252,3.511-1.008,6.266-2.251,8.265
			c0.738,1.351,1.837,2.611,3.259,3.763l-0.216,0.27c-1.404-1.116-2.484-2.359-3.259-3.709c-0.954,1.386-2.323,2.629-4.141,3.727
			l-0.18-0.306c1.818-1.099,3.187-2.359,4.123-3.763C566.187,223.234,565.574,220.84,565.286,217.797z"/>
		<path fill="#BAB3A4" d="M596.769,215.222H601v0.36h-4.231v1.225h-0.342v-1.225h-6.014v1.225h-0.342v-1.225h-4.231v-0.36h4.231
			v-1.584h0.342v1.584h6.014v-1.584h0.342V215.222z M590.179,224.657l0.144-0.324c1.674,0.738,3.223,1.53,4.681,2.413
			c1.603-0.846,2.791-1.891,3.565-3.133h-7.778c-1.207,0.9-2.755,1.711-4.627,2.449l-0.126-0.324
			c2.755-1.099,4.825-2.395,6.194-3.889h-5.96v2.466h-0.342v-2.827h14.98v2.827h-0.342v-2.466h-7.869
			c-0.414,0.486-0.9,0.954-1.458,1.404h7.742v0.36c-1.783,3.079-5.906,5.023-11.901,5.726l-0.036-0.342
			c3.025-0.342,5.545-1.026,7.58-2.053C593.15,226.079,591.674,225.323,590.179,224.657z M599.776,220.426h-12.711v-3.169h12.711
			V220.426z M587.424,217.617v2.467h3.709v-2.467H587.424z M591.475,217.617v2.467h3.889v-2.467H591.475z M595.707,220.083h3.709
			v-2.467h-3.709V220.083z"/>
		<path fill="#BAB3A4" d="M617.838,223.29v1.714c0,0.094-0.041,0.141-0.123,0.141h-0.545c-0.094,0-0.141-0.047-0.141-0.141
			l0.035-4.236v-2.338l-0.035-3.261c0-0.094,0.047-0.141,0.141-0.141l1.336,0.035h1.081l1.354-0.035
			c0.082,0,0.123,0.047,0.123,0.141l-0.035,2.646v2.558l0.035,4.052c0,0.082-0.041,0.123-0.123,0.123h-0.545
			c-0.082,0-0.123-0.047-0.123-0.141v-1.116H617.838z M617.838,222.534h2.435v-6.732h-2.435V222.534z M622.628,224.204l0.378,0.097
			c0.088,0.023,0.132,0.059,0.132,0.105c0,0.012-0.003,0.029-0.009,0.053c-0.217,1.418-0.647,2.631-1.292,3.639
			c-0.041,0.059-0.076,0.088-0.105,0.088c-0.023,0-0.062-0.018-0.114-0.053l-0.378-0.22c-0.1-0.064-0.149-0.114-0.149-0.149
			c0-0.023,0.015-0.05,0.044-0.079c0.668-1.008,1.093-2.142,1.274-3.401c0.012-0.07,0.035-0.105,0.07-0.105
			C622.502,224.177,622.552,224.186,622.628,224.204z M627.559,216.97h1.204l2.215-0.035c0.094,0,0.141,0.041,0.141,0.123v0.475
			c0,0.094-0.047,0.141-0.141,0.141l-2.215-0.035h-1.204v1.907h1.239l2.215-0.035c0.082,0,0.123,0.041,0.123,0.123v0.492
			c0,0.082-0.041,0.123-0.123,0.123l-2.215-0.035h-1.239v2.03h1.925l2.329-0.035c0.094,0,0.141,0.047,0.141,0.141
			c-0.047,0.434-0.076,0.844-0.088,1.23c-0.1,2.279-0.346,3.817-0.738,4.614c-0.305,0.621-0.87,0.932-1.696,0.932
			c-0.193,0-0.519-0.012-0.976-0.035c-0.135-0.012-0.22-0.038-0.255-0.079c-0.029-0.029-0.056-0.105-0.079-0.229
			c-0.035-0.199-0.108-0.393-0.22-0.58c0.568,0.088,1.061,0.132,1.477,0.132c0.51,0,0.864-0.188,1.063-0.563
			c0.352-0.809,0.571-2.429,0.659-4.86h-5.467l-2.883,0.035c-0.07,0-0.105-0.035-0.105-0.105l0.035-2.145v-4.087l-0.035-2.162
			c0-0.07,0.035-0.105,0.105-0.105l2.883,0.035h3.744l2.285-0.035c0.082,0,0.123,0.047,0.123,0.141v0.51
			c0,0.094-0.041,0.141-0.123,0.141l-2.285-0.035h-1.819V216.97z M626.785,216.97v-1.872h-3.313v1.872H626.785z M626.785,217.638
			h-3.313v1.907h3.313V217.638z M626.785,220.213h-3.313v2.03h3.313V220.213z M625.414,227.394c0,0.094-0.053,0.152-0.158,0.176
			l-0.396,0.114c-0.076,0.029-0.132,0.044-0.167,0.044c-0.047,0-0.07-0.038-0.07-0.114c-0.035-1.16-0.158-2.194-0.369-3.103
			c-0.006-0.023-0.009-0.041-0.009-0.053c0-0.047,0.062-0.088,0.185-0.123l0.343-0.07c0.029-0.006,0.05-0.009,0.062-0.009
			c0.053,0,0.091,0.038,0.114,0.114C625.183,225.308,625.338,226.316,625.414,227.394z M626.284,224.318
			c-0.018-0.041-0.026-0.067-0.026-0.079c0-0.035,0.05-0.07,0.149-0.105l0.325-0.088c0.035-0.012,0.064-0.018,0.088-0.018
			c0.035,0,0.07,0.035,0.105,0.105c0.346,0.762,0.615,1.62,0.809,2.575c0.006,0.023,0.009,0.044,0.009,0.062
			c0,0.053-0.05,0.1-0.149,0.141l-0.36,0.123c-0.064,0.023-0.111,0.035-0.141,0.035c-0.041,0-0.064-0.035-0.07-0.105
			C626.894,226.096,626.648,225.214,626.284,224.318z M628.675,223.773c0.041-0.012,0.073-0.018,0.097-0.018
			c0.035,0,0.07,0.026,0.105,0.079c0.445,0.727,0.788,1.468,1.028,2.224c0.012,0.035,0.018,0.062,0.018,0.079
			c0,0.035-0.044,0.07-0.132,0.105l-0.343,0.123c-0.064,0.029-0.108,0.044-0.132,0.044c-0.035,0-0.062-0.038-0.079-0.114
			c-0.287-0.914-0.606-1.664-0.958-2.25c-0.018-0.029-0.026-0.053-0.026-0.07c0-0.041,0.05-0.076,0.149-0.105L628.675,223.773z"/>
		<path fill="#BAB3A4" d="M651.937,214.826c2.755,0,4.321,0.99,4.321,2.701c0,1.17-0.666,2.178-1.242,2.628
			c-0.288,0.234-0.702,0.504-1.225,0.847c-0.882,0.576-1.17,0.756-1.747,1.368c-0.594,0.612-0.828,1.368-0.828,2.359h-0.36
			c0-1.081,0.27-1.927,0.918-2.593c0.648-0.667,0.937-0.864,1.819-1.44c0.774-0.486,1.062-0.703,1.584-1.225
			c0.504-0.522,0.72-1.152,0.72-1.944c0-1.495-1.44-2.341-3.961-2.341c-1.386,0-2.719,0.216-3.961,0.648v-0.378
			C649.254,215.042,650.569,214.826,651.937,214.826z M651.217,228.15h-0.36v-1.98h0.36V228.15z"/>
	</g>
	<g>
		<g>
			<path fill="#F7F5F2" d="M421.422,694.143h-3.164v-0.943h1.16l-0.393-0.949l1.09-0.24c0.18,0.438,0.328,0.834,0.445,1.189h0.861
				V694.143z M421.158,702.352h-0.961v-0.504h-0.768v0.756h-0.949v-4.125h2.678V702.352z M421.181,695.883h-2.689v-0.908h2.689
				V695.883z M421.17,697.623h-2.678v-0.932h2.678V697.623z M420.197,700.898v-1.471h-0.768v1.471H420.197z M428.658,699.475h-3.686
				c-0.375,0.375-0.799,0.727-1.271,1.055v1.066c0.324-0.066,0.813-0.211,1.465-0.434l0.047,0.879
				c-0.773,0.297-1.592,0.514-2.455,0.65l-0.316-0.768c0.168-0.117,0.252-0.281,0.252-0.492v-0.34
				c-0.344,0.145-0.643,0.262-0.896,0.352l-0.492-0.844c0.918-0.293,1.662-0.668,2.232-1.125h-2.027v-0.721h1.811v-0.516h-1.488
				v-0.65h1.488v-0.516h-1.646v-0.732h1.646v-0.434h1.031v0.434h1.43v-0.434h1.031v0.434h1.629v0.732h-1.629v0.516h1.4v0.65h-1.4
				v0.516h1.846V699.475z M428.588,693.58h-6.891v-0.791h2.76c-0.051-0.168-0.139-0.348-0.264-0.539l1.178-0.193l0.299,0.732h2.918
				V693.58z M424.82,695.607h-2.836v-1.641h2.836V695.607z M423.883,694.986v-0.41h-0.984v0.41H423.883z M425.781,697.588v-0.516
				h-1.43v0.516H425.781z M425.781,698.754v-0.516h-1.43v0.516H425.781z M428.816,701.859l-0.568,0.891
				c-1.887-0.477-3.055-1.396-3.504-2.76l0.902-0.328c0.16,0.406,0.369,0.744,0.627,1.014c0.414-0.277,0.809-0.586,1.184-0.926
				l0.779,0.539c-0.465,0.418-0.855,0.727-1.172,0.926C427.478,701.492,428.062,701.707,428.816,701.859z M428.236,695.607h-2.889
				v-1.641h2.889V695.607z M427.316,695.01v-0.434h-1.055v0.434H427.316z"/>
			<path fill="#F7F5F2" d="M436.667,702.041h-4.951v-9.076h1.406v7.869h3.545V702.041z"/>
			<path fill="#F7F5F2" d="M445.923,698.279c0,2.609-1.193,3.914-3.58,3.914c-2.289,0-3.434-1.262-3.434-3.785v-5.443h1.406v5.408
				c0,1.723,0.711,2.584,2.133,2.584c1.379,0,2.068-0.832,2.068-2.496v-5.496h1.406V698.279z"/>
			<path fill="#F7F5F2" d="M449.285,702.041v-9.076h2.754c3.203,0,4.805,1.475,4.805,4.424c0,1.418-0.456,2.548-1.368,3.39
				s-2.081,1.263-3.507,1.263H449.285z M450.692,694.172v6.662h1.236c1.07,0,1.911-0.3,2.522-0.899s0.917-1.438,0.917-2.517
				c0-1.059-0.291-1.864-0.873-2.417s-1.426-0.829-2.531-0.829H450.692z"/>
			<path fill="#F7F5F2" d="M459.151,697.617c0-1.434,0.401-2.593,1.204-3.478s1.886-1.327,3.249-1.327
				c1.277,0,2.303,0.43,3.076,1.289s1.16,1.961,1.16,3.305c0,1.426-0.395,2.58-1.184,3.463s-1.855,1.324-3.199,1.324
				c-1.281,0-2.319-0.426-3.114-1.277S459.151,698.965,459.151,697.617z M460.628,697.518c0,1,0.256,1.823,0.768,2.47
				s1.203,0.97,2.074,0.97c0.914,0,1.625-0.308,2.133-0.923s0.762-1.446,0.762-2.493c0-1.07-0.245-1.918-0.735-2.543
				s-1.188-0.938-2.095-0.938c-0.883,0-1.588,0.324-2.115,0.973S460.628,696.51,460.628,697.518z"/>
			<path fill="#F7F5F2" d="M476.336,696.176c-1.992,0.27-3.936,0.457-5.83,0.563l-0.064-0.768c0.809-0.035,1.621-0.084,2.438-0.146
				v-0.527h-1.945v-0.65h1.945v-0.381h-2.396v-0.662h2.396v-0.404h-1.945v-0.627h1.945v-0.434h1.031v0.434h1.84v0.627h-1.84v0.404
				h1.992v0.662h-1.992v0.381h1.84v0.65h-1.84v0.422c0.703-0.047,1.508-0.131,2.414-0.252L476.336,696.176z M480.308,701.402
				c0,0.207-0.054,0.376-0.161,0.507s-0.239,0.214-0.396,0.249s-0.459,0.053-0.908,0.053c-0.41,0-0.701-0.012-0.873-0.035
				l-0.363-0.867c0.242,0.008,0.738,0.012,1.488,0.012c0.137,0,0.205-0.068,0.205-0.205v-0.428h-3.111v1.951h-1.066v-1.951h-3.094
				v1.547h-1.055v-2.303h4.148v-0.422h-3.357v-2.473h2.854c0.137-0.195,0.244-0.367,0.322-0.516l1.072,0.105l-0.252,0.41h3.709
				v2.473h-3.281v0.422h4.119V701.402z M478.445,698.01v-0.352h-5.625v0.352H478.445z M478.445,698.883v-0.357h-5.625v0.357H478.445
				z M478.246,695.092l-0.797,0.592c-0.461-0.453-0.855-0.781-1.184-0.984l0.779-0.545
				C477.439,694.377,477.84,694.689,478.246,695.092z M480.847,693.979h-0.814v1.775c0,0.297-0.106,0.543-0.319,0.738
				s-0.79,0.273-1.731,0.234l-0.352-0.984h1.107c0.184,0,0.275-0.1,0.275-0.299v-1.465h-2.736v-0.914h2.736v-0.914h1.02v0.914h0.814
				V693.979z"/>
			<path fill="#F7F5F2" d="M486.858,692.344c-0.145,0.441-0.357,0.986-0.639,1.635l-0.428,0.932v7.781h-1.031v-6.041
				c-0.125,0.168-0.373,0.469-0.744,0.902l-0.563-1.09c1.047-1.242,1.826-2.707,2.338-4.395L486.858,692.344z M493.901,693.533
				c-0.195,1.352-0.486,2.447-0.873,3.287l-0.984-0.41c0.25-0.605,0.438-1.236,0.563-1.893h-3.949
				c-0.473,0.891-1.064,1.738-1.775,2.543l-0.721-0.779c0.988-1.109,1.781-2.494,2.379-4.154l1.02,0.252
				c-0.184,0.512-0.332,0.896-0.445,1.154H493.901z M489.126,697.143c-0.551,1.824-1.234,3.254-2.051,4.289l-0.838-0.65
				c0.828-1.148,1.467-2.453,1.916-3.914L489.126,697.143z M490.796,701.514c0,0.742-0.371,1.113-1.113,1.113
				c-0.66,0-1.109-0.004-1.348-0.012l-0.346-1.066l1.16,0.041c0.395,0,0.592-0.133,0.592-0.398v-5.918h1.055V701.514z
				 M494.194,700.951l-0.973,0.504c-0.359-1.305-0.943-2.717-1.752-4.236l0.932-0.387
				C493.241,698.391,493.839,699.764,494.194,700.951z"/>
			<path fill="#F7F5F2" d="M507.329,698.104l-0.598,0.803c-0.465-0.238-0.904-0.49-1.318-0.756v2.391h-5.941v1.166
				c0.52-0.051,1.23-0.164,2.133-0.34l0.064,0.832c-0.914,0.199-2.035,0.383-3.363,0.551l-0.24-0.814
				c0.234-0.086,0.352-0.23,0.352-0.434v-3.217c-0.293,0.191-0.65,0.383-1.072,0.574l-0.621-0.838
				c1.199-0.488,2.088-1.037,2.666-1.646h-2.52v-0.85h4.664v-0.434h-3.926v-0.732h3.926v-0.393h-4.189v-0.809h9.34v0.809h-4.119
				v0.393h3.855v0.732h-3.855v0.434h4.6v0.85h-2.402C505.302,696.961,506.157,697.537,507.329,698.104z M501.2,692.619l-0.926,0.375
				c-0.461-0.273-0.865-0.465-1.213-0.574l0.973-0.387C500.484,692.186,500.872,692.381,501.2,692.619z M504.775,697.723
				c-0.566-0.469-1.002-0.918-1.307-1.348h-2.771c-0.352,0.48-0.813,0.93-1.383,1.348H504.775z M504.353,698.824v-0.434h-4.881
				v0.434H504.353z M504.353,699.879v-0.416h-4.881v0.416H504.353z M503.445,697.336h-2.783v-0.586h2.783V697.336z M507.077,701.971
				l-0.504,0.803c-1.527-0.578-3.104-1.01-4.729-1.295l0.545-0.779c0.73,0.121,1.514,0.293,2.35,0.516
				c0.5-0.32,0.936-0.678,1.307-1.072l0.674,0.545c-0.195,0.215-0.512,0.49-0.949,0.826
				C506.193,701.639,506.628,701.791,507.077,701.971z M505.255,692.42c-0.477,0.258-0.881,0.449-1.213,0.574l-0.92-0.375
				c0.441-0.172,0.824-0.367,1.148-0.586L505.255,692.42z"/>
			<path fill="#F7F5F2" d="M520.518,700.348c-0.195,1.586-0.658,2.379-1.389,2.379c-0.742,0-1.391-0.732-1.945-2.197
				c-0.824,0.859-1.717,1.615-2.678,2.268l-0.744-0.791c1.297-0.832,2.313-1.688,3.047-2.566c-0.363-1.375-0.594-2.828-0.691-4.359
				h-4.084v1.307h3.17c-0.039,0.984-0.085,1.755-0.138,2.312s-0.099,0.979-0.138,1.266s-0.14,0.539-0.302,0.756
				s-0.36,0.352-0.595,0.404s-0.537,0.079-0.908,0.079c-0.188,0-0.383-0.008-0.586-0.023l-0.299-0.996
				c0.242,0.012,0.449,0.018,0.621,0.018c0.566,0,0.886-0.063,0.958-0.19s0.138-0.485,0.196-1.075s0.092-1.09,0.1-1.5h-2.115
				c-0.059,2.293-0.486,4.072-1.283,5.338l-0.826-0.779c0.719-1.199,1.078-2.992,1.078-5.379v-2.555h5.074
				c-0.027-0.641-0.035-1.277-0.023-1.91h1.084c-0.012,0.199-0.018,0.408-0.018,0.627c0,0.379,0.018,0.807,0.053,1.283h3.141v1.02
				h-3.082c0.047,1.098,0.195,2.193,0.445,3.287c0.469-0.711,0.893-1.602,1.271-2.672l0.961,0.346
				c-0.531,1.43-1.16,2.613-1.887,3.551c0.137,0.473,0.308,0.896,0.513,1.269s0.335,0.578,0.39,0.615s0.113,0.056,0.176,0.056
				c0.07,0,0.126-0.022,0.167-0.067s0.099-0.241,0.173-0.589s0.121-0.688,0.141-1.02L520.518,700.348z M519.944,693.158
				l-0.598,0.773c-0.438-0.32-1.01-0.617-1.717-0.891l0.598-0.803C518.871,692.48,519.444,692.787,519.944,693.158z"/>
			<path fill="#F7F5F2" d="M528.005,696.041h-3.439v6.621h-1.096v-10.283h4.535V696.041z M526.938,693.762v-0.469h-2.373v0.469
				H526.938z M526.938,695.127v-0.504h-2.373v0.504H526.938z M533.348,701.859c0,0.523-0.377,0.785-1.131,0.785
				c-0.129,0-0.268-0.006-0.416-0.018l-0.316-0.85c-0.125,0.145-0.266,0.239-0.422,0.284s-0.457,0.067-0.902,0.067
				c-0.523,0-0.879-0.062-1.066-0.185s-0.281-0.335-0.281-0.636v-1.342h-0.732c-0.164,1.117-0.969,1.938-2.414,2.461l-0.539-0.867
				c1.105-0.332,1.746-0.863,1.922-1.594h-0.973v-2.004c-0.207,0.098-0.455,0.197-0.744,0.299l-0.516-0.803
				c1.078-0.402,1.922-0.826,2.531-1.271l0.656,0.703c-0.309,0.223-0.641,0.424-0.996,0.604h3.135
				c-0.086-0.055-0.518-0.26-1.295-0.615l0.539-0.703c1.043,0.422,1.918,0.889,2.625,1.4l-0.563,0.721
				c-0.359-0.25-0.592-0.402-0.697-0.457v2.127h-0.955v1.008c0,0.164,0.156,0.246,0.469,0.246c0.234,0,0.396-0.063,0.486-0.19
				s0.135-0.39,0.135-0.788l0.914,0.357c0,0.316-0.068,0.656-0.205,1.02c0.078,0.016,0.172,0.023,0.281,0.023
				c0.285,0,0.428-0.092,0.428-0.275v-5.326h-3.445v-3.662h4.488V701.859z M529.757,699.1v-0.768h-2.648v0.768H529.757z
				 M532.305,693.762v-0.469h-2.379v0.469H532.305z M532.305,695.127v-0.504h-2.379v0.504H532.305z"/>
			<path fill="#F7F5F2" d="M539.91,694.23h-3.469v-0.973h1.301c-0.141-0.379-0.293-0.691-0.457-0.938l1.078-0.287
				c0.238,0.461,0.406,0.869,0.504,1.225h1.043V694.23z M539.828,696.018h-3.123v-0.961h3.123V696.018z M539.828,697.828h-3.123
				v-0.984h3.123V697.828z M539.828,702.428h-1.008v-0.469h-1.09v0.691h-1.008v-4.02h3.105V702.428z M538.82,700.951v-1.348h-1.09
				v1.348H538.82z M546.39,701.309h-3.721l0.434,0.445c-0.695,0.367-1.535,0.684-2.52,0.949l-0.516-0.779
				c0.781-0.176,1.445-0.381,1.992-0.615h-1.307v-3.885h5.637V701.309z M546.883,693.475h-2.795v0.457h2.508v0.727h-6.047v-0.727
				h2.508v-0.457h-2.783v-0.82h2.807v-0.475h1.008v0.475h2.783L546.883,693.475z M546.701,697.061h-6.223v-2.039h6.223V697.061z
				 M542.242,696.363v-0.668h-0.82v0.668H542.242z M545.394,698.549v-0.398h-3.633v0.398H545.394z M545.394,699.545v-0.422h-3.633
				v0.422H545.394z M545.394,700.529v-0.41h-3.633v0.41H545.394z M543.982,696.363v-0.668h-0.844v0.668H543.982z M547.029,701.982
				l-0.469,0.756c-0.703-0.234-1.504-0.422-2.402-0.563l0.48-0.785C545.447,701.523,546.244,701.721,547.029,701.982z
				 M545.758,696.363v-0.668h-0.855v0.668H545.758z"/>
			<path fill="#F7F5F2" d="M552.981,695.607c-1.137,0.641-2.145,1.148-3.023,1.523l-0.422-0.885
				c1.078-0.449,2.123-0.965,3.135-1.547L552.981,695.607z M554.393,696.1c0,0.293-0.07,0.523-0.211,0.691s-0.302,0.269-0.483,0.302
				s-0.513,0.05-0.993,0.05l-0.352-0.943l0.627,0.012c0.246,0,0.369-0.113,0.369-0.34v-2.531h-3.574v-0.949h4.617V696.1z
				 M552.249,694.242l-0.604,0.768c-0.488-0.266-1.055-0.482-1.699-0.65l0.621-0.791
				C551.149,693.713,551.71,693.938,552.249,694.242z M558.946,702.65h-1.061v-0.475h-6.129v0.475h-1.043v-4.963h3.334
				c0.152-0.199,0.305-0.469,0.457-0.809l1.137,0.182c-0.07,0.188-0.178,0.396-0.322,0.627h3.627V702.65z M557.885,699.498v-0.844
				h-6.129v0.844H557.885z M557.885,701.25v-0.879h-6.129v0.879H557.885z M558.249,695.584c-0.91,0.465-1.875,0.861-2.895,1.189
				l-0.428-0.85c1.031-0.355,2.039-0.76,3.023-1.213L558.249,695.584z M559.661,695.906c0,0.395-0.076,0.686-0.229,0.873
				s-0.319,0.297-0.501,0.328s-0.558,0.047-1.128,0.047l-0.357-0.943c0.281,0.016,0.541,0.023,0.779,0.023
				c0.082,0,0.168-0.035,0.258-0.105s0.135-0.148,0.135-0.234v-2.555h-3.539v-0.949h4.582V695.906z M557.241,694.336l-0.674,0.744
				c-0.477-0.324-0.953-0.572-1.43-0.744l0.639-0.732C556.245,693.748,556.733,693.992,557.241,694.336z"/>
			<path fill="#F7F5F2" d="M563.732,694.863c-0.016,1.121-0.111,2.133-0.287,3.035l-0.768-0.334c0.164-0.84,0.26-1.795,0.287-2.865
				L563.732,694.863z M566.023,696.223l-0.633,0.85c-0.09-0.176-0.23-0.416-0.422-0.721v6.311h-1.02V692.15h1.02v2.713
				C565.394,695.359,565.745,695.813,566.023,696.223z M572.673,701.01h-4.523l0.551,0.621c-0.695,0.391-1.635,0.76-2.818,1.107
				l-0.604-0.914c1.016-0.246,1.832-0.518,2.449-0.814h-1.57v-4.611h6.516V701.01z M573.282,694.553h-0.697l-0.152,1.318h-6.299
				l0.152-1.318h-0.744v-0.873h0.867l0.117-1.301h6.311l-0.152,1.301h0.598V694.553z M571.601,697.688v-0.492h-4.412v0.492H571.601z
				 M571.601,698.947v-0.527h-4.412v0.527H571.601z M571.601,700.219v-0.557h-4.412v0.557H571.601z M568.917,694.553h-1.623
				l-0.059,0.527h1.635L568.917,694.553z M569.07,693.223h-1.617l-0.035,0.457h1.605L569.07,693.223z M571.554,694.553h-1.641
				l-0.053,0.516h1.635L571.554,694.553z M571.712,693.223h-1.635l-0.059,0.457h1.646L571.712,693.223z M573.429,701.871
				l-0.492,0.879c-0.996-0.363-1.924-0.604-2.783-0.721l0.516-0.879C571.861,701.357,572.781,701.598,573.429,701.871z"/>
			<path fill="#F7F5F2" d="M579.475,701.273h-1.008v-0.639l-1.137-0.012v0.938h-1.025l-0.023-8.543h3.193V701.273z M578.467,699.58
				v-5.52h-1.137v5.52H578.467z M586.471,700.184c-0.039,0.867-0.17,1.465-0.393,1.793s-0.535,0.506-0.938,0.533
				s-1.045,0.041-1.928,0.041c-0.898,0-1.49-0.019-1.775-0.056s-0.51-0.163-0.674-0.378s-0.246-0.48-0.246-0.797v-8.83h5.496v5.314
				h-4.453v3.375c0,0.215,0.113,0.322,0.34,0.322l2.877-0.012c0.223,0,0.376-0.142,0.46-0.425s0.144-0.722,0.179-1.315
				L586.471,700.184z M582.739,696.785v-3.264h-1.178v3.264H582.739z M584.948,696.785v-3.264h-1.143v3.264H584.948z"/>
			<path fill="#F7F5F2" d="M589.464,701.35c0-0.234,0.084-0.431,0.252-0.589s0.373-0.237,0.615-0.237
				c0.238,0,0.441,0.079,0.609,0.237s0.252,0.354,0.252,0.589c0,0.227-0.083,0.419-0.249,0.577s-0.36,0.237-0.583,0.237
				c-0.262,0-0.477-0.08-0.645-0.24S589.464,701.572,589.464,701.35z M591.04,692.965l-0.164,6.428h-1.119l-0.158-6.428H591.04z"/>
		</g>
	</g>
	<g>
		<g>
			<path fill="#F7F5F2" d="M411.577,722.092h-3.713v-6.807h1.055v5.902h2.659V722.092z"/>
			<path fill="#F7F5F2" d="M416.521,719.939h-3.34c0.044,0.981,0.543,1.472,1.499,1.472c0.539,0,1.03-0.161,1.472-0.483v0.853
				c-0.434,0.284-1.003,0.426-1.709,0.426c-0.721,0-1.285-0.22-1.692-0.659s-0.611-1.055-0.611-1.846
				c0-0.75,0.219-1.368,0.657-1.854s0.987-0.729,1.646-0.729c0.656,0,1.167,0.208,1.532,0.622c0.364,0.415,0.547,0.985,0.547,1.711
				V719.939z M415.519,719.188c-0.003-0.416-0.098-0.735-0.286-0.958s-0.454-0.334-0.8-0.334c-0.313,0-0.586,0.118-0.817,0.354
				s-0.375,0.548-0.431,0.938H415.519z"/>
			<path fill="#F7F5F2" d="M420.094,722.04c-0.19,0.108-0.464,0.163-0.822,0.163c-0.923,0-1.384-0.501-1.384-1.503v-2.65h-0.822
				v-0.817h0.822v-1.138l1.028-0.312v1.45h1.178v0.817h-1.178v2.47c0,0.302,0.053,0.52,0.16,0.655s0.279,0.202,0.517,0.202
				c0.185,0,0.352-0.053,0.501-0.158V722.04z"/>
			<path fill="#F7F5F2" d="M427.152,722.092h-3.713v-6.807h1.055v5.902h2.659V722.092z"/>
			<path fill="#F7F5F2" d="M433.194,719.271c0,1.957-0.895,2.936-2.685,2.936c-1.717,0-2.575-0.946-2.575-2.839v-4.083h1.055v4.056
				c0,1.292,0.533,1.938,1.6,1.938c1.034,0,1.551-0.624,1.551-1.872v-4.122h1.055V719.271z"/>
			<path fill="#F7F5F2" d="M434.816,722.092v-6.807h2.065c2.402,0,3.604,1.106,3.604,3.318c0,1.063-0.342,1.911-1.026,2.542
				c-0.684,0.632-1.561,0.947-2.63,0.947H434.816z M435.87,716.19v4.997h0.927c0.803,0,1.433-0.225,1.892-0.675
				c0.458-0.449,0.688-1.079,0.688-1.887c0-0.794-0.218-1.398-0.655-1.813c-0.437-0.414-1.069-0.622-1.898-0.622H435.87z"/>
			<path fill="#F7F5F2" d="M441.315,718.774c0-1.075,0.301-1.945,0.903-2.608c0.602-0.664,1.414-0.996,2.437-0.996
				c0.958,0,1.727,0.322,2.307,0.967s0.87,1.471,0.87,2.479c0,1.069-0.296,1.935-0.888,2.597s-1.392,0.993-2.399,0.993
				c-0.961,0-1.74-0.319-2.335-0.958C441.613,720.61,441.315,719.785,441.315,718.774z M442.423,718.7
				c0,0.75,0.192,1.368,0.576,1.853s0.902,0.727,1.556,0.727c0.686,0,1.219-0.231,1.6-0.692c0.381-0.462,0.571-1.085,0.571-1.87
				c0-0.803-0.184-1.438-0.551-1.907c-0.368-0.469-0.892-0.703-1.571-0.703c-0.662,0-1.191,0.243-1.586,0.729
				S442.423,717.944,442.423,718.7z"/>
			<path fill="#F7F5F2" d="M455.483,722.092h-1.033v-2.786c0-0.908-0.335-1.362-1.006-1.362c-0.34,0-0.623,0.13-0.848,0.391
				s-0.338,0.593-0.338,0.998v2.76h-1.033v-7.194h1.033v3.111h0.022c0.369-0.595,0.889-0.892,1.56-0.892
				c1.096,0,1.644,0.662,1.644,1.986V722.092z"/>
			<path fill="#F7F5F2" d="M460.919,719.939h-3.34c0.044,0.981,0.543,1.472,1.499,1.472c0.539,0,1.03-0.161,1.472-0.483v0.853
				c-0.434,0.284-1.003,0.426-1.709,0.426c-0.721,0-1.285-0.22-1.692-0.659s-0.611-1.055-0.611-1.846
				c0-0.75,0.219-1.368,0.657-1.854s0.987-0.729,1.646-0.729c0.656,0,1.167,0.208,1.532,0.622c0.364,0.415,0.547,0.985,0.547,1.711
				V719.939z M459.917,719.188c-0.003-0.416-0.098-0.735-0.286-0.958s-0.454-0.334-0.8-0.334c-0.313,0-0.586,0.118-0.817,0.354
				s-0.375,0.548-0.431,0.938H459.917z"/>
			<path fill="#F7F5F2" d="M461.987,722.092v-7.194h1.033v7.194H461.987z"/>
			<path fill="#F7F5F2" d="M465.507,721.438v2.892h-1.033v-7.097h1.033v0.809h0.022c0.375-0.615,0.92-0.923,1.635-0.923
				c0.618,0,1.104,0.216,1.459,0.648s0.532,1.017,0.532,1.755c0,0.812-0.201,1.462-0.602,1.951s-0.939,0.734-1.613,0.734
				c-0.615,0-1.085-0.256-1.411-0.769H465.507z M465.498,720.044c0,0.378,0.117,0.695,0.352,0.951
				c0.234,0.257,0.53,0.385,0.888,0.385c0.431,0,0.765-0.165,1.002-0.494c0.237-0.33,0.356-0.786,0.356-1.369
				c0-0.501-0.11-0.888-0.33-1.162s-0.527-0.411-0.923-0.411s-0.718,0.144-0.969,0.431c-0.25,0.287-0.375,0.65-0.375,1.09V720.044z"
				/>
			<path fill="#F7F5F2" d="M476.682,717.232l-2.14,5.502c-0.425,1.096-1.04,1.644-1.846,1.644c-0.264,0-0.478-0.028-0.642-0.083
				v-0.87c0.17,0.076,0.346,0.114,0.527,0.114c0.387,0,0.672-0.215,0.857-0.646l0.338-0.809l-1.925-4.852H473l1.169,3.467
				c0.026,0.073,0.064,0.229,0.114,0.466h0.022c0.015-0.094,0.054-0.246,0.119-0.457l1.217-3.476H476.682z"/>
			<path fill="#F7F5F2" d="M477.073,719.706c0-0.8,0.228-1.431,0.683-1.894s1.076-0.694,1.861-0.694
				c0.741,0,1.327,0.224,1.758,0.672s0.646,1.061,0.646,1.837c0,0.782-0.227,1.408-0.681,1.876s-1.061,0.703-1.819,0.703
				c-0.744,0-1.338-0.227-1.782-0.681C477.296,721.071,477.073,720.465,477.073,719.706z M478.124,719.684
				c0,0.533,0.13,0.949,0.389,1.248c0.26,0.299,0.612,0.448,1.057,0.448c0.935,0,1.402-0.576,1.402-1.727
				c0-0.557-0.12-0.98-0.36-1.272s-0.587-0.438-1.042-0.438s-0.809,0.155-1.063,0.466S478.124,719.145,478.124,719.684z"/>
			<path fill="#F7F5F2" d="M487.344,722.092h-1.028v-0.76h-0.022c-0.337,0.583-0.835,0.875-1.494,0.875
				c-1.146,0-1.718-0.687-1.718-2.061v-2.914h1.028v2.786c0,0.908,0.349,1.362,1.046,1.362c0.34,0,0.618-0.125,0.835-0.374
				s0.325-0.576,0.325-0.98v-2.795h1.028V722.092z"/>
			<path fill="#F7F5F2" d="M495.416,722.092h-1.028v-0.769h-0.022c-0.352,0.589-0.888,0.883-1.608,0.883
				c-0.615,0-1.105-0.219-1.47-0.657c-0.365-0.438-0.547-1.029-0.547-1.773c0-0.806,0.205-1.45,0.615-1.934s0.945-0.725,1.604-0.725
				s1.128,0.249,1.406,0.747h0.022v-2.966h1.028V722.092z M494.397,719.245c0-0.369-0.12-0.678-0.358-0.927
				c-0.239-0.249-0.534-0.374-0.886-0.374c-0.416,0-0.747,0.16-0.993,0.479s-0.369,0.756-0.369,1.31c0,0.51,0.116,0.912,0.347,1.207
				c0.231,0.294,0.546,0.441,0.945,0.441c0.387,0,0.702-0.146,0.947-0.438c0.244-0.291,0.367-0.66,0.367-1.105V719.245z"/>
			<path fill="#F7F5F2" d="M500.945,719.939h-3.34c0.044,0.981,0.543,1.472,1.499,1.472c0.539,0,1.03-0.161,1.472-0.483v0.853
				c-0.434,0.284-1.003,0.426-1.709,0.426c-0.721,0-1.285-0.22-1.692-0.659s-0.611-1.055-0.611-1.846
				c0-0.75,0.219-1.368,0.657-1.854s0.987-0.729,1.646-0.729c0.656,0,1.167,0.208,1.532,0.622c0.364,0.415,0.547,0.985,0.547,1.711
				V719.939z M499.943,719.188c-0.003-0.416-0.098-0.735-0.286-0.958s-0.454-0.334-0.8-0.334c-0.313,0-0.586,0.118-0.817,0.354
				s-0.375,0.548-0.431,0.938H499.943z"/>
			<path fill="#F7F5F2" d="M506.13,717.232l-1.894,4.86h-1.094l-1.802-4.86h1.121l1.094,3.344c0.094,0.287,0.151,0.535,0.171,0.743
				h0.022c0.026-0.24,0.079-0.48,0.158-0.721l1.138-3.366H506.13z"/>
			<path fill="#F7F5F2" d="M510.903,719.939h-3.34c0.044,0.981,0.543,1.472,1.499,1.472c0.539,0,1.03-0.161,1.472-0.483v0.853
				c-0.434,0.284-1.003,0.426-1.709,0.426c-0.721,0-1.285-0.22-1.692-0.659s-0.611-1.055-0.611-1.846
				c0-0.75,0.219-1.368,0.657-1.854s0.987-0.729,1.646-0.729c0.656,0,1.167,0.208,1.532,0.622c0.364,0.415,0.547,0.985,0.547,1.711
				V719.939z M509.901,719.188c-0.003-0.416-0.098-0.735-0.286-0.958s-0.454-0.334-0.8-0.334c-0.313,0-0.586,0.118-0.817,0.354
				s-0.375,0.548-0.431,0.938H509.901z"/>
			<path fill="#F7F5F2" d="M511.97,722.092v-7.194h1.033v7.194H511.97z"/>
			<path fill="#F7F5F2" d="M514.146,719.706c0-0.8,0.228-1.431,0.683-1.894s1.076-0.694,1.861-0.694
				c0.741,0,1.327,0.224,1.758,0.672s0.646,1.061,0.646,1.837c0,0.782-0.227,1.408-0.681,1.876s-1.061,0.703-1.819,0.703
				c-0.744,0-1.338-0.227-1.782-0.681C514.368,721.071,514.146,720.465,514.146,719.706z M515.196,719.684
				c0,0.533,0.13,0.949,0.389,1.248c0.26,0.299,0.612,0.448,1.057,0.448c0.935,0,1.402-0.576,1.402-1.727
				c0-0.557-0.12-0.98-0.36-1.272s-0.587-0.438-1.042-0.438s-0.809,0.155-1.063,0.466S515.196,719.145,515.196,719.684z"/>
			<path fill="#F7F5F2" d="M521.274,721.438v2.892h-1.033v-7.097h1.033v0.809h0.022c0.375-0.615,0.92-0.923,1.635-0.923
				c0.618,0,1.104,0.216,1.459,0.648s0.532,1.017,0.532,1.755c0,0.812-0.201,1.462-0.602,1.951s-0.939,0.734-1.613,0.734
				c-0.615,0-1.085-0.256-1.411-0.769H521.274z M521.265,720.044c0,0.378,0.117,0.695,0.352,0.951
				c0.234,0.257,0.53,0.385,0.888,0.385c0.431,0,0.765-0.165,1.002-0.494c0.237-0.33,0.356-0.786,0.356-1.369
				c0-0.501-0.11-0.888-0.33-1.162s-0.527-0.411-0.923-0.411s-0.718,0.144-0.969,0.431c-0.25,0.287-0.375,0.65-0.375,1.09V720.044z"
				/>
			<path fill="#F7F5F2" d="M531.073,718.216c-0.152-0.1-0.354-0.149-0.606-0.149c-0.334,0-0.604,0.146-0.811,0.439
				c-0.207,0.293-0.31,0.681-0.31,1.165v2.421h-1.033v-4.86h1.033v0.967h0.022c0.24-0.7,0.665-1.05,1.274-1.05
				c0.182,0,0.325,0.021,0.431,0.062V718.216z"/>
			<path fill="#F7F5F2" d="M535.806,719.939h-3.34c0.044,0.981,0.543,1.472,1.499,1.472c0.539,0,1.03-0.161,1.472-0.483v0.853
				c-0.434,0.284-1.003,0.426-1.709,0.426c-0.721,0-1.285-0.22-1.692-0.659s-0.611-1.055-0.611-1.846
				c0-0.75,0.219-1.368,0.657-1.854s0.987-0.729,1.646-0.729c0.656,0,1.167,0.208,1.532,0.622c0.364,0.415,0.547,0.985,0.547,1.711
				V719.939z M534.804,719.188c-0.003-0.416-0.098-0.735-0.286-0.958s-0.454-0.334-0.8-0.334c-0.313,0-0.586,0.118-0.817,0.354
				s-0.375,0.548-0.431,0.938H534.804z"/>
			<path fill="#F7F5F2" d="M537.002,717.557c0.495-0.293,1.068-0.439,1.718-0.439c1.228,0,1.841,0.634,1.841,1.903v3.072h-1.002
				v-0.738h-0.022c-0.331,0.568-0.823,0.853-1.477,0.853c-0.478,0-0.854-0.129-1.127-0.387c-0.274-0.258-0.411-0.605-0.411-1.042
				c0-0.914,0.543-1.447,1.63-1.6l1.411-0.193c0-0.724-0.318-1.085-0.954-1.085c-0.583,0-1.119,0.189-1.608,0.567V717.557z
				 M538.491,719.833c-0.352,0.047-0.6,0.136-0.745,0.268c-0.145,0.132-0.217,0.325-0.217,0.58c0,0.214,0.078,0.389,0.233,0.525
				c0.155,0.137,0.354,0.205,0.598,0.205c0.346,0,0.633-0.122,0.861-0.367s0.343-0.553,0.343-0.925v-0.431L538.491,719.833z"/>
			<path fill="#F7F5F2" d="M546.292,722.092h-1.028v-0.769h-0.022c-0.352,0.589-0.888,0.883-1.608,0.883
				c-0.615,0-1.105-0.219-1.47-0.657c-0.365-0.438-0.547-1.029-0.547-1.773c0-0.806,0.205-1.45,0.615-1.934s0.945-0.725,1.604-0.725
				s1.128,0.249,1.406,0.747h0.022v-2.966h1.028V722.092z M545.272,719.245c0-0.369-0.12-0.678-0.358-0.927
				c-0.239-0.249-0.534-0.374-0.886-0.374c-0.416,0-0.747,0.16-0.993,0.479s-0.369,0.756-0.369,1.31c0,0.51,0.116,0.912,0.347,1.207
				c0.231,0.294,0.546,0.441,0.945,0.441c0.387,0,0.702-0.146,0.947-0.438c0.244-0.291,0.367-0.66,0.367-1.105V719.245z"/>
			<path fill="#F7F5F2" d="M547.641,715.562c0-0.173,0.059-0.315,0.178-0.429c0.118-0.112,0.269-0.169,0.45-0.169
				c0.179,0,0.33,0.057,0.453,0.169c0.123,0.113,0.185,0.256,0.185,0.429s-0.062,0.316-0.185,0.429s-0.274,0.169-0.453,0.169
				s-0.328-0.057-0.448-0.171S547.641,715.732,547.641,715.562z M547.742,722.092v-4.86h1.033v4.86H547.742z"/>
			<path fill="#F7F5F2" d="M554.496,722.092h-1.028v-2.747c0-0.935-0.34-1.402-1.02-1.402c-0.343,0-0.626,0.13-0.85,0.389
				c-0.225,0.26-0.336,0.588-0.336,0.987v2.773h-1.033v-4.86h1.033v0.795h0.022c0.36-0.606,0.888-0.91,1.582-0.91
				c1.087,0,1.63,0.668,1.63,2.004V722.092z"/>
			<path fill="#F7F5F2" d="M560.231,721.644c0,1.822-0.911,2.733-2.733,2.733c-0.618,0-1.143-0.105-1.573-0.316v-0.949
				c0.533,0.299,1.05,0.448,1.551,0.448c1.148,0,1.723-0.587,1.723-1.762v-0.483h-0.018c-0.357,0.595-0.895,0.892-1.613,0.892
				c-0.609,0-1.098-0.218-1.466-0.652c-0.368-0.436-0.551-1.016-0.551-1.743c0-0.82,0.201-1.474,0.604-1.962
				c0.403-0.487,0.94-0.731,1.611-0.731c0.636,0,1.107,0.25,1.415,0.751h0.018v-0.637h1.033V721.644z M559.207,719.245
				c0-0.36-0.119-0.667-0.356-0.921c-0.237-0.253-0.53-0.38-0.879-0.38c-0.425,0-0.76,0.16-1.004,0.481
				c-0.245,0.32-0.367,0.765-0.367,1.333c0,0.492,0.117,0.885,0.352,1.18c0.234,0.294,0.543,0.441,0.927,0.441
				c0.39,0,0.708-0.145,0.956-0.435s0.372-0.656,0.372-1.099V719.245z"/>
			<path fill="#F7F5F2" d="M568.194,722.092h-1.033v-2.786c0-0.908-0.335-1.362-1.006-1.362c-0.34,0-0.623,0.13-0.848,0.391
				s-0.338,0.593-0.338,0.998v2.76h-1.033v-7.194h1.033v3.111h0.022c0.369-0.595,0.889-0.892,1.56-0.892
				c1.096,0,1.644,0.662,1.644,1.986V722.092z"/>
			<path fill="#F7F5F2" d="M569.679,717.557c0.495-0.293,1.068-0.439,1.718-0.439c1.228,0,1.841,0.634,1.841,1.903v3.072h-1.002
				v-0.738h-0.022c-0.331,0.568-0.823,0.853-1.477,0.853c-0.478,0-0.854-0.129-1.127-0.387c-0.274-0.258-0.411-0.605-0.411-1.042
				c0-0.914,0.543-1.447,1.63-1.6l1.411-0.193c0-0.724-0.318-1.085-0.954-1.085c-0.583,0-1.119,0.189-1.608,0.567V717.557z
				 M571.169,719.833c-0.352,0.047-0.6,0.136-0.745,0.268c-0.145,0.132-0.217,0.325-0.217,0.58c0,0.214,0.078,0.389,0.233,0.525
				c0.155,0.137,0.354,0.205,0.598,0.205c0.346,0,0.633-0.122,0.861-0.367s0.343-0.553,0.343-0.925v-0.431L571.169,719.833z"/>
			<path fill="#F7F5F2" d="M575.638,721.438v0.655h-1.033v-7.194h1.033v3.142h0.022c0.375-0.615,0.923-0.923,1.644-0.923
				c0.615,0,1.099,0.216,1.452,0.648s0.53,1.017,0.53,1.755c0,0.809-0.2,1.458-0.6,1.949c-0.399,0.491-0.935,0.736-1.606,0.736
				c-0.627,0-1.1-0.256-1.419-0.769H575.638z M575.63,720.062c0,0.369,0.118,0.681,0.354,0.936c0.235,0.255,0.531,0.382,0.885,0.382
				c0.431,0,0.765-0.165,1.002-0.494c0.237-0.33,0.356-0.786,0.356-1.369c0-0.489-0.112-0.874-0.336-1.153
				c-0.225-0.28-0.53-0.42-0.917-0.42s-0.708,0.14-0.962,0.42s-0.382,0.641-0.382,1.083V720.062z"/>
			<path fill="#F7F5F2" d="M580.319,715.562c0-0.173,0.059-0.315,0.178-0.429c0.118-0.112,0.269-0.169,0.45-0.169
				c0.179,0,0.33,0.057,0.453,0.169c0.123,0.113,0.185,0.256,0.185,0.429s-0.062,0.316-0.185,0.429s-0.274,0.169-0.453,0.169
				s-0.328-0.057-0.448-0.171S580.319,715.732,580.319,715.562z M580.42,722.092v-4.86h1.033v4.86H580.42z"/>
			<path fill="#F7F5F2" d="M585.403,722.04c-0.19,0.108-0.464,0.163-0.822,0.163c-0.923,0-1.384-0.501-1.384-1.503v-2.65h-0.822
				v-0.817h0.822v-1.138l1.028-0.312v1.45h1.178v0.817h-1.178v2.47c0,0.302,0.053,0.52,0.16,0.655s0.279,0.202,0.517,0.202
				c0.185,0,0.352-0.053,0.501-0.158V722.04z"/>
			<path fill="#F7F5F2" d="M586.146,720.963c0.454,0.308,0.926,0.461,1.415,0.461c0.645,0,0.967-0.199,0.967-0.598
				c0-0.167-0.067-0.304-0.202-0.411c-0.135-0.106-0.438-0.248-0.91-0.424c-0.495-0.19-0.829-0.394-1.002-0.608
				c-0.173-0.216-0.259-0.486-0.259-0.811c0-0.448,0.188-0.803,0.563-1.063s0.839-0.391,1.393-0.391c0.425,0,0.822,0.07,1.191,0.211
				v0.914c-0.369-0.229-0.782-0.343-1.239-0.343c-0.261,0-0.472,0.054-0.633,0.163s-0.242,0.25-0.242,0.426
				c0,0.173,0.059,0.309,0.178,0.409c0.118,0.1,0.392,0.231,0.819,0.396c0.527,0.193,0.887,0.399,1.079,0.618
				c0.191,0.218,0.288,0.49,0.288,0.815c0,0.46-0.188,0.822-0.563,1.085s-0.867,0.396-1.477,0.396c-0.521,0-0.977-0.091-1.367-0.272
				V720.963z"/>
			<path fill="#F7F5F2" d="M590.698,721.574c0-0.176,0.063-0.323,0.189-0.441c0.126-0.119,0.28-0.178,0.461-0.178
				c0.179,0,0.331,0.059,0.457,0.178c0.126,0.118,0.189,0.266,0.189,0.441c0,0.17-0.063,0.314-0.187,0.433
				c-0.125,0.119-0.271,0.178-0.438,0.178c-0.196,0-0.357-0.06-0.483-0.18S590.698,721.741,590.698,721.574z M591.881,715.285
				l-0.123,4.821h-0.839l-0.119-4.821H591.881z"/>
		</g>
	</g>
</g>
<g id="hover" display="none">
</g>
<g id="hover_x5F_1">
</g>
<g id="hover_x5F_2" display="none">
</g>
<g id="block">
</g>
<g id="CSS">
</g>
<g id="_x31_366_x2A_768" display="none">
	<path display="inline" fill="#FFFFFF" d="M244.364,11513.727h1283v-12494h-2116v12494H244.364 M-200.636,11513.727v-12336h1366
		v12336"/>
</g>
</svg>
