<svg xmlns="http://www.w3.org/2000/svg" viewBox="0 0 293.706 126.624">
  <defs>
    <style>
      .cls-1, .cls-11, .cls-2, .cls-4, .cls-5, .cls-9 {
        fill: #1a1a1a;
      }

      .cls-1, .cls-2 {
        font-size: 14px;
      }

      .cls-1, .cls-3 {
        font-family: YuGothicUI-Regular, Yu Gothic UI;
      }

      .cls-1, .cls-2, .cls-4 {
        letter-spacing: 0.1em;
      }

      .cls-2 {
        font-family: SegoeUI, Segoe UI;
      }

      .cls-4 {
        font-size: 12px;
        font-family: SegoeUI-Light, Segoe UI;
        font-weight: 300;
      }

      .cls-5 {
        opacity: 0.8;
      }

      .cls-6, .cls-7, .cls-8 {
        fill: none;
        stroke: #333;
        stroke-miterlimit: 10;
      }

      .cls-6 {
        stroke-width: 0.461px;
        opacity: 0.6;
      }

      .cls-7 {
        stroke-width: 0.283px;
        opacity: 0.4;
      }

      .cls-8 {
        stroke-width: 0.168px;
        opacity: 0.2;
      }

      .cls-9 {
        opacity: 0.85;
      }

      .cls-10 {
        fill: #747575;
      }

      .cls-11 {
        fill-rule: evenodd;
      }
    </style>
  </defs>
  <g id="_003" data-name="003" transform="translate(-367.539 -1095.039)">
    <text id="顯薄外殼設計" class="cls-1" transform="translate(448.338 1195.994)"><tspan x="0" y="0">顯薄外殼設計</tspan></text>
    <text id="Keyscreen_:_新型態的輸入介面" data-name="Keyscreen : 新型態的輸入介面" class="cls-2" transform="translate(448.245 1118.221)"><tspan x="0" y="0">Keyscreen : </tspan><tspan class="cls-3" y="0">新型態的輸入介面</tspan></text>
    <text id="Keyscreen_:_The_new_user_Interface" data-name="Keyscreen : The new user Interface" class="cls-4" transform="translate(448.245 1143.535)"><tspan x="0" y="0">Keyscreen : The new user Interface</tspan></text>
    <text id="Thin_and_light_product_design" data-name="Thin and light product design" class="cls-4" transform="translate(448.245 1218.663)"><tspan x="0" y="0">Thin and light product design</tspan></text>
    <g id="_002" data-name="002" transform="translate(0 32)">
      <circle id="Ellipse_192" data-name="Ellipse 192" class="cls-5" cx="6.2" cy="6.2" r="6.2" transform="translate(372.388 1079.175) rotate(-84.088)"/>
      <circle id="Ellipse_193" data-name="Ellipse 193" class="cls-6" cx="6.9" cy="6.9" r="6.9" transform="translate(371.633 1080.792) rotate(-84.082)"/>
      <circle id="Ellipse_194" data-name="Ellipse 194" class="cls-7" cx="8.7" cy="8.7" r="8.7" transform="matrix(0.103, -0.995, 0.995, 0.103, 369.689, 1082.399)"/>
      <path id="Path_870" data-name="Path 870" class="cls-8" d="M1013.7,305.9a11.562,11.562,0,1,1-10.3-12.7A11.5,11.5,0,0,1,1013.7,305.9Z" transform="translate(-623 770)"/>
      <path id="Path_871" data-name="Path 871" class="cls-9" d="M1006.4,322.9s0,.6-.1,1.9c-.1,1.2,1,5.5,3.1,7.3,1.2,1,6.6,3.6,7.7,5.2a9.285,9.285,0,0,1,2.1,4.6c.3,2.1,0,2.6.9,3.8s3.9,1.7,6.5.6,6.4-2,7.4-3.3c.9-1.3.3-2-.4-4.1-.5-1.5-1.2-3-2.1-6.2s-.8-6.1-1.4-8-2.5-8.4-3.9-9.6-2.9-.5-3.4-.8a5.721,5.721,0,0,0-2.6-1.4,19.987,19.987,0,0,0-3.3.8c-.7.1-2.7-1.4-3.8-.9s-1.2.8-1.4,1.6-.3.5-.6.5c-.3.1-.5-.3-1.1-1.5-1.3-2.5-3.4-7.5-3.7-8.4-.3-.8-1.2-2.7-2.4-2.3a2.631,2.631,0,0,0-1.5,3.7c.7,1.9,5.1,13.1,5.3,14.2.1.8-.2,1.1-.6,1.2A6.715,6.715,0,0,0,1006.4,322.9Z" transform="translate(-623 770)"/>
    </g>
    <g id="Group_2203" data-name="Group 2203" transform="translate(0 9)">
      <path id="Path_863" data-name="Path 863" class="cls-10" d="M1025.2,374.4c-.3,0-.5,0-.5-.1a1.034,1.034,0,0,1,.4-.1c.3,0,.5,0,.5.1C1025.7,374.4,1025.5,374.4,1025.2,374.4Z" transform="translate(-623 807)"/>
      <path id="Path_864" data-name="Path 864" class="cls-10" d="M1023,375c-.3,0-.5-.1-.5-.2s.2-.2.5-.2h1.1c.3,0,.5.1.5.2s-.2.2-.5.2Z" transform="translate(-623 807)"/>
      <path id="Path_865" data-name="Path 865" class="cls-10" d="M1025.3,375c-.3,0-.5-.1-.5-.2s.2-.2.4-.2c.3,0,.5.1.5.2S1025.5,375,1025.3,375Z" transform="translate(-623 807)"/>
      <path id="Path_866" data-name="Path 866" class="cls-10" d="M1023.1,375.6c-.3,0-.5-.1-.5-.2s.2-.2.5-.2h1.1c.3,0,.5.1.5.2s-.2.2-.5.2Z" transform="translate(-623 807)"/>
      <path id="Path_867" data-name="Path 867" class="cls-10" d="M1025.4,375.6c-.3,0-.5-.1-.5-.2s.2-.2.4-.2.5.1.5.2S1025.6,375.6,1025.4,375.6Z" transform="translate(-623 807)"/>
      <path id="Path_868" data-name="Path 868" class="cls-10" d="M1023.1,376.2c-.3,0-.5-.1-.5-.2s.2-.2.5-.2h1.1c.3,0,.5.1.5.2s-.2.2-.5.2Z" transform="translate(-623 807)"/>
      <path id="Path_869" data-name="Path 869" class="cls-10" d="M1025.4,376.2c-.3,0-.5-.1-.5-.2s.2-.2.5-.2.5.1.5.2S1025.7,376.2,1025.4,376.2Z" transform="translate(-623 807)"/>
      <path id="Path_872" data-name="Path 872" class="cls-11" d="M1015.9,380c0-.7.3-1.5,0-2.1-.6-1.8.7-2.6,1.6-3.7.8-.9,1.5-1.9,2.3-2.7s3.3-2.8,2.7-2.3,1-.8,1.1-.7c-1.2,1.8-.9,1.8-1,2.3.2-1.8,1.8-2.6,3-3.6,2.4-2.1,5.3-3.2,8.3-4.5,0,.3.1.4.1.6v.5c.1-1.6,1.6-1.5,2.5-1.8,2.5-.8,5.1-1.5,7.8-.6.9.3,1.3,1,.7,1.8a8.337,8.337,0,0,1-1.9,2.3c-.4.3-1.2.2-1.6.2a7.784,7.784,0,0,1,.9.3c-1.5,1.5-2,3.7-4.3,4,.1,0,.2.2.5.4-1,.9-1.7,2.3-3.3,2.3-.1,0-.1.1-.2.1-1,1.8-3.1,2.2-4.6,3.4s-1.7,1.1-3,.7c.2,1.4-2.3,2.9-4.1,2.5a4.052,4.052,0,0,0,.9.5,3.744,3.744,0,0,1-4.3,1,13.158,13.158,0,0,0-3-.8c.2.1.5.3.7.4v.2c-.5-.1-.9-.3-1.4-.4a.1.1,0,0,0-.1-.1c.4-.5.8-.9,1.2-1.4l-.1-.1A8.939,8.939,0,0,1,1015.9,380Zm14.4-11.1c1.6-1.3,1.1-1.2-.2-.3s-6.8,4.8-7.4,5.4a20.811,20.811,0,0,0-1.7,1.8,23.874,23.874,0,0,1,1.9-1.5C1023.8,373.6,1028.6,370.1,1030.3,368.9Zm1.7-1.3a5.5,5.5,0,0,0,.9-.7c1.3-.6,2.5-1.2,3.8-1.8V365C1035.4,365.7,1033.2,366.9,1032,367.6Z" transform="translate(-623 811)"/>
      <path id="Path_873" data-name="Path 873" class="cls-11" d="M1016.6,380.2c.4.5.9.9,1.2,1.3a18.506,18.506,0,0,1-2-.6c.2,1.2,1.3.9,1.8,1.4-1,.1-1.9-1-2.9,0,.2.1.3.3.5.5-.4-.1-.7-.1-1.2-.2.4.3.6.6.8.7a12.541,12.541,0,0,1-1.5-.2,2.824,2.824,0,0,1,.5.6,4.826,4.826,0,0,0-1.4.9c-2.2,2.5-4.3,5-6.5,7.5a6.466,6.466,0,0,1-.9.8,22.788,22.788,0,0,1,4.6-6.1c.7-.6,1.3-1.3,1.9-1.9.2-.2.4-.5.6-.7,1.5-1.4,2.9-2.7,4.4-4.1C1016.5,380.2,1016.5,380.2,1016.6,380.2Z" transform="translate(-623 811)"/>
      <path id="Path_874" data-name="Path 874" class="cls-11" d="M1015.9,380c-.7.7-1.4,1.3-2.1,2v-1.3c.2.2.3.2.7.6-.2-.6-.1-.6-.1-.6a10.623,10.623,0,0,0,1.1-.9C1015.5,379.7,1015.7,379.8,1015.9,380Z" transform="translate(-623 811)"/>
      <path id="Path_875" data-name="Path 875" class="cls-11" d="M1013.7,382.3c-.4.6-1.2,1.4-1.5,2-.2.2-.4.5-.6.7.1-.5.3-1,.4-1.4.1,0,.4-.1.5-.1-.2-.2-.5-.3-.8-.6C1012.9,382.7,1013.2,382.3,1013.7,382.3Z" transform="translate(-623 811)"/>
    </g>
  </g>
</svg>
