<?xml version="1.0" encoding="utf-8"?>
<!-- Generator: Adobe Illustrator 21.1.0, SVG Export Plug-In . SVG Version: 6.00 Build 0)  -->
<svg version="1.1" id="圖層_1" xmlns="http://www.w3.org/2000/svg" xmlns:xlink="http://www.w3.org/1999/xlink" x="0px" y="0px"
	 viewBox="0 0 240 240" style="enable-background:new 0 0 240 240;" xml:space="preserve">
<style type="text/css">
	.st0{fill:#F7F7F7;}
	.st1{fill:#F2F2F2;}
	.st2{fill:#E6E6E6;}
	.st3{fill:#333333;}
	.st4{fill:#CCCCCC;}
	.st5{fill:#4D4D4D;}
	.st6{fill:#E5E5E5;}
	.st7{fill:#FFFFFF;}
	.st8{fill:none;stroke:#DDDDDD;stroke-miterlimit:10;}
</style>
<path class="st1" d="M156,104.1c0.7,2.4,1,4.7,1,6.9v20.6c0,7.5-2.7,14-8.1,19.4c-5.4,5.4-11.8,8.1-19.4,8.1h-20.6
	c-7.5,0-14-2.7-19.4-8.1c-5.4-5.4-8.1-11.8-8.1-19.4l0.1-6.4c0.1-4.3,0.2-8.7,0.4-13.2c0.2-4.6,0.3-7.2,0.5-7.8h12.7v34.3
	c0,1.9,0.7,3.5,2,4.8c1.3,1.3,3,2,4.8,2h34.3c1.9,0,3.5-0.7,4.8-2c1.3-1.3,2-3,2-4.8v-34.3H156z M119.3,69.8l-24,27.4h13.7v20.6
	h20.6V97.2h13.7L119.3,69.8z"/>
</svg>
