<?xml version="1.0" encoding="utf-8"?>
<!-- Generator: Adobe Illustrator 21.1.0, SVG Export Plug-In . SVG Version: 6.00 Build 0)  -->
<svg version="1.1" id="圖層_1" xmlns="http://www.w3.org/2000/svg" xmlns:xlink="http://www.w3.org/1999/xlink" x="0px" y="0px"
	 viewBox="0 0 250 250" style="enable-background:new 0 0 250 250;" xml:space="preserve">
<style type="text/css">
	.st0{fill:#F2F2F2;}
	.st1{fill:#E6E6E6;}
	.st2{fill:#333333;}
	.st3{fill:#CCCCCC;}
	.st4{fill:#4D4D4D;}
</style>
<rect class="st0" width="250" height="250"/>
<g>
	<path class="st3" d="M36.5,55c-0.7-0.4-1.2-1-1.6-1.8s-0.5-1.7-0.5-2.7c0-1,0.2-2,0.5-2.7c0.4-0.8,0.9-1.4,1.6-1.8
		c0.7-0.4,1.5-0.6,2.4-0.6c0.7,0,1.3,0.1,1.9,0.3c0.6,0.2,1.1,0.5,1.5,1L42,47.4c-0.5-0.4-1-0.7-1.4-0.9c-0.5-0.2-1-0.3-1.6-0.3
		c-1.1,0-2,0.4-2.7,1.1c-0.6,0.8-1,1.8-1,3.2c0,1.4,0.3,2.4,0.9,3.2s1.5,1.1,2.7,1.1c0.6,0,1.1-0.1,1.6-0.3c0.5-0.2,1-0.5,1.4-0.9
		l0.4,0.7c-0.4,0.4-0.9,0.8-1.5,1c-0.6,0.2-1.2,0.3-1.9,0.3C38,55.6,37.2,55.4,36.5,55z"/>
	<path class="st3" d="M45.2,55.1c-0.5-0.3-0.9-0.7-1.1-1.3c-0.3-0.6-0.4-1.2-0.4-1.9c0-0.7,0.1-1.4,0.4-1.9c0.3-0.6,0.6-1,1.1-1.3
		s1.1-0.4,1.7-0.4c0.6,0,1.2,0.1,1.7,0.4s0.9,0.7,1.1,1.3c0.3,0.6,0.4,1.2,0.4,1.9c0,0.7-0.1,1.4-0.4,1.9c-0.3,0.6-0.6,1-1.1,1.3
		c-0.5,0.3-1,0.4-1.7,0.4C46.2,55.6,45.7,55.4,45.2,55.1z M48.6,54.1c0.4-0.5,0.6-1.2,0.6-2.1c0-0.9-0.2-1.6-0.6-2.1
		c-0.4-0.5-1-0.8-1.7-0.8c-0.7,0-1.3,0.3-1.7,0.8c-0.4,0.5-0.6,1.2-0.6,2.1c0,0.9,0.2,1.6,0.6,2.1s1,0.7,1.7,0.7
		C47.6,54.8,48.2,54.6,48.6,54.1z"/>
	<path class="st3" d="M53.5,46.2c-0.2,0.2-0.3,0.6-0.3,1.1v1.1h1.8v0.7h-1.8v6.3h-0.9v-6.3h-1.4v-0.7h1.4v-1.3
		c0-0.7,0.2-1.2,0.5-1.6c0.3-0.3,0.8-0.5,1.4-0.5c0.3,0,0.6,0,0.9,0.1V46c-0.3-0.1-0.5-0.1-0.7-0.1C54,45.9,53.7,46,53.5,46.2z"/>
	<path class="st3" d="M58.1,46.2c-0.2,0.2-0.3,0.6-0.3,1.1v1.1h1.8v0.7h-1.8v6.3h-0.9v-6.3h-1.4v-0.7h1.4v-1.3
		c0-0.7,0.2-1.2,0.5-1.6c0.3-0.3,0.8-0.5,1.4-0.5c0.3,0,0.6,0,0.9,0.1V46c-0.3-0.1-0.5-0.1-0.7-0.1C58.6,45.9,58.3,46,58.1,46.2z"/>
	<path class="st3" d="M61.5,51.9L61.5,51.9c0,1,0.2,1.7,0.7,2.2c0.4,0.5,1.1,0.8,1.9,0.8c0.8,0,1.6-0.3,2.3-0.9l0.3,0.7
		c-0.3,0.3-0.7,0.5-1.2,0.7c-0.5,0.2-1,0.3-1.5,0.3c-1.1,0-1.9-0.3-2.5-1c-0.6-0.6-0.9-1.5-0.9-2.7c0-0.7,0.1-1.4,0.4-1.9
		s0.7-1,1.2-1.3c0.5-0.3,1.1-0.5,1.7-0.5c0.9,0,1.6,0.3,2.2,0.9c0.5,0.6,0.8,1.4,0.8,2.5v0.2H61.5z M62.3,49.6
		c-0.4,0.4-0.7,0.9-0.8,1.6H66c-0.1-0.7-0.3-1.3-0.6-1.6C65,49.2,64.5,49,63.9,49C63.2,49,62.7,49.2,62.3,49.6z"/>
	<path class="st3" d="M69.1,51.9L69.1,51.9c0,1,0.2,1.7,0.7,2.2c0.4,0.5,1.1,0.8,1.9,0.8c0.8,0,1.6-0.3,2.3-0.9l0.3,0.7
		c-0.3,0.3-0.7,0.5-1.2,0.7c-0.5,0.2-1,0.3-1.5,0.3c-1.1,0-1.9-0.3-2.5-1c-0.6-0.6-0.9-1.5-0.9-2.7c0-0.7,0.1-1.4,0.4-1.9
		s0.7-1,1.2-1.3c0.5-0.3,1.1-0.5,1.7-0.5c0.9,0,1.6,0.3,2.2,0.9c0.5,0.6,0.8,1.4,0.8,2.5v0.2H69.1z M69.9,49.6
		c-0.4,0.4-0.7,0.9-0.8,1.6h4.5c-0.1-0.7-0.3-1.3-0.6-1.6c-0.4-0.4-0.9-0.6-1.5-0.6C70.8,49,70.3,49.2,69.9,49.6z"/>
</g>
<g>
	<g>
		<path class="st3" d="M115,40c2.8,0,5,2.2,5,5v13c0,2.8-2.2,5-5,5H29c-2.8,0-5-2.2-5-5V45c0-2.8,2.2-5,5-5H115 M115,38.3H29
			c-3.7,0-6.7,3-6.7,6.7v13c0,3.7,3,6.7,6.7,6.7h86c3.7,0,6.7-3,6.7-6.7V45C121.7,41.3,118.7,38.3,115,38.3L115,38.3z"/>
	</g>
</g>
<g>
	<path class="st3" d="M148.3,54.7c-0.5,0.5-1.2,0.8-2.1,0.9v1.5h-0.8v-1.5c-0.6,0-1.2-0.2-1.8-0.4c-0.6-0.2-1-0.5-1.5-1l0.4-0.7
		c0.5,0.4,0.9,0.7,1.4,0.9c0.5,0.2,1,0.3,1.5,0.3V51c-0.6-0.2-1.2-0.3-1.6-0.5c-0.4-0.2-0.8-0.5-1-0.8c-0.3-0.4-0.4-0.8-0.4-1.4
		c0-0.5,0.1-1,0.4-1.4c0.3-0.4,0.6-0.7,1.1-1s1-0.4,1.6-0.4v-1.5h0.8v1.5c0.5,0,1.1,0.2,1.6,0.4c0.5,0.2,0.9,0.5,1.3,0.9l-0.4,0.7
		c-0.7-0.7-1.5-1.1-2.5-1.2v4.1c0.6,0.2,1.1,0.3,1.5,0.5c0.4,0.2,0.7,0.4,1,0.7c0.3,0.3,0.4,0.8,0.4,1.3
		C149.1,53.6,148.9,54.2,148.3,54.7z M143.8,49.5c0.4,0.3,0.9,0.5,1.6,0.7v-3.9c-0.7,0-1.2,0.3-1.6,0.6c-0.4,0.4-0.6,0.8-0.6,1.4
		C143.3,48.8,143.5,49.2,143.8,49.5z M147.7,54.2c0.4-0.3,0.5-0.8,0.5-1.3c0-0.5-0.2-0.8-0.5-1.1c-0.4-0.2-0.9-0.4-1.5-0.6v3.7
		C146.9,54.7,147.4,54.5,147.7,54.2z"/>
	<path class="st3" d="M154.9,54.7h2.2v0.8h-5.3v-0.8h2.2v-8.1l-2.1,1.3v-0.9l2.4-1.6h0.5V54.7z"/>
	<path class="st3" d="M159.9,54.3c-0.6-0.9-0.9-2.1-0.9-3.8s0.3-2.9,0.9-3.8c0.6-0.9,1.4-1.3,2.6-1.3c1.1,0,2,0.4,2.6,1.3
		c0.6,0.9,0.9,2.1,0.9,3.8c0,1.7-0.3,2.9-0.9,3.8s-1.4,1.3-2.6,1.3S160.5,55.2,159.9,54.3z M164.4,53.8c0.4-0.7,0.6-1.8,0.6-3.3
		c0-1.5-0.2-2.6-0.6-3.3c-0.4-0.7-1-1-1.9-1c-0.9,0-1.5,0.3-1.9,1.1c-0.4,0.7-0.6,1.8-0.6,3.3s0.2,2.6,0.6,3.3s1.1,1.1,1.9,1.1
		C163.4,54.8,164,54.5,164.4,53.8z"/>
	<path class="st3" d="M168.3,54.3c-0.6-0.9-0.9-2.1-0.9-3.8s0.3-2.9,0.9-3.8c0.6-0.9,1.4-1.3,2.6-1.3c1.1,0,2,0.4,2.6,1.3
		c0.6,0.9,0.9,2.1,0.9,3.8c0,1.7-0.3,2.9-0.9,3.8s-1.4,1.3-2.6,1.3S168.9,55.2,168.3,54.3z M172.8,53.8c0.4-0.7,0.6-1.8,0.6-3.3
		c0-1.5-0.2-2.6-0.6-3.3c-0.4-0.7-1-1-1.9-1c-0.9,0-1.5,0.3-1.9,1.1c-0.4,0.7-0.6,1.8-0.6,3.3s0.2,2.6,0.6,3.3s1.1,1.1,1.9,1.1
		C171.8,54.8,172.4,54.5,172.8,53.8z"/>
</g>
<g>
	<g>
		<path class="st3" d="M223,40c2.8,0,5,2.2,5,5v13c0,2.8-2.2,5-5,5h-86c-2.8,0-5-2.2-5-5V45c0-2.8,2.2-5,5-5H223 M223,38.3h-86
			c-3.7,0-6.7,3-6.7,6.7v13c0,3.7,3,6.7,6.7,6.7h86c3.7,0,6.7-3,6.7-6.7V45C229.7,41.3,226.7,38.3,223,38.3L223,38.3z"/>
	</g>
</g>
<g>
	<path class="st3" d="M41.6,85.2c0.3,0.4,0.5,0.9,0.5,1.6c0,0.9-0.3,1.5-0.9,2c-0.6,0.5-1.4,0.7-2.4,0.7h-4v-10h3.8
		c1,0,1.8,0.2,2.4,0.7c0.6,0.5,0.8,1.1,0.8,1.9c0,0.5-0.1,1-0.4,1.4c-0.3,0.4-0.7,0.7-1.2,0.9C40.8,84.5,41.3,84.8,41.6,85.2z
		 M35.6,84.1h2.9c0.8,0,1.4-0.2,1.8-0.5c0.4-0.3,0.6-0.8,0.6-1.4c0-1.2-0.8-1.9-2.4-1.9h-2.9V84.1z M40.6,88.3
		c0.4-0.3,0.6-0.8,0.6-1.5c0-1.3-0.8-2-2.5-2h-3.1v3.9h3.1C39.6,88.8,40.2,88.6,40.6,88.3z"/>
	<path class="st3" d="M47.8,82.4l0,0.8c-0.2,0-0.4-0.1-0.6-0.1c-0.7,0-1.2,0.2-1.6,0.7c-0.4,0.5-0.5,1-0.5,1.6v4.1h-0.8v-5.1
		c0-0.7,0-1.4-0.1-1.9h0.8l0.1,1.3c0.2-0.5,0.5-0.8,0.9-1.1s0.8-0.4,1.4-0.4C47.4,82.3,47.6,82.3,47.8,82.4z"/>
	<path class="st3" d="M49.3,85.9L49.3,85.9c0,1,0.2,1.7,0.7,2.2c0.4,0.5,1.1,0.8,1.9,0.8c0.8,0,1.6-0.3,2.3-0.9l0.3,0.7
		c-0.3,0.3-0.7,0.5-1.2,0.7c-0.5,0.2-1,0.3-1.5,0.3c-1.1,0-1.9-0.3-2.5-1c-0.6-0.6-0.9-1.5-0.9-2.7c0-0.7,0.1-1.4,0.4-1.9
		s0.7-1,1.2-1.3c0.5-0.3,1.1-0.5,1.7-0.5c0.9,0,1.6,0.3,2.2,0.9c0.5,0.6,0.8,1.4,0.8,2.5v0.2H49.3z M50.1,83.6
		c-0.4,0.4-0.7,0.9-0.8,1.6h4.5c-0.1-0.7-0.3-1.3-0.6-1.6c-0.4-0.4-0.9-0.6-1.5-0.6C51.1,83,50.5,83.2,50.1,83.6z"/>
	<path class="st3" d="M62.4,82.5v7h-0.9v-1.3c-0.2,0.5-0.5,0.8-0.9,1.1c-0.4,0.2-0.9,0.4-1.5,0.4c-0.6,0-1.2-0.1-1.6-0.4
		c-0.5-0.3-0.8-0.7-1.1-1.3S56,86.7,56,86s0.1-1.4,0.4-1.9c0.3-0.6,0.6-1,1.1-1.3c0.5-0.3,1-0.5,1.6-0.5c0.6,0,1.1,0.1,1.5,0.4
		c0.4,0.2,0.7,0.6,0.9,1.1v-1.3H62.4z M61,88.1c0.4-0.5,0.6-1.2,0.6-2.1c0-0.9-0.2-1.6-0.6-2.1s-1-0.8-1.7-0.8s-1.3,0.3-1.7,0.8
		c-0.4,0.5-0.6,1.2-0.6,2.1c0,0.9,0.2,1.6,0.6,2.1c0.4,0.5,1,0.8,1.7,0.8C60,88.8,60.6,88.6,61,88.1z"/>
	<path class="st3" d="M70.7,79.2v10.3h-0.9v-1.3c-0.2,0.5-0.5,0.8-0.9,1.1c-0.4,0.2-0.9,0.4-1.5,0.4c-0.6,0-1.2-0.2-1.6-0.5
		c-0.5-0.3-0.8-0.7-1.1-1.3c-0.3-0.6-0.4-1.2-0.4-1.9s0.1-1.4,0.4-1.9s0.6-1,1.1-1.3c0.5-0.3,1-0.4,1.6-0.4c0.6,0,1.1,0.1,1.5,0.4
		c0.4,0.2,0.7,0.6,0.9,1.1v-4.6H70.7z M69.2,88.1c0.4-0.5,0.6-1.2,0.6-2.1c0-0.9-0.2-1.6-0.6-2.1c-0.4-0.5-1-0.8-1.7-0.8
		c-0.7,0-1.3,0.3-1.7,0.8c-0.4,0.5-0.6,1.2-0.6,2.1c0,0.9,0.2,1.6,0.6,2.1c0.4,0.5,1,0.8,1.7,0.8S68.8,88.6,69.2,88.1z"/>
</g>
<g>
	<g>
		<path class="st3" d="M115,74c2.8,0,5,2.2,5,5v13c0,2.8-2.2,5-5,5H29c-2.8,0-5-2.2-5-5V79c0-2.8,2.2-5,5-5H115 M115,72.3H29
			c-3.7,0-6.7,3-6.7,6.7v13c0,3.7,3,6.7,6.7,6.7h86c3.7,0,6.7-3,6.7-6.7V79C121.7,75.3,118.7,72.3,115,72.3L115,72.3z"/>
	</g>
</g>
<g>
	<path class="st3" d="M148.3,88.7c-0.5,0.5-1.2,0.8-2.1,0.9v1.5h-0.8v-1.5c-0.6,0-1.2-0.2-1.8-0.4c-0.6-0.2-1-0.5-1.5-1l0.4-0.7
		c0.5,0.4,0.9,0.7,1.4,0.9c0.5,0.2,1,0.3,1.5,0.3V85c-0.6-0.2-1.2-0.3-1.6-0.5c-0.4-0.2-0.8-0.5-1-0.8c-0.3-0.4-0.4-0.8-0.4-1.4
		c0-0.5,0.1-1,0.4-1.4c0.3-0.4,0.6-0.7,1.1-1s1-0.4,1.6-0.4v-1.5h0.8v1.5c0.5,0,1.1,0.2,1.6,0.4c0.5,0.2,0.9,0.5,1.3,0.9l-0.4,0.7
		c-0.7-0.7-1.5-1.1-2.5-1.2v4.1c0.6,0.2,1.1,0.3,1.5,0.5c0.4,0.2,0.7,0.4,1,0.7c0.3,0.3,0.4,0.8,0.4,1.3
		C149.1,87.6,148.9,88.2,148.3,88.7z M143.8,83.5c0.4,0.3,0.9,0.5,1.6,0.7v-3.9c-0.7,0-1.2,0.3-1.6,0.6c-0.4,0.4-0.6,0.8-0.6,1.4
		C143.3,82.8,143.5,83.2,143.8,83.5z M147.7,88.2c0.4-0.3,0.5-0.8,0.5-1.3c0-0.5-0.2-0.8-0.5-1.1c-0.4-0.2-0.9-0.4-1.5-0.6v3.7
		C146.9,88.7,147.4,88.5,147.7,88.2z"/>
	<path class="st3" d="M156.1,83.7c0.5,0.3,0.8,0.6,1.1,1.1s0.4,1,0.4,1.6c0,0.6-0.1,1.2-0.4,1.6c-0.3,0.5-0.6,0.8-1.1,1.1
		c-0.5,0.3-1.1,0.4-1.7,0.4c-0.6,0-1.2-0.1-1.8-0.3c-0.6-0.2-1.1-0.5-1.5-0.9l0.4-0.7c0.9,0.8,1.9,1.2,2.9,1.2
		c0.7,0,1.3-0.2,1.7-0.7c0.4-0.4,0.6-1,0.6-1.7c0-0.7-0.2-1.3-0.6-1.7s-1-0.7-1.7-0.7c-0.5,0-1,0.1-1.4,0.3c-0.4,0.2-0.7,0.5-1,1
		h-0.7v-5.8h5.9v0.7h-5v4c0.3-0.3,0.6-0.5,1-0.7s0.8-0.2,1.3-0.2C155.1,83.3,155.6,83.4,156.1,83.7z"/>
	<path class="st3" d="M159.9,88.3c-0.6-0.9-0.9-2.1-0.9-3.8s0.3-2.9,0.9-3.8c0.6-0.9,1.4-1.3,2.6-1.3c1.1,0,2,0.4,2.6,1.3
		c0.6,0.9,0.9,2.1,0.9,3.8c0,1.7-0.3,2.9-0.9,3.8s-1.4,1.3-2.6,1.3S160.5,89.2,159.9,88.3z M164.4,87.8c0.4-0.7,0.6-1.8,0.6-3.3
		c0-1.5-0.2-2.6-0.6-3.3c-0.4-0.7-1-1-1.9-1c-0.9,0-1.5,0.3-1.9,1.1c-0.4,0.7-0.6,1.8-0.6,3.3s0.2,2.6,0.6,3.3s1.1,1.1,1.9,1.1
		C163.4,88.8,164,88.5,164.4,87.8z"/>
	<path class="st3" d="M168.3,88.3c-0.6-0.9-0.9-2.1-0.9-3.8s0.3-2.9,0.9-3.8c0.6-0.9,1.4-1.3,2.6-1.3c1.1,0,2,0.4,2.6,1.3
		c0.6,0.9,0.9,2.1,0.9,3.8c0,1.7-0.3,2.9-0.9,3.8s-1.4,1.3-2.6,1.3S168.9,89.2,168.3,88.3z M172.8,87.8c0.4-0.7,0.6-1.8,0.6-3.3
		c0-1.5-0.2-2.6-0.6-3.3c-0.4-0.7-1-1-1.9-1c-0.9,0-1.5,0.3-1.9,1.1c-0.4,0.7-0.6,1.8-0.6,3.3s0.2,2.6,0.6,3.3s1.1,1.1,1.9,1.1
		C171.8,88.8,172.4,88.5,172.8,87.8z"/>
</g>
<g>
	<g>
		<path class="st3" d="M223,74c2.8,0,5,2.2,5,5v13c0,2.8-2.2,5-5,5h-86c-2.8,0-5-2.2-5-5V79c0-2.8,2.2-5,5-5H223 M223,72.3h-86
			c-3.7,0-6.7,3-6.7,6.7v13c0,3.7,3,6.7,6.7,6.7h86c3.7,0,6.7-3,6.7-6.7V79C229.7,75.3,226.7,72.3,223,72.3L223,72.3z"/>
	</g>
</g>
<g>
	<path class="st3" d="M36.5,123c-0.7-0.4-1.2-1-1.6-1.8s-0.5-1.7-0.5-2.7c0-1,0.2-2,0.5-2.7c0.4-0.8,0.9-1.4,1.6-1.8
		c0.7-0.4,1.5-0.6,2.4-0.6c0.7,0,1.3,0.1,1.9,0.3c0.6,0.2,1.1,0.5,1.5,1l-0.4,0.7c-0.5-0.4-1-0.7-1.4-0.9c-0.5-0.2-1-0.3-1.6-0.3
		c-1.1,0-2,0.4-2.7,1.1c-0.6,0.8-1,1.8-1,3.2c0,1.4,0.3,2.4,0.9,3.2s1.5,1.1,2.7,1.1c0.6,0,1.1-0.1,1.6-0.3c0.5-0.2,1-0.5,1.4-0.9
		l0.4,0.7c-0.4,0.4-0.9,0.8-1.5,1c-0.6,0.2-1.2,0.3-1.9,0.3C38,123.6,37.2,123.4,36.5,123z"/>
	<path class="st3" d="M45.2,123.1c-0.5-0.3-0.9-0.7-1.1-1.3c-0.3-0.6-0.4-1.2-0.4-1.9c0-0.7,0.1-1.4,0.4-1.9c0.3-0.6,0.6-1,1.1-1.3
		s1.1-0.4,1.7-0.4c0.6,0,1.2,0.1,1.7,0.4s0.9,0.7,1.1,1.3c0.3,0.6,0.4,1.2,0.4,1.9c0,0.7-0.1,1.4-0.4,1.9c-0.3,0.6-0.6,1-1.1,1.3
		c-0.5,0.3-1,0.4-1.7,0.4C46.2,123.6,45.7,123.4,45.2,123.1z M48.6,122.1c0.4-0.5,0.6-1.2,0.6-2.1c0-0.9-0.2-1.6-0.6-2.1
		c-0.4-0.5-1-0.8-1.7-0.8c-0.7,0-1.3,0.3-1.7,0.8c-0.4,0.5-0.6,1.2-0.6,2.1c0,0.9,0.2,1.6,0.6,2.1s1,0.7,1.7,0.7
		C47.6,122.8,48.2,122.6,48.6,122.1z"/>
	<path class="st3" d="M53.5,114.2c-0.2,0.2-0.3,0.6-0.3,1.1v1.1h1.8v0.7h-1.8v6.3h-0.9v-6.3h-1.4v-0.7h1.4v-1.3
		c0-0.7,0.2-1.2,0.5-1.6c0.3-0.3,0.8-0.5,1.4-0.5c0.3,0,0.6,0,0.9,0.1v0.8c-0.3-0.1-0.5-0.1-0.7-0.1C54,113.9,53.7,114,53.5,114.2z"
		/>
	<path class="st3" d="M58.1,114.2c-0.2,0.2-0.3,0.6-0.3,1.1v1.1h1.8v0.7h-1.8v6.3h-0.9v-6.3h-1.4v-0.7h1.4v-1.3
		c0-0.7,0.2-1.2,0.5-1.6c0.3-0.3,0.8-0.5,1.4-0.5c0.3,0,0.6,0,0.9,0.1v0.8c-0.3-0.1-0.5-0.1-0.7-0.1C58.6,113.9,58.3,114,58.1,114.2
		z"/>
	<path class="st3" d="M61.5,119.9L61.5,119.9c0,1,0.2,1.7,0.7,2.2c0.4,0.5,1.1,0.8,1.9,0.8c0.8,0,1.6-0.3,2.3-0.9l0.3,0.7
		c-0.3,0.3-0.7,0.5-1.2,0.7c-0.5,0.2-1,0.3-1.5,0.3c-1.1,0-1.9-0.3-2.5-1c-0.6-0.6-0.9-1.5-0.9-2.7c0-0.7,0.1-1.4,0.4-1.9
		s0.7-1,1.2-1.3c0.5-0.3,1.1-0.5,1.7-0.5c0.9,0,1.6,0.3,2.2,0.9c0.5,0.6,0.8,1.4,0.8,2.5v0.2H61.5z M62.3,117.6
		c-0.4,0.4-0.7,0.9-0.8,1.6H66c-0.1-0.7-0.3-1.3-0.6-1.6c-0.4-0.4-0.9-0.6-1.5-0.6C63.2,117,62.7,117.2,62.3,117.6z"/>
	<path class="st3" d="M69.1,119.9L69.1,119.9c0,1,0.2,1.7,0.7,2.2c0.4,0.5,1.1,0.8,1.9,0.8c0.8,0,1.6-0.3,2.3-0.9l0.3,0.7
		c-0.3,0.3-0.7,0.5-1.2,0.7c-0.5,0.2-1,0.3-1.5,0.3c-1.1,0-1.9-0.3-2.5-1c-0.6-0.6-0.9-1.5-0.9-2.7c0-0.7,0.1-1.4,0.4-1.9
		s0.7-1,1.2-1.3c0.5-0.3,1.1-0.5,1.7-0.5c0.9,0,1.6,0.3,2.2,0.9c0.5,0.6,0.8,1.4,0.8,2.5v0.2H69.1z M69.9,117.6
		c-0.4,0.4-0.7,0.9-0.8,1.6h4.5c-0.1-0.7-0.3-1.3-0.6-1.6c-0.4-0.4-0.9-0.6-1.5-0.6C70.8,117,70.3,117.2,69.9,117.6z"/>
</g>
<g>
	<g>
		<path class="st3" d="M115,108c2.8,0,5,2.2,5,5v13c0,2.8-2.2,5-5,5H29c-2.8,0-5-2.2-5-5v-13c0-2.8,2.2-5,5-5H115 M115,106.3H29
			c-3.7,0-6.7,3-6.7,6.7v13c0,3.7,3,6.7,6.7,6.7h86c3.7,0,6.7-3,6.7-6.7v-13C121.7,109.3,118.7,106.3,115,106.3L115,106.3z"/>
	</g>
</g>
<g>
	<path class="st3" d="M144.5,123c-0.7-0.4-1.2-1-1.6-1.8s-0.5-1.7-0.5-2.7c0-1,0.2-2,0.5-2.7c0.4-0.8,0.9-1.4,1.6-1.8
		c0.7-0.4,1.5-0.6,2.4-0.6c0.7,0,1.3,0.1,1.9,0.3c0.6,0.2,1.1,0.5,1.5,1l-0.4,0.7c-0.5-0.4-1-0.7-1.4-0.9c-0.5-0.2-1-0.3-1.6-0.3
		c-1.1,0-2,0.4-2.7,1.1c-0.6,0.8-1,1.8-1,3.2c0,1.4,0.3,2.4,0.9,3.2s1.5,1.1,2.7,1.1c0.6,0,1.1-0.1,1.6-0.3c0.5-0.2,1-0.5,1.4-0.9
		l0.4,0.7c-0.4,0.4-0.9,0.8-1.5,1c-0.6,0.2-1.2,0.3-1.9,0.3C146,123.6,145.2,123.4,144.5,123z"/>
	<path class="st3" d="M153.2,123.1c-0.5-0.3-0.9-0.7-1.1-1.3c-0.3-0.6-0.4-1.2-0.4-1.9c0-0.7,0.1-1.4,0.4-1.9c0.3-0.6,0.6-1,1.1-1.3
		s1.1-0.4,1.7-0.4c0.6,0,1.2,0.1,1.7,0.4s0.9,0.7,1.1,1.3c0.3,0.6,0.4,1.2,0.4,1.9c0,0.7-0.1,1.4-0.4,1.9c-0.3,0.6-0.6,1-1.1,1.3
		c-0.5,0.3-1,0.4-1.7,0.4C154.2,123.6,153.7,123.4,153.2,123.1z M156.6,122.1c0.4-0.5,0.6-1.2,0.6-2.1c0-0.9-0.2-1.6-0.6-2.1
		c-0.4-0.5-1-0.8-1.7-0.8c-0.7,0-1.3,0.3-1.7,0.8c-0.4,0.5-0.6,1.2-0.6,2.1c0,0.9,0.2,1.6,0.6,2.1s1,0.7,1.7,0.7
		C155.6,122.8,156.2,122.6,156.6,122.1z"/>
	<path class="st3" d="M161.5,114.2c-0.2,0.2-0.3,0.6-0.3,1.1v1.1h1.8v0.7h-1.8v6.3h-0.9v-6.3h-1.4v-0.7h1.4v-1.3
		c0-0.7,0.2-1.2,0.5-1.6c0.3-0.3,0.8-0.5,1.4-0.5c0.3,0,0.6,0,0.9,0.1v0.8c-0.3-0.1-0.5-0.1-0.7-0.1
		C162,113.9,161.7,114,161.5,114.2z"/>
	<path class="st3" d="M166.1,114.2c-0.2,0.2-0.3,0.6-0.3,1.1v1.1h1.8v0.7h-1.8v6.3h-0.9v-6.3h-1.4v-0.7h1.4v-1.3
		c0-0.7,0.2-1.2,0.5-1.6c0.3-0.3,0.8-0.5,1.4-0.5c0.3,0,0.6,0,0.9,0.1v0.8c-0.3-0.1-0.5-0.1-0.7-0.1
		C166.6,113.9,166.3,114,166.1,114.2z"/>
	<path class="st3" d="M169.5,119.9L169.5,119.9c0,1,0.2,1.7,0.7,2.2c0.4,0.5,1.1,0.8,1.9,0.8c0.8,0,1.6-0.3,2.3-0.9l0.3,0.7
		c-0.3,0.3-0.7,0.5-1.2,0.7c-0.5,0.2-1,0.3-1.5,0.3c-1.1,0-1.9-0.3-2.5-1c-0.6-0.6-0.9-1.5-0.9-2.7c0-0.7,0.1-1.4,0.4-1.9
		s0.7-1,1.2-1.3c0.5-0.3,1.1-0.5,1.7-0.5c0.9,0,1.6,0.3,2.2,0.9c0.5,0.6,0.8,1.4,0.8,2.5v0.2H169.5z M170.3,117.6
		c-0.4,0.4-0.7,0.9-0.8,1.6h4.5c-0.1-0.7-0.3-1.3-0.6-1.6c-0.4-0.4-0.9-0.6-1.5-0.6C171.2,117,170.7,117.2,170.3,117.6z"/>
	<path class="st3" d="M177.1,119.9L177.1,119.9c0,1,0.2,1.7,0.7,2.2c0.4,0.5,1.1,0.8,1.9,0.8c0.8,0,1.6-0.3,2.3-0.9l0.3,0.7
		c-0.3,0.3-0.7,0.5-1.2,0.7c-0.5,0.2-1,0.3-1.5,0.3c-1.1,0-1.9-0.3-2.5-1c-0.6-0.6-0.9-1.5-0.9-2.7c0-0.7,0.1-1.4,0.4-1.9
		s0.7-1,1.2-1.3c0.5-0.3,1.1-0.5,1.7-0.5c0.9,0,1.6,0.3,2.2,0.9c0.5,0.6,0.8,1.4,0.8,2.5v0.2H177.1z M177.9,117.6
		c-0.4,0.4-0.7,0.9-0.8,1.6h4.5c-0.1-0.7-0.3-1.3-0.6-1.6c-0.4-0.4-0.9-0.6-1.5-0.6C178.8,117,178.3,117.2,177.9,117.6z"/>
</g>
<g>
	<g>
		<path class="st3" d="M223,108c2.8,0,5,2.2,5,5v13c0,2.8-2.2,5-5,5h-86c-2.8,0-5-2.2-5-5v-13c0-2.8,2.2-5,5-5H223 M223,106.3h-86
			c-3.7,0-6.7,3-6.7,6.7v13c0,3.7,3,6.7,6.7,6.7h86c3.7,0,6.7-3,6.7-6.7v-13C229.7,109.3,226.7,106.3,223,106.3L223,106.3z"/>
	</g>
</g>
<g>
	<g>
		<path class="st4" d="M33,150.8h0.7v9.3h-0.8v-7.4l-3.3,7.4H29l-3.3-7.3l0,7.3H25v-9.3h0.7l3.7,8.3L33,150.8z"/>
		<path class="st4" d="M36.3,156.7L36.3,156.7c0,0.9,0.2,1.6,0.6,2s1,0.7,1.8,0.7c0.8,0,1.5-0.3,2.1-0.8l0.3,0.6
			c-0.3,0.3-0.7,0.5-1.1,0.6c-0.4,0.2-0.9,0.2-1.4,0.2c-1,0-1.8-0.3-2.3-0.9c-0.6-0.6-0.9-1.4-0.9-2.5c0-0.7,0.1-1.3,0.4-1.8
			c0.3-0.5,0.6-0.9,1.1-1.2c0.5-0.3,1-0.4,1.6-0.4c0.9,0,1.5,0.3,2,0.8c0.5,0.6,0.7,1.3,0.7,2.3v0.2H36.3z M37.1,154.5
			c-0.4,0.4-0.6,0.9-0.7,1.5h4.1c-0.1-0.7-0.2-1.2-0.6-1.5c-0.3-0.4-0.8-0.5-1.4-0.5C37.9,154,37.4,154.2,37.1,154.5z"/>
		<path class="st4" d="M42.6,159.2l0.3-0.6c0.3,0.3,0.7,0.5,1,0.6c0.4,0.1,0.8,0.2,1.2,0.2c0.5,0,0.9-0.1,1.2-0.3
			c0.3-0.2,0.4-0.5,0.4-0.8c0-0.3-0.1-0.5-0.3-0.7s-0.5-0.3-0.9-0.4l-1.1-0.2c-0.5-0.1-0.9-0.3-1.2-0.7c-0.3-0.3-0.4-0.7-0.4-1.1
			c0-0.6,0.2-1,0.7-1.4c0.4-0.3,1-0.5,1.7-0.5c0.5,0,0.9,0.1,1.3,0.2s0.7,0.4,1,0.6l-0.3,0.6c-0.6-0.5-1.3-0.8-2-0.8
			c-0.5,0-0.9,0.1-1.2,0.3s-0.4,0.5-0.4,0.8c0,0.3,0.1,0.5,0.3,0.7c0.2,0.2,0.5,0.3,0.8,0.4l1.1,0.3c1.2,0.3,1.8,0.8,1.8,1.7
			c0,0.5-0.2,1-0.7,1.3c-0.5,0.3-1.1,0.5-1.8,0.5C44,160.1,43.2,159.8,42.6,159.2z"/>
		<path class="st4" d="M49,159.2l0.3-0.6c0.3,0.3,0.7,0.5,1,0.6c0.4,0.1,0.8,0.2,1.2,0.2c0.5,0,0.9-0.1,1.2-0.3
			c0.3-0.2,0.4-0.5,0.4-0.8c0-0.3-0.1-0.5-0.3-0.7s-0.5-0.3-0.9-0.4l-1.1-0.2c-0.5-0.1-0.9-0.3-1.2-0.7c-0.3-0.3-0.4-0.7-0.4-1.1
			c0-0.6,0.2-1,0.7-1.4c0.4-0.3,1-0.5,1.7-0.5c0.5,0,0.9,0.1,1.3,0.2s0.7,0.4,1,0.6l-0.3,0.6c-0.6-0.5-1.3-0.8-2-0.8
			c-0.5,0-0.9,0.1-1.2,0.3s-0.4,0.5-0.4,0.8c0,0.3,0.1,0.5,0.3,0.7c0.2,0.2,0.5,0.3,0.8,0.4l1.1,0.3c1.2,0.3,1.8,0.8,1.8,1.7
			c0,0.5-0.2,1-0.7,1.3c-0.5,0.3-1.1,0.5-1.8,0.5C50.4,160.1,49.6,159.8,49,159.2z"/>
		<path class="st4" d="M61.3,153.5v6.5h-0.8v-1.2c-0.2,0.4-0.5,0.8-0.9,1c-0.4,0.2-0.8,0.3-1.4,0.3c-0.6,0-1.1-0.1-1.5-0.4
			c-0.4-0.3-0.8-0.7-1-1.2s-0.4-1.1-0.4-1.8c0-0.7,0.1-1.3,0.4-1.8c0.2-0.5,0.6-0.9,1-1.2c0.4-0.3,0.9-0.4,1.5-0.4
			c0.5,0,1,0.1,1.4,0.3s0.7,0.6,0.9,1v-1.2H61.3z M60,158.7c0.4-0.5,0.6-1.1,0.6-2c0-0.9-0.2-1.5-0.6-2c-0.4-0.5-0.9-0.7-1.6-0.7
			s-1.2,0.2-1.6,0.7c-0.4,0.5-0.6,1.1-0.6,2c0,0.8,0.2,1.5,0.6,2c0.4,0.5,0.9,0.7,1.6,0.7C59.1,159.4,59.6,159.2,60,158.7z"/>
		<path class="st4" d="M69.1,153.5v6.5c0,0.9-0.2,1.7-0.7,2.1s-1.2,0.7-2.1,0.7c-1,0-1.8-0.2-2.5-0.7l0.2-0.7
			c0.4,0.3,0.8,0.4,1.2,0.5c0.4,0.1,0.8,0.2,1.2,0.2c0.6,0,1.1-0.2,1.5-0.5c0.3-0.4,0.5-0.9,0.5-1.6v-1.7c-0.2,0.4-0.5,0.8-0.9,1
			c-0.4,0.2-0.9,0.4-1.4,0.4c-0.6,0-1.1-0.1-1.5-0.4c-0.4-0.3-0.8-0.7-1-1.1c-0.2-0.5-0.4-1.1-0.4-1.7c0-0.6,0.1-1.2,0.4-1.7
			c0.2-0.5,0.6-0.9,1-1.1c0.4-0.3,0.9-0.4,1.5-0.4c0.5,0,1,0.1,1.4,0.3s0.7,0.6,0.9,1v-1.2H69.1z M67.7,158.4
			c0.4-0.5,0.6-1.1,0.6-1.8c0-0.8-0.2-1.4-0.6-1.9s-0.9-0.7-1.6-0.7c-0.7,0-1.2,0.2-1.6,0.7s-0.6,1.1-0.6,1.9c0,0.8,0.2,1.4,0.6,1.9
			s0.9,0.7,1.6,0.7C66.8,159.1,67.3,158.9,67.7,158.4z"/>
		<path class="st4" d="M71.6,156.7L71.6,156.7c0,0.9,0.2,1.6,0.6,2s1,0.7,1.8,0.7c0.8,0,1.5-0.3,2.1-0.8l0.3,0.6
			c-0.3,0.3-0.7,0.5-1.1,0.6c-0.4,0.2-0.9,0.2-1.4,0.2c-1,0-1.8-0.3-2.3-0.9c-0.6-0.6-0.9-1.4-0.9-2.5c0-0.7,0.1-1.3,0.4-1.8
			c0.3-0.5,0.6-0.9,1.1-1.2c0.5-0.3,1-0.4,1.6-0.4c0.9,0,1.5,0.3,2,0.8c0.5,0.6,0.7,1.3,0.7,2.3v0.2H71.6z M72.4,154.5
			c-0.4,0.4-0.6,0.9-0.7,1.5h4.1c-0.1-0.7-0.2-1.2-0.6-1.5c-0.3-0.4-0.8-0.5-1.4-0.5C73.3,154,72.8,154.2,72.4,154.5z"/>
	</g>
</g>
<g>
	<path class="st3" d="M42,179.5h0.9v10H42v-4.7h-6.4v4.7h-0.9v-10h0.9v4.5H42V179.5z"/>
	<path class="st3" d="M45.2,179.6h1.1v1.1h-1.1V179.6z M45.3,189.5v-7h0.8v7H45.3z"/>
	<path class="st3" d="M55,185.1c-0.4,0.9-1,1.3-1.8,1.3c-0.3,0-0.6-0.1-0.9-0.2c-0.3-0.1-0.6-0.3-1-0.5c-0.3-0.2-0.5-0.3-0.7-0.4
		s-0.4-0.1-0.6-0.1c-0.3,0-0.6,0.1-0.8,0.3s-0.3,0.4-0.5,0.7l-0.6-0.3c0.4-0.9,1-1.3,1.8-1.3c0.3,0,0.6,0.1,0.9,0.2
		c0.3,0.1,0.6,0.3,1.1,0.5c0.3,0.2,0.5,0.3,0.7,0.4c0.2,0.1,0.4,0.1,0.6,0.1c0.3,0,0.6-0.1,0.7-0.3c0.2-0.2,0.4-0.4,0.5-0.7
		L55,185.1z"/>
	<path class="st3" d="M63.1,189.5v-9.2h-3.6v-0.8h8v0.8h-3.6v9.2H63.1z"/>
	<path class="st3" d="M74.6,185v4.5h-0.9v-4.4c0-0.7-0.1-1.2-0.4-1.5c-0.3-0.3-0.7-0.5-1.3-0.5c-0.7,0-1.3,0.2-1.7,0.6
		c-0.4,0.4-0.6,1-0.6,1.7v4.1h-0.8v-10.3h0.8v4.5c0.2-0.5,0.5-0.8,1-1c0.4-0.2,0.9-0.4,1.5-0.4C73.8,182.3,74.6,183.2,74.6,185z"/>
	<path class="st3" d="M76.8,179.6h1.1v1.1h-1.1V179.6z M76.9,189.5v-7h0.8v7H76.9z"/>
	<path class="st3" d="M79.7,188.7L80,188c0.4,0.3,0.7,0.5,1.1,0.7s0.8,0.2,1.3,0.2c0.6,0,1-0.1,1.3-0.3c0.3-0.2,0.5-0.5,0.5-0.9
		c0-0.3-0.1-0.6-0.3-0.7c-0.2-0.2-0.5-0.3-1-0.4l-1.2-0.3c-0.6-0.1-1-0.4-1.3-0.7s-0.5-0.7-0.5-1.2c0-0.6,0.2-1.1,0.7-1.5
		c0.5-0.4,1.1-0.6,1.9-0.6c0.5,0,1,0.1,1.4,0.2s0.8,0.4,1.1,0.7l-0.3,0.7c-0.6-0.6-1.3-0.8-2.1-0.8c-0.5,0-1,0.1-1.3,0.3
		c-0.3,0.2-0.4,0.5-0.4,0.9c0,0.3,0.1,0.6,0.3,0.8c0.2,0.2,0.5,0.3,0.9,0.4l1.2,0.3c1.3,0.3,1.9,0.9,1.9,1.9c0,0.6-0.2,1.1-0.7,1.4
		s-1.1,0.5-2,0.5C81.3,189.6,80.4,189.3,79.7,188.7z"/>
	<path class="st3" d="M90.5,179.6h1.1v1.1h-1.1V179.6z M90.6,189.5v-7h0.8v7H90.6z"/>
	<path class="st3" d="M93.4,188.7l0.3-0.7c0.4,0.3,0.7,0.5,1.1,0.7s0.8,0.2,1.3,0.2c0.6,0,1-0.1,1.3-0.3c0.3-0.2,0.5-0.5,0.5-0.9
		c0-0.3-0.1-0.6-0.3-0.7c-0.2-0.2-0.5-0.3-1-0.4l-1.2-0.3c-0.6-0.1-1-0.4-1.3-0.7s-0.5-0.7-0.5-1.2c0-0.6,0.2-1.1,0.7-1.5
		c0.5-0.4,1.1-0.6,1.9-0.6c0.5,0,1,0.1,1.4,0.2s0.8,0.4,1.1,0.7l-0.3,0.7c-0.6-0.6-1.3-0.8-2.1-0.8c-0.5,0-1,0.1-1.3,0.3
		c-0.3,0.2-0.4,0.5-0.4,0.9c0,0.3,0.1,0.6,0.3,0.8c0.2,0.2,0.5,0.3,0.9,0.4l1.2,0.3c1.3,0.3,1.9,0.9,1.9,1.9c0,0.6-0.2,1.1-0.7,1.4
		s-1.1,0.5-2,0.5C94.9,189.6,94,189.3,93.4,188.7z"/>
	<path class="st3" d="M114.2,185v4.5h-0.9v-4.4c0-0.7-0.1-1.2-0.4-1.5c-0.3-0.3-0.7-0.5-1.2-0.5c-0.6,0-1.2,0.2-1.5,0.6
		c-0.4,0.4-0.6,1-0.6,1.8v4h-0.9v-4.4c0-0.7-0.1-1.2-0.4-1.5s-0.7-0.5-1.2-0.5c-0.6,0-1.1,0.2-1.5,0.6c-0.4,0.4-0.6,1-0.6,1.8v4
		h-0.8v-5.1c0-0.7,0-1.4-0.1-1.9h0.8l0.1,1.3c0.2-0.5,0.5-0.8,0.9-1.1c0.4-0.2,0.8-0.4,1.4-0.4c1.1,0,1.9,0.5,2.2,1.4
		c0.2-0.4,0.5-0.8,0.9-1s0.9-0.4,1.4-0.4C113.4,182.3,114.2,183.2,114.2,185z"/>
	<path class="st3" d="M122.4,182.5l-3.3,7.7c-0.3,0.8-0.7,1.3-1.2,1.7s-1.1,0.6-1.8,0.8l-0.2-0.7c0.7-0.2,1.2-0.4,1.5-0.6
		s0.6-0.6,0.9-1.2l0.3-0.7l-3-7h0.9l2.5,6.2l2.5-6.2H122.4z"/>
	<path class="st3" d="M132.3,182.8c0.5,0.3,0.8,0.7,1.1,1.3c0.3,0.6,0.4,1.2,0.4,1.9s-0.1,1.4-0.4,1.9s-0.6,1-1.1,1.3
		c-0.5,0.3-1,0.4-1.6,0.4c-0.6,0-1.1-0.1-1.5-0.4c-0.4-0.3-0.7-0.6-0.9-1.1v4.4h-0.8v-8.1c0-0.7,0-1.4-0.1-1.9h0.8l0.1,1.4
		c0.2-0.5,0.5-0.9,0.9-1.1s0.9-0.4,1.5-0.4C131.3,182.3,131.8,182.5,132.3,182.8z M132.3,188.1c0.4-0.5,0.6-1.2,0.6-2.1
		c0-0.9-0.2-1.6-0.6-2.1c-0.4-0.5-1-0.8-1.7-0.8c-0.7,0-1.3,0.3-1.7,0.8s-0.6,1.2-0.6,2.1c0,0.9,0.2,1.6,0.6,2.1s1,0.8,1.7,0.8
		S131.8,188.6,132.3,188.1z"/>
	<path class="st3" d="M139.3,182.4l0,0.8c-0.2,0-0.4-0.1-0.6-0.1c-0.7,0-1.2,0.2-1.6,0.7c-0.4,0.5-0.5,1-0.5,1.6v4.1h-0.8v-5.1
		c0-0.7,0-1.4-0.1-1.9h0.8l0.1,1.3c0.2-0.5,0.5-0.8,0.9-1.1s0.8-0.4,1.4-0.4C138.9,182.3,139.1,182.3,139.3,182.4z"/>
	<path class="st3" d="M141.5,189.1c-0.5-0.3-0.9-0.7-1.1-1.3c-0.3-0.6-0.4-1.2-0.4-1.9c0-0.7,0.1-1.4,0.4-1.9c0.3-0.6,0.6-1,1.1-1.3
		s1.1-0.4,1.7-0.4c0.6,0,1.2,0.1,1.7,0.4s0.9,0.7,1.1,1.3c0.3,0.6,0.4,1.2,0.4,1.9c0,0.7-0.1,1.4-0.4,1.9c-0.3,0.6-0.6,1-1.1,1.3
		c-0.5,0.3-1,0.4-1.7,0.4C142.5,189.6,142,189.4,141.5,189.1z M144.9,188.1c0.4-0.5,0.6-1.2,0.6-2.1c0-0.9-0.2-1.6-0.6-2.1
		c-0.4-0.5-1-0.8-1.7-0.8c-0.7,0-1.3,0.3-1.7,0.8c-0.4,0.5-0.6,1.2-0.6,2.1c0,0.9,0.2,1.6,0.6,2.1s1,0.7,1.7,0.7
		C143.9,188.8,144.5,188.6,144.9,188.1z"/>
	<path class="st3" d="M154.3,182.5v7c0,1-0.3,1.8-0.8,2.3c-0.5,0.5-1.2,0.8-2.2,0.8c-1,0-2-0.3-2.7-0.8l0.2-0.7
		c0.5,0.3,0.9,0.5,1.3,0.6c0.4,0.1,0.8,0.2,1.3,0.2c0.7,0,1.2-0.2,1.6-0.6s0.5-0.9,0.5-1.7v-1.8c-0.2,0.5-0.5,0.8-1,1.1
		c-0.4,0.3-0.9,0.4-1.5,0.4c-0.6,0-1.2-0.1-1.6-0.4c-0.5-0.3-0.8-0.7-1.1-1.2c-0.3-0.5-0.4-1.1-0.4-1.8c0-0.7,0.1-1.3,0.4-1.8
		c0.3-0.5,0.6-0.9,1.1-1.2c0.5-0.3,1-0.4,1.6-0.4c0.6,0,1.1,0.1,1.5,0.4c0.4,0.2,0.7,0.6,0.9,1.1v-1.3H154.3z M152.8,187.8
		c0.4-0.5,0.6-1.1,0.6-2c0-0.8-0.2-1.5-0.6-2c-0.4-0.5-1-0.7-1.7-0.7c-0.7,0-1.3,0.2-1.7,0.7s-0.6,1.2-0.6,2c0,0.8,0.2,1.5,0.6,2
		s1,0.7,1.7,0.7C151.8,188.5,152.4,188.3,152.8,187.8z"/>
	<path class="st3" d="M160.2,182.4l0,0.8c-0.2,0-0.4-0.1-0.6-0.1c-0.7,0-1.2,0.2-1.6,0.7c-0.4,0.5-0.5,1-0.5,1.6v4.1h-0.8v-5.1
		c0-0.7,0-1.4-0.1-1.9h0.8l0.1,1.3c0.2-0.5,0.5-0.8,0.9-1.1s0.8-0.4,1.4-0.4C159.8,182.3,160,182.3,160.2,182.4z"/>
	<path class="st3" d="M161.8,185.9L161.8,185.9c0,1,0.2,1.7,0.7,2.2c0.4,0.5,1.1,0.8,1.9,0.8c0.8,0,1.6-0.3,2.3-0.9l0.3,0.7
		c-0.3,0.3-0.7,0.5-1.2,0.7c-0.5,0.2-1,0.3-1.5,0.3c-1.1,0-1.9-0.3-2.5-1c-0.6-0.6-0.9-1.5-0.9-2.7c0-0.7,0.1-1.4,0.4-1.9
		s0.7-1,1.2-1.3c0.5-0.3,1.1-0.5,1.7-0.5c0.9,0,1.6,0.3,2.2,0.9c0.5,0.6,0.8,1.4,0.8,2.5v0.2H161.8z M162.6,183.6
		c-0.4,0.4-0.7,0.9-0.8,1.6h4.5c-0.1-0.7-0.3-1.3-0.6-1.6c-0.4-0.4-0.9-0.6-1.5-0.6C163.5,183,163,183.2,162.6,183.6z"/>
	<path class="st3" d="M168.5,188.7l0.3-0.7c0.4,0.3,0.7,0.5,1.1,0.7s0.8,0.2,1.3,0.2c0.6,0,1-0.1,1.3-0.3c0.3-0.2,0.5-0.5,0.5-0.9
		c0-0.3-0.1-0.6-0.3-0.7c-0.2-0.2-0.5-0.3-1-0.4l-1.2-0.3c-0.6-0.1-1-0.4-1.3-0.7s-0.5-0.7-0.5-1.2c0-0.6,0.2-1.1,0.7-1.5
		c0.5-0.4,1.1-0.6,1.9-0.6c0.5,0,1,0.1,1.4,0.2s0.8,0.4,1.1,0.7l-0.3,0.7c-0.6-0.6-1.3-0.8-2.1-0.8c-0.5,0-1,0.1-1.3,0.3
		c-0.3,0.2-0.4,0.5-0.4,0.9c0,0.3,0.1,0.6,0.3,0.8c0.2,0.2,0.5,0.3,0.9,0.4l1.2,0.3c1.3,0.3,1.9,0.9,1.9,1.9c0,0.6-0.2,1.1-0.7,1.4
		s-1.1,0.5-2,0.5C170.1,189.6,169.2,189.3,168.5,188.7z"/>
	<path class="st3" d="M175.4,188.7l0.3-0.7c0.4,0.3,0.7,0.5,1.1,0.7s0.8,0.2,1.3,0.2c0.6,0,1-0.1,1.3-0.3c0.3-0.2,0.5-0.5,0.5-0.9
		c0-0.3-0.1-0.6-0.3-0.7c-0.2-0.2-0.5-0.3-1-0.4l-1.2-0.3c-0.6-0.1-1-0.4-1.3-0.7s-0.5-0.7-0.5-1.2c0-0.6,0.2-1.1,0.7-1.5
		c0.5-0.4,1.1-0.6,1.9-0.6c0.5,0,1,0.1,1.4,0.2s0.8,0.4,1.1,0.7l-0.3,0.7c-0.6-0.6-1.3-0.8-2.1-0.8c-0.5,0-1,0.1-1.3,0.3
		c-0.3,0.2-0.4,0.5-0.4,0.9c0,0.3,0.1,0.6,0.3,0.8c0.2,0.2,0.5,0.3,0.9,0.4l1.2,0.3c1.3,0.3,1.9,0.9,1.9,1.9c0,0.6-0.2,1.1-0.7,1.4
		s-1.1,0.5-2,0.5C177,189.6,176.1,189.3,175.4,188.7z"/>
	<path class="st3" d="M35.9,199.2v4.2c0,0.6,0.1,0.9,0.3,1.2s0.5,0.3,1,0.3c0.3,0,0.5,0,0.8-0.1v0.8c-0.3,0.1-0.6,0.1-0.9,0.1
		c-0.6,0-1.1-0.2-1.4-0.5c-0.4-0.3-0.5-0.9-0.5-1.6v-4.3h-1.4v-0.7H35v-1.9l0.9-0.3v2.2h2.1v0.7H35.9z"/>
	<path class="st3" d="M40.5,205.1c-0.5-0.3-0.9-0.7-1.1-1.3c-0.3-0.6-0.4-1.2-0.4-1.9c0-0.7,0.1-1.4,0.4-1.9c0.3-0.6,0.6-1,1.1-1.3
		s1.1-0.4,1.7-0.4c0.6,0,1.2,0.1,1.7,0.4s0.9,0.7,1.1,1.3c0.3,0.6,0.4,1.2,0.4,1.9c0,0.7-0.1,1.4-0.4,1.9c-0.3,0.6-0.6,1-1.1,1.3
		c-0.5,0.3-1,0.4-1.7,0.4C41.5,205.6,41,205.4,40.5,205.1z M43.9,204.1c0.4-0.5,0.6-1.2,0.6-2.1c0-0.9-0.2-1.6-0.6-2.1
		c-0.4-0.5-1-0.8-1.7-0.8c-0.7,0-1.3,0.3-1.7,0.8c-0.4,0.5-0.6,1.2-0.6,2.1c0,0.9,0.2,1.6,0.6,2.1s1,0.7,1.7,0.7
		C42.9,204.8,43.5,204.6,43.9,204.1z"/>
	<path class="st3" d="M53.2,195.2v10.3h-0.9v-1.3c-0.2,0.5-0.5,0.8-0.9,1.1c-0.4,0.2-0.9,0.4-1.5,0.4c-0.6,0-1.2-0.2-1.6-0.5
		c-0.5-0.3-0.8-0.7-1.1-1.3c-0.3-0.6-0.4-1.2-0.4-1.9s0.1-1.4,0.4-1.9s0.6-1,1.1-1.3c0.5-0.3,1-0.4,1.6-0.4c0.6,0,1.1,0.1,1.5,0.4
		c0.4,0.2,0.7,0.6,0.9,1.1v-4.6H53.2z M51.7,204.1c0.4-0.5,0.6-1.2,0.6-2.1c0-0.9-0.2-1.6-0.6-2.1c-0.4-0.5-1-0.8-1.7-0.8
		c-0.7,0-1.3,0.3-1.7,0.8c-0.4,0.5-0.6,1.2-0.6,2.1c0,0.9,0.2,1.6,0.6,2.1c0.4,0.5,1,0.8,1.7,0.8S51.3,204.6,51.7,204.1z"/>
	<path class="st3" d="M61.5,198.5v7h-0.9v-1.3c-0.2,0.5-0.5,0.8-0.9,1.1c-0.4,0.2-0.9,0.4-1.5,0.4c-0.6,0-1.2-0.1-1.6-0.4
		c-0.5-0.3-0.8-0.7-1.1-1.3s-0.4-1.2-0.4-1.9s0.1-1.4,0.4-1.9c0.3-0.6,0.6-1,1.1-1.3c0.5-0.3,1-0.5,1.6-0.5c0.6,0,1.1,0.1,1.5,0.4
		c0.4,0.2,0.7,0.6,0.9,1.1v-1.3H61.5z M60,204.1c0.4-0.5,0.6-1.2,0.6-2.1c0-0.9-0.2-1.6-0.6-2.1s-1-0.8-1.7-0.8s-1.3,0.3-1.7,0.8
		c-0.4,0.5-0.6,1.2-0.6,2.1c0,0.9,0.2,1.6,0.6,2.1c0.4,0.5,1,0.8,1.7,0.8C59,204.8,59.6,204.6,60,204.1z"/>
	<path class="st3" d="M69.7,198.5l-3.3,7.7c-0.3,0.8-0.7,1.3-1.2,1.7s-1.1,0.6-1.8,0.8l-0.2-0.7c0.7-0.2,1.2-0.4,1.5-0.6
		s0.6-0.6,0.9-1.2l0.3-0.7l-3-7h0.9l2.5,6.2l2.5-6.2H69.7z"/>
	<path class="st3" d="M70.4,204.3h1.2v1.2h-1.2V204.3z"/>
	<path class="st3" d="M73.6,204.3h1.2v1.2h-1.2V204.3z"/>
	<path class="st3" d="M83.8,198.6H85v1.2h-1.2V198.6z M83.8,204.3H85v1.2h-1.2V204.3z"/>
	<path class="st3" d="M90,208c0.5-1.1,0.8-2.2,1-3.2s0.3-2,0.3-3c0-1-0.1-2-0.3-3s-0.6-2.1-1.1-3.2h0.8c0.5,1,0.9,2.1,1.1,3.1
		c0.2,1,0.4,2.1,0.4,3.2c0,1.1-0.1,2.2-0.4,3.2c-0.2,1-0.6,2.1-1.1,3.1H90z"/>
</g>
<g>
	<g>
		<path class="st3" d="M223,171c2.8,0,5,2.2,5,5v47c0,2.8-2.2,5-5,5H29c-2.8,0-5-2.2-5-5v-47c0-2.8,2.2-5,5-5H223 M223,169.2H29
			c-3.8,0-6.8,3.1-6.8,6.8v47c0,3.8,3.1,6.8,6.8,6.8h194c3.8,0,6.8-3.1,6.8-6.8v-47C229.8,172.2,226.8,169.2,223,169.2L223,169.2z"
			/>
	</g>
</g>
</svg>
