<?xml version="1.0" encoding="utf-8"?>
<!-- Generator: Adobe Illustrator 21.1.0, SVG Export Plug-In . SVG Version: 6.00 Build 0)  -->
<svg version="1.1" id="圖層_1" xmlns="http://www.w3.org/2000/svg" xmlns:xlink="http://www.w3.org/1999/xlink" x="0px" y="0px"
	 viewBox="0 0 250 250" style="enable-background:new 0 0 250 250;" xml:space="preserve">
<style type="text/css">
	.st0{fill:#F2F2F2;}
	.st1{fill:#E6E6E6;}
	.st2{fill:#333333;}
	.st3{fill:#CCCCCC;}
	.st4{fill:#4D4D4D;}
</style>
<rect class="st0" width="250" height="250"/>
<g>
	<path class="st3" d="M43,186.5h0.9v10H43v-4.7h-6.4v4.7h-0.9v-10h0.9v4.5H43V186.5z"/>
	<path class="st3" d="M46.2,186.6h1.1v1.1h-1.1V186.6z M46.3,196.5v-7h0.8v7H46.3z"/>
	<path class="st3" d="M56,192.1c-0.4,0.9-1,1.3-1.8,1.3c-0.3,0-0.6-0.1-0.9-0.2c-0.3-0.1-0.6-0.3-1-0.5c-0.3-0.2-0.5-0.3-0.7-0.4
		s-0.4-0.1-0.6-0.1c-0.3,0-0.6,0.1-0.8,0.3s-0.3,0.4-0.5,0.7l-0.6-0.3c0.4-0.9,1-1.3,1.8-1.3c0.3,0,0.6,0.1,0.9,0.2
		c0.3,0.1,0.6,0.3,1.1,0.5c0.3,0.2,0.5,0.3,0.7,0.4c0.2,0.1,0.4,0.1,0.6,0.1c0.3,0,0.6-0.1,0.7-0.3c0.2-0.2,0.4-0.4,0.5-0.7
		L56,192.1z"/>
	<path class="st3" d="M64.1,196.5v-9.2h-3.6v-0.8h8v0.8h-3.6v9.2H64.1z"/>
	<path class="st3" d="M75.6,192v4.5h-0.9v-4.4c0-0.7-0.1-1.2-0.4-1.5c-0.3-0.3-0.7-0.5-1.3-0.5c-0.7,0-1.3,0.2-1.7,0.6
		c-0.4,0.4-0.6,1-0.6,1.7v4.1h-0.8v-10.3h0.8v4.5c0.2-0.5,0.5-0.8,1-1c0.4-0.2,0.9-0.4,1.5-0.4C74.8,189.3,75.6,190.2,75.6,192z"/>
	<path class="st3" d="M77.8,186.6h1.1v1.1h-1.1V186.6z M77.9,196.5v-7h0.8v7H77.9z"/>
	<path class="st3" d="M80.7,195.7L81,195c0.4,0.3,0.7,0.5,1.1,0.7s0.8,0.2,1.3,0.2c0.6,0,1-0.1,1.3-0.3c0.3-0.2,0.5-0.5,0.5-0.9
		c0-0.3-0.1-0.6-0.3-0.7c-0.2-0.2-0.5-0.3-1-0.4l-1.2-0.3c-0.6-0.1-1-0.4-1.3-0.7s-0.5-0.7-0.5-1.2c0-0.6,0.2-1.1,0.7-1.5
		c0.5-0.4,1.1-0.6,1.9-0.6c0.5,0,1,0.1,1.4,0.2s0.8,0.4,1.1,0.7l-0.3,0.7c-0.6-0.6-1.3-0.8-2.1-0.8c-0.5,0-1,0.1-1.3,0.3
		c-0.3,0.2-0.4,0.5-0.4,0.9c0,0.3,0.1,0.6,0.3,0.8c0.2,0.2,0.5,0.3,0.9,0.4l1.2,0.3c1.3,0.3,1.9,0.9,1.9,1.9c0,0.6-0.2,1.1-0.7,1.4
		s-1.1,0.5-2,0.5C82.3,196.6,81.4,196.3,80.7,195.7z"/>
	<path class="st3" d="M91.5,186.6h1.1v1.1h-1.1V186.6z M91.6,196.5v-7h0.8v7H91.6z"/>
	<path class="st3" d="M94.4,195.7l0.3-0.7c0.4,0.3,0.7,0.5,1.1,0.7s0.8,0.2,1.3,0.2c0.6,0,1-0.1,1.3-0.3c0.3-0.2,0.5-0.5,0.5-0.9
		c0-0.3-0.1-0.6-0.3-0.7c-0.2-0.2-0.5-0.3-1-0.4l-1.2-0.3c-0.6-0.1-1-0.4-1.3-0.7s-0.5-0.7-0.5-1.2c0-0.6,0.2-1.1,0.7-1.5
		c0.5-0.4,1.1-0.6,1.9-0.6c0.5,0,1,0.1,1.4,0.2s0.8,0.4,1.1,0.7l-0.3,0.7c-0.6-0.6-1.3-0.8-2.1-0.8c-0.5,0-1,0.1-1.3,0.3
		c-0.3,0.2-0.4,0.5-0.4,0.9c0,0.3,0.1,0.6,0.3,0.8c0.2,0.2,0.5,0.3,0.9,0.4l1.2,0.3c1.3,0.3,1.9,0.9,1.9,1.9c0,0.6-0.2,1.1-0.7,1.4
		s-1.1,0.5-2,0.5C95.9,196.6,95,196.3,94.4,195.7z"/>
	<path class="st3" d="M115.2,192v4.5h-0.9v-4.4c0-0.7-0.1-1.2-0.4-1.5c-0.3-0.3-0.7-0.5-1.2-0.5c-0.6,0-1.2,0.2-1.5,0.6
		c-0.4,0.4-0.6,1-0.6,1.8v4h-0.9v-4.4c0-0.7-0.1-1.2-0.4-1.5s-0.7-0.5-1.2-0.5c-0.6,0-1.1,0.2-1.5,0.6c-0.4,0.4-0.6,1-0.6,1.8v4
		h-0.8v-5.1c0-0.7,0-1.4-0.1-1.9h0.8l0.1,1.3c0.2-0.5,0.5-0.8,0.9-1.1c0.4-0.2,0.8-0.4,1.4-0.4c1.1,0,1.9,0.5,2.2,1.4
		c0.2-0.4,0.5-0.8,0.9-1s0.9-0.4,1.4-0.4C114.4,189.3,115.2,190.2,115.2,192z"/>
	<path class="st3" d="M123.4,189.5l-3.3,7.7c-0.3,0.8-0.7,1.3-1.2,1.7s-1.1,0.6-1.8,0.8l-0.2-0.7c0.7-0.2,1.2-0.4,1.5-0.6
		s0.6-0.6,0.9-1.2l0.3-0.7l-3-7h0.9l2.5,6.2l2.5-6.2H123.4z"/>
	<path class="st3" d="M133.3,189.8c0.5,0.3,0.8,0.7,1.1,1.3c0.3,0.6,0.4,1.2,0.4,1.9s-0.1,1.4-0.4,1.9s-0.6,1-1.1,1.3
		c-0.5,0.3-1,0.4-1.6,0.4c-0.6,0-1.1-0.1-1.5-0.4c-0.4-0.3-0.7-0.6-0.9-1.1v4.4h-0.8v-8.1c0-0.7,0-1.4-0.1-1.9h0.8l0.1,1.4
		c0.2-0.5,0.5-0.9,0.9-1.1s0.9-0.4,1.5-0.4C132.3,189.3,132.8,189.5,133.3,189.8z M133.3,195.1c0.4-0.5,0.6-1.2,0.6-2.1
		c0-0.9-0.2-1.6-0.6-2.1c-0.4-0.5-1-0.8-1.7-0.8c-0.7,0-1.3,0.3-1.7,0.8s-0.6,1.2-0.6,2.1c0,0.9,0.2,1.6,0.6,2.1s1,0.8,1.7,0.8
		S132.8,195.6,133.3,195.1z"/>
	<path class="st3" d="M140.3,189.4l0,0.8c-0.2,0-0.4-0.1-0.6-0.1c-0.7,0-1.2,0.2-1.6,0.7c-0.4,0.5-0.5,1-0.5,1.6v4.1h-0.8v-5.1
		c0-0.7,0-1.4-0.1-1.9h0.8l0.1,1.3c0.2-0.5,0.5-0.8,0.9-1.1s0.8-0.4,1.4-0.4C139.9,189.3,140.1,189.3,140.3,189.4z"/>
	<path class="st3" d="M142.5,196.1c-0.5-0.3-0.9-0.7-1.1-1.3c-0.3-0.6-0.4-1.2-0.4-1.9c0-0.7,0.1-1.4,0.4-1.9c0.3-0.6,0.6-1,1.1-1.3
		s1.1-0.4,1.7-0.4c0.6,0,1.2,0.1,1.7,0.4s0.9,0.7,1.1,1.3c0.3,0.6,0.4,1.2,0.4,1.9c0,0.7-0.1,1.4-0.4,1.9c-0.3,0.6-0.6,1-1.1,1.3
		c-0.5,0.3-1,0.4-1.7,0.4C143.5,196.6,143,196.4,142.5,196.1z M145.9,195.1c0.4-0.5,0.6-1.2,0.6-2.1c0-0.9-0.2-1.6-0.6-2.1
		c-0.4-0.5-1-0.8-1.7-0.8c-0.7,0-1.3,0.3-1.7,0.8c-0.4,0.5-0.6,1.2-0.6,2.1c0,0.9,0.2,1.6,0.6,2.1s1,0.7,1.7,0.7
		C144.9,195.8,145.5,195.6,145.9,195.1z"/>
	<path class="st3" d="M155.3,189.5v7c0,1-0.3,1.8-0.8,2.3c-0.5,0.5-1.2,0.8-2.2,0.8c-1,0-2-0.3-2.7-0.8l0.2-0.7
		c0.5,0.3,0.9,0.5,1.3,0.6c0.4,0.1,0.8,0.2,1.3,0.2c0.7,0,1.2-0.2,1.6-0.6s0.5-0.9,0.5-1.7v-1.8c-0.2,0.5-0.5,0.8-1,1.1
		c-0.4,0.3-0.9,0.4-1.5,0.4c-0.6,0-1.2-0.1-1.6-0.4c-0.5-0.3-0.8-0.7-1.1-1.2c-0.3-0.5-0.4-1.1-0.4-1.8c0-0.7,0.1-1.3,0.4-1.8
		c0.3-0.5,0.6-0.9,1.1-1.2c0.5-0.3,1-0.4,1.6-0.4c0.6,0,1.1,0.1,1.5,0.4c0.4,0.2,0.7,0.6,0.9,1.1v-1.3H155.3z M153.8,194.8
		c0.4-0.5,0.6-1.1,0.6-2c0-0.8-0.2-1.5-0.6-2c-0.4-0.5-1-0.7-1.7-0.7c-0.7,0-1.3,0.2-1.7,0.7s-0.6,1.2-0.6,2c0,0.8,0.2,1.5,0.6,2
		s1,0.7,1.7,0.7C152.8,195.5,153.4,195.3,153.8,194.8z"/>
	<path class="st3" d="M161.2,189.4l0,0.8c-0.2,0-0.4-0.1-0.6-0.1c-0.7,0-1.2,0.2-1.6,0.7c-0.4,0.5-0.5,1-0.5,1.6v4.1h-0.8v-5.1
		c0-0.7,0-1.4-0.1-1.9h0.8l0.1,1.3c0.2-0.5,0.5-0.8,0.9-1.1s0.8-0.4,1.4-0.4C160.8,189.3,161,189.3,161.2,189.4z"/>
	<path class="st3" d="M162.8,192.9L162.8,192.9c0,1,0.2,1.7,0.7,2.2c0.4,0.5,1.1,0.8,1.9,0.8c0.8,0,1.6-0.3,2.3-0.9l0.3,0.7
		c-0.3,0.3-0.7,0.5-1.2,0.7c-0.5,0.2-1,0.3-1.5,0.3c-1.1,0-1.9-0.3-2.5-1c-0.6-0.6-0.9-1.5-0.9-2.7c0-0.7,0.1-1.4,0.4-1.9
		s0.7-1,1.2-1.3c0.5-0.3,1.1-0.5,1.7-0.5c0.9,0,1.6,0.3,2.2,0.9c0.5,0.6,0.8,1.4,0.8,2.5v0.2H162.8z M163.6,190.6
		c-0.4,0.4-0.7,0.9-0.8,1.6h4.5c-0.1-0.7-0.3-1.3-0.6-1.6c-0.4-0.4-0.9-0.6-1.5-0.6C164.5,190,164,190.2,163.6,190.6z"/>
	<path class="st3" d="M169.5,195.7l0.3-0.7c0.4,0.3,0.7,0.5,1.1,0.7s0.8,0.2,1.3,0.2c0.6,0,1-0.1,1.3-0.3c0.3-0.2,0.5-0.5,0.5-0.9
		c0-0.3-0.1-0.6-0.3-0.7c-0.2-0.2-0.5-0.3-1-0.4l-1.2-0.3c-0.6-0.1-1-0.4-1.3-0.7s-0.5-0.7-0.5-1.2c0-0.6,0.2-1.1,0.7-1.5
		c0.5-0.4,1.1-0.6,1.9-0.6c0.5,0,1,0.1,1.4,0.2s0.8,0.4,1.1,0.7l-0.3,0.7c-0.6-0.6-1.3-0.8-2.1-0.8c-0.5,0-1,0.1-1.3,0.3
		c-0.3,0.2-0.4,0.5-0.4,0.9c0,0.3,0.1,0.6,0.3,0.8c0.2,0.2,0.5,0.3,0.9,0.4l1.2,0.3c1.3,0.3,1.9,0.9,1.9,1.9c0,0.6-0.2,1.1-0.7,1.4
		s-1.1,0.5-2,0.5C171.1,196.6,170.2,196.3,169.5,195.7z"/>
	<path class="st3" d="M176.4,195.7l0.3-0.7c0.4,0.3,0.7,0.5,1.1,0.7s0.8,0.2,1.3,0.2c0.6,0,1-0.1,1.3-0.3c0.3-0.2,0.5-0.5,0.5-0.9
		c0-0.3-0.1-0.6-0.3-0.7c-0.2-0.2-0.5-0.3-1-0.4l-1.2-0.3c-0.6-0.1-1-0.4-1.3-0.7s-0.5-0.7-0.5-1.2c0-0.6,0.2-1.1,0.7-1.5
		c0.5-0.4,1.1-0.6,1.9-0.6c0.5,0,1,0.1,1.4,0.2s0.8,0.4,1.1,0.7l-0.3,0.7c-0.6-0.6-1.3-0.8-2.1-0.8c-0.5,0-1,0.1-1.3,0.3
		c-0.3,0.2-0.4,0.5-0.4,0.9c0,0.3,0.1,0.6,0.3,0.8c0.2,0.2,0.5,0.3,0.9,0.4l1.2,0.3c1.3,0.3,1.9,0.9,1.9,1.9c0,0.6-0.2,1.1-0.7,1.4
		s-1.1,0.5-2,0.5C178,196.6,177.1,196.3,176.4,195.7z"/>
	<path class="st3" d="M36.9,206.2v4.2c0,0.6,0.1,0.9,0.3,1.2s0.5,0.3,1,0.3c0.3,0,0.5,0,0.8-0.1v0.8c-0.3,0.1-0.6,0.1-0.9,0.1
		c-0.6,0-1.1-0.2-1.4-0.5c-0.4-0.3-0.5-0.9-0.5-1.6v-4.3h-1.4v-0.7H36v-1.9l0.9-0.3v2.2h2.1v0.7H36.9z"/>
	<path class="st3" d="M41.5,212.1c-0.5-0.3-0.9-0.7-1.1-1.3c-0.3-0.6-0.4-1.2-0.4-1.9c0-0.7,0.1-1.4,0.4-1.9c0.3-0.6,0.6-1,1.1-1.3
		s1.1-0.4,1.7-0.4c0.6,0,1.2,0.1,1.7,0.4s0.9,0.7,1.1,1.3c0.3,0.6,0.4,1.2,0.4,1.9c0,0.7-0.1,1.4-0.4,1.9c-0.3,0.6-0.6,1-1.1,1.3
		c-0.5,0.3-1,0.4-1.7,0.4C42.5,212.6,42,212.4,41.5,212.1z M44.9,211.1c0.4-0.5,0.6-1.2,0.6-2.1c0-0.9-0.2-1.6-0.6-2.1
		c-0.4-0.5-1-0.8-1.7-0.8c-0.7,0-1.3,0.3-1.7,0.8c-0.4,0.5-0.6,1.2-0.6,2.1c0,0.9,0.2,1.6,0.6,2.1s1,0.7,1.7,0.7
		C43.9,211.8,44.5,211.6,44.9,211.1z"/>
	<path class="st3" d="M54.2,202.2v10.3h-0.9v-1.3c-0.2,0.5-0.5,0.8-0.9,1.1c-0.4,0.2-0.9,0.4-1.5,0.4c-0.6,0-1.2-0.2-1.6-0.5
		c-0.5-0.3-0.8-0.7-1.1-1.3c-0.3-0.6-0.4-1.2-0.4-1.9s0.1-1.4,0.4-1.9s0.6-1,1.1-1.3c0.5-0.3,1-0.4,1.6-0.4c0.6,0,1.1,0.1,1.5,0.4
		c0.4,0.2,0.7,0.6,0.9,1.1v-4.6H54.2z M52.7,211.1c0.4-0.5,0.6-1.2,0.6-2.1c0-0.9-0.2-1.6-0.6-2.1c-0.4-0.5-1-0.8-1.7-0.8
		c-0.7,0-1.3,0.3-1.7,0.8c-0.4,0.5-0.6,1.2-0.6,2.1c0,0.9,0.2,1.6,0.6,2.1c0.4,0.5,1,0.8,1.7,0.8S52.3,211.6,52.7,211.1z"/>
	<path class="st3" d="M62.5,205.5v7h-0.9v-1.3c-0.2,0.5-0.5,0.8-0.9,1.1c-0.4,0.2-0.9,0.4-1.5,0.4c-0.6,0-1.2-0.1-1.6-0.4
		c-0.5-0.3-0.8-0.7-1.1-1.3s-0.4-1.2-0.4-1.9s0.1-1.4,0.4-1.9c0.3-0.6,0.6-1,1.1-1.3c0.5-0.3,1-0.5,1.6-0.5c0.6,0,1.1,0.1,1.5,0.4
		c0.4,0.2,0.7,0.6,0.9,1.1v-1.3H62.5z M61,211.1c0.4-0.5,0.6-1.2,0.6-2.1c0-0.9-0.2-1.6-0.6-2.1s-1-0.8-1.7-0.8s-1.3,0.3-1.7,0.8
		c-0.4,0.5-0.6,1.2-0.6,2.1c0,0.9,0.2,1.6,0.6,2.1c0.4,0.5,1,0.8,1.7,0.8C60,211.8,60.6,211.6,61,211.1z"/>
	<path class="st3" d="M70.7,205.5l-3.3,7.7c-0.3,0.8-0.7,1.3-1.2,1.7s-1.1,0.6-1.8,0.8l-0.2-0.7c0.7-0.2,1.2-0.4,1.5-0.6
		s0.6-0.6,0.9-1.2l0.3-0.7l-3-7h0.9l2.5,6.2l2.5-6.2H70.7z"/>
	<path class="st3" d="M71.4,211.3h1.2v1.2h-1.2V211.3z"/>
	<path class="st3" d="M74.6,211.3h1.2v1.2h-1.2V211.3z"/>
	<path class="st3" d="M84.8,205.6H86v1.2h-1.2V205.6z M84.8,211.3H86v1.2h-1.2V211.3z"/>
	<path class="st3" d="M91,215c0.5-1.1,0.8-2.2,1-3.2s0.3-2,0.3-3c0-1-0.1-2-0.3-3s-0.6-2.1-1.1-3.2h0.8c0.5,1,0.9,2.1,1.1,3.1
		c0.2,1,0.4,2.1,0.4,3.2c0,1.1-0.1,2.2-0.4,3.2c-0.2,1-0.6,2.1-1.1,3.1H91z"/>
</g>
<g>
	<path class="st3" d="M165.5,169h-133c-4.4,0-8-3.6-8-8V28c0-4.4,3.6-8,8-8h133c4.4,0,8,3.6,8,8v133
		C173.5,165.4,169.9,169,165.5,169z"/>
</g>
<g>
	<g>
		<path class="st3" d="M205,181c2.8,0,5,2.2,5,5v32c0,2.8-2.2,5-5,5H30c-2.8,0-5-2.2-5-5v-32c0-2.8,2.2-5,5-5H205 M205,179.3H30
			c-3.7,0-6.7,3-6.7,6.7v32c0,3.7,3,6.7,6.7,6.7h175c3.7,0,6.7-3,6.7-6.7v-32C211.7,182.3,208.7,179.3,205,179.3L205,179.3z"/>
	</g>
</g>
<g>
	<path class="st3" d="M194.8,146.3c1.1,0,2.1,0.3,3.1,0.9c0.9,0.6,1.7,1.3,2.2,2.3c0.5,1,0.8,2,0.8,3.1c0,1.1-0.3,2.4-1,3.7
		c-0.7,1-1.4,2.1-2.3,3.2c-0.8,1.1-1.5,2-2,2.6l-0.8,0.9c-0.1-0.1-0.2-0.2-0.4-0.4c-0.2-0.2-0.5-0.5-0.9-1c-0.4-0.5-0.9-1-1.3-1.5
		s-0.9-1.1-1.4-1.8c-0.5-0.7-1-1.4-1.4-2.1c-0.6-1.3-0.9-2.4-0.9-3.6c0-1.1,0.3-2.2,0.8-3.2c0.5-1,1.3-1.8,2.2-2.3
		C192.7,146.6,193.7,146.3,194.8,146.3z M194.8,155.8c1,0,1.8-0.3,2.5-1c0.7-0.7,1-1.5,1-2.5c0-1-0.3-1.8-1-2.5
		c-0.7-0.7-1.5-1-2.5-1c-1,0-1.8,0.3-2.5,1c-0.7,0.7-1,1.5-1,2.5c0,1,0.3,1.8,1,2.5C193,155.5,193.8,155.8,194.8,155.8z"/>
</g>
<path class="st0" d="M121.4,84.6c0.4,1.5,0.6,2.9,0.6,4.3v12.8c0,4.7-1.7,8.7-5,12c-3.3,3.3-7.3,5-12,5H92.2c-4.7,0-8.7-1.7-12-5
	c-3.3-3.3-5-7.3-5-12l0.1-4c0.1-2.6,0.1-5.4,0.2-8.2c0.1-2.8,0.2-4.5,0.3-4.9h7.9v21.3c0,1.2,0.4,2.2,1.3,3c0.8,0.8,1.8,1.3,3,1.3
	h21.3c1.2,0,2.2-0.4,3-1.3c0.8-0.8,1.3-1.8,1.3-3V84.6H121.4z M98.6,63.3l-14.9,17h8.5v12.8H105V80.3h8.5L98.6,63.3z"/>
<g>
	<path class="st3" d="M202.7,101.2c-0.3,0.3-0.6,0.4-1,0.4h-13.6c-0.4,0-0.7-0.1-1-0.4c-0.3-0.3-0.4-0.6-0.4-1v-8.2
		c0-0.4,0.1-0.7,0.4-1c0.3-0.3,0.6-0.4,1-0.4h2l0.2-0.3c0.1-0.2,0.3-0.4,0.5-0.7c0.2-0.3,0.4-0.5,0.7-0.8c0.3-0.3,0.6-0.5,1-0.7
		c0.4-0.2,0.7-0.3,1.1-0.3h2.7c0.4,0,0.8,0.1,1.1,0.3c0.4,0.2,0.7,0.4,0.9,0.7c0.2,0.2,0.5,0.5,0.7,0.8c0.2,0.3,0.4,0.5,0.4,0.7
		c0.1,0.1,0.1,0.2,0.2,0.3h2c0.4,0,0.7,0.1,1,0.4c0.3,0.3,0.4,0.6,0.4,1v8.2C203.1,100.6,203,100.9,202.7,101.2z M195,92.8
		c-0.9,0-1.7,0.3-2.3,1c-0.7,0.7-1,1.4-1,2.3s0.3,1.7,1,2.3c0.7,0.7,1.4,1,2.3,1c0.9,0,1.7-0.3,2.3-1c0.7-0.7,1-1.4,1-2.3
		s-0.3-1.7-1-2.3C196.7,93.2,195.9,92.8,195,92.8z M195,97.6c-0.4,0-0.7-0.1-1-0.4c-0.3-0.3-0.4-0.6-0.4-1c0-0.4,0.1-0.7,0.4-1
		c0.3-0.3,0.6-0.4,1-0.4c0.4,0,0.7,0.1,1,0.4c0.3,0.3,0.4,0.6,0.4,1c0,0.4-0.1,0.7-0.4,1C195.7,97.5,195.4,97.6,195,97.6z
		 M200.4,92.1h-1.4v1.4h1.4V92.1z"/>
</g>
<g>
	<path class="st3" d="M190.9,117.7c1.2-0.7,2.6-1.1,4-1.1c1.5,0,2.8,0.4,4,1.1c1.2,0.7,2.2,1.7,2.9,2.9c0.7,1.2,1.1,2.6,1.1,4
		s-0.4,2.8-1.1,4c-0.7,1.2-1.7,2.2-2.9,2.9c-1.2,0.7-2.6,1.1-4,1.1c-1.5,0-2.8-0.4-4-1.1c-1.2-0.7-2.2-1.7-2.9-2.9
		c-0.7-1.2-1.1-2.6-1.1-4s0.4-2.8,1.1-4C188.7,119.4,189.7,118.5,190.9,117.7z M199,120.8c-1.1-1.1-2.4-1.6-4-1.6
		c-1.5,0-2.9,0.5-4,1.6c-1.1,1.1-1.6,2.4-1.6,4s0.5,2.9,1.6,4c1.1,1.1,2.4,1.6,4,1.6c1.5,0,2.9-0.5,4-1.6c1.1-1.1,1.6-2.4,1.6-4
		S200,121.9,199,120.8z M195,124.7h2.7v1.4h-4.1v-5.4h1.4V124.7z"/>
</g>
</svg>
