<?xml version="1.0" encoding="utf-8"?>
<!-- Generator: Adobe Illustrator 21.1.0, SVG Export Plug-In . SVG Version: 6.00 Build 0)  -->
<svg version="1.1" id="圖層_1" xmlns="http://www.w3.org/2000/svg" xmlns:xlink="http://www.w3.org/1999/xlink" x="0px" y="0px"
	 viewBox="0 0 21 21" style="enable-background:new 0 0 21 21;" xml:space="preserve">
<style type="text/css">
	.st0{fill:#F7F7F7;}
	.st1{fill:#F2F2F2;}
	.st2{fill:#E6E6E6;}
	.st3{fill:#333333;}
	.st4{fill:#CCCCCC;}
	.st5{fill:#4D4D4D;}
	.st6{fill:#E5E5E5;}
	.st7{fill:#FFFFFF;}
	.st8{fill:none;stroke:#DDDDDD;stroke-miterlimit:10;}
</style>
<path class="st0" d="M21,11L11,21L0,10V0.5c0-0.1,0.1-0.2,0.1-0.3C0.2,0.1,0.4,0,0.5,0H10L21,11z M6.4,6.4C6.8,6,7,5.5,7,4.9
	c0-0.6-0.2-1-0.6-1.4C6,3.1,5.5,2.9,4.9,2.9c-0.6,0-1,0.2-1.4,0.6C3.1,3.9,2.9,4.4,2.9,4.9c0,0.6,0.2,1,0.6,1.4C3.9,6.8,4.4,7,4.9,7
	C5.5,7,6,6.8,6.4,6.4z"/>
</svg>
