<svg xmlns="http://www.w3.org/2000/svg" viewBox="0 0 600.389 363.472">
  <defs>
    <style>
      .cls-1 {
        fill: #ffdb4f;
        font-size: 38px;
        font-family: Muli-Black, Muli;
        font-weight: 800;
      }

      .cls-2 {
        font-family: YuGothicUI-Bold, Yu Gothic UI;
        font-weight: 700;
      }

      .cls-10, .cls-3 {
        fill: #717071;
      }

      .cls-3 {
        font-size: 15px;
        font-family: MicrosoftJhengHeiRegular, Microsoft JhengHei;
        letter-spacing: 0.1em;
      }

      .cls-13, .cls-4 {
        fill: #707070;
      }

      .cls-4 {
        opacity: 0.1;
      }

      .cls-5 {
        fill: none;
        stroke: #b4b4b4;
        stroke-miterlimit: 10;
        stroke-width: 0.813px;
        opacity: 0.2;
      }

      .cls-6 {
        fill: #d8d8d8;
      }

      .cls-7 {
        fill: #ffe199;
      }

      .cls-8 {
        fill: #d0d0d0;
      }

      .cls-15, .cls-9 {
        fill: #ffd96c;
      }

      .cls-9 {
        opacity: 0.7;
      }

      .cls-10, .cls-11, .cls-13 {
        font-size: 11px;
        font-family: SegoeUI, Segoe UI;
      }

      .cls-11 {
        fill: #d3b544;
      }

      .cls-11, .cls-13 {
        opacity: 0.8;
      }

      .cls-12 {
        fill: #7f7f7f;
        font-size: 8px;
      }

      .cls-12, .cls-14 {
        font-family: OpenSans-Light, Open Sans;
        font-weight: 300;
      }

      .cls-14 {
        fill: #b4b4b4;
        font-size: 7px;
      }
    </style>
  </defs>
  <g id="_004" data-name="004" transform="translate(-389.611 -1393.223)">
    <text id="_" data-name="[                                       　 ]" class="cls-1" transform="translate(445.277 1740.696)"><tspan x="0" y="0" xml:space="preserve">[                                       </tspan><tspan class="cls-2" y="0">　</tspan><tspan y="0" xml:space="preserve"> ]</tspan></text>
    <text id="筆電和PC市場逐年被智慧型手機以及平板電腦蠶食" class="cls-3" transform="translate(506 1721.695)"><tspan x="0" y="0">筆電和PC市場逐年被智慧型手機以及平板電腦蠶食</tspan></text>
    <text id="而小筆電市場幾乎完取被取代" class="cls-3" transform="translate(583 1752.695)"><tspan x="0" y="0">而小筆電市場幾乎完取被取代</tspan></text>
    <path id="Path_887" data-name="Path 887" class="cls-4" d="M223.9,328.093H581.259l133.386-4.666-113.273-4.183h-267.9l-89.138-.644" transform="translate(275.355 1227.317)"/>
    <line id="Line_156" data-name="Line 156" class="cls-5" x1="483.182" transform="translate(462.329 1455.411)"/>
    <line id="Line_157" data-name="Line 157" class="cls-5" x1="483.182" transform="translate(462.329 1401.751)"/>
    <path id="Path_888" data-name="Path 888" class="cls-6" d="M219.5,290.987l-18.1-8.769L219.34,128.8Z" transform="translate(279.754 1264.423)"/>
    <path id="Path_889" data-name="Path 889" class="cls-7" d="M219.54,305.943l-17.94-8.769L212.38,205.3l7.16,3.7Z" transform="translate(279.715 1249.467)"/>
    <path id="Path_890" data-name="Path 890" class="cls-8" d="M223.88,291.378l20.273-9.01L223.8,130.8Z" transform="translate(275.375 1264.032)"/>
    <path id="Path_891" data-name="Path 891" class="cls-9" d="M244.1,296.445,223.822,306.1l-.322-96.942,8.367-3.057Z" transform="translate(275.434 1249.311)"/>
    <path id="Path_892" data-name="Path 892" class="cls-6" d="M330.5,296.715l-18.1-8.769L330.34,158.1Z" transform="translate(258.054 1258.695)"/>
    <path id="Path_893" data-name="Path 893" class="cls-8" d="M334.88,297.106l20.273-9.01L334.8,160.1Z" transform="translate(253.674 1258.304)"/>
    <path id="Path_894" data-name="Path 894" class="cls-6" d="M441.5,296.715l-18.1-8.769L441.34,158.1Z" transform="translate(236.353 1258.695)"/>
    <path id="Path_895" data-name="Path 895" class="cls-8" d="M445.88,294.389l20.273-9.01L445.8,146.2Z" transform="translate(231.974 1261.021)"/>
    <path id="Path_896" data-name="Path 896" class="cls-6" d="M552.5,298.788l-18.1-8.769L552.34,168.7Z" transform="translate(214.652 1256.622)"/>
    <path id="Path_897" data-name="Path 897" class="cls-8" d="M556.861,299.159l20.273-9.01L556.7,170.6Z" transform="translate(210.293 1256.251)"/>
    <path id="Path_898" data-name="Path 898" class="cls-6" d="M663.5,302.991l-18.1-8.769L663.34,190.2Z" transform="translate(192.952 1252.419)"/>
    <path id="Path_899" data-name="Path 899" class="cls-8" d="M667.861,302.991l20.273-9.01L667.7,190.2Z" transform="translate(188.592 1252.419)"/>
    <text id="_2012" data-name="2012" class="cls-10" transform="translate(481.062 1589.706)"><tspan x="0" y="0">2012</tspan></text>
    <text id="Desktop_PC" data-name="Desktop PC" class="cls-11" transform="translate(392.611 1510.735)"><tspan x="0" y="0">Desktop PC</tspan></text>
    <text id="Source:IDV_Tauwan_Quarterly_PC_Tracker" data-name="Source:IDV Tauwan Quarterly PC Tracker" class="cls-12" transform="translate(600.293 1628.898)"><tspan x="0" y="0">Source:IDV Tauwan Quarterly PC Tracker</tspan></text>
    <text id="Portable_PC" data-name="Portable PC" class="cls-13" transform="translate(389.611 1447.962)"><tspan x="0" y="0">Portable PC</tspan></text>
    <text id="_2013" data-name="2013" class="cls-10" transform="translate(570.655 1589.706)"><tspan x="0" y="0">2013</tspan></text>
    <text id="_2014" data-name="2014" class="cls-10" transform="translate(660.248 1589.706)"><tspan x="0" y="0">2014</tspan></text>
    <text id="_2015" data-name="2015" class="cls-10" transform="translate(749.842 1589.706)"><tspan x="0" y="0">2015</tspan></text>
    <text id="_2016" data-name="2016" class="cls-10" transform="translate(839.435 1589.706)"><tspan x="0" y="0">2016</tspan></text>
    <text id="_3000k_2000k" data-name="3000k
2000k" class="cls-14" transform="translate(950.391 1400.714)"><tspan x="0" y="0">3000k</tspan><tspan x="0" y="48">2000k</tspan></text>
    <path id="Path_903" data-name="Path 903" class="cls-15" d="M244.1,296.445,223.822,306.1l-.322-96.942,8.367-3.057Z" transform="translate(275.434 1249.311)"/>
    <path id="Path_904" data-name="Path 904" class="cls-7" d="M330.579,309.6,312.8,300.83,323.5,224l7.08,3.7Z" transform="translate(257.976 1245.811)"/>
    <path id="Path_905" data-name="Path 905" class="cls-15" d="M355.415,300.082l-20.193,9.654-.322-81.9,8.286-3.138Z" transform="translate(253.655 1245.674)"/>
    <path id="Path_906" data-name="Path 906" class="cls-7" d="M441.879,309.11,424.1,300.341,434.156,221.5l7.08,3.781Z" transform="translate(236.216 1246.3)"/>
    <path id="Path_907" data-name="Path 907" class="cls-15" d="M466.639,299.612l-20.273,9.654-.965-83.829,9.252-3.138Z" transform="translate(232.052 1246.144)"/>
    <path id="Path_908" data-name="Path 908" class="cls-7" d="M553.345,312.238,534.6,303.067l9.734-65.567,9.01,3.3Z" transform="translate(214.613 1243.172)"/>
    <path id="Path_909" data-name="Path 909" class="cls-15" d="M578.115,302.623l-20.273,9.654-.241-71.439,8.286-3.138Z" transform="translate(210.117 1243.133)"/>
    <path id="Path_910" data-name="Path 910" class="cls-7" d="M664.364,314.134,645.7,305.2l9.734-58,8.286,4.022Z" transform="translate(192.893 1241.276)"/>
    <path id="Path_911" data-name="Path 911" class="cls-15" d="M689.339,304.7l-20.273,9.654-.965-62.912,8.286-3.138Z" transform="translate(188.514 1241.061)"/>
  </g>
</svg>
