<svg xmlns="http://www.w3.org/2000/svg" viewBox="0 0 176.813 421.648">
  <defs>
    <style>
      .cls-1 {
        fill: #7ae1f1;
      }

      .cls-1, .cls-20, .cls-4, .cls-5, .cls-7 {
        stroke: #56e3ee;
      }

      .cls-17, .cls-19, .cls-2, .cls-23, .cls-3, .cls-4, .cls-5 {
        fill: none;
      }

      .cls-2, .cls-21, .cls-3 {
        stroke: #707070;
      }

      .cls-2 {
        stroke-width: 3px;
      }

      .cls-2, .cls-3 {
        opacity: 0.43;
      }

      .cls-5 {
        opacity: 0.82;
      }

      .cls-16, .cls-6 {
        fill: #fff;
      }

      .cls-6 {
        stroke: #1cc5d4;
      }

      .cls-7 {
        fill: #c1f7ff;
        opacity: 0.02;
      }

      .cls-10, .cls-11, .cls-12, .cls-8, .cls-9 {
        fill: #3c656b;
      }

      .cls-10, .cls-8 {
        font-size: 10px;
      }

      .cls-11, .cls-12, .cls-14, .cls-15, .cls-8, .cls-9 {
        font-family: SegoeUI-Italic, Segoe UI;
        font-style: italic;
      }

      .cls-9 {
        font-size: 9px;
      }

      .cls-10 {
        font-family: YuGothicUI-Regular, Yu Gothic UI;
      }

      .cls-11 {
        font-size: 7px;
      }

      .cls-12 {
        font-size: 4px;
      }

      .cls-13 {
        fill: #47494d;
      }

      .cls-14, .cls-15 {
        fill: #36757e;
      }

      .cls-14 {
        font-size: 15px;
      }

      .cls-15 {
        font-size: 6px;
      }

      .cls-17, .cls-19 {
        stroke: #8e8e8e;
        stroke-miterlimit: 10;
      }

      .cls-17 {
        stroke-width: 0.656px;
      }

      .cls-18 {
        fill: #8e8e8e;
      }

      .cls-19 {
        stroke-width: 0.525px;
      }

      .cls-20 {
        fill: #56e3ee;
      }

      .cls-21 {
        fill: #727171;
        opacity: 0.01;
      }

      .cls-22 {
        stroke: none;
      }
    </style>
  </defs>
  <g id="_012" data-name="012" transform="translate(-975.245 -5342.352)">
    <g id="Group_1942" data-name="Group 1942" transform="translate(976.745 5343.852)">
      <g id="Rectangle_769" data-name="Rectangle 769" class="cls-1" transform="translate(89.443 203.794)">
        <rect class="cls-22" width="36.939" height="35.571" rx="2"/>
        <rect class="cls-23" x="0.5" y="0.5" width="35.939" height="34.571" rx="1.5"/>
      </g>
      <path id="Path_9586" data-name="Path 9586" class="cls-2" d="M646.916,1496.848a9.6,9.6,0,0,1-9.49,9.722H482.69a9.6,9.6,0,0,1-9.49-9.722V1192.022a9.6,9.6,0,0,1,9.49-9.723H637.427a9.6,9.6,0,0,1,9.49,9.723v304.826Z" transform="translate(-473.2 -1182.3)"/>
      <path id="Path_9569" data-name="Path 9569" class="cls-3" d="M646.916,1496.848a9.6,9.6,0,0,1-9.49,9.722H482.69a9.6,9.6,0,0,1-9.49-9.722V1192.022a9.6,9.6,0,0,1,9.49-9.723H637.427a9.6,9.6,0,0,1,9.49,9.723v304.826Z" transform="translate(-473.104 -1182.3)"/>
      <g id="Rectangle_805" data-name="Rectangle 805" class="cls-4" transform="translate(10.153 15.525)">
        <rect class="cls-22" width="38.218" height="11.581" rx="5"/>
        <rect class="cls-23" x="0.5" y="0.5" width="37.218" height="10.581" rx="4.5"/>
      </g>
      <g id="Rectangle_797" data-name="Rectangle 797" class="cls-5" transform="translate(7.356 97.999)">
        <rect class="cls-22" width="36.939" height="28.73" rx="2"/>
        <rect class="cls-23" x="0.5" y="0.5" width="35.939" height="27.73" rx="1.5"/>
      </g>
      <g id="Rectangle_792" data-name="Rectangle 792" class="cls-5" transform="translate(7.356 130.531)">
        <rect class="cls-22" width="36.939" height="29.484" rx="2"/>
        <rect class="cls-23" x="0.5" y="0.5" width="35.939" height="28.484" rx="1.5"/>
      </g>
      <g id="Rectangle_793" data-name="Rectangle 793" class="cls-6" transform="translate(7.356 164.12)">
        <rect class="cls-22" width="36.939" height="35.571" rx="2"/>
        <rect class="cls-23" x="0.5" y="0.5" width="35.939" height="34.571" rx="1.5"/>
      </g>
      <g id="Rectangle_794" data-name="Rectangle 794" class="cls-6" transform="translate(7.356 203.794)">
        <rect class="cls-22" width="36.939" height="35.571" rx="2"/>
        <rect class="cls-23" x="0.5" y="0.5" width="35.939" height="34.571" rx="1.5"/>
      </g>
      <g id="Rectangle_795" data-name="Rectangle 795" class="cls-6" transform="translate(7.356 243.47)">
        <rect class="cls-22" width="36.939" height="35.571" rx="2"/>
        <rect class="cls-23" x="0.5" y="0.5" width="35.939" height="34.571" rx="1.5"/>
      </g>
      <g id="Rectangle_804" data-name="Rectangle 804" class="cls-5" transform="translate(7.356 281.687)">
        <path class="cls-22" d="M2,0H34.939a2,2,0,0,1,2,2V33.571a2,2,0,0,1-2,2H6a6,6,0,0,1-6-6V2A2,2,0,0,1,2,0Z"/>
        <path class="cls-23" d="M2,.5H34.939a1.5,1.5,0,0,1,1.5,1.5V33.571a1.5,1.5,0,0,1-1.5,1.5H6a5.5,5.5,0,0,1-5.5-5.5V2A1.5,1.5,0,0,1,2,.5Z"/>
      </g>
      <g id="Rectangle_798" data-name="Rectangle 798" class="cls-5" transform="translate(89.443 97.999)">
        <rect class="cls-22" width="36.939" height="28.73" rx="2"/>
        <rect class="cls-23" x="0.5" y="0.5" width="35.939" height="27.73" rx="1.5"/>
      </g>
      <g id="Rectangle_806" data-name="Rectangle 806" class="cls-7" transform="translate(7.454 52.213)">
        <rect class="cls-22" width="160.454" height="34.054" rx="2"/>
        <rect class="cls-23" x="0.5" y="0.5" width="159.454" height="33.054" rx="1.5"/>
      </g>
      <g id="Rectangle_786" data-name="Rectangle 786" class="cls-5" transform="translate(89.442 130.531)">
        <rect class="cls-22" width="36.939" height="29.484" rx="2"/>
        <rect class="cls-23" x="0.5" y="0.5" width="35.939" height="28.484" rx="1.5"/>
      </g>
      <g id="Rectangle_784" data-name="Rectangle 784" class="cls-6" transform="translate(89.443 164.12)">
        <rect class="cls-22" width="36.939" height="35.571" rx="2"/>
        <rect class="cls-23" x="0.5" y="0.5" width="35.939" height="34.571" rx="1.5"/>
      </g>
      <g id="Rectangle_782" data-name="Rectangle 782" class="cls-6" transform="translate(89.443 243.47)">
        <rect class="cls-22" width="36.939" height="35.571" rx="2"/>
        <rect class="cls-23" x="0.5" y="0.5" width="35.939" height="34.571" rx="1.5"/>
      </g>
      <g id="Rectangle_780" data-name="Rectangle 780" class="cls-5" transform="translate(130.486 243.47)">
        <path class="cls-22" d="M2,0H34.939a2,2,0,0,1,2,2V67.878a6,6,0,0,1-6,6H2a2,2,0,0,1-2-2V2A2,2,0,0,1,2,0Z"/>
        <path class="cls-23" d="M2,.5H34.939a1.5,1.5,0,0,1,1.5,1.5V67.878a5.5,5.5,0,0,1-5.5,5.5H2a1.5,1.5,0,0,1-1.5-1.5V2A1.5,1.5,0,0,1,2,.5Z"/>
      </g>
      <g id="Rectangle_783" data-name="Rectangle 783" class="cls-5" transform="translate(89.443 281.777)">
        <rect class="cls-22" width="36.939" height="35.571" rx="2"/>
        <rect class="cls-23" x="0.5" y="0.5" width="35.939" height="34.571" rx="1.5"/>
      </g>
      <g id="Rectangle_799" data-name="Rectangle 799" class="cls-5" transform="translate(48.399 97.999)">
        <rect class="cls-22" width="36.939" height="28.73" rx="2"/>
        <rect class="cls-23" x="0.5" y="0.5" width="35.939" height="27.73" rx="1.5"/>
      </g>
      <g id="Rectangle_787" data-name="Rectangle 787" class="cls-5" transform="translate(48.399 130.531)">
        <rect class="cls-22" width="36.939" height="29.484" rx="2"/>
        <rect class="cls-23" x="0.5" y="0.5" width="35.939" height="28.484" rx="1.5"/>
      </g>
      <g id="Rectangle_788" data-name="Rectangle 788" class="cls-6" transform="translate(48.399 164.12)">
        <rect class="cls-22" width="36.939" height="35.571" rx="2"/>
        <rect class="cls-23" x="0.5" y="0.5" width="35.939" height="34.571" rx="1.5"/>
      </g>
      <g id="Rectangle_789" data-name="Rectangle 789" class="cls-6" transform="translate(48.399 203.794)">
        <rect class="cls-22" width="36.939" height="35.571" rx="2"/>
        <rect class="cls-23" x="0.5" y="0.5" width="35.939" height="34.571" rx="1.5"/>
      </g>
      <g id="Rectangle_790" data-name="Rectangle 790" class="cls-6" transform="translate(48.399 243.47)">
        <rect class="cls-22" width="36.939" height="35.571" rx="2"/>
        <rect class="cls-23" x="0.5" y="0.5" width="35.939" height="34.571" rx="1.5"/>
      </g>
      <g id="Rectangle_803" data-name="Rectangle 803" class="cls-6" transform="translate(48.399 281.687)">
        <rect class="cls-22" width="36.939" height="35.571" rx="2"/>
        <rect class="cls-23" x="0.5" y="0.5" width="35.939" height="34.571" rx="1.5"/>
      </g>
      <g id="Rectangle_800" data-name="Rectangle 800" class="cls-5" transform="translate(130.486 97.999)">
        <rect class="cls-22" width="36.939" height="28.73" rx="2"/>
        <rect class="cls-23" x="0.5" y="0.5" width="35.939" height="27.73" rx="1.5"/>
      </g>
      <g id="Rectangle_791" data-name="Rectangle 791" class="cls-5" transform="translate(130.485 130.531)">
        <rect class="cls-22" width="36.939" height="29.484" rx="2"/>
        <rect class="cls-23" x="0.5" y="0.5" width="35.939" height="28.484" rx="1.5"/>
      </g>
      <g id="Rectangle_807" data-name="Rectangle 807" class="cls-5" transform="translate(130.486 163.842)">
        <rect class="cls-22" width="36.939" height="35.571" rx="2"/>
        <rect class="cls-23" x="0.5" y="0.5" width="35.939" height="34.571" rx="1.5"/>
      </g>
      <g id="Rectangle_781" data-name="Rectangle 781" class="cls-4" transform="translate(130.486 203.517)">
        <rect class="cls-22" width="36.939" height="35.849" rx="2"/>
        <rect class="cls-23" x="0.5" y="0.5" width="35.939" height="34.849" rx="1.5"/>
      </g>
      <text id="_" data-name="=" class="cls-8" transform="translate(143.905 283.995)"><tspan x="0" y="0">=</tspan></text>
      <text id="_-" data-name="-" class="cls-8" transform="translate(147.099 183.905)"><tspan x="0" y="0">-</tspan></text>
      <text id="_2" data-name="+" class="cls-8" transform="translate(144.97 224.367)"><tspan x="0" y="0">+</tspan></text>
      <text id="_3" data-name="±" class="cls-8" transform="translate(20.39 301.031)"><tspan x="0" y="0">±</tspan></text>
      <text id="_4" data-name="×" class="cls-8" transform="translate(144.97 147.702)"><tspan x="0" y="0">×</tspan></text>
      <text id="_5" data-name="÷" class="cls-8" transform="translate(144.97 114.694)"><tspan x="0" y="0">÷</tspan></text>
      <text id="_0" data-name="0" class="cls-8" transform="translate(63.995 303.589)"><tspan x="0" y="0">0</tspan></text>
      <text id="_2-2" data-name="2" class="cls-8" transform="translate(63.995 265.371)"><tspan x="0" y="0">2</tspan></text>
      <text id="_5-2" data-name="5" class="cls-8" transform="translate(63.995 224.931)"><tspan x="0" y="0">5</tspan></text>
      <text id="_8" data-name="8" class="cls-8" transform="translate(63.995 185.555)"><tspan x="0" y="0">8</tspan></text>
      <text id="C" class="cls-9" transform="translate(62.93 148.608)"><tspan x="0" y="0">C</tspan></text>
      <text id="C-2" data-name="C" class="cls-9" transform="translate(105.522 148.608)"><tspan x="0" y="0">C</tspan></text>
      <text id="_3-2" data-name="3" class="cls-8" transform="translate(104.529 264.306)"><tspan x="0" y="0">3</tspan></text>
      <text id="_." data-name="." class="cls-8" transform="translate(106.659 302.639)"><tspan x="0" y="0">.</tspan></text>
      <text id="_6" data-name="6" class="cls-8" transform="translate(104.529 224.931)"><tspan x="0" y="0">6</tspan></text>
      <text id="_9" data-name="9" class="cls-8" transform="translate(104.529 185.555)"><tspan x="0" y="0">9</tspan></text>
      <text id="_1" data-name="1" class="cls-8" transform="translate(19.987 264.306)"><tspan x="0" y="0">1</tspan></text>
      <text id="_4-2" data-name="4" class="cls-8" transform="translate(19.987 224.931)"><tspan x="0" y="0">4</tspan></text>
      <text id="_7" data-name="7" class="cls-8" transform="translate(19.987 185.555)"><tspan x="0" y="0">7</tspan></text>
      <text id="CE" class="cls-9" transform="translate(18.922 148.608)"><tspan x="0" y="0">CE</tspan></text>
      <text id="_6-2" data-name="％" class="cls-10" transform="translate(19.987 115.509)"><tspan x="0" y="0">％</tspan></text>
      <text id="_7-2" data-name="√" class="cls-8" transform="translate(62.651 115.509)"><tspan x="0" y="0">√</tspan></text>
      <text id="X" class="cls-11" transform="translate(104.177 115.703)"><tspan x="0" y="0">X</tspan></text>
      <text id="X-2" data-name="X" class="cls-12" transform="translate(110.566 109.574)"><tspan x="0" y="0">X</tspan></text>
      <ellipse id="Ellipse_234" data-name="Ellipse 234" class="cls-13" cx="1.158" cy="1.158" rx="1.158" ry="1.158" transform="translate(21.734 20.158)"/>
      <ellipse id="Ellipse_235" data-name="Ellipse 235" class="cls-13" cx="1.158" cy="1.158" rx="1.158" ry="1.158" transform="translate(28.683 20.158)"/>
      <ellipse id="Ellipse_236" data-name="Ellipse 236" class="cls-13" cx="1.158" cy="1.158" rx="1.158" ry="1.158" transform="translate(35.631 20.158)"/>
      <text id="_6_7" data-name="6+7" class="cls-14" transform="translate(126.89 74.472)"><tspan x="0" y="0">6+7</tspan></text>
      <text id="_1_1_2_3_6" data-name="1×1×2×3 = 6" class="cls-15" transform="translate(117.307 46.37)"><tspan x="0" y="0">1×1×2×3 = 6</tspan></text>
      <text id="_72-70_2" data-name="72-70 = 2" class="cls-15" transform="translate(127.954 36.787)"><tspan x="0" y="0">72-70 = 2</tspan></text>
      <g id="Group_1940" data-name="Group 1940" transform="translate(147.655 16.74)">
        <g id="Group_1939" data-name="Group 1939" transform="translate(0 0)">
          <path id="Path_9592" data-name="Path 9592" class="cls-16" d="M1.1,1.245A3.233,3.233,0,0,1,3.425.3a3.27,3.27,0,0,1,0,6.541A3.124,3.124,0,0,1,.3,4.152" transform="translate(-0.082 -0.227)"/>
          <g id="Group_1938" data-name="Group 1938">
            <path id="Path_9593" data-name="Path 9593" class="cls-17" d="M1.935.736A2.93,2.93,0,0,1,3.534.3a3.27,3.27,0,0,1,0,6.541A3.013,3.013,0,0,1,.7,5.024" transform="translate(-0.191 -0.227)"/>
            <g id="Group_1936" data-name="Group 1936" transform="translate(1.017)">
              <path id="Path_9594" data-name="Path 9594" class="cls-18" d="M2.563,1.145,1.4,1.217,1.909.2Z" transform="translate(-1.4 -0.2)"/>
            </g>
            <g id="Group_1937" data-name="Group 1937" transform="translate(0 3.924)">
              <path id="Path_9595" data-name="Path 9595" class="cls-18" d="M1.163,6.4.218,5.6,0,6.763Z" transform="translate(0 -5.6)"/>
            </g>
          </g>
        </g>
        <path id="Path_9596" data-name="Path 9596" class="cls-19" d="M5.735,5.034,4.5,4.38V2.2" transform="translate(-1.23 -0.747)"/>
      </g>
      <g id="Group_1947" data-name="Group 1947">
        <g id="Ellipse_250" data-name="Ellipse 250" class="cls-4" transform="translate(76.256 9.148)">
          <circle class="cls-22" cx="2" cy="2" r="2"/>
          <circle class="cls-23" cx="2" cy="2" r="1.5"/>
        </g>
        <g id="Ellipse_251" data-name="Ellipse 251" class="cls-4" transform="translate(85.256 9.148)">
          <circle class="cls-22" cx="2" cy="2" r="2"/>
          <circle class="cls-23" cx="2" cy="2" r="1.5"/>
        </g>
        <g id="Ellipse_252" data-name="Ellipse 252" class="cls-20" transform="translate(94.256 9.148)">
          <circle class="cls-22" cx="2" cy="2" r="2"/>
          <circle class="cls-23" cx="2" cy="2" r="1.5"/>
        </g>
      </g>
      <path id="Path_9612" data-name="Path 9612" class="cls-21" d="M646.916,1496.848a9.6,9.6,0,0,1-9.49,9.722H482.69c16.135-9.316,164.227-43.243,164.227-314.548v304.826Z" transform="translate(-472.104 -1182.3)"/>
      <path id="Path_9613" data-name="Path 9613" class="cls-21" d="M630.112,1465.658a8.618,8.618,0,0,1-8.519,8.727H482.69c14.484-8.363,147.423-38.818,147.423-282.363v273.635Z" transform="translate(-455.3 -1150.115)"/>
    </g>
    <rect id="Rectangle_898" data-name="Rectangle 898" class="cls-16" width="152" height="21" transform="translate(981 5743)"/>
  </g>
</svg>
