<svg xmlns="http://www.w3.org/2000/svg" viewBox="0 0 341.691 275.602">
  <defs>
    <style>
      .cls-1, .cls-6, .cls-9 {
        fill: #717071;
      }

      .cls-1 {
        font-size: 14px;
        font-family: YuGothicUI-Regular, Yu Gothic UI;
        letter-spacing: 0.1em;
      }

      .cls-2 {
        font-family: SegoeUI, Segoe UI;
      }

      .cls-3, .cls-4, .cls-5 {
        fill: none;
        stroke-miterlimit: 10;
      }

      .cls-3, .cls-5 {
        stroke: #717071;
      }

      .cls-3 {
        stroke-width: 0.565px;
      }

      .cls-4 {
        stroke: #eeb017;
      }

      .cls-4, .cls-5 {
        stroke-linecap: round;
        stroke-width: 1.413px;
      }

      .cls-7 {
        fill: #eeb017;
      }

      .cls-8 {
        fill: #595757;
      }

      .cls-9 {
        font-size: 12.79px;
        font-family: MicrosoftJhengHeiUIRegular, Microsoft JhengHei UI;
      }
    </style>
  </defs>
  <g id="_010" data-name="010" transform="translate(-1098.809 -1855.313)">
    <text id="抗噪前" class="cls-1" transform="translate(1136.657 2085.671)"><tspan x="0" y="15">抗噪前</tspan></text>
    <text id="抗噪後" class="cls-1" transform="translate(1136.657 2060.217)"><tspan x="0" y="15">抗噪後</tspan></text>
    <text id="環境音分貝50_dB" data-name="環境音分貝50 dB" class="cls-1" transform="translate(1124.292 2111.915)"><tspan x="0" y="15">環境音分貝</tspan><tspan class="cls-2" y="15">50 dB</tspan></text>
    <path id="Path_19529" data-name="Path 19529" class="cls-3" d="M1455.4,4989.3v-3.1m-38.2,3.1v-3.1m-38.3,3.1v-3.1m-38.3,3.1v-3.1m-38.2,3.1v-3.1m-38.3,3.1v-3.1m-38.3,3.1v-3.1m-38.3,3.1v-3.1m-38.2,3.1v-3.1m0,3.1h306.2" transform="translate(-21 -2963)"/>
    <path id="Path_19530" data-name="Path 19530" class="cls-3" d="M1149.3,4867.1h7.6m-7.6,40.8h7.6m-7.6,40.7h7.6m-7.6,40.7h7.6m-7.6,0V4867.1" transform="translate(-21 -2963)"/>
    <line id="Line_500" data-name="Line 500" class="cls-4" x1="38.3" y1="6.1" transform="translate(1377 1989.7)"/>
    <line id="Line_501" data-name="Line 501" class="cls-4" x1="38.2" y1="6.1" transform="translate(1338.8 1983.6)"/>
    <line id="Line_502" data-name="Line 502" class="cls-4" x1="38.3" y1="8.2" transform="translate(1300.5 1975.4)"/>
    <line id="Line_503" data-name="Line 503" class="cls-4" x1="38.3" y1="5.1" transform="translate(1262.2 1970.3)"/>
    <line id="Line_504" data-name="Line 504" class="cls-4" x1="38.3" y1="9.1" transform="translate(1223.9 1961.2)"/>
    <line id="Line_505" data-name="Line 505" class="cls-4" x1="38.2" y1="6.1" transform="translate(1185.7 1955.1)"/>
    <line id="Line_506" data-name="Line 506" class="cls-4" x1="38.3" y1="10.2" transform="translate(1147.4 1944.9)"/>
    <line id="Line_507" data-name="Line 507" class="cls-5" x1="38.3" y1="10.2" transform="translate(1377 1944.9)"/>
    <line id="Line_508" data-name="Line 508" class="cls-5" x1="38.2" y1="8.2" transform="translate(1338.8 1936.7)"/>
    <line id="Line_509" data-name="Line 509" class="cls-5" x1="38.3" y1="4.1" transform="translate(1300.5 1932.6)"/>
    <line id="Line_510" data-name="Line 510" class="cls-5" x1="38.3" y1="4" transform="translate(1262.2 1928.6)"/>
    <line id="Line_511" data-name="Line 511" class="cls-5" x1="38.3" y1="2.1" transform="translate(1223.9 1926.5)"/>
    <line id="Line_512" data-name="Line 512" class="cls-5" x1="38.2" y1="4" transform="translate(1185.7 1922.5)"/>
    <line id="Line_513" data-name="Line 513" class="cls-5" x1="38.3" y1="4.1" transform="translate(1147.4 1918.4)"/>
    <rect id="Rectangle_1348" data-name="Rectangle 1348" class="cls-6" width="7.1" height="7.5" transform="translate(1124.3 2092.6)"/>
    <rect id="Rectangle_1349" data-name="Rectangle 1349" class="cls-7" width="7.1" height="7.1" transform="translate(1124.3 2067.9)"/>
    <path id="Path_19531" data-name="Path 19531" class="cls-8" d="M1182.2,4999.3a1.346,1.346,0,0,0-1.3,1,7.752,7.752,0,0,0-.5,3c0,2.6.6,4,1.8,4a1.346,1.346,0,0,0,1.3-1,7.752,7.752,0,0,0,.5-3,7.2,7.2,0,0,0-.5-2.9c-.3-.8-.8-1.1-1.3-1.1m0,8.8a1.922,1.922,0,0,1-1.8-1.2,11.1,11.1,0,0,1,0-7.2,1.95,1.95,0,0,1,3.6,0,6.954,6.954,0,0,1,.7,3.6,7.2,7.2,0,0,1-.7,3.6,2.138,2.138,0,0,1-1.8,1.2" transform="translate(-21 -2963)"/>
    <path id="Path_19532" data-name="Path 19532" class="cls-8" d="M1185.5,5007.2a.764.764,0,0,1,.2-.5.4.4,0,0,1,.4-.2.714.714,0,0,1,.4,1.2.4.4,0,0,1-.4.2.758.758,0,0,1-.4-.2.588.588,0,0,1-.2-.5" transform="translate(-21 -2963)"/>
    <path id="Path_19533" data-name="Path 19533" class="cls-8" d="M1188.3,5000.8h-.7a2.726,2.726,0,0,1,.8-1.7,1.816,1.816,0,0,1,1.4-.6,1.747,1.747,0,0,1,1.4.7,2.523,2.523,0,0,1,.6,1.7,2.323,2.323,0,0,1-.9,1.9,2.411,2.411,0,0,1,1,1,3.194,3.194,0,0,1,.3,1.4,3.139,3.139,0,0,1-.7,2.1,2.271,2.271,0,0,1-1.8.9,1.99,1.99,0,0,1-1.6-.7,3.674,3.674,0,0,1-.8-2h.7a1.982,1.982,0,0,0,.6,1.3,1.366,1.366,0,0,0,1.1.4,1.426,1.426,0,0,0,1.2-.6,2.456,2.456,0,0,0,.5-1.5,2.167,2.167,0,0,0-.5-1.4,2.58,2.58,0,0,0-1.6-.6v-.8a1.547,1.547,0,0,0,1.7-1.5,1.5,1.5,0,0,0-.4-1.1,1.213,1.213,0,0,0-1.8,0,3.847,3.847,0,0,0-.5,1.1" transform="translate(-21 -2963)"/>
    <path id="Path_19534" data-name="Path 19534" class="cls-8" d="M1220.7,4999.3a1.346,1.346,0,0,0-1.3,1,7.752,7.752,0,0,0-.5,3c0,2.6.6,4,1.8,4a1.346,1.346,0,0,0,1.3-1,7.752,7.752,0,0,0,.5-3,7.2,7.2,0,0,0-.5-2.9c-.3-.7-.7-1.1-1.3-1.1m0,8.8a1.922,1.922,0,0,1-1.8-1.2,11.1,11.1,0,0,1,0-7.2,1.95,1.95,0,0,1,3.6,0,6.954,6.954,0,0,1,.7,3.6,7.2,7.2,0,0,1-.7,3.6,1.922,1.922,0,0,1-1.8,1.2" transform="translate(-21 -2963)"/>
    <path id="Path_19535" data-name="Path 19535" class="cls-8" d="M1224.1,5007.2a.764.764,0,0,1,.2-.5.4.4,0,0,1,.4-.2.519.519,0,0,1,.4.2.725.725,0,0,1,0,1,.4.4,0,0,1-.4.2.519.519,0,0,1-.4-.2c-.2-.1-.2-.2-.2-.5" transform="translate(-21 -2963)"/>
    <path id="Path_19536" data-name="Path 19536" class="cls-8" d="M1230,5005.2a2.3,2.3,0,0,0-.4-1.4,1.308,1.308,0,0,0-2.2,0,2.115,2.115,0,0,0-.4,1.4,2.3,2.3,0,0,0,.4,1.4,1.308,1.308,0,0,0,2.2,0,2.89,2.89,0,0,0,.4-1.4m-.8-6.8.6.5-2,3.8a2.352,2.352,0,0,1,.8-.2,1.873,1.873,0,0,1,1.4.8,3.174,3.174,0,0,1,.6,2,2.883,2.883,0,0,1-.7,2,2,2,0,0,1-3.2,0,3.174,3.174,0,0,1-.6-2,5.026,5.026,0,0,1,.2-1.2,4.822,4.822,0,0,1,.7-1.5Z" transform="translate(-21 -2963)"/>
    <path id="Path_19537" data-name="Path 19537" class="cls-8" d="M1259,4998.7h1.4v9.1h-.7v-8.2h-1.1Z" transform="translate(-21 -2963)"/>
    <path id="Path_19538" data-name="Path 19538" class="cls-8" d="M1263.2,5007.2a.764.764,0,0,1,.2-.5.4.4,0,0,1,.4-.2.519.519,0,0,1,.4.2.725.725,0,0,1,0,1,.4.4,0,0,1-.4.2.519.519,0,0,1-.4-.2.588.588,0,0,1-.2-.5" transform="translate(-21 -2963)"/>
    <path id="Path_19539" data-name="Path 19539" class="cls-8" d="M1265.9,5001.5h-.7a4.175,4.175,0,0,1,.7-2.3,2.029,2.029,0,0,1,3.3-.1,3.077,3.077,0,0,1,.6,1.9,2.934,2.934,0,0,1-.4,1.6,6.9,6.9,0,0,1-1.1,1.7l-1.8,2.5h3.3v.9h-4.9l2.8-3.8a12.136,12.136,0,0,0,1-1.6,2.768,2.768,0,0,0,.3-1.3,2.105,2.105,0,0,0-.5-1.3,1.308,1.308,0,0,0-2.2,0,5.251,5.251,0,0,0-.4,1.8" transform="translate(-21 -2963)"/>
    <path id="Path_19540" data-name="Path 19540" class="cls-8" d="M1296.9,5001.9h-.7a4.175,4.175,0,0,1,.7-2.3,2.029,2.029,0,0,1,3.3-.1,3.077,3.077,0,0,1,.6,1.9,2.934,2.934,0,0,1-.4,1.6,6.9,6.9,0,0,1-1.1,1.7l-1.8,2.5h3.4v.9H1296l2.8-3.8a12.136,12.136,0,0,0,1-1.6,2.768,2.768,0,0,0,.3-1.3,2.105,2.105,0,0,0-.5-1.3,1.382,1.382,0,0,0-1.1-.6,1.255,1.255,0,0,0-1.1.6,5.334,5.334,0,0,0-.5,1.8" transform="translate(-21 -2963)"/>
    <path id="Path_19541" data-name="Path 19541" class="cls-8" d="M1301.9,5007.6a.694.694,0,0,1,.6-.7.519.519,0,0,1,.4.2.725.725,0,0,1,0,1,.4.4,0,0,1-.4.2.519.519,0,0,1-.4-.2c-.2-.1-.2-.2-.2-.5" transform="translate(-21 -2963)"/>
    <path id="Path_19542" data-name="Path 19542" class="cls-8" d="M1307.1,5005.2v-3.8l-2.1,3.8Zm.5-6.4h.1v6.4h.9v.9h-.9v2.1h-.7v-2.1h-3.5Z" transform="translate(-21 -2963)"/>
    <path id="Path_19543" data-name="Path 19543" class="cls-8" d="M1376.4,5005.2v-3.8l-2.1,3.8Zm.6-6.4h.1v6.4h.9v.9h-.9v2.1h-.7v-2.1h-3.5Z" transform="translate(-21 -2963)"/>
    <path id="Path_19544" data-name="Path 19544" class="cls-8" d="M1378.8,5007.6a.694.694,0,0,1,.6-.7.519.519,0,0,1,.4.2.725.725,0,0,1,0,1,.4.4,0,0,1-.4.2.519.519,0,0,1-.4-.2.588.588,0,0,1-.2-.5" transform="translate(-21 -2963)"/>
    <path id="Path_19545" data-name="Path 19545" class="cls-8" d="M1384.5,5001.2a1.5,1.5,0,0,0-.4-1.1,1.45,1.45,0,0,0-2,0,1.713,1.713,0,0,0,0,2.2,1.25,1.25,0,0,0,2,0,2.1,2.1,0,0,0,.4-1.1m.3,4.4a2.388,2.388,0,0,0-.5-1.4,1.5,1.5,0,0,0-2.4,0,2.21,2.21,0,0,0,0,2.8,1.346,1.346,0,0,0,1.2.5,1.761,1.761,0,0,0,1.3-.6,2.226,2.226,0,0,0,.4-1.3m-.7-2.4a2.81,2.81,0,0,1,1.4,2.4,2.724,2.724,0,0,1-.7,2,2.426,2.426,0,0,1-3.6,0,3.221,3.221,0,0,1-.7-2,2.851,2.851,0,0,1,1.4-2.5,2.306,2.306,0,0,1-1.1-2,2.716,2.716,0,0,1,.6-1.7,1.957,1.957,0,0,1,3,0,2.523,2.523,0,0,1,.6,1.7,1.889,1.889,0,0,1-.9,2.1" transform="translate(-21 -2963)"/>
    <path id="Path_19546" data-name="Path 19546" class="cls-8" d="M1336.2,5001.7a2.3,2.3,0,0,0,.4,1.4,1.308,1.308,0,0,0,2.2,0,2.115,2.115,0,0,0,.4-1.4,2.3,2.3,0,0,0-.4-1.4,1.308,1.308,0,0,0-2.2,0,2.116,2.116,0,0,0-.4,1.4m.7,6.8-.6-.5,2-3.8a2.352,2.352,0,0,1-.8.2,1.9,1.9,0,0,1-1.5-.8,3.174,3.174,0,0,1-.6-2,2.724,2.724,0,0,1,.7-2,2,2,0,0,1,3.2,0,3.174,3.174,0,0,1,.6,2,5.852,5.852,0,0,1-.2,1.3,5.346,5.346,0,0,1-.6,1.4Z" transform="translate(-21 -2963)"/>
    <path id="Path_19547" data-name="Path 19547" class="cls-8" d="M1341.1,5007.6a.694.694,0,0,1,.6-.7.519.519,0,0,1,.4.2.725.725,0,0,1,0,1,.4.4,0,0,1-.4.2.519.519,0,0,1-.4-.2.588.588,0,0,1-.2-.5" transform="translate(-21 -2963)"/>
    <path id="Path_19548" data-name="Path 19548" class="cls-8" d="M1347,5005.6a2.3,2.3,0,0,0-.4-1.4,1.308,1.308,0,0,0-2.2,0,2.115,2.115,0,0,0-.4,1.4,2.3,2.3,0,0,0,.4,1.4,1.308,1.308,0,0,0,2.2,0,2.889,2.889,0,0,0,.4-1.4m-.7-6.8.6.5-2,3.8a2.352,2.352,0,0,1,.8-.2,1.873,1.873,0,0,1,1.4.8,3.174,3.174,0,0,1,.6,2,2.883,2.883,0,0,1-.7,2,2,2,0,0,1-3.2,0,3.174,3.174,0,0,1-.6-2,5.026,5.026,0,0,1,.2-1.2,4.822,4.822,0,0,1,.7-1.5Z" transform="translate(-21 -2963)"/>
    <path id="Path_19549" data-name="Path 19549" class="cls-8" d="M1409.2,4999.1h1.4v9.1h-.7V5000h-1.1Z" transform="translate(-21 -2963)"/>
    <path id="Path_19550" data-name="Path 19550" class="cls-8" d="M1413.7,5001.7a2.3,2.3,0,0,0,.4,1.4,1.308,1.308,0,0,0,2.2,0,2.115,2.115,0,0,0,.4-1.4,2.3,2.3,0,0,0-.4-1.4,1.308,1.308,0,0,0-2.2,0,2.89,2.89,0,0,0-.4,1.4m.8,6.8-.6-.5,2-3.8a2.352,2.352,0,0,1-.8.2,1.9,1.9,0,0,1-1.5-.8,3.174,3.174,0,0,1-.6-2,2.724,2.724,0,0,1,.7-2,2,2,0,0,1,3.2,0,3.174,3.174,0,0,1,.6,2,5.852,5.852,0,0,1-.2,1.3,5.346,5.346,0,0,1-.6,1.4Z" transform="translate(-21 -2963)"/>
    <path id="Path_19551" data-name="Path 19551" class="cls-8" d="M1418.6,5007.6a.694.694,0,0,1,.6-.7.519.519,0,0,1,.4.2.725.725,0,0,1,0,1,.4.4,0,0,1-.4.2.519.519,0,0,1-.4-.2.588.588,0,0,1-.2-.5" transform="translate(-21 -2963)"/>
    <path id="Path_19552" data-name="Path 19552" class="cls-8" d="M1421.3,5001.9h-.7a4.175,4.175,0,0,1,.7-2.3,2.029,2.029,0,0,1,3.3-.1,3.077,3.077,0,0,1,.6,1.9,2.934,2.934,0,0,1-.4,1.6,6.9,6.9,0,0,1-1.1,1.7l-1.8,2.5h3.3v.9h-4.9l2.8-3.8a12.136,12.136,0,0,0,1-1.6,2.768,2.768,0,0,0,.3-1.3,2.105,2.105,0,0,0-.5-1.3,1.308,1.308,0,0,0-2.2,0,5.256,5.256,0,0,0-.4,1.8" transform="translate(-21 -2963)"/>
    <path id="Path_19553" data-name="Path 19553" class="cls-8" d="M1444.7,5009.5h-.7a2.726,2.726,0,0,1,.8-1.7,1.816,1.816,0,0,1,1.4-.6,1.747,1.747,0,0,1,1.4.7,2.523,2.523,0,0,1,.6,1.7,2.323,2.323,0,0,1-.9,1.9,2.411,2.411,0,0,1,1,1,3.194,3.194,0,0,1,.3,1.4,3.139,3.139,0,0,1-.7,2.1,2.271,2.271,0,0,1-1.8.9,1.99,1.99,0,0,1-1.6-.7,3.674,3.674,0,0,1-.8-2h.7a1.982,1.982,0,0,0,.6,1.3,1.366,1.366,0,0,0,1.1.4,1.426,1.426,0,0,0,1.2-.6,2.456,2.456,0,0,0,.5-1.5,2.167,2.167,0,0,0-.5-1.4,2.58,2.58,0,0,0-1.6-.6v-.8a1.547,1.547,0,0,0,1.7-1.5,1.5,1.5,0,0,0-.4-1.1,1.222,1.222,0,0,0-.9-.4,1.086,1.086,0,0,0-.9.4c-.1.3-.3.6-.5,1.1" transform="translate(-21 -2972)"/>
    <path id="Path_19554" data-name="Path 19554" class="cls-8" d="M1452.8,5009.6a1.5,1.5,0,0,0-.4-1.1,1.45,1.45,0,0,0-2,0,1.713,1.713,0,0,0,0,2.2,1.25,1.25,0,0,0,2,0,2.1,2.1,0,0,0,.4-1.1m.3,4.4a2.388,2.388,0,0,0-.5-1.4,1.5,1.5,0,0,0-2.4,0,2.21,2.21,0,0,0,0,2.8,1.346,1.346,0,0,0,1.2.5,1.761,1.761,0,0,0,1.3-.6,2.5,2.5,0,0,0,.4-1.3m-.6-2.5a2.81,2.81,0,0,1,1.4,2.4,2.724,2.724,0,0,1-.7,2,2.342,2.342,0,0,1-1.8.8,2.5,2.5,0,0,1-1.8-.8,3.221,3.221,0,0,1-.7-2,2.851,2.851,0,0,1,1.4-2.5,2.306,2.306,0,0,1-1.1-2,2.716,2.716,0,0,1,.6-1.7,1.957,1.957,0,0,1,3,0,2.523,2.523,0,0,1,.6,1.7,2.129,2.129,0,0,1-.9,2.1" transform="translate(-21 -2972)"/>
    <path id="Path_19555" data-name="Path 19555" class="cls-8" d="M1454.7,5016a.694.694,0,0,1,.6-.7.519.519,0,0,1,.4.2.707.707,0,0,1-.4,1.2.519.519,0,0,1-.4-.2c-.2-.1-.2-.3-.2-.5" transform="translate(-21 -2972)"/>
    <path id="Path_19556" data-name="Path 19556" class="cls-8" d="M1459.9,5013.6v-3.8l-2.1,3.8Zm.6-6.4h.1v6.4h.9v.9h-.9v2.1h-.7v-2.1h-3.5Z" transform="translate(-21 -2972)"/>
    <text id="測試草模消噪效果測試" class="cls-1" transform="translate(1102.739 1855.313)"><tspan x="0" y="15">測試草模消噪效果測試</tspan></text>
    <text id="_100" data-name="100" class="cls-9" transform="translate(1098.808 1906.792)"><tspan x="0" y="0">100</tspan></text>
    <text id="_80" data-name="80" class="cls-9" transform="translate(1104.749 1948.052)"><tspan x="0" y="0">80</tspan></text>
    <text id="_60" data-name="60" class="cls-9" transform="translate(1104.749 1989.312)"><tspan x="0" y="0">60</tspan></text>
    <text id="_dB_" data-name="(dB)" class="cls-9" transform="translate(1099.048 2015.17)"><tspan x="0" y="0">(dB)</tspan></text>
    <text id="_m_" data-name="(m)" class="cls-9" transform="translate(1125.882 2042.826)"><tspan x="0" y="0">(m)</tspan></text>
  </g>
</svg>
