<svg xmlns="http://www.w3.org/2000/svg" xmlns:xlink="http://www.w3.org/1999/xlink" viewBox="0 0 400 300">
  <defs>
    <style>
      .cls-1 {
        fill: #f1edea;
      }

      .cls-2 {
        fill: rgba(241,237,234,0.35);
        opacity: 0.67;
      }

      .cls-3 {
        fill: #deca7f;
        opacity: 0.6;
      }

      .cls-4 {
        fill: #e8d078;
      }

      .cls-5 {
        fill: #ffe5aa;
      }

      .cls-6 {
        fill: #f0df96;
      }

      .cls-7 {
        fill: #ebd888;
      }

      .cls-8 {
        opacity: 0.3;
      }

      .cls-9 {
        clip-path: url(#clip-path);
      }

      .cls-10 {
        fill: #8d8364;
      }

      .cls-11 {
        opacity: 0.8;
      }

      .cls-12 {
        clip-path: url(#clip-path-2);
      }

      .cls-13 {
        fill: #6b6449;
      }

      .cls-14 {
        fill: #bababa;
      }

      .cls-15 {
        fill: #fff;
      }

      .cls-16 {
        fill: #d4d4d4;
      }

      .cls-17 {
        fill: #c5c5c5;
      }

      .cls-18 {
        fill: #949494;
        opacity: 0.5;
      }

      .cls-19 {
        fill: #a1a1a1;
      }

      .cls-20 {
        fill: #a4a29e;
      }

      .cls-21 {
        fill: #a7a39b;
      }

      .cls-22 {
        fill: #aaa497;
      }

      .cls-23 {
        fill: #ada594;
      }

      .cls-24 {
        fill: #b0a691;
      }

      .cls-25 {
        fill: #b3a88e;
      }

      .cls-26 {
        fill: #b6a98a;
      }

      .cls-27 {
        fill: #b9aa87;
      }

      .cls-28 {
        fill: #bcab84;
      }

      .cls-29 {
        fill: #bfac81;
      }

      .cls-30 {
        fill: #c3ad80;
      }

      .cls-31 {
        fill: #c6ae80;
      }

      .cls-32 {
        fill: #c9af80;
      }

      .cls-33 {
        fill: #ccb080;
      }

      .cls-34 {
        fill: #cfb17c;
      }

      .cls-35 {
        fill: #d2b379;
      }

      .cls-36 {
        fill: #d5b476;
      }

      .cls-37 {
        fill: #d8b573;
      }

      .cls-38 {
        fill: #dbb66f;
      }

      .cls-39 {
        fill: #deb76c;
      }

      .cls-40 {
        fill: #e1b869;
      }

      .cls-41 {
        fill: #e1b96a;
      }

      .cls-42 {
        fill: #e2ba6a;
      }

      .cls-43 {
        fill: #e2bb6b;
      }

      .cls-44 {
        fill: #e2bd6c;
      }

      .cls-45 {
        fill: #e3be6d;
      }

      .cls-46 {
        fill: #e3bf6d;
      }

      .cls-47 {
        fill: #e3c06e;
      }

      .cls-48 {
        fill: #e4c16f;
      }

      .cls-49 {
        fill: #e4c26f;
      }

      .cls-50 {
        fill: #e4c370;
      }

      .cls-51 {
        fill: #e5c571;
      }

      .cls-52 {
        fill: #e5c672;
      }

      .cls-53 {
        fill: #e5c772;
      }

      .cls-54 {
        fill: #e6c873;
      }

      .cls-55 {
        fill: #e6c974;
      }

      .cls-56 {
        fill: #e6ca74;
      }

      .cls-57 {
        fill: #e7cb75;
      }

      .cls-58 {
        fill: #e7cd76;
      }

      .cls-59 {
        fill: #e7ce77;
      }

      .cls-60 {
        fill: #e8cf77;
      }

      .cls-61 {
        fill: #e5ce7b;
      }

      .cls-62 {
        fill: #e1cc7d;
      }

      .cls-63 {
        fill: #dec980;
      }

      .cls-64 {
        fill: #dac780;
      }

      .cls-65 {
        fill: #d7c580;
      }

      .cls-66 {
        fill: #d4c380;
      }

      .cls-67 {
        fill: #d0c080;
      }

      .cls-68 {
        fill: #cdbe80;
      }

      .cls-69 {
        fill: #cabc83;
      }

      .cls-70 {
        fill: #c6ba85;
      }

      .cls-71 {
        fill: #c3b788;
      }

      .cls-72 {
        fill: #bfb58a;
      }

      .cls-73 {
        fill: #bcb38d;
      }

      .cls-74 {
        fill: #b9b18f;
      }

      .cls-75 {
        fill: #b5ae92;
      }

      .cls-76 {
        fill: #b2ac94;
      }

      .cls-77 {
        fill: #afaa97;
      }

      .cls-78 {
        fill: #aba899;
      }

      .cls-79 {
        fill: #a8a59c;
      }

      .cls-80 {
        fill: #a4a39e;
      }

      .cls-81 {
        filter: url(#Path_20555);
      }
    </style>
    <filter id="Path_20555" x="22.324" y="95.559" width="355.416" height="191.145" filterUnits="userSpaceOnUse">
      <feOffset dx="4" dy="8" input="SourceAlpha"/>
      <feGaussianBlur stdDeviation="7.5" result="blur"/>
      <feFlood flood-opacity="0.271"/>
      <feComposite operator="in" in2="blur"/>
      <feComposite in="SourceGraphic"/>
    </filter>
    <clipPath id="clip-path">
      <path id="Path_20485" data-name="Path 20485" d="M81,50.451,121.931,15.7l70.353,26.475L151.41,76.869Z" transform="translate(-81 -15.7)"/>
    </clipPath>
    <clipPath id="clip-path-2">
      <path id="Path_20545" data-name="Path 20545" d="M94.9,54.452,127.327,26.9,184.7,48.5l-32.427,27.5Z" transform="translate(-94.9 -26.9)"/>
    </clipPath>
  </defs>
  <g id="_024" data-name="024" transform="translate(-413 -11814)">
    <rect id="Rectangle_1444" data-name="Rectangle 1444" class="cls-1" width="400" height="300" transform="translate(413 11814)"/>
    <g class="cls-81" transform="matrix(1, 0, 0, 1, 413, 11814)">
      <path id="Path_20555-2" data-name="Path 20555" class="cls-2" d="M310.416,100.829,208.455,146.145,108.193,101.962,118.955,94.6l-14.728-2.832L100.262,98,0,53.813,98,0Z" transform="translate(40.82 110.06)"/>
    </g>
    <g id="Group_4486" data-name="Group 4486" transform="translate(463.711 11878.927)">
      <path id="Path_20420" data-name="Path 20420" class="cls-3" d="M313.3,109.5" transform="translate(-135.688 -47.424)"/>
      <path id="Path_20421" data-name="Path 20421" class="cls-4" d="M100.456,88.154,0,43.992,100.739,0l100.8,43.992Z"/>
      <path id="Path_20422" data-name="Path 20422" class="cls-5" d="M100.543,165.914.2,121.979V78.1l100.343,43.879Z" transform="translate(-0.087 -33.825)"/>
      <path id="Path_20423" data-name="Path 20423" class="cls-6" d="M177.2,165.7l102.043-44.786L278.28,77.6,177.2,121.762Z" transform="translate(-76.744 -33.608)"/>
      <path id="Path_20424" data-name="Path 20424" class="cls-7" d="M240.2,115.617v8.56l12.982,4.932s22.279-14.116,22.336-14.116c.057-.057.737-15.136.567-15.193S240.2,115.617,240.2,115.617Z" transform="translate(-104.029 -43.223)"/>
      <path id="Path_20425" data-name="Path 20425" class="cls-3" d="M272.937,97.072c-4.252-2.381-10.261-3.572-16.894-3.572-12.812,0-23.243,5.5-23.243,12.3,0,2.664,1.644,5.159,4.422,7.2" transform="translate(-100.824 -40.494)"/>
      <g id="Group_4492" data-name="Group 4492" class="cls-8" transform="translate(45.919 8.9)">
        <g id="Group_4491" data-name="Group 4491">
          <g id="Group_4490" data-name="Group 4490">
            <g id="Group_4489" data-name="Group 4489" class="cls-9">
              <g id="Group_4488" data-name="Group 4488" transform="translate(12.359 11.622)">
                <g id="Group_4487" data-name="Group 4487">
                  <g id="Group_4486-2" data-name="Group 4486">
                    <path id="Path_20426" data-name="Path 20426" class="cls-10" d="M139.131,74.855c.227-.4.227-.4,1.191-.34h1.134a.914.914,0,0,1-.17.51c-.113.17-.964.17-1.3.057h0c-.057,0-.057,0-.113-.057a1.958,1.958,0,0,1-.737-.17m-7.6-3.912a2.316,2.316,0,0,1,2.041-.4c-.794.17-1.417.283-2.041.4m1.474-2.608c0-.057-.057-.057-.057-.113l.794-.283h.17c-.057.113,0,.227-.17.34a4.067,4.067,0,0,0-.737.057m-2.494-4.819c.057-.283.17-.624.227-.907h.51a1.569,1.569,0,0,0,.51-.057c0,.057.057.17,0,.227a5.176,5.176,0,0,1-1.247.737m-.113-3.458h0c-.057-.113-.113-.17-.113-.283a.43.43,0,0,1,.113-.227h.227c.113.057.227.17.17.227a3.866,3.866,0,0,1-.4.283h0m17.971,11.565c.34-.113.567-.227.794-.283.283.113.567.227.907.34.057-.057.17-.057.227-.113-.567-.34-1.191-.68-1.757-1.02.454-.113.907-.283,1.417-.4.624-.113,1.3-.17,1.927-.227.454-.057.907-.17,1.3-.227.113,0,.17-.057.227-.057a18.115,18.115,0,0,0,3.061-.454h.113l.34.51a1.382,1.382,0,0,0-1.191.68c-.283.454-.624.85-.907,1.247a.661.661,0,0,1-.4.113,3.318,3.318,0,0,1-.737.113,2.925,2.925,0,0,1-1.871-.057c-.113-.057-.17-.057-.283-.113-.057,0-.057-.057-.113-.057a5.354,5.354,0,0,1-.51-.17,10.435,10.435,0,0,1-.51,1.417c-.283.51-1.531.85-2.664.737a4.05,4.05,0,0,0-1.134.113c-.227,0-.51.057-.737.057h0c-.057-.057-.113-.17-.057-.227.17-.283.4-.567.624-.907a3.613,3.613,0,0,0-.4.113,3.341,3.341,0,0,1-.454-.227c.567-.34.057-.51-.34-.737h0c-.51-.34-.227-.624.737-.68a8.72,8.72,0,0,0-.737.68h0c.227-.057.51-.17.737-.227l.34.34c.4-.17.624-.283.907-.4h-.057c-.057,0-.057,0-.113-.057a4.6,4.6,0,0,1-.624.17V71.34h.68c.4.057.794.057,1.191.113.113-.057.113,0,.057.17M127.34,57.791a7.363,7.363,0,0,1-.68-.794c.113.057.227.057.34.113.4.17.567.4.34.68m-4.2.907a1.189,1.189,0,0,1-.454-.34c-.454-.51-.964-1.077-1.417-1.587-.227-.283.4-.34.794-.4.51-.113,1.077-.227,1.587-.34a4.988,4.988,0,0,0,.85-.283,3.233,3.233,0,0,1,.737-.057c.17-.057.34-.17.51-.227a.565.565,0,0,1,.227.057.2.2,0,0,1,.113.057c0,.113-.113.17-.17.283-.227-.057-.4-.057-.624-.113.057.113.113.17.17.283.057.057,0,.17.113.227h.34a.719.719,0,0,0,.057.34c.283.283-.057.737.624,1.02a1.132,1.132,0,0,0,.51.113c-.794.227-1.361.454-1.984.624-.227.057-.454.17-.68.227a4.023,4.023,0,0,1-1.3.113m-.964-4.2c.057-.113.057-.17.113-.283l.454-.454c.227.17.4.283.4.4a.289.289,0,0,1-.227.283,2.771,2.771,0,0,1-.737.057M121.1,53.88c-.057-.057-.17-.057-.227-.113-.454-.283-.794-.624-1.247-.964a6.854,6.854,0,0,1,1.02-.283c.113,0,.227-.057.34,0l2.381.17a3.9,3.9,0,0,1,.737.113,3.7,3.7,0,0,1-2.268,1.134,1.431,1.431,0,0,1-.737-.057m.907-3.572v-.113c.227-.113.454-.17.68-.283h.17c-.057.113-.057.227-.17.34a2.336,2.336,0,0,1-.68.057m1.984-.624c-.283-.113-.227-.34-.51-.454-.057-.057.113-.227.283-.283a1.4,1.4,0,0,1,.68-.057,11.472,11.472,0,0,1,1.474.227c.113,0,.17.057.227.057a2.763,2.763,0,0,0,.4.17l-.68.17c-.17.057-.34.057-.567.113.057.057.113.057.283.17-.283-.057-.454-.057-.624-.113-.057.057-.057.17-.113.283-.113-.057-.227-.17-.283-.17h-.057a2.875,2.875,0,0,0-.51-.113m39.343,13.549c-.113-.057-.227-.17-.17-.227a8.045,8.045,0,0,1,1.02-.624,1.57,1.57,0,0,1,.51-.057h0c.113.057.113.113.113.17,0,.113-.057.227-.057.34.17,0,.34.057.567.057a2.336,2.336,0,0,0-.51.113c-.4.34-.907.17-1.417.113,0,.17,0,.17-.057.113M123.371,45.206c.057,0,.057-.057.113-.057h.907a.806.806,0,0,1,.113.34c-.057,0-.113.057-.17.057-.34-.113-.624-.227-.964-.34m6.746.794c.17-.113.283-.227.51-.4.283.057.567.057.964.113-.4.227-.68.454-1.02.68-.113-.17-.17-.283-.283-.454l-.17.057m.68-2.154a2.79,2.79,0,0,1,.794.057c.227.057.17.227-.113.454a1.456,1.456,0,0,0-.51.737c-.057.34-.737.283-1.077.454a7.081,7.081,0,0,0-.68.454c-.113.113-.34.283,0,.4.057,0,.057,0,.113.057-.454.227-1.3.454-.68.85.113,0,.227-.057.34-.057.057,0,.113.057.17.057a9.694,9.694,0,0,0-1.3.737,2.039,2.039,0,0,1-.51.283c-1.077.4-1.7-.057-2.494-.057l-.057-.057c1.871-.454,2.211-1.077,2.154-1.984,0-.113-.057-.17,0-.283.057-.4-.113-.794-.737-1.02a3.443,3.443,0,0,0-.964-.227,2.726,2.726,0,0,1,1.871-.283,7.227,7.227,0,0,0,1.134-.057,5.78,5.78,0,0,1,1.984-.227,4.016,4.016,0,0,0,.794-.057c-.057-.113-.17-.17-.227-.227m36.225,17.007a3.187,3.187,0,0,1-.4-.737c0-.113.227-.283.34-.454-.057,0-.17-.113-.34-.17l.113-.057a1.6,1.6,0,0,1,.454.057c-.68-.283,0-.454.34-.68.227-.17,0-.454.283-.567.454-.227.454-.4.4-.624,0-.113-.17-.227-.17-.34-.057-.113-.113-.227.057-.283a2.955,2.955,0,0,1,.794-.113,1.276,1.276,0,0,1,.68.057,2.763,2.763,0,0,0,.4.17,18.04,18.04,0,0,1,1.814.907c.113.057.057.227.057.34-.227.567-1.02,1.02-1.871,1.531a17.992,17.992,0,0,1-2.948.964M134.879,42.768c-.057,0-.113-.057-.17-.113-.227-.227-.51-.454-.737-.68-.17-.17,0-.283.4-.34,1.02-.113,1.984-.283,3-.4a2.845,2.845,0,0,1,.68.113c.057,0,.113.057.17.057.227.17.283.4.454.567,0,.283-.794.567-1.474.567a9.229,9.229,0,0,0-1.757.17.7.7,0,0,1-.567.057m31.747,12.3c-.057-.34-.283-.624-.17-.907s0-.454,0-.737c0-.4.85-.624,1.757-.51a7.522,7.522,0,0,1,1.191.17c.057,0,.113.057.17.057.227.113.454.227.737.34-.454.227-.964.454-1.417.737-.283.17-.51.4-.794.567a.846.846,0,0,1-.4.17,3.866,3.866,0,0,1-1.077.113m4.819-.454c-.4-.17-.51-.4-.227-.624a1.851,1.851,0,0,1,.68-.113l1.361.17a.806.806,0,0,1,.34.113c.057,0,.113.057.17.057a.2.2,0,0,1,.113.057h.057l-.68.17q-.51.17-1.191.34a.2.2,0,0,0-.113-.057c-.057,0-.057,0-.113-.057a.5.5,0,0,1-.4-.057m-14.229-6.746.113-.113a6.162,6.162,0,0,1,1.02.057h0c.057,0-.057.227-.113.283a.341.341,0,0,0-.227.057,3.278,3.278,0,0,0-.794-.283m16.214,5.953c0-.057-.057-.113-.057-.17.283-.057.567-.057.85-.113,0,.057.057.113.057.17l-.85.113m-16.894-8.277a2.506,2.506,0,0,0,1.134.113c-.057.17-.17.283-.17.4,0,.17-.737.51-1.247.567a1.58,1.58,0,0,1-.567-.057c-.17-.057-.227-.17-.17-.283,0-.17-.227-.283-.17-.454s.227-.283.4-.454c.17.057.454.057.567.113h.057c.057,0,.113.057.17.057M151.6,44.129c.34-.283.567-.51.737-.68h.227a1.677,1.677,0,0,1,.113.567s-.567.057-1.077.113m7.823,3.288c-.113-.057-.17-.17-.227-.227.68-.17,1.3-.4,1.984-.567a1.6,1.6,0,0,1,.737,0c.057.057.17.057.17.113a.611.611,0,0,1,.113.454c-.113.34-.4.4-1.134.34a6.161,6.161,0,0,0-1.02-.057,1.6,1.6,0,0,1-.624-.057m2.948-1.361c-.4-.17,0-.34.17-.51.227-.227.51-.227.907-.113-.283.227-.624.454-.907.68-.113,0-.17,0-.17-.057m5.386.4a.2.2,0,0,1-.113-.057c-.113-.113-.113-.283-.283-.4-.227-.17-.567-.34-.85-.51-.113-.057-.283-.17-.227-.283,0-.057.34-.113.454-.17a6.09,6.09,0,0,1,1.02,0,.208.208,0,0,1,.17.057c.17.057.283.113.227.17-.227.283,0,.4.4.567a.864.864,0,0,1,.51.283c.057.113-.057.34-.227.454a2.5,2.5,0,0,1-1.077-.113m10.2-1.984q-4.762.085-9.354.17a6.647,6.647,0,0,0-.283-.624q1.276-.17,2.381-.34c.68-.113,1.474-.227,1.531-.68-.737.567-1.7.4-2.664.4l1.02.17a9.128,9.128,0,0,1-2.835.283h0l.113.567a.341.341,0,0,1,.227.057c.057,0,.113.057.057.057-.17.227-.567.227-.964.227-.227,0-.454.057-.68.057a10.038,10.038,0,0,1-2.324.283,11.373,11.373,0,0,1-3.175-.34h-.057c-.113-.057-.283-.113-.4-.17-.4-.17-.794-.283-1.134-.454-.567-.283-1.191-.567-1.814-.85a.2.2,0,0,1-.113-.057c-.283-.113-.68-.227-1.077-.34.737-.227,1.3-.4,1.927-.567-.283,0-.624.057-.907.057-.794.113-1.587.227-2.324.34a4.135,4.135,0,0,1-.51-.624h.4a2.417,2.417,0,0,0-.68-.624c-.68-.283-.567-.68-.907-1.02a1.186,1.186,0,0,1-.227-.34c-.17-.454-.34-.85-.51-1.3-.737.113-1.247.17-1.757.283a1.413,1.413,0,0,0,.794.113.679.679,0,0,1,.624-.113.782.782,0,0,1,.227.17,4.9,4.9,0,0,1,.4.964,4.272,4.272,0,0,0,.34.737,9.415,9.415,0,0,1,.737.794c.227.34-.227.68-.907.68a12.331,12.331,0,0,0-1.474.057c-.567.057-1.134.113-1.644.17l-.057-.057a3.467,3.467,0,0,1,.68-.283.465.465,0,0,0-.4,0,1.92,1.92,0,0,1-1.587.17,2.455,2.455,0,0,1-.283-.057,2,2,0,0,1-1.191-.057,1.7,1.7,0,0,1-.454-.227,23.589,23.589,0,0,1-2.381-1.3,1.2,1.2,0,0,0-.4-.17c-.4-.17-.737-.113-1.417.17-.057.057-.113.057-.17.113-.737.283-1.474.567-2.1.85-.964-.454-1.814-.85-2.721-1.3,1.247-.17,2.494-.4,3.742-.567-.907.057-1.757.17-2.608.227a2.786,2.786,0,0,1-1.417,0,1.339,1.339,0,0,1-.51-.34,6.023,6.023,0,0,1-.624-.51l-.17.057c.624.624,1.3,1.247,1.927,1.814-.964.113-1.927.283-2.891.4a2.064,2.064,0,0,1-.85,0,.289.289,0,0,1-.227-.283.43.43,0,0,0-.113-.227.719.719,0,0,0-.34.057c.113.227.227.454.34.737.113.227.454.51.283.737a3.491,3.491,0,0,1-1.3.907,14.824,14.824,0,0,1-1.871.51h0c-.794,0-1.531,0-2.324.057a6.114,6.114,0,0,0-1.814.113,4.754,4.754,0,0,1-1.757.17H123.2c0,.057-.057.057-.057.113.17.113.4.227.567.34l-.964.113a3.98,3.98,0,0,0,.51.34c-.624-.113-1.134-.17-1.644-.227l1.02,1.02A.571.571,0,0,0,122.8,46c.113.113.113.283.227.34h.057a.425.425,0,0,1,.283.057c.17.057.057.17,0,.227-.17.17-.113.283.057.34.113.057.227.057.34.113.057,0,.113,0,.113.057.454.17.624.68.17.85a7.23,7.23,0,0,1-2.551.68c-.794,0-1.587.113-1.814.51a16.616,16.616,0,0,0,1.644.283c.227,0,.34.057.454.057.283.113.283.283.34.4q.085.255-.51.17c-.85-.057-1.7-.113-2.608-.113-.34,0-.68.057-1.02.057-.113,0-.227-.057-.4-.057-.057.057-.17.113-.113.113.057.057.113.057.227.113.057,0,.113.057.227.057.68.113,1.417.17,2.1.283a2.455,2.455,0,0,1,.283.057c.4.17.34.4-.17.624-.283.113-.51.227-.85.34h-.4c-.113.057-.283.113-.4.17l.113.057c.227-.057.454-.057.68-.113-.227.4-1.531.454-1.417.85h.624c-.113.113-.227.17-.283.227a1.105,1.105,0,0,1,.454.057h0c.057.057-.113.17-.113.17a4.291,4.291,0,0,1-.85-.057,1.239,1.239,0,0,1,.17-.283,2.59,2.59,0,0,1-.907.057c-.057,0-.17-.057-.227-.057a.958.958,0,0,0-.283-.113c-.567.283-1.077.624-1.644.907a6.652,6.652,0,0,1-.624.283c-.17.057-.51.227-.567.17-.113,0-.17-.057-.283-.057l-.34-.17c-.113-.057-.057-.17-.057-.34-.17.057-.34.113-.34.17a8.073,8.073,0,0,0,.283.907,4.459,4.459,0,0,1,.68-.227,3.241,3.241,0,0,1,.4.454.208.208,0,0,0,.17-.057c-.51-.283-.057-.737.964-1.02.113.113.17.227.283.34h.17c-.057-.17-.113-.283-.17-.454a.208.208,0,0,0,.17-.057c.057.057.17.057.227.113.057,0,.113.057.17.057.454.057.964.113,1.474.227.283.057.68.057.907.113.057,0,.057,0,.057.057a1.773,1.773,0,0,0,.567.283,9.534,9.534,0,0,0,1.361.4c.85.227,1.644.51,2.438.737h0a.056.056,0,0,1,.057.057,9.787,9.787,0,0,0-2.778,1.3c-.624-.113-.624.17-.907.283a1.888,1.888,0,0,0-.624.51c-1.3-.737-1.247-1.814-2.778-2.494a7.9,7.9,0,0,1,.85,1.077c.283.454.567.964.85,1.417.113.17-.17.283-.51.4a4.248,4.248,0,0,0-.907.283l-1.02.34a6.358,6.358,0,0,0-.737.283c1.077.057,1.474-.624,2.551-.454-.17-.227.51-.454,1.587-.51a1.178,1.178,0,0,1-.283.68c-.227.227-.227.34,0,.454.057.057.17.057.34.057a1.068,1.068,0,0,1-.113-.454c0-.17.283-.34.227-.454-.057-.34.227-.567.964-.737a4.443,4.443,0,0,0,.794-.283c.34-.113.567-.17.68-.113a.782.782,0,0,1,.17.227,3.192,3.192,0,0,0,1.02,1.361c.567.567.227.737-1.247.85-.227,0-.454.113-.68.113v.113a22.944,22.944,0,0,0,3.4-.283l.057.113a5.466,5.466,0,0,1-.68.113c-.51.454-.964.907-1.474,1.3a.938.938,0,0,1-1.077.17c-.057,0-.057,0-.113-.057a4.876,4.876,0,0,1-2.324.794c-.567.113-1.077.227-1.587.34l.057.113c1.247,0,2.438-.51,3.685-.283-.057.113-.057.227-.113.34l.227-.227.34-.17c.113.057.227.113.227.17a2.014,2.014,0,0,1-.113.567h.51c.113.057.113.113.113.227s0,.17.113.227h.057a5.9,5.9,0,0,0,.68-.283,3.61,3.61,0,0,1-.4-.113c-.68-.227-.68-.68-.907-1.077a2.7,2.7,0,0,1,1.02-.283,2.035,2.035,0,0,0,1.361-.567A8.6,8.6,0,0,1,127,59.322a3.126,3.126,0,0,1,1.757-.057c.057,0,.113.057.227.113h0c.057.057.283.057.34.057h0c.113.057.227.113.17.113-.283.283-.113.4.17.51a.341.341,0,0,0,.227.057.3.3,0,0,1,.227.113c.057,0,.113.057.17.113a1.928,1.928,0,0,0,.057.567,4.847,4.847,0,0,0,0,.907c.057.34,0,.567-.624.794a9.744,9.744,0,0,1-1.02.227,8.842,8.842,0,0,1,.907.283c.113.057.227.057.283.113a.9.9,0,0,1,.283.567l.737.737-.113.057c-.227-.057-.51-.113-.85-.227.737.51,1.361.964,1.984,1.361a3.969,3.969,0,0,0-.737.113,10.469,10.469,0,0,1-3.288.34,2.367,2.367,0,0,0-1.3.17c.113.057.283.113.4.17l.057-.057h.68l-.113.113c.51,0,1.02.057,1.587.057.85.057,1.7.057,2.551.057a1.422,1.422,0,0,1,.567.057c.113.057.113.113-.057.227a2.279,2.279,0,0,1-.907.454c-.567.057-1.191.113-1.757.17.057.113.057.227-.113.283a2.69,2.69,0,0,0,.68,0c.454-.17,1.134,0,1.417-.34.057,0,.057.057.113.057a3.667,3.667,0,0,1-.454.51,4.6,4.6,0,0,1-.624-.17l-.17.057c.057.17.17.283.227.454-.283.17-.454.283-.51.454a2.511,2.511,0,0,1-1.814.964c-.567.057-1.134.17-1.7.227s-.567.17-.34.283h.17a2.6,2.6,0,0,1,1.531.113h0c.113.057-.283.34-.4.51-.17.283-.283.567-.4.794h.227a9.41,9.41,0,0,1,1.077-1.02,5.808,5.808,0,0,1,1.191-.567,3.2,3.2,0,0,0,.4.057c.68-.283,1.361-.624,2.1-.964l.113-.113a.844.844,0,0,1,.51-.227c1.191-.113,2.381-.227,3.572-.283h.113a6.13,6.13,0,0,1,1.02.624c.17.113.17.283.283.454q.34.425-.68.51c-.113-.057-.227-.17-.34-.227,0,.057-.057.057-.057.113a4.377,4.377,0,0,1-.85.113,5.187,5.187,0,0,1-.964-.057,14.636,14.636,0,0,0-4.138.227c-.113,0-.17.057-.283.113a5.617,5.617,0,0,0-.964.624.14.14,0,0,0-.057.227,2.56,2.56,0,0,0,.4.4c.794,0,1.7-.057,2.664-.057l-.17-.17c.227,0,.4.057.51.057a3.619,3.619,0,0,0,.794,0c.4-.283.737-.057,1.077-.057a3.753,3.753,0,0,0,1.134,0,5.725,5.725,0,0,1,2.381-.17c.113,0,.227.057.34.057a2.3,2.3,0,0,1,.51.283c.113.057.057.227.17.283.283.227.057.454-.17.68s-.4.51-.624.737c-.113.113-.227.283-.4.283-.85.113-1.02.51-1.417.68.4.227.68.454.964.624-.227.17-.51.283-.454.34.227.227-.17.34-.51.51-.283.113-.624.227-.964.4a6.632,6.632,0,0,0,1.134-.283,5.458,5.458,0,0,1,2.891-.283h.34a5.868,5.868,0,0,1,2.494.227,10.583,10.583,0,0,0,1.417.227,4.838,4.838,0,0,0,.907,0,.755.755,0,0,0-.17-.283,6.879,6.879,0,0,0,3.458-.4,1.347,1.347,0,0,1-.85-.057.782.782,0,0,1-.227-.17c-.34.057-.794,0-.85.113-.283.283-.794.227-1.3.283.17-.17.34-.283.51-.454-.51,0-.964.057-1.417.057a.719.719,0,0,0-.057-.34h0c-.51-.17-.907.113-1.361.113-.057,0-.057-.057-.113-.057.283-.057.51-.113.794-.17a.606.606,0,0,1,.454,0,.782.782,0,0,1,.227.17h1.757a5.575,5.575,0,0,1,1.7.057.056.056,0,0,1,.057.057,7.223,7.223,0,0,1,.68.4,16.41,16.41,0,0,1,1.757-.85c.794-.34,1.644-.68,2.438-1.02a12.336,12.336,0,0,1,1.531-.624c.68-.227,1.361-.4,1.361-.85a8.765,8.765,0,0,1,.85.227h.057a9.25,9.25,0,0,0,1.077.51c.113.057.17.057.283.113a3.616,3.616,0,0,0,2.154.34c-.624-.227-1.3-.51-1.927-.794a1.823,1.823,0,0,0,.4-.227c-.227-.057-.51-.057-.624-.113H157.5a2.471,2.471,0,0,1-.85-.567c-.17-.17-.454-.34,0-.624.34-.227.68-.51.567-.737-.283-.454.454-.85.624-1.247h1.7c-.057.057-.113.17-.227.227a3.905,3.905,0,0,1,1.02-.113c.85.17,1.927-.283,2.721,0h.057a17.007,17.007,0,0,1,3.855.227h.4a4.962,4.962,0,0,1,.907.113,2.924,2.924,0,0,0,.624.113c.34-.057.68-.17,1.077-.227a4.376,4.376,0,0,0-.85-.113,15.069,15.069,0,0,1-3.968-.283,5.246,5.246,0,0,0-1.644-.113,10.918,10.918,0,0,1-3.345-.113c-.113,0-.17-.057-.227-.057-.283-.113-.4-.283-.17-.454.51-.454.964-.907,1.417-1.361a1.5,1.5,0,0,1,.34-.283c.34-.227.68-.4,1.02-.624a.43.43,0,0,1,.227-.113l1.7-.34c.794-.17.964-.283.737-.624-.057-.057.057-.227.17-.283a8.939,8.939,0,0,1,1.417-.283.782.782,0,0,0,.17.227c.34.34,1.191.567,1.191,1.02a.056.056,0,0,0,.057.057c.057,0,.113.057.17.057s.17.057.227.057c.4.17.567.34.34.567a1.959,1.959,0,0,1-1.531.454c-.17,0-.34.057-.567.057a10.861,10.861,0,0,1,2.835.17c.057,0,.113.057.17.057.454-.113.737-.17,1.02-.227.113-.057.227-.17.227-.227-.17-.283,0-.4.68-.567-.17-.057-.227-.17-.4-.227a1.3,1.3,0,0,0-.68,0v-.964c1.077,0,2.041-.057,2.948-.057a.208.208,0,0,1,.17.057,1.239,1.239,0,0,1,.283.17c.113.113.113.227.283.34.4.34.794.624,1.134.907.567,0,1.02.057,1.474.057-.4-.17-.737-.283-1.247-.51a3.264,3.264,0,0,1,.85.057c.227-.113.454-.17.794-.34-.17-.057-.34-.113-.567-.17-.057.057-.113.17-.17.227a1.887,1.887,0,0,1-.34-.17c-.057-.057-.057-.113-.17-.17s-.113-.113-.057-.17a2.014,2.014,0,0,1-.567.113q-.425-.085-1.02-.17c.17-.057.283-.113.454-.17-1.417-.283-1.984-.454-2.268-.51-.17-.057-.17-.113-.227-.227h.057l-.057-.057-.454.057c.057-.227.113-.4.624-.4h.34c.51-.113,1.02-.17,1.587-.283a5.243,5.243,0,0,0,.567-.283c.68-.4,1.474-.794,2.268-1.191-.454-.17-.4-.567-.964-.794a3.614,3.614,0,0,0-.4-.113,2.465,2.465,0,0,1-.227.4c-.17,0-.34,0-.4.057-.624.227-1.191.51-1.814.794-.057,0-.057.057-.057.113a4.5,4.5,0,0,1-.51.227c-.51.113-1.02.17-1.587.283a3.241,3.241,0,0,0-.454-.4c-.057-.057-.17-.17-.227-.17h-.057a2.038,2.038,0,0,0-.624.113c-.113.057-.113.17-.113.283s.057.17.17.283.17.227.34.283.4.17.567.227c.113.057.17.057.283.113.17.057.283.113.454.17-.227.057-.454.113-.624.17a3.241,3.241,0,0,1-.454-.4c-.057,0-.113.057-.17.057,0,.113.057.227-.057.34a.854.854,0,0,1-.454.227,9.061,9.061,0,0,1-1.247,0h-.057a4.029,4.029,0,0,1-.85-.85,6,6,0,0,1-.567-.68c-.17-.283-.4-.51-.567-.794-.057-.057.113-.17.283-.227.907-.283,1.871-.567,2.778-.85a3.537,3.537,0,0,1,1.871-.057c0,.17-.057.34-.057.51h.454c-.057-.113-.17-.227-.113-.227a1.344,1.344,0,0,0,.794-.624,12.444,12.444,0,0,1,.794-1.02,9.864,9.864,0,0,0-.794.68,1.646,1.646,0,0,1-1.134.567,3.164,3.164,0,0,1-.454-.283c-.057-.057-.17-.17-.057-.227a1.806,1.806,0,0,0,.907-1.191c0-.057.113-.113.113-.113a2.517,2.517,0,0,1,1.02.113c.283.113.454.283.34.51h0c.17.057.34.057.51.113.567.17,1.134.283,1.644.454h.057c.794.283,1.474.624,2.211.964.113.057.283.113.4.17s.283.113.4.17l.51.17c.454.17.85.34,1.3.51.057-.057.113-.057.17-.113-.227-.113-.4-.17-.624-.283a1.051,1.051,0,0,0-.4-.113h-.057c-.68-.283-1.3-.624-1.984-.907a14.454,14.454,0,0,1-1.644-.737c-.68-.283-1.3-.567-1.927-.85-.057,0-.113-.057-.17-.057a6,6,0,0,0-1.587-.34,2.955,2.955,0,0,1-.794-.113.056.056,0,0,1-.057-.057c-.17-.34-1.077-.51-.737-.964h0a6.649,6.649,0,0,1-.624.283.208.208,0,0,1-.17-.057c.113-.113.227-.283.34-.4.17.057.283.113.454.17h0c.227-.057.454-.17.737-.227a3.567,3.567,0,0,1,.624-.454c-.113,0-.227-.057-.34-.057-.113.113-.17.227-.283.283a2,2,0,0,1-.34-.057c-.17-.057-.113-.113.057-.227.227-.113.51-.283.794-.4a.759.759,0,0,0,.283.057c.737-.227,1.417-.4,1.984-.624a1.6,1.6,0,0,1,1.02-.113c1.361.113,2.778.227,4.138.4,1.02.113,1.984.283,3,.454-.454.057-.85,0-1.191.057-.68.057-.227.283-.4.454-.057.057-.113.057-.113.113,0,.113.057.17.057.283a2.255,2.255,0,0,1,2.1-.68c.624.057,1.19.113,1.757.17a.3.3,0,0,0-.227-.113c-.057,0-.113-.057-.227-.057-1.134-.227-2.211-.454-3.345-.737-.737-.17-1.587-.283-2.324-.454a13.824,13.824,0,0,1-1.757-.34.6.6,0,0,1-.4-.34h-.227v.283c-.567-.227-.34-.51-.34-.737,0-.17.057-.34-.057-.51-.057-.113-.283-.227-.34-.34a3.467,3.467,0,0,1-.283-.68h-.17V54.73a5.349,5.349,0,0,1-.51-.17.2.2,0,0,1-.113-.057,2.465,2.465,0,0,0-.4-.227,3.19,3.19,0,0,0-.567-.113,9.48,9.48,0,0,1-3.288-.567h-.057c-.057,0-.057-.057-.113-.057a10.1,10.1,0,0,0-2.494-.567c-.057,0-.17-.057-.227-.057-.057-.057-.113-.057-.17-.113,0-.057.113-.17.283-.227,1.02-.34,2.1-.68,3.175-1.02,1.02-.34,2.041-.624,3.118-.907.283-.057.567-.17.85-.227h0c1.417-.34,2.268.227,3.458.283a2.763,2.763,0,0,0-.4-.17c-.34-.113-.68-.227-1.077-.34-.51-.113-1.134-.227-1.757-.34.17-.057.4-.17.567-.227l-.113-.057c-.51.17-1.077.34-1.587.51-.34.113-.68.227-1.077.34a1.051,1.051,0,0,1-.4-.113c-.624.113-1.247.17-1.871.283a1.186,1.186,0,0,0,.34.227c.113-.283.51-.34,1.247-.227a7.226,7.226,0,0,1-2.211.737,6.855,6.855,0,0,0-1.02.283c-.85.227-1.757.454-2.664.68-.113-.113-.227-.17-.283-.283a2.408,2.408,0,0,0-.567-.964c-.283-.283-.283-.51.283-.737a.056.056,0,0,0,.057-.057h0c-.17-.057-.34-.057-.454-.113h0c-.4-.227-.17-.51.567-.907a2.849,2.849,0,0,0,.68-.454.208.208,0,0,1-.17-.057c-.283.113-.794.227-.794.34-.057.227-.283.283-.624.34-.113-.227-.17-.4-.283-.624-.057-.17.057-.34-.17-.454a1.119,1.119,0,0,0-.51-.057,2.3,2.3,0,0,1-.283-.51c.907-.113.17-.34.4-.567-.34.113-.51.17-.737.227-.057-.057-.113-.113-.17-.113-.454-.34-.057-.624.34-.907s.907-.17,1.474-.113h.567a1.57,1.57,0,0,1,.51.057c.057,0,.113.057.17.113.113.227.51.4.737.567.227.227.567.454.624.737.057.17-.113.34-.227.51a9.726,9.726,0,0,0,1.077-.51,1.639,1.639,0,0,1,1.361-.17.2.2,0,0,1,.113.057l.68.34c.4-.17.34-.283.113-.34-.057,0-.113-.057-.227-.057a2.456,2.456,0,0,1-.283-.057c-.17-.057-.17-.17-.113-.283,0-.057,0-.113-.057-.113-.34-.283-.737-.624-1.134-.907-.34-.227.17-.4.454-.454a9.455,9.455,0,0,1,1.814-.113c1.077-.057,2.1-.057,3.175-.113.68,0,1.3-.113,1.984-.113.567-.057,1.191-.057,1.757-.057l.283-.907" transform="translate(-107.044 -37.326)"/>
                    <path id="Path_20427" data-name="Path 20427" class="cls-10" d="M135.481,81.87a1.258,1.258,0,0,0-.51-.057c.057.057.113.17.17.227-.68-.113-1.247-.227-1.814-.34-.057.17-.057.34-.113.567.34-.057.624-.057,1.02-.113-.4.227-.737.4-1.134.624.34.057.567.057.85.113a1.239,1.239,0,0,1,.17-.283h.17c.4.51.794.964,1.19,1.474a3.08,3.08,0,0,0,0-1.247,1.179,1.179,0,0,1,.057-.624c.057-.227.057-.283-.057-.34" transform="translate(-115.923 -55.906)"/>
                    <path id="Path_20428" data-name="Path 20428" class="cls-10" d="M116.279,59.157c-.057,0-.113-.057-.17-.057-.624.283-1.247.624-1.871.964-.567-.113-1.134-.227-1.644-.34a3.906,3.906,0,0,0-.454.17,3.47,3.47,0,0,0-.34.227,4.061,4.061,0,0,1,2.041,0,1.239,1.239,0,0,1,.283.17c-.283.057-.624.17-1.02.227,2.324,0,2.551-.737,3.175-1.361" transform="translate(-106.698 -46.118)"/>
                    <path id="Path_20429" data-name="Path 20429" class="cls-10" d="M143.37,40.7h-.113c0,.34-.057.737-.057,1.077l.113.057a1.132,1.132,0,0,1,.51.113c.283.113.34.283.454.4l.057.057a2.456,2.456,0,0,0,.283.057,12.335,12.335,0,0,1,1.644.283c.113.057.17.057.283.113a.439.439,0,0,0,.17-.057,4,4,0,0,0-.51-.4,1.22,1.22,0,0,0-.567-.113,4.549,4.549,0,0,1-1.02-.227,1.523,1.523,0,0,1-.85-.68c-.113-.17-.227-.4-.4-.68" transform="translate(-120.297 -38.149)"/>
                    <path id="Path_20430" data-name="Path 20430" class="cls-10" d="M222.136,57.8c0,.113-.057.227,0,.283.057.113.283.283.17.34-.51.227-.113.4,0,.567.17.227.567.454.283.737l.113.113h.057c.17.057.34.057.454.113a.825.825,0,0,1,.51.454c.057-.113.113-.227,0-.283a2.722,2.722,0,0,1-1.077-1.417,1.852,1.852,0,0,0-.51-.907m0,0h0" transform="translate(-154.447 -45.555)"/>
                    <path id="Path_20431" data-name="Path 20431" class="cls-10" d="M203.6,45.6c-.34.057-.737.057-.85.17a.936.936,0,0,1-1.02.227c-.4.057-.624.057-.85.113.227.4-.85.283-1.077.51.17.057.34.057.454.113a2.566,2.566,0,0,1,.567-.283c.51,0,.85-.17,1.19-.17,1.077-.057,1.077-.454,1.587-.68" transform="translate(-144.81 -40.271)"/>
                    <path id="Path_20432" data-name="Path 20432" class="cls-10" d="M219.2,40.9h-.113a11.994,11.994,0,0,1-1.191.624c.17.057.4.113.85.227a4.164,4.164,0,0,0-.454.113c.283.17.51.283.68.4s.283.283.454.4h0a2.493,2.493,0,0,1,.51.057c-.283-.227-.51-.4-.68-.567.227-.113.283-.227,0-.34-.057,0-.113-.057-.227-.057-.057,0-.057,0-.113-.057-.283-.113-.4-.34-.057-.567.113,0,.227-.113.34-.227" transform="translate(-152.649 -38.236)"/>
                    <path id="Path_20433" data-name="Path 20433" class="cls-10" d="M206.907,36.682a2.648,2.648,0,0,0-.907.057c.113.227.17.454.283.68.057-.057.113-.057.17-.113.4.057.85.113,1.417.17a3.074,3.074,0,0,1-.624-.34c.113-.057.17-.113.283-.17-.113,0-.34-.057-.4-.057h0c-.113-.113-.113-.17-.227-.227" transform="translate(-147.495 -36.399)"/>
                    <path id="Path_20434" data-name="Path 20434" class="cls-10" d="M166.464,36.2c-.51.227-.51.567-1.247.737v.113c0,.057.057.227-.057.227a13.845,13.845,0,0,0-1.361.567c.51-.057,1.02-.113,1.587-.17v-.34c.227,0,.4-.057.624-.057-.4-.4.454-.737.454-1.077" transform="translate(-129.219 -36.2)"/>
                    <path id="Path_20435" data-name="Path 20435" class="cls-10" d="M232.391,56.7a5.983,5.983,0,0,1-1.417.113c-1.02-.113-1.02-.113-1.474.227,1.077,0,2.154-.057,3.231-.057-.057-.113-.17-.17-.34-.283" transform="translate(-157.673 -45.078)"/>
                    <path id="Path_20436" data-name="Path 20436" class="cls-10" d="M237.083,54.391h0m2.154-1.191c-.567.227-1.077.4-1.644.567-.283.057-.567.17-.794.227a3.366,3.366,0,0,1,.227.454c.227-.454.4-.51,1.531-.624a1.655,1.655,0,0,0,.51-.113,2.764,2.764,0,0,0,.624-.227,1.234,1.234,0,0,0-.454-.283" transform="translate(-160.834 -43.563)"/>
                    <path id="Path_20437" data-name="Path 20437" class="cls-10" d="M168.1,39.209c-.34.113-.624.17-1.02.283,0-.113,0-.17.057-.227,0-.057.057-.113.113-.17-1.361-.057-.907.34-.907.624a2.945,2.945,0,0,0,1.757-.51m0-.057h0m0,0h0" transform="translate(-130.289 -37.452)"/>
                    <path id="Path_20438" data-name="Path 20438" class="cls-10" d="M104.954,57.4c-.68.227-1.7.113-2.154.567.4.113.737.227,1.134.34-.794-.51.567-.624,1.02-.907" transform="translate(-102.8 -45.382)"/>
                    <path id="Path_20439" data-name="Path 20439" class="cls-10" d="M228.442,72.61a12.442,12.442,0,0,1-3.742-.51c.057.113.17.17.4.227a6.807,6.807,0,0,0,3.345.283" transform="translate(-155.594 -51.748)"/>
                    <path id="Path_20440" data-name="Path 20440" class="cls-10" d="M236.694,55.3a3.367,3.367,0,0,0-.454.227,1.609,1.609,0,0,0-.34.51,2.55,2.55,0,0,1,.454.113c-.17.113-.34.17-.17.227a1.053,1.053,0,0,0,.454,0c0-.113-.057-.283,0-.4a1.4,1.4,0,0,1,.057-.68m0,0h0" transform="translate(-160.445 -44.472)"/>
                    <path id="Path_20441" data-name="Path 20441" class="cls-10" d="M214.42,41.8h-.227c.227.34.057.68-.794.964h.227c.567-.227,1.077-.4,1.7-.624a4.016,4.016,0,0,0-.794.057,1.051,1.051,0,0,0-.113-.4" transform="translate(-150.7 -38.625)"/>
                    <path id="Path_20442" data-name="Path 20442" class="cls-10" d="M216.4,41.17h0c-.227-.057-.51-.113-.794-.17a2.013,2.013,0,0,0-.51.227c.34.113.624.283.907.4a2.765,2.765,0,0,0,.4-.17c.057-.113.113-.227,0-.283" transform="translate(-151.436 -38.279)"/>
                    <path id="Path_20443" data-name="Path 20443" class="cls-10" d="M106.62,75.57c-.283-.057-.737-.113-1.02-.17.283.34.624.68.907,1.02a5.9,5.9,0,0,1,.113-.85" transform="translate(-104.013 -53.177)"/>
                    <path id="Path_20444" data-name="Path 20444" class="cls-10" d="M192.394,42.738a3.684,3.684,0,0,0-2.494,0c.85-.057,1.7,0,2.494,0" transform="translate(-140.522 -38.939)"/>
                    <path id="Path_20445" data-name="Path 20445" class="cls-10" d="M124.347,74.427c-.34-.057-.68-.113-1.247-.227.227.283.34.454.51.68.283-.17.454-.283.737-.454" transform="translate(-111.592 -52.658)"/>
                    <path id="Path_20446" data-name="Path 20446" class="cls-10" d="M209.674,55.4h-.964c0,.057,0,.227-.057.227-.68.057-.283.283-.454.4.454-.17.907-.4,1.474-.624" transform="translate(-148.448 -44.515)"/>
                    <path id="Path_20447" data-name="Path 20447" class="cls-10" d="M228.474,53.2h-1.247a3.366,3.366,0,0,1-.227.454.341.341,0,0,1,.227.057c.34-.113.737-.283,1.247-.51" transform="translate(-156.59 -43.563)"/>
                    <path id="Path_20448" data-name="Path 20448" class="cls-10" d="M117.971,54.077c-.964-.17-1.077.454-1.871.4.283,0,.567.057.85.057.34-.113.624-.283,1.02-.454" transform="translate(-108.56 -43.93)"/>
                    <path id="Path_20449" data-name="Path 20449" class="cls-10" d="M230.077,78.6c-.113.17-.227.34-.113.454a1.176,1.176,0,0,0,.567.34c.17-.057.4-.113.737-.227a6.118,6.118,0,0,1-1.077-.17c-.17-.057-.227-.17-.113-.4" transform="translate(-157.854 -54.563)"/>
                    <path id="Path_20450" data-name="Path 20450" class="cls-10" d="M218.649,69.8h0m2.494.454a7.825,7.825,0,0,0-1.134-.17c-.34-.113-.907,0-1.247-.113-.057-.057-.17-.057-.17-.113-.227.057-.34.113-.227.17a1.153,1.153,0,0,0,.283.057c.68.057,1.361.17,2.1.283a.819.819,0,0,1,.4-.113" transform="translate(-152.832 -50.752)"/>
                    <path id="Path_20451" data-name="Path 20451" class="cls-10" d="M123.548,59.937h0m1.02-.737c-.907.17-1.247.51-1.02.737.34-.227.624-.454,1.02-.737" transform="translate(-111.756 -46.161)"/>
                    <path id="Path_20452" data-name="Path 20452" class="cls-10" d="M124.747,79.6c-.454.057-.68.17-.794.34a8.393,8.393,0,0,0-.454.737h.057c.4-.34.794-.68,1.191-1.077m.057,0h0" transform="translate(-111.765 -54.996)"/>
                    <path id="Path_20453" data-name="Path 20453" class="cls-10" d="M205.094,47.2c-.85.227-1.644.454-2.494.68l.113.057c.85-.227,1.644-.454,2.494-.624l-.113-.113" transform="translate(-146.023 -40.964)"/>
                    <path id="Path_20454" data-name="Path 20454" class="cls-10" d="M130.994,46.827c-.17-.057-.4-.113-.794-.227a5.245,5.245,0,0,1,.283.567c.68-.113.907-.17.51-.34" transform="translate(-114.667 -40.704)"/>
                    <path id="Path_20455" data-name="Path 20455" class="cls-10" d="M168.937,38.983h0m1.361-.227c-.68,0-1.3,0-2.1-.057.283.113.51.17.794.283h0c.227-.057.454-.057.68-.113.227,0,.454-.057.68-.057l-.057-.057" transform="translate(-131.124 -37.283)"/>
                    <path id="Path_20456" data-name="Path 20456" class="cls-10" d="M198.1,42.4c-.113.057-.17.17-.283.227-.34,0-.68-.057-1.02-.057a3.5,3.5,0,0,0,1.757.113c-.17-.113-.283-.17-.454-.283" transform="translate(-143.511 -38.885)"/>
                    <path id="Path_20457" data-name="Path 20457" class="cls-10" d="M229.864,70.1c-.34.057-.68.113-.964.17v.567c.4-.057.34-.057.283-.283,0-.113.17-.227.34-.283.113-.057.283-.057.34-.17h0" transform="translate(-157.413 -50.882)"/>
                    <path id="Path_20458" data-name="Path 20458" class="cls-10" d="M245.464,69.1c-.34.17-.624.283-.964.454a3.468,3.468,0,0,0,.68.283h.4a2.458,2.458,0,0,1-.283-.057c-.624-.227.113-.454.17-.68" transform="translate(-164.169 -50.449)"/>
                    <path id="Path_20459" data-name="Path 20459" class="cls-10" d="M234.761,76.345a2.141,2.141,0,0,1-.68-.057c-.454-.057-.68.057-.68.227,0,.227.057.4.057.624h.113a2.326,2.326,0,0,1,.057-.624,11.107,11.107,0,0,0,1.134-.17" transform="translate(-159.362 -53.556)"/>
                    <path id="Path_20460" data-name="Path 20460" class="cls-10" d="M204.183,52.9c-.113.057-.283.113-.283.17,0,.113.113.227.17.34h.227a.841.841,0,0,0,.057-.4c.057,0-.057-.057-.17-.113" transform="translate(-146.586 -43.433)"/>
                    <path id="Path_20461" data-name="Path 20461" class="cls-10" d="M124.459,75.6c-.113.227-.227.4-.17.567.057.113.34.227.51.283l.057-.057c-.113-.227-.227-.51-.4-.794" transform="translate(-112.1 -53.264)"/>
                    <path id="Path_20462" data-name="Path 20462" class="cls-10" d="M223.427,46.6c-.057,0-.17.057-.227.057.227.17.51.34.737.51.113-.057.227-.057.283-.113a5.664,5.664,0,0,1-.794-.454" transform="translate(-154.944 -40.704)"/>
                    <path id="Path_20463" data-name="Path 20463" class="cls-10" d="M218.727,69.194h0m.794-.794h-.17c-.283.227-.624.454-.85.68.113.057.17.057.227.113a10.481,10.481,0,0,1,.794-.794" transform="translate(-152.909 -50.146)"/>
                    <path id="Path_20464" data-name="Path 20464" class="cls-10" d="M107.327,64.4a.429.429,0,0,0-.227.057c.057.17.17.34.227.51.113,0,.283-.057.4-.057-.113-.17-.283-.34-.4-.51" transform="translate(-104.662 -48.413)"/>
                    <path id="Path_20465" data-name="Path 20465" class="cls-10" d="M112.377,74.057c-.227,0-.454-.057-.68-.057a2.4,2.4,0,0,1-.4.283l.113.057,1.02-.17-.057-.113" transform="translate(-106.481 -52.571)"/>
                    <path id="Path_20466" data-name="Path 20466" class="cls-10" d="M228.7,59.4c-.624,0-1.191.057-1.7.057h.057A2.086,2.086,0,0,0,228.7,59.4" transform="translate(-156.59 -46.248)"/>
                    <path id="Path_20467" data-name="Path 20467" class="cls-10" d="M204.99,42.3c-.227.17-.17.34.057.4a2.721,2.721,0,0,0,1.02.057,1.567,1.567,0,0,1-.794-.113.359.359,0,0,1-.283-.34" transform="translate(-146.995 -38.842)"/>
                    <path id="Path_20468" data-name="Path 20468" class="cls-10" d="M191.753,41.1c-1.077.17-1.247.227-1.02.51l1.02-.51" transform="translate(-140.845 -38.322)"/>
                    <path id="Path_20469" data-name="Path 20469" class="cls-10" d="M214.934,78.583c-.283-.057-.624-.17-1.134-.283.17.227.227.283.4.51.113-.17.113-.227.17-.283l.34.17c.057,0,.113-.057.227-.113" transform="translate(-150.873 -54.433)"/>
                    <path id="Path_20470" data-name="Path 20470" class="cls-10" d="M228.489,84.929c-.057,0-.113-.057-.227-.057-.567-.113-.68.057-.85.227a.783.783,0,0,1-.227.17c-.34.113-.34.227-.17.283a2,2,0,0,0,.34.057h.057c.283.113.4.454.227.51.17.057.34.17.51.227,1.02-.113.907-.737.17-1.077.34-.057.454-.227.17-.34" transform="translate(-156.548 -57.264)"/>
                    <path id="Path_20471" data-name="Path 20471" class="cls-10" d="M201.449,99.294a3.19,3.19,0,0,0-.567-.113c-.17-.057-.34-.057-.567-.113-.283-.057-.567-.113-.907-.17a.343.343,0,0,0-.17-.34,1.105,1.105,0,0,0-.454-.057c-.057.17-.057.34-.113.51l-1.871-.34a3.365,3.365,0,0,0,.454.227,3.614,3.614,0,0,0,1.361.227,1.457,1.457,0,0,1,.794.113,1.186,1.186,0,0,1,.34.227.43.43,0,0,0,.227.113,2.9,2.9,0,0,0,1.587.113c.057-.283.057-.34-.113-.4" transform="translate(-143.511 -63.182)"/>
                    <path id="Path_20472" data-name="Path 20472" class="cls-10" d="M243.338,87.18a2.014,2.014,0,0,0-.567-.113c-.34-.057-.68-.057-1.077-.113.057-.227,0-.34-.227-.4a1.58,1.58,0,0,0-.567-.057v.624a2.764,2.764,0,0,1,.794.17c.057,0,.057,0,.057.057a.914.914,0,0,0,.4.227,4.8,4.8,0,0,0,.964.227,3.7,3.7,0,0,0,.794,0c.057,0,.227-.113.17-.17a3.054,3.054,0,0,0-.737-.4c.057-.057.057-.057,0-.057" transform="translate(-162.61 -57.985)"/>
                    <path id="Path_20473" data-name="Path 20473" class="cls-10" d="M228.378,92.3c-.567.057-1.191.057-1.7.113a.806.806,0,0,1-.113.34,5.438,5.438,0,0,0-.85-.17c.907.454.17.907-.113,1.3.567-.17.51-.567,1.3-.68v-.113c-.113-.283.17-.51.907-.624.227-.057.4-.057.624-.113l-.057-.057" transform="translate(-155.984 -60.497)"/>
                    <path id="Path_20474" data-name="Path 20474" class="cls-10" d="M225.518,91.192a2.329,2.329,0,0,0-1.757.51h0l1.02-.34c-.34.454-.567.51-1.02.34h0l-1.361.17v.057c.68,0,1.3.057,1.984.057.057-.4,1.077-.113,1.3-.34-.057-.17-.113-.283-.17-.454" transform="translate(-154.598 -60.012)"/>
                    <path id="Path_20475" data-name="Path 20475" class="cls-10" d="M197.127,93.3c-.737.454-1.3.85-1.927,1.247a7.243,7.243,0,0,0,2.1-.964c.057-.057-.113-.113-.17-.283" transform="translate(-142.818 -60.93)"/>
                    <path id="Path_20476" data-name="Path 20476" class="cls-10" d="M208.828,88.66A10.41,10.41,0,0,0,205.2,89c1.134-.113,2.324-.227,3.628-.34" transform="translate(-147.149 -58.898)"/>
                    <path id="Path_20477" data-name="Path 20477" class="cls-10" d="M127.944,91.6h-.057a11.726,11.726,0,0,1-1.247.227c-.113.283.567.567-.34.907.283,0,.51-.057.85-.057l-.17-.34c-.057-.17-.17-.34.34-.454a3.038,3.038,0,0,0,.624-.283" transform="translate(-112.978 -60.193)"/>
                    <path id="Path_20478" data-name="Path 20478" class="cls-10" d="M232.5,84.1c.113.227.17.51.283.794.283-.057.454-.113.68-.17-.34-.227-.624-.4-.964-.624" transform="translate(-158.972 -56.945)"/>
                    <path id="Path_20479" data-name="Path 20479" class="cls-10" d="M200.367,94.213a3.192,3.192,0,0,0-.567-.113c.227.283.4.51.624.794.227-.4.227-.567-.057-.68" transform="translate(-144.81 -61.276)"/>
                    <path id="Path_20480" data-name="Path 20480" class="cls-10" d="M217.6,85.8h0m1.361.113a11.866,11.866,0,0,0-1.361-.057.443.443,0,0,0,.227.227,2.619,2.619,0,0,0,1.134-.17" transform="translate(-152.519 -57.681)"/>
                    <path id="Path_20481" data-name="Path 20481" class="cls-10" d="M222.839,97.8c-.567.227-.624.51-.17.68.113.057.283.057.454.113-.113,0-.17-.057-.227-.057-.51-.227-.17-.454-.057-.737" transform="translate(-154.583 -62.879)"/>
                    <path id="Path_20482" data-name="Path 20482" class="cls-10" d="M222.864,97.176c-.624-.057-.624-.057-.964.17.283,0,.567.057.85.057-.057-.057-.113-.057-.227-.113a2.229,2.229,0,0,1,.34-.113" transform="translate(-154.381 -62.595)"/>
                    <path id="Path_20483" data-name="Path 20483" class="cls-10" d="M235.564,85.84h0m-.34-.17c-.17-.057-.4-.113-.624-.17a.311.311,0,0,0,.227.34,1.826,1.826,0,0,0,.794,0,2.764,2.764,0,0,1-.4-.17" transform="translate(-159.882 -57.551)"/>
                    <path id="Path_20484" data-name="Path 20484" class="cls-10" d="M236.3,85.959h0m1.077-.113h0c-.34-.057-.794-.17-1.02.113.34.057.624.113,1.134.17-.057-.113-.057-.227-.113-.283" transform="translate(-160.618 -57.671)"/>
                  </g>
                </g>
              </g>
            </g>
          </g>
        </g>
      </g>
      <g id="Group_4499" data-name="Group 4499" class="cls-11" transform="translate(53.799 15.25)">
        <g id="Group_4498" data-name="Group 4498">
          <g id="Group_4497" data-name="Group 4497">
            <g id="Group_4496" data-name="Group 4496" class="cls-12">
              <g id="Group_4495" data-name="Group 4495" transform="translate(13.549 9.071)">
                <g id="Group_4494" data-name="Group 4494">
                  <g id="Group_4493" data-name="Group 4493">
                    <path id="Path_20486" data-name="Path 20486" class="cls-13" d="M137.981,71.578c-.113-.057-.17-.057-.227-.113a3.143,3.143,0,0,0-.454-.34c.34-.283.34-.283,1.077-.057a.208.208,0,0,1,.17.057,4.6,4.6,0,0,1,.624.17h0a1.31,1.31,0,0,1-.4.4,1.465,1.465,0,0,1-.794-.113m-4.365-4.649a2.146,2.146,0,0,1,1.474-.057c.057.057.17.057.227.113a15.415,15.415,0,0,1-1.7-.057m2.438-1.7v-.113l.737-.113.113.057c-.113.057-.113.17-.283.227-.17,0-.4-.057-.567-.057m11,5.216a.341.341,0,0,0,.227-.057c-.283-.34-.51-.737-.794-1.077.4,0,.85-.057,1.247-.057.51,0,1.02.113,1.531.113.34,0,.737.057,1.134.057h.227a18.44,18.44,0,0,0,2.494.17h.113v.454a1.646,1.646,0,0,0-1.247.34,9.983,9.983,0,0,1-1.3.794c-.057.057-.227.057-.34.057h-.624a4.223,4.223,0,0,1-1.02-.113,1.338,1.338,0,0,1-.51-.34c-.113-.113-.283-.17-.4-.283-.4.34-.68.68-1.077.964a3.058,3.058,0,0,1-2.381.113c-.227-.057-.567-.057-.907-.113a2.014,2.014,0,0,1-.567-.113c-.057,0,0-.17.057-.17.283-.17.567-.4.907-.567h-.34c-.057-.057-.113-.17-.227-.227.567-.17.283-.4.113-.624h0c-.227-.34.113-.51.907-.4-.283.113-.624.283-.907.4h0c.227,0,.454-.057.68-.057a1.175,1.175,0,0,0,.113.34,5.9,5.9,0,0,1,.85-.113l-.057-.057a2.348,2.348,0,0,0-.567.057.783.783,0,0,1,.17-.227c.17.057.34.057.51.113.283.113.567.17.85.283l-.17.17c.34-.057.51-.057.737-.113a1.773,1.773,0,0,1,.567.283M136.564,61.2c.227-.227.4-.454.624-.68a3.615,3.615,0,0,1,.4.113c.113,0,.283.057.4.057-.057.057-.057.17-.113.17-.4.113-.794.227-1.3.34m24.6,5.1c-.113-.057-.17-.17-.113-.227a5.981,5.981,0,0,1,1.077-.283,1.107,1.107,0,0,1,.4.057h0a.106.106,0,0,1,0,.17c-.057.057-.113.17-.227.227a2.763,2.763,0,0,0,.4.17h-.454c-.454.227-.737,0-1.077-.113h0m-24.15-9.978a3.9,3.9,0,0,1-.113-.737c.4.283.51.51.113.737m-3.4.057c-.17-.057-.227-.17-.283-.4-.057-.454-.17-.964-.227-1.417,0-.227.454-.17.794-.17h1.361c.283,0,.51-.057.737-.057.17,0,.4.057.624.057.17-.057.34-.057.51-.113h0a.256.256,0,0,1,.17.17,1.239,1.239,0,0,1-.283.17c-.113-.057-.283-.113-.4-.17v.227c0,.057-.17.17,0,.227a.208.208,0,0,1,.17.057c-.057.113-.113.17-.113.283.057.34-.567.68.283,1.02-.68.057-1.247.113-1.814.17-.227,0-.4.057-.624.057a7.509,7.509,0,0,1-.907-.113m1.247-3.345a.783.783,0,0,1,.227-.17,5.052,5.052,0,0,1,.567-.283c.057.17.17.283.113.34a.485.485,0,0,1-.34.17c-.17.057-.4-.057-.567-.057m-.34-.567c-.113-.057-.227-.113-.227-.227-.17-.283-.283-.624-.454-.907.283,0,.567-.057.907-.057a.616.616,0,0,1,.283.057l1.7.51c.057,0,.113.057.17.057a.806.806,0,0,0,.34.113,4.967,4.967,0,0,1-2.268.51,3.053,3.053,0,0,1-.454-.057m30.5,12.585a1.747,1.747,0,0,1,.057-.567c.057-.113.283-.17.51-.283l-.17-.17h.113a2.231,2.231,0,0,1,.34.113c-.34-.34.227-.34.624-.454.283-.057.227-.34.51-.4a.677.677,0,0,0,.624-.4c.057-.113,0-.17.057-.283,0-.057.057-.227.17-.227a2.721,2.721,0,0,1,.68,0c.113,0,.227.057.34.057.17.057.227.17.34.283.34.34.624.624.907.964.057.057-.057.17-.113.283a5.884,5.884,0,0,1-2.154.85,22.089,22.089,0,0,1-2.835.227m-28.175-15.25.057-.057c.227-.057.4-.057.624-.113l.113.057c-.113.057-.17.17-.283.227a2.1,2.1,0,0,1-.51-.113m1.871-.113c-.34-.113-.113-.34-.283-.454-.057-.057.17-.17.34-.17a1.929,1.929,0,0,1,.567.057c.113.057.227.057.34.113a6.651,6.651,0,0,1,.624.283c.17.057.227.17.34.283-.227,0-.4.057-.624.057h-.454a.436.436,0,0,1,.113.17,2.763,2.763,0,0,1-.4-.17.782.782,0,0,1-.227.17c-.057-.113-.057-.17-.113-.17h0c-.057-.113-.17-.113-.227-.17m33.107,11.622-.113-.113c-.51-.227-.567-.51-.113-.68.057-.057.4,0,.567.057a1.051,1.051,0,0,0,.4.113,2.014,2.014,0,0,1,.51.227,1.017,1.017,0,0,1,.4.283,1.929,1.929,0,0,0-.567.057,6.51,6.51,0,0,1-1.077.057m-1.871-1.984c.057,0,.113.057.227.057.057,0,.113.057.17.057.113.057.227.057.283.113.227.113.283.283.51.454-.454.113-.964.227-1.417.34-.34.113-.567.227-.907.34a.843.843,0,0,1-.34.057c-.283-.057-.624-.113-.85-.17.113-.283.113-.51.34-.737.227-.17.227-.34.34-.567.17-.283.85-.34,1.474-.113.057,0,.057,0,.113.057,0,.113.057.113.057.113m3.4,1.474c0-.057,0-.057.057-.113.227,0,.454.057.68.057a.2.2,0,0,1-.057.113l-.68-.057M140.929,46.578a4.9,4.9,0,0,0-.567-.4h.113c.227.057.4.057.68.113a.511.511,0,0,0-.057.283h-.17m4.082,1.3a3.908,3.908,0,0,0,.567-.227c.17.057.4.113.68.227-.4.113-.737.227-1.134.34v-.34h-.113M164.683,54c-.17-.113-.283-.227-.454-.34.057,0,.113-.057.17-.057.227.057.51.113.68.17h0c.057,0-.113.17-.227.227h-.17M146.6,46.351a3.612,3.612,0,0,1,.4.113c.34.113.227.227-.17.4a2.09,2.09,0,0,0-.794.454c-.227.227-.68.113-1.02.17a3.667,3.667,0,0,0-.737.227c-.17.057-.4.17-.113.34-.454.113-1.19.113-.907.51h.283l.113.057c-.454.113-.907.227-1.3.34a1.354,1.354,0,0,1-.51.113,2.409,2.409,0,0,1-.964-.057l-.34-.17-.34-.17c-.057,0-.113-.057-.17-.057v-.057c1.644-.057,2.211-.454,2.608-1.134.057-.057.057-.113.113-.227.34-.454.283-.85-.68-1.191a2.12,2.12,0,0,1,1.531.113,4.962,4.962,0,0,0,.907.113,4.882,4.882,0,0,1,1.587.17c.17.057.4.057.624.113-.057-.057-.113-.113-.113-.17m19.615,7.426c-.17-.057-.17-.17-.113-.283.567-.057,1.191-.057,1.757-.113.17,0,.34,0,.4.057q.17.085.17.17a.49.49,0,0,1-.17.34c-.227.227-.51.227-1.02.057-.227-.057-.454-.17-.737-.227h-.283m-2.324-1.3c-.17-.057-.227-.17-.113-.283s0-.227.113-.34a4.113,4.113,0,0,1,.51-.283c.113.057.34.113.4.227a.914.914,0,0,0,.4.227,1.408,1.408,0,0,0,.51.057c-.113.113-.227.17-.283.283a2.094,2.094,0,0,1-1.191.227,2.23,2.23,0,0,0-.34-.113m5.159.737c-.454-.227.057-.283.283-.4a.614.614,0,0,1,.624,0c.057,0,.113.057.17.057-.4.113-.737.227-1.077.34M161.9,49.923c.4-.17.624-.283.907-.4a.208.208,0,0,1,.17.057.86.86,0,0,1-.227.454s-.454-.057-.85-.113m-11.678-3.685a.122.122,0,0,1-.113-.113c-.057-.227-.17-.4-.227-.624-.057-.17.113-.227.454-.17.794.057,1.644.113,2.438.17a.429.429,0,0,1,.227.057.872.872,0,0,1,.34.227c.113.17,0,.34,0,.51-.113.227-.907.283-1.361.227a5.711,5.711,0,0,0-1.417-.17c-.17-.057-.283-.057-.34-.113m22.846,8.22a1.216,1.216,0,0,1-.4-.227c0-.113.057-.227,0-.34a2.663,2.663,0,0,1-.34-.51c-.057-.057-.113-.17-.057-.227a1.105,1.105,0,0,1,.454-.057,7.4,7.4,0,0,1,.737.17h0c.113.057.227.17.17.227-.283.17-.227.34,0,.51.113.113.227.227.227.283a.561.561,0,0,1-.4.283.7.7,0,0,1-.4-.113m-7.767-8.334c-.567-.057-1.02-.057-1.474-.113a1.886,1.886,0,0,0,.34.17.28.28,0,0,0,.17.057.606.606,0,0,1,.454,0c.113.057.113.113.113.227a3.971,3.971,0,0,1-.17.794,2.41,2.41,0,0,0-.113.624c0,.227.17.454.17.68,0,.34-.51.454-1.02.4-.4-.057-.737-.17-1.134-.227-.454-.057-.85-.113-1.3-.17v-.057c.227-.057.454-.057.68-.113a.2.2,0,0,0-.113-.057.341.341,0,0,0-.227-.057,1.563,1.563,0,0,1-1.02,0c-.113-.057-.17-.057-.283-.113a.2.2,0,0,1-.113-.057H160.2a1.423,1.423,0,0,1-.567-.113,1.322,1.322,0,0,1-.51-.4,12.008,12.008,0,0,1-1.134-1.361.762.762,0,0,0-.4-.34,2.357,2.357,0,0,0-.907,0c-.057,0-.113.057-.17.057-.68.113-1.361.227-1.984.283-.454-.51-.907-.964-1.361-1.417l3.061.17c-.68-.113-1.361-.17-2.1-.227a6.16,6.16,0,0,1-.85-.113.678.678,0,0,1-.4-.4,3.343,3.343,0,0,1-.227-.454h-.113c.17.567.34,1.134.567,1.7l-2.381-.17c-.227,0-.4-.057-.51-.057-.17-.057-.227-.17-.113-.34.057-.057.057-.113.057-.227h-.283a2.014,2.014,0,0,0-.113.567c-.057.227.057.454-.17.567a4.167,4.167,0,0,1-1.417.454,14.976,14.976,0,0,1-1.644.113h0c-.567-.113-1.134-.227-1.757-.34a6.789,6.789,0,0,0-1.361-.227,3.75,3.75,0,0,1-1.417-.17c-.454-.113-.907-.17-1.361-.283l-.113.057c.113.113.17.227.283.34l-.794-.113a1.187,1.187,0,0,0,.227.34c-.4-.17-.737-.34-1.077-.454.057.34.17.624.227.964h.17c0,.113-.057.283,0,.283h0c.057,0,.057,0,.113.057.227.113.057.17-.057.227-.34.17-.17.283.057.4.34.17.283.624-.227.68a6.971,6.971,0,0,1-2.211.113,2.431,2.431,0,0,0-1.587.057,5.721,5.721,0,0,0,.85.4c.057,0,.113.057.17.057s.057,0,.113.057c.4.17.283.283.227.454,0,.113-.227.17-.51.057l-1.871-.51c-.227-.057-.51-.057-.737-.113h-.057c-.057,0-.113-.057-.17-.113a.571.571,0,0,0-.17.057.783.783,0,0,0,.227.17c.057,0,.113.057.17.057.113.057.283.113.4.17a3.908,3.908,0,0,1,.454.17c.113.057.283.113.4.17.454.227.34.454-.227.51-.283.057-.51.057-.794.113a2.456,2.456,0,0,0-.283-.057h0c-.113,0-.283.057-.4.057l.057.057c.17,0,.4.057.567.057-.34.227-1.361.057-1.474.454.17.057.283.057.454.113a.958.958,0,0,1-.283.113.341.341,0,0,0,.227.057.056.056,0,0,1,.057.057c0,.057-.17.113-.17.113-.227-.057-.4-.113-.624-.17.113-.057.17-.113.283-.17-.283-.057-.51-.057-.737-.113h0a.614.614,0,0,1-.283-.227c-.567.17-1.134.283-1.7.4-.17.057-.4.057-.624.113-.17,0-.454.057-.51.057h0a.581.581,0,0,1-.34-.283c-.057-.057.057-.17.113-.227a2,2,0,0,0-.34.057,5.267,5.267,0,0,1-.227.737,3.368,3.368,0,0,1,.624-.057c.057.113.057.283.113.4h.17c-.227-.283.34-.567,1.191-.624a.719.719,0,0,0,.057.34h.113a3.613,3.613,0,0,0,.113-.4h.17a.783.783,0,0,0,.227.17c.34.113.68.283.964.4a.176.176,0,0,1,.113.057c.057.057.057,0,.113.057h.057c.17.057.34.113.4.227.17.34.68.567,1.077.85.51.283.964.624,1.474.964v.057a7.45,7.45,0,0,0-2.721.567c-.057,0-.057-.057-.113-.057-.34-.113-.51.057-.737.113a2.848,2.848,0,0,0-.737.283c-.567-.737-.057-1.531-.85-2.324a5.653,5.653,0,0,1,.113.907A10.182,10.182,0,0,1,129.7,54.4c0,.17-.283.17-.567.227a3.486,3.486,0,0,0-.794.057c-.34.057-.624.057-.964.113-.227,0-.4.057-.68.057.737.227,1.361-.17,2.041.057h.057c0-.227.624-.283,1.417-.113a1.955,1.955,0,0,1-.51.454c-.34.17-.4.283,0,.454.057-.113.057-.227.17-.34s.34-.227.454-.34c.113-.283.454-.4,1.077-.4.227,0,.454-.057.68-.057a.921.921,0,0,1,.567,0c.057.057.113.113.057.227a1.725,1.725,0,0,0,.057,1.191c.17.51-.17.567-1.361.454h-.567V56.5a18.971,18.971,0,0,0,2.664.34V56.9h-.567c-.624.283-1.191.51-1.757.794a1.128,1.128,0,0,1-.737.057c-.113-.057-.17-.057-.227-.17a4.989,4.989,0,0,1-2.1.227h-1.361v.057a14.324,14.324,0,0,1,2.778.34c.057,0,.057,0,.113.057l-.227.227c.113-.057.17-.113.283-.113.113-.057.227-.057.34-.113.057.057.113.113.113.17a2.84,2.84,0,0,1-.4.454,2.455,2.455,0,0,1,.283.057c.34.113-.227.283,0,.454a2.411,2.411,0,0,0,.624-.113c-.68-.34-.4-.68-.4-1.077a4.3,4.3,0,0,1,.907-.057,2.16,2.16,0,0,0,1.3-.227,9.08,9.08,0,0,1,3.458-.51,2.829,2.829,0,0,1,1.077.113,1.186,1.186,0,0,1,.34.227l.057.057h.057a.2.2,0,0,1,.113.057c.057.057.113.113.057.113-.624.283.113.454.283.737h0v-.227a.783.783,0,0,1,.227-.17l.17.057c.057.057.113.17.057.17a3.9,3.9,0,0,1-.454.17h0c-.113.17-.17.283-.283.454a4.728,4.728,0,0,0-.454.68,1,1,0,0,1-.907.51,4.221,4.221,0,0,1-.85,0,2.347,2.347,0,0,1,.68.51c.113.17-.057.34-.057.51l.17.68h-.113c-.17-.057-.283-.17-.567-.283.283.51.567.907.794,1.361a5.9,5.9,0,0,1-.624-.057,7.851,7.851,0,0,1-2.608-.283,1.423,1.423,0,0,0-1.077-.057c.057.057.17.113.227.17l.057-.057c.17.057.34.057.51.113-.057,0-.113.057-.17.057.34.113.737.227,1.134.34.624.17,1.247.34,1.871.454a2.456,2.456,0,0,1,.283.057c.17.057.17.113-.057.227a2.669,2.669,0,0,1-.907.227c-.454-.057-.907-.113-1.417-.17,0,.113-.057.17-.227.17a1.655,1.655,0,0,0,.51.113c.454-.057.85.17,1.19,0l.057.057a4.985,4.985,0,0,1-.567.34,3.356,3.356,0,0,1-.34-.227h-.113c0,.113-.057.283-.057.4a1.279,1.279,0,0,0-.624.283,3.367,3.367,0,0,1-1.871.454c-.454-.057-.907-.057-1.361-.113s-.51,0-.4.17h.113a2.516,2.516,0,0,1,.737.113.923.923,0,0,1,.34.17c.057.057-.34.227-.51.34a6.006,6.006,0,0,0-.68.567.208.208,0,0,1,.17.057c.454-.227.85-.4,1.3-.624a7.392,7.392,0,0,1,1.191-.227h0a.43.43,0,0,1,.227.113c.624-.113,1.361-.227,2.041-.4.057,0,.113-.057.17-.057a1.655,1.655,0,0,1,.51-.113c.964.113,1.871.227,2.778.34l.113.057a4.327,4.327,0,0,1,.454.624c.057.113-.057.227,0,.34.057.227-.227.34-.737.283-.057-.057-.057-.17-.113-.227-.057,0-.057.057-.113.057a2.76,2.76,0,0,1-.68-.057c-.17-.057-.34-.057-.51-.113-.057,0-.113-.057-.17-.057-.057-.057-.17-.057-.227-.113a12.335,12.335,0,0,0-2.948-.4.341.341,0,0,0-.227.057c-.34.113-.68.17-1.02.283q-.17.085-.17.17a.806.806,0,0,0,.113.34c.567.113,1.3.227,2.041.4,0-.057-.057-.113-.057-.17.057,0,.113.057.17.057s.057,0,.057.057a.056.056,0,0,1,.057.057h.057c.17.057.51.17.567.113a.782.782,0,0,1,.51,0,.2.2,0,0,1,.113.057c.057,0,.057.057.113.057h.057c.283.057.624.227.85.17a4.813,4.813,0,0,1,1.871.283h.057c.227.057.283.227.4.4.057.057-.057.17-.057.227.057.227-.17.34-.454.454s-.567.34-.85.454a1.482,1.482,0,0,1-.454.17,3.847,3.847,0,0,0-1.417.283c.17.227.283.454.4.624-.227.057-.51.113-.51.17.057.227-.34.227-.624.283a4.406,4.406,0,0,1-.907.113h.964a5.11,5.11,0,0,1,2.1.17c.057,0,.113.057.17.057h.057c.057,0,.113.057.17.057a4.549,4.549,0,0,1,1.02.227,7.6,7.6,0,0,1,.68.34,2.764,2.764,0,0,0,.4.17c.17.057.4.113.567.17s.454.113.68.17a.616.616,0,0,1,.057-.283,5.773,5.773,0,0,0,2.778.283.878.878,0,0,1-.454-.113c-.17-.057-.227-.113-.227-.227-.283-.057-.624-.113-.68-.057-.34.17-.68,0-1.134,0a5.266,5.266,0,0,0,.567-.283c-.4-.057-.737-.113-1.077-.17.057-.113.113-.17.17-.283h0c-.057-.057-.057-.057-.113-.057-.283-.113-.68,0-.964-.057l-.057-.057h.68a.425.425,0,0,1,.283.057c.113.057.113.113.17.17h0c.454.113.85.17,1.3.283a5.392,5.392,0,0,1,1.02.227,1.239,1.239,0,0,1,.283.17c.113.113.227.283.34.4.624-.113,1.19-.283,1.757-.34.737-.113,1.531-.227,2.324-.4.51-.057.964-.17,1.474-.227.624-.057,1.191-.057,1.474-.4l.567.283c.283.227.4.51.737.68a3.8,3.8,0,0,0,.794.51,2.114,2.114,0,0,0,.68.113c-.34-.283-.68-.624-1.077-.907.227-.057.34-.057.4-.113-.057,0-.113-.057-.17-.057a1.239,1.239,0,0,1-.283-.17,1.511,1.511,0,0,1-.34-.567c-.057-.17-.17-.34.283-.454.34-.113.794-.283.794-.454,0-.4.737-.567,1.077-.85.454.113.907.17,1.3.283-.113.057-.17.113-.283.17a2.791,2.791,0,0,1,.794.057h0a.056.056,0,0,1,.057.057,3.766,3.766,0,0,0,.85.17,2.071,2.071,0,0,1,.85.17c.113.057.17.113.283.17a7.054,7.054,0,0,1,1.814.454c.113.057.17.057.283.113s.17.057.283.113.283.113.4.17a.616.616,0,0,0,.283.057c.17.057.4.113.567.17a.056.056,0,0,1,.057.057l.34.17H163.1a2.763,2.763,0,0,0-.4-.17c-.057,0-.113-.057-.17-.057a12.6,12.6,0,0,1-2.211-.567,2.1,2.1,0,0,1-.624-.283l-.34-.17a3.25,3.25,0,0,0-.794-.227,11.4,11.4,0,0,1-2.1-.454l-.34-.17c-.283-.17-.34-.34-.057-.454.624-.283,1.191-.51,1.757-.794.113-.057.283-.113.4-.17.34-.113.68-.17,1.02-.283.057,0,.17-.057.227-.057h1.417c.68,0,.85-.057.907-.4,0-.057.17-.17.283-.17h1.19v.227c.113.34.567.624.34.964l.113.113c.34.17.4.454.113.567a2.486,2.486,0,0,1-1.361.113,1.105,1.105,0,0,0-.454-.057c.567.17,1.3.227,1.757.4a2.465,2.465,0,0,1,.4.227h.907c.113,0,.283-.057.283-.113,0-.227.17-.34.794-.283-.113-.113-.057-.227-.283-.283a.841.841,0,0,0-.4-.057c.17-.227.283-.454.51-.737.85.17,1.531.283,2.211.454h.057c.113.057.17.17.227.227.057.113,0,.227,0,.34.113.283.283.624.4.85a10.223,10.223,0,0,0,1.077.283c-.17-.17-.4-.34-.68-.567a3.007,3.007,0,0,1,.624.17c.227-.057.454-.057.737-.113-.113-.057-.227-.17-.34-.227a.43.43,0,0,1-.227.113l-.17-.17c-.057-.057,0-.113-.057-.17s0-.113.057-.17h-.51c-.17-.057-.4-.17-.68-.283a.965.965,0,0,0,.4-.057c-1.531-.794-1.531-.794-1.474-.964h.057V68.29l-.4-.057a.494.494,0,0,1,.624-.17c.057,0,.17.057.227.057h0a10.035,10.035,0,0,1,1.3.057c.17-.057.34-.057.567-.113.68-.227,1.474-.34,2.268-.567-.283-.283.113-.624-.567-.85-.113.113-.283.17-.34.283-.113,0-.227-.057-.34-.057-.567.113-1.134.17-1.7.283l-.113.057a1.248,1.248,0,0,1-.454.057,10.48,10.48,0,0,1-1.3-.057,3.614,3.614,0,0,1-.113-.4c-.057-.057-.057-.17-.113-.227h0a.63.63,0,0,0-.737.17.172.172,0,0,0,0,.227c0,.113.057.17.113.283.227.17.454.4.737.624h-.567a2.764,2.764,0,0,1-.17-.4h-.17c-.057.057-.057.17-.227.227a1.334,1.334,0,0,1-.454.113c-.283-.057-.624-.113-.85-.17a.2.2,0,0,1-.113-.057,1.265,1.265,0,0,1-.17-.794c-.057-.227-.057-.4-.113-.624a2.732,2.732,0,0,1,0-.68c0-.057.17-.113.283-.113.85-.057,1.7-.113,2.494-.17a2.251,2.251,0,0,1,1.134.113.958.958,0,0,0,.283.113c-.113.17-.227.227-.283.34.113,0,.227.057.4.057,0-.057,0-.17.057-.17a2.007,2.007,0,0,0,.907-.34c.34-.227.737-.454,1.134-.68a6.916,6.916,0,0,0-.964.4,2.119,2.119,0,0,1-1.134.227c-.057-.113-.17-.227-.17-.283s0-.17.057-.17a2.912,2.912,0,0,0,1.247-.737c.057-.057.113-.057.17-.113a1.068,1.068,0,0,1,.454.113c.4.17.51.4.283.567h0l.34.17a7.114,7.114,0,0,1,.964.624c.4.34.737.737,1.134,1.077a6.413,6.413,0,0,0,.737.567,8.334,8.334,0,0,0,.737.567.208.208,0,0,0,.17-.057,1.5,1.5,0,0,0-.34-.283c-.057-.057-.17-.113-.283-.227l-1.02-1.02a10.88,10.88,0,0,0-.85-.794c-.34-.34-.68-.68-1.02-.964a2.543,2.543,0,0,0-.964-.567c-.057,0-.113-.057-.17-.057a.958.958,0,0,1-.283-.113c-.17-.057-.283-.113-.283-.17.057-.283-.51-.567-.113-.85h0c-.17.057-.4.057-.567.113-.057,0-.057-.057-.113-.057a1.99,1.99,0,0,0,.454-.283l.227.227h0c.17,0,.4-.057.68-.057.17-.057.4-.17.68-.283-.057-.057-.113-.057-.17-.113l-.34.17h0c-.283-.113-.34-.227,0-.283.227-.057.51-.113.794-.17a.815.815,0,0,0,.17.113,15.407,15.407,0,0,0,1.757-.17,2.089,2.089,0,0,1,.85.057c.964.34,1.927.624,2.891.964.057,0,.057.057.113.057a18.532,18.532,0,0,1,1.871.794,6.262,6.262,0,0,0-.907-.17c-.51-.057-.34.17-.51.283-.057,0-.113.057-.17.057-.057.057-.057.17-.113.227a2.235,2.235,0,0,1,1.927-.17c.454.113.85.283,1.247.4,0-.057-.113-.17-.227-.227-.68-.34-1.417-.737-2.154-1.077a11.916,11.916,0,0,1-1.474-.737c-.454-.283-1.361-.454-1.3-.85h0a.208.208,0,0,1-.17-.057.783.783,0,0,0-.17.227c-.34-.283,0-.454.113-.624a.914.914,0,0,0,.227-.4c0-.113-.113-.227-.113-.34,0-.17.113-.4.113-.567h-.113c-.283.454-.567.907-.907,1.417a2.4,2.4,0,0,1-.4-.283c-.113-.113-.113-.227-.4-.34-.057,0-.113-.057-.17-.057a6.045,6.045,0,0,1-2.154-.964,4.643,4.643,0,0,0-1.3-.737.806.806,0,0,0-.34-.113h0c-.113-.057-.227-.113-.17-.17,0-.057.17-.113.34-.113.964-.113,1.871-.17,2.835-.227.907-.057,1.871-.113,2.778-.17a3.233,3.233,0,0,0,.737-.057h0a3.409,3.409,0,0,1,1.134.17c.17.057.34.17.51.227a2.014,2.014,0,0,0,.51.227c.113.057.17.057.283.113a3.177,3.177,0,0,0-.85-.567c-.34-.17-.737-.34-1.134-.567.17-.057.4-.057.567-.113l-.057-.057c-.454.057-.964.057-1.417.113a5.5,5.5,0,0,1-.964.057h-.057c-.057,0-.17-.113-.227-.113-.51-.057-1.02-.057-1.531-.113.057.113.113.17.113.227.17-.17.51-.17.907,0,.057,0,.057.057.113.057a5.976,5.976,0,0,1-2.041.17,2.161,2.161,0,0,0-.85.057c-.737,0-1.531.057-2.324.057a.429.429,0,0,1-.057-.227,2.2,2.2,0,0,0,.113-.85c-.057-.227.057-.4.567-.51h.057a1.239,1.239,0,0,1-.283-.17c-.17-.227.17-.454.85-.567.283-.057.51-.17.737-.227l-.113-.057c-.283.057-.68.057-.794.113-.17.17-.34.17-.624.17a1.57,1.57,0,0,0,.057-.51c0-.17.283-.283,0-.4a2.455,2.455,0,0,0-.283-.057V54c.737.057.283-.227.567-.4-.34,0-.51.057-.68.057,0-.057,0-.057-.057-.113-.17-.34.283-.454.68-.624a1.274,1.274,0,0,1,1.02.113c.057,0,.113.057.17.057.113.057.283.057.4.113.057,0,.113.057.227.057.113.057.227.113.227.17,0,.17.17.34.227.567s.17.454.113.624c-.057.113-.283.227-.454.34a6.022,6.022,0,0,0,1.077-.227,1.242,1.242,0,0,1,.907,0c.113.057.17.113.283.17a2.466,2.466,0,0,1,.34.4c.51-.057.34-.227.113-.34-.283-.113-.283-.227-.17-.34.057-.057.057-.057,0-.113a5.722,5.722,0,0,0-.4-.85c-.113-.227.34-.283.567-.227a12.077,12.077,0,0,1,1.417.17c.794.17,1.587.283,2.381.454.51.113,1.02.113,1.531.227.454.057.907.17,1.361.227l.057-.057C178.4,54,176.021,53.551,173.7,53.1c.057-.227.057-.34.113-.51.68.057,1.3.113,1.927.113.567,0,1.247.057,1.474-.283a3.424,3.424,0,0,1-2.154-.17,3.467,3.467,0,0,0,.68.283,7.584,7.584,0,0,1-2.154-.227c-.057,0-.057,0-.057-.057l-.17.454h0c.113.057.17.113.113.113a1.389,1.389,0,0,1-.85.057,1.748,1.748,0,0,0-.567-.057,6.976,6.976,0,0,1-1.871-.17,12.07,12.07,0,0,1-1.531-.4,1.96,1.96,0,0,1-.68-.4,3.313,3.313,0,0,1-.794-.737c-.283-.34-.567-.624-.907-.964-.17-.17-.454-.283-.68-.51.624-.057,1.191-.057,1.7-.113-.227-.057-.454-.057-.737-.113-.624-.057-1.3-.057-1.927-.113a2.126,2.126,0,0,1-.057-.567c.113,0,.17.057.283.057a1.007,1.007,0,0,0-.227-.567c-.34-.34-.057-.624-.17-.907-.057-.113,0-.227,0-.34.68-.113.794-.454.85-.85" transform="translate(-122.221 -43.29)"/>
                    <path id="Path_20487" data-name="Path 20487" class="cls-13" d="M137.341,72.6c-.057,0-.113-.057-.227-.057v.227c-.454-.227-.794-.4-1.191-.567a2.465,2.465,0,0,0-.34.4,4.015,4.015,0,0,0,.85.057c-.454.113-.794.17-1.134.283a3.908,3.908,0,0,0,.567.227,1,1,0,0,0,.283-.227h.17c.057.454.113.85.17,1.3a3.51,3.51,0,0,0,.624-.964,2.365,2.365,0,0,1,.34-.454c.113-.113.113-.17-.113-.227" transform="translate(-125.946 -55.59)"/>
                    <path id="Path_20488" data-name="Path 20488" class="cls-13" d="M134.442,52.77c-.624.113-1.247.283-1.871.4a8.226,8.226,0,0,1-1.02-.567,1.248,1.248,0,0,0-.454.057,2.31,2.31,0,0,0-.4.113,3.312,3.312,0,0,1,1.191.17,1.036,1.036,0,0,1,.454.34h-.85a3.523,3.523,0,0,0,3-.51h-.057" transform="translate(-123.954 -47.101)"/>
                    <path id="Path_20489" data-name="Path 20489" class="cls-13" d="M163.88,42.9h-.113a9.621,9.621,0,0,1-.567.794l.057.057c.057,0,.113.057.17.057.4.113.34.34.34.51,0,.057.113.057.17.113.454.17,1.02.34,1.191.624h.17a.627.627,0,0,0-.454-.51c-.057,0-.057,0-.113-.057a.2.2,0,0,1-.113-.057c-.624-.227-.85-.567-.794-.907,0-.227.057-.454.057-.624" transform="translate(-138.029 -42.9)"/>
                    <path id="Path_20490" data-name="Path 20490" class="cls-13" d="M213.906,68.5c-.057.057-.113.17-.17.227-.057.113.057.283-.057.283-.51.113-.283.283-.283.454,0,.227.227.454-.113.624-.057,0,0,.113.057.113.4.17.51.34.454.567.113-.057.17-.113.17-.227a1.41,1.41,0,0,1-.113-1.247,1.82,1.82,0,0,0,.057-.794m0,0h0" transform="translate(-159.709 -53.987)"/>
                    <path id="Path_20491" data-name="Path 20491" class="cls-13" d="M206.245,56.657a3.162,3.162,0,0,0-.737,0c-.34.113-.51.17-.68.113-.057,0-.113-.057-.17-.113-.34,0-.51-.057-.68-.057,0,.34-.794.113-1.077.227a1.239,1.239,0,0,1,.283.17,3.263,3.263,0,0,1,.567-.113,5.83,5.83,0,0,0,.964.057c.85.17,1.077-.17,1.531-.283" transform="translate(-155.223 -48.833)"/>
                    <path id="Path_20492" data-name="Path 20492" class="cls-13" d="M220.247,55.4c-.4.113-.794.17-1.247.283.113.057.283.17.51.283h-.4a1.989,1.989,0,0,1,.283.454c.057.113.057.283.113.4l.057.057a.958.958,0,0,1,.283.113,3.576,3.576,0,0,1-.227-.51c.283-.057.4-.17.057-.34-.227-.113-.227-.34.17-.454.17-.057.283-.113.454-.17l-.057-.113" transform="translate(-162.196 -48.314)"/>
                    <path id="Path_20493" data-name="Path 20493" class="cls-13" d="M213.294,50.113c-.113-.057-.4-.057-.624-.113-.057.17-.113.4-.17.567a.208.208,0,0,0,.17-.057c.283.113.567.227.964.4-.113-.17-.227-.227-.283-.34.113-.057.227-.057.283-.113a2.668,2.668,0,0,0-.283-.113c.113-.17.057-.227-.057-.227" transform="translate(-159.381 -45.975)"/>
                    <path id="Path_20494" data-name="Path 20494" class="cls-13" d="M183.178,43.5c-.51.057-.68.34-1.247.34a.176.176,0,0,1-.057.113c-.057.057-.057.17-.17.17a12.644,12.644,0,0,0-1.3.227c.4.057.85.057,1.3.113.057-.057.113-.17.17-.227.17,0,.34.057.51.057-.227-.454.567-.51.794-.794" transform="translate(-145.479 -43.16)"/>
                    <path id="Path_20495" data-name="Path 20495" class="cls-13" d="M222.468,69.46c-.34-.057-.794-.057-1.077-.113-.737-.227-.68-.283-1.191-.057.794.17,1.644.283,2.438.454a1.24,1.24,0,0,0-.17-.283" transform="translate(-162.716 -54.267)"/>
                    <path id="Path_20496" data-name="Path 20496" class="cls-13" d="M226.9,68.61h0m2.211-.51c-.51.057-1.02.113-1.474.17h-.68v.34c.4-.34.567-.34,1.417-.227h.454c.17,0,.4-.057.567-.057a.566.566,0,0,1-.283-.227" transform="translate(-165.617 -53.814)"/>
                    <path id="Path_20497" data-name="Path 20497" class="cls-13" d="M183.144,45.651c-.283,0-.567.057-.907.057.057-.057.113-.113.113-.17.057-.057.113-.057.113-.113-1.02-.283-.794.113-.964.283a2.265,2.265,0,0,0,1.644-.057m.057,0h0" transform="translate(-145.955 -43.95)"/>
                    <path id="Path_20498" data-name="Path 20498" class="cls-13" d="M127.171,49.465a6.83,6.83,0,0,0-1.871.057,5.938,5.938,0,0,1,.624.454c-.34-.51.737-.4,1.247-.51" transform="translate(-121.615 -45.723)"/>
                    <path id="Path_20499" data-name="Path 20499" class="cls-13" d="M209.1,79.7c0,.17.454.454,1.02.68a5.793,5.793,0,0,0,1.531.34,5.979,5.979,0,0,1-1.077-.283A7.165,7.165,0,0,1,209.1,79.7" transform="translate(-157.908 -58.838)"/>
                    <path id="Path_20500" data-name="Path 20500" class="cls-13" d="M226.061,69.1c-.17.057-.34.057-.454.113a2.661,2.661,0,0,0-.51.34c.057,0,.17.113.283.17-.17.057-.4.113-.227.17a1.153,1.153,0,0,0,.283.057,1.24,1.24,0,0,1,.17-.283c.17-.227.34-.4.454-.567m.057,0h0" transform="translate(-164.835 -54.247)"/>
                    <path id="Path_20501" data-name="Path 20501" class="cls-13" d="M216.247,55.3h-.17c0,.34-.34.51-1.077.624.057,0,.113.057.17.057.51-.057,1.02-.113,1.587-.17-.17-.057-.4-.057-.624-.113a1.442,1.442,0,0,0,.113-.4" transform="translate(-160.464 -48.27)"/>
                    <path id="Path_20502" data-name="Path 20502" class="cls-13" d="M217.81,54.8c-.17,0-.34.057-.51.057a3.421,3.421,0,0,1,.454.454c.113,0,.283-.057.4-.057.113-.057.17-.113.113-.17a3.165,3.165,0,0,0-.454-.283" transform="translate(-161.46 -48.054)"/>
                    <path id="Path_20503" data-name="Path 20503" class="cls-13" d="M118.8,62.9c.057.283.113.624.17.907a6.026,6.026,0,0,0,.51-.624,5.9,5.9,0,0,1-.68-.283" transform="translate(-118.8 -51.562)"/>
                    <path id="Path_20504" data-name="Path 20504" class="cls-13" d="M199.1,52.068a2.106,2.106,0,0,0-1.3-.113c.624.17,1.247.283,1.871.4a1.773,1.773,0,0,0-.567-.283" transform="translate(-153.014 -46.796)"/>
                    <path id="Path_20505" data-name="Path 20505" class="cls-13" d="M132.5,64.8a2.325,2.325,0,0,0,.057.624,4.175,4.175,0,0,1,.794-.227c-.283-.113-.51-.227-.85-.4" transform="translate(-124.733 -52.385)"/>
                    <path id="Path_20506" data-name="Path 20506" class="cls-13" d="M205.974,64.713a4.715,4.715,0,0,0-.737-.113c-.057.057-.113.17-.17.17-.567-.057-.34.17-.567.227.51-.113.964-.17,1.474-.283" transform="translate(-155.916 -52.298)"/>
                    <path id="Path_20507" data-name="Path 20507" class="cls-13" d="M221.2,66.07c-.4-.057-.624-.113-.907-.17-.113.113-.283.227-.4.34.057,0,.113.057.17.057.283-.057.624-.113,1.134-.227" transform="translate(-162.586 -52.861)"/>
                    <path id="Path_20508" data-name="Path 20508" class="cls-13" d="M138.431,48.95c-.567-.227-.964.227-1.531.057.227.057.4.113.624.17a6.592,6.592,0,0,0,1.02-.227c-.057.057-.057,0-.113,0" transform="translate(-126.639 -45.492)"/>
                    <path id="Path_20509" data-name="Path 20509" class="cls-13" d="M209.775,85.5c-.17.113-.34.227-.283.34,0,.113.17.283.227.4.17,0,.4-.057.624-.057-.057,0-.113-.057-.17-.057s-.057-.057-.113-.057h0c-.34-.17-.68-.34-.283-.567" transform="translate(-158.073 -61.35)"/>
                    <path id="Path_20510" data-name="Path 20510" class="cls-13" d="M205.688,77c-.283,0-.4.057-.113.17.227.113.454.17.68.283l.51.17c.057,0,.113.057.227.057.057.057.227,0,.34,0-.057-.057-.17-.057-.227-.113-.057,0-.113-.057-.17-.057s-.113-.057-.17-.057-.113-.057-.17-.057-.057-.057-.113-.057c-.113-.057-.17-.057-.283-.113a2.456,2.456,0,0,1-.283-.057c-.113,0-.227-.057-.227-.17m0,0h0" transform="translate(-156.31 -57.668)"/>
                    <path id="Path_20511" data-name="Path 20511" class="cls-13" d="M139.7,54.3h0m1.134-.4c-.737,0-1.19.17-1.134.4.34-.113.68-.227,1.134-.4" transform="translate(-127.848 -47.664)"/>
                    <path id="Path_20512" data-name="Path 20512" class="cls-13" d="M130.574,69.383a1.131,1.131,0,0,0-.794.113,4.73,4.73,0,0,1-.68.454h0c.51-.17,1.02-.4,1.474-.567m.057,0h0" transform="translate(-123.261 -54.36)"/>
                    <path id="Path_20513" data-name="Path 20513" class="cls-13" d="M206.754,58.1c-.737.057-1.474.057-2.154.113l.057.057c.737,0,1.474-.057,2.154-.057l-.057-.113" transform="translate(-155.959 -49.483)"/>
                    <path id="Path_20514" data-name="Path 20514" class="cls-13" d="M151.557,45.1c0,.17-.057.34-.057.51.794,0,.794-.057.057-.51" transform="translate(-132.962 -43.853)"/>
                    <path id="Path_20515" data-name="Path 20515" class="cls-13" d="M184.154,45.683h0m1.077.057c-.51-.113-.964-.227-1.531-.34a3.145,3.145,0,0,1,.454.34,1.928,1.928,0,0,1,.567.057c.17-.057.34,0,.51-.057h0" transform="translate(-146.908 -43.983)"/>
                    <path id="Path_20516" data-name="Path 20516" class="cls-13" d="M204.077,53.113a.806.806,0,0,1-.34.113c-.227-.057-.51-.17-.737-.227.17.057.34.17.51.227a2.221,2.221,0,0,0,.737.113c-.057-.057-.113-.17-.17-.227" transform="translate(-155.266 -47.274)"/>
                    <path id="Path_20517" data-name="Path 20517" class="cls-13" d="M213.677,79.157a3.486,3.486,0,0,1-.794-.057c-.113.17-.17.283-.283.454.34.057.283,0,.34-.17,0-.057.227-.113.4-.17.113,0,.283,0,.34-.057h0" transform="translate(-159.424 -58.578)"/>
                    <path id="Path_20518" data-name="Path 20518" class="cls-13" d="M225.864,81c-.34.057-.624.113-.964.17l.34.34c.113,0,.17.057.283.057-.624-.4.17-.4.34-.567" transform="translate(-164.751 -59.401)"/>
                    <path id="Path_20519" data-name="Path 20519" class="cls-13" d="M214.161,84.666a2.551,2.551,0,0,0-.454-.113.573.573,0,0,0-.624.057,3.166,3.166,0,0,1-.283.454h.057c.113-.17.227-.283.34-.454.34,0,.567.057.964.057" transform="translate(-159.511 -60.913)"/>
                    <path id="Path_20520" data-name="Path 20520" class="cls-13" d="M203.34,61.9a1.153,1.153,0,0,0-.283.057.616.616,0,0,0-.057.283.208.208,0,0,1,.17.057c.057-.113.17-.17.227-.283.057,0,0-.057-.057-.113" transform="translate(-155.266 -51.129)"/>
                    <path id="Path_20521" data-name="Path 20521" class="cls-13" d="M132.6,66.1c-.17.17-.4.283-.4.4s.17.227.227.283h.057c.057-.17.057-.4.113-.68" transform="translate(-124.603 -52.948)"/>
                    <path id="Path_20522" data-name="Path 20522" class="cls-13" d="M220.827,60.3H220.6c.113.17.17.34.283.51h.283a3.976,3.976,0,0,0-.34-.51" transform="translate(-162.889 -50.436)"/>
                    <path id="Path_20523" data-name="Path 20523" class="cls-13" d="M205.857,76.61h0m.907-.51c-.34.113-.68.283-.964.4.057.057.057.113.113.113.34-.17.68-.283.964-.454l-.113-.057" transform="translate(-156.479 -57.279)"/>
                    <path id="Path_20524" data-name="Path 20524" class="cls-13" d="M125.527,54.9h-.17c0,.17-.057.283-.057.454h.34c-.057-.113-.057-.283-.113-.454" transform="translate(-121.615 -48.097)"/>
                    <path id="Path_20525" data-name="Path 20525" class="cls-13" d="M124.45,63.07c-.17-.057-.283-.113-.454-.17a1.442,1.442,0,0,1-.4.113l.057.057h.794" transform="translate(-120.879 -51.562)"/>
                    <path id="Path_20526" data-name="Path 20526" class="cls-13" d="M218.4,70.827c-.454-.057-.907-.17-1.3-.227a.3.3,0,0,0,.227.113,2.023,2.023,0,0,0,1.077.113" transform="translate(-161.373 -54.897)"/>
                    <path id="Path_20527" data-name="Path 20527" class="cls-13" d="M209.221,54c-.34.17-.283.283,0,.4a1.423,1.423,0,0,0,.567.113.806.806,0,0,1-.34-.113c-.227-.057-.34-.17-.227-.4" transform="translate(-157.859 -47.707)"/>
                    <path id="Path_20528" data-name="Path 20528" class="cls-13" d="M200.02,51.084c-.907-.057-1.02,0-1.02.227a6.592,6.592,0,0,1,1.02-.227" transform="translate(-153.534 -46.436)"/>
                    <path id="Path_20529" data-name="Path 20529" class="cls-13" d="M197.9,82.6v.454a.755.755,0,0,1,.283-.17l.17.17c.113,0,.17-.057.227-.057a5.481,5.481,0,0,0-.68-.4" transform="translate(-153.058 -60.094)"/>
                    <path id="Path_20530" data-name="Path 20530" class="cls-13" d="M205,90.064a.593.593,0,0,0-.624.113.341.341,0,0,1-.227.057c-.454.057-.4.17-.057.283.227.113.113.454,0,.454l.227.227c.85.057,1.02-.4.624-.794.4-.057.567-.17.17-.34H205" transform="translate(-155.624 -63.306)"/>
                    <path id="Path_20531" data-name="Path 20531" class="cls-13" d="M176.714,95.627c-.057,0-.113-.057-.227-.057-.113.113-.17.227-.34.4-.4-.17-.794-.4-1.247-.567a1.533,1.533,0,0,0,.737.51c.113.057.283.057.4.113a.806.806,0,0,1,.34.113c.227.057.283.17.4.34a1.036,1.036,0,0,0,.454.34,3.27,3.27,0,0,0,.794.17c.227-.283.227-.283-.283-.51l-.34-.17c-.17-.057-.34-.17-.624-.283.17-.227.17-.34-.057-.4" transform="translate(-143.096 -65.637)"/>
                    <path id="Path_20532" data-name="Path 20532" class="cls-13" d="M214.167,93.257a2.455,2.455,0,0,0-.283-.057,5.227,5.227,0,0,0-.283.454c.17.113.51.17.51.283a1.792,1.792,0,0,0,.794.567h.057c.113.057.34.057.51.113l.227-.113a1.189,1.189,0,0,0-.34-.454,2.463,2.463,0,0,0-.4-.227c-.057,0-.113-.057-.227-.057l-.51-.17c.17-.113.17-.283-.057-.34" transform="translate(-159.857 -64.685)"/>
                    <path id="Path_20533" data-name="Path 20533" class="cls-13" d="M201.135,95.77c-.454-.057-.907-.113-1.3-.17a1.236,1.236,0,0,0-.227.283,4.988,4.988,0,0,1-.567-.283c.454.51-.34.68-.737.964.51-.057.68-.34,1.3-.34l.057-.057c.057-.227.4-.34.964-.34a1.569,1.569,0,0,1,.51.057V95.77" transform="translate(-153.231 -65.724)"/>
                    <path id="Path_20534" data-name="Path 20534" class="cls-13" d="M199.921,94.643a2.6,2.6,0,0,0-1.587.113h0c.283,0,.624-.057.907-.057-.34.227-.51.283-.737.227-.057,0-.113-.057-.227-.113h0c-.34-.057-.737-.057-1.077-.113v.057c.454.113.964.227,1.417.34.227-.283.85.113,1.134,0a1.919,1.919,0,0,1,.17-.454" transform="translate(-152.754 -65.277)"/>
                    <path id="Path_20535" data-name="Path 20535" class="cls-13" d="M177.541,91.5c-.794.227-1.417.454-2.041.624a6.861,6.861,0,0,0,2.041-.4c.057,0,0-.113,0-.227" transform="translate(-143.356 -63.948)"/>
                    <path id="Path_20536" data-name="Path 20536" class="cls-13" d="M188.835,89.84A7.951,7.951,0,0,0,186,89.5c.907.113,1.814.227,2.835.34h0" transform="translate(-147.904 -63.082)"/>
                    <path id="Path_20537" data-name="Path 20537" class="cls-13" d="M126.857,78.9h-1.02c-.227.227.113.567-.737.624.227,0,.4.057.68.057a.425.425,0,0,1,.057-.283c.057-.113,0-.283.51-.283a.544.544,0,0,0,.51-.113h0" transform="translate(-121.528 -58.491)"/>
                    <path id="Path_20538" data-name="Path 20538" class="cls-13" d="M208.87,90.1c-.057.227-.113.4-.17.624h.624a3.367,3.367,0,0,1-.454-.624" transform="translate(-157.735 -63.342)"/>
                    <path id="Path_20539" data-name="Path 20539" class="cls-13" d="M179.7,92.3a2.76,2.76,0,0,1,.057.68c.454-.4.454-.454-.057-.68" transform="translate(-145.175 -64.295)"/>
                    <path id="Path_20540" data-name="Path 20540" class="cls-13" d="M197,89h0m.964.283c-.4-.113-.68-.17-.964-.283,0,.113,0,.17.113.227a2.591,2.591,0,0,0,.85.057" transform="translate(-152.668 -62.866)"/>
                    <path id="Path_20541" data-name="Path 20541" class="cls-13" d="M194.757,98.9c-.68.113-.794.4-.17.624-.567-.283-.057-.4.17-.624" transform="translate(-151.445 -67.153)"/>
                    <path id="Path_20542" data-name="Path 20542" class="cls-13" d="M195.194,98.435a.959.959,0,0,0-.794,0c.227.057.4.113.624.17l-.113-.113a.616.616,0,0,1,.283-.057" transform="translate(-151.542 -66.915)"/>
                    <path id="Path_20543" data-name="Path 20543" class="cls-13" d="M209.755,91.4c-.113.17-.057.283.113.34.113.057.283.057.454.113h0a1.184,1.184,0,0,0-.567-.454" transform="translate(-158.166 -63.905)"/>
                    <path id="Path_20544" data-name="Path 20544" class="cls-13" d="M210.8,92.15h0m.567,0a.659.659,0,0,0-.567,0c.227.113.4.17.737.34.057-.113.113-.227.057-.227h-.057c-.057,0-.057,0-.113-.057a.056.056,0,0,0-.057-.057" transform="translate(-158.645 -64.201)"/>
                  </g>
                </g>
              </g>
            </g>
          </g>
        </g>
      </g>
      <g id="Group_4500" data-name="Group 4500" transform="translate(108.393 48.187)">
        <path id="Path_20546" data-name="Path 20546" class="cls-14" d="M291.629,173.154,191.4,129.275,291.913,85l100.8,43.992Z" transform="translate(-191.287 -85)"/>
        <path id="Path_20547" data-name="Path 20547" class="cls-15" d="M366.351,202.028,363.8,200.95l92.066-40.25,2.494,1.077Z" transform="translate(-265.952 -117.785)"/>
        <path id="Path_20548" data-name="Path 20548" class="cls-15" d="M282.308,189.415l-2.608-1.077,21.826-9.637,2.494,1.077Z" transform="translate(-229.529 -125.581)"/>
        <path id="Path_20549" data-name="Path 20549" class="cls-15" d="M344.351,162.415l-2.551-1.134,21.769-9.581,2.494,1.077Z" transform="translate(-256.424 -113.887)"/>
        <path id="Path_20550" data-name="Path 20550" class="cls-15" d="M406.264,135.415l-2.664-1.134,21.883-9.581,2.494,1.077Z" transform="translate(-283.189 -102.194)"/>
        <path id="Path_20551" data-name="Path 20551" class="cls-15" d="M209.438,133.028,207,131.894,298.952,91.7l2.494,1.077Z" transform="translate(-198.043 -87.902)"/>
        <path id="Path_20552" data-name="Path 20552" class="cls-16" d="M291.543,250.914,191.2,206.979V163.1l100.343,43.879Z" transform="translate(-191.2 -118.825)"/>
        <path id="Path_20553" data-name="Path 20553" class="cls-17" d="M368.2,250.527l102.043-44.786L469.28,162.6,368.2,206.762Z" transform="translate(-267.857 -118.608)"/>
        <path id="Path_20554" data-name="Path 20554" class="cls-18" d="M289.047,109.5a7.16,7.16,0,0,1,.794,3.231c0,6.8-10.431,12.3-23.243,12.3a40.281,40.281,0,0,1-9.3-1.02" transform="translate(-219.827 -95.611)"/>
      </g>
      <g id="Group_4501" data-name="Group 4501" transform="translate(138.269 11.055)">
        <ellipse id="Ellipse_2375" data-name="Ellipse 2375" class="cls-19" cx="16.894" cy="8.56" rx="16.894" ry="8.56" transform="translate(0 45.012)"/>
        <ellipse id="Ellipse_2376" data-name="Ellipse 2376" class="cls-19" cx="16.894" cy="8.56" rx="16.894" ry="8.56" transform="translate(0 44.956)"/>
        <ellipse id="Ellipse_2377" data-name="Ellipse 2377" class="cls-19" cx="16.894" cy="8.56" rx="16.894" ry="8.56" transform="translate(0 44.842)"/>
        <ellipse id="Ellipse_2378" data-name="Ellipse 2378" class="cls-19" cx="16.894" cy="8.56" rx="16.894" ry="8.56" transform="translate(0 44.729)"/>
        <ellipse id="Ellipse_2379" data-name="Ellipse 2379" class="cls-19" cx="16.894" cy="8.56" rx="16.894" ry="8.56" transform="translate(0 44.672)"/>
        <ellipse id="Ellipse_2380" data-name="Ellipse 2380" class="cls-19" cx="16.894" cy="8.56" rx="16.894" ry="8.56" transform="translate(0 44.559)"/>
        <ellipse id="Ellipse_2381" data-name="Ellipse 2381" class="cls-19" cx="16.894" cy="8.56" rx="16.894" ry="8.56" transform="translate(0 44.446)"/>
        <ellipse id="Ellipse_2382" data-name="Ellipse 2382" class="cls-19" cx="16.894" cy="8.56" rx="16.894" ry="8.56" transform="translate(0 44.389)"/>
        <ellipse id="Ellipse_2383" data-name="Ellipse 2383" class="cls-19" cx="16.894" cy="8.56" rx="16.894" ry="8.56" transform="translate(0 44.275)"/>
        <ellipse id="Ellipse_2384" data-name="Ellipse 2384" class="cls-19" cx="16.894" cy="8.56" rx="16.894" ry="8.56" transform="translate(0 44.162)"/>
        <ellipse id="Ellipse_2385" data-name="Ellipse 2385" class="cls-19" cx="16.894" cy="8.56" rx="16.894" ry="8.56" transform="translate(0 44.105)"/>
        <ellipse id="Ellipse_2386" data-name="Ellipse 2386" class="cls-19" cx="16.894" cy="8.56" rx="16.894" ry="8.56" transform="translate(0 43.992)"/>
        <ellipse id="Ellipse_2387" data-name="Ellipse 2387" class="cls-19" cx="16.894" cy="8.56" rx="16.894" ry="8.56" transform="translate(0 43.879)"/>
        <ellipse id="Ellipse_2388" data-name="Ellipse 2388" class="cls-19" cx="16.894" cy="8.56" rx="16.894" ry="8.56" transform="translate(0 43.822)"/>
        <ellipse id="Ellipse_2389" data-name="Ellipse 2389" class="cls-19" cx="16.894" cy="8.56" rx="16.894" ry="8.56" transform="translate(0 43.709)"/>
        <ellipse id="Ellipse_2390" data-name="Ellipse 2390" class="cls-19" cx="16.894" cy="8.56" rx="16.894" ry="8.56" transform="translate(0 43.595)"/>
        <ellipse id="Ellipse_2391" data-name="Ellipse 2391" class="cls-19" cx="16.894" cy="8.56" rx="16.894" ry="8.56" transform="translate(0 43.538)"/>
        <ellipse id="Ellipse_2392" data-name="Ellipse 2392" class="cls-19" cx="16.894" cy="8.56" rx="16.894" ry="8.56" transform="translate(0 43.425)"/>
        <ellipse id="Ellipse_2393" data-name="Ellipse 2393" class="cls-19" cx="16.894" cy="8.56" rx="16.894" ry="8.56" transform="translate(0 43.312)"/>
        <ellipse id="Ellipse_2394" data-name="Ellipse 2394" class="cls-19" cx="16.894" cy="8.56" rx="16.894" ry="8.56" transform="translate(0 43.255)"/>
        <ellipse id="Ellipse_2395" data-name="Ellipse 2395" class="cls-19" cx="16.894" cy="8.56" rx="16.894" ry="8.56" transform="translate(0 43.142)"/>
        <ellipse id="Ellipse_2396" data-name="Ellipse 2396" class="cls-19" cx="16.894" cy="8.56" rx="16.894" ry="8.56" transform="translate(0 43.028)"/>
        <ellipse id="Ellipse_2397" data-name="Ellipse 2397" class="cls-20" cx="16.894" cy="8.56" rx="16.894" ry="8.56" transform="translate(0 43.028)"/>
        <ellipse id="Ellipse_2398" data-name="Ellipse 2398" class="cls-21" cx="16.894" cy="8.56" rx="16.894" ry="8.56" transform="translate(0 43.028)"/>
        <ellipse id="Ellipse_2399" data-name="Ellipse 2399" class="cls-22" cx="16.894" cy="8.56" rx="16.894" ry="8.56" transform="translate(0 43.028)"/>
        <ellipse id="Ellipse_2400" data-name="Ellipse 2400" class="cls-23" cx="16.894" cy="8.56" rx="16.894" ry="8.56" transform="translate(0 43.028)"/>
        <ellipse id="Ellipse_2401" data-name="Ellipse 2401" class="cls-24" cx="16.894" cy="8.56" rx="16.894" ry="8.56" transform="translate(0 43.028)"/>
        <ellipse id="Ellipse_2402" data-name="Ellipse 2402" class="cls-25" cx="16.894" cy="8.56" rx="16.894" ry="8.56" transform="translate(0 43.028)"/>
        <ellipse id="Ellipse_2403" data-name="Ellipse 2403" class="cls-26" cx="16.894" cy="8.56" rx="16.894" ry="8.56" transform="translate(0 43.028)"/>
        <ellipse id="Ellipse_2404" data-name="Ellipse 2404" class="cls-27" cx="16.894" cy="8.56" rx="16.894" ry="8.56" transform="translate(0 43.028)"/>
        <ellipse id="Ellipse_2405" data-name="Ellipse 2405" class="cls-28" cx="16.894" cy="8.56" rx="16.894" ry="8.56" transform="translate(0 43.028)"/>
        <ellipse id="Ellipse_2406" data-name="Ellipse 2406" class="cls-29" cx="16.894" cy="8.56" rx="16.894" ry="8.56" transform="translate(0 43.028)"/>
        <ellipse id="Ellipse_2407" data-name="Ellipse 2407" class="cls-30" cx="16.894" cy="8.56" rx="16.894" ry="8.56" transform="translate(0 43.028)"/>
        <ellipse id="Ellipse_2408" data-name="Ellipse 2408" class="cls-31" cx="16.894" cy="8.56" rx="16.894" ry="8.56" transform="translate(0 43.028)"/>
        <ellipse id="Ellipse_2409" data-name="Ellipse 2409" class="cls-32" cx="16.894" cy="8.56" rx="16.894" ry="8.56" transform="translate(0 43.028)"/>
        <ellipse id="Ellipse_2410" data-name="Ellipse 2410" class="cls-33" cx="16.894" cy="8.56" rx="16.894" ry="8.56" transform="translate(0 43.028)"/>
        <ellipse id="Ellipse_2411" data-name="Ellipse 2411" class="cls-34" cx="16.894" cy="8.56" rx="16.894" ry="8.56" transform="translate(0 43.028)"/>
        <ellipse id="Ellipse_2412" data-name="Ellipse 2412" class="cls-35" cx="16.894" cy="8.56" rx="16.894" ry="8.56" transform="translate(0 43.028)"/>
        <ellipse id="Ellipse_2413" data-name="Ellipse 2413" class="cls-36" cx="16.894" cy="8.56" rx="16.894" ry="8.56" transform="translate(0 43.028)"/>
        <ellipse id="Ellipse_2414" data-name="Ellipse 2414" class="cls-37" cx="16.894" cy="8.56" rx="16.894" ry="8.56" transform="translate(0 43.028)"/>
        <ellipse id="Ellipse_2415" data-name="Ellipse 2415" class="cls-38" cx="16.894" cy="8.56" rx="16.894" ry="8.56" transform="translate(0 43.028)"/>
        <ellipse id="Ellipse_2416" data-name="Ellipse 2416" class="cls-39" cx="16.894" cy="8.56" rx="16.894" ry="8.56" transform="translate(0 43.028)"/>
        <ellipse id="Ellipse_2417" data-name="Ellipse 2417" class="cls-40" cx="16.894" cy="8.56" rx="16.894" ry="8.56" transform="translate(0 43.028)"/>
        <ellipse id="Ellipse_2418" data-name="Ellipse 2418" class="cls-41" cx="16.724" cy="8.447" rx="16.724" ry="8.447" transform="translate(0.17 43.085)"/>
        <ellipse id="Ellipse_2419" data-name="Ellipse 2419" class="cls-42" cx="16.497" cy="8.39" rx="16.497" ry="8.39" transform="translate(0.397 43.085)"/>
        <ellipse id="Ellipse_2420" data-name="Ellipse 2420" class="cls-43" cx="16.327" cy="8.277" rx="16.327" ry="8.277" transform="translate(0.567 43.085)"/>
        <ellipse id="Ellipse_2421" data-name="Ellipse 2421" class="cls-44" cx="16.157" cy="8.22" rx="16.157" ry="8.22" transform="translate(0.737 43.085)"/>
        <ellipse id="Ellipse_2422" data-name="Ellipse 2422" class="cls-45" cx="15.93" cy="8.107" rx="15.93" ry="8.107" transform="translate(0.964 43.085)"/>
        <ellipse id="Ellipse_2423" data-name="Ellipse 2423" class="cls-46" cx="15.76" cy="8.05" rx="15.76" ry="8.05" transform="translate(1.134 43.085)"/>
        <ellipse id="Ellipse_2424" data-name="Ellipse 2424" class="cls-47" cx="15.59" cy="7.993" rx="15.59" ry="7.993" transform="translate(1.304 43.028)"/>
        <ellipse id="Ellipse_2425" data-name="Ellipse 2425" class="cls-48" cx="15.42" cy="7.88" rx="15.42" ry="7.88" transform="translate(1.474 43.085)"/>
        <ellipse id="Ellipse_2426" data-name="Ellipse 2426" class="cls-49" cx="15.193" cy="7.823" rx="15.193" ry="7.823" transform="translate(1.701 43.028)"/>
        <ellipse id="Ellipse_2427" data-name="Ellipse 2427" class="cls-50" cx="15.023" cy="7.71" rx="15.023" ry="7.71" transform="translate(1.871 43.085)"/>
        <ellipse id="Ellipse_2428" data-name="Ellipse 2428" class="cls-51" cx="14.853" cy="7.653" rx="14.853" ry="7.653" transform="translate(2.041 43.028)"/>
        <ellipse id="Ellipse_2429" data-name="Ellipse 2429" class="cls-52" cx="14.626" cy="7.54" rx="14.626" ry="7.54" transform="translate(2.268 43.085)"/>
        <ellipse id="Ellipse_2430" data-name="Ellipse 2430" class="cls-53" cx="14.456" cy="7.483" rx="14.456" ry="7.483" transform="translate(2.438 43.028)"/>
        <ellipse id="Ellipse_2431" data-name="Ellipse 2431" class="cls-54" cx="14.286" cy="7.426" rx="14.286" ry="7.426" transform="translate(2.608 43.028)"/>
        <ellipse id="Ellipse_2432" data-name="Ellipse 2432" class="cls-55" cx="14.059" cy="7.313" rx="14.059" ry="7.313" transform="translate(2.835 43.028)"/>
        <ellipse id="Ellipse_2433" data-name="Ellipse 2433" class="cls-56" cx="13.889" cy="7.256" rx="13.889" ry="7.256" transform="translate(3.005 43.028)"/>
        <ellipse id="Ellipse_2434" data-name="Ellipse 2434" class="cls-57" cx="13.719" cy="7.143" rx="13.719" ry="7.143" transform="translate(3.175 43.028)"/>
        <ellipse id="Ellipse_2435" data-name="Ellipse 2435" class="cls-58" cx="13.492" cy="7.086" rx="13.492" ry="7.086" transform="translate(3.401 43.028)"/>
        <ellipse id="Ellipse_2436" data-name="Ellipse 2436" class="cls-59" cx="13.322" cy="6.973" rx="13.322" ry="6.973" transform="translate(3.572 43.028)"/>
        <ellipse id="Ellipse_2437" data-name="Ellipse 2437" class="cls-60" cx="13.152" cy="6.916" rx="13.152" ry="6.916" transform="translate(3.742 43.028)"/>
        <ellipse id="Ellipse_2438" data-name="Ellipse 2438" class="cls-4" cx="12.925" cy="6.86" rx="12.925" ry="6.86" transform="translate(3.968 42.972)"/>
        <ellipse id="Ellipse_2439" data-name="Ellipse 2439" class="cls-61" cx="12.925" cy="6.86" rx="12.925" ry="6.86" transform="translate(3.968 42.972)"/>
        <ellipse id="Ellipse_2440" data-name="Ellipse 2440" class="cls-62" cx="12.925" cy="6.86" rx="12.925" ry="6.86" transform="translate(3.968 42.972)"/>
        <ellipse id="Ellipse_2441" data-name="Ellipse 2441" class="cls-63" cx="12.925" cy="6.86" rx="12.925" ry="6.86" transform="translate(3.968 42.972)"/>
        <ellipse id="Ellipse_2442" data-name="Ellipse 2442" class="cls-64" cx="12.925" cy="6.86" rx="12.925" ry="6.86" transform="translate(3.968 42.972)"/>
        <ellipse id="Ellipse_2443" data-name="Ellipse 2443" class="cls-65" cx="12.925" cy="6.86" rx="12.925" ry="6.86" transform="translate(3.968 42.972)"/>
        <ellipse id="Ellipse_2444" data-name="Ellipse 2444" class="cls-66" cx="12.925" cy="6.86" rx="12.925" ry="6.86" transform="translate(3.968 42.972)"/>
        <ellipse id="Ellipse_2445" data-name="Ellipse 2445" class="cls-67" cx="12.925" cy="6.86" rx="12.925" ry="6.86" transform="translate(3.968 42.972)"/>
        <ellipse id="Ellipse_2446" data-name="Ellipse 2446" class="cls-68" cx="12.925" cy="6.86" rx="12.925" ry="6.86" transform="translate(3.968 42.972)"/>
        <ellipse id="Ellipse_2447" data-name="Ellipse 2447" class="cls-69" cx="12.925" cy="6.86" rx="12.925" ry="6.86" transform="translate(3.968 42.972)"/>
        <ellipse id="Ellipse_2448" data-name="Ellipse 2448" class="cls-70" cx="12.925" cy="6.86" rx="12.925" ry="6.86" transform="translate(3.968 42.972)"/>
        <ellipse id="Ellipse_2449" data-name="Ellipse 2449" class="cls-71" cx="12.925" cy="6.86" rx="12.925" ry="6.86" transform="translate(3.968 42.972)"/>
        <ellipse id="Ellipse_2450" data-name="Ellipse 2450" class="cls-72" cx="12.925" cy="6.86" rx="12.925" ry="6.86" transform="translate(3.968 42.972)"/>
        <ellipse id="Ellipse_2451" data-name="Ellipse 2451" class="cls-73" cx="12.925" cy="6.86" rx="12.925" ry="6.86" transform="translate(3.968 42.972)"/>
        <ellipse id="Ellipse_2452" data-name="Ellipse 2452" class="cls-74" cx="12.925" cy="6.86" rx="12.925" ry="6.86" transform="translate(3.968 42.972)"/>
        <ellipse id="Ellipse_2453" data-name="Ellipse 2453" class="cls-75" cx="12.925" cy="6.86" rx="12.925" ry="6.86" transform="translate(3.968 42.972)"/>
        <ellipse id="Ellipse_2454" data-name="Ellipse 2454" class="cls-76" cx="12.925" cy="6.86" rx="12.925" ry="6.86" transform="translate(3.968 42.972)"/>
        <ellipse id="Ellipse_2455" data-name="Ellipse 2455" class="cls-77" cx="12.925" cy="6.86" rx="12.925" ry="6.86" transform="translate(3.968 42.972)"/>
        <ellipse id="Ellipse_2456" data-name="Ellipse 2456" class="cls-78" cx="12.925" cy="6.86" rx="12.925" ry="6.86" transform="translate(3.968 42.972)"/>
        <ellipse id="Ellipse_2457" data-name="Ellipse 2457" class="cls-79" cx="12.925" cy="6.86" rx="12.925" ry="6.86" transform="translate(3.968 42.972)"/>
        <ellipse id="Ellipse_2458" data-name="Ellipse 2458" class="cls-80" cx="12.925" cy="6.86" rx="12.925" ry="6.86" transform="translate(3.968 42.972)"/>
        <ellipse id="Ellipse_2459" data-name="Ellipse 2459" class="cls-19" cx="12.925" cy="6.86" rx="12.925" ry="6.86" transform="translate(3.968 42.972)"/>
        <ellipse id="Ellipse_2460" data-name="Ellipse 2460" class="cls-19" cx="12.529" cy="6.633" rx="12.529" ry="6.633" transform="translate(4.365 40.931)"/>
        <ellipse id="Ellipse_2461" data-name="Ellipse 2461" class="cls-19" cx="12.075" cy="6.406" rx="12.075" ry="6.406" transform="translate(4.819 38.947)"/>
        <ellipse id="Ellipse_2462" data-name="Ellipse 2462" class="cls-19" cx="11.622" cy="6.179" rx="11.622" ry="6.179" transform="translate(5.272 36.906)"/>
        <ellipse id="Ellipse_2463" data-name="Ellipse 2463" class="cls-19" cx="11.225" cy="6.009" rx="11.225" ry="6.009" transform="translate(5.669 34.808)"/>
        <ellipse id="Ellipse_2464" data-name="Ellipse 2464" class="cls-19" cx="10.771" cy="5.782" rx="10.771" ry="5.782" transform="translate(6.123 32.767)"/>
        <ellipse id="Ellipse_2465" data-name="Ellipse 2465" class="cls-19" cx="10.318" cy="5.556" rx="10.318" ry="5.556" transform="translate(6.576 30.726)"/>
        <ellipse id="Ellipse_2466" data-name="Ellipse 2466" class="cls-19" cx="9.921" cy="5.329" rx="9.921" ry="5.329" transform="translate(6.973 28.686)"/>
        <ellipse id="Ellipse_2467" data-name="Ellipse 2467" class="cls-44" cx="9.467" cy="5.159" rx="9.467" ry="5.159" transform="translate(7.426 26.588)"/>
        <ellipse id="Ellipse_2468" data-name="Ellipse 2468" class="cls-44" cx="9.014" cy="4.932" rx="9.014" ry="4.932" transform="translate(7.88 24.547)"/>
        <ellipse id="Ellipse_2469" data-name="Ellipse 2469" class="cls-44" cx="8.617" cy="4.705" rx="8.617" ry="4.705" transform="translate(8.277 22.563)"/>
        <ellipse id="Ellipse_2470" data-name="Ellipse 2470" class="cls-44" cx="8.163" cy="4.479" rx="8.163" ry="4.479" transform="translate(8.73 20.522)"/>
        <ellipse id="Ellipse_2471" data-name="Ellipse 2471" class="cls-44" cx="7.71" cy="4.308" rx="7.71" ry="4.308" transform="translate(9.184 18.424)"/>
        <ellipse id="Ellipse_2472" data-name="Ellipse 2472" class="cls-19" cx="7.313" cy="4.082" rx="7.313" ry="4.082" transform="translate(9.581 16.384)"/>
        <ellipse id="Ellipse_2473" data-name="Ellipse 2473" class="cls-19" cx="6.86" cy="3.855" rx="6.86" ry="3.855" transform="translate(10.034 14.343)"/>
        <ellipse id="Ellipse_2474" data-name="Ellipse 2474" class="cls-19" cx="6.406" cy="3.685" rx="6.406" ry="3.685" transform="translate(10.488 12.245)"/>
        <ellipse id="Ellipse_2475" data-name="Ellipse 2475" class="cls-19" cx="6.009" cy="3.458" rx="6.009" ry="3.458" transform="translate(10.885 10.204)"/>
        <ellipse id="Ellipse_2476" data-name="Ellipse 2476" class="cls-19" cx="5.556" cy="3.231" rx="5.556" ry="3.231" transform="translate(11.338 8.22)"/>
        <ellipse id="Ellipse_2477" data-name="Ellipse 2477" class="cls-19" cx="5.102" cy="3.005" rx="5.102" ry="3.005" transform="translate(11.792 6.179)"/>
        <ellipse id="Ellipse_2478" data-name="Ellipse 2478" class="cls-19" cx="4.705" cy="2.835" rx="4.705" ry="2.835" transform="translate(12.189 4.082)"/>
        <ellipse id="Ellipse_2479" data-name="Ellipse 2479" class="cls-19" cx="4.252" cy="2.608" rx="4.252" ry="2.608" transform="translate(12.642 2.041)"/>
        <ellipse id="Ellipse_2480" data-name="Ellipse 2480" class="cls-19" cx="3.798" cy="2.381" rx="3.798" ry="2.381" transform="translate(13.096)"/>
      </g>
    </g>
  </g>
</svg>
