<svg xmlns="http://www.w3.org/2000/svg" xmlns:xlink="http://www.w3.org/1999/xlink" viewBox="0 0 320.801 439.1">
  <defs>
    <style>
      .cls-1 {
        fill: #f6d67f;
      }

      .cls-2, .cls-3, .cls-5 {
        fill: #fff;
      }

      .cls-2 {
        font-size: 15.65px;
      }

      .cls-2, .cls-3 {
        font-family: BlackadderITC-Regular, Blackadder ITC;
      }

      .cls-3 {
        font-size: 11.12px;
      }

      .cls-4 {
        fill: #e40012;
      }

      .cls-6 {
        fill: #e4a220;
      }

      .cls-13, .cls-16, .cls-7, .cls-9 {
        fill: none;
        stroke-miterlimit: 10;
      }

      .cls-7 {
        stroke: #e40012;
      }

      .cls-7, .cls-9 {
        stroke-width: 1.463px;
      }

      .cls-8 {
        opacity: 0.6;
      }

      .cls-9 {
        stroke: #fff;
      }

      .cls-10 {
        clip-path: url(#clip-path);
      }

      .cls-11 {
        fill: #9d9d9e;
      }

      .cls-12 {
        fill: #cd191b;
      }

      .cls-13, .cls-16 {
        stroke: #9d9d9e;
        stroke-linecap: round;
        stroke-linejoin: round;
      }

      .cls-13 {
        stroke-width: 0.585px;
      }

      .cls-14 {
        clip-path: url(#clip-path-3);
      }

      .cls-15 {
        clip-path: url(#clip-path-4);
      }

      .cls-16 {
        stroke-width: 0.293px;
      }

      .cls-17 {
        clip-path: url(#clip-path-5);
      }

      .cls-18 {
        clip-path: url(#clip-path-7);
      }

      .cls-19 {
        clip-path: url(#clip-path-8);
      }
    </style>
    <clipPath id="clip-path">
      <path id="Path_1634" data-name="Path 1634" d="M896.5,989.1a68.539,68.539,0,0,0,3.1-6.6c.3-.7,3.2,3.2,5.6,5.9,2,2.2,17.4.7,18.7-.7,1.7-1.9,6.9-9.2,7.2-10.6.3-1.3-4.8-11.9-11.9-13.9-7.2-2-16.3,4.7-16.3,3.1.3-5.5.3-10.1-1.7-16.5,2.1,8.3,2,12.6,1.4,17.3-.4,3-2.4,3.8-3.4,6.6-.6,1.7.7,6.6.3,8.3a42.807,42.807,0,0,1-3.2,7.3A.215.215,0,0,1,896.5,989.1Z"/>
    </clipPath>
    <clipPath id="clip-path-3">
      <ellipse id="Ellipse_318" data-name="Ellipse 318" cx="1.2" cy="0.7" rx="1.2" ry="0.7" transform="matrix(0.152, -0.988, 0.988, 0.152, 0.717, 1.979)"/>
    </clipPath>
    <clipPath id="clip-path-4">
      <ellipse id="Ellipse_319" data-name="Ellipse 319" cx="1.2" cy="0.7" rx="1.2" ry="0.7" transform="matrix(0.152, -0.988, 0.988, 0.152, 911.317, 972.479)"/>
    </clipPath>
    <clipPath id="clip-path-5">
      <path id="Path_1647" data-name="Path 1647" d="M901.6,911.2a55.258,55.258,0,0,0-4.2-6c-.5-.6,4.4-1.1,7.9-1.9,2.9-.7,9.3-14.7,8.7-16.6-.7-2.4-4.5-10.6-5.5-11.6-1-.9-12.7-1.8-18,3.3-5.3,5.2-4.1,16.5-5.5,15.6-4.6-3-8.6-5.3-15.1-6.8,8.2,2.3,11.9,4.6,15.6,7.5,2.4,1.9,2.1,4,4,6.3,1.2,1.4,6.1,2.7,7.3,3.9a43.94,43.94,0,0,1,4.7,6.4C901.7,911.4,901.6,911.2,901.6,911.2Z"/>
    </clipPath>
    <clipPath id="clip-path-7">
      <path id="Path_1654" data-name="Path 1654" d="M893.3,887.9c-.2.3,0,.9.5,1.3a1.326,1.326,0,0,0,1.4.3c.2-.3,0-.9-.5-1.3S893.5,887.6,893.3,887.9Z"/>
    </clipPath>
    <clipPath id="clip-path-8">
      <path id="Path_1655" data-name="Path 1655" d="M893.3,887.9c-.2.3,0,.9.5,1.3a1.326,1.326,0,0,0,1.4.3c.2-.3,0-.9-.5-1.3S893.5,887.6,893.3,887.9Z" transform="translate(-893.4 -887.7)"/>
    </clipPath>
  </defs>
  <g id="_014" data-name="014" transform="translate(-1103.389 -2286.07)">
    <rect id="Rectangle_691" data-name="Rectangle 691" class="cls-1" width="320.8" height="439.1" transform="translate(1103.389 2286.07)"/>
    <g id="Group" transform="translate(390.889 1536.47)">
      <text id="Staying_up_late_" data-name="Staying up late " class="cls-2" transform="translate(832.195 1091.92)"><tspan x="0" y="0">Staying up late </tspan></text>
      <text id="It_s_not_only_bursting_your_liver_" data-name="It&apos;s not only bursting your liver " class="cls-3" transform="translate(816.595 1105.32)"><tspan x="0" y="0">It&apos;s not only bursting your liver </tspan></text>
      <text id="but_also_your_brain" data-name="but also your brain" class="cls-3" transform="translate(840.695 1118.62)"><tspan x="0" y="0">but also your brain</tspan></text>
    </g>
    <g id="Group_1791" data-name="Group 1791" transform="translate(390.889 1536.47)">
      <rect id="Rectangle_692" data-name="Rectangle 692" class="cls-4" width="11.5" height="3.3" transform="translate(939.745 972.841) rotate(-57.616)"/>
      <rect id="Rectangle_693" data-name="Rectangle 693" class="cls-4" width="11.5" height="3.3" transform="translate(814.969 893.614) rotate(-57.608)"/>
      <path id="Path_1592" data-name="Path 1592" class="cls-4" d="M825.9,885.7l-7.3,11.4-1.4-.8,7.3-11.5Z"/>
      <path id="Path_1593" data-name="Path 1593" class="cls-4" d="M842.7,896.6l-7,11.1-.6-.3,7.1-11.1Z"/>
      <rect id="Rectangle_694" data-name="Rectangle 694" class="cls-5" width="13.6" height="19.3" transform="matrix(0.536, -0.844, 0.844, 0.536, 818.666, 897.16)"/>
      <rect id="Rectangle_695" data-name="Rectangle 695" class="cls-4" width="13.6" height="1.6" transform="matrix(0.536, -0.844, 0.844, 0.536, 937.899, 973.022)"/>
      <path id="Path_1594" data-name="Path 1594" class="cls-4" d="M921,962l7-11.1.6.4-7.1,11.1Z"/>
      <rect id="Rectangle_696" data-name="Rectangle 696" class="cls-5" width="13.6" height="19.3" transform="translate(921.488 962.559) rotate(-57.608)"/>
      <path id="Path_1595" data-name="Path 1595" class="cls-5" d="M928.1,950.7l-7.2,11.5-85.3-54.3,7.3-11.4Z"/>
    </g>
    <path id="Path_1596" data-name="Path 1596" class="cls-6" d="M903.3,1035.8c.1-3.9-13.6-7.2-30.5-7.6-16.9-.3-30.7,2.5-30.8,6.4s9.1,7,30.5,7.6C895.4,1042.9,903.2,1039.7,903.3,1035.8Z" transform="translate(390.889 1536.47)"/>
    <g id="Group_1792" data-name="Group 1792" transform="translate(390.889 1536.47)">
      <path id="Path_1597" data-name="Path 1597" class="cls-5" d="M869.4,1009.2a6.624,6.624,0,0,1-1.5-.1c-8-1.2-19-8.1-18.7-16.5a84.038,84.038,0,0,1,1.8-14.1c1.1-5.8,2.1-10.8,1.1-18.1-.4-2.8-2.5-7-5.1-11.8-6.6-12.8-15.7-30.4-5.1-45.5,8.4-11.9,18.9-17.6,32.2-17.6a65.276,65.276,0,0,1,10.3.9c8.9,1.5,16.6,7.4,22.1,17.1,10.6,18.6,11.6,47.9,2.5,71.1-9.9,25.9-31.4,34.6-39.6,34.6Z"/>
      <path id="Path_1598" data-name="Path 1598" class="cls-1" d="M874.2,886.2a69.048,69.048,0,0,1,10.2.9c27.5,4.6,37.9,51.6,24,87.2-9.7,24.7-30.3,34.1-39,34.1a6.151,6.151,0,0,1-1.4-.1c-7.6-1.2-18.3-7.8-18.1-15.7.5-13.5,4.6-19.5,2.9-32.4-1.3-10.3-24.8-36.2-10.2-56.8,9.6-13.4,20.7-17.2,31.6-17.2m0-1.5c-13.6,0-24.3,5.9-32.9,18-11,15.5-1.7,33.3,5,46.3,2.5,4.8,4.6,8.9,5,11.6.9,7.3,0,12.2-1.1,17.9a86.8,86.8,0,0,0-1.8,14.2c-.3,8.8,11.1,16,19.4,17.3a9.152,9.152,0,0,0,1.7.1c8.4,0,30.2-8.8,40.5-35.1,9.2-23.5,8.1-53-2.6-71.8-5.6-9.9-13.5-16-22.6-17.5a60.667,60.667,0,0,0-10.6-1Z"/>
    </g>
    <path id="Path_1599" data-name="Path 1599" class="cls-7" d="M870,921.8c.3,3.5-1.6,6.9-4.3,7.1s-5.2-1.9-5.4-5.4c-.3-3.5,1.7-7,4.4-7.2S869.7,918.3,870,921.8Z" transform="translate(390.889 1536.47)"/>
    <path id="Path_1600" data-name="Path 1600" class="cls-7" d="M847.7,926c.2,2.7-1.6,3.2-3,3.3s-2.6-2-2.8-4.7.7-4.8,2.1-5.1C846.2,919.1,847.5,923.3,847.7,926Z" transform="translate(390.889 1536.47)"/>
    <g id="Group_1793" data-name="Group 1793" class="cls-8" transform="translate(390.889 1536.47)">
      <path id="Path_1601" data-name="Path 1601" class="cls-4" d="M846.5,938.7a2.706,2.706,0,0,0,2,1.6,2.879,2.879,0,0,0,1.3-.1,6.725,6.725,0,0,0,1.1-.7,10.637,10.637,0,0,1,1.1-.9,1.612,1.612,0,0,1,.7-.4,2.2,2.2,0,0,1,.8-.1,8.819,8.819,0,0,1,2.9.7,10.981,10.981,0,0,0,5.2,1.2,5.381,5.381,0,0,0,4.2-3.1,5.224,5.224,0,0,1-1.4,2.5,4.953,4.953,0,0,1-2.6,1.3,7.034,7.034,0,0,1-2.9-.1,21.359,21.359,0,0,1-2.7-.9,8.394,8.394,0,0,0-2.6-.7c-.8-.1-1.4.6-2.2,1.2a3.294,3.294,0,0,1-1.3.7,2.556,2.556,0,0,1-1.5,0A3.069,3.069,0,0,1,846.5,938.7Z"/>
    </g>
    <path id="Path_1602" data-name="Path 1602" class="cls-9" d="M887.4,999.1s6.7,25.1,4.1,32.6c-1.7,5.2-7.9,4.7-7.9,4.7" transform="translate(390.889 1536.47)"/>
    <path id="Path_1603" data-name="Path 1603" class="cls-9" d="M863.7,1002s2.6,20.2-2.6,28c-1.7,2.6-6.1,3.5-11,3.5" transform="translate(390.889 1536.47)"/>
    <path id="Path_1604" data-name="Path 1604" class="cls-9" d="M822.2,976.7s14.9-13.2,24-15.6c2.5-.7,3-1.2,8.8.5" transform="translate(390.889 1536.47)"/>
    <path id="Path_1605" data-name="Path 1605" class="cls-4" d="M874.9,886a76.136,76.136,0,0,1,7.7,5.4c2.4,1.9,8,4.2,10.9,7.4,2.3,2.5,1.3,5.1,3.5,8.4,3.9,5.9,6.9,11,8.9,19.4-3-10.6-6-15.3-9.7-20.1-2.4-3.1-5.1-2.7-8.1-5.1-1.8-1.5-3.5-7.9-5.1-9.4a52.043,52.043,0,0,0-8.3-6Z" transform="translate(390.889 1536.47)"/>
    <g id="Group_1794" data-name="Group 1794" transform="translate(390.889 1536.47)">
      <path id="Path_1606" data-name="Path 1606" class="cls-4" d="M895,909.9c1.1-.2,2.2-.3,3.3-.5,1.1-.1,2.2-.2,3.4-.2-1.1.2-2.2.3-3.3.5C897.3,909.8,896.1,909.9,895,909.9Z"/>
    </g>
    <g id="Group_1795" data-name="Group 1795" transform="translate(390.889 1536.47)">
      <path id="Path_1607" data-name="Path 1607" class="cls-4" d="M898.4,905.4c0,1.3,0,2.5-.1,3.8s-.2,2.5-.4,3.8c0-1.3,0-2.5.1-3.8A25.838,25.838,0,0,1,898.4,905.4Z"/>
    </g>
    <g id="Group_1796" data-name="Group 1796" transform="translate(390.889 1536.47)">
      <path id="Path_1608" data-name="Path 1608" class="cls-4" d="M897.9,914.4c1-.2,2.1-.3,3.1-.4s2.1-.2,3.1-.2c-1,.2-2.1.3-3.1.4A30.291,30.291,0,0,1,897.9,914.4Z"/>
    </g>
    <g id="Group_1797" data-name="Group 1797" transform="translate(390.889 1536.47)">
      <path id="Path_1609" data-name="Path 1609" class="cls-4" d="M901.1,910.2c0,1.2,0,2.4-.1,3.6s-.2,2.4-.4,3.5c0-1.2,0-2.4.1-3.6C900.8,912.6,900.9,911.4,901.1,910.2Z"/>
    </g>
    <g id="Group_1798" data-name="Group 1798" transform="translate(390.889 1536.47)">
      <path id="Path_1610" data-name="Path 1610" class="cls-4" d="M901,918a20.088,20.088,0,0,1,2.5.1,21.649,21.649,0,0,1,2.5.4,20.088,20.088,0,0,1-2.5-.1A21.662,21.662,0,0,1,901,918Z"/>
    </g>
    <g id="Group_1799" data-name="Group 1799" transform="translate(390.889 1536.47)">
      <path id="Path_1611" data-name="Path 1611" class="cls-4" d="M904.1,915.2a23.037,23.037,0,0,1-.6,2.8c-.3.9-.5,1.8-.9,2.7a23.037,23.037,0,0,1,.6-2.8Z"/>
    </g>
    <g id="Group_1800" data-name="Group 1800" transform="translate(390.889 1536.47)">
      <path id="Path_1612" data-name="Path 1612" class="cls-4" d="M902.6,922.3a6.731,6.731,0,0,1,2,.1c.6.1,1.3.2,1.9.3a6.731,6.731,0,0,1-2-.1A14.808,14.808,0,0,1,902.6,922.3Z"/>
    </g>
    <g id="Group_1801" data-name="Group 1801" transform="translate(390.889 1536.47)">
      <path id="Path_1613" data-name="Path 1613" class="cls-4" d="M905.1,920.1c-.1.7-.3,1.5-.4,2.2a17.233,17.233,0,0,1-.7,2.1c.1-.7.3-1.5.4-2.2A17.24,17.24,0,0,1,905.1,920.1Z"/>
    </g>
    <g id="Group_1802" data-name="Group 1802" transform="translate(390.889 1536.47)">
      <path id="Path_1614" data-name="Path 1614" class="cls-4" d="M876.9,889a18.037,18.037,0,0,1,2.1-.8,14.187,14.187,0,0,1,2.2-.5,18.037,18.037,0,0,1-2.1.8A14.187,14.187,0,0,1,876.9,889Z"/>
    </g>
    <g id="Group_1803" data-name="Group 1803" transform="translate(390.889 1536.47)">
      <path id="Path_1615" data-name="Path 1615" class="cls-4" d="M877.8,886.6a18.562,18.562,0,0,1,1.1,1.9c.3.7.6,1.3.9,2.1a18.562,18.562,0,0,1-1.1-1.9C878.4,888,878.1,887.4,877.8,886.6Z"/>
    </g>
    <g id="Group_1804" data-name="Group 1804" transform="translate(390.889 1536.47)">
      <path id="Path_1616" data-name="Path 1616" class="cls-4" d="M880.4,891.9a11.114,11.114,0,0,1,1.6-.7,10.463,10.463,0,0,1,1.7-.4,11.114,11.114,0,0,1-1.6.7C881.5,891.6,880.9,891.8,880.4,891.9Z"/>
    </g>
    <g id="Group_1805" data-name="Group 1805" transform="translate(390.889 1536.47)">
      <path id="Path_1617" data-name="Path 1617" class="cls-4" d="M881.6,889.2a12.862,12.862,0,0,1,.4,1.9,13.556,13.556,0,0,1,.2,2,12.862,12.862,0,0,1-.4-1.9A4.421,4.421,0,0,1,881.6,889.2Z"/>
    </g>
    <path id="Path_1618" data-name="Path 1618" class="cls-4" d="M895.7,988.2a68.539,68.539,0,0,0,3.1-6.6c.9-2.2,3.7-5.9,4.4-9.2.6-2.6-1.1-3.9-1-7,.3-5.5.3-10.1-1.7-16.5,2.1,8.3,2,12.6,1.4,17.3-.4,3-2.4,3.8-3.4,6.6-.6,1.7.7,6.6.2,8.3a42.807,42.807,0,0,1-3.2,7.3A.215.215,0,0,0,895.7,988.2Z" transform="translate(390.889 1536.47)"/>
    <g id="Group_1806" data-name="Group 1806" transform="translate(390.889 1536.47)">
      <path id="Path_1619" data-name="Path 1619" class="cls-4" d="M899.8,964.4a16.655,16.655,0,0,1,2.3-1.2c.8-.3,1.6-.7,2.4-1a16.655,16.655,0,0,1-2.3,1.2A13.329,13.329,0,0,1,899.8,964.4Z"/>
    </g>
    <g id="Group_1807" data-name="Group 1807" transform="translate(390.889 1536.47)">
      <path id="Path_1620" data-name="Path 1620" class="cls-4" d="M903.8,966.1a21.447,21.447,0,0,1-1.8-2.4,20.676,20.676,0,0,1-1.5-2.5,21.447,21.447,0,0,1,1.8,2.4A20.677,20.677,0,0,1,903.8,966.1Z"/>
    </g>
    <g id="Group_1808" data-name="Group 1808" transform="translate(390.889 1536.47)">
      <path id="Path_1621" data-name="Path 1621" class="cls-4" d="M900,960.2c.7-.4,1.4-.8,2.2-1.2a15.717,15.717,0,0,1,2.3-.9,15.456,15.456,0,0,1-2.2,1.2A9.172,9.172,0,0,1,900,960.2Z"/>
    </g>
    <g id="Group_1809" data-name="Group 1809" transform="translate(390.889 1536.47)">
      <path id="Path_1622" data-name="Path 1622" class="cls-4" d="M903.8,961.8c-.6-.7-1.1-1.5-1.7-2.2a18.84,18.84,0,0,1-1.4-2.4c.6.7,1.1,1.5,1.7,2.2C902.8,960.2,903.3,961,903.8,961.8Z"/>
    </g>
    <g id="Group_1810" data-name="Group 1810" transform="translate(390.889 1536.47)">
      <path id="Path_1623" data-name="Path 1623" class="cls-4" d="M900.7,956.6a17.376,17.376,0,0,1,1.5-1.3,5.853,5.853,0,0,1,1.7-1,17.376,17.376,0,0,1-1.5,1.3C901.8,955.9,901.3,956.3,900.7,956.6Z"/>
    </g>
    <g id="Group_1811" data-name="Group 1811" transform="translate(390.889 1536.47)">
      <path id="Path_1624" data-name="Path 1624" class="cls-4" d="M903.9,957.3a7.967,7.967,0,0,1-1.7-1.5c-.5-.5-1-1.1-1.5-1.7a7.967,7.967,0,0,1,1.7,1.5A12.94,12.94,0,0,1,903.9,957.3Z"/>
    </g>
    <g id="Group_1812" data-name="Group 1812" transform="translate(390.889 1536.47)">
      <path id="Path_1625" data-name="Path 1625" class="cls-4" d="M895.9,985.5a8.444,8.444,0,0,1,1.7-.5,9.854,9.854,0,0,1,1.7-.2,8.444,8.444,0,0,1-1.7.5C897.1,985.3,896.5,985.5,895.9,985.5Z"/>
    </g>
    <g id="Group_1813" data-name="Group 1813" transform="translate(390.889 1536.47)">
      <path id="Path_1626" data-name="Path 1626" class="cls-4" d="M897.4,986.7a10.1,10.1,0,0,1-.3-1.7,9.636,9.636,0,0,1,0-1.7,10.1,10.1,0,0,1,.3,1.7A4.846,4.846,0,0,1,897.4,986.7Z"/>
    </g>
    <g id="Group_1814" data-name="Group 1814" transform="translate(390.889 1536.47)">
      <path id="Path_1627" data-name="Path 1627" class="cls-4" d="M897.1,982.2a6.471,6.471,0,0,1,1.3-.4,3.21,3.21,0,0,1,1.4-.1,6.471,6.471,0,0,1-1.3.4C898,982.1,897.6,982.2,897.1,982.2Z"/>
    </g>
    <g id="Group_1815" data-name="Group 1815" transform="translate(390.889 1536.47)">
      <path id="Path_1628" data-name="Path 1628" class="cls-4" d="M898.9,983.5a6.111,6.111,0,0,1-.7-1.4,4.191,4.191,0,0,1-.4-1.5,6.111,6.111,0,0,1,.7,1.4A8.333,8.333,0,0,1,898.9,983.5Z"/>
    </g>
    <g id="Group_1822" data-name="Group 1822" transform="translate(390.889 1536.47)">
      <g id="Group_1817" data-name="Group 1817" class="cls-10">
        <path id="Path_1629" data-name="Path 1629" class="cls-4" d="M918.5,983l-27.2-6.3h0c-.9-.2-1.4-1.8-1-3.5s1.5-3,2.4-2.7h0l27.2,6.3Z"/>
        <path id="Path_1630" data-name="Path 1630" class="cls-11" d="M912,981.5l-2.6-.6h0c-.9-.2-1.4-1.8-1-3.5s1.5-3,2.4-2.7h0l3.2.7a4.157,4.157,0,0,0-1.9,2.7A7.364,7.364,0,0,0,912,981.5Z"/>
        <path id="Path_1631" data-name="Path 1631" class="cls-11" d="M900.8,978.9l-2.6-.6h0c-.9-.2-1.4-1.8-1-3.5s1.5-3,2.4-2.7h0l3.2.8a4.157,4.157,0,0,0-1.9,2.7A6.99,6.99,0,0,0,900.8,978.9Z"/>
        <path id="Path_1632" data-name="Path 1632" class="cls-4" d="M920,976.7c-.9-.2-2,1-2.4,2.8-.4,1.7,0,3.3,1,3.5.9.2,2-1,2.4-2.8C921.4,978.5,920.9,976.9,920,976.7Z"/>
        <g id="Group_1816" data-name="Group 1816">
          <ellipse id="Ellipse_314" data-name="Ellipse 314" class="cls-12" cx="2.5" cy="1.3" rx="2.5" ry="1.3" transform="matrix(0.226, -0.974, 0.974, 0.226, 917.513, 982.007)"/>
        </g>
        <path id="Path_1633" data-name="Path 1633" class="cls-13" d="M919.1,979.8c3.6.2,3.9-3.5,7.1-4.1,2.1-.4,1.4,1.5,4.8,2"/>
      </g>
      <g id="Group_1821" data-name="Group 1821" class="cls-10">
        <path id="Path_1635" data-name="Path 1635" class="cls-4" d="M912,973l-13.8-2.1h0c-.5-.1-.8-.8-.6-1.7.1-.9.6-1.5,1.1-1.5h0l13.8,2.1Z"/>
        <path id="Path_1636" data-name="Path 1636" class="cls-11" d="M908.7,972.5l-1.3-.2h0c-.5-.1-.8-.8-.6-1.7.1-.9.6-1.5,1.1-1.5h0l1.6.3a2.629,2.629,0,0,0-.9,1.4A3.309,3.309,0,0,0,908.7,972.5Z"/>
        <path id="Path_1637" data-name="Path 1637" class="cls-11" d="M903,971.7l-1.3-.2h0c-.5-.1-.8-.8-.6-1.7.1-.9.6-1.5,1.1-1.5h0l1.6.3a2.629,2.629,0,0,0-.9,1.4A3.309,3.309,0,0,0,903,971.7Z"/>
        <ellipse id="Ellipse_315" data-name="Ellipse 315" class="cls-4" cx="1.6" cy="0.9" rx="1.6" ry="0.9" transform="matrix(0.151, -0.988, 0.988, 0.151, 911.082, 972.93)"/>
        <g id="Group_1820" data-name="Group 1820">
          <ellipse id="Ellipse_316" data-name="Ellipse 316" class="cls-12" cx="1.2" cy="0.7" rx="1.2" ry="0.7" transform="matrix(0.152, -0.988, 0.988, 0.152, 911.317, 972.479)"/>
          <g id="Group_1818" data-name="Group 1818" class="cls-14" transform="translate(910.979 972.653) rotate(-81.287)">
            <ellipse id="Ellipse_317" data-name="Ellipse 317" class="cls-12" cx="1.4" cy="0.9" rx="1.4" ry="0.9"/>
          </g>
          <g id="Group_1819" data-name="Group 1819" class="cls-15">
            <path id="Path_1638" data-name="Path 1638" class="cls-12" d="M912.1,970.2c-.4-.1-.7.4-.8,1.1s.1,1.3.5,1.3c.4.1.7-.4.8-1.1S912.5,970.2,912.1,970.2Z"/>
          </g>
        </g>
        <path id="Path_1639" data-name="Path 1639" class="cls-16" d="M912.1,971.4c1.8,0,1.8-1.9,3.4-2.3,1-.3.8.7,2.5.8"/>
      </g>
    </g>
    <g id="Group_1829" data-name="Group 1829" transform="translate(390.889 1536.47)">
      <g id="Group_1824" data-name="Group 1824" class="cls-17">
        <path id="Path_1641" data-name="Path 1641" class="cls-4" d="M907.5,889l-19.1,20.4h0c-.7.7-2.2.3-3.5-.9s-1.8-2.8-1.2-3.5h0l19.1-20.4Z"/>
        <path id="Path_1642" data-name="Path 1642" class="cls-11" d="M902.9,893.9l-1.8,1.9h0c-.7.7-2.3.3-3.5-.9-1.3-1.2-1.8-2.8-1.2-3.5h0l2.2-2.4a4.35,4.35,0,0,0,1.3,3A6.824,6.824,0,0,0,902.9,893.9Z"/>
        <path id="Path_1643" data-name="Path 1643" class="cls-11" d="M895.1,902.3l-1.8,1.9h0c-.7.7-2.2.3-3.5-.9s-1.8-2.8-1.2-3.5h0l2.2-2.4a4.35,4.35,0,0,0,1.3,3A6.823,6.823,0,0,0,895.1,902.3Z"/>
        <path id="Path_1644" data-name="Path 1644" class="cls-4" d="M902.8,884.6c-.7.7-.1,2.3,1.2,3.5s2.9,1.6,3.5.9c.7-.7.1-2.3-1.2-3.5S903.4,883.9,902.8,884.6Z"/>
        <g id="Group_1823" data-name="Group 1823">
          <path id="Path_1645" data-name="Path 1645" class="cls-12" d="M903.3,885.1c-.5.5-.1,1.7.9,2.7,1,.9,2.2,1.2,2.7.7s.1-1.7-.9-2.7C905,884.9,903.8,884.6,903.3,885.1Z"/>
        </g>
        <path id="Path_1646" data-name="Path 1646" class="cls-13" d="M905,886.9c2-3-1.1-5.1,0-8.2.7-2,2-.5,4.2-3.1"/>
      </g>
      <g id="Group_1828" data-name="Group 1828" class="cls-17">
        <path id="Path_1648" data-name="Path 1648" class="cls-4" d="M895.5,889.7l-8.8,10.9h0c-.3.4-1.1.2-1.8-.3-.7-.6-1-1.3-.7-1.7h0l8.8-10.9Z"/>
        <path id="Path_1649" data-name="Path 1649" class="cls-11" d="M893.4,892.3l-.8,1h0c-.3.4-1.1.2-1.8-.3-.7-.6-1-1.3-.7-1.7h0l1-1.3a2.355,2.355,0,0,0,.8,1.5A2.835,2.835,0,0,0,893.4,892.3Z"/>
        <path id="Path_1650" data-name="Path 1650" class="cls-11" d="M889.8,896.8l-.8,1h0c-.3.4-1.1.2-1.8-.3-.7-.6-1-1.3-.7-1.7h0l1-1.3a2.355,2.355,0,0,0,.8,1.5A2.835,2.835,0,0,0,889.8,896.8Z"/>
        <path id="Path_1651" data-name="Path 1651" class="cls-4" d="M893,887.7c-.3.4,0,1.1.7,1.7s1.5.7,1.8.3,0-1.1-.7-1.7C894.1,887.5,893.3,887.3,893,887.7Z"/>
        <g id="Group_1827" data-name="Group 1827">
          <path id="Path_1652" data-name="Path 1652" class="cls-12" d="M893.3,887.9c-.2.3,0,.9.5,1.3a1.326,1.326,0,0,0,1.4.3c.2-.3,0-.9-.5-1.3S893.5,887.6,893.3,887.9Z"/>
          <g id="Group_1825" data-name="Group 1825" class="cls-18">
            <path id="Path_1653" data-name="Path 1653" class="cls-12" d="M893.1,888a1.123,1.123,0,0,0,.5,1.5c.6.5,1.3.6,1.6.2a1.123,1.123,0,0,0-.5-1.5C894.1,887.7,893.4,887.6,893.1,888Z"/>
          </g>
          <g id="Group_1826" data-name="Group 1826" class="cls-19" transform="translate(892.743 888.682) rotate(-51.084)">
            <ellipse id="Ellipse_320" data-name="Ellipse 320" class="cls-12" cx="0.7" cy="1.2" rx="0.7" ry="1.2"/>
          </g>
        </g>
        <path id="Path_1656" data-name="Path 1656" class="cls-16" d="M894.2,888.8c.9-1.6-.7-2.5-.3-4.1.3-1,1-.3,2-1.7"/>
      </g>
    </g>
    <g id="Group_1830" data-name="Group 1830" transform="translate(390.889 1536.47)">
      <path id="Path_1658" data-name="Path 1658" class="cls-4" d="M867.1,928.2V927l.1.1h-.7V927l.2-1.1-.1,1.1h-.1l.7-.1h.1v.1l.1,1.2Z"/>
    </g>
    <g id="Group_1831" data-name="Group 1831" transform="translate(390.889 1536.47)">
      <path id="Path_1659" data-name="Path 1659" class="cls-4" d="M866.8,917.5l-.7.8v-.1l.5.4v.1h0l-.8.8.7-.8h0l-.5-.4h-.1v-.1l.7-.9Z"/>
    </g>
    <g id="Group_1832" data-name="Group 1832" transform="translate(390.889 1536.47)">
      <path id="Path_1660" data-name="Path 1660" class="cls-4" d="M861.3,920l.9.8H862l.5-.5v-.1h.1l.8.9-.9-.8h.1l-.4.6-.1.1v-.1l-1-.6Z"/>
    </g>
    <g id="Group_1833" data-name="Group 1833" transform="translate(390.889 1536.47)">
      <path id="Path_1661" data-name="Path 1661" class="cls-4" d="M860,924.2l1.5.2-.2.1.5-1.2v0l1.4.1h0l.4-.5-.4.5h-1.4l.1-.1-.4,1.3h-.1l-1.4-.1Z"/>
    </g>
    <g id="Group_1834" data-name="Group 1834" transform="translate(390.889 1536.47)">
      <path id="Path_1662" data-name="Path 1662" class="cls-4" d="M863.9,928l.7-1v.2l-.5-.4-.1-.1h0l.8-.9-.7,1v-.1l.6.3.1.1h-.1l-.5,1Z"/>
    </g>
    <g id="Group_1835" data-name="Group 1835" transform="translate(390.889 1536.47)">
      <path id="Path_1663" data-name="Path 1663" class="cls-4" d="M870.4,924.3l-1-1.1h.1l-1.1.7h-.1l-1-1h.1l-.7.2.7-.2h0l1,.9h-.1l1.1-.8h.1l1.1,1.1Z"/>
    </g>
    <g id="Group_1836" data-name="Group 1836" transform="translate(390.889 1536.47)">
      <path id="Path_1664" data-name="Path 1664" class="cls-4" d="M869.2,919l-1.1.3.1-.1.2.7v.1h0l-1.2.2,1.1-.3h0l-.3-.6v-.1h.1l1.1-.5Z"/>
    </g>
    <g id="Group_1837" data-name="Group 1837" transform="translate(390.889 1536.47)">
      <path id="Path_1665" data-name="Path 1665" class="cls-4" d="M863.2,917.4l.4,1.1h-.1l.6-.2.1-.1v.1l.2,1.1-.3-1.1.1.1-.7.2-.1.1v-.1l-.4-1.1Z"/>
    </g>
    <g id="Group_1838" data-name="Group 1838" transform="translate(390.889 1536.47)">
      <path id="Path_1666" data-name="Path 1666" class="cls-4" d="M845.9,928.6l.1-.8.1.1h-.5v-.1l.1-.7v.7h-.1l.5-.1h.1v.9Z"/>
    </g>
    <g id="Group_1839" data-name="Group 1839" transform="translate(390.889 1536.47)">
      <path id="Path_1667" data-name="Path 1667" class="cls-4" d="M842,922.6l.6.4-.2.1.3-.4h.1l.5.6-.6-.5h.1l-.2.4h-.1l-.7-.4Z"/>
    </g>
    <g id="Group_1840" data-name="Group 1840" transform="translate(390.889 1536.47)">
      <path id="Path_1668" data-name="Path 1668" class="cls-4" d="M841.9,925.6l1,.1-.2.1.3-.8h.1l.9.1h0l.2-.4-.2.4h-.8l-.3.8h-.1l-.9-.1Z"/>
    </g>
    <g id="Group_1841" data-name="Group 1841" transform="translate(390.889 1536.47)">
      <path id="Path_1669" data-name="Path 1669" class="cls-4" d="M843.6,927.7l.5-.6v.2l-.3-.3h-.1l.1-.1.5-.5-.5.6v-.1l.4.2.1.1h0l-.4.7Z"/>
    </g>
    <g id="Group_1842" data-name="Group 1842" transform="translate(390.889 1536.47)">
      <path id="Path_1670" data-name="Path 1670" class="cls-4" d="M847.4,925.4l-.7-.7h.2l-.7.4h-.1l-.7-.6h.1l-.4.1.4-.1h0l.7.5h-.1l.7-.5h.1l.7.7Z"/>
    </g>
    <g id="Group_1843" data-name="Group 1843" transform="translate(390.889 1536.47)">
      <path id="Path_1671" data-name="Path 1671" class="cls-4" d="M846.3,921.9l-.7.2V922l.2.4v.1h-.1l-.7.1.7-.2v.1l-.2-.4-.1-.1.1-.1.7-.3Z"/>
    </g>
    <g id="Group_1844" data-name="Group 1844" transform="translate(390.889 1536.47)">
      <path id="Path_1672" data-name="Path 1672" class="cls-4" d="M843.3,920.9l.2.7-.1-.1.4-.1h.1v.1l.1.7-.2-.7h.1l-.5.2h-.1l-.3-.7Z"/>
    </g>
    <path id="Path_1673" data-name="Path 1673" class="cls-4" d="M875.4,970.2c-.5,1,1.7,3.9,1.3,4.6-.9,1.8-1,2.8.4,2.9,2,.1.5-3.3,3.6-3.2a3.171,3.171,0,0,1,2.8,2.2c.7,2.1,1.8,3,2.6,1.3,1.4-2.9.7-8.1-3.1-8.4C879.3,969.2,876.8,967.2,875.4,970.2Z" transform="translate(390.889 1536.47)"/>
    <path id="Path_1674" data-name="Path 1674" class="cls-4" d="M886.1,984.9a1.583,1.583,0,0,1-1.6,1.8,1.636,1.636,0,0,1-1.6-1.8c0-1.2.7-2.9,1.6-2.9C885.4,981.9,886.1,983.7,886.1,984.9Z" transform="translate(390.889 1536.47)"/>
    <circle id="Ellipse_321" data-name="Ellipse 321" class="cls-5" cx="18.1" cy="18.1" r="18.1" transform="translate(1316.589 2386.77)"/>
    <path id="Path_1675" data-name="Path 1675" class="cls-5" d="M917.6,820.9a13.166,13.166,0,0,1,.7-17,13.843,13.843,0,0,0-5,2.5,14.191,14.191,0,0,0,17.3,22.5,14.745,14.745,0,0,0,3.7-4.2A13.34,13.34,0,0,1,917.6,820.9Z" transform="translate(390.889 1536.47)"/>
    <circle id="Ellipse_322" data-name="Ellipse 322" class="cls-1" cx="1.6" cy="1.6" r="1.6" transform="translate(1312.189 2396.27)"/>
    <path id="Path_1676" data-name="Path 1676" class="cls-1" d="M958.2,864.1l-14.6,4.7-.2-.6,14.6-4.8Z" transform="translate(390.889 1536.47)"/>
    <path id="Path_1677" data-name="Path 1677" class="cls-1" d="M950.8,876.9l-7.4-8.3.6-.6,7.4,8.3Z" transform="translate(390.889 1536.47)"/>
    <g id="Group_1846" data-name="Group 1846" transform="translate(390.889 1536.47)">
      <g id="Group_1845" data-name="Group 1845">
        <rect id="Rectangle_697" data-name="Rectangle 697" class="cls-5" width="5.2" height="57.2" transform="translate(814.973 927.47) rotate(-14.448)"/>
        <path id="Path_1678" data-name="Path 1678" class="cls-5" d="M814.7,929a1.138,1.138,0,0,0-1.4-.8l-7.7,2.9a1.138,1.138,0,0,0-.8,1.4l.3,1.2,10.2-2.6Z"/>
        <rect id="Rectangle_698" data-name="Rectangle 698" class="cls-5" width="0.4" height="12.1" transform="translate(816.269 936.894) rotate(-14.466)"/>
        <path id="Path_1679" data-name="Path 1679" class="cls-5" d="M827,947.4l-.9.2-3-11.7.8-.2Z"/>
        <rect id="Rectangle_699" data-name="Rectangle 699" class="cls-5" width="3.2" height="4.6" transform="translate(813.252 937.7) rotate(-14.555)"/>
        <path id="Path_1680" data-name="Path 1680" class="cls-5" d="M812.9,937.7l-6.3,1.6.3,1a1.138,1.138,0,0,0,1.4.8l5.5-.1Z"/>
        <path id="Path_1681" data-name="Path 1681" class="cls-5" d="M818.9,946.1h0a1.237,1.237,0,1,0,.6,2.4h0Z"/>
        <path id="Path_1682" data-name="Path 1682" class="cls-5" d="M826.8,933.4l-4.1,1.1.5,2.1h0c1.9-.6,3.6-2.6,3.6-3.2Z"/>
        <path id="Path_1683" data-name="Path 1683" class="cls-5" d="M820.6,926.8h0l.5,2.1,4.1-1.1h0C824.9,927.3,822.5,926.3,820.6,926.8Z"/>
        <path id="Path_1684" data-name="Path 1684" class="cls-5" d="M834.7,987.5l-.5.2-2.5-9.6.5-.2Z"/>
        <circle id="Ellipse_323" data-name="Ellipse 323" class="cls-5" cx="0.3" cy="0.3" r="0.3" transform="translate(829.286 981.586) rotate(-14.182)"/>
        <path id="Path_1685" data-name="Path 1685" class="cls-5" d="M833.7,980.9c0,.2,0,.3-.2.4a.316.316,0,0,1-.2-.6C833.5,980.7,833.6,980.7,833.7,980.9Z"/>
        <path id="Path_1686" data-name="Path 1686" class="cls-5" d="M826.7,941.3a.536.536,0,0,1-.3.4l-.3.1c-.2.1-.4,0-.4-.2l-.2-.8a.536.536,0,0,1,.3-.4l.3-.1c.2,0,.4,0,.4.2Z"/>
        <path id="Path_1687" data-name="Path 1687" class="cls-5" d="M817.5,930.4l-1.4.4v-.1l1.4-.4Z"/>
        <path id="Path_1688" data-name="Path 1688" class="cls-5" d="M817.1,931.7l-.7.2v-.1l.7-.2Z"/>
        <path id="Path_1689" data-name="Path 1689" class="cls-5" d="M817.4,932.8l-.7.2v-.1l.7-.2Z"/>
        <path id="Path_1690" data-name="Path 1690" class="cls-5" d="M817.7,933.9l-.7.2V934l.7-.2Z"/>
        <path id="Path_1691" data-name="Path 1691" class="cls-5" d="M818,935l-.7.2-.1-.1.7-.2Z"/>
        <path id="Path_1692" data-name="Path 1692" class="cls-5" d="M818.9,935.9l-1.4.4v-.1l1.4-.4Z"/>
        <path id="Path_1693" data-name="Path 1693" class="cls-5" d="M818.5,937.2l-.7.2v-.1l.7-.2Z"/>
        <path id="Path_1694" data-name="Path 1694" class="cls-5" d="M818.8,938.3l-.7.2v-.1l.7-.2Z"/>
        <path id="Path_1695" data-name="Path 1695" class="cls-5" d="M819.1,939.4l-.7.2v-.1l.7-.2Z"/>
        <path id="Path_1696" data-name="Path 1696" class="cls-5" d="M819.4,940.5l-.7.2v-.1l.7-.2Z"/>
        <path id="Path_1697" data-name="Path 1697" class="cls-5" d="M820.4,941.4l-1.4.4-.1-.1,1.4-.4Z"/>
        <path id="Path_1698" data-name="Path 1698" class="cls-5" d="M819.9,942.7l-.7.2v-.1l.7-.2Z"/>
        <path id="Path_1699" data-name="Path 1699" class="cls-5" d="M820.2,943.8l-.7.2v-.1l.7-.2Z"/>
        <path id="Path_1700" data-name="Path 1700" class="cls-5" d="M820.5,944.9l-.7.2V945l.7-.2Z"/>
        <path id="Path_1701" data-name="Path 1701" class="cls-5" d="M820.8,946l-.7.2v-.1l.7-.2Z"/>
        <path id="Path_1702" data-name="Path 1702" class="cls-5" d="M821.8,946.9l-1.4.4v-.1Z"/>
        <path id="Path_1703" data-name="Path 1703" class="cls-5" d="M821.4,948.2l-.7.2-.1-.1.7-.2Z"/>
        <path id="Path_1704" data-name="Path 1704" class="cls-5" d="M821.6,949.3l-.6.2-.1-.1.7-.2Z"/>
        <path id="Path_1705" data-name="Path 1705" class="cls-5" d="M821.9,950.4l-.7.2v-.1l.7-.2Z"/>
        <path id="Path_1706" data-name="Path 1706" class="cls-5" d="M822.2,951.5l-.7.2v-.1l.7-.2Z"/>
        <path id="Path_1707" data-name="Path 1707" class="cls-5" d="M823.2,952.4l-1.4.4v-.1Z"/>
        <rect id="Rectangle_700" data-name="Rectangle 700" class="cls-5" width="0.7" height="0.1" transform="translate(822.111 953.779) rotate(-14.306)"/>
        <path id="Path_1708" data-name="Path 1708" class="cls-5" d="M823.1,954.8l-.7.2-.1-.1.7-.2Z"/>
        <path id="Path_1709" data-name="Path 1709" class="cls-5" d="M823.3,955.9l-.6.2-.1-.1.7-.2Z"/>
        <path id="Path_1710" data-name="Path 1710" class="cls-5" d="M823.6,957l-.7.2v-.1l.7-.2Z"/>
        <path id="Path_1711" data-name="Path 1711" class="cls-5" d="M824.6,957.9l-1.4.4v-.1Z"/>
        <path id="Path_1712" data-name="Path 1712" class="cls-5" d="M824.2,959.2l-.7.2v-.1l.7-.2Z"/>
        <rect id="Rectangle_701" data-name="Rectangle 701" class="cls-5" width="0.7" height="0.1" transform="matrix(0.969, -0.249, 0.249, 0.969, 823.794, 960.429)"/>
        <path id="Path_1713" data-name="Path 1713" class="cls-5" d="M824.8,961.4l-.7.2-.1-.1.7-.2Z"/>
        <rect id="Rectangle_702" data-name="Rectangle 702" class="cls-5" width="0.7" height="0.1" transform="translate(824.293 962.663) rotate(-14.217)"/>
        <path id="Path_1714" data-name="Path 1714" class="cls-5" d="M826,963.4l-1.4.4v-.1Z"/>
        <path id="Path_1715" data-name="Path 1715" class="cls-5" d="M825.6,964.7l-.7.2v-.1l.7-.2Z"/>
        <rect id="Rectangle_703" data-name="Rectangle 703" class="cls-5" width="0.7" height="0.1" transform="matrix(0.968, -0.251, 0.251, 0.968, 825.237, 965.901)"/>
        <path id="Path_1716" data-name="Path 1716" class="cls-5" d="M826.2,966.9l-.7.2V967l.7-.2Z"/>
        <path id="Path_1717" data-name="Path 1717" class="cls-5" d="M826.5,968l-.7.2v-.1l.6-.2Z"/>
        <path id="Path_1718" data-name="Path 1718" class="cls-5" d="M827.4,968.9l-1.3.4-.1-.1Z"/>
        <path id="Path_1719" data-name="Path 1719" class="cls-5" d="M827,970.2l-.7.2v-.1l.7-.2Z"/>
        <path id="Path_1720" data-name="Path 1720" class="cls-5" d="M827.3,971.3l-.7.2v-.1l.7-.2Z"/>
        <path id="Path_1721" data-name="Path 1721" class="cls-5" d="M827.6,972.4l-.7.2v-.1l.7-.2Z"/>
        <path id="Path_1722" data-name="Path 1722" class="cls-5" d="M827.9,973.5l-.7.2v-.1l.7-.2Z"/>
        <path id="Path_1723" data-name="Path 1723" class="cls-5" d="M828.9,974.4l-1.4.4v-.1l1.3-.3Z"/>
        <path id="Path_1724" data-name="Path 1724" class="cls-5" d="M828.5,975.7l-.7.2-.1-.1.7-.2Z"/>
        <path id="Path_1725" data-name="Path 1725" class="cls-5" d="M828.7,976.8l-.7.2v-.1l.7-.2Z"/>
        <path id="Path_1726" data-name="Path 1726" class="cls-5" d="M829,977.9l-.7.2V978l.7-.2Z"/>
        <path id="Path_1727" data-name="Path 1727" class="cls-5" d="M829.3,979l-.7.2v-.1l.7-.2Z"/>
        <path id="Path_1728" data-name="Path 1728" class="cls-5" d="M830.3,979.9l-1.4.4v-.1Z"/>
      </g>
    </g>
    <g id="Group_1848" data-name="Group 1848" transform="translate(390.889 1536.47)">
      <path id="Path_1729" data-name="Path 1729" class="cls-4" d="M849.5,966.1c.9,1.2-.3,3.4-2.5,5-2.3,1.6-4.8,1.9-5.7.7s.3-3.4,2.5-5C846.1,965.2,848.6,964.9,849.5,966.1Z"/>
      <path id="Path_1730" data-name="Path 1730" class="cls-4" d="M864,986.1l-8.6,6.2s-13.5-19-13.6-19.1c-.1-.2,0-.4-.1-.6a1.865,1.865,0,0,0-.3-.4l8.3-5.9a1.424,1.424,0,0,0,.2.4c.1.1.4.1.5.2C850.4,967,864,986.1,864,986.1Z"/>
      <path id="Path_1731" data-name="Path 1731" class="cls-4" d="M864.3,986.5l-8.7,6.2-.3-.5,8.7-6.1Z"/>
      <path id="Path_1732" data-name="Path 1732" class="cls-4" d="M849.4,965.8l-8.4,6,.2.4,8.5-6Z"/>
      <path id="Path_1733" data-name="Path 1733" class="cls-4" d="M846,965.2c-.1.1-4.4,3.1-4.6,3.2-.1.1-.2.2-.1.3a1.439,1.439,0,0,1,.2.3l5-3.4a1.437,1.437,0,0,0-.2-.3C846.3,965.1,846.1,965.1,846,965.2Z"/>
      <path id="Path_1734" data-name="Path 1734" class="cls-4" d="M845,965.3c-.1.1-3,2.1-3.1,2.1-.1.1-.1.1,0,.2l.2.2,3.4-2.3-.2-.2Z"/>
      <g id="Group_1847" data-name="Group 1847">
        <path id="Path_1735" data-name="Path 1735" class="cls-4" d="M844.9,965.6c.1.1.1.3-.1.3l-2.2,1.5a.192.192,0,0,1-.3-.1l-1.1-1.4c-.1-.1-.1-.3.1-.3l2.2-1.5a.192.192,0,0,1,.3.1Z"/>
      </g>
      <circle id="Ellipse_324" data-name="Ellipse 324" class="cls-4" cx="0.4" cy="0.4" r="0.4" transform="matrix(0.992, -0.123, 0.123, 0.992, 842.639, 965.37)"/>
    </g>
    <path id="Path_1736" data-name="Path 1736" class="cls-7" d="M847.3,984.9s14.9-13.2,24-15.6c2.5-.7,3-1.2,8.8.5" transform="translate(390.889 1536.47)"/>
  </g>
</svg>
