<svg xmlns="http://www.w3.org/2000/svg" viewBox="0 0 995.8 909.283">
  <defs>
    <style>
      .cls-1, .cls-59 {
        fill: #383838;
      }

      .cls-2, .cls-20, .cls-21, .cls-22, .cls-24, .cls-8 {
        fill: #243038;
      }

      .cls-2 {
        font-size: 10px;
        font-family: UniversNextPro-Light, Univers Next Pro;
      }

      .cls-15, .cls-16, .cls-17, .cls-18, .cls-19, .cls-2, .cls-67 {
        font-weight: 300;
      }

      .cls-3, .cls-31, .cls-33 {
        fill: #85cbe2;
      }

      .cls-15, .cls-17, .cls-26, .cls-38, .cls-4, .cls-42, .cls-45, .cls-60 {
        fill: #828d93;
      }

      .cls-23, .cls-30, .cls-32, .cls-37, .cls-40, .cls-5, .cls-7 {
        fill: none;
      }

      .cls-5 {
        stroke: #d9dee1;
      }

      .cls-23, .cls-30, .cls-32, .cls-40, .cls-5, .cls-7 {
        stroke-miterlimit: 10;
      }

      .cls-6 {
        fill: #59bcd3;
      }

      .cls-7 {
        stroke: #35414b;
      }

      .cls-9 {
        fill: #98dae5;
      }

      .cls-10 {
        fill: #b8e9f4;
      }

      .cls-11 {
        fill: #f6d462;
      }

      .cls-12 {
        fill: #ffe069;
      }

      .cls-13 {
        fill: #ffea98;
      }

      .cls-14 {
        fill: #fcefc0;
      }

      .cls-15, .cls-16, .cls-31, .cls-46, .cls-47, .cls-65, .cls-67 {
        font-size: 4px;
      }

      .cls-15, .cls-16, .cls-17, .cls-18, .cls-19 {
        font-family: AvenirNextLTPro-Light, Avenir Next LT Pro;
      }

      .cls-16 {
        fill: #35414b;
      }

      .cls-17, .cls-18, .cls-19, .cls-35, .cls-38, .cls-39, .cls-49, .cls-52, .cls-60, .cls-61 {
        font-size: 3px;
      }

      .cls-18, .cls-29, .cls-35, .cls-55, .cls-61, .cls-62, .cls-63, .cls-64, .cls-65, .cls-66 {
        fill: #fff;
      }

      .cls-19 {
        fill: #566772;
      }

      .cls-20, .cls-26, .cls-36, .cls-44, .cls-45, .cls-51, .cls-64 {
        font-size: 6px;
      }

      .cls-20, .cls-24, .cls-27, .cls-31, .cls-33, .cls-35, .cls-41, .cls-42, .cls-43, .cls-44, .cls-45, .cls-46, .cls-47, .cls-48, .cls-49, .cls-50, .cls-51, .cls-52, .cls-58, .cls-59, .cls-60, .cls-62, .cls-63, .cls-64, .cls-65, .cls-66 {
        font-family: SegoeUI, Segoe UI;
      }

      .cls-21, .cls-28, .cls-29, .cls-33, .cls-48, .cls-58, .cls-59, .cls-66 {
        font-size: 5px;
      }

      .cls-21, .cls-22 {
        font-family: Pacifico-Regular, Pacifico;
      }

      .cls-22, .cls-24 {
        font-size: 31px;
      }

      .cls-23 {
        stroke: #566772;
      }

      .cls-25, .cls-26, .cls-28, .cls-29, .cls-34, .cls-36, .cls-38, .cls-39, .cls-61 {
        font-family: YuGothicUI-Regular, Yu Gothic UI;
      }

      .cls-28, .cls-34, .cls-43, .cls-46, .cls-48, .cls-50, .cls-51, .cls-52, .cls-54 {
        fill: #4d4d4d;
      }

      .cls-30, .cls-32 {
        stroke: #59bcd3;
      }

      .cls-30 {
        stroke-width: 1.016px;
      }

      .cls-32 {
        stroke-width: 0.987px;
      }

      .cls-34, .cls-43, .cls-63 {
        font-size: 15px;
      }

      .cls-36, .cls-44, .cls-56 {
        fill: #999;
      }

      .cls-39, .cls-47, .cls-49, .cls-57 {
        fill: gray;
      }

      .cls-40 {
        stroke: #666;
      }

      .cls-41 {
        fill: #333;
      }

      .cls-41, .cls-42, .cls-62 {
        font-size: 13px;
      }

      .cls-50 {
        font-size: 12px;
      }

      .cls-53, .cls-58 {
        fill: #3e3322;
      }

      .cls-67 {
        fill: #736456;
        font-family: Montserrat-Light, Montserrat;
      }

      .cls-68 {
        opacity: 0.3;
      }

      .cls-69 {
        fill: #707070;
      }

      .cls-70 {
        fill: #a5a5a5;
      }
    </style>
  </defs>
  <g id="_002" data-name="002" transform="translate(0 3.521)">
    <rect id="Rectangle_604" data-name="Rectangle 604" class="cls-1" width="475.9" height="544.509" transform="translate(519.899 316.602)"/>
    <text id="Colors" class="cls-2" transform="translate(519.697 17.07)"><tspan x="0" y="0">Colors</tspan></text>
    <text id="Font" class="cls-2" transform="translate(6.697 196.669)"><tspan x="0" y="0">Font</tspan></text>
    <text id="Grid" class="cls-2" transform="translate(6.697 5.479)"><tspan x="0" y="0">Grid</tspan></text>
    <circle id="Ellipse_290" data-name="Ellipse 290" class="cls-3" cx="14.092" cy="14.092" r="14.092" transform="translate(523.961 47.57)"/>
    <circle id="Ellipse_291" data-name="Ellipse 291" class="cls-4" cx="14.092" cy="14.092" r="14.092" transform="translate(719.973 47.57)"/>
    <circle id="Ellipse_292" data-name="Ellipse 292" class="cls-5" cx="14.092" cy="14.092" r="14.092" transform="translate(811.703 50.31)"/>
    <rect id="Rectangle_605" data-name="Rectangle 605" class="cls-3" width="68.113" height="13.57" transform="translate(523.961 133.168)"/>
    <rect id="Rectangle_606" data-name="Rectangle 606" class="cls-6" width="68.113" height="13.57" transform="translate(523.987 119.623)"/>
    <rect id="Rectangle_607" data-name="Rectangle 607" class="cls-7" width="68.113" height="13.57" transform="translate(719.973 119.597)"/>
    <rect id="Rectangle_608" data-name="Rectangle 608" class="cls-7" width="68.113" height="13.57" transform="translate(719.973 133.168)"/>
    <rect id="Rectangle_609" data-name="Rectangle 609" class="cls-8" width="68.113" height="13.57" transform="translate(719.973 146.738)"/>
    <rect id="Rectangle_610" data-name="Rectangle 610" class="cls-9" width="68.113" height="13.57" transform="translate(523.987 146.764)"/>
    <rect id="Rectangle_611" data-name="Rectangle 611" class="cls-10" width="68.113" height="13.57" transform="translate(523.987 160.334)"/>
    <rect id="Rectangle_612" data-name="Rectangle 612" class="cls-11" width="68.113" height="13.57" transform="translate(621.85 119.623)"/>
    <rect id="Rectangle_613" data-name="Rectangle 613" class="cls-12" width="68.113" height="13.57" transform="translate(621.85 133.194)"/>
    <rect id="Rectangle_614" data-name="Rectangle 614" class="cls-13" width="68.113" height="13.57" transform="translate(621.85 146.764)"/>
    <rect id="Rectangle_615" data-name="Rectangle 615" class="cls-14" width="68.113" height="13.57" transform="translate(621.85 160.334)"/>
    <g id="Group" transform="translate(525.703 94.625)">
      <text id="_85cbe2" data-name="#85cbe2" class="cls-15" transform="translate(3.732 4)"><tspan x="0" y="0">#85cbe2</tspan></text>
      <text id="_133_203_206" data-name="133,203,206" class="cls-15" transform="translate(0 10.263)"><tspan x="0" y="0">133,203,206</tspan></text>
    </g>
    <text id="Brand_color" data-name="Brand color" class="cls-16" transform="translate(526.648 87.055)"><tspan x="0" y="0">Brand color</tspan></text>
    <circle id="Ellipse_293" data-name="Ellipse 293" class="cls-11" cx="14.092" cy="14.092" r="14.092" transform="translate(627.591 47.596)"/>
    <g id="Group-2" data-name="Group" transform="translate(629.336 94.67)">
      <text id="_f6d462" data-name="#f6d462" class="cls-15" transform="translate(4.123 4)"><tspan x="0" y="0">#f6d462</tspan></text>
      <text id="_246_212_098" data-name="246,212,098" class="cls-15" transform="translate(0 10.263)"><tspan x="0" y="0">246,212,098</tspan></text>
    </g>
    <text id="Brand_color-2" data-name="Brand color" class="cls-16" transform="translate(630.263 87.1)"><tspan x="0" y="0">Brand color</tspan></text>
    <g id="Group_1406" data-name="Group 1406" transform="translate(723.107 124.408)">
      <text id="_Paragraph_on_light_background" data-name="“Paragraph” on light background" class="cls-17" transform="translate(0 3)"><tspan x="0" y="0">“Paragraph” on light background</tspan></text>
    </g>
    <g id="Group_1407" data-name="Group 1407" transform="translate(723.107 151.549)">
      <text id="_Paragraph_on_dark_background" data-name="“Paragraph” on dark background" class="cls-18" transform="translate(0 3)"><tspan x="0" y="0">“Paragraph” on dark background</tspan></text>
    </g>
    <g id="Group_1408" data-name="Group 1408" transform="translate(723.107 137.31)">
      <text id="_Quote_on_light_background" data-name="“Quote” on light background" class="cls-19" transform="translate(0 3)"><tspan x="0" y="0">“Quote” on light background</tspan></text>
    </g>
    <g id="Group-3" data-name="Group" transform="translate(721.721 94.625)">
      <text id="_A1AEB4" data-name="#A1AEB4" class="cls-15" transform="translate(3.027 4)"><tspan x="0" y="0">#A1AEB4</tspan></text>
      <text id="_161_174_180" data-name="161,174,180" class="cls-15" transform="translate(0 10.263)"><tspan x="0" y="0">161,174,180</tspan></text>
    </g>
    <g id="Group-4" data-name="Group" transform="translate(813.31 94.625)">
      <text id="_FFFFFF" data-name="#FFFFFF" class="cls-15" transform="translate(3.836 4)"><tspan x="0" y="0">#FFFFFF</tspan></text>
      <text id="_255_255_255" data-name="255,255,255" class="cls-15" transform="translate(0 10.263)"><tspan x="0" y="0">255,255,255</tspan></text>
    </g>
    <text id="Font_color" data-name="Font color" class="cls-16" transform="translate(724.059 87.055)"><tspan x="0" y="0">Font color</tspan></text>
    <text id="Background_color" data-name="Background color" class="cls-16" transform="translate(808.193 87.055)"><tspan x="0" y="0">Background color</tspan></text>
    <g id="Group_1409" data-name="Group 1409" transform="translate(10.967 245.673)">
      <text id="Noto_Sans_CJK_TC" data-name="Noto Sans CJK TC" class="cls-20" transform="translate(0 6)"><tspan x="0" y="0">Noto Sans CJK TC</tspan></text>
    </g>
    <text id="Pacifico_Regular" data-name="Pacifico Regular" class="cls-21" transform="translate(10.967 313.739)"><tspan x="0" y="0">Pacifico Regular</tspan></text>
    <g id="Group_1410" data-name="Group 1410" transform="translate(150.585 281.426)">
      <text id="AaBcDd" class="cls-22" transform="translate(0 40)"><tspan x="0" y="0">AaBcDd</tspan></text>
    </g>
    <line id="Line_226" data-name="Line 226" class="cls-23" x2="42.277" transform="translate(92.487 250.604)"/>
    <line id="Line_227" data-name="Line 227" class="cls-23" x2="42.277" transform="translate(92.487 314.019)"/>
    <g id="Group_1411" data-name="Group 1411" transform="translate(150.683 226.991)">
      <text id="Aa滾滾長江" class="cls-24" transform="translate(0 33)"><tspan x="0" y="0">Aa</tspan><tspan class="cls-25" y="0">滾滾長江</tspan></text>
    </g>
    <text id="一壺濁酒喜相逢_浪花淘盡英雄_是非成敗轉頭空_滾滾長江東逝水_白髮漁樵江渚_古今多少事" data-name="一壺濁酒喜相逢，浪花淘盡英雄
是非成敗轉頭空
滾滾長江東逝水，白髮漁樵江渚
古今多少事" class="cls-26" transform="translate(196.225 604.457)"><tspan x="0" y="0">一壺濁酒喜相逢，浪花淘盡英雄</tspan><tspan class="cls-27" y="0"></tspan><tspan x="0" y="9">是非成敗轉頭空</tspan><tspan class="cls-27" y="9"></tspan><tspan x="0" y="18">滾滾長江東逝水，白髮漁樵江渚</tspan><tspan class="cls-27" y="18"></tspan><tspan x="0" y="27">古今多少事</tspan></text>
    <g id="Group_1412" data-name="Group 1412" transform="translate(196.186 650.254)">
      <text id="加入成為kudoo頻道主" class="cls-28" transform="translate(0 5)"><tspan x="0" y="0">加入成為</tspan><tspan class="cls-27" y="0">kudoo</tspan><tspan y="0">頻道主</tspan></text>
    </g>
    <g id="Group_1414" data-name="Group 1414" transform="translate(10.987 894.645)">
      <path id="Path_1219" data-name="Path 1219" class="cls-3" d="M98.208,4043.165l-54.8.052a1.292,1.292,0,0,1-1.3-1.3v-8.455a1.292,1.292,0,0,1,1.3-1.3l54.8-.052a1.292,1.292,0,0,1,1.3,1.3v8.455A1.292,1.292,0,0,1,98.208,4043.165Z" transform="translate(-42.1 -4032.1)"/>
      <g id="Group_1413" data-name="Group 1413" transform="translate(21.586 1.517)">
        <text id="購買" class="cls-29" transform="translate(0.004 5.749) rotate(-0.044)"><tspan x="0" y="0">購買</tspan></text>
      </g>
    </g>
    <g id="Group_1416" data-name="Group 1416" transform="translate(10.987 878.413)">
      <g id="Group_1415" data-name="Group 1415">
        <path id="Path_1220" data-name="Path 1220" class="cls-30" d="M98.208,3980.965l-54.8.052a1.292,1.292,0,0,1-1.3-1.3v-8.455a1.292,1.292,0,0,1,1.3-1.3l54.8-.052a1.292,1.292,0,0,1,1.3,1.3v8.455A1.309,1.309,0,0,1,98.208,3980.965Z" transform="translate(-42.1 -3969.9)"/>
      </g>
      <text id="_1" data-name="1" class="cls-31" transform="translate(27.089 7.076) rotate(-0.044)"><tspan x="0" y="0">1</tspan></text>
      <path id="Path_1221" data-name="Path 1221" class="cls-3" d="M240.583,3980.9l-.783,1.383h1.592Z" transform="translate(-188.207 -3978.029)"/>
      <path id="Path_1222" data-name="Path 1222" class="cls-3" d="M240.609,3995.483l.783-1.383H239.8Z" transform="translate(-188.207 -3987.785)"/>
    </g>
    <g id="Group_1418" data-name="Group 1418" transform="translate(10.987 862.494)">
      <g id="Group_1417" data-name="Group 1417">
        <path id="Path_1223" data-name="Path 1223" class="cls-32" d="M98.208,3919.339l-54.8.052a1.292,1.292,0,0,1-1.3-1.3v-7.829a1.292,1.292,0,0,1,1.3-1.3l54.8-.052a1.292,1.292,0,0,1,1.3,1.3v7.829A1.344,1.344,0,0,1,98.208,3919.339Z" transform="translate(-42.1 -3908.9)"/>
      </g>
      <text id="_-" data-name="-" class="cls-33" transform="translate(27.606 6.75) rotate(-0.044)"><tspan x="0" y="0">-</tspan></text>
      <path id="Path_1224" data-name="Path 1224" class="cls-3" d="M240.309,3927.257l.783-1.357H239.5Z" transform="translate(-187.985 -3921.463)"/>
    </g>
    <g id="Group_1419" data-name="Group 1419" transform="translate(306.888 485.459)">
      <text id="創作_精選" data-name="創作
精選" class="cls-34" transform="translate(0 16)"><tspan x="0" y="0">創作</tspan><tspan class="cls-27" y="0"></tspan><tspan x="0" y="20">精選</tspan></text>
    </g>
    <g id="Group_1420" data-name="Group 1420" transform="translate(196.225 715.566)">
      <text id="_-_青山依" data-name="- 青山依" class="cls-35" transform="translate(0 3)"><tspan x="0" y="0">- </tspan><tspan class="cls-25" y="0">青山依</tspan></text>
    </g>
    <g id="Group-5" data-name="Group" transform="translate(196.227 558.242)">
      <text id="更多" class="cls-36" transform="translate(3.732 6)"><tspan x="0" y="0">更多</tspan></text>
      <text id="創作品" class="cls-36" transform="translate(0 15.917)"><tspan x="0" y="0">創作品</tspan></text>
    </g>
    <g id="Group_1421" data-name="Group 1421" transform="translate(66.258 766.332)">
      <rect id="Rectangle_616" data-name="Rectangle 616" class="cls-37" width="79.595" height="17.093" transform="translate(0.002 0.674)"/>
      <text id="創作人介紹秋月春風_一壺濁酒喜相逢_浪花淘_盡英雄_是非成敗轉頭空_滾滾長江東逝水_白_髮漁樵江渚上_古今多少事_都付笑談" data-name="創作人介紹秋月春風。一壺濁酒喜相逢，浪花淘
盡英雄。是非成敗轉頭空，滾滾長江東逝水，白
髮漁樵江渚上，古今多少事，都付笑談" class="cls-38" transform="translate(0 3)"><tspan x="0" y="0">創作人介紹秋月春風。一壺濁酒喜相逢，浪花淘</tspan><tspan class="cls-27" y="0"></tspan><tspan x="0" y="5">盡英雄。是非成敗轉頭空，滾滾長江東逝水，白</tspan><tspan class="cls-27" y="5"></tspan><tspan x="0" y="10">髮漁樵江渚上，古今多少事，都付笑談</tspan></text>
    </g>
    <g id="Group_1422" data-name="Group 1422" transform="translate(196.225 687.313)">
      <text id="關於我們" class="cls-39" transform="translate(0 3)"><tspan x="0" y="0">關於我們</tspan></text>
    </g>
    <g id="Group_1424" data-name="Group 1424" transform="translate(10.961 829.925)">
      <g id="Group_1423" data-name="Group 1423" transform="translate(7.929 1.795)">
        <text id="加入成為kudoo創作人" class="cls-28" transform="translate(0 5)"><tspan x="0" y="0">加入成為</tspan><tspan class="cls-27" y="0">kudoo</tspan><tspan y="0">創作人</tspan></text>
      </g>
      <path id="Path_1225" data-name="Path 1225" class="cls-40" d="M110.243,3795.008H43.435A1.448,1.448,0,0,1,42,3793.573v-8.038a1.448,1.448,0,0,1,1.435-1.435h66.808a1.448,1.448,0,0,1,1.435,1.435v8.038A1.431,1.431,0,0,1,110.243,3795.008Z" transform="translate(-42 -3784.1)"/>
    </g>
    <g id="Group_1426" data-name="Group 1426" transform="translate(10.961 846.027)">
      <g id="Group_1425" data-name="Group 1425" transform="translate(7.929 1.783)">
        <text id="加入成為kudoo創作人-2" data-name="加入成為kudoo創作人" class="cls-28" transform="translate(0 5)"><tspan x="0" y="0">加入成為</tspan><tspan class="cls-27" y="0">kudoo</tspan><tspan y="0">創作人</tspan></text>
      </g>
      <path id="Path_1226" data-name="Path 1226" class="cls-40" d="M110.243,3856.708H43.435A1.448,1.448,0,0,1,42,3855.273v-8.038a1.448,1.448,0,0,1,1.435-1.435h66.808a1.448,1.448,0,0,1,1.435,1.435v8.038A1.431,1.431,0,0,1,110.243,3856.708Z" transform="translate(-42 -3845.8)"/>
    </g>
    <g id="Group_1427" data-name="Group 1427" transform="translate(114.669 832.065)">
      <path id="Path_1227" data-name="Path 1227" class="cls-11" d="M502.032,3800.129v54.8h-54.8v-54.8h54.8m3.915-7.829H443.315a3.909,3.909,0,0,0-3.915,3.914v62.632a3.909,3.909,0,0,0,3.915,3.915h62.632a3.909,3.909,0,0,0,3.915-3.915v-62.632a3.909,3.909,0,0,0-3.915-3.914Z" transform="translate(-439.4 -3792.3)"/>
    </g>
    <text id="h1" class="cls-41" transform="translate(10.967 389.016)"><tspan x="0" y="0">h1</tspan></text>
    <g id="Group_1428" data-name="Group 1428" transform="translate(66.258 436.82)">
      <text id="h1_Medium" data-name="h1 Medium" class="cls-42" transform="translate(0 14)"><tspan x="0" y="0">h1 Medium</tspan></text>
    </g>
    <g id="Group_1429" data-name="Group 1429" transform="translate(10.967 485.459)">
      <text id="h2" class="cls-43" transform="translate(0 16)"><tspan x="0" y="0">h2</tspan></text>
    </g>
    <g id="Group_1430" data-name="Group 1430" transform="translate(10.967 558.243)">
      <text id="h3" class="cls-44" transform="translate(0 6)"><tspan x="0" y="0">h3</tspan></text>
    </g>
    <g id="Group_1431" data-name="Group 1431" transform="translate(66.258 375.016)">
      <text id="Noto_Sans_CJK_TC_Regular_ltter-spacing:0.08_word_line-height:70px" data-name="Noto Sans CJK TC Regular
ltter-spacing:0.08 word
line-height:70px" class="cls-41" transform="translate(0 14)"><tspan x="0" y="0">Noto Sans CJK TC Regular</tspan><tspan x="0" y="18">ltter-spacing:0.08 word</tspan><tspan x="0" y="36">line-height:70px</tspan></text>
    </g>
    <g id="Group_1432" data-name="Group 1432" transform="translate(66.258 455.088)">
      <text id="Noto_Sans_CJK_TC_Medium" data-name="Noto Sans CJK TC Medium" class="cls-42" transform="translate(0 14)"><tspan x="0" y="0">Noto Sans CJK TC Medium</tspan></text>
    </g>
    <g id="Group_1433" data-name="Group 1433" transform="translate(66.258 485.459)">
      <text id="Noto_Sans_CJK_TC_Regular_ltter-spacing:0.08_word_line-height:81.5px" data-name="Noto Sans CJK TC Regular
ltter-spacing:0.08 word
line-height:81.5px" class="cls-43" transform="translate(0 16)"><tspan x="0" y="0">Noto Sans CJK TC Regular</tspan><tspan x="0" y="20">ltter-spacing:0.08 word</tspan><tspan x="0" y="40">line-height:81.5px</tspan></text>
    </g>
    <g id="Group_1434" data-name="Group 1434" transform="translate(66.258 558.243)">
      <text id="Noto_Sans_CJK_TC_Medium_ltter-spacing:0.06_word_line-height:38px" data-name="Noto Sans CJK TC Medium
ltter-spacing:0.06 word
line-height:38px" class="cls-44" transform="translate(0 6)"><tspan x="0" y="0">Noto Sans CJK TC Medium</tspan><tspan x="0" y="8">ltter-spacing:0.06 word</tspan><tspan x="0" y="16">line-height:38px</tspan></text>
    </g>
    <g id="Group_1435" data-name="Group 1435" transform="translate(10.967 598.457)">
      <text id="h3-2" data-name="h3" class="cls-45" transform="translate(0 6)"><tspan x="0" y="0">h3</tspan></text>
    </g>
    <g id="Group_1436" data-name="Group 1436" transform="translate(66.258 598.457)">
      <text id="Noto_Sans_CJK_TC_Thin_ltter-spacing:0.08_word_line-height:37.5px" data-name="Noto Sans CJK TC Thin
ltter-spacing:0.08 word
line-height:37.5px" class="cls-45" transform="translate(0 6)"><tspan x="0" y="0">Noto Sans CJK TC Thin</tspan><tspan x="0" y="9">ltter-spacing:0.08 word</tspan><tspan x="0" y="18">line-height:37.5px</tspan></text>
    </g>
    <g id="Group_1437" data-name="Group 1437" transform="translate(10.967 654.952)">
      <text id="h5" class="cls-46" transform="translate(0 4)"><tspan x="0" y="0">h5</tspan></text>
    </g>
    <g id="Group_1438" data-name="Group 1438" transform="translate(10.967 687.313)">
      <text id="h6" class="cls-47" transform="translate(0 4)"><tspan x="0" y="0">h6</tspan></text>
    </g>
    <g id="Group_1439" data-name="Group 1439" transform="translate(66.258 650.254)">
      <text id="Noto_Sans_CJK_TC_DemiLight_ltter-spacing:0.1_word_line-height:32.4px" data-name="Noto Sans CJK TC DemiLight
ltter-spacing:0.1 word
line-height:32.4px" class="cls-48" transform="translate(0 5)"><tspan x="0" y="0">Noto Sans CJK TC DemiLight</tspan><tspan x="0" y="8">ltter-spacing:0.1 word</tspan><tspan x="0" y="16">line-height:32.4px</tspan></text>
    </g>
    <g id="Group_1440" data-name="Group 1440" transform="translate(66.258 687.313)">
      <text id="Noto_Sans_CJK_TC_DemiLight_ltter-spacing:0.12_word_line-height:18px" data-name="Noto Sans CJK TC DemiLight
ltter-spacing:0.12 word
line-height:18px" class="cls-49" transform="translate(0 3)"><tspan x="0" y="0">Noto Sans CJK TC DemiLight</tspan><tspan x="0" y="4">ltter-spacing:0.12 word</tspan><tspan x="0" y="8">line-height:18px</tspan></text>
    </g>
    <g id="Group_1441" data-name="Group 1441" transform="translate(375.267 375.016)">
      <text id="_50px" data-name="50px" class="cls-50" transform="translate(0 13)"><tspan x="0" y="0">50px</tspan></text>
    </g>
    <g id="Group_1442" data-name="Group 1442" transform="translate(375.391 485.459)">
      <text id="_60px" data-name="60px" class="cls-43" transform="translate(0 16)"><tspan x="0" y="0">60px</tspan></text>
    </g>
    <g id="Group_1443" data-name="Group 1443" transform="translate(375.309 558.243)">
      <text id="_27px" data-name="27px" class="cls-51" transform="translate(0 6)"><tspan x="0" y="0">27px</tspan></text>
    </g>
    <g id="Group_1444" data-name="Group 1444" transform="translate(375.391 598.457)">
      <text id="_25px" data-name="25px" class="cls-51" transform="translate(0 6)"><tspan x="0" y="0">25px</tspan></text>
    </g>
    <g id="Group_1445" data-name="Group 1445" transform="translate(375.391 648.168)">
      <text id="_20px" data-name="20px" class="cls-48" transform="translate(0 5)"><tspan x="0" y="0">20px</tspan></text>
    </g>
    <g id="Group_1446" data-name="Group 1446" transform="translate(375.391 687.313)">
      <text id="_15px" data-name="15px" class="cls-52" transform="translate(0 3)"><tspan x="0" y="0">15px</tspan></text>
    </g>
    <g id="Group_1447" data-name="Group 1447" transform="translate(375.391 715.566)">
      <text id="_12px" data-name="12px" class="cls-52" transform="translate(0 3)"><tspan x="0" y="0">12px</tspan></text>
    </g>
    <g id="Group_1448" data-name="Group 1448" transform="translate(375.391 744.584)">
      <text id="_13px" data-name="13px" class="cls-52" transform="translate(0 3)"><tspan x="0" y="0">13px</tspan></text>
    </g>
    <path id="Path_1228" data-name="Path 1228" class="cls-53" d="M1851.268,2059.673H1834.3l-1.3-1.3V2041.4l1.3-1.3h16.963l1.3,1.3v16.963Z" transform="translate(-1354.646 -1665.302)"/>
    <path id="Path_1229" data-name="Path 1229" class="cls-4" d="M1851.268,2313.873H1834.3l-1.3-1.3V2295.6l1.3-1.3h16.963l1.3,1.3v16.963C1852.051,2313.063,1851.764,2313.351,1851.268,2313.873Z" transform="translate(-1354.646 -1853.164)"/>
    <path id="Path_1230" data-name="Path 1230" class="cls-54" d="M1851.268,2495.873H1834.3l-1.3-1.3V2477.6l1.3-1.3h16.963l1.3,1.3v16.963Z" transform="translate(-1354.646 -1987.668)"/>
    <path id="Path_1231" data-name="Path 1231" class="cls-55" d="M2113.468,2495.873H2096.5l-1.3-1.3V2477.6l1.3-1.3h16.963l1.3,1.3v16.963C2114.277,2495.09,2113.99,2495.377,2113.468,2495.873Z" transform="translate(-1548.421 -1987.668)"/>
    <path id="Path_1232" data-name="Path 1232" class="cls-56" d="M1851.268,2767.873H1834.3l-1.3-1.3V2749.6l1.3-1.3h16.963l1.3,1.3v16.963C1852.051,2767.063,1851.764,2767.351,1851.268,2767.873Z" transform="translate(-1354.646 -2188.685)"/>
    <path id="Path_1233" data-name="Path 1233" class="cls-4" d="M1851.268,2921.673H1834.3l-1.3-1.3v-16.963l1.3-1.3h16.963l1.3,1.3v16.963Z" transform="translate(-1354.646 -2302.348)"/>
    <path id="Path_1234" data-name="Path 1234" class="cls-54" d="M1851.268,3111.573H1834.3l-1.3-1.3V3093.3l1.3-1.3h16.963l1.3,1.3v16.963Z" transform="translate(-1354.646 -2442.69)"/>
    <path id="Path_1235" data-name="Path 1235" class="cls-57" d="M1851.268,3259.972H1834.3l-1.3-1.3V3241.7l1.3-1.3h16.963l1.3,1.3v16.963Z" transform="translate(-1354.646 -2552.363)"/>
    <path id="Path_1236" data-name="Path 1236" class="cls-54" d="M1851.268,3367.873H1834.3l-1.3-1.3V3349.6l1.3-1.3h16.963l1.3,1.3v16.963Z" transform="translate(-1354.646 -2632.104)"/>
    <path id="Path_1237" data-name="Path 1237" class="cls-4" d="M1851.268,3479.173H1834.3l-1.3-1.3v-16.963l1.3-1.3h16.963l1.3,1.3v16.963Z" transform="translate(-1354.646 -2714.359)"/>
    <path id="Path_1238" data-name="Path 1238" class="cls-55" d="M2113.468,2767.873H2096.5l-1.3-1.3V2749.6l1.3-1.3h16.963l1.3,1.3v16.963Z" transform="translate(-1548.421 -2188.685)"/>
    <path id="Path_1239" data-name="Path 1239" class="cls-55" d="M2113.468,2921.673H2096.5l-1.3-1.3v-16.963l1.3-1.3h16.963l1.3,1.3v16.963C2114.277,2920.89,2113.99,2921.177,2113.468,2921.673Z" transform="translate(-1548.421 -2302.348)"/>
    <path id="Path_1240" data-name="Path 1240" class="cls-55" d="M2113.468,3111.573H2096.5l-1.3-1.3V3093.3l1.3-1.3h16.963l1.3,1.3v16.963C2114.277,3110.79,2113.99,3111.077,2113.468,3111.573Z" transform="translate(-1548.421 -2442.69)"/>
    <path id="Path_1241" data-name="Path 1241" class="cls-55" d="M2113.468,3259.972H2096.5l-1.3-1.3V3241.7l1.3-1.3h16.963l1.3,1.3v16.963C2114.277,3259.189,2113.99,3259.477,2113.468,3259.972Z" transform="translate(-1548.421 -2552.363)"/>
    <path id="Path_1242" data-name="Path 1242" class="cls-55" d="M2113.468,3367.873H2096.5l-1.3-1.3V3349.6l1.3-1.3h16.963l1.3,1.3v16.963C2114.277,3367.09,2113.99,3367.377,2113.468,3367.873Z" transform="translate(-1548.421 -2632.104)"/>
    <path id="Path_1243" data-name="Path 1243" class="cls-55" d="M2113.468,3479.173H2096.5l-1.3-1.3v-16.963l1.3-1.3h16.963l1.3,1.3v16.963C2114.277,3478.39,2113.99,3478.677,2113.468,3479.173Z" transform="translate(-1548.421 -2714.359)"/>
    <g id="Group_1449" data-name="Group 1449" transform="translate(473.277 398.189)">
      <text id="_3e3322" data-name="#3e3322" class="cls-58" transform="translate(0 5)"><tspan x="0" y="0">#3e3322</tspan></text>
    </g>
    <g id="Group_1450" data-name="Group 1450" transform="translate(473.277 464.784)">
      <text id="_828d93" data-name="#828d93" class="cls-58" transform="translate(0 5)"><tspan x="0" y="0">#828d93</tspan></text>
    </g>
    <g id="Group_1451" data-name="Group 1451" transform="translate(473.277 512.147)">
      <text id="_4d4d4d" data-name="#4d4d4d" class="cls-58" transform="translate(0 5)"><tspan x="0" y="0">#4d4d4d</tspan></text>
    </g>
    <g id="Group_1452" data-name="Group 1452" transform="translate(473.277 582.605)">
      <text id="_999999" data-name="#999999" class="cls-58" transform="translate(0 5)"><tspan x="0" y="0">#999999</tspan></text>
    </g>
    <g id="Group_1453" data-name="Group 1453" transform="translate(473.277 622.923)">
      <text id="_828d93-2" data-name="#828d93" class="cls-58" transform="translate(0 5)"><tspan x="0" y="0">#828d93</tspan></text>
    </g>
    <g id="Group_1454" data-name="Group 1454" transform="translate(473.277 671.46)">
      <text id="_4d4d4d-2" data-name="#4d4d4d" class="cls-58" transform="translate(0 5)"><tspan x="0" y="0">#4d4d4d</tspan></text>
    </g>
    <g id="Group_1455" data-name="Group 1455" transform="translate(473.277 707.472)">
      <text id="_808080" data-name="#808080" class="cls-58" transform="translate(0 5)"><tspan x="0" y="0">#808080</tspan></text>
    </g>
    <g id="Group_1456" data-name="Group 1456" transform="translate(473.277 735.655)">
      <text id="_4d4d4d-3" data-name="#4d4d4d" class="cls-58" transform="translate(0 5)"><tspan x="0" y="0">#4d4d4d</tspan></text>
    </g>
    <g id="Group_1457" data-name="Group 1457" transform="translate(473.277 765.795)">
      <text id="_828d93-3" data-name="#828d93" class="cls-58" transform="translate(0 5)"><tspan x="0" y="0">#828d93</tspan></text>
    </g>
    <path id="Path_1244" data-name="Path 1244" class="cls-55" d="M2113.468,2059.673H2096.5l-1.3-1.3V2041.4l1.3-1.3h16.963l1.3,1.3v16.963C2114.277,2058.89,2113.99,2059.177,2113.468,2059.673Z" transform="translate(-1548.421 -1665.302)"/>
    <g id="Group_1458" data-name="Group 1458" transform="translate(532.82 406.584)">
      <text id="_fff" data-name="#fff" class="cls-59" transform="translate(0 5)"><tspan x="0" y="0">#fff</tspan></text>
    </g>
    <g id="Group_1459" data-name="Group 1459" transform="translate(10.967 715.566)">
      <text id="_.mini_bold" data-name=".mini_bold" class="cls-52" transform="translate(0 3)"><tspan x="0" y="0">.mini_bold</tspan></text>
    </g>
    <g id="Group_1460" data-name="Group 1460" transform="translate(66.258 715.566)">
      <text id="Noto_Sans_CJK_TC_Bold_ltter-spacing:0.08_word_1px_" data-name="Noto Sans CJK TC Bold
ltter-spacing:0.08 word /1px," class="cls-52" transform="translate(0 3)"><tspan x="0" y="0">Noto Sans CJK TC Bold</tspan><tspan x="0" y="6">ltter-spacing:0.08 word /1px,</tspan></text>
    </g>
    <g id="Group_1461" data-name="Group 1461" transform="translate(10.967 744.584)">
      <text id="paragraph" class="cls-60" transform="translate(0 3)"><tspan x="0" y="0">paragraph</tspan></text>
    </g>
    <g id="Group_1462" data-name="Group 1462" transform="translate(66.258 744.584)">
      <text id="Noto_Sans_CJK_TC_Thin_ltter-spacing:0.08_word_line-height:21px" data-name="Noto Sans CJK TC Thin
ltter-spacing:0.08 word , 
line-height:21px" class="cls-60" transform="translate(0 3)"><tspan x="0" y="0">Noto Sans CJK TC Thin</tspan><tspan x="0" y="5">ltter-spacing:0.08 word , </tspan><tspan x="0" y="10">line-height:21px</tspan></text>
    </g>
    <g id="Group_1463" data-name="Group 1463" transform="translate(650.477 766.332)">
      <rect id="Rectangle_617" data-name="Rectangle 617" class="cls-37" width="79.595" height="17.093" transform="translate(0.011 0.674)"/>
      <text id="創作人介紹秋月春風_一壺濁酒喜相逢_浪花淘_盡英雄_是非成敗轉頭空_滾滾長江東逝水_白_髮漁樵江渚上_古今多少事_都付笑談-2" data-name="創作人介紹秋月春風。一壺濁酒喜相逢，浪花淘
盡英雄。是非成敗轉頭空，滾滾長江東逝水，白
髮漁樵江渚上，古今多少事，都付笑談" class="cls-61" transform="translate(0 3)"><tspan x="0" y="0">創作人介紹秋月春風。一壺濁酒喜相逢，浪花淘</tspan><tspan class="cls-27" y="0"></tspan><tspan x="0" y="5">盡英雄。是非成敗轉頭空，滾滾長江東逝水，白</tspan><tspan class="cls-27" y="5"></tspan><tspan x="0" y="10">髮漁樵江渚上，古今多少事，都付笑談</tspan></text>
    </g>
    <text id="h1-2" data-name="h1" class="cls-62" transform="translate(594.566 389.016)"><tspan x="0" y="0">h1</tspan></text>
    <g id="Group_1464" data-name="Group 1464" transform="translate(594.566 485.459)">
      <text id="h2-2" data-name="h2" class="cls-63" transform="translate(0 16)"><tspan x="0" y="0">h2</tspan></text>
    </g>
    <g id="Group_1465" data-name="Group 1465" transform="translate(594.566 558.243)">
      <text id="h3-3" data-name="h3" class="cls-64" transform="translate(0 6)"><tspan x="0" y="0">h3</tspan></text>
    </g>
    <g id="Group_1466" data-name="Group 1466" transform="translate(669.424 375.016)">
      <text id="Noto_Sans_CJK_TC_Regular_ltter-spacing:0.08_word_line-height:70px-2" data-name="Noto Sans CJK TC Regular
ltter-spacing:0.08 word
line-height:70px" class="cls-62" transform="translate(0 14)"><tspan x="0" y="0">Noto Sans CJK TC Regular</tspan><tspan x="0" y="18">ltter-spacing:0.08 word</tspan><tspan x="0" y="36">line-height:70px</tspan></text>
    </g>
    <g id="Group_1467" data-name="Group 1467" transform="translate(658.463 485.459)">
      <text id="Noto_Sans_CJK_TC_Regular_ltter-spacing:0.08_word_line-height:81.5px-2" data-name="Noto Sans CJK TC Regular
ltter-spacing:0.08 word
line-height:81.5px" class="cls-63" transform="translate(0 16)"><tspan x="0" y="0">Noto Sans CJK TC Regular</tspan><tspan x="0" y="20">ltter-spacing:0.08 word</tspan><tspan x="0" y="40">line-height:81.5px</tspan></text>
    </g>
    <g id="Group_1468" data-name="Group 1468" transform="translate(658.463 558.243)">
      <text id="Noto_Sans_CJK_TC_Medium_ltter-spacing:0.06_word_line-height:38px-2" data-name="Noto Sans CJK TC Medium
ltter-spacing:0.06 word
line-height:38px" class="cls-64" transform="translate(0 6)"><tspan x="0" y="0">Noto Sans CJK TC Medium</tspan><tspan x="0" y="8">ltter-spacing:0.06 word</tspan><tspan x="0" y="16">line-height:38px</tspan></text>
    </g>
    <g id="Group_1469" data-name="Group 1469" transform="translate(594.566 598.457)">
      <text id="h3-4" data-name="h3" class="cls-64" transform="translate(0 6)"><tspan x="0" y="0">h3</tspan></text>
    </g>
    <g id="Group_1470" data-name="Group 1470" transform="translate(658.463 598.457)">
      <text id="Noto_Sans_CJK_TC_Thin_ltter-spacing:0.08_word_line-height:37.5px-2" data-name="Noto Sans CJK TC Thin
ltter-spacing:0.08 word
line-height:37.5px" class="cls-64" transform="translate(0 6)"><tspan x="0" y="0">Noto Sans CJK TC Thin</tspan><tspan x="0" y="9">ltter-spacing:0.08 word</tspan><tspan x="0" y="18">line-height:37.5px</tspan></text>
    </g>
    <g id="Group_1471" data-name="Group 1471" transform="translate(594.566 648.168)">
      <text id="h5-2" data-name="h5" class="cls-65" transform="translate(0 4)"><tspan x="0" y="0">h5</tspan></text>
    </g>
    <g id="Group_1472" data-name="Group 1472" transform="translate(594.566 687.313)">
      <text id="h6-2" data-name="h6" class="cls-65" transform="translate(0 4)"><tspan x="0" y="0">h6</tspan></text>
    </g>
    <g id="Group_1473" data-name="Group 1473" transform="translate(658.463 648.168)">
      <text id="Noto_Sans_CJK_TC_DemiLight_ltter-spacing:0.1_word_line-height:32.4px-2" data-name="Noto Sans CJK TC DemiLight
ltter-spacing:0.1 word
line-height:32.4px" class="cls-66" transform="translate(0 5)"><tspan x="0" y="0">Noto Sans CJK TC DemiLight</tspan><tspan x="0" y="8">ltter-spacing:0.1 word</tspan><tspan x="0" y="16">line-height:32.4px</tspan></text>
    </g>
    <g id="Group_1474" data-name="Group 1474" transform="translate(653.198 687.313)">
      <text id="Noto_Sans_CJK_TC_DemiLight_ltter-spacing:0.12_word_line-height:18px-2" data-name="Noto Sans CJK TC DemiLight
ltter-spacing:0.12 word
line-height:18px" class="cls-35" transform="translate(0 3)"><tspan x="0" y="0">Noto Sans CJK TC DemiLight</tspan><tspan x="0" y="4">ltter-spacing:0.12 word</tspan><tspan x="0" y="8">line-height:18px</tspan></text>
    </g>
    <g id="Group_1475" data-name="Group 1475" transform="translate(594.566 715.566)">
      <text id="_.mini_bold-2" data-name=".mini_bold" class="cls-35" transform="translate(0 3)"><tspan x="0" y="0">.mini_bold</tspan></text>
    </g>
    <g id="Group_1476" data-name="Group 1476" transform="translate(653.198 715.566)">
      <text id="Noto_Sans_CJK_TC_Bold_ltter-spacing:0.08_word_1px_2" data-name="Noto Sans CJK TC Bold
ltter-spacing:0.08 word /1px," class="cls-35" transform="translate(0 3)"><tspan x="0" y="0">Noto Sans CJK TC Bold</tspan><tspan x="0" y="6">ltter-spacing:0.08 word /1px,</tspan></text>
    </g>
    <g id="Group_1477" data-name="Group 1477" transform="translate(594.566 744.584)">
      <text id="paragraph-2" data-name="paragraph" class="cls-35" transform="translate(0 3)"><tspan x="0" y="0">paragraph</tspan></text>
    </g>
    <g id="Group_1478" data-name="Group 1478" transform="translate(650.825 744.584)">
      <text id="Noto_Sans_CJK_TC_Thin_ltter-spacing:0.08_word_line-height:21px-2" data-name="Noto Sans CJK TC Thin
ltter-spacing:0.08 word , 
line-height:21px" class="cls-35" transform="translate(0 3)"><tspan x="0" y="0">Noto Sans CJK TC Thin</tspan><tspan x="0" y="5">ltter-spacing:0.08 word , </tspan><tspan x="0" y="10">line-height:21px</tspan></text>
    </g>
    <text id="Total_weight_:_1200px_Offset_:_30px_Columns:12_Columns_weight_:_70px" data-name="Total weight : 1200px
Offset : 30px
Columns:12
Columns weight : 70px" class="cls-67" transform="translate(327.817 59.709)"><tspan x="0" y="0">Total weight : 1200px</tspan><tspan x="0" y="8">Offset : 30px</tspan><tspan x="0" y="16">Columns:12</tspan><tspan x="0" y="24">Columns weight : 70px</tspan></text>
    <g id="Group_1479" data-name="Group 1479" transform="translate(327.817 37.251)">
      <text id="PC" class="cls-20" transform="translate(0 6)"><tspan x="0" y="0">PC</tspan></text>
    </g>
    <g id="Group_1480" data-name="Group 1480" class="cls-68" transform="translate(0 30.645)">
      <rect id="Rectangle_618" data-name="Rectangle 618" class="cls-69" width="18.268" height="55.56" transform="translate(7.829)"/>
      <rect id="Rectangle_619" data-name="Rectangle 619" class="cls-70" width="7.829" height="55.56" transform="translate(26.097 0.026)"/>
      <rect id="Rectangle_620" data-name="Rectangle 620" class="cls-69" width="18.268" height="55.56" transform="translate(33.926)"/>
      <rect id="Rectangle_621" data-name="Rectangle 621" class="cls-70" width="7.829" height="55.56" transform="translate(52.194 0.026)"/>
      <rect id="Rectangle_622" data-name="Rectangle 622" class="cls-69" width="18.268" height="55.56" transform="translate(60.023)"/>
      <rect id="Rectangle_623" data-name="Rectangle 623" class="cls-70" width="7.829" height="55.56" transform="translate(78.29 0.026)"/>
      <rect id="Rectangle_624" data-name="Rectangle 624" class="cls-69" width="18.268" height="55.56" transform="translate(86.119)"/>
      <rect id="Rectangle_625" data-name="Rectangle 625" class="cls-70" width="7.829" height="55.56" transform="translate(104.387 0.026)"/>
      <rect id="Rectangle_626" data-name="Rectangle 626" class="cls-69" width="18.268" height="55.56" transform="translate(112.216)"/>
      <rect id="Rectangle_627" data-name="Rectangle 627" class="cls-70" width="7.829" height="55.56" transform="translate(130.484 0.026)"/>
      <rect id="Rectangle_628" data-name="Rectangle 628" class="cls-69" width="18.268" height="55.56" transform="translate(138.313)"/>
      <rect id="Rectangle_629" data-name="Rectangle 629" class="cls-70" width="7.829" height="55.56" transform="translate(156.581 0.026)"/>
      <rect id="Rectangle_630" data-name="Rectangle 630" class="cls-69" width="18.268" height="55.56" transform="translate(164.41)"/>
      <rect id="Rectangle_631" data-name="Rectangle 631" class="cls-70" width="7.829" height="55.56" transform="translate(182.677 0.026)"/>
      <rect id="Rectangle_632" data-name="Rectangle 632" class="cls-69" width="18.268" height="55.56" transform="translate(190.506)"/>
      <rect id="Rectangle_633" data-name="Rectangle 633" class="cls-70" width="7.829" height="55.56" transform="translate(208.774 0.026)"/>
      <rect id="Rectangle_634" data-name="Rectangle 634" class="cls-69" width="18.268" height="55.56" transform="translate(216.603)"/>
      <rect id="Rectangle_635" data-name="Rectangle 635" class="cls-70" width="7.829" height="55.56" transform="translate(234.871 0.026)"/>
      <rect id="Rectangle_636" data-name="Rectangle 636" class="cls-69" width="18.268" height="55.56" transform="translate(242.7)"/>
      <rect id="Rectangle_637" data-name="Rectangle 637" class="cls-70" width="7.829" height="55.56" transform="translate(260.968 0.026)"/>
      <rect id="Rectangle_638" data-name="Rectangle 638" class="cls-69" width="18.268" height="55.56" transform="translate(268.797)"/>
      <rect id="Rectangle_639" data-name="Rectangle 639" class="cls-70" width="7.829" height="55.56" transform="translate(287.064 0.026)"/>
      <rect id="Rectangle_640" data-name="Rectangle 640" class="cls-69" width="18.268" height="55.56" transform="translate(294.893)"/>
      <rect id="Rectangle_641" data-name="Rectangle 641" class="cls-70" width="7.829" height="55.56" transform="translate(313.161 0.026)"/>
      <rect id="Rectangle_642" data-name="Rectangle 642" class="cls-70" width="7.829" height="55.56" transform="translate(0 0.026)"/>
    </g>
  </g>
</svg>
