<svg xmlns="http://www.w3.org/2000/svg" xmlns:xlink="http://www.w3.org/1999/xlink" viewBox="0 0 187.989 441.621">
  <defs>
    <style>
      .cls-1, .cls-13, .cls-14, .cls-27 {
        fill: none;
      }

      .cls-1 {
        stroke: #707070;
        stroke-width: 3px;
      }

      .cls-1, .cls-2 {
        opacity: 0.43;
      }

      .cls-2 {
        fill: #727171;
      }

      .cls-15, .cls-3, .cls-4 {
        fill: #47494d;
      }

      .cls-4 {
        opacity: 0.92;
      }

      .cls-5, .cls-6, .cls-7 {
        fill: #dcdddd;
      }

      .cls-6 {
        font-size: 10px;
      }

      .cls-6, .cls-7 {
        font-family: SegoeUI-Italic, Segoe UI;
        font-style: italic;
      }

      .cls-7 {
        font-size: 7px;
      }

      .cls-8 {
        fill: #fff;
      }

      .cls-10, .cls-9 {
        fill: #7b7b7b;
        font-family: Proxy7, "Proxy 7";
      }

      .cls-9 {
        font-size: 6px;
      }

      .cls-10 {
        font-size: 5px;
      }

      .cls-11 {
        fill: #afafaf;
      }

      .cls-12 {
        opacity: 0.68;
      }

      .cls-13 {
        stroke: #d6d6d6;
        stroke-width: 0.7px;
        opacity: 0.76;
      }

      .cls-14, .cls-15 {
        stroke: #47494d;
      }

      .cls-16, .cls-17 {
        fill: #e6e6e6;
      }

      .cls-16 {
        opacity: 0.05;
      }

      .cls-17 {
        opacity: 0.03;
      }

      .cls-18, .cls-25 {
        opacity: 0.9;
      }

      .cls-18 {
        fill: url(#linear-gradient);
      }

      .cls-19, .cls-20, .cls-21, .cls-22, .cls-23, .cls-24 {
        fill: #bf5352;
      }

      .cls-19 {
        opacity: 0.2;
      }

      .cls-20 {
        opacity: 0.1;
      }

      .cls-21 {
        opacity: 0.15;
      }

      .cls-22 {
        opacity: 0.25;
      }

      .cls-23 {
        opacity: 0.22;
      }

      .cls-24 {
        opacity: 0.83;
      }

      .cls-25 {
        fill: url(#linear-gradient-2);
      }

      .cls-26 {
        stroke: none;
      }

      .cls-28 {
        filter: url(#Rectangle_832);
      }

      .cls-29 {
        filter: url(#Rectangle_830);
      }

      .cls-30 {
        filter: url(#Rectangle_822);
      }

      .cls-31 {
        filter: url(#Rectangle_825);
      }

      .cls-32 {
        filter: url(#Rectangle_826);
      }

      .cls-33 {
        filter: url(#Rectangle_831);
      }

      .cls-34 {
        filter: url(#Rectangle_821);
      }

      .cls-35 {
        filter: url(#Rectangle_824);
      }

      .cls-36 {
        filter: url(#Rectangle_817);
      }
    </style>
    <filter id="Rectangle_817" x="27.729" y="66.044" width="40.269" height="39.111" filterUnits="userSpaceOnUse">
      <feOffset dy="3" input="SourceAlpha"/>
      <feGaussianBlur stdDeviation="1.5" result="blur"/>
      <feFlood flood-opacity="0.161"/>
      <feComposite operator="in" in2="blur"/>
      <feComposite in="SourceGraphic"/>
    </filter>
    <filter id="Rectangle_824" x="27.729" y="98.472" width="75.012" height="39.111" filterUnits="userSpaceOnUse">
      <feOffset dy="3" input="SourceAlpha"/>
      <feGaussianBlur stdDeviation="1.5" result="blur-2"/>
      <feFlood flood-opacity="0.161"/>
      <feComposite operator="in" in2="blur-2"/>
      <feComposite in="SourceGraphic"/>
    </filter>
    <filter id="Rectangle_821" x="97.216" y="66.044" width="40.269" height="39.111" filterUnits="userSpaceOnUse">
      <feOffset dy="3" input="SourceAlpha"/>
      <feGaussianBlur stdDeviation="1.5" result="blur-3"/>
      <feFlood flood-opacity="0.161"/>
      <feComposite operator="in" in2="blur-3"/>
      <feComposite in="SourceGraphic"/>
    </filter>
    <filter id="Rectangle_831" x="132.354" y="66.044" width="40.269" height="39.111" filterUnits="userSpaceOnUse">
      <feOffset dy="3" input="SourceAlpha"/>
      <feGaussianBlur stdDeviation="1.5" result="blur-4"/>
      <feFlood flood-opacity="0.161"/>
      <feComposite operator="in" in2="blur-4"/>
      <feComposite in="SourceGraphic"/>
    </filter>
    <filter id="Rectangle_826" x="131.959" y="97.988" width="40.269" height="39.594" filterUnits="userSpaceOnUse">
      <feOffset dy="3" input="SourceAlpha"/>
      <feGaussianBlur stdDeviation="1.5" result="blur-5"/>
      <feFlood flood-opacity="0.161"/>
      <feComposite operator="in" in2="blur-5"/>
      <feComposite in="SourceGraphic"/>
    </filter>
    <filter id="Rectangle_825" x="97.216" y="98.472" width="40.269" height="39.111" filterUnits="userSpaceOnUse">
      <feOffset dy="3" input="SourceAlpha"/>
      <feGaussianBlur stdDeviation="1.5" result="blur-6"/>
      <feFlood flood-opacity="0.161"/>
      <feComposite operator="in" in2="blur-6"/>
      <feComposite in="SourceGraphic"/>
    </filter>
    <filter id="Rectangle_822" x="62.473" y="66.044" width="40.269" height="39.111" filterUnits="userSpaceOnUse">
      <feOffset dy="3" input="SourceAlpha"/>
      <feGaussianBlur stdDeviation="1.5" result="blur-7"/>
      <feFlood flood-opacity="0.161"/>
      <feComposite operator="in" in2="blur-7"/>
      <feComposite in="SourceGraphic"/>
    </filter>
    <filter id="Rectangle_830" x="130.583" y="149.115" width="46.534" height="18.514" filterUnits="userSpaceOnUse">
      <feOffset dy="1" input="SourceAlpha"/>
      <feGaussianBlur stdDeviation="1" result="blur-8"/>
      <feFlood flood-opacity="0.161"/>
      <feComposite operator="in" in2="blur-8"/>
      <feComposite in="SourceGraphic"/>
    </filter>
    <filter id="Rectangle_832" x="23.04" y="167.216" width="154.077" height="150.548" filterUnits="userSpaceOnUse">
      <feOffset dy="1" input="SourceAlpha"/>
      <feGaussianBlur stdDeviation="1" result="blur-9"/>
      <feFlood flood-opacity="0.161"/>
      <feComposite operator="in" in2="blur-9"/>
      <feComposite in="SourceGraphic"/>
    </filter>
    <linearGradient id="linear-gradient" x1="0.756" y1="-0.126" x2="0.13" y2="1" gradientUnits="objectBoundingBox">
      <stop offset="0"/>
      <stop offset="0.389" stop-color="#7a7a7a" stop-opacity="0.29"/>
      <stop offset="0.548" stop-color="#fff"/>
      <stop offset="1" stop-color="#fff"/>
    </linearGradient>
    <linearGradient id="linear-gradient-2" x1="0.756" y1="-0.126" x2="0.13" y2="1" gradientUnits="objectBoundingBox">
      <stop offset="0" stop-color="#ecd8b9"/>
      <stop offset="0.817" stop-color="#fffefe"/>
      <stop offset="1" stop-color="#fff"/>
    </linearGradient>
  </defs>
  <g id="_010" data-name="010" transform="translate(-570 -5340.223)">
    <g id="Group_1944" data-name="Group 1944" transform="translate(582.773 5341.723)">
      <path id="Path_9597" data-name="Path 9597" class="cls-1" d="M646.916,1496.848a9.6,9.6,0,0,1-9.49,9.722H482.69a9.6,9.6,0,0,1-9.49-9.722V1192.022a9.6,9.6,0,0,1,9.49-9.723H637.427a9.6,9.6,0,0,1,9.49,9.723v304.826Z" transform="translate(-473.2 -1182.3)"/>
      <path id="Path_9598" data-name="Path 9598" class="cls-2" d="M646.916,1496.848a9.6,9.6,0,0,1-9.49,9.722H482.69a9.6,9.6,0,0,1-9.49-9.722V1192.022a9.6,9.6,0,0,1,9.49-9.723H637.427a9.6,9.6,0,0,1,9.49,9.723v304.826Z" transform="translate(-473.2 -1182.3)"/>
      <rect id="Rectangle_809" data-name="Rectangle 809" class="cls-3" width="38.218" height="11.581" rx="5" transform="translate(22.931 30.432)"/>
      <g class="cls-36" transform="matrix(1, 0, 0, 1, -12.77, -1.5)">
        <rect id="Rectangle_817-2" data-name="Rectangle 817" class="cls-4" width="31.269" height="30.111" rx="5" transform="translate(32.23 67.54)"/>
      </g>
      <g class="cls-35" transform="matrix(1, 0, 0, 1, -12.77, -1.5)">
        <rect id="Rectangle_824-2" data-name="Rectangle 824" class="cls-4" width="66.012" height="30.111" rx="5" transform="translate(32.23 99.97)"/>
      </g>
      <g class="cls-34" transform="matrix(1, 0, 0, 1, -12.77, -1.5)">
        <rect id="Rectangle_821-2" data-name="Rectangle 821" class="cls-4" width="31.269" height="30.111" rx="5" transform="translate(101.72 67.54)"/>
      </g>
      <g class="cls-33" transform="matrix(1, 0, 0, 1, -12.77, -1.5)">
        <rect id="Rectangle_831-2" data-name="Rectangle 831" class="cls-4" width="31.269" height="30.111" rx="5" transform="translate(136.85 67.54)"/>
      </g>
      <g class="cls-32" transform="matrix(1, 0, 0, 1, -12.77, -1.5)">
        <rect id="Rectangle_826-2" data-name="Rectangle 826" class="cls-4" width="31.269" height="30.594" rx="5" transform="translate(136.46 99.49)"/>
      </g>
      <g class="cls-31" transform="matrix(1, 0, 0, 1, -12.77, -1.5)">
        <rect id="Rectangle_825-2" data-name="Rectangle 825" class="cls-4" width="31.269" height="30.111" rx="5" transform="translate(101.72 99.97)"/>
      </g>
      <g class="cls-30" transform="matrix(1, 0, 0, 1, -12.77, -1.5)">
        <rect id="Rectangle_822-2" data-name="Rectangle 822" class="cls-4" width="31.269" height="30.111" rx="5" transform="translate(66.97 67.54)"/>
      </g>
      <g class="cls-29" transform="matrix(1, 0, 0, 1, -12.77, -1.5)">
        <rect id="Rectangle_830-2" data-name="Rectangle 830" class="cls-4" width="40.534" height="12.514" rx="4" transform="translate(133.58 151.11)"/>
      </g>
      <g class="cls-28" transform="matrix(1, 0, 0, 1, -12.77, -1.5)">
        <rect id="Rectangle_832-2" data-name="Rectangle 832" class="cls-4" width="148.077" height="144.548" rx="5" transform="translate(26.04 169.22)"/>
      </g>
      <path id="Path_9606" data-name="Path 9606" class="cls-5" d="M0,0,3.561,2.07,0,4.14Z" transform="translate(142.626 154.026) rotate(90)"/>
      <path id="Path_9607" data-name="Path 9607" class="cls-5" d="M606.146,1394s-.463,1.621-.811,2.779c-.347,1.042-.579,1.274-1.506,1.274H591.09v-1.505l-3.59,1.737,3.59,1.853v-1.39h12.855a2.085,2.085,0,0,0,2.085-1.737c.347-1.158.927-2.9.927-2.9h-.811Z" transform="translate(-457.444 -1283.046)"/>
      <text id="Ctrl_C" data-name="Ctrl + C" class="cls-6" transform="translate(32.7 117.494)"><tspan x="0" y="0">Ctrl + C</tspan></text>
      <text id="HOME" class="cls-7" transform="translate(24.182 83.615)"><tspan x="0" y="0">HOME</tspan></text>
      <text id="END" class="cls-7" transform="translate(62.514 83.615)"><tspan x="0" y="0">END</tspan></text>
      <text id="Pg_Up" data-name="Pg Up" class="cls-7" transform="translate(94.458 83.615)"><tspan x="0" y="0">Pg Up</tspan></text>
      <text id="Pg_Dn" data-name="Pg Dn" class="cls-7" transform="translate(129.596 83.615)"><tspan x="0" y="0">Pg Dn</tspan></text>
      <text id="Ctrl_V" data-name="Ctrl
 + V" class="cls-7" transform="translate(103.587 110.235)"><tspan x="-5.517" y="0">Ctrl</tspan><tspan x="-6.52" y="10" xml:space="preserve"> + V</tspan></text>
      <ellipse id="Ellipse_237" data-name="Ellipse 237" class="cls-8" cx="1.158" cy="1.158" rx="1.158" ry="1.158" transform="translate(34.512 35.065)"/>
      <ellipse id="Ellipse_238" data-name="Ellipse 238" class="cls-8" cx="1.158" cy="1.158" rx="1.158" ry="1.158" transform="translate(41.46 35.065)"/>
      <ellipse id="Ellipse_239" data-name="Ellipse 239" class="cls-8" cx="1.158" cy="1.158" rx="1.158" ry="1.158" transform="translate(48.409 35.065)"/>
      <text id="_6:15_PM" data-name="6:15 PM" class="cls-9" transform="translate(119.053 37.59)"><tspan x="0" y="0">6:15 PM</tspan></text>
      <text id="xmouse" class="cls-10" transform="translate(90.326 158.051)"><tspan x="0" y="0">xmouse</tspan></text>
      <ellipse id="Ellipse_240" data-name="Ellipse 240" class="cls-11" cx="2.316" cy="2.316" rx="2.316" ry="2.316" transform="translate(107.472 33.906)"/>
      <g id="Group_1941" data-name="Group 1941" class="cls-12" transform="translate(148.069 199.811)">
        <path id="Path_9608" data-name="Path 9608" class="cls-5" d="M0,0,3.013,1.752,0,3.5Z" transform="translate(3.503 83.053) rotate(90)"/>
        <path id="Path_9609" data-name="Path 9609" class="cls-5" d="M0,0,3.013,1.752,0,3.5Z" transform="translate(0 3.013) rotate(-90)"/>
        <line id="Line_226" data-name="Line 226" class="cls-13" y2="83.053" transform="translate(1.775 1.196)"/>
      </g>
      <g id="Ellipse_247" data-name="Ellipse 247" class="cls-14" transform="translate(76.227 11.277)">
        <circle class="cls-26" cx="2" cy="2" r="2"/>
        <circle class="cls-27" cx="2" cy="2" r="1.5"/>
      </g>
      <g id="Ellipse_248" data-name="Ellipse 248" class="cls-15" transform="translate(85.227 11.277)">
        <circle class="cls-26" cx="2" cy="2" r="2"/>
        <circle class="cls-27" cx="2" cy="2" r="1.5"/>
      </g>
      <g id="Ellipse_249" data-name="Ellipse 249" class="cls-14" transform="translate(94.227 11.277)">
        <circle class="cls-26" cx="2" cy="2" r="2"/>
        <circle class="cls-27" cx="2" cy="2" r="1.5"/>
      </g>
      <path id="Path_9614" data-name="Path 9614" class="cls-16" d="M473.2,1468.18V1191.574a9.157,9.157,0,0,1,9.052-9.274h146.2C633.454,1182.3,473.2,1473.308,473.2,1468.18Z" transform="translate(-473.214 -1182.3)"/>
      <path id="Path_9615" data-name="Path 9615" class="cls-17" d="M473.2,1458.006V1191.244a8.831,8.831,0,0,1,8.73-8.944H622.924C627.751,1182.3,473.2,1462.951,473.2,1458.006Z" transform="translate(-473.214 -1182.3)"/>
    </g>
    <g id="Group_1951" data-name="Group 1951" transform="translate(14.659 -17.71)">
      <path id="Path_9616" data-name="Path 9616" class="cls-18" d="M310.144,1402.155c-7.531-3.644,13.281-39.275,15.467-42.919,3-5.1,4.049-8.665-.567-11.094-4.616-2.51-16.925,14.576-20.974,19.84s-11.661,19.03-14.252,25.265-5.345,11.823-7.369,20.812-4.292,8.746-5.911,8.584-2.672-4.535-1.215-8.422c1.377-3.887,5.426-6.883,4.7-15.629s-7.531-10.122-8.827-8.665c-1.215,1.458-3.077,5.264-3,7.936s-3.4,7.126-5.021,8.341-4.616,4.94-4.454,9.07-1.215,9.96-2.591,18.22c-1.134,6.559,4.373,13.928,6.721,19.273s3.077,14.657,1.377,26.075-14.5,17.168-15.791,18.706-5.911,5.1-3.32,9.475c2.51,4.292,21.46,17.815,27.452,20.974,5.911,3.158,17.006,6.64,21.136,7.207,6.235.891,6.316-.081,8.5-8.179s5.911-13.847,11.823-26.48c5.507-11.823,17.573-23.4,23-32.23,3.887-6.316,10.932-17.9,13.119-24.537,2.429-7.45.4-11.418-.324-12.147-.729-.648-1.944-6.074-2.429-7.612s-2.105-.162-3.32-1.3-1.215-2.591-1.458-4.616c-.162-2.024,1.053-5.911-.81-9.312a8.941,8.941,0,0,0-7.774-4.292c-1.782.243-5.507,7.207-3.725,2.915,1.782-4.373,8.827-36.765,9.232-41.623.486-5.669.648-11.013-2.186-12.228-3.563-1.539-5.1.81-5.507,1.62-1.862,3.239-7.288,14.657-13.766,34.821C315.975,1396.972,313.95,1404.017,310.144,1402.155Z" transform="translate(329 4246.08)"/>
      <circle id="Ellipse_207" data-name="Ellipse 207" class="cls-19" cx="11.013" cy="11.013" r="11.013" transform="translate(634.93 5592.356) rotate(-84.082)"/>
      <circle id="Ellipse_208" data-name="Ellipse 208" class="cls-20" cx="9.151" cy="9.151" r="9.151" transform="matrix(0.103, -0.995, 0.995, 0.103, 638.325, 5577.914)"/>
      <circle id="Ellipse_209" data-name="Ellipse 209" class="cls-21" cx="9.96" cy="9.96" r="9.96" transform="matrix(0.103, -0.995, 0.995, 0.103, 636.765, 5585.322)"/>
      <circle id="Ellipse_210" data-name="Ellipse 210" class="cls-22" cx="11.418" cy="11.418" r="11.418" transform="translate(633.944 5597.604) rotate(-84.082)"/>
      <circle id="Ellipse_211" data-name="Ellipse 211" class="cls-23" cx="11.742" cy="11.742" r="11.742" transform="matrix(0.103, -0.995, 0.995, 0.103, 633.09, 5602.813)"/>
      <circle id="Ellipse_212" data-name="Ellipse 212" class="cls-19" cx="11.013" cy="11.013" r="11.013" transform="matrix(0.103, -0.995, 0.995, 0.103, 651.949, 5594.271)"/>
      <circle id="Ellipse_213" data-name="Ellipse 213" class="cls-20" cx="9.151" cy="9.151" r="9.151" transform="translate(655.308 5579.599) rotate(-84.082)"/>
      <circle id="Ellipse_214" data-name="Ellipse 214" class="cls-21" cx="9.96" cy="9.96" r="9.96" transform="translate(653.664 5587.115) rotate(-84.082)"/>
      <circle id="Ellipse_215" data-name="Ellipse 215" class="cls-22" cx="11.418" cy="11.418" r="11.418" transform="matrix(0.103, -0.995, 0.995, 0.103, 650.971, 5599.434)"/>
      <circle id="Ellipse_216" data-name="Ellipse 216" class="cls-23" cx="11.742" cy="11.742" r="11.742" transform="matrix(0.103, -0.995, 0.995, 0.103, 650.103, 5604.619)"/>
      <circle id="Ellipse_217" data-name="Ellipse 217" class="cls-24" cx="11.742" cy="11.742" r="11.742" transform="translate(632.696 5606.883) rotate(-84.082)"/>
      <circle id="Ellipse_218" data-name="Ellipse 218" class="cls-24" cx="11.742" cy="11.742" r="11.742" transform="matrix(0.103, -0.995, 0.995, 0.103, 649.708, 5608.617)"/>
      <path id="Path_986" data-name="Path 986" class="cls-25" d="M310.144,1402.155c-7.531-3.644,13.281-39.275,15.467-42.919,3-5.1,4.049-8.665-.567-11.094-4.616-2.51-16.925,14.576-20.974,19.84s-11.661,19.03-14.252,25.265-5.345,11.823-7.369,20.812-4.292,8.746-5.911,8.584-2.672-4.535-1.215-8.422c1.377-3.887,5.426-6.883,4.7-15.629s-7.531-10.122-8.827-8.665c-1.215,1.458-3.077,5.264-3,7.936s-3.4,7.126-5.021,8.341-4.616,4.94-4.454,9.07-1.215,9.96-2.591,18.22c-1.134,6.559,4.373,13.928,6.721,19.273s3.077,14.657,1.377,26.075-14.5,17.168-15.791,18.706-5.911,5.1-3.32,9.475c2.51,4.292,21.46,17.815,27.452,20.974,5.911,3.158,17.006,6.64,21.136,7.207,6.235.891,6.316-.081,8.5-8.179s5.911-13.847,11.823-26.48c5.507-11.823,17.573-23.4,23-32.23,3.887-6.316,10.932-17.9,13.119-24.537,2.429-7.45.4-11.418-.324-12.147-.729-.648-1.944-6.074-2.429-7.612s-2.105-.162-3.32-1.3-1.215-2.591-1.458-4.616c-.162-2.024,1.053-5.911-.81-9.312a8.941,8.941,0,0,0-7.774-4.292c-1.782.243-5.507,7.207-3.725,2.915,1.782-4.373,8.827-36.765,9.232-41.623.486-5.669.648-11.013-2.186-12.228-3.563-1.539-5.1.81-5.507,1.62-1.862,3.239-7.288,14.657-13.766,34.821C315.975,1396.972,313.95,1404.017,310.144,1402.155Z" transform="translate(324 4243.08)"/>
    </g>
  </g>
</svg>
