<svg xmlns="http://www.w3.org/2000/svg" xmlns:xlink="http://www.w3.org/1999/xlink" viewBox="0 0 176.716 423.777">
  <defs>
    <style>
      .cls-1, .cls-15, .cls-7, .cls-8 {
        fill: none;
      }

      .cls-1 {
        stroke: #707070;
        stroke-width: 3px;
      }

      .cls-1, .cls-2 {
        opacity: 0.43;
      }

      .cls-2 {
        fill: #727171;
      }

      .cls-3, .cls-4 {
        fill: #47494d;
      }

      .cls-3 {
        opacity: 0.92;
      }

      .cls-10, .cls-5 {
        fill: #dcdddd;
      }

      .cls-6 {
        fill: #424650;
      }

      .cls-7 {
        stroke: #dcdddd;
        stroke-width: 0.086px;
      }

      .cls-9 {
        fill: #fff;
      }

      .cls-10, .cls-11, .cls-13 {
        font-size: 5px;
      }

      .cls-10, .cls-11 {
        font-family: SegoeUI-Italic, Segoe UI;
        font-style: italic;
      }

      .cls-11 {
        fill: #00acc8;
      }

      .cls-12, .cls-13 {
        fill: #7b7b7b;
        font-family: Proxy7, "Proxy 7";
      }

      .cls-12 {
        font-size: 6px;
      }

      .cls-14 {
        fill: #afafaf;
      }

      .cls-15, .cls-16 {
        stroke: #47494d;
      }

      .cls-16 {
        fill: #3d3d3d;
      }

      .cls-17, .cls-18 {
        fill: #e6e6e6;
      }

      .cls-17 {
        opacity: 0.07;
      }

      .cls-18 {
        opacity: 0.05;
      }

      .cls-19 {
        stroke: none;
      }

      .cls-20 {
        filter: url(#Rectangle_769);
      }

      .cls-21 {
        filter: url(#Rectangle_802);
      }

      .cls-22 {
        filter: url(#Rectangle_771);
      }

      .cls-23 {
        filter: url(#Rectangle_764);
      }

      .cls-24 {
        filter: url(#Rectangle_759);
      }

      .cls-25 {
        filter: url(#Rectangle_774);
      }

      .cls-26 {
        filter: url(#Rectangle_770);
      }

      .cls-27 {
        filter: url(#Rectangle_766);
      }

      .cls-28 {
        filter: url(#Rectangle_763);
      }

      .cls-29 {
        filter: url(#Rectangle_758);
      }

      .cls-30 {
        filter: url(#Rectangle_776);
      }

      .cls-31 {
        filter: url(#Rectangle_779);
      }

      .cls-32 {
        filter: url(#Rectangle_773);
      }

      .cls-33 {
        filter: url(#Rectangle_765);
      }

      .cls-34 {
        filter: url(#Rectangle_762);
      }

      .cls-35 {
        filter: url(#Rectangle_760);
      }

      .cls-36 {
        filter: url(#Rectangle_778);
      }

      .cls-37 {
        filter: url(#Rectangle_775);
      }

      .cls-38 {
        filter: url(#Rectangle_772);
      }

      .cls-39 {
        filter: url(#Rectangle_768);
      }

      .cls-40 {
        filter: url(#Rectangle_761);
      }

      .cls-41 {
        filter: url(#Rectangle_757);
      }
    </style>
    <filter id="Rectangle_757" x="16.456" y="66.333" width="40.269" height="33.32" filterUnits="userSpaceOnUse">
      <feOffset dy="3" input="SourceAlpha"/>
      <feGaussianBlur stdDeviation="1.5" result="blur"/>
      <feFlood flood-opacity="0.161"/>
      <feComposite operator="in" in2="blur"/>
      <feComposite in="SourceGraphic"/>
    </filter>
    <filter id="Rectangle_761" x="16.456" y="94.128" width="40.269" height="39.111" filterUnits="userSpaceOnUse">
      <feOffset dy="3" input="SourceAlpha"/>
      <feGaussianBlur stdDeviation="1.5" result="blur-2"/>
      <feFlood flood-opacity="0.161"/>
      <feComposite operator="in" in2="blur-2"/>
      <feComposite in="SourceGraphic"/>
    </filter>
    <filter id="Rectangle_768" x="16.456" y="127.713" width="40.269" height="39.111" filterUnits="userSpaceOnUse">
      <feOffset dy="3" input="SourceAlpha"/>
      <feGaussianBlur stdDeviation="1.5" result="blur-3"/>
      <feFlood flood-opacity="0.161"/>
      <feComposite operator="in" in2="blur-3"/>
      <feComposite in="SourceGraphic"/>
    </filter>
    <filter id="Rectangle_772" x="16.456" y="161.298" width="40.269" height="39.111" filterUnits="userSpaceOnUse">
      <feOffset dy="3" input="SourceAlpha"/>
      <feGaussianBlur stdDeviation="1.5" result="blur-4"/>
      <feFlood flood-opacity="0.161"/>
      <feComposite operator="in" in2="blur-4"/>
      <feComposite in="SourceGraphic"/>
    </filter>
    <filter id="Rectangle_775" x="16.456" y="194.884" width="40.269" height="39.111" filterUnits="userSpaceOnUse">
      <feOffset dy="3" input="SourceAlpha"/>
      <feGaussianBlur stdDeviation="1.5" result="blur-5"/>
      <feFlood flood-opacity="0.161"/>
      <feComposite operator="in" in2="blur-5"/>
      <feComposite in="SourceGraphic"/>
    </filter>
    <filter id="Rectangle_778" x="16.456" y="227.311" width="75.012" height="39.111" filterUnits="userSpaceOnUse">
      <feOffset dy="3" input="SourceAlpha"/>
      <feGaussianBlur stdDeviation="1.5" result="blur-6"/>
      <feFlood flood-opacity="0.161"/>
      <feComposite operator="in" in2="blur-6"/>
      <feComposite in="SourceGraphic"/>
    </filter>
    <filter id="Rectangle_760" x="85.943" y="66.333" width="40.269" height="33.32" filterUnits="userSpaceOnUse">
      <feOffset dy="3" input="SourceAlpha"/>
      <feGaussianBlur stdDeviation="1.5" result="blur-7"/>
      <feFlood flood-opacity="0.161"/>
      <feComposite operator="in" in2="blur-7"/>
      <feComposite in="SourceGraphic"/>
    </filter>
    <filter id="Rectangle_762" x="85.943" y="94.128" width="40.269" height="39.111" filterUnits="userSpaceOnUse">
      <feOffset dy="3" input="SourceAlpha"/>
      <feGaussianBlur stdDeviation="1.5" result="blur-8"/>
      <feFlood flood-opacity="0.161"/>
      <feComposite operator="in" in2="blur-8"/>
      <feComposite in="SourceGraphic"/>
    </filter>
    <filter id="Rectangle_765" x="85.943" y="127.713" width="40.269" height="39.111" filterUnits="userSpaceOnUse">
      <feOffset dy="3" input="SourceAlpha"/>
      <feGaussianBlur stdDeviation="1.5" result="blur-9"/>
      <feFlood flood-opacity="0.161"/>
      <feComposite operator="in" in2="blur-9"/>
      <feComposite in="SourceGraphic"/>
    </filter>
    <filter id="Rectangle_773" x="85.943" y="194.884" width="40.269" height="39.111" filterUnits="userSpaceOnUse">
      <feOffset dy="3" input="SourceAlpha"/>
      <feGaussianBlur stdDeviation="1.5" result="blur-10"/>
      <feFlood flood-opacity="0.161"/>
      <feComposite operator="in" in2="blur-10"/>
      <feComposite in="SourceGraphic"/>
    </filter>
    <filter id="Rectangle_779" x="120.686" y="194.884" width="40.269" height="71.538" filterUnits="userSpaceOnUse">
      <feOffset dy="3" input="SourceAlpha"/>
      <feGaussianBlur stdDeviation="1.5" result="blur-11"/>
      <feFlood flood-opacity="0.161"/>
      <feComposite operator="in" in2="blur-11"/>
      <feComposite in="SourceGraphic"/>
    </filter>
    <filter id="Rectangle_776" x="85.943" y="227.311" width="40.269" height="39.111" filterUnits="userSpaceOnUse">
      <feOffset dy="3" input="SourceAlpha"/>
      <feGaussianBlur stdDeviation="1.5" result="blur-12"/>
      <feFlood flood-opacity="0.161"/>
      <feComposite operator="in" in2="blur-12"/>
      <feComposite in="SourceGraphic"/>
    </filter>
    <filter id="Rectangle_758" x="51.199" y="66.333" width="40.269" height="33.32" filterUnits="userSpaceOnUse">
      <feOffset dy="3" input="SourceAlpha"/>
      <feGaussianBlur stdDeviation="1.5" result="blur-13"/>
      <feFlood flood-opacity="0.161"/>
      <feComposite operator="in" in2="blur-13"/>
      <feComposite in="SourceGraphic"/>
    </filter>
    <filter id="Rectangle_763" x="51.199" y="94.128" width="40.269" height="39.111" filterUnits="userSpaceOnUse">
      <feOffset dy="3" input="SourceAlpha"/>
      <feGaussianBlur stdDeviation="1.5" result="blur-14"/>
      <feFlood flood-opacity="0.161"/>
      <feComposite operator="in" in2="blur-14"/>
      <feComposite in="SourceGraphic"/>
    </filter>
    <filter id="Rectangle_766" x="51.199" y="127.713" width="40.269" height="39.111" filterUnits="userSpaceOnUse">
      <feOffset dy="3" input="SourceAlpha"/>
      <feGaussianBlur stdDeviation="1.5" result="blur-15"/>
      <feFlood flood-opacity="0.161"/>
      <feComposite operator="in" in2="blur-15"/>
      <feComposite in="SourceGraphic"/>
    </filter>
    <filter id="Rectangle_770" x="51.199" y="161.298" width="40.269" height="39.111" filterUnits="userSpaceOnUse">
      <feOffset dy="3" input="SourceAlpha"/>
      <feGaussianBlur stdDeviation="1.5" result="blur-16"/>
      <feFlood flood-opacity="0.161"/>
      <feComposite operator="in" in2="blur-16"/>
      <feComposite in="SourceGraphic"/>
    </filter>
    <filter id="Rectangle_774" x="51.199" y="194.884" width="40.269" height="39.111" filterUnits="userSpaceOnUse">
      <feOffset dy="3" input="SourceAlpha"/>
      <feGaussianBlur stdDeviation="1.5" result="blur-17"/>
      <feFlood flood-opacity="0.161"/>
      <feComposite operator="in" in2="blur-17"/>
      <feComposite in="SourceGraphic"/>
    </filter>
    <filter id="Rectangle_759" x="120.686" y="66.333" width="40.269" height="33.32" filterUnits="userSpaceOnUse">
      <feOffset dy="3" input="SourceAlpha"/>
      <feGaussianBlur stdDeviation="1.5" result="blur-18"/>
      <feFlood flood-opacity="0.161"/>
      <feComposite operator="in" in2="blur-18"/>
      <feComposite in="SourceGraphic"/>
    </filter>
    <filter id="Rectangle_764" x="120.686" y="94.128" width="40.269" height="39.111" filterUnits="userSpaceOnUse">
      <feOffset dy="3" input="SourceAlpha"/>
      <feGaussianBlur stdDeviation="1.5" result="blur-19"/>
      <feFlood flood-opacity="0.161"/>
      <feComposite operator="in" in2="blur-19"/>
      <feComposite in="SourceGraphic"/>
    </filter>
    <filter id="Rectangle_771" x="120.686" y="127.713" width="40.269" height="72.696" filterUnits="userSpaceOnUse">
      <feOffset dy="3" input="SourceAlpha"/>
      <feGaussianBlur stdDeviation="1.5" result="blur-20"/>
      <feFlood flood-opacity="0.161"/>
      <feComposite operator="in" in2="blur-20"/>
      <feComposite in="SourceGraphic"/>
    </filter>
    <filter id="Rectangle_802" x="112.921" y="283.278" width="46.534" height="24.903" filterUnits="userSpaceOnUse">
      <feOffset dy="1" input="SourceAlpha"/>
      <feGaussianBlur stdDeviation="1" result="blur-21"/>
      <feFlood flood-opacity="0.161"/>
      <feComposite operator="in" in2="blur-21"/>
      <feComposite in="SourceGraphic"/>
    </filter>
    <filter id="Rectangle_769" x="88.943" y="162.298" width="34.269" height="33.111" filterUnits="userSpaceOnUse">
      <feOffset dy="1" input="SourceAlpha"/>
      <feGaussianBlur stdDeviation="0.5" result="blur-22"/>
      <feFlood flood-opacity="0.161"/>
      <feComposite operator="in" in2="blur-22"/>
      <feComposite in="SourceGraphic"/>
    </filter>
  </defs>
  <g id="_011" data-name="011" transform="translate(-778.259 -5340.223)">
    <g id="Group_1943" data-name="Group 1943" transform="translate(779.759 5341.723)">
      <path id="Path_9568" data-name="Path 9568" class="cls-1" d="M646.916,1496.848a9.6,9.6,0,0,1-9.49,9.722H482.69a9.6,9.6,0,0,1-9.49-9.722V1192.022a9.6,9.6,0,0,1,9.49-9.723H637.427a9.6,9.6,0,0,1,9.49,9.723v304.826Z" transform="translate(-473.2 -1182.3)"/>
      <path id="Path_987" data-name="Path 987" class="cls-2" d="M646.916,1496.848a9.6,9.6,0,0,1-9.49,9.722H482.69a9.6,9.6,0,0,1-9.49-9.722V1192.022a9.6,9.6,0,0,1,9.49-9.723H637.427a9.6,9.6,0,0,1,9.49,9.723v304.826Z" transform="translate(-473.2 -1182.3)"/>
      <g class="cls-41" transform="matrix(1, 0, 0, 1, -1.5, -1.5)">
        <rect id="Rectangle_757-2" data-name="Rectangle 757" class="cls-3" width="31.269" height="24.32" rx="5" transform="translate(20.96 67.83)"/>
      </g>
      <rect id="Rectangle_801" data-name="Rectangle 801" class="cls-4" width="38.218" height="11.581" rx="5" transform="translate(22.931 30.432)"/>
      <g class="cls-40" transform="matrix(1, 0, 0, 1, -1.5, -1.5)">
        <rect id="Rectangle_761-2" data-name="Rectangle 761" class="cls-3" width="31.269" height="30.111" rx="5" transform="translate(20.96 95.63)"/>
      </g>
      <g class="cls-39" transform="matrix(1, 0, 0, 1, -1.5, -1.5)">
        <rect id="Rectangle_768-2" data-name="Rectangle 768" class="cls-3" width="31.269" height="30.111" rx="5" transform="translate(20.96 129.21)"/>
      </g>
      <g class="cls-38" transform="matrix(1, 0, 0, 1, -1.5, -1.5)">
        <rect id="Rectangle_772-2" data-name="Rectangle 772" class="cls-3" width="31.269" height="30.111" rx="5" transform="translate(20.96 162.8)"/>
      </g>
      <g class="cls-37" transform="matrix(1, 0, 0, 1, -1.5, -1.5)">
        <rect id="Rectangle_775-2" data-name="Rectangle 775" class="cls-3" width="31.269" height="30.111" rx="5" transform="translate(20.96 196.38)"/>
      </g>
      <g class="cls-36" transform="matrix(1, 0, 0, 1, -1.5, -1.5)">
        <rect id="Rectangle_778-2" data-name="Rectangle 778" class="cls-3" width="66.012" height="30.111" rx="5" transform="translate(20.96 228.81)"/>
      </g>
      <g class="cls-35" transform="matrix(1, 0, 0, 1, -1.5, -1.5)">
        <rect id="Rectangle_760-2" data-name="Rectangle 760" class="cls-3" width="31.269" height="24.32" rx="5" transform="translate(90.44 67.83)"/>
      </g>
      <g class="cls-34" transform="matrix(1, 0, 0, 1, -1.5, -1.5)">
        <rect id="Rectangle_762-2" data-name="Rectangle 762" class="cls-3" width="31.269" height="30.111" rx="5" transform="translate(90.44 95.63)"/>
      </g>
      <g class="cls-33" transform="matrix(1, 0, 0, 1, -1.5, -1.5)">
        <rect id="Rectangle_765-2" data-name="Rectangle 765" class="cls-3" width="31.269" height="30.111" rx="5" transform="translate(90.44 129.21)"/>
      </g>
      <g class="cls-32" transform="matrix(1, 0, 0, 1, -1.5, -1.5)">
        <rect id="Rectangle_773-2" data-name="Rectangle 773" class="cls-3" width="31.269" height="30.111" rx="5" transform="translate(90.44 196.38)"/>
      </g>
      <g class="cls-31" transform="matrix(1, 0, 0, 1, -1.5, -1.5)">
        <rect id="Rectangle_779-2" data-name="Rectangle 779" class="cls-3" width="31.269" height="62.538" rx="5" transform="translate(125.19 196.38)"/>
      </g>
      <g class="cls-30" transform="matrix(1, 0, 0, 1, -1.5, -1.5)">
        <rect id="Rectangle_776-2" data-name="Rectangle 776" class="cls-3" width="31.269" height="30.111" rx="5" transform="translate(90.44 228.81)"/>
      </g>
      <g class="cls-29" transform="matrix(1, 0, 0, 1, -1.5, -1.5)">
        <rect id="Rectangle_758-2" data-name="Rectangle 758" class="cls-3" width="31.269" height="24.32" rx="5" transform="translate(55.7 67.83)"/>
      </g>
      <g class="cls-28" transform="matrix(1, 0, 0, 1, -1.5, -1.5)">
        <rect id="Rectangle_763-2" data-name="Rectangle 763" class="cls-3" width="31.269" height="30.111" rx="5" transform="translate(55.7 95.63)"/>
      </g>
      <g class="cls-27" transform="matrix(1, 0, 0, 1, -1.5, -1.5)">
        <rect id="Rectangle_766-2" data-name="Rectangle 766" class="cls-3" width="31.269" height="30.111" rx="5" transform="translate(55.7 129.21)"/>
      </g>
      <g class="cls-26" transform="matrix(1, 0, 0, 1, -1.5, -1.5)">
        <rect id="Rectangle_770-2" data-name="Rectangle 770" class="cls-3" width="31.269" height="30.111" rx="5" transform="translate(55.7 162.8)"/>
      </g>
      <g class="cls-25" transform="matrix(1, 0, 0, 1, -1.5, -1.5)">
        <rect id="Rectangle_774-2" data-name="Rectangle 774" class="cls-3" width="31.269" height="30.111" rx="5" transform="translate(55.7 196.38)"/>
      </g>
      <g class="cls-24" transform="matrix(1, 0, 0, 1, -1.5, -1.5)">
        <rect id="Rectangle_759-2" data-name="Rectangle 759" class="cls-3" width="31.269" height="24.32" rx="5" transform="translate(125.19 67.83)"/>
      </g>
      <g class="cls-23" transform="matrix(1, 0, 0, 1, -1.5, -1.5)">
        <rect id="Rectangle_764-2" data-name="Rectangle 764" class="cls-3" width="31.269" height="30.111" rx="5" transform="translate(125.19 95.63)"/>
      </g>
      <g class="cls-22" transform="matrix(1, 0, 0, 1, -1.5, -1.5)">
        <rect id="Rectangle_771-2" data-name="Rectangle 771" class="cls-3" width="31.269" height="63.696" rx="5" transform="translate(125.19 129.21)"/>
      </g>
      <g class="cls-21" transform="matrix(1, 0, 0, 1, -1.5, -1.5)">
        <rect id="Rectangle_802-2" data-name="Rectangle 802" class="cls-3" width="40.534" height="18.903" rx="5" transform="translate(115.92 285.28)"/>
      </g>
      <path id="Path_1010" data-name="Path 1010" class="cls-5" d="M590.3,1321.2v2.432h2.432v.463H590.3v2.432h-.463V1324.1H587.4v-.463h2.432V1321.2Z" transform="translate(-450.512 -1164.971)"/>
      <rect id="Rectangle_698" data-name="Rectangle 698" class="cls-5" width="5.211" height="0.579" transform="translate(136.888 109.673)"/>
      <path id="Path_1011" data-name="Path 1011" class="cls-5" d="M561.837,1267.774l-.232-.463-1.506.811V1266.5h-.463v1.622l-1.506-.811-.232.463,1.39.811-1.39.811.232.463,1.506-.811v1.621h.463v-1.621l1.506.811.232-.463-1.39-.811Z" transform="translate(-462.124 -1158.564)"/>
      <path id="Path_1017" data-name="Path 1017" class="cls-5" d="M528.4,1272.38l3.243-7.18h.695l-3.243,7.18Z" transform="translate(-466.789 -1158.77)"/>
      <g id="Group_1923" data-name="Group 1923" transform="translate(60.453 134.457)">
        <path id="Path_1020" data-name="Path 1020" class="cls-5" d="M534.191,1317.68l-2.9-4.98-2.9,4.98Z" transform="translate(-528.4 -1299.613)"/>
        <path id="Path_1023" data-name="Path 1023" class="cls-5" d="M530.716,1304.3a1.2,1.2,0,0,0,1.274-1.274,1,1,0,0,0-.347-.695,1.673,1.673,0,0,0-.811-.232,1.315,1.315,0,0,0-.927.348,1.051,1.051,0,0,0-.347.811,1.673,1.673,0,0,0,.232.811,2.724,2.724,0,0,0,.927.232m-.348,3.359a1.129,1.129,0,0,0,1.042-.463,2.058,2.058,0,0,0,.463-1.158,1.2,1.2,0,0,0-1.274-1.274,1.129,1.129,0,0,0-1.042.463,1.769,1.769,0,0,0-.463,1.158,1.2,1.2,0,0,0,1.274,1.274m-.463-3.127a1.187,1.187,0,0,1-.695-.579,1.631,1.631,0,0,1,.348-2.084,2.316,2.316,0,0,1,2.779,0,1.343,1.343,0,0,1,.463,1.158,1.395,1.395,0,0,1-1.274,1.506,1.591,1.591,0,0,1,.927.579,1.878,1.878,0,0,1-.347,2.548,2.168,2.168,0,0,1-1.621.579,2.136,2.136,0,0,1-1.505-.463,1.918,1.918,0,0,1-.579-1.39,2.335,2.335,0,0,1,.347-1.274,2.714,2.714,0,0,1,1.158-.579" transform="translate(-528.4 -1301.4)"/>
      </g>
      <g id="Group_1920" data-name="Group 1920" transform="translate(26.289 168.274)">
        <path id="Path_1019" data-name="Path 1019" class="cls-5" d="M503.88,1353.1l-4.98,2.9,4.98,3.011Z" transform="translate(-498.9 -1340.94)"/>
        <path id="Path_1025" data-name="Path 1025" class="cls-5" d="M502.027,1347.232l.463-3.127-2.432,3.127Zm-.232,2.2.232-1.505H498.9v-.116l4.169-5.212h.347l-.579,4.748h.811l-.116.695h-.811l-.232,1.506H501.8Z" transform="translate(-498.9 -1342.6)"/>
      </g>
      <path id="Path_1026" data-name="Path 1026" class="cls-5" d="M528.4,1348.591l.579-.463a3.074,3.074,0,0,0,.695.579,1.47,1.47,0,0,0,.695.116,1.581,1.581,0,0,0,1.274-.463,1.742,1.742,0,0,0,.463-1.274,1.129,1.129,0,0,0-.463-1.042,1.729,1.729,0,0,0-1.158-.347,1.47,1.47,0,0,0-.695.116,1.645,1.645,0,0,0-.695.232l-.116-.116,1.158-3.127h2.9l-.116.695H530.6l-.579,1.737c.116,0,.347-.116.463-.116h.347a2.438,2.438,0,0,1,1.505.579,2.2,2.2,0,0,1,.579,1.505,2.63,2.63,0,0,1-.695,1.853,2.357,2.357,0,0,1-1.737.695,4.114,4.114,0,0,1-1.158-.232,6.863,6.863,0,0,0-.927-.926" transform="translate(-467.947 -1174.295)"/>
      <g id="Group_1919" data-name="Group 1919" transform="translate(60.453 200.584)">
        <path id="Path_1021" data-name="Path 1021" class="cls-5" d="M528.4,1386.9l2.9,4.98,2.9-4.98Z" transform="translate(-528.4 -1373.698)"/>
        <path id="Path_1029" data-name="Path 1029" class="cls-5" d="M533.032,1382.564H528.4l1.621-1.621a10.777,10.777,0,0,0,1.158-1.158l.579-.579a4.2,4.2,0,0,0,.811-1.042,2.146,2.146,0,0,0,.232-.811,1.051,1.051,0,0,0-.347-.811,1.315,1.315,0,0,0-.927-.347,1.415,1.415,0,0,0-1.042.347,2.178,2.178,0,0,0-.463,1.158h-.927a1.943,1.943,0,0,1,.695-1.621,2.291,2.291,0,0,1,1.621-.579,1.965,1.965,0,0,1,1.506.463,1.86,1.86,0,0,1,.579,1.274,1.957,1.957,0,0,1-.347,1.158,10.976,10.976,0,0,1-1.274,1.505l-1.737,1.737h3.011Z" transform="translate(-528.4 -1375.5)"/>
      </g>
      <g class="cls-20" transform="matrix(1, 0, 0, 1, -1.5, -1.5)">
        <rect id="Rectangle_769-2" data-name="Rectangle 769" class="cls-6" width="31.269" height="30.111" rx="5" transform="translate(90.44 162.8)"/>
      </g>
      <path id="Path_1018" data-name="Path 1018" class="cls-5" d="M557.9,1353.1l4.98,2.9-4.98,2.9Z" transform="translate(-463.283 -1172.667)"/>
      <path id="Path_9585" data-name="Path 9585" class="cls-5" d="M0,0,4.98,2.9,0,5.791Z" transform="translate(131.271 294.588) rotate(-90)"/>
      <path id="Path_1031" data-name="Path 1031" class="cls-5" d="M560.216,1345.974a1.487,1.487,0,0,0-1.158.463,2.058,2.058,0,0,0-.463,1.158,1.315,1.315,0,0,0,.347.927,1.14,1.14,0,0,0,.927.347,1.583,1.583,0,0,0,1.621-1.621,1.315,1.315,0,0,0-.347-.927,1.54,1.54,0,0,0-.927-.348m-.927-.231c.232-.116.347-.232.579-.232s.347-.116.579-.116a1.581,1.581,0,0,1,1.274.463,1.742,1.742,0,0,1,.463,1.274,2.1,2.1,0,0,1-.695,1.621,2.287,2.287,0,0,1-1.621.695,1.977,1.977,0,0,1-1.969-1.969,3.083,3.083,0,0,1,.348-1.39,5.826,5.826,0,0,1,1.158-1.506l1.853-2.085.579.463Z" transform="translate(-463.283 -1174.342)"/>
      <g id="Group_1924" data-name="Group 1924" transform="translate(26.173 134.457)">
        <path id="Path_1022" data-name="Path 1022" class="cls-5" d="M499.479,1308.349,498.9,1308l3.243-5.791h-3.127l.116-.811h4.285Z" transform="translate(-498.784 -1301.4)"/>
        <path id="Path_1032" data-name="Path 1032" class="cls-5" d="M499.263,1317.517H498.8l.579-4.517h.695c.347,0,.695,0,.811.116a.878.878,0,0,1,.463.232l.347.347a.7.7,0,0,1,.116.463.867.867,0,0,1-.116.579c-.116.116-.232.348-.347.463s-.347.116-.463.232c-.232,0-.463.116-.926.116h-.347Zm.927-4.169h-.232l-.232,1.737h1.042a.425.425,0,0,0,.347-.116l.347-.348a.7.7,0,0,0,.116-.463.425.425,0,0,0-.116-.347c-.116-.116-.116-.232-.232-.232s-.116-.116-.232-.116h-.811Z" transform="translate(-498.8 -1299.566)"/>
        <path id="Path_1033" data-name="Path 1033" class="cls-7" d="M499.263,1317.517H498.8l.579-4.517h.695c.347,0,.695,0,.811.116a.878.878,0,0,1,.463.232l.347.347a.7.7,0,0,1,.116.463.867.867,0,0,1-.116.579c-.116.116-.232.348-.347.463s-.347.116-.463.232c-.232,0-.463.116-.926.116h-.347Zm.927-4.169h-.232l-.232,1.737h1.042a.425.425,0,0,0,.347-.116l.347-.348a.7.7,0,0,0,.116-.463.425.425,0,0,0-.116-.347c-.116-.116-.116-.232-.232-.232s-.116-.116-.232-.116h-.811Z" transform="translate(-498.8 -1299.566)"/>
        <path id="Path_1034" data-name="Path 1034" class="cls-5" d="M501.4,1316.021a1.584,1.584,0,0,1,1.621-1.622,1.415,1.415,0,0,1,1.042.348,1.43,1.43,0,0,1,.463.927,1.583,1.583,0,0,1-1.621,1.621,1.416,1.416,0,0,1-1.042-.347c-.347-.116-.463-.464-.463-.927m1.621-1.158a1.2,1.2,0,0,0-1.274,1.274,1.187,1.187,0,0,0,1.158,1.158,1.2,1.2,0,0,0,1.274-1.274,1.051,1.051,0,0,0-.347-.811c-.232-.347-.463-.347-.811-.347" transform="translate(-498.389 -1299.344)"/>
        <path id="Path_1035" data-name="Path 1035" class="cls-7" d="M501.4,1316.021a1.584,1.584,0,0,1,1.621-1.622,1.415,1.415,0,0,1,1.042.348,1.43,1.43,0,0,1,.463.927,1.583,1.583,0,0,1-1.621,1.621,1.416,1.416,0,0,1-1.042-.347C501.516,1316.832,501.4,1316.484,501.4,1316.021Zm1.621-1.158a1.2,1.2,0,0,0-1.274,1.274,1.187,1.187,0,0,0,1.158,1.158,1.2,1.2,0,0,0,1.274-1.274,1.051,1.051,0,0,0-.347-.811C503.6,1314.863,503.369,1314.863,503.021,1314.863Z" transform="translate(-498.389 -1299.344)"/>
        <path id="Path_1036" data-name="Path 1036" class="cls-5" d="M504.616,1316.685a1.605,1.605,0,0,0,.463.348.7.7,0,0,0,.463.116c.232,0,.347,0,.463-.116s.232-.232.232-.348,0-.232-.116-.232c-.116-.116-.232-.116-.463-.232a1.884,1.884,0,0,1-.695-.347c-.116-.116-.116-.232-.116-.463a.885.885,0,0,1,.232-.579,1.646,1.646,0,0,1,.695-.232.7.7,0,0,1,.463.116c.116.116.347.116.463.348l-.232.232c-.116-.116-.232-.232-.347-.232a.425.425,0,0,0-.347-.116.7.7,0,0,0-.463.116.425.425,0,0,0-.116.348c0,.231.232.347.579.463.116,0,.116,0,.232.116a2.518,2.518,0,0,1,.579.347c.116.116.116.232.116.463a.884.884,0,0,1-.232.579,1.674,1.674,0,0,1-.811.232,1.469,1.469,0,0,1-.695-.116.9.9,0,0,1-.463-.463Z" transform="translate(-497.899 -1299.313)"/>
        <path id="Path_1037" data-name="Path 1037" class="cls-7" d="M504.616,1316.685a1.605,1.605,0,0,0,.463.348.7.7,0,0,0,.463.116c.232,0,.347,0,.463-.116s.232-.232.232-.348,0-.232-.116-.232c-.116-.116-.232-.116-.463-.232a1.884,1.884,0,0,1-.695-.347c-.116-.116-.116-.232-.116-.463a.885.885,0,0,1,.232-.579,1.646,1.646,0,0,1,.695-.232.7.7,0,0,1,.463.116c.116.116.347.116.463.348l-.232.232c-.116-.116-.232-.232-.347-.232a.425.425,0,0,0-.347-.116.7.7,0,0,0-.463.116.425.425,0,0,0-.116.348c0,.231.232.347.579.463.116,0,.116,0,.232.116a2.518,2.518,0,0,1,.579.347c.116.116.116.232.116.463a.884.884,0,0,1-.232.579,1.674,1.674,0,0,1-.811.232,1.469,1.469,0,0,1-.695-.116.9.9,0,0,1-.463-.463Z" transform="translate(-497.899 -1299.313)"/>
        <path id="Path_1038" data-name="Path 1038" class="cls-5" d="M508.047,1317.517l.579-4.169H507.7l.232-.348h1.158l-.695,4.517Z" transform="translate(-497.393 -1299.566)"/>
        <path id="Path_1039" data-name="Path 1039" class="cls-7" d="M508.047,1317.517l.579-4.169H507.7l.232-.348h1.158l-.695,4.517Z" transform="translate(-497.393 -1299.566)"/>
      </g>
      <g id="Group_1922" data-name="Group 1922" transform="translate(95.776 134.572)">
        <path id="Path_1024" data-name="Path 1024" class="cls-5" d="M559.869,1304.974a1.583,1.583,0,0,0,1.621-1.621,1.315,1.315,0,0,0-.347-.927,1.14,1.14,0,0,0-.927-.348,1.583,1.583,0,0,0-1.621,1.621,1.2,1.2,0,0,0,1.274,1.274m.927.232c-.232.116-.347.232-.579.232s-.347.116-.579.116a1.581,1.581,0,0,1-1.274-.463,1.742,1.742,0,0,1-.463-1.274,1.944,1.944,0,0,1,.695-1.621,2.286,2.286,0,0,1,1.621-.695,1.977,1.977,0,0,1,1.969,1.969,3.081,3.081,0,0,1-.347,1.39,8.764,8.764,0,0,1-1.158,1.622l-1.853,2.085-.579-.463Z" transform="translate(-557.9 -1301.5)"/>
        <path id="Path_1040" data-name="Path 1040" class="cls-5" d="M557.9,1317.517l.579-4.517h.811a1.718,1.718,0,0,1,.811.116c.116,0,.347.116.347.232.116.116.232.231.232.347.116.116.116.232.116.463a1.646,1.646,0,0,1-.232.695.985.985,0,0,1-.579.347,3.843,3.843,0,0,1,.695.348,1.645,1.645,0,0,1,.232.695.868.868,0,0,1-.116.579.9.9,0,0,1-.463.463c-.116.116-.347.116-.579.232-.232,0-.579.116-1.158.116H557.9Zm.463-.347h1.158a.425.425,0,0,0,.347-.116c.116-.116.347-.231.347-.347a.868.868,0,0,0,.116-.579.7.7,0,0,0-.116-.463c-.116-.116-.116-.232-.347-.348-.116,0-.232-.116-.347-.116h-1.042Zm.347-2.2h1.042a.425.425,0,0,0,.347-.116c.116-.116.232-.116.347-.347a.7.7,0,0,0,.116-.463.426.426,0,0,0-.116-.347c-.116-.116-.116-.232-.232-.232s-.116-.116-.232-.116h-1.042Z" transform="translate(-557.9 -1299.682)"/>
        <path id="Path_1041" data-name="Path 1041" class="cls-7" d="M557.9,1317.517l.579-4.517h.811a1.718,1.718,0,0,1,.811.116c.116,0,.347.116.347.232.116.116.232.231.232.347.116.116.116.232.116.463a1.646,1.646,0,0,1-.232.695.985.985,0,0,1-.579.347,3.843,3.843,0,0,1,.695.348,1.645,1.645,0,0,1,.232.695.868.868,0,0,1-.116.579.9.9,0,0,1-.463.463c-.116.116-.347.116-.579.232-.232,0-.579.116-1.158.116H557.9Zm.463-.347h1.158a.425.425,0,0,0,.347-.116c.116-.116.347-.231.347-.347a.868.868,0,0,0,.116-.579.7.7,0,0,0-.116-.463c-.116-.116-.116-.232-.347-.348-.116,0-.232-.116-.347-.116h-1.042Zm.347-2.2h1.042a.425.425,0,0,0,.347-.116c.116-.116.232-.116.347-.347a.7.7,0,0,0,.116-.463.426.426,0,0,0-.116-.347c-.116-.116-.116-.232-.232-.232s-.116-.116-.232-.116h-1.042Z" transform="translate(-557.9 -1299.682)"/>
        <path id="Path_1042" data-name="Path 1042" class="cls-5" d="M561,1317.453l.347-2.779h.347l-.347,2.779Zm.463-3.706c0-.116,0-.116.116-.232.116,0,.116-.116.232-.116s.116,0,.232.116a.4.4,0,0,1,.116.232c0,.116,0,.116-.116.231a.4.4,0,0,1-.232.116c-.116,0-.116,0-.232-.116s-.116-.115-.116-.231" transform="translate(-557.41 -1299.618)"/>
        <path id="Path_1043" data-name="Path 1043" class="cls-7" d="M561,1317.453l.347-2.779h.347l-.347,2.779Zm.463-3.706c0-.116,0-.116.116-.232.116,0,.116-.116.232-.116s.116,0,.232.116a.4.4,0,0,1,.116.232c0,.116,0,.116-.116.231a.4.4,0,0,1-.232.116c-.116,0-.116,0-.232-.116S561.463,1313.863,561.463,1313.747Z" transform="translate(-557.41 -1299.618)"/>
        <path id="Path_1044" data-name="Path 1044" class="cls-5" d="M562.3,1317.548l.695-4.748h.347l-.579,4.748Z" transform="translate(-557.204 -1299.713)"/>
        <path id="Path_1045" data-name="Path 1045" class="cls-7" d="M562.3,1317.548l.695-4.748h.347l-.579,4.748Z" transform="translate(-557.204 -1299.713)"/>
        <path id="Path_1046" data-name="Path 1046" class="cls-5" d="M566.411,1312.8h.347l-.695,4.748h-.347v-.463c-.116.232-.232.348-.463.348a.868.868,0,0,1-.579.116,1.315,1.315,0,0,1-.926-.347,1.416,1.416,0,0,1-.347-1.042,1.487,1.487,0,0,1,.463-1.158,1.129,1.129,0,0,1,1.042-.463.868.868,0,0,1,.579.116c.116.116.347.232.347.463Zm-1.505,4.632a1.051,1.051,0,0,0,.811-.348,1.315,1.315,0,0,0,.347-.927,1.673,1.673,0,0,0-.232-.811c-.116-.231-.347-.231-.695-.231a1.051,1.051,0,0,0-.811.347,1.315,1.315,0,0,0-.347.927,1.673,1.673,0,0,0,.232.811,1.647,1.647,0,0,0,.695.232" transform="translate(-557.03 -1299.713)"/>
        <path id="Path_1047" data-name="Path 1047" class="cls-7" d="M566.411,1312.8h.347l-.695,4.748h-.347v-.463c-.116.232-.232.348-.463.348a.868.868,0,0,1-.579.116,1.315,1.315,0,0,1-.926-.347,1.416,1.416,0,0,1-.347-1.042,1.487,1.487,0,0,1,.463-1.158,1.129,1.129,0,0,1,1.042-.463.868.868,0,0,1,.579.116c.116.116.347.232.347.463Zm-1.505,4.632a1.051,1.051,0,0,0,.811-.348,1.315,1.315,0,0,0,.347-.927,1.673,1.673,0,0,0-.232-.811c-.116-.231-.347-.231-.695-.231a1.051,1.051,0,0,0-.811.347,1.315,1.315,0,0,0-.347.927,1.673,1.673,0,0,0,.232.811A1.647,1.647,0,0,0,564.906,1317.432Z" transform="translate(-557.03 -1299.713)"/>
        <path id="Path_1048" data-name="Path 1048" class="cls-5" d="M568.29,1314.421H566.9l1.621-1.621,1.506,1.621h-1.39" transform="translate(-556.477 -1299.713)"/>
        <rect id="Rectangle_699" data-name="Rectangle 699" class="cls-5" width="0.463" height="3.243" transform="translate(11.813 14.592)"/>
      </g>
      <path id="Path_1050" data-name="Path 1050" class="cls-5" d="M606.146,1394s-.463,1.621-.811,2.779c-.347,1.042-.579,1.274-1.506,1.274H591.09v-1.505l-3.59,1.737,3.59,1.853v-1.39h12.855a2.085,2.085,0,0,0,2.085-1.737c.347-1.158.927-2.9.927-2.9h-.811Z" transform="translate(-457.444 -1162.725)"/>
      <g id="Group_1918" data-name="Group 1918" transform="translate(26.289 200.584)">
        <path id="Path_1028" data-name="Path 1028" class="cls-5" d="M499.363,1382.564l.927-6.254H498.9l.232-.811h2.085l-.926,7.064Z" transform="translate(-498.9 -1375.5)"/>
        <path id="Path_1051" data-name="Path 1051" class="cls-5" d="M498.9,1391.717l.579-4.517h2.432l-.116.347h-1.969l-.116,1.506h1.853v.347h-1.969l-.232,1.969h1.969v.347Z" transform="translate(-498.9 -1373.65)"/>
        <path id="Path_1052" data-name="Path 1052" class="cls-7" d="M498.9,1391.717l.579-4.517h2.432l-.116.347h-1.969l-.116,1.506h1.853v.347h-1.969l-.232,1.969h1.969v.347Z" transform="translate(-498.9 -1373.65)"/>
        <path id="Path_1053" data-name="Path 1053" class="cls-5" d="M501.8,1391.5l.347-2.779h.347l-.116.463c.116-.232.347-.347.463-.463a1.044,1.044,0,0,1,.579-.116,1.646,1.646,0,0,1,.695.232.884.884,0,0,1,.232.579v.232l-.232,1.737h-.347l.232-1.737v-.232c0-.232,0-.348-.116-.348-.116-.116-.232-.116-.463-.116a.7.7,0,0,0-.695.347,5.646,5.646,0,0,0-.347.811l-.232,1.39H501.8Z" transform="translate(-498.441 -1373.429)"/>
        <path id="Path_1054" data-name="Path 1054" class="cls-7" d="M501.8,1391.5l.347-2.779h.347l-.116.463c.116-.232.347-.347.463-.463a1.044,1.044,0,0,1,.579-.116,1.646,1.646,0,0,1,.695.232.884.884,0,0,1,.232.579v.232l-.232,1.737h-.347l.232-1.737v-.232c0-.232,0-.348-.116-.348-.116-.116-.232-.116-.463-.116a.7.7,0,0,0-.695.347,5.646,5.646,0,0,0-.347.811l-.232,1.39H501.8Z" transform="translate(-498.441 -1373.429)"/>
        <path id="Path_1055" data-name="Path 1055" class="cls-5" d="M507.611,1387h.347l-.695,4.748h-.347v-.463c-.116.232-.232.347-.463.347a.868.868,0,0,1-.579.116,1.315,1.315,0,0,1-.926-.348,1.415,1.415,0,0,1-.347-1.042,1.487,1.487,0,0,1,.463-1.158,1.129,1.129,0,0,1,1.042-.463.868.868,0,0,1,.579.116c.116.116.347.232.347.463Zm-1.506,4.632a1.051,1.051,0,0,0,.811-.347,1.315,1.315,0,0,0,.347-.927,1.674,1.674,0,0,0-.232-.811c-.116-.232-.347-.232-.695-.232a1.051,1.051,0,0,0-.811.348,1.314,1.314,0,0,0-.347.926,1.673,1.673,0,0,0,.232.811,1.646,1.646,0,0,0,.695.232" transform="translate(-497.999 -1373.682)"/>
        <path id="Path_1056" data-name="Path 1056" class="cls-7" d="M507.611,1387h.347l-.695,4.748h-.347v-.463c-.116.232-.232.347-.463.347a.868.868,0,0,1-.579.116,1.315,1.315,0,0,1-.926-.348,1.415,1.415,0,0,1-.347-1.042,1.487,1.487,0,0,1,.463-1.158,1.129,1.129,0,0,1,1.042-.463.868.868,0,0,1,.579.116c.116.116.347.232.347.463Zm-1.506,4.632a1.051,1.051,0,0,0,.811-.347,1.315,1.315,0,0,0,.347-.927,1.674,1.674,0,0,0-.232-.811c-.116-.232-.347-.232-.695-.232a1.051,1.051,0,0,0-.811.348,1.314,1.314,0,0,0-.347.926,1.673,1.673,0,0,0,.232.811A1.646,1.646,0,0,0,506.105,1391.632Z" transform="translate(-497.999 -1373.682)"/>
        <path id="Path_1057" data-name="Path 1057" class="cls-5" d="M510.679,1390.19h-2.432v.116a1.673,1.673,0,0,0,.232.811.978.978,0,0,0,.811.231,1.045,1.045,0,0,0,.579-.116c.116-.116.347-.232.463-.348l.232.232a1.157,1.157,0,0,1-.579.463,1.47,1.47,0,0,1-.695.116,1.415,1.415,0,0,1-1.042-.348,1.315,1.315,0,0,1-.347-.927,1.343,1.343,0,0,1,.463-1.158,1.486,1.486,0,0,1,1.158-.463,1.139,1.139,0,0,1,.926.347,1.315,1.315,0,0,1,.347.927v.116c-.116-.115-.116-.115-.116,0m-.347-.347a1.647,1.647,0,0,0-.232-.695.885.885,0,0,0-.579-.231,1.675,1.675,0,0,0-.811.231,1.064,1.064,0,0,0-.463.695Z" transform="translate(-497.477 -1373.397)"/>
        <path id="Path_1058" data-name="Path 1058" class="cls-7" d="M510.679,1390.19h-2.432v.116a1.673,1.673,0,0,0,.232.811.978.978,0,0,0,.811.231,1.045,1.045,0,0,0,.579-.116c.116-.116.347-.232.463-.348l.232.232a1.157,1.157,0,0,1-.579.463,1.47,1.47,0,0,1-.695.116,1.415,1.415,0,0,1-1.042-.348,1.315,1.315,0,0,1-.347-.927,1.343,1.343,0,0,1,.463-1.158,1.486,1.486,0,0,1,1.158-.463,1.139,1.139,0,0,1,.926.347,1.315,1.315,0,0,1,.347.927v.116C510.679,1390.074,510.679,1390.074,510.679,1390.19Zm-.347-.347a1.647,1.647,0,0,0-.232-.695.885.885,0,0,0-.579-.231,1.675,1.675,0,0,0-.811.231,1.064,1.064,0,0,0-.463.695Z" transform="translate(-497.477 -1373.397)"/>
      </g>
      <g id="Group_1917" data-name="Group 1917" transform="translate(94.617 200.7)">
        <path id="Path_1030" data-name="Path 1030" class="cls-5" d="M557.9,1380.7h.695a1.2,1.2,0,0,0,1.274,1.274,1.228,1.228,0,0,0,1.39-1.39.9.9,0,0,0-.347-.811,1.537,1.537,0,0,0-1.158-.348h-.232l.116-.695h.116a2.08,2.08,0,0,0,1.274-.347,1.129,1.129,0,0,0,.463-1.042,1.673,1.673,0,0,0-.232-.811.977.977,0,0,0-.811-.232,1.675,1.675,0,0,0-.811.232,1.051,1.051,0,0,0-.347.811h-.811a1.659,1.659,0,0,1,.579-1.274,1.846,1.846,0,0,1,1.39-.463,1.581,1.581,0,0,1,1.274.463,1.487,1.487,0,0,1,.463,1.158,1.957,1.957,0,0,1-.347,1.158,1.559,1.559,0,0,1-1.042.579,2.324,2.324,0,0,1,.927.463,1.315,1.315,0,0,1,.347.927,2,2,0,0,1-.579,1.506,2.845,2.845,0,0,1-1.737.579,2.135,2.135,0,0,1-1.505-.463,2.062,2.062,0,0,1-.347-1.274Z" transform="translate(-557.9 -1375.6)"/>
        <path id="Path_1059" data-name="Path 1059" class="cls-5" d="M557.9,1391.717l.579-4.517h.811a1.718,1.718,0,0,1,.811.116.881.881,0,0,1,.463.231c.116.116.232.232.232.348a.7.7,0,0,1,.116.463,1.646,1.646,0,0,1-.232.7.637.637,0,0,1-.579.347l.695.347a1.646,1.646,0,0,1,.232.695.868.868,0,0,1-.116.579.906.906,0,0,1-.463.463c-.116.116-.347.116-.579.231H557.9Zm.463-.347h1.158a.426.426,0,0,0,.347-.116c.116-.116.347-.232.347-.347a.868.868,0,0,0,.116-.579.7.7,0,0,0-.116-.463c-.116-.116-.116-.231-.347-.347-.116,0-.232-.116-.347-.116h-1.042Zm.347-2.2h1.042a.426.426,0,0,0,.347-.116c.116-.116.232-.116.347-.348a.7.7,0,0,0,.116-.463.426.426,0,0,0-.116-.347c-.116-.116-.116-.232-.232-.232s-.116-.116-.232-.116h-1.042Z" transform="translate(-557.9 -1373.766)"/>
        <path id="Path_1060" data-name="Path 1060" class="cls-7" d="M557.9,1391.717l.579-4.517h.811a1.718,1.718,0,0,1,.811.116.881.881,0,0,1,.463.231c.116.116.232.232.232.348a.7.7,0,0,1,.116.463,1.646,1.646,0,0,1-.232.7.637.637,0,0,1-.579.347l.695.347a1.646,1.646,0,0,1,.232.695.868.868,0,0,1-.116.579.906.906,0,0,1-.463.463c-.116.116-.347.116-.579.231H557.9Zm.463-.347h1.158a.426.426,0,0,0,.347-.116c.116-.116.347-.232.347-.347a.868.868,0,0,0,.116-.579.7.7,0,0,0-.116-.463c-.116-.116-.116-.231-.347-.347-.116,0-.232-.116-.347-.116h-1.042Zm.347-2.2h1.042a.426.426,0,0,0,.347-.116c.116-.116.232-.116.347-.348a.7.7,0,0,0,.116-.463.426.426,0,0,0-.116-.347c-.116-.116-.116-.232-.232-.232s-.116-.116-.232-.116h-1.042Z" transform="translate(-557.9 -1373.766)"/>
        <path id="Path_1061" data-name="Path 1061" class="cls-5" d="M561,1391.653l.347-2.78h.347l-.347,2.78Zm.463-3.706c0-.116,0-.116.116-.232.116,0,.116-.116.232-.116s.116,0,.232.116a.4.4,0,0,1,.116.232c0,.116,0,.116-.116.231a.4.4,0,0,1-.232.116c-.116,0-.116,0-.232-.116a.359.359,0,0,1-.116-.231" transform="translate(-557.41 -1373.703)"/>
        <path id="Path_1062" data-name="Path 1062" class="cls-7" d="M561,1391.653l.347-2.78h.347l-.347,2.78Zm.463-3.706c0-.116,0-.116.116-.232.116,0,.116-.116.232-.116s.116,0,.232.116a.4.4,0,0,1,.116.232c0,.116,0,.116-.116.231a.4.4,0,0,1-.232.116c-.116,0-.116,0-.232-.116A.359.359,0,0,1,561.463,1387.948Z" transform="translate(-557.41 -1373.703)"/>
        <path id="Path_1063" data-name="Path 1063" class="cls-5" d="M562.3,1391.748l.695-4.748h.347l-.579,4.748Z" transform="translate(-557.204 -1373.797)"/>
        <path id="Path_1064" data-name="Path 1064" class="cls-7" d="M562.3,1391.748l.695-4.748h.347l-.579,4.748Z" transform="translate(-557.204 -1373.797)"/>
        <path id="Path_1065" data-name="Path 1065" class="cls-5" d="M566.411,1387h.347l-.695,4.748h-.347v-.463c-.116.232-.232.347-.463.347a.867.867,0,0,1-.579.116,1.315,1.315,0,0,1-.926-.348,1.415,1.415,0,0,1-.347-1.042,1.486,1.486,0,0,1,.463-1.158,1.129,1.129,0,0,1,1.042-.463.868.868,0,0,1,.579.116c.116.116.347.232.347.463Zm-1.505,4.632a1.051,1.051,0,0,0,.811-.347,1.315,1.315,0,0,0,.347-.927,1.673,1.673,0,0,0-.232-.811c-.116-.232-.347-.232-.695-.232a1.051,1.051,0,0,0-.811.348,1.314,1.314,0,0,0-.347.926,1.673,1.673,0,0,0,.232.811,1.645,1.645,0,0,0,.695.232" transform="translate(-557.03 -1373.797)"/>
        <path id="Path_1066" data-name="Path 1066" class="cls-7" d="M566.411,1387h.347l-.695,4.748h-.347v-.463c-.116.232-.232.347-.463.347a.867.867,0,0,1-.579.116,1.315,1.315,0,0,1-.926-.348,1.415,1.415,0,0,1-.347-1.042,1.486,1.486,0,0,1,.463-1.158,1.129,1.129,0,0,1,1.042-.463.868.868,0,0,1,.579.116c.116.116.347.232.347.463Zm-1.505,4.632a1.051,1.051,0,0,0,.811-.347,1.315,1.315,0,0,0,.347-.927,1.673,1.673,0,0,0-.232-.811c-.116-.232-.347-.232-.695-.232a1.051,1.051,0,0,0-.811.348,1.314,1.314,0,0,0-.347.926,1.673,1.673,0,0,0,.232.811A1.645,1.645,0,0,0,564.906,1391.632Z" transform="translate(-557.03 -1373.797)"/>
        <path id="Path_1067" data-name="Path 1067" class="cls-5" d="M568.29,1389.7H566.9l1.621,1.621,1.506-1.621h-1.39" transform="translate(-556.477 -1373.371)"/>
        <rect id="Rectangle_701" data-name="Rectangle 701" class="cls-5" width="0.463" height="3.243" transform="translate(11.813 13.202)"/>
        <rect id="Rectangle_702" data-name="Rectangle 702" class="cls-8" width="0.463" height="3.243" transform="translate(11.813 13.202)"/>
      </g>
      <g id="Group_1926" data-name="Group 1926" transform="translate(26.173 76.667)">
        <path id="Path_1069" data-name="Path 1069" class="cls-5" d="M499.263,1233.017H498.8l.579-4.517h1.506a.878.878,0,0,1,.463.232l.347.347a.7.7,0,0,1,.116.463.868.868,0,0,1-.116.579c-.116.116-.232.348-.347.463s-.347.116-.463.232c-.232,0-.463.116-.926.116h-.347Zm.927-4.169h-.232l-.232,1.737h1.042a.426.426,0,0,0,.347-.116l.347-.348a.7.7,0,0,0,.116-.463.426.426,0,0,0-.116-.348c-.116-.116-.116-.232-.232-.232s-.116-.116-.232-.116h-.811Z" transform="translate(-498.8 -1228.5)"/>
        <path id="Path_1070" data-name="Path 1070" class="cls-7" d="M499.263,1233.017H498.8l.579-4.517h1.506a.878.878,0,0,1,.463.232l.347.347a.7.7,0,0,1,.116.463.868.868,0,0,1-.116.579c-.116.116-.232.348-.347.463s-.347.116-.463.232c-.232,0-.463.116-.926.116h-.347Zm.927-4.169h-.232l-.232,1.737h1.042a.426.426,0,0,0,.347-.116l.347-.348a.7.7,0,0,0,.116-.463.426.426,0,0,0-.116-.348c-.116-.116-.116-.232-.232-.232s-.116-.116-.232-.116h-.811Z" transform="translate(-498.8 -1228.5)"/>
        <path id="Path_1071" data-name="Path 1071" class="cls-5" d="M501.4,1231.621a1.583,1.583,0,0,1,1.621-1.621,1.395,1.395,0,0,1,1.506,1.274,1.583,1.583,0,0,1-1.621,1.621,1.416,1.416,0,0,1-1.042-.347,1.054,1.054,0,0,1-.463-.927m1.621-1.274a1.2,1.2,0,0,0-1.274,1.274,1.187,1.187,0,0,0,1.158,1.158,1.2,1.2,0,0,0,1.274-1.274,1.187,1.187,0,0,0-1.158-1.158" transform="translate(-498.389 -1228.263)"/>
        <path id="Path_1072" data-name="Path 1072" class="cls-7" d="M501.4,1231.621a1.583,1.583,0,0,1,1.621-1.621,1.395,1.395,0,0,1,1.506,1.274,1.583,1.583,0,0,1-1.621,1.621,1.416,1.416,0,0,1-1.042-.347A1.054,1.054,0,0,1,501.4,1231.621Zm1.621-1.274a1.2,1.2,0,0,0-1.274,1.274,1.187,1.187,0,0,0,1.158,1.158,1.2,1.2,0,0,0,1.274-1.274,1.187,1.187,0,0,0-1.158-1.158Z" transform="translate(-498.389 -1228.263)"/>
        <path id="Path_1073" data-name="Path 1073" class="cls-5" d="M504.616,1232.185a1.605,1.605,0,0,0,.463.348.7.7,0,0,0,.463.116c.232,0,.347,0,.463-.116s.232-.232.232-.348,0-.232-.116-.232c-.116-.116-.232-.116-.463-.232a1.886,1.886,0,0,1-.695-.347c-.116-.116-.116-.232-.116-.463a.885.885,0,0,1,.232-.579,1.646,1.646,0,0,1,.695-.232.7.7,0,0,1,.463.116c.116.116.347.116.463.348l-.232.232c-.116-.116-.232-.232-.347-.232a.425.425,0,0,0-.347-.116.7.7,0,0,0-.463.116.425.425,0,0,0-.116.348c0,.231.232.347.579.463.116,0,.116,0,.232.116a2.522,2.522,0,0,1,.579.348c.116.116.116.232.116.463a.885.885,0,0,1-.232.579,1.674,1.674,0,0,1-.811.232,1.469,1.469,0,0,1-.695-.116,1.6,1.6,0,0,1-.463-.347Z" transform="translate(-497.899 -1228.247)"/>
        <path id="Path_1074" data-name="Path 1074" class="cls-7" d="M504.616,1232.185a1.605,1.605,0,0,0,.463.348.7.7,0,0,0,.463.116c.232,0,.347,0,.463-.116s.232-.232.232-.348,0-.232-.116-.232c-.116-.116-.232-.116-.463-.232a1.886,1.886,0,0,1-.695-.347c-.116-.116-.116-.232-.116-.463a.885.885,0,0,1,.232-.579,1.646,1.646,0,0,1,.695-.232.7.7,0,0,1,.463.116c.116.116.347.116.463.348l-.232.232c-.116-.116-.232-.232-.347-.232a.425.425,0,0,0-.347-.116.7.7,0,0,0-.463.116.425.425,0,0,0-.116.348c0,.231.232.347.579.463.116,0,.116,0,.232.116a2.522,2.522,0,0,1,.579.348c.116.116.116.232.116.463a.885.885,0,0,1-.232.579,1.674,1.674,0,0,1-.811.232,1.469,1.469,0,0,1-.695-.116,1.6,1.6,0,0,1-.463-.347Z" transform="translate(-497.899 -1228.247)"/>
        <path id="Path_1075" data-name="Path 1075" class="cls-5" d="M508.047,1233l.579-4.053H507.7l.232-.348h1.158l-.695,4.4Z" transform="translate(-497.393 -1228.484)"/>
        <path id="Path_1076" data-name="Path 1076" class="cls-7" d="M508.047,1233l.579-4.053H507.7l.232-.348h1.158l-.695,4.4Z" transform="translate(-497.393 -1228.484)"/>
      </g>
      <g id="Group_1927" data-name="Group 1927" transform="translate(60.453 76.551)">
        <path id="Path_1077" data-name="Path 1077" class="cls-5" d="M528.4,1233.117l.579-4.517H530.6c.116,0,.347.116.347.232.116.116.232.231.232.347s.116.232.116.463a1.645,1.645,0,0,1-.232.695.637.637,0,0,1-.579.347l.695.348a1.647,1.647,0,0,1,.232.695.868.868,0,0,1-.116.579.9.9,0,0,1-.463.463c-.116.116-.347.116-.579.231-.232,0-.579.116-1.158.116Zm.463-.347h1.158a.426.426,0,0,0,.347-.116c.116-.116.347-.232.347-.348a.868.868,0,0,0,.116-.579.7.7,0,0,0-.116-.463c-.116-.116-.116-.231-.347-.347-.116,0-.232-.116-.347-.116h-.926Zm.232-2.2h1.042a.425.425,0,0,0,.347-.116c.116-.116.232-.116.347-.348a.7.7,0,0,0,.116-.463.425.425,0,0,0-.116-.347.249.249,0,0,0-.232-.232c-.116,0-.116-.116-.232-.116h-.927Z" transform="translate(-528.4 -1228.368)"/>
        <path id="Path_1078" data-name="Path 1078" class="cls-7" d="M528.4,1233.117l.579-4.517H530.6c.116,0,.347.116.347.232.116.116.232.231.232.347s.116.232.116.463a1.645,1.645,0,0,1-.232.695.637.637,0,0,1-.579.347l.695.348a1.647,1.647,0,0,1,.232.695.868.868,0,0,1-.116.579.9.9,0,0,1-.463.463c-.116.116-.347.116-.579.231-.232,0-.579.116-1.158.116Zm.463-.347h1.158a.426.426,0,0,0,.347-.116c.116-.116.347-.232.347-.348a.868.868,0,0,0,.116-.579.7.7,0,0,0-.116-.463c-.116-.116-.116-.231-.347-.347-.116,0-.232-.116-.347-.116h-.926Zm.232-2.2h1.042a.425.425,0,0,0,.347-.116c.116-.116.232-.116.347-.348a.7.7,0,0,0,.116-.463.425.425,0,0,0-.116-.347.249.249,0,0,0-.232-.232c-.116,0-.116-.116-.232-.116h-.927Z" transform="translate(-528.4 -1228.368)"/>
        <path id="Path_1079" data-name="Path 1079" class="cls-5" d="M531.5,1233.053l.347-2.779h.347l-.347,2.779Zm.463-3.706c0-.116,0-.116.116-.232s.116-.116.232-.116.116,0,.232.116c.116,0,.116.116.116.232s0,.116-.116.231a.4.4,0,0,1-.232.116c-.116,0-.116,0-.232-.116s-.116-.116-.116-.231" transform="translate(-527.91 -1228.305)"/>
        <path id="Path_1080" data-name="Path 1080" class="cls-7" d="M531.5,1233.053l.347-2.779h.347l-.347,2.779Zm.463-3.706c0-.116,0-.116.116-.232s.116-.116.232-.116.116,0,.232.116c.116,0,.116.116.116.232s0,.116-.116.231a.4.4,0,0,1-.232.116c-.116,0-.116,0-.232-.116S531.963,1229.463,531.963,1229.348Z" transform="translate(-527.91 -1228.305)"/>
        <path id="Path_1081" data-name="Path 1081" class="cls-5" d="M532.8,1233.148l.695-4.748h.347l-.7,4.748Z" transform="translate(-527.704 -1228.4)"/>
        <path id="Path_1082" data-name="Path 1082" class="cls-7" d="M532.8,1233.148l.695-4.748h.347l-.7,4.748Z" transform="translate(-527.704 -1228.4)"/>
        <path id="Path_1083" data-name="Path 1083" class="cls-5" d="M536.911,1228.4h.347l-.695,4.748h-.347v-.463c-.116.231-.232.347-.463.347a.867.867,0,0,1-.579.116,1.315,1.315,0,0,1-.927-.348,1.416,1.416,0,0,1-.347-1.042,1.486,1.486,0,0,1,.463-1.158,1.129,1.129,0,0,1,1.042-.464.867.867,0,0,1,.579.116c.116.116.347.232.347.463Zm-1.506,4.632a1.051,1.051,0,0,0,.811-.347,1.315,1.315,0,0,0,.347-.927,1.674,1.674,0,0,0-.232-.811c-.116-.232-.347-.232-.695-.232a1.052,1.052,0,0,0-.811.348,1.315,1.315,0,0,0-.347.927,1.674,1.674,0,0,0,.232.811,1.646,1.646,0,0,0,.695.231" transform="translate(-527.53 -1228.4)"/>
        <path id="Path_1084" data-name="Path 1084" class="cls-7" d="M536.911,1228.4h.347l-.695,4.748h-.347v-.463c-.116.231-.232.347-.463.347a.867.867,0,0,1-.579.116,1.315,1.315,0,0,1-.927-.348,1.416,1.416,0,0,1-.347-1.042,1.486,1.486,0,0,1,.463-1.158,1.129,1.129,0,0,1,1.042-.464.867.867,0,0,1,.579.116c.116.116.347.232.347.463Zm-1.506,4.632a1.051,1.051,0,0,0,.811-.347,1.315,1.315,0,0,0,.347-.927,1.674,1.674,0,0,0-.232-.811c-.116-.232-.347-.232-.695-.232a1.052,1.052,0,0,0-.811.348,1.315,1.315,0,0,0-.347.927,1.674,1.674,0,0,0,.232.811A1.646,1.646,0,0,0,535.406,1233.032Z" transform="translate(-527.53 -1228.4)"/>
        <path id="Path_1085" data-name="Path 1085" class="cls-5" d="M538.674,1230.021H537.4l1.621-1.622,1.506,1.622h-1.39" transform="translate(-526.977 -1228.4)"/>
        <rect id="Rectangle_703" data-name="Rectangle 703" class="cls-5" width="0.463" height="3.243" transform="translate(11.697 1.506)"/>
      </g>
      <path id="Path_1087" data-name="Path 1087" class="cls-5" d="M587.4,1233.117l.579-4.517h2.432v.348h-1.969l-.232,1.505h1.853v.347h-1.969l-.232,1.969h1.969v.347Z" transform="translate(-458.618 -1151.817)"/>
      <path id="Path_1088" data-name="Path 1088" class="cls-7" d="M587.4,1233.117l.579-4.517h2.432v.348h-1.969l-.232,1.505h1.853v.347h-1.969l-.232,1.969h1.969v.347Z" transform="translate(-458.618 -1151.817)"/>
      <path id="Path_1089" data-name="Path 1089" class="cls-5" d="M590.3,1232.9l.347-2.78h.347l-.116.463c.116-.231.347-.347.463-.463a1.044,1.044,0,0,1,.579-.116,1.646,1.646,0,0,1,.695.232.885.885,0,0,1,.232.579v.231l-.232,1.737h-.347l.232-1.737v-.231c0-.232,0-.348-.116-.348-.116-.116-.232-.116-.463-.116a1,1,0,0,0-.695.347,5.641,5.641,0,0,0-.347.811l-.232,1.39H590.3Z" transform="translate(-458.16 -1151.596)"/>
      <path id="Path_1090" data-name="Path 1090" class="cls-7" d="M590.3,1232.9l.347-2.78h.347l-.116.463c.116-.231.347-.347.463-.463a1.044,1.044,0,0,1,.579-.116,1.646,1.646,0,0,1,.695.232.885.885,0,0,1,.232.579v.231l-.232,1.737h-.347l.232-1.737v-.231c0-.232,0-.348-.116-.348-.116-.116-.232-.116-.463-.116a1,1,0,0,0-.695.347,5.641,5.641,0,0,0-.347.811l-.232,1.39H590.3Z" transform="translate(-458.16 -1151.596)"/>
      <path id="Path_1091" data-name="Path 1091" class="cls-5" d="M596.1,1228.4h.347l-.695,4.748H595.4l.116-.463c-.116.231-.232.347-.463.347a.867.867,0,0,1-.579.116,1.315,1.315,0,0,1-.927-.348,1.416,1.416,0,0,1-.347-1.042,1.486,1.486,0,0,1,.463-1.158,1.129,1.129,0,0,1,1.042-.464.867.867,0,0,1,.579.116c.116.116.347.232.347.463Zm-1.506,4.632a.7.7,0,0,0,.695-.347,1.315,1.315,0,0,0,.347-.927,1.673,1.673,0,0,0-.232-.811c-.116-.232-.347-.232-.695-.232a1.052,1.052,0,0,0-.811.348,1.315,1.315,0,0,0-.347.927,1.674,1.674,0,0,0,.232.811,2.947,2.947,0,0,0,.811.231" transform="translate(-457.701 -1151.849)"/>
      <path id="Path_1092" data-name="Path 1092" class="cls-7" d="M596.1,1228.4h.347l-.695,4.748H595.4l.116-.463c-.116.231-.232.347-.463.347a.867.867,0,0,1-.579.116,1.315,1.315,0,0,1-.927-.348,1.416,1.416,0,0,1-.347-1.042,1.486,1.486,0,0,1,.463-1.158,1.129,1.129,0,0,1,1.042-.464.867.867,0,0,1,.579.116c.116.116.347.232.347.463Zm-1.506,4.632a.7.7,0,0,0,.695-.347,1.315,1.315,0,0,0,.347-.927,1.673,1.673,0,0,0-.232-.811c-.116-.232-.347-.232-.695-.232a1.052,1.052,0,0,0-.811.348,1.315,1.315,0,0,0-.347.927,1.674,1.674,0,0,0,.232.811A2.947,2.947,0,0,0,594.59,1233.032Z" transform="translate(-457.701 -1151.849)"/>
      <path id="Path_1093" data-name="Path 1093" class="cls-5" d="M599.179,1231.59h-2.432v.116a1.672,1.672,0,0,0,.232.811.978.978,0,0,0,.811.231,1.045,1.045,0,0,0,.579-.116c.116-.116.347-.232.463-.347l.232.232a1.157,1.157,0,0,1-.579.463,1.469,1.469,0,0,1-.695.116,1.415,1.415,0,0,1-1.042-.348,1.314,1.314,0,0,1-.347-.926,1.343,1.343,0,0,1,.463-1.158,1.486,1.486,0,0,1,1.158-.463,1.139,1.139,0,0,1,.926.348,1.315,1.315,0,0,1,.347.926v.116c0-.115-.116,0-.116,0m-.347-.347a1.241,1.241,0,0,0-.232-.695,1.158,1.158,0,0,0-1.39,0,1.064,1.064,0,0,0-.463.695Z" transform="translate(-457.195 -1151.564)"/>
      <path id="Path_1094" data-name="Path 1094" class="cls-7" d="M599.179,1231.59h-2.432v.116a1.672,1.672,0,0,0,.232.811.978.978,0,0,0,.811.231,1.045,1.045,0,0,0,.579-.116c.116-.116.347-.232.463-.347l.232.232a1.157,1.157,0,0,1-.579.463,1.469,1.469,0,0,1-.695.116,1.415,1.415,0,0,1-1.042-.348,1.314,1.314,0,0,1-.347-.926,1.343,1.343,0,0,1,.463-1.158,1.486,1.486,0,0,1,1.158-.463,1.139,1.139,0,0,1,.926.348,1.315,1.315,0,0,1,.347.926v.116C599.3,1231.474,599.179,1231.59,599.179,1231.59Zm-.347-.347a1.241,1.241,0,0,0-.232-.695,1.158,1.158,0,0,0-1.39,0,1.064,1.064,0,0,0-.463.695Z" transform="translate(-457.195 -1151.564)"/>
      <g id="Group_1928" data-name="Group 1928" transform="translate(94.617 76.551)">
        <path id="Path_1095" data-name="Path 1095" class="cls-5" d="M557.9,1233.117l.579-4.517H560.1c.116,0,.347.116.347.232.116.116.232.231.232.347s.116.232.116.463a1.646,1.646,0,0,1-.232.695.637.637,0,0,1-.579.347l.695.348a1.646,1.646,0,0,1,.232.695.868.868,0,0,1-.116.579.905.905,0,0,1-.463.463c-.116.116-.347.116-.579.231H557.9Zm.463-.347h1.158a.425.425,0,0,0,.347-.116c.116-.116.347-.232.347-.348a.868.868,0,0,0,.116-.579.7.7,0,0,0-.116-.463c-.116-.116-.116-.231-.347-.347-.116,0-.232-.116-.347-.116h-1.042Zm.347-2.2h1.042a.425.425,0,0,0,.347-.116c.116-.116.232-.116.347-.348a.7.7,0,0,0,.116-.463.425.425,0,0,0-.116-.347c-.116-.116-.116-.232-.232-.232s-.116-.116-.232-.116h-1.158Z" transform="translate(-557.9 -1228.368)"/>
        <path id="Path_1096" data-name="Path 1096" class="cls-7" d="M557.9,1233.117l.579-4.517H560.1c.116,0,.347.116.347.232.116.116.232.231.232.347s.116.232.116.463a1.646,1.646,0,0,1-.232.695.637.637,0,0,1-.579.347l.695.348a1.646,1.646,0,0,1,.232.695.868.868,0,0,1-.116.579.905.905,0,0,1-.463.463c-.116.116-.347.116-.579.231H557.9Zm.463-.347h1.158a.425.425,0,0,0,.347-.116c.116-.116.347-.232.347-.348a.868.868,0,0,0,.116-.579.7.7,0,0,0-.116-.463c-.116-.116-.116-.231-.347-.347-.116,0-.232-.116-.347-.116h-1.042Zm.347-2.2h1.042a.425.425,0,0,0,.347-.116c.116-.116.232-.116.347-.348a.7.7,0,0,0,.116-.463.425.425,0,0,0-.116-.347c-.116-.116-.116-.232-.232-.232s-.116-.116-.232-.116h-1.158Z" transform="translate(-557.9 -1228.368)"/>
        <path id="Path_1097" data-name="Path 1097" class="cls-5" d="M561,1233.053l.347-2.779h.347l-.347,2.779Zm.463-3.706c0-.116,0-.116.116-.232a.4.4,0,0,1,.232-.116c.116,0,.116,0,.232.116a.4.4,0,0,1,.116.232c0,.116,0,.116-.116.231-.116,0-.116.116-.232.116s-.116,0-.232-.116-.116-.116-.116-.231" transform="translate(-557.41 -1228.305)"/>
        <path id="Path_1098" data-name="Path 1098" class="cls-7" d="M561,1233.053l.347-2.779h.347l-.347,2.779Zm.463-3.706c0-.116,0-.116.116-.232a.4.4,0,0,1,.232-.116c.116,0,.116,0,.232.116a.4.4,0,0,1,.116.232c0,.116,0,.116-.116.231-.116,0-.116.116-.232.116s-.116,0-.232-.116S561.463,1229.463,561.463,1229.348Z" transform="translate(-557.41 -1228.305)"/>
        <path id="Path_1099" data-name="Path 1099" class="cls-5" d="M562.3,1233.148l.695-4.748h.347l-.579,4.748Z" transform="translate(-557.204 -1228.4)"/>
        <path id="Path_1100" data-name="Path 1100" class="cls-7" d="M562.3,1233.148l.695-4.748h.347l-.579,4.748Z" transform="translate(-557.204 -1228.4)"/>
        <path id="Path_1101" data-name="Path 1101" class="cls-5" d="M566.411,1228.4h.347l-.695,4.748h-.347v-.463c-.116.231-.232.347-.463.347a.867.867,0,0,1-.579.116,1.315,1.315,0,0,1-.926-.348,1.416,1.416,0,0,1-.347-1.042,1.486,1.486,0,0,1,.463-1.158,1.129,1.129,0,0,1,1.042-.464.867.867,0,0,1,.579.116c.116.116.347.232.347.463Zm-1.505,4.632a1.051,1.051,0,0,0,.811-.347,1.315,1.315,0,0,0,.347-.927,1.674,1.674,0,0,0-.232-.811c-.116-.232-.347-.232-.695-.232a1.052,1.052,0,0,0-.811.348,1.315,1.315,0,0,0-.347.927,1.674,1.674,0,0,0,.232.811,1.646,1.646,0,0,0,.695.231" transform="translate(-557.03 -1228.4)"/>
        <path id="Path_1102" data-name="Path 1102" class="cls-7" d="M566.411,1228.4h.347l-.695,4.748h-.347v-.463c-.116.231-.232.347-.463.347a.867.867,0,0,1-.579.116,1.315,1.315,0,0,1-.926-.348,1.416,1.416,0,0,1-.347-1.042,1.486,1.486,0,0,1,.463-1.158,1.129,1.129,0,0,1,1.042-.464.867.867,0,0,1,.579.116c.116.116.347.232.347.463Zm-1.505,4.632a1.051,1.051,0,0,0,.811-.347,1.315,1.315,0,0,0,.347-.927,1.674,1.674,0,0,0-.232-.811c-.116-.232-.347-.232-.695-.232a1.052,1.052,0,0,0-.811.348,1.315,1.315,0,0,0-.347.927,1.674,1.674,0,0,0,.232.811A1.646,1.646,0,0,0,564.906,1233.032Z" transform="translate(-557.03 -1228.4)"/>
        <path id="Path_1103" data-name="Path 1103" class="cls-5" d="M568.174,1231.1H566.9l1.621,1.737,1.506-1.737h-1.39" transform="translate(-556.477 -1227.973)"/>
        <rect id="Rectangle_705" data-name="Rectangle 705" class="cls-5" width="0.463" height="3.359" transform="translate(11.813)"/>
      </g>
      <g id="Group_1930" data-name="Group 1930" transform="translate(95.776 236.718)">
        <path id="Path_1105" data-name="Path 1105" class="cls-9" d="M557.9,1418.9l1.158-2.2.695.348-1.39,2.085Z" transform="translate(-557.9 -1416.7)"/>
        <path id="Path_1106" data-name="Path 1106" class="cls-5" d="M557.9,1427.917l.579-4.517h2.432v.347h-1.969l-.232,1.506h1.853v.347h-1.969l-.232,1.969h1.969v.347Z" transform="translate(-557.9 -1415.641)"/>
        <path id="Path_1107" data-name="Path 1107" class="cls-7" d="M557.9,1427.917l.579-4.517h2.432v.347h-1.969l-.232,1.506h1.853v.347h-1.969l-.232,1.969h1.969v.347Z" transform="translate(-557.9 -1415.641)"/>
        <path id="Path_1108" data-name="Path 1108" class="cls-5" d="M560.8,1427.7l.347-2.78h.347l-.116.463c.116-.232.347-.347.463-.463a1.044,1.044,0,0,1,.579-.116,1.645,1.645,0,0,1,.695.232.884.884,0,0,1,.232.579v.231l-.232,1.737h-.347l.232-1.737v-.231c0-.116,0-.348-.116-.348-.116-.116-.232-.116-.463-.116a1,1,0,0,0-.695.348,1.051,1.051,0,0,0-.347.811l-.232,1.39H560.8Z" transform="translate(-557.441 -1415.419)"/>
        <path id="Path_1109" data-name="Path 1109" class="cls-7" d="M560.8,1427.7l.347-2.78h.347l-.116.463c.116-.232.347-.347.463-.463a1.044,1.044,0,0,1,.579-.116,1.645,1.645,0,0,1,.695.232.884.884,0,0,1,.232.579v.231l-.232,1.737h-.347l.232-1.737v-.231c0-.116,0-.348-.116-.348-.116-.116-.232-.116-.463-.116a1,1,0,0,0-.695.348,1.051,1.051,0,0,0-.347.811l-.232,1.39H560.8Z" transform="translate(-557.441 -1415.419)"/>
        <path id="Path_1110" data-name="Path 1110" class="cls-5" d="M564.163,1425.39H563.7l.116-.232h.463l.116-1.158h.463l-.232,1.158h.579v.232h-.579l-.347,2.432h-.347Z" transform="translate(-556.983 -1415.546)"/>
        <path id="Path_1111" data-name="Path 1111" class="cls-7" d="M564.163,1425.39H563.7l.116-.232h.463l.116-1.158h.463l-.232,1.158h.579v.232h-.579l-.347,2.432h-.347Z" transform="translate(-556.983 -1415.546)"/>
        <path id="Path_1112" data-name="Path 1112" class="cls-5" d="M565.332,1427.98l.347-2.432H565.1v-.347h.579l.232-1.274a.979.979,0,0,1,.232-.695.6.6,0,0,1,.463-.232h.232c.116,0,.116,0,.232.116v.347c-.116,0-.116,0-.232-.116h-.116c-.116,0-.232,0-.232.116-.116.116-.116.232-.116.463l-.116,1.158h.695v.348h-.811l-.347,2.432h-.463Z" transform="translate(-556.762 -1415.704)"/>
        <path id="Path_1113" data-name="Path 1113" class="cls-7" d="M565.332,1427.98l.347-2.432H565.1v-.347h.579l.232-1.274a.979.979,0,0,1,.232-.695.6.6,0,0,1,.463-.232h.232c.116,0,.116,0,.232.116v.347c-.116,0-.116,0-.232-.116h-.116c-.116,0-.232,0-.232.116-.116.116-.116.232-.116.463l-.116,1.158h.695v.348h-.811l-.347,2.432h-.463Z" transform="translate(-556.762 -1415.704)"/>
      </g>
      <g id="Group_1929" data-name="Group 1929" transform="translate(61.611 234.633)">
        <path id="Path_1027" data-name="Path 1027" class="cls-5" d="M530.948,1415.479a1.645,1.645,0,0,0-.695.232c-.232.116-.347.347-.579.579a4.148,4.148,0,0,0-.463,1.274,6.782,6.782,0,0,0-.232,1.506,2.469,2.469,0,0,0,.347,1.39.94.94,0,0,0,.926.463c.579,0,.927-.347,1.274-1.042a5.522,5.522,0,0,0,.579-2.548,3.324,3.324,0,0,0-.232-1.39.94.94,0,0,0-.926-.463m1.969,1.969a8.941,8.941,0,0,1-.232,1.737,3.864,3.864,0,0,1-.579,1.39,2.706,2.706,0,0,1-.811.811,1.722,1.722,0,0,1-1.042.231,1.65,1.65,0,0,1-1.39-.695,2.938,2.938,0,0,1-.463-1.853,8.931,8.931,0,0,1,.232-1.737,3.862,3.862,0,0,1,.579-1.39,2.7,2.7,0,0,1,.811-.811,1.721,1.721,0,0,1,1.042-.232,1.651,1.651,0,0,1,1.39.695,2.553,2.553,0,0,1,.463,1.853" transform="translate(-528.4 -1414.9)"/>
        <path id="Path_1114" data-name="Path 1114" class="cls-5" d="M528.4,1427.917l.579-4.517h2.432l-.116.347h-1.969l-.116,1.39h1.853v.347h-1.969l-.232,2.085h1.969v.347Z" transform="translate(-528.4 -1413.556)"/>
        <path id="Path_1115" data-name="Path 1115" class="cls-7" d="M528.4,1427.917l.579-4.517h2.432l-.116.347h-1.969l-.116,1.39h1.853v.347h-1.969l-.232,2.085h1.969v.347Z" transform="translate(-528.4 -1413.556)"/>
        <path id="Path_1116" data-name="Path 1116" class="cls-5" d="M531.3,1427.869l.347-2.779h.347l-.347,2.779Zm.463-3.822c0-.116,0-.116.116-.232a.4.4,0,0,1,.232-.116c.116,0,.116,0,.232.116a.4.4,0,0,1,.116.232c0,.116,0,.116-.116.232a.4.4,0,0,1-.232.116c-.116,0-.116,0-.232-.116-.116,0-.116-.116-.116-.232" transform="translate(-527.941 -1413.509)"/>
        <path id="Path_1117" data-name="Path 1117" class="cls-7" d="M531.3,1427.869l.347-2.779h.347l-.347,2.779Zm.463-3.822c0-.116,0-.116.116-.232a.4.4,0,0,1,.232-.116c.116,0,.116,0,.232.116a.4.4,0,0,1,.116.232c0,.116,0,.116-.116.232a.4.4,0,0,1-.232.116c-.116,0-.116,0-.232-.116C531.763,1424.279,531.763,1424.163,531.763,1424.047Z" transform="translate(-527.941 -1413.509)"/>
        <path id="Path_1118" data-name="Path 1118" class="cls-5" d="M532.6,1427.7l.347-2.78h.347l-.116.463c.116-.232.348-.347.463-.463a.868.868,0,0,1,.579-.116,1.645,1.645,0,0,1,.695.232.884.884,0,0,1,.232.579v.231l-.232,1.737h-.347l.232-1.737v-.231c0-.232,0-.348-.116-.348-.116-.116-.232-.116-.463-.116a.98.98,0,0,0-.695.232,1.051,1.051,0,0,0-.347.811l-.232,1.39H532.6Z" transform="translate(-527.736 -1413.335)"/>
        <path id="Path_1119" data-name="Path 1119" class="cls-7" d="M532.6,1427.7l.347-2.78h.347l-.116.463c.116-.232.348-.347.463-.463a.868.868,0,0,1,.579-.116,1.645,1.645,0,0,1,.695.232.884.884,0,0,1,.232.579v.231l-.232,1.737h-.347l.232-1.737v-.231c0-.232,0-.348-.116-.348-.116-.116-.232-.116-.463-.116a.98.98,0,0,0-.695.232,1.051,1.051,0,0,0-.347.811l-.232,1.39H532.6Z" transform="translate(-527.736 -1413.335)"/>
        <path id="Path_1120" data-name="Path 1120" class="cls-5" d="M535.732,1427.98l.347-2.432H535.5v-.347h.579l.232-1.274a.979.979,0,0,1,.232-.695.885.885,0,0,1,.579-.232h.232c.116,0,.116,0,.232.116v.347c-.116,0-.116,0-.232-.116h-.116a.426.426,0,0,0-.347.116c-.116.116-.116.232-.116.463l-.116,1.158h.695v.348h-.695l-.347,2.432h-.579Z" transform="translate(-527.277 -1413.619)"/>
        <path id="Path_1121" data-name="Path 1121" class="cls-7" d="M535.732,1427.98l.347-2.432H535.5v-.347h.579l.232-1.274a.979.979,0,0,1,.232-.695.885.885,0,0,1,.579-.232h.232c.116,0,.116,0,.232.116v.347c-.116,0-.116,0-.232-.116h-.116a.426.426,0,0,0-.347.116c-.116.116-.116.232-.116.463l-.116,1.158h.695v.348h-.695l-.347,2.432h-.579Z" transform="translate(-527.277 -1413.619)"/>
        <path id="Path_1122" data-name="Path 1122" class="cls-5" d="M540.127,1424.947l-.347,2.664a2.688,2.688,0,0,1-.463,1.158,1.416,1.416,0,0,1-1.042.348.9.9,0,0,1-.811-.348,1.052,1.052,0,0,1-.347-.811h.347a.6.6,0,0,0,.232.463.886.886,0,0,0,.579.231.98.98,0,0,0,.695-.231,3.923,3.923,0,0,0,.347-.927v-.347c-.116.232-.232.347-.463.347a.868.868,0,0,1-.579.116,1.315,1.315,0,0,1-.927-.348,1.415,1.415,0,0,1-.347-1.042,1.486,1.486,0,0,1,.463-1.158,1.129,1.129,0,0,1,1.042-.464.868.868,0,0,1,.579.116c.116.116.347.232.347.463l.116-.579h.579Zm-1.621,2.548a.7.7,0,0,0,.695-.348,1.315,1.315,0,0,0,.347-.926.979.979,0,0,0-.232-.695c-.116-.232-.347-.232-.695-.232a1.052,1.052,0,0,0-.811.348,1.315,1.315,0,0,0-.347.927,1.674,1.674,0,0,0,.232.811c.232,0,.463.116.811.116" transform="translate(-527.04 -1413.366)"/>
        <path id="Path_1123" data-name="Path 1123" class="cls-7" d="M540.127,1424.947l-.347,2.664a2.688,2.688,0,0,1-.463,1.158,1.416,1.416,0,0,1-1.042.348.9.9,0,0,1-.811-.348,1.052,1.052,0,0,1-.347-.811h.347a.6.6,0,0,0,.232.463.886.886,0,0,0,.579.231.98.98,0,0,0,.695-.231,3.923,3.923,0,0,0,.347-.927v-.347c-.116.232-.232.347-.463.347a.868.868,0,0,1-.579.116,1.315,1.315,0,0,1-.927-.348,1.415,1.415,0,0,1-.347-1.042,1.486,1.486,0,0,1,.463-1.158,1.129,1.129,0,0,1,1.042-.464.868.868,0,0,1,.579.116c.116.116.347.232.347.463l.116-.579h.579Zm-1.621,2.548a.7.7,0,0,0,.695-.348,1.315,1.315,0,0,0,.347-.926.979.979,0,0,0-.232-.695c-.116-.232-.347-.232-.695-.232a1.052,1.052,0,0,0-.811.348,1.315,1.315,0,0,0-.347.927,1.674,1.674,0,0,0,.232.811C537.926,1427.38,538.158,1427.5,538.505,1427.5Z" transform="translate(-527.04 -1413.366)"/>
      </g>
      <g id="Group_1925" data-name="Group 1925" transform="translate(25.247 102.235)">
        <text id="NumLK" class="cls-10" transform="translate(0 5)"><tspan x="0" y="0">NumLK</tspan></text>
        <text id="ScrLK" class="cls-11" transform="translate(0 13.107)"><tspan x="0" y="0">ScrLK</tspan></text>
      </g>
      <ellipse id="Ellipse_230" data-name="Ellipse 230" class="cls-9" cx="1.158" cy="1.158" rx="1.158" ry="1.158" transform="translate(34.512 35.065)"/>
      <ellipse id="Ellipse_231" data-name="Ellipse 231" class="cls-9" cx="1.158" cy="1.158" rx="1.158" ry="1.158" transform="translate(41.46 35.065)"/>
      <ellipse id="Ellipse_232" data-name="Ellipse 232" class="cls-9" cx="1.158" cy="1.158" rx="1.158" ry="1.158" transform="translate(48.409 35.065)"/>
      <text id="_6:15_PM" data-name="6:15 PM" class="cls-12" transform="translate(119.053 37.59)"><tspan x="0" y="0">6:15 PM</tspan></text>
      <text id="xmouse" class="cls-13" transform="translate(79.678 301.797)"><tspan x="0" y="0">xmouse</tspan></text>
      <ellipse id="Ellipse_233" data-name="Ellipse 233" class="cls-14" cx="2.316" cy="2.316" rx="2.316" ry="2.316" transform="translate(107.472 33.906)"/>
      <g id="Group_1946" data-name="Group 1946" transform="translate(-779.759 -5341.723)">
        <g id="Ellipse_246" data-name="Ellipse 246" class="cls-15" transform="translate(856 5353)">
          <circle class="cls-19" cx="2" cy="2" r="2"/>
          <circle class="cls-8" cx="2" cy="2" r="1.5"/>
        </g>
        <g id="Ellipse_244" data-name="Ellipse 244" class="cls-16" transform="translate(865 5353)">
          <circle class="cls-19" cx="2" cy="2" r="2"/>
          <circle class="cls-8" cx="2" cy="2" r="1.5"/>
        </g>
        <g id="Ellipse_245" data-name="Ellipse 245" class="cls-15" transform="translate(874 5353)">
          <circle class="cls-19" cx="2" cy="2" r="2"/>
          <circle class="cls-8" cx="2" cy="2" r="1.5"/>
        </g>
      </g>
      <path id="Path_9610" data-name="Path 9610" class="cls-17" d="M473.2,1496.848V1192.022a9.6,9.6,0,0,1,9.49-9.723H637.427C642.674,1182.3,473.2,1502.224,473.2,1496.848Z" transform="translate(-473.2 -1182.3)"/>
      <path id="Path_9611" data-name="Path 9611" class="cls-18" d="M473.2,1482V1192.022a9.6,9.6,0,0,1,9.49-9.723H635.955C641.2,1182.3,473.2,1487.377,473.2,1482Z" transform="translate(-473.2 -1182.3)"/>
    </g>
    <rect id="Rectangle_897" data-name="Rectangle 897" class="cls-9" width="152" height="21" transform="translate(795 5743)"/>
  </g>
</svg>
