<svg xmlns="http://www.w3.org/2000/svg" xmlns:xlink="http://www.w3.org/1999/xlink" width="338.908" height="357.124" viewBox="0 0 338.908 357.124">
  <defs>
    <clipPath id="clip-path">
      <circle id="楕円形_312" data-name="楕円形 312" cx="16.7" cy="16.7" r="16.7" transform="translate(28.1 98.2)"/>
    </clipPath>
    <clipPath id="clip-path-2">
      <path id="パス_18093" data-name="パス 18093" d="M32.2,126.5A16.658,16.658,0,1,1,44,131.4a17.557,17.557,0,0,1-11.8-4.9m-1.6-25.2a18.95,18.95,0,1,0,26.8,0,19.074,19.074,0,0,0-26.8,0"/>
    </clipPath>
    <clipPath id="clip-path-3">
      <circle id="楕円形_313" data-name="楕円形 313" cx="11.2" cy="11.2" r="11.2" transform="translate(373.5 112.5)"/>
    </clipPath>
    <clipPath id="clip-path-4">
      <path id="パス_18151" data-name="パス 18151" d="M376.3,131.4a11.106,11.106,0,1,1,7.9,3.3,11.106,11.106,0,0,1-7.9-3.3m-1.1-16.9a12.8,12.8,0,1,0,9-3.7,12.675,12.675,0,0,0-9,3.7"/>
    </clipPath>
  </defs>
  <g id="d_wall2" transform="translate(-1110.35 -981)">
    <text id="The_new_way_to_put_data_into_a_computer" data-name="The new way to put data into a computer" transform="translate(1184.258 1016.978)" fill="#050505" font-size="12" font-family="SegoeUI, Segoe UI" letter-spacing="0.1em"><tspan x="0" y="0">The new way to put data into a computer</tspan></text>
    <text id="Thin_and_light_design" data-name="Thin and light design" transform="translate(1185.49 1116.937)" fill="#050505" font-size="12" font-family="SegoeUI, Segoe UI" letter-spacing="0.1em"><tspan x="0" y="0">Thin and light design</tspan></text>
    <text id="The_new_way_to_put_data_into_a_computer-2" data-name="The new way to put data into a computer" transform="translate(1184.258 1226.624)" fill="#050505" font-size="12" font-family="SegoeUI, Segoe UI" letter-spacing="0.1em"><tspan x="0" y="0">The new way to put data into a computer</tspan></text>
    <text id="Thin_and_light_design-2" data-name="Thin and light design" transform="translate(1185.49 1335.124)" fill="#050505" font-size="12" font-family="SegoeUI, Segoe UI" letter-spacing="0.1em"><tspan x="0" y="0">Thin and light design</tspan></text>
    <text id="整合施工人員的施工工具" transform="translate(1181.797 997)" fill="#050505" font-size="15" font-family="YuGothicUI-Regular, Yu Gothic UI" letter-spacing="0.1em"><tspan x="0" y="0">整合施工人員的施工工具</tspan></text>
    <text id="保護施工人員與居民於噪音環境" transform="translate(1181.797 1098.488)" fill="#050505" font-size="15" font-family="YuGothicUI-Regular, Yu Gothic UI" letter-spacing="0.1em"><tspan x="0" y="0">保護施工人員與居民於噪音環境</tspan></text>
    <text id="提供快速的移動式防噪" transform="translate(1184.258 1314.956)" fill="#050505" font-size="15" font-family="YuGothicUI-Regular, Yu Gothic UI" letter-spacing="0.1em"><tspan x="0" y="0">提供快速的移動式防噪</tspan></text>
    <text id="保護施工人員以及用路人安全" transform="translate(1181.797 1208.248)" fill="#050505" font-size="15" font-family="YuGothicUI-Regular, Yu Gothic UI" letter-spacing="0.1em"><tspan x="0" y="0">保護施工人員以及用路人安全</tspan></text>
    <g id="グループ_2229" data-name="グループ 2229" transform="translate(1091.95 981.308)">
      <g id="グループ_2228" data-name="グループ 2228" clip-path="url(#clip-path)">
        <path id="パス_18061" data-name="パス 18061" d="M48.8,135.3h-.2c-.7-.1-1-.7-1.3-1.2-.3-.6-.5-1.1-1.1-1.1-.6-.1-1,.4-1.3.9-.4.5-.8,1-1.5.9s-1-.7-1.3-1.2c-.3-.6-.5-1.1-1.1-1.1-.6-.1-1,.4-1.3.9-.4.5-.8,1-1.5.9s-1-.7-1.3-1.2c-.3-.6-.5-1.1-1.1-1.1-.6-.1-1,.4-1.3.9-.4.5-.8,1-1.5.9s-1-.7-1.3-1.2c-.3-.6-.5-1.1-1.1-1.1-.6-.1-1,.4-1.3.9-.4.5-.8,1-1.5.9s-1-.7-1.3-1.2c-.3-.6-.5-1.1-1.1-1.1-.6-.1-1,.4-1.3.9-.4.5-.8,1-1.5.9s-1-.7-1.3-1.2c-.3-.6-.5-1.1-1.1-1.1-.6-.1-1,.4-1.3.9-.4.5-.8,1-1.5.9s-1-.7-1.3-1.2c-.3-.6-.5-1.1-1.1-1.1-.6-.1-1,.4-1.3.9-.4.5-.8,1-1.5,1-.7-.1-1-.7-1.3-1.2-.3-.6-.5-1.1-1.1-1.1-.6-.1-1,.4-1.3.9-.4.5-.8,1-1.5.9s-1-.7-1.3-1.2c-.3-.6-.5-1.1-1.1-1.1-.6-.1-1,.4-1.3.9-.4.5-.8,1-1.5.9v-.2c.6.1,1-.4,1.3-.9.4-.5.8-1,1.5-.9s1,.7,1.3,1.2c.3.6.5,1.1,1.1,1.1.6.1,1-.4,1.3-.9.4-.5.8-1,1.5-.9s1,.7,1.3,1.2c.3.6.5,1.1,1.1,1.1.6.1,1-.4,1.3-.9.4-.5.8-1,1.5-.9s1,.7,1.3,1.2c.3.6.5,1.1,1.1,1.1.6.1,1-.4,1.3-.9.4-.5.8-1,1.5-1,.7.1,1,.7,1.3,1.2.3.6.5,1.1,1.1,1.1.6.1,1-.4,1.3-.9.4-.5.8-1,1.5-.9s1,.7,1.3,1.2c.3.6.5,1.1,1.1,1.1.6.1,1-.4,1.3-.9.4-.5.8-1,1.5-.9s1,.7,1.3,1.2c.3.6.5,1.1,1.1,1.1.6.1,1-.4,1.3-.9.4-.5.8-1,1.5-.9s1,.7,1.3,1.2c.3.6.5,1.1,1.1,1.1.6.1,1-.4,1.3-.9.4-.5.8-1,1.5-.9s1,.7,1.3,1.2c.3.6.5,1.1,1.1,1.1.6.1,1-.4,1.3-.9.4-.5.8-1,1.5-1,.7.1,1,.7,1.3,1.2.3.6.5,1.1,1.1,1.1.6.1.9-.3,1.2-.8.3-.4.6-.9,1.2-1h.8v-.1c-.1-.2-.6,0-1.1.1-.6.1-1.1.2-1.3,0-.1-.3.3-.6.8-1,.3-.3.8-.6.7-.8s-.6,0-1.1.1c-.6.1-1.1.2-1.3,0-.1-.3.3-.6.8-1,.3-.3.8-.6.7-.8-.1-.1-.6,0-1.1.1-.6.1-1.1.2-1.3,0-.1-.3.3-.6.8-1,.3-.3.8-.6.7-.8s-.6,0-1.1.1c-.6.1-1.1.2-1.3,0-.1-.3.3-.6.8-1,.3-.3.8-.6.7-.8s-.6,0-1.1.1c-.6.1-1.1.2-1.3,0-.1-.3.3-.6.8-1,.3-.3.8-.6.7-.8s-.6,0-1.1.1c-.6.1-1.1.2-1.3,0-.1-.3.3-.6.8-1,.3-.3.8-.6.7-.8-.1-.1-.6,0-1.1.1-.6.1-1.1.2-1.3,0-.1-.3.3-.6.8-1,.3-.3.8-.6.7-.8-.1-.1-.6,0-1.1.1-.6.1-1.1.2-1.3,0-.1-.3.3-.6.8-1,.3-.3.8-.6.7-.8-.1-.1-.6,0-1.1.1-.6.1-1.1.2-1.3,0-.1-.3.3-.6.8-1,.3-.3.8-.6.7-.8l.2-.1c.1.3-.3.6-.8,1-.3.3-.8.6-.7.8s.6,0,1.1-.1c.6-.1,1.1-.2,1.3,0,.1.3-.3.6-.8,1-.3.3-.8.6-.7.8s.6,0,1.1-.1c.6-.1,1.1-.2,1.3,0,.1.3-.3.6-.8,1-.3.3-.8.6-.7.8.1.1.6,0,1.1-.1.6-.1,1.1-.2,1.3,0,.1.3-.3.6-.8,1-.3.3-.8.6-.7.8.1.1.6,0,1.1-.1.6-.1,1.1-.2,1.3,0,.1.3-.3.6-.8,1-.3.3-.8.6-.7.8.1.1.6,0,1.1-.1.6-.1,1.1-.2,1.3,0,.1.3-.3.6-.8,1-.3.3-.8.6-.7.8s.6,0,1.1-.1c.6-.1,1.1-.2,1.3,0,.1.3-.3.6-.8,1-.3.3-.8.6-.7.8.1.1.6,0,1.1-.1.6-.1,1.1-.2,1.3,0,.1.3-.3.6-.8,1-.3.3-.8.6-.7.8.1.1.6,0,1.1-.1.6-.1,1.1-.2,1.3,0,.1.3-.3.6-.8,1-.3.3-.8.6-.7.8s.6,0,1.1-.1c.6-.1,1.1-.2,1.3,0,0,.1.1.2,0,.3s-.2.1-.4.1h-.5c-.6.1-.8.6-1.1.9C49.8,134.9,49.5,135.3,48.8,135.3Z" fill="#1e1e1e"/>
        <path id="パス_18062" data-name="パス 18062" d="M14.8,146.8h-.2c.1-.5-.3-.9-.7-1.4-.4-.4-.9-.9-.7-1.5s.8-.8,1.4-1,1.1-.3,1.3-.9c.1-.5-.3-.9-.7-1.4-.4-.4-.9-.9-.7-1.5s.8-.8,1.4-1,1.1-.3,1.3-.9c.1-.5-.3-.9-.7-1.4-.4-.4-.9-.9-.7-1.5s.8-.8,1.4-1,1.1-.3,1.3-.9c.1-.5-.3-.9-.7-1.4-.4-.4-.9-.9-.7-1.5s.8-.8,1.4-1,1.1-.3,1.3-.9c.1-.5-.3-.9-.7-1.4-.4-.4-.9-.9-.7-1.5s.8-.8,1.4-1,1.1-.3,1.3-.9c.1-.5-.3-.9-.7-1.4-.4-.4-.9-.9-.7-1.5s.8-.8,1.4-1,1.1-.3,1.3-.9c.1-.5-.3-.9-.7-1.4-.4-.4-.9-.9-.7-1.5s.8-.8,1.4-1,1.1-.3,1.3-.9c.1-.5-.3-.9-.7-1.4-.4-.4-.9-.9-.7-1.5s.8-.8,1.4-1,1.1-.3,1.3-.9c.1-.5-.3-.9-.7-1.4-.4-.4-.9-.9-.7-1.5s.8-.8,1.4-1,1.1-.3,1.3-.9a2.29,2.29,0,0,0-.7-1.6c-.5-.6-1-1.3-.5-1.8a.31.31,0,0,1,.2-.1c.2,0,.3.4.5,1.1.1.5.3,1.1.5,1.2s.6-.2,1-.5c.5-.4.9-.7,1.2-.5s.1.7-.1,1.3c-.2.4-.4,1-.2,1.1s.6-.2,1-.5c.5-.4.9-.7,1.2-.5s.1.7-.1,1.3c-.2.4-.4,1-.2,1.1s.6-.2,1-.5c.5-.4.9-.7,1.2-.5s.1.7-.1,1.3c-.2.4-.4,1-.2,1.1s.6-.2,1-.5c.5-.4.9-.7,1.2-.5s.1.7-.1,1.3c-.2.4-.4,1-.2,1.1s.6-.2,1-.5c.5-.4.9-.7,1.2-.5s.1.7-.1,1.3c-.2.4-.4,1-.2,1.1s.6-.2,1-.5c.5-.4.9-.7,1.2-.5s.1.7-.1,1.3c-.2.4-.4,1-.2,1.1s.6-.2,1-.5c.5-.4.9-.7,1.2-.5s.1.7-.1,1.3c-.2.4-.4,1-.2,1.1s.6-.2,1-.5c.5-.4.9-.7,1.2-.5s.1.7-.1,1.3c-.2.4-.4,1-.2,1.1s.6-.2,1-.5c.5-.4.9-.7,1.2-.5s.1.7-.1,1.3c-.2.4-.4,1-.2,1.1l-.1.1c-.3-.2-.1-.7.1-1.3.2-.4.4-1,.2-1.1s-.6.2-1,.5c-.5.4-.9.7-1.2.5s-.1-.7.1-1.3c.2-.4.4-1,.2-1.1s-.6.2-1,.5c-.5.4-.9.7-1.2.5s-.1-.7.1-1.3c.2-.4.4-1,.2-1.1s-.6.2-1,.5c-.5.4-.9.7-1.2.5s-.1-.7.1-1.3c.2-.4.4-1,.2-1.1s-.6.2-1,.5c-.5.4-.9.7-1.2.5s-.1-.7.1-1.3c.2-.4.4-1,.2-1.1s-.6.2-1,.5c-.5.4-.9.7-1.2.5s-.1-.7.1-1.3c.2-.4.4-1,.2-1.1s-.6.2-1,.5c-.5.4-.9.7-1.2.5s-.1-.7.1-1.3c.2-.4.4-1,.2-1.1s-.6.2-1,.5c-.5.4-.9.7-1.2.5s-.1-.7.1-1.3c.2-.4.4-1,.2-1.1s-.6.2-1,.5c-.5.4-.9.7-1.2.5s-.1-.7.1-1.3c.2-.4.4-1,.2-1.1s-.6.2-1,.5c-.5.3-.9.7-1.2.5a1.232,1.232,0,0,1,.2,1c-.2.6-.8.8-1.4,1s-1.1.3-1.3.9.3.9.7,1.4c.4.4.9.9.7,1.5s-.8.8-1.4,1-1.1.3-1.3.9c-.1.5.3.9.7,1.4.4.4.9.9.7,1.5s-.8.8-1.4,1-1.1.3-1.3.9c-.1.5.3.9.7,1.4.4.4.9.9.7,1.5s-.8.8-1.4,1-1.1.3-1.3.9c-.1.5.3.9.7,1.4.4.4.9.9.7,1.5s-.8.8-1.4,1-1.1.3-1.3.9c-.1.5.3.9.7,1.4.4.4.9.9.7,1.5s-.8.8-1.4,1-1.1.3-1.3.9c-.1.5.3.9.7,1.4.4.4.9.9.7,1.5s-.8.8-1.4,1-1.1.3-1.3.9c-.1.5.3.9.7,1.4.4.4.9.9.7,1.5s-.8.8-1.4,1-1.1.3-1.3.9c-.1.5.3.9.7,1.4.4.4.9.9.7,1.5s-.8.8-1.4,1-1.1.3-1.3.9c-.1.5.3.9.7,1.4C14.5,145.7,15,146.1,14.8,146.8Zm10-46h0c-.4.4,0,1,.4,1.6.1.1.1.2.2.3a9.438,9.438,0,0,1-.3-.9C25.1,101.5,24.9,100.8,24.8,100.8Z" fill="#1e1e1e"/>
        <path id="パス_18063" data-name="パス 18063" d="M43.5,115.7c0-.4.5-.6,1-.8.4-.2,1-.4.9-.7,0-.3-.6-.4-1-.4-.6-.1-1.2-.2-1.2-.6s.5-.6,1-.8c.4-.2,1-.4.9-.7,0-.3-.6-.4-1-.5-.6-.1-1.1-.2-1.2-.6,0-.4.5-.6,1-.8.4-.2,1-.4.9-.7,0-.3-.6-.4-1-.5-.6-.1-1.1-.2-1.2-.6,0-.4.5-.6,1-.8.4-.2,1-.4.9-.7,0-.3-.6-.4-1-.5-.6-.1-1.2-.2-1.2-.6s.5-.6,1-.8c.4-.2,1-.4.9-.7,0-.3-.6-.4-1-.5-.6-.1-1.1-.2-1.2-.6,0-.4.5-.6,1-.8.4-.2,1-.4.9-.7,0-.3-.6-.4-1-.5-.6-.1-1.1-.2-1.2-.6,0-.4.5-.6,1-.8.4-.2,1-.4.9-.7,0-.3-.6-.4-1-.5-.6-.1-1.2-.2-1.2-.6s.5-.6,1-.8c.4-.2,1-.4.9-.7,0-.3-.6-.4-1-.5-.6-.1-1.2-.2-1.2-.6s.5-.6,1-.8c.4-.2,1-.4.9-.7,0-.3-.6-.4-1-.5-.4.1-1,0-1-.4s.5-.6,1-.8c.4-.2,1-.4.9-.7h.2c0,.4-.5.6-1,.8-.4.2-1,.4-.9.7,0,.3.6.4,1,.5.6.1,1.2.2,1.2.6s-.5.6-1,.8c-.4.2-1,.4-.9.7,0,.3.6.4,1,.5.6.1,1.2.2,1.2.6s-.5.6-1,.8c-.4.2-1,.4-.9.7,0,.3.6.4,1,.5.6.1,1.2.2,1.2.6s-.5.6-1,.8c-.4.2-1,.4-.9.7,0,.3.6.4,1,.5.6.1,1.2.2,1.2.6s-.5.6-1,.8c-.4.2-1,.4-.9.7,0,.3.6.4,1,.5.6.1,1.1.2,1.2.6,0,.4-.5.6-1,.8-.4.2-1,.4-.9.7,0,.3.6.4,1,.5.6.1,1.1.2,1.2.6,0,.4-.5.6-1,.8-.4.2-1,.4-.9.7,0,.3.6.4,1,.5.6.1,1.2.2,1.2.6s-.5.6-1,.8c-.4.2-1,.4-.9.7,0,.3.6.4,1,.4.6.1,1.2.2,1.2.6s-.5.6-1,.8c-.4.2-1,.4-.9.7,0,.3.6.4,1.1.5.6.1,1.1.2,1.2.6,0,.4-.5.6-1,.8-.4.2-1,.4-.9.7Z" fill="#1e1e1e"/>
        <path id="パス_18064" data-name="パス 18064" d="M68.4,132.6c-.4-.2-.2-.8-.1-1.4.1-.5.2-1,0-1.2-.3-.2-.7.1-1.1.5-.5.3-1,.7-1.3.5-.4-.2-.2-.8-.1-1.4.1-.5.2-1,0-1.2-.3-.2-.7.1-1.1.5-.5.3-1,.7-1.3.5-.4-.2-.2-.8-.1-1.4.1-.5.2-1,0-1.2-.3-.2-.7.1-1.1.5-.5.3-1,.7-1.3.5-.4-.2-.2-.8-.1-1.4.1-.5.2-1,0-1.2-.3-.2-.7.1-1.1.5-.5.3-1,.7-1.3.5-.4-.2-.2-.8-.1-1.4.1-.5.2-1,0-1.2-.3-.2-.7.1-1.1.5-.5.3-1,.7-1.3.5-.4-.2-.2-.8-.1-1.4.1-.5.2-1,0-1.2-.3-.2-.7.1-1.1.5-.5.3-1,.7-1.3.5-.4-.2-.2-.8-.1-1.4.1-.5.2-1,0-1.2-.3-.2-.7.1-1.1.5-.5.3-1,.7-1.3.5-.4-.2-.2-.8-.1-1.4.1-.5.2-1,0-1.2-.3-.2-.7.1-1.1.5-.5.3-1,.7-1.3.5-.4-.2-.2-.8-.1-1.4.1-.5.2-1,0-1.2-.3-.2-.7.1-1.1.5-.5.3-.9.7-1.3.5s-.2-.8-.1-1.4c.1-.5.2-1,0-1.2l.1-.1c.4.2.2.8.1,1.4-.1.5-.2,1,0,1.2.3.2.7-.1,1.1-.5.5-.3,1-.7,1.3-.5.4.2.2.8.1,1.4-.1.5-.2,1,0,1.2.3.2.7-.1,1.1-.5.5-.3,1-.7,1.3-.5.4.2.2.8.1,1.4-.1.5-.2,1,0,1.2.3.2.7-.1,1.1-.5.5-.3,1-.7,1.3-.5.4.2.2.8.1,1.4-.1.5-.2,1,0,1.2.3.2.7-.1,1.1-.5.5-.3,1-.7,1.3-.5.4.2.2.8.1,1.4-.1.5-.2,1,0,1.2.3.2.7-.1,1.1-.5.5-.3,1-.7,1.3-.5.4.2.2.8.1,1.4-.1.5-.2,1,0,1.2.3.2.7-.1,1.1-.5.5-.3,1-.7,1.3-.5.4.2.2.8.1,1.4-.1.5-.2,1,0,1.2.3.2.7-.1,1.1-.5.5-.3,1-.7,1.3-.5.4.2.2.8.1,1.4-.1.5-.2,1,0,1.2.3.2.7-.1,1.1-.5.5-.3,1-.7,1.3-.5.4.2.2.8.1,1.4-.1.5-.2,1,0,1.2.3.2.7-.1,1.1-.5.5-.3,1-.7,1.3-.5.4.2.2.8.1,1.4-.1.5-.2,1,0,1.2Z" fill="#1e1e1e"/>
        <path id="パス_18065" data-name="パス 18065" d="M46.2,116.4c-.4,0-.7-.5-.9-1-.3-.5-.5-.9-.9-.9v-.2c.4-.1.7.4,1,.9.2.4.5.9.8.9h.1c.3-.1.4-.6.5-1.1.1-.6.2-1.2.6-1.3h.1c.4,0,.7.5.9,1,.3.5.5.9.9.9.3-.1.4-.6.5-1.1.1-.6.2-1.2.6-1.3s.7.4,1,.9.5.9.9.9c.3-.1.4-.6.5-1.1.1-.6.2-1.2.6-1.3s.7.4,1,.9.5.9.9.9c.3-.1.4-.6.5-1.1.1-.6.2-1.2.6-1.3s.7.4,1,.9.5.9.9.9c.3-.1.4-.6.5-1.1.1-.6.2-1.2.6-1.3s.7.4,1,.9.5.9.9.9c.3-.1.4-.6.5-1.1.1-.6.2-1.2.6-1.3s.7.4,1,.9.5.9.9.9c.3-.1.4-.6.5-1.1.1-.6.2-1.2.6-1.3s.7.4,1,.9.5.9.9.9c.3-.1.4-.6.5-1.1.1-.6.2-1.2.6-1.3s.7.4,1,.9.5.9.9.9c.3-.1.4-.6.5-1.1.1-.6.2-1.2.6-1.3s.7.4,1,.9.5.9.9.9v.2c-.4.1-.7-.4-1-.9s-.5-.9-.9-.9c-.3.1-.4.6-.5,1.1-.1.6-.2,1.2-.6,1.3s-.7-.4-1-.9-.5-.9-.9-.9c-.3.1-.4.6-.5,1.1-.1.6-.2,1.2-.6,1.3s-.7-.4-1-.9-.5-.9-.9-.9c-.3.1-.4.6-.5,1.1-.1.6-.2,1.2-.6,1.3s-.7-.4-1-.9-.5-.9-.9-.9c-.3.1-.4.6-.5,1.1-.1.6-.2,1.2-.6,1.3s-.7-.4-1-.9-.5-.9-.9-.9c-.3.1-.4.6-.5,1.1-.1.6-.2,1.2-.6,1.3s-.7-.4-1-.9-.5-.9-.9-.9c-.3.1-.4.6-.5,1.1-.1.6-.2,1.2-.6,1.3s-.7-.4-1-.9-.5-.9-.9-.9c-.3.1-.4.6-.5,1.1-.1.6-.2,1.2-.6,1.3s-.7-.4-1-.9c-.3-.4-.5-.9-.9-.9-.3.1-.4.6-.5,1.1-.1.6-.2,1.2-.6,1.3s-.7-.4-1-.9-.5-.9-.9-.9c-.3.1-.4.6-.5,1.1,0,.6-.1,1.2-.7,1.3Z" fill="#1e1e1e"/>
        <path id="パス_18066" data-name="パス 18066" d="M.8,154.2l-.1-.1c.3-.4,0-.9-.3-1.4s-.6-1.1-.2-1.6c.3-.5,1-.4,1.6-.4.6.1,1.1.1,1.4-.3s0-.9-.3-1.4-.6-1.1-.2-1.6c.3-.5,1-.4,1.6-.4.6.1,1.1.1,1.4-.3s0-.9-.3-1.4-.6-1.1-.2-1.6c.3-.5,1-.4,1.6-.4.6.1,1.1.1,1.4-.3s0-.9-.3-1.4-.6-1.1-.2-1.6c.3-.5,1-.4,1.6-.4.6.1,1.1.1,1.4-.3s0-.9-.3-1.4-.6-1.1-.2-1.6c.3-.5,1-.4,1.6-.4.6.1,1.1.1,1.4-.3s0-.9-.3-1.4-.6-1.1-.2-1.6c.3-.5,1-.4,1.6-.4.6.1,1.1.1,1.4-.3s0-.9-.3-1.4-.6-1.1-.2-1.6c.3-.5,1-.4,1.6-.4.6.1,1.1.1,1.4-.3s0-.9-.3-1.4-.6-1.1-.2-1.6c.3-.5,1-.4,1.6-.4.6.1,1.1.1,1.4-.3s0-.9-.3-1.4-.6-1.1-.2-1.6c.3-.5,1-.4,1.6-.4.6.1,1.1.1,1.4-.3s0-1-.2-1.5c-.3-.6-.6-1.3-.1-1.7a.349.349,0,0,1,.2-.1q.3,0,.9.9c.3.4.6.9.8.9h0c.2,0,.2-.6.2-1,0-.6.1-1.2.4-1.2h0c.3,0,.5.5.7,1,.2.4.4.9.5.9h0c.2,0,.2-.6.2-1,0-.6.1-1.2.4-1.2.3-.1.5.4.7,1,.2.4.4.9.5.9h0c.2,0,.2-.6.2-1,0-.6.1-1.2.4-1.2.3-.1.5.4.7,1,.2.4.4.9.5.9.2,0,.2-.6.2-1,0-.6.1-1.2.4-1.2.3-.1.5.4.7,1,.2.4.4.9.5.9.2,0,.2-.6.2-1,0-.6.1-1.2.4-1.2s.5.4.7,1c.2.4.4.9.5.9h0c.2,0,.2-.6.2-1,0-.6.1-1.2.4-1.2s.5.4.7,1c.2.4.4.9.5.9h0c.2,0,.2-.6.2-1,0-.6.1-1.2.4-1.2.3-.1.5.4.7,1,.2.4.4.9.5.9.2,0,.2-.6.2-1,0-.6.1-1.2.4-1.2s.5.4.7,1c.2.4.4.9.5.9h0c.2,0,.2-.6.2-1,0-.6.1-1.1.4-1.2s.5.4.7,1c.2.4.4.9.5.9h0v.2c-.3.1-.5-.4-.7-1-.2-.4-.4-.9-.5-.9-.2,0-.2.6-.2,1,0,.6-.1,1.2-.4,1.2h0c-.3,0-.5-.5-.7-1-.2-.4-.4-.9-.5-.9-.2,0-.2.6-.2,1,0,.6-.1,1.2-.4,1.2-.3.1-.5-.4-.7-1-.2-.4-.4-.9-.5-.9h0c-.2,0-.2.6-.2,1,0,.6-.1,1.1-.4,1.2s-.5-.4-.7-1c-.2-.4-.4-.9-.5-.9h0c-.2,0-.2.6-.2,1,0,.6-.1,1.2-.4,1.2s-.5-.5-.7-1c-.2-.4-.4-.9-.5-.9h0c-.2,0-.2.6-.2,1,0,.6-.1,1.2-.4,1.2h0c-.3,0-.5-.5-.7-1-.2-.4-.4-.9-.5-.9h0c-.2,0-.2.6-.2,1,0,.6-.1,1.2-.4,1.2-.3.1-.5-.4-.7-1-.2-.4-.4-.9-.5-.9h0c-.2,0-.2.6-.2,1,0,.6-.1,1.2-.4,1.2-.3.1-.5-.4-.7-1-.2-.4-.4-.9-.5-.9-.2,0-.2.6-.2,1,0,.6-.1,1.2-.4,1.2h0c-.3,0-.5-.5-.7-1-.2-.4-.4-.9-.5-.9h0c-.2,0-.2.6-.2,1,0,.6-.1,1.2-.4,1.2s-.6-.4-1-.9c-.3-.3-.6-.8-.7-.8h0c-.4.4-.1.9.1,1.5a1.773,1.773,0,0,1,.2,1.7c-.3.5-1,.4-1.6.4-.6-.1-1.1-.1-1.4.3s0,.9.3,1.4.6,1.1.2,1.6c-.3.5-1,.4-1.6.4-.6-.1-1.1-.1-1.4.3s0,.9.3,1.4.6,1.1.2,1.6c-.3.5-1,.4-1.6.4-.6-.1-1.1-.1-1.4.3s0,.9.3,1.4.6,1.1.2,1.6c-.3.5-1,.4-1.6.4-.6-.1-1.1-.1-1.4.3s0,.9.3,1.4.6,1.1.2,1.6c-.3.5-1,.4-1.6.4-.6-.1-1.1-.1-1.4.3s0,.9.3,1.4.6,1.1.2,1.6c-.3.5-1,.4-1.6.4-.6-.1-1.1-.1-1.4.3s0,.9.3,1.4.6,1.1.2,1.6c-.3.5-1,.4-1.6.4-.6-.1-1.1-.1-1.4.3s0,.9.3,1.4.6,1.1.2,1.6c-.3.5-1,.4-1.6.4-.6-.1-1.1-.1-1.4.3s0,.9.3,1.4.6,1.1.2,1.6c-.3.5-1,.4-1.6.4-.6-.1-1.1-.1-1.4.3s0,.9.2,1.4S1.1,153.7.8,154.2Z" fill="#1e1e1e"/>
        <path id="パス_18067" data-name="パス 18067" d="M30.9,138.4c-.2,0-.5-.1-.8-.1-.5-.1-1-.2-1.2,0l-.2-.1c.2-.4.8-.2,1.4-.1.5.1,1,.2,1.2,0,.1-.2-.2-.6-.6-1s-.8-.9-.6-1.2c.2-.4.8-.2,1.4-.1.5.1,1,.2,1.2,0,.1-.2-.2-.6-.6-1s-.8-.9-.6-1.2c.2-.4.8-.2,1.4-.1.5.1,1,.2,1.2,0,.1-.2-.2-.6-.6-1s-.8-.9-.6-1.2c.2-.4.8-.2,1.4-.1.5.1,1,.2,1.2,0,.1-.2-.2-.6-.6-1s-.8-.9-.6-1.2c.2-.4.8-.2,1.4-.1.5.1,1,.2,1.2,0,.1-.2-.2-.6-.6-1s-.8-.9-.6-1.2c.2-.4.8-.2,1.4-.1.5.1,1,.2,1.2,0,.1-.2-.2-.6-.6-1s-.8-.9-.6-1.2c.2-.4.8-.2,1.4-.1.5.1,1,.2,1.2,0,.1-.2-.2-.6-.6-1s-.8-.9-.6-1.2c.2-.4.8-.2,1.4-.1.5.1,1,.2,1.2,0,.1-.2-.2-.6-.6-1s-.8-.9-.6-1.2c.2-.4.8-.2,1.4-.1.5.1,1,.2,1.2,0,.1-.2-.2-.6-.6-1s-.8-.9-.6-1.2c.2-.4.8-.2,1.4-.1.5.1,1,.2,1.2,0l.2.1c-.2.4-.8.2-1.4.1-.5-.1-1-.2-1.2,0-.1.2.2.6.6,1s.8.9.6,1.2c-.2.4-.8.2-1.4.1-.5-.1-1-.2-1.2,0-.1.2.2.6.6,1s.8.9.6,1.2c-.2.4-.8.2-1.4.1-.5-.1-1-.2-1.2,0-.1.2.2.6.6,1s.8.9.6,1.2c-.2.4-.8.2-1.4.1-.5-.1-1-.2-1.2,0-.1.2.2.6.6,1s.8.9.6,1.2c-.2.4-.8.2-1.4.1-.5-.1-1-.2-1.2,0-.1.2.2.6.6,1s.8.9.6,1.2c-.2.4-.8.2-1.4.1-.5-.1-1-.2-1.2,0-.1.2.2.6.6,1s.8.9.6,1.2c-.2.4-.8.2-1.4.1-.5-.1-1-.2-1.2,0-.1.2.2.6.6,1s.8.9.6,1.2c-.2.4-.8.2-1.4.1-.5-.1-1-.2-1.2,0-.1.2.2.6.6,1s.8.9.6,1.2c-.2.4-.8.2-1.4.1-.5-.1-1-.2-1.2,0-.1.2.2.6.6,1s.8.9.6,1.2A1.421,1.421,0,0,1,30.9,138.4Z" fill="#1e1e1e"/>
        <path id="パス_18068" data-name="パス 18068" d="M45,114.1a2.112,2.112,0,0,1-1-.4c-.4-.3-.9-.5-1.1-.3l-.1-.1c.3-.3.8,0,1.3.3.4.3.9.5,1.1.3s0-.7-.2-1.2-.5-1.1-.2-1.4.8,0,1.3.3c.4.3.9.5,1.1.3s0-.7-.2-1.2-.5-1.1-.2-1.4.8,0,1.3.3c.4.3.9.5,1.1.3s0-.7-.2-1.2-.5-1.1-.2-1.4.8,0,1.3.3c.4.3.9.5,1.1.3s0-.7-.2-1.2-.5-1.1-.2-1.4.8,0,1.3.3c.4.3.9.5,1.1.3s0-.7-.2-1.1c-.2-.5-.5-1.1-.2-1.4s.8,0,1.3.3c.4.3.9.5,1.1.3s0-.7-.2-1.2-.5-1.1-.2-1.4.8,0,1.3.3c.4.3.9.5,1.1.3s0-.7-.2-1.1c-.2-.5-.5-1.1-.2-1.4s.8,0,1.3.3c.4.3.9.5,1.1.3s0-.7-.2-1.2-.5-1.1-.2-1.4.8,0,1.3.3c.4.3.9.5,1.1.3s0-.7-.2-1.2-.5-1.1-.2-1.4.8,0,1.3.3c.4.3.9.5,1.1.3l.1.1c-.3.3-.8,0-1.3-.3-.4-.3-.9-.5-1.1-.3s0,.7.2,1.2.5,1.1.2,1.4-.8,0-1.3-.3c-.4-.3-.9-.5-1.1-.3s0,.7.2,1.2.5,1.1.2,1.4-.8,0-1.3-.3c-.4-.3-.9-.5-1.1-.3s0,.7.2,1.2.5,1.1.2,1.4-.8,0-1.3-.3c-.4-.3-.9-.5-1.1-.3s0,.7.2,1.2.5,1.1.2,1.4-.8,0-1.3-.3c-.4-.3-.9-.5-1.1-.3s0,.7.2,1.2.5,1.1.2,1.4-.8,0-1.3-.3c-.4-.3-.9-.5-1.1-.3s0,.7.2,1.2.5,1.1.2,1.4-.8,0-1.3-.3c-.4-.3-.9-.5-1.1-.3s0,.7.2,1.2.5,1.1.2,1.4-.8,0-1.3-.3c-.4-.3-.9-.5-1.1-.3s0,.7.2,1.2.5,1.1.2,1.4-.8,0-1.3-.3c-.4-.3-.9-.5-1.1-.3s0,.7.2,1.2.5,1.1.2,1.4C45.3,114.1,45.2,114.1,45,114.1Z" fill="#1e1e1e"/>
      </g>
    </g>
    <g id="グループ_2231" data-name="グループ 2231" transform="translate(1091.95 981.308)">
      <g id="グループ_2230" data-name="グループ 2230" clip-path="url(#clip-path-2)">
        <path id="パス_18069" data-name="パス 18069" d="M59.7,109.1a1.854,1.854,0,0,1,.2.7l2.3-.1c-.1-.4-.2-.8-.3-1.1Z"/>
        <path id="パス_18070" data-name="パス 18070" d="M42.3,95.8a5.019,5.019,0,0,0-1.2.2l.1,2.3c.3,0,.5-.1.8-.1Z"/>
        <path id="パス_18071" data-name="パス 18071" d="M26.9,106.7l2,1.1c.2-.4.4-.8.6-1.3L27.7,105C27.4,105.6,27.1,106.2,26.9,106.7Z"/>
        <path id="パス_18072" data-name="パス 18072" d="M60.6,113.4l2.3.4c0-.6-.1-1.1-.1-1.7l-2.3.1C60.5,112.6,60.6,113,60.6,113.4Z"/>
        <path id="パス_18073" data-name="パス 18073" d="M27.4,116.2l-2.3-.3c0,.4.1.9.1,1.3l2.3-.2A2.485,2.485,0,0,0,27.4,116.2Z"/>
        <path id="パス_18074" data-name="パス 18074" d="M27.5,112.8l-2.2-.7a7.569,7.569,0,0,0-.1,1.5l2.3.3A2.054,2.054,0,0,1,27.5,112.8Z"/>
        <path id="パス_18075" data-name="パス 18075" d="M35.1,100.6c.3-.2.7-.4,1-.6l-.6-2.3a6.376,6.376,0,0,0-1.4.8Z"/>
        <path id="パス_18076" data-name="パス 18076" d="M32.4,102.7c.3-.3.7-.6,1-.9l-1-2.1a17.412,17.412,0,0,0-1.4,1.2Z"/>
        <path id="パス_18077" data-name="パス 18077" d="M38.1,99.1c.3-.1.5-.2.8-.3l-.1-2.4c-.4.1-.8.3-1.2.4Z"/>
        <path id="パス_18078" data-name="パス 18078" d="M30.4,105.1c.3-.4.5-.7.8-1.1l-1.4-1.8-1.2,1.5Z"/>
        <path id="パス_18079" data-name="パス 18079" d="M58.2,106c.1.2.3.5.4.7l2.3-.5a10.908,10.908,0,0,0-.6-1.1Z"/>
        <path id="パス_18080" data-name="パス 18080" d="M28.2,109.6l-2-1.1c-.2.5-.3,1.1-.5,1.6l2.2.7A2.663,2.663,0,0,1,28.2,109.6Z"/>
        <path id="パス_18081" data-name="パス 18081" d="M50.9,99.5a4.876,4.876,0,0,0,.7.3l1.6-1.7a3.7,3.7,0,0,0-1.1-.5Z"/>
        <path id="パス_18082" data-name="パス 18082" d="M59.7,120.3l2,1.3c.2-.6.4-1.2.6-1.9l-2.2-.8A10.26,10.26,0,0,1,59.7,120.3Z"/>
        <path id="パス_18083" data-name="パス 18083" d="M59,121.9c-.3.5-.5,1-.8,1.5l1.7,1.6a18.575,18.575,0,0,0,1.1-1.9Z"/>
        <path id="パス_18084" data-name="パス 18084" d="M60.5,116.9l2.2.8a9.853,9.853,0,0,0,.2-1.7l-2.3-.4A5.283,5.283,0,0,1,60.5,116.9Z"/>
        <path id="パス_18085" data-name="パス 18085" d="M57.2,124.8a12.667,12.667,0,0,1-1.1,1.3l1.3,1.9a20.024,20.024,0,0,0,1.4-1.6Z"/>
        <path id="パス_18086" data-name="パス 18086" d="M48.7,130.7a16.676,16.676,0,0,1-20.6-11.2l-2.3.2a17.645,17.645,0,0,0,4.9,8.4,18.858,18.858,0,0,0,18.5,4.8Z"/>
        <path id="パス_18087" data-name="パス 18087" d="M51.9,129.4l-1.2.6.5,2.3c.5-.2,1.1-.5,1.6-.7Z"/>
        <path id="パス_18088" data-name="パス 18088" d="M53.9,101.3a1.756,1.756,0,0,1,.5.4l1.9-1.4c-.3-.2-.6-.5-.9-.7Z"/>
        <path id="パス_18089" data-name="パス 18089" d="M54.8,127.4l-1.2.9.9,2.2c.5-.4,1-.7,1.5-1.1Z"/>
        <path id="パス_18090" data-name="パス 18090" d="M48,98.5c.1,0,.2.1.3.1l1.2-2c-.3-.1-.5-.1-.8-.2Z"/>
        <path id="パス_18091" data-name="パス 18091" d="M44.7,98h.4l.8-2.2H45Z"/>
        <path id="パス_18092" data-name="パス 18092" d="M56.3,103.4l.4.4,2.2-1a5.008,5.008,0,0,0-.7-.8Z"/>
      </g>
    </g>
    <path id="パス_18094" data-name="パス 18094" d="M53.9,33.1a2.6,2.6,0,1,1,2.6-2.6,2.647,2.647,0,0,1-2.6,2.6m.4-9.4a3.978,3.978,0,0,1-2.2-.9c-2.6-2.4-5.1-5-7.5-7.6a3.166,3.166,0,0,1-.7-2.3A9.492,9.492,0,0,0,39.3,3a8.329,8.329,0,0,0-8.1-.1,43.059,43.059,0,0,0,3.7,3.7c1.6,1.6,1.7,3.4.2,4.9a3.242,3.242,0,0,1-4.7-.2c-1.3-1.2-2.4-2.6-3.8-4-2.7,6.3,1.4,13.2,7.7,12.9a8.166,8.166,0,0,1,7.4,3.4,38.533,38.533,0,0,0,3.5,3.5,6.68,6.68,0,0,1,2.4,4.4c.4,3.5,3.6,5.7,7.3,5.3a6.55,6.55,0,0,0,5.7-6.7,6.708,6.708,0,0,0-6.3-6.4" transform="translate(1091.95 981.308)"/>
    <g id="グループ_2232" data-name="グループ 2232" transform="translate(756.95 1184.308)">
      <path id="パス_18095" data-name="パス 18095" d="M362.8,37.5c-4,0-5.7-2.8-3.7-6.3L374.4,4.7c2-3.5,5.3-3.5,7.4,0L397,31.2c2,3.5.4,6.3-3.7,6.3Z" fill="#fff" stroke="#d64850" stroke-miterlimit="10" stroke-width="4.148"/>
      <path id="パス_18096" data-name="パス 18096" d="M370.2,24.2a12.825,12.825,0,0,1-1.5-1s.1-.5.2-.5h2.2c-.1.2,0,0,.1-.1.5-2.8,2.2-3.6,4.9-3.3a27.828,27.828,0,0,0,5,0,1.648,1.648,0,0,1,2,1.4,14.463,14.463,0,0,0,.9,2.2c.7-.1,1.4-.2,2-.3.1,0,.3.5.3.6-.4.3-.9.6-1.4,1,1.9,1.4.9,3.5.8,5.3a1.512,1.512,0,0,1-1.2,1.1c-4.7.1-9.3,0-14,.1a1.162,1.162,0,0,1-1.3-1.3c.1-1.8-.9-3.8,1-5.2m1.5-.4h11.7c-.9-3.5-.9-3.5-4.2-3.5h-2.8c-3.5,0-3.5,0-4.7,3.2q-.15,0,0,.3m2.4,2.4c.4,3.3.8,3.5,4.9,3.2,1.2-.1,1.8-1.2,1.8-3.2Zm11.1.1c-.7-.4-1-.8-1.4-.8-.4.1-.6.5-1,.8.4.3.7.8,1.1.8.3.2.7-.3,1.3-.8m-12.7,0c-.7-.4-1-.8-1.4-.8s-.6.5-1,.8c.4.3.7.8,1.1.9.3.1.7-.4,1.3-.9" fill="#252424" fill-rule="evenodd"/>
      <path id="パス_18097" data-name="パス 18097" d="M369.5,31.3h3.1a9.011,9.011,0,0,1-.2,1.3,5.451,5.451,0,0,1-2.2.1c-.3,0-.4-.8-.7-1.4" fill="#252424" fill-rule="evenodd"/>
      <path id="パス_18098" data-name="パス 18098" d="M382.3,31.3h3.1c-.1.5-.1,1.2-.3,1.3a5.863,5.863,0,0,1-2.3.1c-.2,0-.3-.8-.5-1.4" fill="#252424" fill-rule="evenodd"/>
    </g>
    <g id="グループ_2251" data-name="グループ 2251" transform="translate(756.95 1184.308)">
      <g id="グループ_2233" data-name="グループ 2233">
        <path id="パス_18099" data-name="パス 18099" d="M376.7,139.5l-18.6,10,18.3-10.6Z" fill="#adadad"/>
      </g>
      <g id="グループ_2234" data-name="グループ 2234">
        <path id="パス_18100" data-name="パス 18100" d="M377.3,137.6,361.6,146l15.5-8.7Z" fill="#adadad"/>
      </g>
      <g id="グループ_2235" data-name="グループ 2235">
        <path id="パス_18101" data-name="パス 18101" d="M381,133.4l-26.1,14.5,25.7-15.1Z" fill="#adadad"/>
      </g>
      <g id="グループ_2236" data-name="グループ 2236">
        <path id="パス_18102" data-name="パス 18102" d="M383.2,129.4l-24.8,13.8,24.5-14.4Z" fill="#adadad"/>
      </g>
      <g id="グループ_2237" data-name="グループ 2237">
        <path id="パス_18103" data-name="パス 18103" d="M384.6,125.2l-23,12.7,22.7-13.3Z" fill="#adadad"/>
      </g>
      <g id="グループ_2238" data-name="グループ 2238">
        <path id="パス_18104" data-name="パス 18104" d="M379.5,126.9l-24.6,13.8,24.5-13.9Z" fill="#adadad"/>
      </g>
      <g id="グループ_2239" data-name="グループ 2239">
        <path id="パス_18105" data-name="パス 18105" d="M385.1,138.2l-18.4,10.6,18.4-10.7Z" fill="#adadad"/>
      </g>
      <g id="グループ_2240" data-name="グループ 2240">
        <path id="パス_18106" data-name="パス 18106" d="M390.7,135.2l-18.4,10.6,18.4-10.7Z" fill="#adadad"/>
      </g>
      <g id="グループ_2241" data-name="グループ 2241">
        <path id="パス_18107" data-name="パス 18107" d="M380.6,136.5l-27.2,14.7,27.1-14.9Z" fill="#adadad"/>
      </g>
      <g id="グループ_2242" data-name="グループ 2242">
        <path id="パス_18108" data-name="パス 18108" d="M371,126.1l-13.5,7.5L371,126Z" fill="#adadad"/>
      </g>
      <g id="グループ_2243" data-name="グループ 2243">
        <path id="パス_18109" data-name="パス 18109" d="M388.3,119.8l-26.1,14.6,25.7-15.1Z" fill="#adadad"/>
      </g>
      <g id="グループ_2244" data-name="グループ 2244">
        <path id="パス_18110" data-name="パス 18110" d="M382.5,120.1l-16.9,9.2,16.6-9.7Z" fill="#adadad"/>
      </g>
      <g id="グループ_2245" data-name="グループ 2245">
        <path id="パス_18111" data-name="パス 18111" d="M376.9,119.7,361,128.4l15.6-9.2Z" fill="#adadad"/>
      </g>
      <g id="グループ_2246" data-name="グループ 2246">
        <path id="パス_18112" data-name="パス 18112" d="M382.6,113.8l-16.7,9.3,16.6-9.6Z" fill="#adadad"/>
      </g>
      <g id="グループ_2247" data-name="グループ 2247">
        <path id="パス_18113" data-name="パス 18113" d="M374.9,116.3l-11.2,6.3,11.1-6.5Z" fill="#adadad"/>
      </g>
      <g id="グループ_2248" data-name="グループ 2248">
        <path id="パス_18114" data-name="パス 18114" d="M378.4,112.5l-11.5,6.3,11.4-6.5Z" fill="#adadad"/>
      </g>
      <g id="グループ_2249" data-name="グループ 2249">
        <path id="パス_18115" data-name="パス 18115" d="M387,135.1l-18.3,10.5,18.2-10.7Z" fill="#adadad"/>
      </g>
      <g id="グループ_2250" data-name="グループ 2250">
        <path id="パス_18116" data-name="パス 18116" d="M391.7,133.2l-18.3,10.5L391.6,133Z" fill="#adadad"/>
      </g>
    </g>
    <g id="グループ_2252" data-name="グループ 2252" transform="translate(1091.95 981.308)">
      <path id="パス_18117" data-name="パス 18117" d="M37.2,107.9a9.758,9.758,0,1,1,0,13.8,9.778,9.778,0,0,1,0-13.8"/>
    </g>
    <g id="グループ_2253" data-name="グループ 2253" transform="translate(1091.95 981.308)">
      <path id="パス_18118" data-name="パス 18118" d="M39.4,112.8l5.3,3.1-4.3,5.4,7.8-5.2-2.7-3.2,3.4-4.9Z" fill="#fff"/>
    </g>
    <g id="グループ_2261" data-name="グループ 2261" transform="translate(756.95 1184.308)">
      <g id="グループ_2255" data-name="グループ 2255">
        <g id="グループ_2254" data-name="グループ 2254" clip-path="url(#clip-path-3)">
          <path id="パス_18119" data-name="パス 18119" d="M387.4,137.4h-.1c-.5,0-.7-.4-.9-.8s-.4-.7-.8-.8c-.4,0-.6.3-.9.6s-.5.7-1,.6a1.22,1.22,0,0,1-.9-.8c-.2-.4-.4-.7-.8-.8-.4,0-.6.3-.9.6s-.5.7-1,.6a1.22,1.22,0,0,1-.9-.8c-.2-.4-.4-.7-.8-.8-.4,0-.6.3-.9.6s-.5.7-1,.6c-.5,0-.7-.4-.9-.8s-.4-.7-.8-.8c-.4,0-.6.3-.9.6s-.5.7-1,.6c-.5,0-.7-.4-.9-.8s-.4-.7-.8-.8c-.4,0-.6.3-.9.6s-.5.7-1,.6a1.22,1.22,0,0,1-.9-.8c-.2-.4-.4-.7-.8-.8-.4,0-.6.3-.9.6s-.5.7-1,.6c-.5,0-.7-.4-.9-.8s-.4-.7-.8-.8c-.4,0-.6.3-.9.6s-.5.7-1,.6a1.22,1.22,0,0,1-.9-.8c-.2-.4-.4-.7-.8-.8-.4,0-.6.3-.9.6s-.5.7-1,.6c-.5,0-.7-.4-.9-.8s-.4-.7-.8-.8c-.4,0-.6.3-.9.6s-.5.7-1,.6v-.1c.4,0,.6-.3.9-.6s.5-.7,1-.6c.5,0,.7.4.9.8s.4.7.8.8c.4,0,.6-.3.9-.6s.5-.7,1-.6c.5,0,.7.4.9.8s.4.7.8.8c.4,0,.6-.3.9-.6s.5-.7,1-.6c.5,0,.7.4.9.8s.4.7.8.8c.4,0,.6-.3.9-.6s.5-.7,1-.6a1.22,1.22,0,0,1,.9.8c.2.4.4.7.8.8.4,0,.6-.3.9-.6s.5-.7,1-.6c.5,0,.7.4.9.8s.4.7.8.8c.4,0,.6-.3.9-.6s.5-.7,1-.6c.5,0,.7.4.9.8s.4.7.8.8c.4,0,.6-.3.9-.6s.5-.7,1-.6c.5,0,.7.4.9.8s.4.7.8.8c.4,0,.6-.3.9-.6s.5-.7,1-.6c.5,0,.7.4.9.8s.4.7.8.8c.4,0,.6-.3.9-.6s.5-.7,1-.6c.5,0,.7.4.9.8s.4.7.8.8a.891.891,0,0,0,.8-.5,1.387,1.387,0,0,1,.8-.7h.6V136c0-.1-.4,0-.7,0-.4.1-.8.2-.8,0-.1-.2.2-.4.5-.7.2-.2.5-.4.5-.5s-.4,0-.7,0c-.4.1-.8.2-.8,0-.1-.2.2-.4.5-.7.2-.2.5-.4.5-.5s-.4,0-.7,0c-.4.1-.8.2-.8,0-.1-.2.2-.4.5-.7.2-.2.5-.4.5-.5s-.4,0-.7,0c-.4.1-.8.2-.8,0-.1-.2.2-.4.5-.7.2-.2.5-.4.5-.5s-.4,0-.7,0c-.4.1-.8.2-.8,0-.1-.2.2-.4.5-.7.2-.2.5-.4.5-.5s-.4,0-.7,0c-.4.1-.8.2-.8,0-.1-.2.2-.4.5-.7.2-.2.5-.4.5-.5s-.4,0-.7,0c-.4.1-.8.2-.8,0-.1-.2.2-.4.5-.7.2-.2.5-.4.5-.5s-.4,0-.7,0c-.4.1-.8.2-.8,0-.1-.2.2-.4.5-.7.2-.2.5-.4.5-.5s-.4,0-.7,0c-.4.1-.8.2-.8,0-.1-.2.2-.4.5-.7.2-.2.5-.4.5-.5h.1c.1.2-.2.4-.5.7-.2.2-.5.4-.5.5s.4,0,.7,0c.4-.1.8-.2.8,0,.1.2-.2.4-.5.7-.2.2-.5.4-.5.5s.4,0,.7,0c.4-.1.8-.2.8,0,.1.2-.2.4-.5.7-.2.2-.5.4-.5.5s.4,0,.7,0c.4-.1.8-.2.8,0,.1.2-.2.4-.5.7-.2.2-.5.4-.5.5s.4,0,.7,0c.4-.1.8-.2.8,0,.1.2-.2.4-.5.7-.2.2-.5.4-.5.5s.4,0,.7,0c.4-.1.8-.2.8,0,.1.2-.2.4-.5.7-.2.2-.5.4-.5.5s.4,0,.7,0c.4-.1.8-.2.8,0,.1.2-.2.4-.5.7-.2.2-.5.4-.5.5s.4,0,.7,0c.4-.1.8-.2.8,0,.1.2-.2.4-.5.7-.2.2-.5.4-.5.5s.4,0,.7,0c.4-.1.8-.2.8,0,.1.2-.2.4-.5.7-.2.2-.5.4-.5.5s.4,0,.7,0c.4-.1.8-.2.8,0,0,.1.1.1,0,.2,0,.1-.2.1-.3.1H389a1.079,1.079,0,0,0-.7.6C388,137.1,387.8,137.4,387.4,137.4Z" fill="#212121"/>
          <path id="パス_18120" data-name="パス 18120" d="M364.6,145.1h-.1c.1-.4-.2-.6-.5-.9s-.6-.6-.5-1,.5-.5.9-.7c.4-.1.8-.2.9-.6s-.2-.6-.5-.9-.6-.6-.5-1,.5-.5.9-.7c.4-.1.8-.2.9-.6s-.2-.6-.5-.9-.6-.6-.5-1,.5-.5.9-.7c.4-.1.8-.2.9-.6s-.2-.6-.5-.9-.6-.6-.5-1,.5-.5.9-.7c.4-.1.8-.2.9-.6s-.2-.6-.5-.9-.6-.6-.5-1,.5-.5.9-.7c.4-.1.8-.2.9-.6s-.2-.6-.5-.9-.6-.6-.5-1,.5-.5.9-.7c.4-.1.8-.2.9-.6s-.2-.6-.5-.9-.6-.6-.5-1,.5-.5.9-.7c.4-.1.8-.2.9-.6s-.2-.6-.5-.9-.6-.6-.5-1,.5-.5.9-.7c.4-.1.8-.2.9-.6s-.2-.6-.5-.9-.6-.6-.5-1,.5-.5.9-.7c.4-.1.8-.2.9-.6.1-.3-.2-.7-.5-1.1s-.6-.8-.3-1.2l.1-.1c.1,0,.2.3.3.7a3.387,3.387,0,0,0,.3.8c.1.1.4-.1.7-.3s.6-.5.8-.3c.2.1.1.5-.1.9-.1.3-.3.6-.1.7.1.1.4-.1.7-.3s.6-.5.8-.3c.2.1.1.5-.1.9-.1.3-.3.6-.1.7.1.1.4-.1.7-.3s.6-.5.8-.3c.2.1.1.5-.1.9-.1.3-.3.6-.1.7.1.1.4-.1.7-.3s.6-.5.8-.3c.2.1.1.5-.1.9-.1.3-.3.6-.1.7.1.1.4-.1.7-.3s.6-.5.8-.3c.2.1.1.5-.1.9-.1.3-.3.6-.1.7.1.1.4-.1.7-.3s.6-.5.8-.3c.2.1.1.5-.1.9-.1.3-.3.6-.1.7.1.1.4-.1.7-.3s.6-.5.8-.3c.2.1.1.5-.1.9-.1.3-.3.6-.1.7.1.1.4-.1.7-.3s.6-.5.8-.3c.2.1.1.5-.1.9-.1.3-.3.6-.1.7.1.1.4-.1.7-.3s.6-.5.8-.3c.2.1.1.5-.1.9-.1.3-.3.6-.1.7l-.1.1c-.2-.1-.1-.5.1-.9.1-.3.3-.6.1-.7-.1-.1-.4.1-.7.3s-.6.5-.8.3c-.2-.1-.1-.5.1-.9.1-.3.3-.6.1-.7-.1-.1-.4.1-.7.3s-.6.5-.8.3c-.2-.1-.1-.5.1-.9.1-.3.3-.6.1-.7-.1-.1-.4.1-.7.3s-.6.5-.8.3c-.2-.1-.1-.5.1-.9.1-.3.3-.6.1-.7-.1-.1-.4.1-.7.3s-.6.5-.8.3c-.2-.1-.1-.5.1-.9.1-.3.3-.6.1-.7-.1-.1-.4.1-.7.3s-.6.5-.8.3c-.2-.1-.1-.5.1-.9.1-.3.3-.6.1-.7-.1-.1-.4.1-.7.3s-.6.5-.8.3c-.2-.1-.1-.5.1-.9.1-.3.3-.6.1-.7-.1-.1-.4.1-.7.3s-.6.5-.8.3c-.2-.1-.1-.5.1-.9.1-.3.3-.6.1-.7-.1-.1-.4.1-.7.3s-.6.5-.8.3c-.2-.1-.1-.5.1-.9.1-.3.3-.6.1-.7-.1-.1-.4.1-.7.3s-.6.5-.8.3a.878.878,0,0,1,.1.7c-.1.4-.5.5-.9.7-.4.1-.8.2-.9.6s.2.6.5.9.6.6.5,1-.5.5-.9.7c-.4.1-.8.2-.9.6s.2.6.5.9.6.6.5,1-.5.5-.9.7c-.4.1-.8.2-.9.6s.2.6.5.9.6.6.5,1-.5.5-.9.7c-.4.1-.8.2-.9.6s.2.6.5.9.6.6.5,1-.5.5-.9.7c-.4.1-.8.2-.9.6s.2.6.5.9.6.6.5,1-.5.5-.9.7c-.4.1-.8.2-.9.6s.2.6.5.9.6.6.5,1-.5.5-.9.7c-.4.1-.8.2-.9.6s.2.6.5.9.6.6.5,1-.5.5-.9.7c-.4.1-.8.2-.9.6s.2.6.5.9.6.6.5,1-.5.5-.9.7c-.4.1-.8.2-.9.6s.2.6.5.9C364.4,144.3,364.7,144.6,364.6,145.1Zm6.7-30.9h0c-.3.3,0,.6.3,1.1,0,.1.1.1.1.2-.1-.2-.1-.4-.2-.6C371.5,114.6,371.4,114.2,371.3,114.2Z" fill="#212121"/>
          <path id="パス_18121" data-name="パス 18121" d="M383.8,124.2c0-.3.3-.4.7-.6.3-.1.6-.3.6-.4,0-.2-.4-.2-.7-.3-.4-.1-.8-.1-.8-.4s.3-.4.7-.6c.3-.1.6-.3.6-.4,0-.2-.4-.2-.7-.3-.4-.1-.8-.1-.8-.4s.3-.4.7-.6c.3-.1.6-.3.6-.4,0-.2-.4-.2-.7-.3-.4-.1-.8-.1-.8-.4s.3-.4.7-.6c.3-.1.6-.3.6-.4,0-.2-.4-.2-.7-.3-.4-.1-.8-.1-.8-.4s.3-.4.7-.6c.3-.1.6-.3.6-.4,0-.2-.4-.2-.7-.3-.4-.1-.8-.1-.8-.4s.3-.4.7-.6c.3-.1.6-.3.6-.4,0-.2-.4-.2-.7-.3-.4-.1-.8-.1-.8-.4s.3-.4.7-.6c.3-.1.6-.3.6-.4,0-.2-.4-.2-.7-.3-.4-.1-.8-.1-.8-.4s.3-.4.7-.6c.3-.1.6-.3.6-.4,0-.2-.4-.2-.7-.3-.4-.1-.8-.1-.8-.4s.3-.4.7-.6c.3-.1.6-.3.6-.4,0-.2-.4-.2-.7-.3-.4-.1-.8-.1-.8-.4s.3-.4.7-.6c.3-.1.6-.3.6-.4h.1c0,.3-.3.4-.7.6-.3.1-.6.3-.6.4,0,.2.4.2.7.3.4.1.8.1.8.4s-.3.4-.7.6c-.3.1-.6.3-.6.4,0,.2.4.2.7.3.4.1.8.1.8.4s-.3.4-.7.6c-.3.1-.6.3-.6.4,0,.2.4.2.7.3.4.1.8.1.8.4s-.3.4-.7.6c-.3.1-.6.3-.6.4,0,.2.4.2.7.3.4.1.8.1.8.4s-.3.4-.7.6c-.3.1-.6.3-.6.4,0,.2.4.2.7.3.4.1.8.1.8.4s-.3.4-.7.6c-.3.1-.6.3-.6.4,0,.2.4.2.7.3.4.1.8.1.8.4s-.3.4-.7.6c-.3.1-.6.3-.6.4,0,.2.4.2.7.3.4.1.8.1.8.4s-.3.4-.7.6c-.3.1-.6.3-.6.4,0,.2.4.2.7.3.4.1.8.1.8.4s-.3.4-.7.6c-.3.1-.6.3-.6.4,0,.2.4.2.7.3.4.1.8.1.8.4s-.3.4-.7.6c-.3.1-.6.3-.6.4Z" fill="#212121"/>
          <path id="パス_18122" data-name="パス 18122" d="M400.6,135.6c-.3-.2-.2-.6-.1-.9s.2-.7,0-.8-.5.1-.8.3-.6.5-.9.3-.2-.6-.1-.9.2-.7,0-.8-.5.1-.8.3-.6.5-.9.3-.2-.6-.1-.9.2-.7,0-.8-.5.1-.8.3-.6.5-.9.3-.2-.6-.1-.9.2-.7,0-.8-.5.1-.8.3-.6.5-.9.3-.2-.6-.1-.9.2-.7,0-.8-.5.1-.8.3-.6.5-.9.3-.2-.6-.1-.9.2-.7,0-.8-.5.1-.8.3-.6.5-.9.3-.2-.6-.1-.9.2-.7,0-.8-.5.1-.8.3-.6.5-.9.3-.2-.6-.1-.9.2-.7,0-.8-.5.1-.8.3-.6.5-.9.3-.2-.6-.1-.9.2-.7,0-.8-.5.1-.8.3-.6.5-.9.3a.94.94,0,0,1-.1-.9c.1-.3.2-.7,0-.8l.1-.1c.3.2.2.6.1.9s-.2.7,0,.8.5-.1.8-.3.6-.5.9-.3a.94.94,0,0,1,.1.9c-.1.3-.2.7,0,.8s.5-.1.8-.3.6-.5.9-.3.2.6.1.9-.2.7,0,.8.5-.1.8-.3.6-.5.9-.3a.94.94,0,0,1,.1.9c-.1.3-.2.7,0,.8s.5-.1.8-.3.6-.5.9-.3.2.6.1.9-.2.7,0,.8.5-.1.8-.3.6-.5.9-.3a.94.94,0,0,1,.1.9c-.1.3-.2.7,0,.8s.5-.1.8-.3.6-.5.9-.3.2.6.1.9-.2.7,0,.8.5-.1.8-.3.6-.5.9-.3.2.6.1.9-.2.7,0,.8.5-.1.8-.3.6-.5.9-.3.2.6.1.9-.2.7,0,.8.5-.1.8-.3.6-.5.9-.3.2.6.1.9a.761.761,0,0,0-.1.9Z" fill="#212121"/>
          <path id="パス_18123" data-name="パス 18123" d="M385.7,124.7c-.3,0-.5-.3-.6-.6-.2-.3-.4-.6-.6-.6v-.1c.3-.1.5.3.7.6s.3.6.5.6h0c.2,0,.3-.4.3-.7.1-.4.1-.8.4-.8h.1c.3,0,.5.3.6.6.2.3.4.6.6.6s.3-.4.3-.7c.1-.4.1-.8.4-.8.3-.1.5.3.7.6s.4.6.6.6.3-.4.3-.7c.1-.4.1-.8.4-.8.3-.1.5.3.7.6s.4.6.6.6.3-.4.3-.7c.1-.4.1-.8.4-.8.3-.1.5.3.7.6s.4.6.6.6.3-.4.3-.7c.1-.4.1-.8.4-.8.3-.1.5.3.7.6s.4.6.6.6.3-.4.3-.7c.1-.4.1-.8.4-.8.3-.1.5.3.7.6s.4.6.6.6.3-.4.3-.7c.1-.4.1-.8.4-.8.3-.1.5.3.7.6s.4.6.6.6.3-.4.3-.7c.1-.4.1-.8.4-.8.3-.1.5.3.7.6s.4.6.6.6.3-.4.3-.7c.1-.4.1-.8.4-.8.3-.1.5.3.7.6s.4.6.6.6v.1c-.3,0-.5-.3-.7-.6s-.4-.6-.6-.6-.3.4-.3.7c-.1.4-.1.8-.4.8-.3.1-.5-.3-.7-.6s-.4-.6-.6-.6-.3.4-.3.7c-.1.4-.1.8-.4.8-.3.1-.5-.3-.7-.6s-.4-.6-.6-.6-.3.4-.3.7c-.1.4-.1.8-.4.8-.3.1-.5-.3-.7-.6s-.4-.6-.6-.6-.3.4-.3.7c-.1.4-.1.8-.4.8-.3.1-.5-.3-.7-.6s-.4-.6-.6-.6-.3.4-.3.7c-.1.4-.1.8-.4.8-.3.1-.5-.3-.7-.6s-.4-.6-.6-.6-.3.4-.3.7c-.1.4-.1.8-.4.8-.3.1-.5-.3-.7-.6s-.4-.6-.6-.6-.3.4-.3.7c-.1.4-.1.8-.4.8-.3.1-.5-.3-.7-.6s-.4-.6-.6-.6-.3.4-.3.7c-.1.4-.1.8-.4.8s-.5-.3-.7-.6-.4-.6-.6-.6-.3.4-.3.7-.1.7-.4.8Z" fill="#212121"/>
          <path id="パス_18124" data-name="パス 18124" d="M355.2,150.1h0a1.209,1.209,0,0,0-.3-1c-.2-.4-.4-.7-.2-1.1.2-.3.7-.3,1.1-.3s.8.1,1-.2,0-.6-.2-1-.4-.7-.2-1.1c.2-.3.7-.3,1.1-.3s.8.1,1-.2,0-.6-.2-1-.4-.7-.2-1.1c.2-.3.7-.3,1.1-.3s.8.1,1-.2,0-.6-.2-1-.4-.7-.2-1.1c.2-.3.7-.3,1.1-.3s.8.1,1-.2,0-.6-.2-1-.4-.7-.2-1.1c.2-.3.7-.3,1.1-.3s.8.1,1-.2,0-.6-.2-1-.4-.7-.2-1.1c.2-.3.7-.3,1.1-.3s.8.1,1-.2,0-.6-.2-1-.4-.7-.2-1.1c.2-.3.7-.3,1.1-.3s.8.1,1-.2,0-.6-.2-1-.4-.7-.2-1.1c.2-.3.7-.3,1.1-.3s.8.1,1-.2,0-.6-.2-1-.4-.7-.2-1.1c.2-.3.7-.3,1.1-.3s.8.1,1-.2,0-.7-.2-1c-.2-.4-.4-.9-.1-1.1h.1q.15,0,.6.6c.2.2.4.6.6.6h0c.1,0,.1-.4.1-.7,0-.4,0-.8.2-.8h0c.2,0,.3.3.5.7.1.3.2.6.4.6h0c.1,0,.1-.4.1-.7,0-.4,0-.8.2-.8s.3.3.5.7c.1.3.2.6.4.6h0c.1,0,.1-.4.1-.7,0-.4,0-.8.2-.8s.3.3.5.7c.1.3.3.6.4.6s.1-.4.1-.7c0-.4,0-.8.2-.8s.3.3.5.7c.1.3.2.6.4.6.1,0,.1-.4.1-.7,0-.4,0-.8.2-.8s.3.3.5.7c.1.3.2.6.4.6h0c.1,0,.1-.4.1-.7,0-.4,0-.8.2-.8s.3.3.5.7c.1.3.2.6.4.6h0c.1,0,.1-.4.1-.7,0-.4,0-.8.2-.8s.3.3.5.7c.1.3.2.6.4.6.1,0,.1-.4.1-.7,0-.4,0-.8.2-.8s.3.3.5.7c.1.3.2.6.4.6h0c.1,0,.1-.4.1-.7,0-.4,0-.8.2-.8s.3.3.5.7c.1.3.2.6.4.6h0v.1c-.2,0-.3-.3-.5-.7-.1-.3-.3-.6-.4-.6s-.1.4-.1.7c0,.4,0,.8-.2.8h0c-.2,0-.3-.3-.5-.7-.1-.3-.2-.6-.4-.6-.1,0-.1.4-.1.7,0,.4,0,.8-.2.8s-.3-.3-.5-.7c-.1-.3-.2-.6-.4-.6h0c-.1,0-.1.4-.1.7,0,.4,0,.8-.2.8s-.3-.3-.5-.7c-.1-.3-.2-.6-.4-.6h0c-.1,0-.1.4-.1.7,0,.4,0,.8-.2.8s-.3-.3-.5-.7c-.1-.3-.2-.6-.4-.6h0c-.1,0-.1.4-.1.7,0,.4,0,.8-.2.8h0c-.2,0-.3-.3-.5-.7-.1-.3-.2-.6-.4-.6h0c-.1,0-.1.4-.1.7,0,.4,0,.8-.2.8s-.3-.3-.5-.7c-.1-.3-.2-.6-.4-.6h0c-.1,0-.1.4-.1.7,0,.4,0,.8-.2.8s-.3-.3-.5-.7c-.1-.3-.2-.6-.4-.6-.1,0-.1.4-.1.7,0,.4,0,.8-.2.8h0c-.2,0-.3-.3-.5-.7-.1-.3-.2-.6-.4-.6h0c-.1,0-.1.4-.1.7,0,.4,0,.8-.2.8s-.4-.3-.7-.6c-.2-.2-.4-.5-.5-.5h0c-.3.2-.1.6.1,1s.4.8.1,1.2c-.2.3-.7.3-1.1.3s-.8-.1-1,.2,0,.6.2,1,.4.7.2,1.1c-.2.3-.7.3-1.1.3s-.8-.1-1,.2,0,.6.2,1,.4.7.2,1.1c-.2.3-.7.3-1.1.3s-.8-.1-1,.2,0,.6.2,1,.4.7.2,1.1c-.2.3-.7.3-1.1.3s-.8-.1-1,.2,0,.6.2,1,.4.7.2,1.1c-.2.3-.7.3-1.1.3s-.8-.1-1,.2,0,.6.2,1,.4.7.2,1.1c-.2.3-.7.3-1.1.3s-.8-.1-1,.2,0,.6.2,1,.4.7.2,1.1c-.2.3-.7.3-1.1.3s-.8-.1-1,.2,0,.6.2,1,.4.7.2,1.1c-.2.3-.7.3-1.1.3s-.8-.1-1,.2,0,.6.2,1,.4.7.2,1.1c-.2.3-.7.3-1.1.3s-.8-.1-1,.2,0,.6.2,1C355.2,149.3,355.4,149.7,355.2,150.1Z" fill="#212121"/>
          <path id="パス_18125" data-name="パス 18125" d="M375.4,139.4a.749.749,0,0,1-.5-.1,1.069,1.069,0,0,0-.8,0l-.1-.1c.1-.2.5-.2.9-.1a1.069,1.069,0,0,0,.8,0c.1-.2-.1-.4-.4-.7s-.5-.6-.4-.8.5-.2.9-.1a1.069,1.069,0,0,0,.8,0c.1-.2-.1-.4-.4-.7s-.5-.6-.4-.8.5-.2.9-.1a1.069,1.069,0,0,0,.8,0c.1-.2-.1-.4-.4-.7s-.5-.6-.4-.8.5-.2.9-.1a1.069,1.069,0,0,0,.8,0c.1-.2-.1-.4-.4-.7s-.5-.6-.4-.8.5-.2.9-.1a1.069,1.069,0,0,0,.8,0c.1-.2-.1-.4-.4-.7s-.5-.6-.4-.8.5-.2.9-.1a1.069,1.069,0,0,0,.8,0c.1-.2-.1-.4-.4-.7s-.5-.6-.4-.8.5-.2.9-.1a1.069,1.069,0,0,0,.8,0c.1-.2-.1-.4-.4-.7s-.5-.6-.4-.8.5-.2.9-.1a1.069,1.069,0,0,0,.8,0c.1-.2-.1-.4-.4-.7s-.5-.6-.4-.8.5-.2.9-.1a1.069,1.069,0,0,0,.8,0c.1-.2-.1-.4-.4-.7s-.5-.6-.4-.8.5-.2.9-.1a1.069,1.069,0,0,0,.8,0l.1.1c-.1.2-.5.2-.9.1a1.069,1.069,0,0,0-.8,0c-.1.2.1.4.4.7s.5.6.4.8-.5.2-.9.1a1.069,1.069,0,0,0-.8,0c-.1.2.1.4.4.7s.5.6.4.8-.5.2-.9.1a1.069,1.069,0,0,0-.8,0c-.1.2.1.4.4.7s.5.6.4.8-.5.2-.9.1a1.069,1.069,0,0,0-.8,0c-.1.2.1.4.4.7s.5.6.4.8-.5.2-.9.1a1.069,1.069,0,0,0-.8,0c-.1.2.1.4.4.7s.5.6.4.8-.5.2-.9.1a1.069,1.069,0,0,0-.8,0c-.1.2.1.4.4.7s.5.6.4.8-.5.2-.9.1a1.069,1.069,0,0,0-.8,0c-.1.2.1.4.4.7s.5.6.4.8-.5.2-.9.1a1.069,1.069,0,0,0-.8,0c-.1.2.1.4.4.7s.5.6.4.8-.5.2-.9.1a1.069,1.069,0,0,0-.8,0c-.1.2.1.4.4.7s.5.6.4.8A.4.4,0,0,1,375.4,139.4Z" fill="#212121"/>
          <path id="パス_18126" data-name="パス 18126" d="M384.9,123.1a1.329,1.329,0,0,1-.7-.3c-.3-.2-.6-.4-.8-.2l-.1-.1c.2-.2.6,0,.9.2s.6.4.8.2c.1-.1,0-.5-.1-.8-.2-.4-.3-.7-.1-.9s.6,0,.9.2a.882.882,0,0,0,.8.2c.1-.1,0-.5-.1-.8-.2-.4-.3-.7-.1-.9s.6,0,.9.2.6.4.8.2c.1-.1,0-.5-.1-.8-.2-.4-.3-.7-.1-.9s.6,0,.9.2.6.4.8.2c.1-.1,0-.5-.1-.8-.2-.4-.3-.7-.1-.9s.6,0,.9.2.6.4.8.2c.1-.1,0-.5-.1-.8-.2-.4-.3-.7-.1-.9s.6,0,.9.2.6.4.8.2c.1-.1,0-.5-.1-.8-.2-.4-.3-.7-.1-.9s.6,0,.9.2.6.4.8.2c.1-.1,0-.5-.1-.8-.2-.4-.3-.7-.1-.9s.6,0,.9.2.6.4.8.2c.1-.1,0-.5-.1-.8-.2-.4-.3-.7-.1-.9s.6,0,.9.2.6.4.8.2c.1-.1,0-.5-.1-.8-.2-.4-.3-.7-.1-.9s.6,0,.9.2.6.4.8.2l.1.1c-.2.2-.6,0-.9-.2s-.6-.4-.8-.2c-.1.1,0,.5.1.8.2.4.3.7.1.9s-.6,0-.9-.2a.882.882,0,0,0-.8-.2c-.1.1,0,.5.1.8.2.4.3.7.1.9s-.6,0-.9-.2-.6-.4-.8-.2c-.1.1,0,.5.1.8.2.4.3.7.1.9s-.6,0-.9-.2-.6-.4-.8-.2c-.1.1,0,.5.1.8.2.4.3.7.1.9s-.6,0-.9-.2-.6-.4-.8-.2c-.1.1,0,.5.1.8.2.4.3.7.1.9s-.6,0-.9-.2-.6-.4-.8-.2c-.1.1,0,.5.1.8.2.4.3.7.1.9s-.6,0-.9-.2-.6-.4-.8-.2c-.1.1,0,.5.1.8.2.4.3.7.1.9s-.6,0-.9-.2-.6-.4-.8-.2c-.1.1,0,.5.1.8.2.4.3.7.1.9s-.6,0-.9-.2-.6-.4-.8-.2c-.1.1,0,.5.1.8.2.4.3.7.1.9C385,123.1,385,123.1,384.9,123.1Z" fill="#212121"/>
        </g>
      </g>
      <g id="グループ_2257" data-name="グループ 2257">
        <g id="グループ_2256" data-name="グループ 2256" clip-path="url(#clip-path-4)">
          <path id="パス_18127" data-name="パス 18127" d="M394.7,119.8c.1.2.1.3.2.5l1.6-.1c-.1-.3-.1-.5-.2-.8Z" fill="#111"/>
          <path id="パス_18128" data-name="パス 18128" d="M383,110.8c-.3,0-.5.1-.8.1l.1,1.5c.2,0,.3-.1.5-.1Z" fill="#111"/>
          <path id="パス_18129" data-name="パス 18129" d="M372.7,118.2l1.3.8a5.938,5.938,0,0,1,.4-.8l-1.2-1A2.344,2.344,0,0,0,372.7,118.2Z" fill="#111"/>
          <path id="パス_18130" data-name="パス 18130" d="M395.3,122.7l1.5.3a4.1,4.1,0,0,0-.1-1.1l-1.5.1C395.3,122.1,395.3,122.4,395.3,122.7Z" fill="#111"/>
          <path id="パス_18131" data-name="パス 18131" d="M373.1,124.5l-1.5-.2c0,.3.1.6.1.9l1.5-.1A1.268,1.268,0,0,1,373.1,124.5Z" fill="#111"/>
          <path id="パス_18132" data-name="パス 18132" d="M373.1,122.3l-1.5-.5c0,.3-.1.7-.1,1l1.5.2A1.952,1.952,0,0,0,373.1,122.3Z" fill="#111"/>
          <path id="パス_18133" data-name="パス 18133" d="M378.2,114.1a4.348,4.348,0,0,1,.7-.4l-.4-1.5a9.291,9.291,0,0,1-1,.5Z" fill="#111"/>
          <path id="パス_18134" data-name="パス 18134" d="M376.4,115.5c.2-.2.5-.4.7-.6l-.7-1.4c-.3.3-.6.5-.9.8Z" fill="#111"/>
          <path id="パス_18135" data-name="パス 18135" d="M380.2,113.1c.2-.1.4-.1.5-.2l-.1-1.6a6.888,6.888,0,0,0-.8.3Z" fill="#111"/>
          <path id="パス_18136" data-name="パス 18136" d="M375.1,117.1a4.349,4.349,0,0,1,.6-.7l-1-1.2a7.006,7.006,0,0,0-.8,1Z" fill="#111"/>
          <path id="パス_18137" data-name="パス 18137" d="M393.7,117.7c.1.2.2.3.3.5l1.5-.4c-.1-.3-.3-.5-.4-.8Z" fill="#111"/>
          <path id="パス_18138" data-name="パス 18138" d="M373.6,120.1l-1.4-.8c-.1.4-.2.7-.3,1.1l1.5.5A2.353,2.353,0,0,1,373.6,120.1Z" fill="#111"/>
          <path id="パス_18139" data-name="パス 18139" d="M388.8,113.3c.1.1.3.1.4.2l1.1-1.2a2.506,2.506,0,0,1-.7-.4Z" fill="#111"/>
          <path id="パス_18140" data-name="パス 18140" d="M394.7,127.3l1.3.8a5.637,5.637,0,0,0,.4-1.2l-1.4-.6C394.9,126.6,394.8,126.9,394.7,127.3Z" fill="#111"/>
          <path id="パス_18141" data-name="パス 18141" d="M394.2,128.4c-.2.3-.4.7-.6,1l1.1,1.1a5.388,5.388,0,0,0,.7-1.3Z" fill="#111"/>
          <path id="パス_18142" data-name="パス 18142" d="M395.3,125l1.5.6a4.484,4.484,0,0,0,.1-1.1l-1.5-.3A2.2,2.2,0,0,0,395.3,125Z" fill="#111"/>
          <path id="パス_18143" data-name="パス 18143" d="M393.1,130.3c-.2.3-.5.6-.7.9l.9,1.3a10.948,10.948,0,0,0,1-1.1Z" fill="#111"/>
          <path id="パス_18144" data-name="パス 18144" d="M387.3,134.2a11.077,11.077,0,0,1-11-2.8,10.931,10.931,0,0,1-2.8-4.7l-1.6.1a12.758,12.758,0,0,0,3.3,5.7,12.558,12.558,0,0,0,12.4,3.2Z" fill="#111"/>
          <path id="パス_18145" data-name="パス 18145" d="M389.5,133.4c-.3.1-.5.3-.8.4l.3,1.5a5.36,5.36,0,0,0,1.1-.5Z" fill="#111"/>
          <path id="パス_18146" data-name="パス 18146" d="M390.8,114.5l.3.3,1.3-.9c-.2-.2-.4-.3-.6-.5Z" fill="#111"/>
          <path id="パス_18147" data-name="パス 18147" d="M391.4,132c-.3.2-.5.4-.8.6l.6,1.4a3.915,3.915,0,0,0,1-.8Z" fill="#111"/>
          <path id="パス_18148" data-name="パス 18148" d="M386.9,112.7c.1,0,.1,0,.2.1l.8-1.4a.9.9,0,0,0-.5-.1Z" fill="#111"/>
          <path id="パス_18149" data-name="パス 18149" d="M384.6,112.3h.3l.5-1.5h-.6Z" fill="#111"/>
          <path id="パス_18150" data-name="パス 18150" d="M392.4,116c.1.1.2.2.2.3l1.4-.7c-.1-.2-.3-.3-.5-.5Z" fill="#111"/>
        </g>
      </g>
      <g id="グループ_2258" data-name="グループ 2258">
        <path id="パス_18152" data-name="パス 18152" d="M379.6,119a6.505,6.505,0,1,1,0,9.2,6.4,6.4,0,0,1,0-9.2"/>
      </g>
      <g id="グループ_2260" data-name="グループ 2260">
        <g id="グループ_2259" data-name="グループ 2259">
          <path id="パス_18153" data-name="パス 18153" d="M381.1,122.3l3.5,2-2.8,3.7,5.2-3.5-1.8-2.2,2.3-3.3Z" fill="#fff"/>
        </g>
      </g>
    </g>
  </g>
</svg>
