<svg xmlns="http://www.w3.org/2000/svg" width="498" height="453.259" viewBox="0 0 498 453.259">
  <g id="design-eebc_003" transform="translate(-1131 -2100.741)">
    <text id="Target_B" data-name="Target B" transform="translate(1196 2300.086)" fill="#4d4d4d" font-size="17" font-family="NotoSans-ExtraBold, Noto Sans" font-weight="800"><tspan x="0" y="0">Target B</tspan></text>
    <text id="BUSINESS" transform="translate(1204 2322.365)" fill="#4d4d4d" font-size="14" font-family="NotoSans-CondensedMedium, Noto Sans" font-weight="500"><tspan x="0" y="0">BUSINESS</tspan></text>
    <text id="直接使用建材" transform="translate(1189 2496.6)" fill="#4d4d4d" font-size="14" font-family="YuGothicUI-Regular, Yu Gothic UI" opacity="0.59"><tspan x="0" y="0">直接使用建材</tspan></text>
    <text id="間接推廣建材" transform="translate(1473 2496.6)" fill="#4d4d4d" font-size="14" font-family="YuGothicUI-Regular, Yu Gothic UI" opacity="0.59"><tspan x="0" y="0">間接推廣建材</tspan></text>
    <text id="PERSONAL_END_USER" data-name="PERSONAL / END USER" transform="translate(1515 2322.365)" fill="#4d4d4d" font-size="14" font-family="NotoSans-CondensedMedium, Noto Sans" font-weight="500"><tspan x="-62.181" y="0">PERSONAL / END USER</tspan></text>
    <text id="陌生開發_推綠建材_塑造公司形象" data-name="陌生開發／推綠建材／塑造公司形象" transform="translate(1419 2525.6)" fill="#999" font-size="12" font-family="YuGothicUI-Light, Yu Gothic UI" font-weight="300"><tspan x="0" y="0">陌生開發／推綠建材／塑造公司形象</tspan></text>
    <text id="建築師_設計者_個人使用者_民宿業者" data-name="建築師／設計者／個人使用者／民宿業者" transform="translate(1407 2550)" fill="#999" font-size="12" font-family="YuGothicUI-Light, Yu Gothic UI" font-weight="300"><tspan x="0" y="0">建築師／設計者／個人使用者／民宿業者</tspan></text>
    <text id="地產開發商_生態旅館業者_建築師" data-name="地產開發商／生態旅館業者／建築師" transform="translate(1135 2525.6)" fill="#999" font-size="12" font-family="YuGothicUI-Light, Yu Gothic UI" font-weight="300"><tspan x="0" y="0">地產開發商／生態旅館業者／建築師</tspan></text>
    <text id="_建築設計者_包括已確定購材族群B" data-name="／建築設計者／包括已確定購材族群B" transform="translate(1131 2550)" fill="#999" font-size="12" font-family="YuGothicUI-Light, Yu Gothic UI" font-weight="300"><tspan x="0" y="0">／建築設計者／包括已確定購材族群</tspan><tspan y="0" font-family="NotoSans-Light, Noto Sans">B</tspan></text>
    <text id="Target_P" data-name="Target P" transform="translate(1480 2300.086)" fill="#4d4d4d" font-size="17" font-family="NotoSans-ExtraBold, Noto Sans" font-weight="800"><tspan x="0" y="0">Target P</tspan></text>
    <text id="偶然知道我們且是潛在客戶" transform="translate(1443 2375)" fill="#666" font-size="12" font-family="YuGothicUI-Light, Yu Gothic UI" font-weight="300"><tspan x="0" y="0">偶然知道我們且是潛在客戶</tspan></text>
    <text id="在瀏覽天然建材時找到我們_不一定正要買" data-name="在瀏覽天然建材時找到我們，不一定正要買" transform="translate(1401 2397.4)" fill="#666" font-size="12" font-family="YuGothicUI-Light, Yu Gothic UI" font-weight="300"><tspan x="0" y="0">在瀏覽天然建材時找到我們，不一定正要買</tspan></text>
    <text id="視覺_形象_動線_內容" data-name="視覺/形象 ≧ 動線 ≧ 內容" transform="translate(1434 2442.964)" fill="#666" font-size="15" font-family="YuGothicUI-Semibold, Yu Gothic UI" font-weight="600"><tspan x="0" y="0">視覺</tspan><tspan y="0" font-family="NotoSans-Medium, Noto Sans" font-weight="500">/</tspan><tspan y="0">形象</tspan><tspan y="0" font-family="NotoSans-Medium, Noto Sans" font-weight="500"> </tspan><tspan y="0" font-family="SegoeUISymbol, Segoe UI Symbol" font-weight="400">≧</tspan><tspan y="0" font-family="NotoSans-Medium, Noto Sans" font-weight="500"> </tspan><tspan y="0">動線</tspan><tspan y="0" font-family="NotoSans-Medium, Noto Sans" font-weight="500"> </tspan><tspan y="0" font-family="SegoeUISymbol, Segoe UI Symbol" font-weight="400">≧</tspan><tspan y="0" font-family="NotoSans-Medium, Noto Sans" font-weight="500"> </tspan><tspan y="0">內容</tspan></text>
    <text id="動線_資訊_視覺_形象" data-name="動線 ＞ 資訊 ＞ 視覺/形象" transform="translate(1146 2442.964)" fill="#666" font-size="15" font-family="YuGothicUI-Semibold, Yu Gothic UI" font-weight="600"><tspan x="0" y="0">動線</tspan><tspan y="0" font-family="NotoSans-Medium, Noto Sans" font-weight="500"> </tspan><tspan y="0">＞</tspan><tspan y="0" font-family="NotoSans-Medium, Noto Sans" font-weight="500"> </tspan><tspan y="0">資訊</tspan><tspan y="0" font-family="NotoSans-Medium, Noto Sans" font-weight="500"> </tspan><tspan y="0">＞</tspan><tspan y="0" font-family="NotoSans-Medium, Noto Sans" font-weight="500"> </tspan><tspan y="0">視覺</tspan><tspan y="0" font-family="NotoSans-Medium, Noto Sans" font-weight="500">/</tspan><tspan y="0">形象</tspan></text>
    <text id="有目的性在尋找建材或是了解我們" transform="translate(1141 2375)" fill="#666" font-size="12" font-family="YuGothicUI-Light, Yu Gothic UI" font-weight="300"><tspan x="0" y="0">有目的性在尋找建材或是了解我們</tspan></text>
    <text id="大多原族群_80_跳出率的那些人" data-name="大多原族群，80%跳出率的那些人" transform="translate(1142 2397.4)" fill="#666" font-size="12" font-family="YuGothicUI-Light, Yu Gothic UI" font-weight="300"><tspan x="0" y="0">大多原族群，</tspan><tspan y="0" font-family="NotoSans-Light, Noto Sans">80%</tspan><tspan y="0">跳出率的那些人</tspan></text>
    <g id="Group_5118" data-name="Group 5118" transform="translate(1151 2100.74)">
      <path id="Path_4807" data-name="Path 4807" d="M907.6,753.1V737.612S913.639,748.594,907.6,753.1Z" transform="translate(-761.858 -598.789)" fill="#f1f1f1"/>
      <path id="Path_4808" data-name="Path 4808" d="M867.466,771.494l-11.411-10.476S868.227,764,867.466,771.494Z" transform="translate(-721.349 -617.183)" fill="#f1f1f1"/>
      <path id="Path_4809" data-name="Path 4809" d="M351.141,157.68l-60.556,35.393a.926.926,0,0,1-1.266-.332l-38.941-66.627a.926.926,0,0,1,.332-1.266l60.555-35.392a.926.926,0,0,1,1.266.332l38.941,66.627a.926.926,0,0,1-.332,1.266Z" transform="translate(-245.273 -89.328)" fill="#fff"/>
      <path id="Path_4810" data-name="Path 4810" d="M351.141,157.68l-60.556,35.393a.926.926,0,0,1-1.266-.332l-38.941-66.627a.926.926,0,0,1,.332-1.266l60.555-35.392a.926.926,0,0,1,1.266.332l38.941,66.627a.926.926,0,0,1-.332,1.266ZM250.9,125.167a.556.556,0,0,0-.2.759l38.941,66.627a.556.556,0,0,0,.759.2l60.555-35.393a.556.556,0,0,0,.2-.759L312.212,89.974a.556.556,0,0,0-.759-.2Z" transform="translate(-245.273 -89.328)" fill="#3f3d56"/>
      <path id="Path_4811" data-name="Path 4811" d="M342.6,226.229l-15.019,8.778a.926.926,0,0,1-1.266-.332l-8.778-15.019a.926.926,0,0,1,.332-1.266l15.019-8.778a.926.926,0,0,1,1.266.332l8.778,15.019a.926.926,0,0,1-.332,1.266Zm-24.544-7.519a.556.556,0,0,0-.2.759l8.778,15.019a.556.556,0,0,0,.759.2l15.019-8.778a.556.556,0,0,0,.2-.759l-8.778-15.019a.556.556,0,0,0-.759-.2Z" transform="translate(-298.05 -183.755)" fill="#f2f2f2"/>
      <path id="Path_4812" data-name="Path 4812" d="M327.979,247.216l-15.019,8.778a.834.834,0,0,1-1.139-.3l-8.778-15.019a.834.834,0,0,1,.3-1.139l15.019-8.778a.834.834,0,0,1,1.139.3l8.778,15.019A.834.834,0,0,1,327.979,247.216Z" transform="translate(-286.67 -200.384)" fill="#e9e95f"/>
      <path id="Path_4813" data-name="Path 4813" d="M412.208,249.437l-46.974,27.455a.833.833,0,1,1-.84-1.438L411.368,248a.833.833,0,0,1,.84,1.438Z" transform="translate(-334.648 -213.932)" fill="#ccc"/>
      <path id="Path_4814" data-name="Path 4814" d="M414.383,303.53l-35.63,20.825a.833.833,0,1,1-.84-1.438l35.63-20.825a.833.833,0,1,1,.84,1.438Z" transform="translate(-345.272 -256.441)" fill="#ccc"/>
      <path id="Path_4815" data-name="Path 4815" d="M457.911,164.814l-20.771,12.14a.833.833,0,0,1-.84-1.438l20.771-12.14a.833.833,0,0,1,.84,1.438Z" transform="translate(-391.156 -147.429)" fill="#ccc"/>
      <path id="Path_4816" data-name="Path 4816" d="M466.245,202.093l-15.587,9.11a.833.833,0,1,1-.841-1.438l15.587-9.11a.833.833,0,0,1,.84,1.438Z" transform="translate(-401.779 -176.726)" fill="#ccc"/>
      <path id="Path_4817" data-name="Path 4817" d="M439.245,295.7l-46.974,27.455a.833.833,0,1,1-.84-1.438l46.974-27.455a.833.833,0,0,1,.84,1.438Z" transform="translate(-355.895 -250.286)" fill="#ccc"/>
      <path id="Path_4818" data-name="Path 4818" d="M441.42,349.79l-35.63,20.825a.833.833,0,0,1-.84-1.438l35.63-20.825a.833.833,0,0,1,.84,1.438Z" transform="translate(-366.519 -292.795)" fill="#ccc"/>
      <path id="Path_4819" data-name="Path 4819" d="M466.283,341.958l-46.974,27.455a.833.833,0,0,1-.84-1.438l46.974-27.455a.833.833,0,0,1,.84,1.438Z" transform="translate(-377.143 -286.64)" fill="#ccc"/>
      <path id="Path_4820" data-name="Path 4820" d="M479.8,365.088l-46.974,27.455a.833.833,0,0,1-.84-1.438l46.974-27.455a.833.833,0,1,1,.84,1.438Z" transform="translate(-387.767 -304.818)" fill="#ccc"/>
      <path id="Path_4821" data-name="Path 4821" d="M581.836,415.063a18.139,18.139,0,0,0,1.756-2.456,6.524,6.524,0,0,0,1.019-2.533,2.5,2.5,0,0,0-.749-2.138,1.76,1.76,0,0,0-2.066-.235,2.1,2.1,0,0,0-1.054,1.876,2.775,2.775,0,0,0,1.185,2.1,5.107,5.107,0,0,0,5.037.188c1.667-.862,2.528-3.118,1.219-4.662-.272-.321-.726.038-.657.384a1.867,1.867,0,0,0,3.7-.457l-.589.344a4.5,4.5,0,0,0,4.471-.48,4.169,4.169,0,0,0,.837-.809,4.914,4.914,0,0,1,1.164-.89l2.825-1.952c.416-.287.02-.971-.4-.682l-2.558,1.768c-.426.295-.855.585-1.279.884a8.755,8.755,0,0,0-.765.811,3.7,3.7,0,0,1-3.908.661.4.4,0,0,0-.589.344,1.081,1.081,0,1,1-2.147.254l-.657.384a2.272,2.272,0,0,1-.691,3.193,4.481,4.481,0,0,1-3.924.413,2.315,2.315,0,0,1-1.363-1.251,1.38,1.38,0,0,1,.313-1.579.99.99,0,0,1,1.376-.015,1.771,1.771,0,0,1,.469,1.6,6.4,6.4,0,0,1-.971,2.2,16.876,16.876,0,0,1-1.571,2.188c-.326.385.236.941.565.551Z" transform="translate(-504.992 -335.511)" fill="#e8c61e"/>
      <path id="Path_4822" data-name="Path 4822" d="M606.955,541.705a1.854,1.854,0,0,1,.187.225l8.747-.214,1.021-1.865,3.015,1.172-1.486,3.477a1.411,1.411,0,0,1-1.467.847l-9.883-1.194a1.852,1.852,0,1,1-.134-2.448Z" transform="translate(-523.1 -443.377)" fill="#ffb7b7"/>
      <path id="Path_4823" data-name="Path 4823" d="M509.176,666.543H506.3l-1.368-11.094h4.245Z" transform="translate(-396.806 -515.091)" fill="#ffb7b7"/>
      <path id="Path_4824" data-name="Path 4824" d="M721.144,795.926H711.87v-.117a3.61,3.61,0,0,1,3.609-3.61h5.665Z" transform="translate(-608.04 -641.686)" fill="#2f2e41"/>
      <path id="Path_4825" data-name="Path 4825" d="M393.086,663.4l-2.645-1.13,3.1-10.74,3.9,1.668Z" transform="translate(-306.832 -512.011)" fill="#ffb7b7"/>
      <path id="Path_4826" data-name="Path 4826" d="M596.53,787.791,588,784.148l.046-.108a3.61,3.61,0,0,1,4.737-1.9h0l5.209,2.225Z" transform="translate(-510.697 -633.552)" fill="#2f2e41"/>
      <path id="Path_4827" data-name="Path 4827" d="M458.7,468.875l-.208,3.37,6.08.651,6.361.681-1.872-5.118Z" transform="translate(-360.314 -368.143)" fill="#ffb7b7"/>
      <path id="Path_4828" data-name="Path 4828" d="M675.935,504.274l-2.362-16.465,4.094-1.342,1.2-1.649,5.851.346.859,1.924,3.12,1.474-.479,8.9.35,7.449Z" transform="translate(-577.944 -400.129)" fill="#2f2e41"/>
      <path id="Path_4829" data-name="Path 4829" d="M662.38,510.965l-4.164-1.666.018-.074c.018-.075,1.79-7.48,2.025-8.671a2.075,2.075,0,0,1,1.179-1.6l.028-.01,1.648.5.724,5.686Z" transform="translate(-565.876 -411.232)" fill="#2f2e41"/>
      <path id="Path_4830" data-name="Path 4830" d="M619.455,615.934l-5.543-1.137,8.859-24.445,3.032-8.338s1.923-6.685,2.792-9.272l.524-3.471,12.412,1.374s3.467,5.091,2.414,13.389l.476,31.189-5.543.284-4.643-31.456L626.087,601.3s-2.568,7.359-4.406,8.954Z" transform="translate(-531.059 -466.496)" fill="#2f2e41"/>
      <path id="Path_4831" data-name="Path 4831" d="M713.054,544.489a1.869,1.869,0,0,1,.292.016l5.79-6.56-.674-2.016,2.91-1.414,1.539,3.453a1.412,1.412,0,0,1-.377,1.652l-7.595,6.435a1.852,1.852,0,1,1-1.886-1.566Z" transform="translate(-607.56 -439.183)" fill="#ffb7b7"/>
      <path id="Path_4832" data-name="Path 4832" d="M737.026,513.262l-2.415-5.682.942-3.958,1.015-1.282a.585.585,0,0,1,.47,0c.374.151.693.612.948,1.373l2.264,6.448Z" transform="translate(-625.911 -413.861)" fill="#2f2e41"/>
      <path id="Path_4833" data-name="Path 4833" d="M687.367,438.2V433.92a5.74,5.74,0,1,1,11.48,0V438.2a.772.772,0,0,1-.771.771h-9.938A.772.772,0,0,1,687.367,438.2Z" transform="translate(-588.784 -355.618)" fill="#2f2e41"/>
      <circle id="Ellipse_413" data-name="Ellipse 413" cx="4.208" cy="4.208" r="4.208" transform="translate(98.935 74.84)" fill="#ffb7b7"/>
      <path id="Path_4834" data-name="Path 4834" d="M681.026,439.921a4.546,4.546,0,0,1,4.541-4.54h.857a4.546,4.546,0,0,1,4.54,4.54v.086h-1.81l-.617-1.729-.124,1.729h-.936l-.312-.872-.062.872h-6.077Z" transform="translate(-583.801 -361.277)" fill="#2f2e41"/>
      <path id="Path_4835" data-name="Path 4835" d="M706.185,452.091a.76.76,0,0,1-.06-.807c.908-1.727,2.179-4.917.492-6.885l-.121-.141h4.9v7.354l-4.45.785a.794.794,0,0,1-.136.012.768.768,0,0,1-.622-.318Z" transform="translate(-603.456 -368.253)" fill="#2f2e41"/>
      <path id="Path_4836" data-name="Path 4836" d="M212.9,659.147l2.6.929,4.82-9.584-3.836-1.371Z" transform="translate(-167.313 -510.118)" fill="#9f616a"/>
      <path id="Path_4837" data-name="Path 4837" d="M432.6,783.568l1.2-3.368,5.119,1.829a3.468,3.468,0,0,1,2.1,4.428l-.038.106Z" transform="translate(-388.575 -632.256)" fill="#2f2e41"/>
      <path id="Path_4838" data-name="Path 4838" d="M291.834,668.873h2.76l1.313-10.647h-4.074Z" transform="translate(-229.341 -517.274)" fill="#9f616a"/>
      <path id="Path_4839" data-name="Path 4839" d="M515.548,793.065h5.436a3.464,3.464,0,0,1,3.464,3.464v.113h-8.9Z" transform="translate(-453.759 -642.367)" fill="#2f2e41"/>
      <path id="Path_4840" data-name="Path 4840" d="M489.459,470.924l1.2-2.372s4.472,1.12,4.879,3.712Z" transform="translate(-433.256 -387.345)" fill="#f1f1f1"/>
      <path id="Path_4841" data-name="Path 4841" d="M219.5,515.307l3.265,18.218-8.668,15.33,5.179,2.026,8.781-14.86,1.126-4.053.675,21.164,4.67-.142,2.141-19.762-3.434-18.372Z" transform="translate(-168.247 -404.606)" fill="#2f2e41"/>
      <path id="Path_4842" data-name="Path 4842" d="M465.836,505.862a30.131,30.131,0,0,1-7.909-.932l-.11-.024,2.5-11.582.112-10.683a12.2,12.2,0,0,1,3.393-8.173,1.948,1.948,0,0,1,1.036-1.273,3.089,3.089,0,0,1,2.26.113l3.645,1.367.017.051c.044.13,4.845,15.892,4.845,15.892s-.291,13.772-.392,14.224C475.231,504.842,468.5,505.862,465.836,505.862Z" transform="translate(-408.39 -390.854)" fill="#3f3d56"/>
      <circle id="Ellipse_414" data-name="Ellipse 414" cx="4.927" cy="4.927" r="4.927" transform="translate(56.205 70.606)" fill="#9f616a"/>
      <path id="Path_4843" data-name="Path 4843" d="M259.823,432.715l8.62,12.026,1.273-5.616Z" transform="translate(-204.185 -340.053)" opacity="0.2"/>
      <path id="Path_4844" data-name="Path 4844" d="M574.145,546.3a2.114,2.114,0,0,1-3.175-.658l-7.419,1.188,1.607-3.558,6.8-.582a2.126,2.126,0,0,1,2.188,3.611Z" transform="translate(-491.483 -445.46)" fill="#9f616a"/>
      <path id="Path_4845" data-name="Path 4845" d="M345.842,454.878l2.666-.261.739,3.719-3.354.059Z" transform="translate(-271.784 -357.265)" fill="#f1f1f1"/>
      <path id="Path_4846" data-name="Path 4846" d="M510.558,508.2,497.5,507.042l-6.593-10.484-.02-.093a3.609,3.609,0,0,1,6.738-2.417l3.87,7.549,7.81,1.181Z" transform="translate(-434.314 -405.839)" fill="#3f3d56"/>
      <path id="Path_4847" data-name="Path 4847" d="M488.63,420.884l4.089.147c.249.009.926-2.681,1.014-3.239a1.523,1.523,0,0,1,1.589-1.232c.306.029,1.078-.543,1.875-1.22a3,3,0,0,0-.228-4.787q-.068-.045-.134-.081a7.277,7.277,0,0,0-3.475-.8,6.5,6.5,0,0,0-3.167.639,5.765,5.765,0,0,0-2.715,4.893,14.233,14.233,0,0,0,1.254,5.675" transform="translate(-431.695 -341.073)" fill="#2f2e41"/>
      <path id="Path_4848" data-name="Path 4848" d="M386.449,809.1H227.214a.214.214,0,1,1,0-.428h159.32a.214.214,0,0,1,.214.214C386.748,809,386.567,809.1,386.449,809.1Z" transform="translate(-227 -654.632)" fill="#cbcbcb"/>
    </g>
    <g id="Group_5121" data-name="Group 5121" transform="translate(1471.235 2118.977)">
      <g id="Group_5119" data-name="Group 5119" transform="translate(64.289 120.334)">
        <path id="Path_4849" data-name="Path 4849" d="M254.631,435.959h-3.374l-1.6-13.015h4.98Z" transform="translate(-242.911 -422.944)" fill="#a0616a"/>
        <path id="Path_4850" data-name="Path 4850" d="M226.118,458.846h0a2.9,2.9,0,0,0-.16.954h0a1.145,1.145,0,0,0,1.145,1.145h10.449a.781.781,0,0,0,.781-.781v-.435a3.34,3.34,0,0,0-.547-2.919s-1.323,1.262-3.3-.715l-.583-1.056-4.219,3.086-2.339.288c-.512.063-.965-.01-1.228.433Z" transform="translate(-225.958 -445.907)" fill="#2f2e41"/>
      </g>
      <g id="Group_5120" data-name="Group 5120" transform="translate(79.937 120.334)">
        <path id="Path_4851" data-name="Path 4851" d="M309.631,435.959h-3.374l-1.6-13.015h4.98Z" transform="translate(-297.911 -422.944)" fill="#a0616a"/>
        <path id="Path_4852" data-name="Path 4852" d="M281.118,458.846h0a2.9,2.9,0,0,0-.16.954h0a1.145,1.145,0,0,0,1.145,1.145h10.449a.781.781,0,0,0,.781-.781v-.435a3.34,3.34,0,0,0-.547-2.919s-1.323,1.262-3.3-.715l-.583-1.056-4.219,3.086-2.339.288c-.512.063-.965-.01-1.228.433Z" transform="translate(-280.958 -445.907)" fill="#2f2e41"/>
      </g>
      <path id="Path_4853" data-name="Path 4853" d="M253.483,60.385a5.675,5.675,0,0,1-1.853-2,1.948,1.948,0,0,1,.571-2.45c1.072-.619,2.477.332,3.645-.077a3.682,3.682,0,0,0,1.672-1.813c.431-.721,1.038-1.483,1.877-1.52,1.084-.048,1.84,1.122,2.894,1.376,1.182.285,2.364-.645,3.573-.513a2.451,2.451,0,0,1,2.029,2.313,3.409,3.409,0,0,1-1.5,2.838,8.488,8.488,0,0,1-4.364,1.145l-8.552.652" transform="translate(-179.897 -37.578)" fill="#e6e6e6"/>
      <circle id="Ellipse_415" data-name="Ellipse 415" cx="7.714" cy="7.714" r="7.714" transform="translate(69.672 2.182)" fill="#a0616a"/>
      <path id="Path_4854" data-name="Path 4854" d="M251.339,11.877l2.369,3.031s3.494-5.755.822-9.579c0,0-1.272-1.27-1.173-2.277S251.2.423,249.641.777,248.319.01,248.319.01l-1.6.732L245.651,0,244.8.932s-5.147.634-4.087,4.044c0,0-4.618,1.7-3.005,3.389s3.664,1.507,4.218,1.053,5.261-.5,5.261-.5l.279,2.316,2.139-1.059s2.227-.669,1.739,1.7Z" transform="translate(-169.829 0)" fill="#2f2e41"/>
      <path id="Path_4855" data-name="Path 4855" d="M84.194,137.049a.569.569,0,0,1-.4-.971l7.56-7.56a2.568,2.568,0,0,0,.737-2.148l-1.554-6a.569.569,0,0,1,1.129-.141l.014.06,1.54,5.938a3.7,3.7,0,0,1-1.062,3.094l-7.56,7.56A.567.567,0,0,1,84.194,137.049Z" transform="translate(-59.832 -87.824)" fill="#3f3d56"/>
      <rect id="Rectangle_6480" data-name="Rectangle 6480" width="17.533" height="13.05" rx="1" transform="translate(5.549 34.986) rotate(-44)" fill="#f9c51a" opacity="0.73"/>
      <rect id="Rectangle_6481" data-name="Rectangle 6481" width="44.35" height="16.865" rx="1" transform="translate(-7.691 32.296) rotate(-44)" fill="#f9c51a"/>
      <path id="Path_4867" data-name="Path 4867" d="M1.159,0h53.2a1.159,1.159,0,0,1,1.159,1.159V24.188c0,.64-45.495,32.482-46.135,32.482L1.159,50.763A1.159,1.159,0,0,1,0,49.6V1.159A1.159,1.159,0,0,1,1.159,0Z" transform="translate(-22.534 -17.212)" fill="#f9c51a"/>
      <rect id="Rectangle_6479" data-name="Rectangle 6479" width="7.274" height="1.137" rx="0.569" transform="translate(26.962 37.477) rotate(-44)" fill="#3f3d56"/>
      <path id="Path_4857" data-name="Path 4857" d="M237.89,241.483l2.8,56.766,6.544-.285,4.425-43.891,4.964,44.176,5.69-.569,3.939-53.479Z" transform="translate(-170.206 -172.777)" fill="#2f2e41"/>
      <path id="Path_4858" data-name="Path 4858" d="M253.327,64.733c-4.552.461-8.386,1.556-11.3,1.574l-7.3,3.577,1.391,25.1-.705,20.452s11.9,2.952,19.63,4.24,9.464,0,9.464,0l-4.058-17.992-1.41-34.909-5.712-2.037Z" transform="translate(-167.944 -46.315)" fill="#e6e6e6"/>
      <path id="Path_4859" data-name="Path 4859" d="M325.672,148.861l.179-13.961-5.359-1.474.162,15.438-1.233,11.408.032.012a4.48,4.48,0,0,0-1.115,2.33c-.326,1.79.271,3.4,1.334,3.591s2.188-1.1,2.514-2.89a4.887,4.887,0,0,0-.036-2.025l.048.018,3.474-12.446Z" transform="translate(-227.702 -95.463)" fill="#a0616a"/>
      <path id="Path_4860" data-name="Path 4860" d="M149.622,158.861l12-7.136-1.541-5.34L147,154.582l-10.373,4.9.007.034a4.481,4.481,0,0,0-2.569.266c-1.7.656-2.756,2.005-2.366,3.012s2.081,1.292,3.777.635a4.887,4.887,0,0,0,1.708-1.088l.01.05,12.428-3.535Z" transform="translate(-94.17 -104.735)" fill="#a0616a"/>
      <path id="Path_4861" data-name="Path 4861" d="M304.889,70.767a2.747,2.747,0,0,1,4.149.858c1.717,2.718,6.438,16.453,6.438,16.453s1.365,6.295,1.04,7.225-.754,9.115-.754,9.115l-6.708-1.217.162-7.9-6.392-10.2,2.065-14.333Z" transform="translate(-216.666 -50.189)" fill="#e6e6e6"/>
      <path id="Path_4862" data-name="Path 4862" d="M199.062,83.063s-4.721-.32-5.294,2.773-4.149,17.543-4.149,17.543l-7.44,4.721,3.121,6.611a7.56,7.56,0,0,1,3.46-1.317c1.574,0,5.007-2.414,5.007-2.414s6.164-5.417,6.164-6.419-.87-21.5-.87-21.5Z" transform="translate(-130.347 -59.423)" fill="#e6e6e6"/>
      <rect id="Rectangle_6478" data-name="Rectangle 6478" width="2.718" height="31.358" transform="translate(27.227 45.487) rotate(-43.054)" fill="#3f3d56"/>
      <path id="Path_4863" data-name="Path 4863" d="M259.964,71.917a.7.7,0,0,0-.494.5.721.721,0,0,0-.008.322,12.063,12.063,0,0,1,.338,2.431V89.239a.285.285,0,0,0,.285.285h.136a.285.285,0,0,0,.285-.285V75.64a18.883,18.883,0,0,1,.344-2.933.706.706,0,0,0-.886-.79Z" transform="translate(-185.63 -51.438)" fill="#6c63ff"/>
      <path id="Path_4864" data-name="Path 4864" d="M289.708,68.2a.7.7,0,0,0-.494.5.721.721,0,0,0-.008.322,12.075,12.075,0,0,1,.338,2.432V85.168a.284.284,0,0,0,.284.285h.136a.285.285,0,0,0,.285-.285V71.922a18.885,18.885,0,0,1,.344-2.933.7.7,0,0,0,.008-.109.707.707,0,0,0-.894-.681Z" transform="translate(-206.912 -48.778)" fill="#6c63ff"/>
      <path id="Path_4865" data-name="Path 4865" d="M49.676,399.3a.646.646,0,0,1-.468-1.119l.044-.176-.017-.042c-.6-1.421-1.663-.08-3.2.016-2.261.14-2.227,1.85-1.351,3.85.238.543-1.781-3.837-1.781-6.777a19.85,19.85,0,0,1,.123-2.214q.1-.9.283-1.8a20.8,20.8,0,0,1,4.126-8.817,5.536,5.536,0,0,0,2.3-2.389c.178-.364,1.71-.671,1.776-1.07a9.693,9.693,0,0,1-1.73-1.881c-.156-.237-.436-.355-.606-.586-.849-1.15-2.018-.949-2.628.614-1.3.658-1.316,1.749-.516,2.8.509.668.579,1.571,1.025,2.286-.046.059-.094.116-.14.175l-.053.068a1.474,1.474,0,0,1-2.561-.415c-.029-.081-.278,4.3-.091-.234s-1.443-2.225-2.268-3.27a1.778,1.778,0,0,0-3.164.9l0,.045q.183.1.358.219a.876.876,0,0,1-.353,1.594l-.018,0a8.714,8.714,0,0,0,.23,1.3c-1.053,4.072,1.219,5.556,4.465,5.623l.169.241a21.388,21.388,0,0,0-1.1,5.282l0,.037a.827.827,0,0,1-1.453.477,2.686,2.686,0,0,0-.363-.373c-1.407-1.156-3.4-1.582-4.913-2.511a1,1,0,0,0-1.54.978l.006.041a5.874,5.874,0,0,1,.66.318q.183.1.359.219a.876.876,0,0,1-.354,1.593l-.018,0-.037.006.012.028a3.119,3.119,0,0,0,3.016,1.9c1.525-.083,3.419,1.191,5.089,3.446h0a21.365,21.365,0,0,0,1.435,4.19h5.127c.018-.057.035-.116.051-.173a5.825,5.825,0,0,1-1.419-.084c.38-.467.761-.937,1.141-1.4a.311.311,0,0,0,.024-.028c.193-.239.388-.476.581-.715h0a8.533,8.533,0,0,0-.25-2.174h0Z" transform="translate(-24.497 -268.713)" fill="#f2f2f2"/>
      <path id="Path_4866" data-name="Path 4866" d="M0,475.919a.338.338,0,0,0,.339.339H103.131a.339.339,0,0,0,0-.677H.339A.338.338,0,0,0,0,475.919Z" transform="translate(0 -340.27)" fill="#ccc"/>
      <rect id="Rectangle_6476" data-name="Rectangle 6476" width="17.533" height="5.137" rx="1" transform="translate(15.702 45.891) rotate(-44)" fill="#f9c51a"/>
    </g>
  </g>
</svg>
