<svg xmlns="http://www.w3.org/2000/svg" width="539.377" height="301.22" viewBox="0 0 539.377 301.22">
  <g id="design-eebc_002" transform="translate(-1062.407 -1529.457)">
    <text id="_3_983" data-name="3,983" transform="translate(1112.979 1562.714)" fill="#333" font-size="10" font-family="NotoSans, Noto Sans"><tspan x="0" y="0">3,983</tspan></text>
    <text id="_100.00_" data-name="100.00%" transform="translate(1106.308 1574.642)" fill="#353535" font-size="10" font-family="NotoSans, Noto Sans"><tspan x="0" y="0">100.00%</tspan></text>
    <text id="_168" data-name="168" transform="translate(1212.328 1562.714)" fill="#333" font-size="10" font-family="NotoSans, Noto Sans"><tspan x="0" y="0">168</tspan></text>
    <text id="_4.22_" data-name="4.22%" transform="translate(1207.29 1574.642)" fill="#353535" font-size="10" font-family="NotoSans, Noto Sans"><tspan x="0" y="0">4.22%</tspan></text>
    <rect id="Rectangle_71" data-name="Rectangle 71" width="0.578" height="80.31" transform="translate(1085.425 1603.446)" fill="#fff"/>
    <rect id="Rectangle_73" data-name="Rectangle 73" width="0.578" height="80.31" transform="translate(1153.105 1603.446)" fill="#fff"/>
    <rect id="Rectangle_75" data-name="Rectangle 75" width="0.578" height="80.31" transform="translate(1221.364 1603.446)" fill="#fff"/>
    <rect id="Rectangle_77" data-name="Rectangle 77" width="0.578" height="80.31" transform="translate(1289.623 1603.446)" fill="#fff"/>
    <rect id="Rectangle_79" data-name="Rectangle 79" width="0.578" height="80.31" transform="translate(1356.243 1603.446)" fill="#fff"/>
    <rect id="Rectangle_81" data-name="Rectangle 81" width="0.578" height="80.31" transform="translate(1423.923 1603.446)" fill="#fff"/>
    <rect id="Rectangle_83" data-name="Rectangle 83" width="0.578" height="80.31" transform="translate(1492.182 1603.446)" fill="#fff"/>
    <rect id="Rectangle_85" data-name="Rectangle 85" width="0.578" height="80.31" transform="translate(1560.44 1603.446)" fill="#fff"/>
    <rect id="Rectangle_87" data-name="Rectangle 87" width="539.225" height="0.578" transform="translate(1062.479 1683.178)" fill="#efefef"/>
    <rect id="Rectangle_89" data-name="Rectangle 89" width="539.225" height="0.578" transform="translate(1062.479 1643.649)" fill="#efefef"/>
    <path id="Path_452" data-name="Path 452" d="M37.1,140.748V126.383l3.76-13.5,5.11,2.314,5.206-4.724L56.382,123.2l5.206-4.724,5.206-8,5.11,3.182,5.206-.771,5.206,7.134,5.206-3.953,5.206-1.639L97.935,72.2l5.206,40.685,5.206,9.545,5.11-7.231,5.206-7.906L123.87,123.2l5.206-3.182,5.206-26.32,5.206,27.091,5.206,5.592,5.206-3.953,5.11-13.594,5.206-.771,5.206-20.728,5.206,23.91,5.206,13.594,5.206,7.134,5.206-27.863,5.11,10.316,5.206-7.134,5.206-5.592,5.206,8,5.206-2.41,5.206-.868,5.206,7.231,5.206-16,5.206,8,5.206-3.182,5.11,11.184,5.206,9.545,5.206-11.955,5.206-11.184h5.206l5.206,13.594,5.206,11.955h10.316l5.206-13.594,5.206,8.773,5.206-24.681,5.206,36.636,5.206-23.042,5.206,5.5,5.11,5.592,5.206-2.314,5.206-12.823,5.206-20.728,5.206,23.139,5.206-3.182,5.11-3.953,5.206-13.594,5.206,7.134,5.206-16.679,5.206,23.139,5.206,6.363H383.6l5.206-3.182,5.11-13.594,5.206-2.41,5.206,3.182,5.206-7.134,5.206-.771,5.206,20.728,5.206-16h5.11l5.206,2.41,5.206-.771,5.206,11.184h5.206l5.206,3.182,5.206-9.641,5.206.868,5.11,10.316L477.022,85.7l5.206-3.182,5.206.868,5.206,13.5h5.206l5.206-4.724,5.206,18.318,5.206-9.545,5.206.771,5.11.771,5.206-9.545,5.206,5.592,5.206-7.231,5.206-7.134h5.206l5.206,4.821,5.206,15.136,5.11,19.089,5.206-22.271,5.206,30.273v9.545Z" transform="translate(1025.668 1542.719)" fill="#058dc7" opacity="0.098"/>
    <rect id="Rectangle_94" data-name="Rectangle 94" width="539.225" height="0.578" transform="translate(1062.479 1683.178)" fill="#333"/>
    <path id="Path_453" data-name="Path 453" d="M37.1,126.383l3.76-13.5,5.11,2.314,5.206-4.724L56.382,123.2l5.206-4.724,5.206-8,5.11,3.182,5.206-.771,5.206,7.134,5.206-3.953,5.206-1.639L97.935,72.2l5.206,40.685,5.206,9.545,5.11-7.231,5.206-7.906L123.87,123.2l5.206-3.182,5.206-26.32,5.206,27.091,5.206,5.592,5.206-3.953,5.11-13.594,5.206-.771,5.206-20.728,5.206,23.91,5.206,13.594,5.206,7.134,5.206-27.863,5.11,10.316,5.206-7.134,5.206-5.592,5.206,8,5.206-2.41,5.206-.868,5.206,7.231,5.206-16,5.206,8,5.206-3.182,5.11,11.184,5.206,9.545,5.206-11.955,5.206-11.184h5.206l5.206,13.594,5.206,11.955h10.316l5.206-13.594,5.206,8.773,5.206-24.681,5.206,36.636,5.206-23.042,5.206,5.5,5.11,5.592,5.206-2.314,5.206-12.823,5.206-20.728,5.206,23.139,5.206-3.182,5.11-3.953,5.206-13.594,5.206,7.134,5.206-16.679,5.206,23.139,5.206,6.363H383.6l5.206-3.182,5.11-13.594,5.206-2.41,5.206,3.182,5.206-7.134,5.206-.771,5.206,20.728,5.206-16h5.11l5.206,2.41,5.206-.771,5.206,11.184h5.206l5.206,3.182,5.206-9.641,5.206.868,5.11,10.316L477.022,85.7l5.206-3.182,5.206.868,5.206,13.5h5.206l5.206-4.724,5.206,18.318,5.206-9.545,5.206.771,5.11.771,5.206-9.545,5.206,5.592,5.206-7.231,5.206-7.134h5.206l5.206,4.821,5.206,15.136,5.11,19.089,5.206-22.271,5.206,30.273" transform="translate(1025.668 1542.719)" fill="none" stroke="#058dc7" stroke-width="0.75"/>
    <path id="Path_454" data-name="Path 454" d="M37.1,142.916H61.588l5.206-6.363,5.11,3.182,5.206.771,5.206.868h5.206l5.206-.868,5.206,1.639,5.206-.771,5.206,1.543h5.11l5.206-1.543,5.206,1.543h10.412l5.206-.771,5.206.771H149.9l5.11-.771h5.206l5.206.771h15.619l5.206-8.773,5.11-1.543,5.206,3.182,5.206,2.314h5.206l5.206.868,5.206-3.182,5.206,3.182,5.206-4.821,5.206,6.363h5.206l5.11,1.639h5.206l5.206-1.639,5.206,2.41h5.206l5.206-1.543,5.206-1.639,5.206-.771,5.11.771,5.206-3.953,5.206,2.314,5.206-3.953,5.206,8,5.206-8,5.206,3.182,5.11,4.821,5.206.771h5.206l5.206-.771,5.206.771h233.7" transform="translate(1025.668 1540.551)" fill="none" stroke="#ed7e17" stroke-width="1.19"/>
    <text id="_2016" data-name="2016" transform="translate(1070.662 1690.923)" fill="#444" font-size="6" font-family="ArialMT, Arial"><tspan x="0" y="0">2016</tspan></text>
    <text id="年" transform="translate(1084.699 1690.923)" fill="#444" font-size="6" font-family="MS-Gothic, MS Gothic"><tspan x="0" y="0">年</tspan></text>
    <text id="_4" data-name="4" transform="translate(1091.01 1690.923)" fill="#444" font-size="6" font-family="ArialMT, Arial"><tspan x="0" y="0">4</tspan></text>
    <text id="月" transform="translate(1094.519 1690.923)" fill="#444" font-size="6" font-family="MS-Gothic, MS Gothic"><tspan x="0" y="0">月</tspan></text>
    <text id="_2016-2" data-name="2016" transform="translate(1138.179 1690.923)" fill="#444" font-size="6" font-family="ArialMT, Arial"><tspan x="0" y="0">2016</tspan></text>
    <text id="年-2" data-name="年" transform="translate(1152.217 1690.923)" fill="#444" font-size="6" font-family="MS-Gothic, MS Gothic"><tspan x="0" y="0">年</tspan></text>
    <text id="_7" data-name="7" transform="translate(1158.527 1690.923)" fill="#444" font-size="6" font-family="ArialMT, Arial"><tspan x="0" y="0">7</tspan></text>
    <text id="月-2" data-name="月" transform="translate(1162.036 1690.923)" fill="#444" font-size="6" font-family="MS-Gothic, MS Gothic"><tspan x="0" y="0">月</tspan></text>
    <text id="_2016-3" data-name="2016" transform="translate(1204.683 1690.923)" fill="#444" font-size="6" font-family="ArialMT, Arial"><tspan x="0" y="0">2016</tspan></text>
    <text id="年-3" data-name="年" transform="translate(1218.721 1690.923)" fill="#444" font-size="6" font-family="MS-Gothic, MS Gothic"><tspan x="0" y="0">年</tspan></text>
    <text id="_10" data-name="10" transform="translate(1225.031 1690.923)" fill="#444" font-size="5" font-family="ArialMT, Arial"><tspan x="0" y="0">10</tspan></text>
    <text id="月-3" data-name="月" transform="translate(1232.05 1690.923)" fill="#444" font-size="6" font-family="MS-Gothic, MS Gothic"><tspan x="0" y="0">月</tspan></text>
    <text id="_2017" data-name="2017" transform="translate(1274.728 1690.923)" fill="#444" font-size="6" font-family="ArialMT, Arial"><tspan x="0" y="0">2017</tspan></text>
    <text id="年-4" data-name="年" transform="translate(1288.765 1690.923)" fill="#444" font-size="6" font-family="MS-Gothic, MS Gothic"><tspan x="0" y="0">年</tspan></text>
    <text id="_1" data-name="1" transform="translate(1295.075 1690.923)" fill="#444" font-size="6" font-family="ArialMT, Arial"><tspan x="0" y="0">1</tspan></text>
    <text id="月-4" data-name="月" transform="translate(1298.585 1690.923)" fill="#444" font-size="6" font-family="MS-Gothic, MS Gothic"><tspan x="0" y="0">月</tspan></text>
    <text id="_2017-2" data-name="2017" transform="translate(1341.472 1690.923)" fill="#444" font-size="6" font-family="ArialMT, Arial"><tspan x="0" y="0">2017</tspan></text>
    <text id="年-5" data-name="年" transform="translate(1355.509 1690.923)" fill="#444" font-size="6" font-family="MS-Gothic, MS Gothic"><tspan x="0" y="0">年</tspan></text>
    <text id="_4-2" data-name="4" transform="translate(1361.819 1690.923)" fill="#444" font-size="6" font-family="ArialMT, Arial"><tspan x="0" y="0">4</tspan></text>
    <text id="月-5" data-name="月" transform="translate(1365.329 1690.923)" fill="#444" font-size="6" font-family="MS-Gothic, MS Gothic"><tspan x="0" y="0">月</tspan></text>
    <text id="_2017-3" data-name="2017" transform="translate(1408.989 1690.923)" fill="#444" font-size="6" font-family="ArialMT, Arial"><tspan x="0" y="0">2017</tspan></text>
    <text id="年-6" data-name="年" transform="translate(1423.026 1690.923)" fill="#444" font-size="6" font-family="MS-Gothic, MS Gothic"><tspan x="0" y="0">年</tspan></text>
    <text id="_7-2" data-name="7" transform="translate(1429.336 1690.923)" fill="#444" font-size="6" font-family="ArialMT, Arial"><tspan x="0" y="0">7</tspan></text>
    <text id="月-6" data-name="月" transform="translate(1432.846 1690.923)" fill="#444" font-size="6" font-family="MS-Gothic, MS Gothic"><tspan x="0" y="0">月</tspan></text>
    <text id="_2017-4" data-name="2017" transform="translate(1475.493 1690.923)" fill="#444" font-size="6" font-family="ArialMT, Arial"><tspan x="0" y="0">2017</tspan></text>
    <text id="年-7" data-name="年" transform="translate(1489.531 1690.923)" fill="#444" font-size="6" font-family="MS-Gothic, MS Gothic"><tspan x="0" y="0">年</tspan></text>
    <text id="_10-2" data-name="10" transform="translate(1495.841 1690.923)" fill="#444" font-size="5" font-family="ArialMT, Arial"><tspan x="0" y="0">10</tspan></text>
    <text id="月-7" data-name="月" transform="translate(1502.859 1690.923)" fill="#444" font-size="6" font-family="MS-Gothic, MS Gothic"><tspan x="0" y="0">月</tspan></text>
    <text id="_2018" data-name="2018" transform="translate(1545.538 1690.923)" fill="#444" font-size="6" font-family="ArialMT, Arial"><tspan x="0" y="0">2018</tspan></text>
    <text id="年-8" data-name="年" transform="translate(1559.575 1690.923)" fill="#444" font-size="6" font-family="MS-Gothic, MS Gothic"><tspan x="0" y="0">年</tspan></text>
    <text id="_1-2" data-name="1" transform="translate(1565.885 1690.923)" fill="#444" font-size="6" font-family="ArialMT, Arial"><tspan x="0" y="0">1</tspan></text>
    <text id="月-8" data-name="月" transform="translate(1569.395 1690.923)" fill="#444" font-size="6" font-family="MS-Gothic, MS Gothic"><tspan x="0" y="0">月</tspan></text>
    <text id="_50" data-name="50" transform="translate(1064.211 1649.908)" fill="#444" font-size="5" font-family="ArialMT, Arial"><tspan x="0" y="0">50</tspan></text>
    <path id="Path_455" data-name="Path 455" d="M42.949,106.914a2.288,2.288,0,0,0,.289,1.446.783.783,0,0,0,1.35,0,2.71,2.71,0,0,0,.289-1.446,2.288,2.288,0,0,0-.289-1.446.728.728,0,0,0-.675-.386.583.583,0,0,0-.578.289A2.125,2.125,0,0,0,42.949,106.914Zm-.578,0a3.777,3.777,0,0,1,.193-1.253,2.1,2.1,0,0,1,.482-.771,1.1,1.1,0,0,1,.771-.289,1.394,1.394,0,0,1,.675.193,1.692,1.692,0,0,1,.482.386,4.7,4.7,0,0,1,.289.675,3.3,3.3,0,0,1,.1,1.061,4.279,4.279,0,0,1-.193,1.253,2.1,2.1,0,0,1-.482.771,1.179,1.179,0,0,1-.868.289,1.381,1.381,0,0,1-1.061-.482A3.992,3.992,0,0,1,42.371,106.914ZM38.9,107.974l.578-.1a.875.875,0,0,0,.289.675.708.708,0,0,0,.578.193.875.875,0,0,0,.675-.289,1.173,1.173,0,0,0,0-1.543.875.875,0,0,0-.675-.289.723.723,0,0,0-.482.1c-.1.1-.289.193-.386.289l-.482-.1.482-2.314H41.7v.482H39.864l-.289,1.253a1.555,1.555,0,0,1,.868-.289,1.118,1.118,0,0,1,.964.386,1.317,1.317,0,0,1,.386,1.061,1.45,1.45,0,0,1-.386,1.061,1.374,1.374,0,0,1-1.157.578,1.118,1.118,0,0,1-.964-.386A.862.862,0,0,1,38.9,107.974Z" transform="translate(1025.604 1541.556)" fill="none" stroke="#fff" stroke-width="1.785"/>
    <text id="_50-2" data-name="50" transform="translate(1064.211 1649.908)" fill="#444" font-size="5" font-family="ArialMT, Arial"><tspan x="0" y="0">50</tspan></text>
    <text id="_100" data-name="100" transform="translate(1064.211 1610.04)" fill="#444" font-size="5" font-family="ArialMT, Arial"><tspan x="0" y="0">100</tspan></text>
    <path id="Path_456" data-name="Path 456" d="M46.434,65.514a2.288,2.288,0,0,0,.289,1.446.783.783,0,0,0,1.35,0,2.71,2.71,0,0,0,.289-1.446,2.288,2.288,0,0,0-.289-1.446.976.976,0,0,0-.675-.386.583.583,0,0,0-.578.289A2.279,2.279,0,0,0,46.434,65.514Zm-.578,0a3.777,3.777,0,0,1,.193-1.253,2.1,2.1,0,0,1,.482-.771A1.1,1.1,0,0,1,47.3,63.2a1.393,1.393,0,0,1,.675.193,1.693,1.693,0,0,1,.482.386,4.7,4.7,0,0,1,.289.675,3.3,3.3,0,0,1,.1,1.061,4.279,4.279,0,0,1-.193,1.253,2.1,2.1,0,0,1-.482.771,1.1,1.1,0,0,1-.771.289,1.381,1.381,0,0,1-1.061-.482A2.784,2.784,0,0,1,45.856,65.514Zm-2.892,0a2.288,2.288,0,0,0,.289,1.446.976.976,0,0,0,.675.386.728.728,0,0,0,.675-.386,2.71,2.71,0,0,0,.289-1.446,2.288,2.288,0,0,0-.289-1.446.728.728,0,0,0-.675-.386.583.583,0,0,0-.578.289A2.279,2.279,0,0,0,42.964,65.514Zm-.578,0a3.777,3.777,0,0,1,.193-1.253,2.1,2.1,0,0,1,.482-.771,1.1,1.1,0,0,1,.771-.289,1.393,1.393,0,0,1,.675.193,1.693,1.693,0,0,1,.482.386,4.7,4.7,0,0,1,.289.675,3.3,3.3,0,0,1,.1,1.061,4.279,4.279,0,0,1-.193,1.253,2.1,2.1,0,0,1-.482.771,1.178,1.178,0,0,1-.868.289,1.381,1.381,0,0,1-1.061-.482A3.689,3.689,0,0,1,42.385,65.514Zm-1.446,2.314h-.578V64.261a2.1,2.1,0,0,1-.482.386l-.578.289v-.578a5.382,5.382,0,0,0,.771-.482,2.556,2.556,0,0,0,.482-.578h.386Z" transform="translate(1025.589 1543.042)" fill="none" stroke="#fff" stroke-width="1.785"/>
    <text id="_100-2" data-name="100" transform="translate(1064.211 1610.04)" fill="#444" font-size="5" font-family="ArialMT, Arial"><tspan x="0" y="0">100</tspan></text>
    <text id="所" transform="translate(1084.671 1543.308)" font-size="10" font-family="YuGothicUI-Regular, Yu Gothic UI"><tspan x="0" y="0">所</tspan></text>
    <text id="有" transform="translate(1094.697 1543.308)" font-size="10" font-family="YuGothicUI-Regular, Yu Gothic UI"><tspan x="0" y="0">有</tspan></text>
    <text id="使" transform="translate(1104.723 1543.308)" font-size="10" font-family="YuGothicUI-Regular, Yu Gothic UI"><tspan x="0" y="0">使</tspan></text>
    <text id="用" transform="translate(1114.748 1543.308)" font-size="10" font-family="YuGothicUI-Regular, Yu Gothic UI"><tspan x="0" y="0">用</tspan></text>
    <text id="者" transform="translate(1124.775 1543.308)" font-size="10" font-family="YuGothicUI-Regular, Yu Gothic UI"><tspan x="0" y="0">者</tspan></text>
    <rect id="Rectangle_141" data-name="Rectangle 141" width="9.64" height="9.64" transform="translate(1156.889 1535.513)" fill="#ed7e17"/>
    <rect id="Rectangle_142" data-name="Rectangle 142" width="9.64" height="9.64" transform="translate(1065.371 1535.513)" fill="#058dc7"/>
    <text id="S" transform="translate(1176.114 1540.457)" font-size="10" font-family="NotoSans, Noto Sans"><tspan x="0" y="0">S</tspan></text>
    <text id="e" transform="translate(1182.569 1540.457)" font-size="10" font-family="NotoSans, Noto Sans"><tspan x="0" y="0">e</tspan></text>
    <text id="a" transform="translate(1224.031 1540.457)" font-size="10" font-family="NotoSans, Noto Sans"><tspan x="0" y="0">a</tspan></text>
    <text id="r" transform="translate(1197.833 1540.457)" font-size="10" font-family="NotoSans, Noto Sans"><tspan x="0" y="0">r</tspan></text>
    <text id="c" transform="translate(1201.226 1540.457)" font-size="10" font-family="NotoSans, Noto Sans"><tspan x="0" y="0">c</tspan></text>
    <text id="h" transform="translate(1206.474 1540.457)" font-size="10" font-family="NotoSans, Noto Sans"><tspan x="0" y="0">h</tspan></text>
    <text id="o" transform="translate(1211.996 1540.457)" font-size="10" font-family="NotoSans, Noto Sans"><tspan x="0" y="0">o</tspan></text>
    <text id="m" transform="translate(1188.513 1540.457)" font-size="10" font-family="NotoSans, Noto Sans"><tspan x="0" y="0">m</tspan></text>
    <text id="e-2" data-name="e" transform="translate(1218.307 1540.457)" font-size="10" font-family="NotoSans, Noto Sans"><tspan x="0" y="0">e</tspan></text>
    <line id="Line_8" data-name="Line 8" y2="27.381" transform="translate(1295.504 1703.906)" fill="none" stroke="#595757" stroke-miterlimit="10" stroke-width="0.25"/>
    <path id="Path_457" data-name="Path 457" d="M190.01,164.5v43.77H168.8v37.215" transform="translate(1020.941 1539.406)" fill="none" stroke="#595757" stroke-miterlimit="10" stroke-width="0.25"/>
    <line id="Line_9" data-name="Line 9" y2="25.067" transform="translate(1235.633 1703.906)" fill="none" stroke="#595757" stroke-miterlimit="10" stroke-width="0.25"/>
    <path id="Path_458" data-name="Path 458" d="M224.4,164.5v13.69h35.094v67.295" transform="translate(1018.945 1539.406)" fill="none" stroke="#595757" stroke-miterlimit="10" stroke-width="0.25"/>
    <text id="_2017_01_23" data-name="2017/01/23" transform="translate(1290.952 1743.442)" fill="#595757" font-size="6" font-family="NotoSans, Noto Sans"><tspan x="0" y="0">2017/01/23</tspan></text>
    <text id="用XXXX打造健康舒適_" data-name="用XXXX打造健康舒適、" transform="translate(1290.952 1755.011)" fill="#595757" font-size="6" font-family="YuGothicUI-Regular, Yu Gothic UI"><tspan x="0" y="0">用</tspan><tspan y="0" font-family="NotoSans, Noto Sans">XXXX</tspan><tspan y="0">打造健康舒適、</tspan></text>
    <text id="節能環保的自然家屋" transform="translate(1290.952 1762.796)" fill="#595757" font-size="6" font-family="YuGothicUI-Regular, Yu Gothic UI"><tspan x="0" y="0">節能環保的自然家屋</tspan></text>
    <text id="_-XXXXX_人氣3034" data-name="-XXXXX , 人氣3034" transform="translate(1290.952 1774.365)" fill="#595757" font-size="6" font-family="NotoSans, Noto Sans"><tspan x="0" y="0">-XXXXX , </tspan><tspan y="0" font-family="YuGothicUI-Regular, Yu Gothic UI">人氣</tspan><tspan y="0">3034</tspan></text>
    <line id="Line_10" data-name="Line 10" y2="27.381" transform="translate(1384.587 1703.906)" fill="none" stroke="#595757" stroke-miterlimit="10" stroke-width="0.25"/>
    <text id="_2017_05_02_炎熱退散_夏天不裝冷氣一樣涼_-XXXXX_人氣1086" data-name="2017/05/02
炎熱退散！夏天不裝冷氣一樣涼！
-XXXXX , 人氣1086" transform="translate(1379.971 1743.442)" fill="#595757" font-size="6" font-family="NotoSans, Noto Sans"><tspan x="0" y="0">2017/05/02</tspan><tspan font-family="YuGothicUI-Regular, Yu Gothic UI"><tspan x="0" y="10">炎熱退散！夏天不裝冷氣一樣涼！</tspan><tspan y="10" font-family="NotoSans, Noto Sans"></tspan></tspan><tspan x="0" y="20">-XXXXX , </tspan><tspan y="20" font-family="YuGothicUI-Regular, Yu Gothic UI">人氣</tspan><tspan y="20">1086</tspan></text>
    <text id="_2016_09_22" data-name="2016/09/22" transform="translate(1183.641 1797.753)" fill="#595757" font-size="6" font-family="NotoSans, Noto Sans"><tspan x="0" y="0">2016/09/22</tspan></text>
    <text id="隔熱除濕與吸音" transform="translate(1183.641 1809.323)" fill="#595757" font-size="6" font-family="YuGothicUI-Regular, Yu Gothic UI"><tspan x="0" y="0">隔熱除濕與吸音</tspan></text>
    <text id="功能集一身的裝修好幫手" transform="translate(1183.641 1817.107)" fill="#595757" font-size="6" font-family="YuGothicUI-Regular, Yu Gothic UI"><tspan x="0" y="0">功能集一身的裝修好幫手</tspan></text>
    <text id="_-XXXXX_人氣2754" data-name="-XXXXX , 人氣2754" transform="translate(1183.641 1828.677)" fill="#595757" font-size="6" font-family="NotoSans, Noto Sans"><tspan x="0" y="0">-XXXXX , </tspan><tspan y="0" font-family="YuGothicUI-Regular, Yu Gothic UI">人氣</tspan><tspan y="0">2754</tspan></text>
    <text id="_2016_10_20" data-name="2016/10/20" transform="translate(1224.419 1738.943)" fill="#595757" font-size="6" font-family="NotoSans, Noto Sans"><tspan x="0" y="0">2016/10/20</tspan></text>
    <text id="生態與設計的平衡" transform="translate(1224.419 1750.512)" fill="#595757" font-size="6" font-family="YuGothicUI-Regular, Yu Gothic UI"><tspan x="0" y="0">生態與設計的平衡</tspan></text>
    <text id="來自森林的綠建材" transform="translate(1224.419 1758.297)" fill="#595757" font-size="6" font-family="YuGothicUI-Regular, Yu Gothic UI"><tspan x="0" y="0">來自森林的綠建材</tspan></text>
    <text id="_-XXXXX_人氣2590" data-name="-XXXXX , 人氣2590" transform="translate(1224.419 1769.866)" fill="#595757" font-size="6" font-family="NotoSans, Noto Sans"><tspan x="0" y="0">-XXXXX , </tspan><tspan y="0" font-family="YuGothicUI-Regular, Yu Gothic UI">人氣</tspan><tspan y="0">2590</tspan></text>
    <text id="_2016_10_20-2" data-name="2016/10/20" transform="translate(1271.338 1796.79)" fill="#595757" font-size="6" font-family="NotoSans, Noto Sans"><tspan x="0" y="0">2016/10/20</tspan></text>
    <text id="善用XXX打造綠屋頂" transform="translate(1271.338 1808.359)" fill="#595757" font-size="6" font-family="YuGothicUI-Regular, Yu Gothic UI"><tspan x="0" y="0">善用</tspan><tspan y="0" font-family="NotoSans, Noto Sans">XXX</tspan><tspan y="0">打造綠屋頂</tspan></text>
    <text id="降低空調耗能_隔熱加倍又涼爽" data-name="降低空調耗能，隔熱加倍又涼爽" transform="translate(1271.338 1816.144)" fill="#595757" font-size="6" font-family="YuGothicUI-Regular, Yu Gothic UI"><tspan x="0" y="0">降低空調耗能，隔熱加倍又涼爽</tspan></text>
    <text id="_-XXXXX_人氣3205" data-name="-XXXXX , 人氣3205" transform="translate(1271.338 1827.713)" fill="#595757" font-size="6" font-family="NotoSans, Noto Sans"><tspan x="0" y="0">-XXXXX , </tspan><tspan y="0" font-family="YuGothicUI-Regular, Yu Gothic UI">人氣</tspan><tspan y="0">3205</tspan></text>
    <line id="Line_11" data-name="Line 11" y2="50.134" transform="translate(1094.294 1703.906)" fill="none" stroke="#595757" stroke-miterlimit="10" stroke-width="0.25"/>
    <text id="_2016_04_13" data-name="2016/04/13" transform="translate(1092.016 1766.259)" fill="#595757" font-size="6" font-family="NotoSans, Noto Sans"><tspan x="0" y="0">2016/04/13</tspan></text>
    <text id="XXXX_50_週年" data-name="XXXX 50 週年" transform="translate(1092.016 1777.829)" fill="#595757" font-size="6" font-family="NotoSans, Noto Sans"><tspan x="0" y="0">XXXX 50 </tspan><tspan y="0" font-family="YuGothicUI-Regular, Yu Gothic UI">週年</tspan></text>
    <text id="持續專注在一件美好的事物上" transform="translate(1092.016 1785.613)" fill="#595757" font-size="6" font-family="YuGothicUI-Regular, Yu Gothic UI"><tspan x="0" y="0">持續專注在一件美好的事物上</tspan></text>
    <text id="XXXXX_人氣1482" data-name="XXXXX 人氣1482" transform="translate(1092.016 1797.183)" fill="#595757" font-size="6" font-family="NotoSans, Noto Sans"><tspan x="0" y="0">XXXXX </tspan><tspan y="0" font-family="YuGothicUI-Regular, Yu Gothic UI">人氣</tspan><tspan y="0">1482</tspan></text>
  </g>
</svg>
