<svg xmlns="http://www.w3.org/2000/svg" xmlns:xlink="http://www.w3.org/1999/xlink" width="2229.5" height="1484.973" viewBox="0 0 2229.5 1484.973"><defs><filter id="a" x="486.5" y="364.473" width="253" height="126.5" filterUnits="userSpaceOnUse"><feOffset dx="2" dy="8" input="SourceAlpha"/><feGaussianBlur stdDeviation="2.5" result="b"/><feFlood flood-opacity="0.102"/><feComposite operator="in" in2="b"/><feComposite in="SourceGraphic"/></filter><filter id="c" x="784.5" y="364.473" width="253" height="126.5" filterUnits="userSpaceOnUse"><feOffset dx="2" dy="8" input="SourceAlpha"/><feGaussianBlur stdDeviation="2.5" result="d"/><feFlood flood-opacity="0.102"/><feComposite operator="in" in2="d"/><feComposite in="SourceGraphic"/></filter><filter id="e" x="1678.5" y="364.473" width="253" height="126.5" filterUnits="userSpaceOnUse"><feOffset dx="2" dy="8" input="SourceAlpha"/><feGaussianBlur stdDeviation="2.5" result="f"/><feFlood flood-opacity="0.102"/><feComposite operator="in" in2="f"/><feComposite in="SourceGraphic"/></filter><filter id="g" x="486.5" y="535.473" width="253" height="126.5" filterUnits="userSpaceOnUse"><feOffset dx="2" dy="8" input="SourceAlpha"/><feGaussianBlur stdDeviation="2.5" result="h"/><feFlood flood-opacity="0.102"/><feComposite operator="in" in2="h"/><feComposite in="SourceGraphic"/></filter><filter id="i" x="784.5" y="535.473" width="253" height="126.5" filterUnits="userSpaceOnUse"><feOffset dx="2" dy="8" input="SourceAlpha"/><feGaussianBlur stdDeviation="2.5" result="j"/><feFlood flood-opacity="0.102"/><feComposite operator="in" in2="j"/><feComposite in="SourceGraphic"/></filter><filter id="k" x="1082.5" y="535.473" width="253" height="126.5" filterUnits="userSpaceOnUse"><feOffset dx="2" dy="8" input="SourceAlpha"/><feGaussianBlur stdDeviation="2.5" result="l"/><feFlood flood-opacity="0.102"/><feComposite operator="in" in2="l"/><feComposite in="SourceGraphic"/></filter><filter id="m" x="1380.5" y="535.473" width="253" height="126.5" filterUnits="userSpaceOnUse"><feOffset dx="2" dy="8" input="SourceAlpha"/><feGaussianBlur stdDeviation="2.5" result="n"/><feFlood flood-opacity="0.102"/><feComposite operator="in" in2="n"/><feComposite in="SourceGraphic"/></filter><filter id="o" x="1678.5" y="535.473" width="253" height="126.5" filterUnits="userSpaceOnUse"><feOffset dx="2" dy="8" input="SourceAlpha"/><feGaussianBlur stdDeviation="2.5" result="p"/><feFlood flood-opacity="0.102"/><feComposite operator="in" in2="p"/><feComposite in="SourceGraphic"/></filter><filter id="q" x="1976.5" y="535.473" width="253" height="126.5" filterUnits="userSpaceOnUse"><feOffset dx="2" dy="8" input="SourceAlpha"/><feGaussianBlur stdDeviation="2.5" result="r"/><feFlood flood-opacity="0.102"/><feComposite operator="in" in2="r"/><feComposite in="SourceGraphic"/></filter><filter id="s" x="486.5" y="706.473" width="253" height="126.5" filterUnits="userSpaceOnUse"><feOffset dx="2" dy="8" input="SourceAlpha"/><feGaussianBlur stdDeviation="2.5" result="t"/><feFlood flood-opacity="0.102"/><feComposite operator="in" in2="t"/><feComposite in="SourceGraphic"/></filter><filter id="u" x="486.5" y="859.473" width="253" height="126.5" filterUnits="userSpaceOnUse"><feOffset dx="2" dy="8" input="SourceAlpha"/><feGaussianBlur stdDeviation="2.5" result="v"/><feFlood flood-opacity="0.102"/><feComposite operator="in" in2="v"/><feComposite in="SourceGraphic"/></filter><filter id="w" x="1082.5" y="706.473" width="253" height="126.5" filterUnits="userSpaceOnUse"><feOffset dx="2" dy="8" input="SourceAlpha"/><feGaussianBlur stdDeviation="2.5" result="x"/><feFlood flood-opacity="0.102"/><feComposite operator="in" in2="x"/><feComposite in="SourceGraphic"/></filter><filter id="y" x="1678.5" y="706.473" width="253" height="126.5" filterUnits="userSpaceOnUse"><feOffset dx="2" dy="8" input="SourceAlpha"/><feGaussianBlur stdDeviation="2.5" result="z"/><feFlood flood-opacity="0.102"/><feComposite operator="in" in2="z"/><feComposite in="SourceGraphic"/></filter><filter id="aa" x="1714.5" y="949.473" width="237" height="126.5" filterUnits="userSpaceOnUse"><feOffset dx="2" dy="8" input="SourceAlpha"/><feGaussianBlur stdDeviation="2.5" result="ab"/><feFlood flood-opacity="0.102"/><feComposite operator="in" in2="ab"/><feComposite in="SourceGraphic"/></filter><filter id="ac" x="1976.5" y="1358.473" width="253" height="126.5" filterUnits="userSpaceOnUse"><feOffset dx="2" dy="8" input="SourceAlpha"/><feGaussianBlur stdDeviation="2.5" result="ad"/><feFlood flood-opacity="0.102"/><feComposite operator="in" in2="ad"/><feComposite in="SourceGraphic"/></filter><filter id="ae" x="1976.5" y="859.473" width="253" height="126.5" filterUnits="userSpaceOnUse"><feOffset dx="2" dy="8" input="SourceAlpha"/><feGaussianBlur stdDeviation="2.5" result="af"/><feFlood flood-opacity="0.102"/><feComposite operator="in" in2="af"/><feComposite in="SourceGraphic"/></filter><filter id="ag" x="784.5" y="706.473" width="253" height="126.5" filterUnits="userSpaceOnUse"><feOffset dx="2" dy="8" input="SourceAlpha"/><feGaussianBlur stdDeviation="2.5" result="ah"/><feFlood flood-opacity="0.102"/><feComposite operator="in" in2="ah"/><feComposite in="SourceGraphic"/></filter><filter id="ai" x="784.5" y="1012.473" width="253" height="126.5" filterUnits="userSpaceOnUse"><feOffset dx="2" dy="8" input="SourceAlpha"/><feGaussianBlur stdDeviation="2.5" result="aj"/><feFlood flood-opacity="0.102"/><feComposite operator="in" in2="aj"/><feComposite in="SourceGraphic"/></filter><filter id="ak" x="784.5" y="859.473" width="253" height="126.5" filterUnits="userSpaceOnUse"><feOffset dx="2" dy="8" input="SourceAlpha"/><feGaussianBlur stdDeviation="2.5" result="al"/><feFlood flood-opacity="0.102"/><feComposite operator="in" in2="al"/><feComposite in="SourceGraphic"/></filter><filter id="am" x="784.5" y="1175.473" width="253" height="126.5" filterUnits="userSpaceOnUse"><feOffset dx="2" dy="8" input="SourceAlpha"/><feGaussianBlur stdDeviation="2.5" result="an"/><feFlood flood-opacity="0.102"/><feComposite operator="in" in2="an"/><feComposite in="SourceGraphic"/></filter><filter id="ao" x="784.5" y="1358.473" width="253" height="126.5" filterUnits="userSpaceOnUse"><feOffset dx="2" dy="8" input="SourceAlpha"/><feGaussianBlur stdDeviation="2.5" result="ap"/><feFlood flood-opacity="0.102"/><feComposite operator="in" in2="ap"/><feComposite in="SourceGraphic"/></filter><filter id="aq" x="893.5" y="1255.473" width="177" height="95.5" filterUnits="userSpaceOnUse"><feOffset dx="2" dy="8" input="SourceAlpha"/><feGaussianBlur stdDeviation="2.5" result="ar"/><feFlood flood-opacity="0.102"/><feComposite operator="in" in2="ar"/><feComposite in="SourceGraphic"/></filter><filter id="as" x="1065.5" y="1175.473" width="253" height="126.5" filterUnits="userSpaceOnUse"><feOffset dx="2" dy="8" input="SourceAlpha"/><feGaussianBlur stdDeviation="2.5" result="at"/><feFlood flood-opacity="0.102"/><feComposite operator="in" in2="at"/><feComposite in="SourceGraphic"/></filter><filter id="au" x="1380.5" y="706.473" width="253" height="126.5" filterUnits="userSpaceOnUse"><feOffset dx="2" dy="8" input="SourceAlpha"/><feGaussianBlur stdDeviation="2.5" result="av"/><feFlood flood-opacity="0.102"/><feComposite operator="in" in2="av"/><feComposite in="SourceGraphic"/></filter><filter id="aw" x="1976.5" y="706.473" width="253" height="126.5" filterUnits="userSpaceOnUse"><feOffset dx="2" dy="8" input="SourceAlpha"/><feGaussianBlur stdDeviation="2.5" result="ax"/><feFlood flood-opacity="0.102"/><feComposite operator="in" in2="ax"/><feComposite in="SourceGraphic"/></filter><filter id="ay" x="1678.5" y="859.473" width="253" height="126.5" filterUnits="userSpaceOnUse"><feOffset dx="2" dy="8" input="SourceAlpha"/><feGaussianBlur stdDeviation="2.5" result="az"/><feFlood flood-opacity="0.102"/><feComposite operator="in" in2="az"/><feComposite in="SourceGraphic"/></filter></defs><g transform="translate(-94 -46.527)"><g transform="translate(586 411)"><g transform="matrix(1, 0, 0, 1, -492, -364.47)" filter="url(#a)"><g transform="translate(492 364.47)" fill="#f17889" stroke="rgba(118,118,118,0.3)" stroke-width="2"><rect width="238" height="111" rx="4" stroke="none"/><rect x="1" y="1" width="236" height="109" rx="3" fill="none"/></g></g><rect width="214" height="87" transform="translate(12 12)" fill="#fff" opacity="0"/><text transform="translate(12 41)" fill="#292929" font-size="20" font-family="NotoSans-Medium, Noto Sans" font-weight="500" opacity="0.8"><tspan x="0" y="21">Set up Application</tspan></text></g><g transform="translate(884 411)"><g transform="matrix(1, 0, 0, 1, -790, -364.47)" filter="url(#c)"><g transform="translate(790 364.47)" fill="#f17889" stroke="rgba(118,118,118,0.3)" stroke-width="2"><rect width="238" height="111" rx="4" stroke="none"/><rect x="1" y="1" width="236" height="109" rx="3" fill="none"/></g></g><rect width="214" height="87" transform="translate(12 12)" fill="#fff" opacity="0"/><text transform="translate(12 46)" fill="#292929" font-size="20" font-family="NotoSans-Medium, Noto Sans" font-weight="500" opacity="0.8"><tspan x="0" y="21">Get Video Output</tspan></text></g><g transform="translate(1778 411)"><g transform="matrix(1, 0, 0, 1, -1684, -364.47)" filter="url(#e)"><g transform="translate(1684 364.47)" fill="#f17889" stroke="rgba(118,118,118,0.3)" stroke-width="2"><rect width="238" height="111" rx="4" stroke="none"/><rect x="1" y="1" width="236" height="109" rx="3" fill="none"/></g></g><rect width="214" height="87" transform="translate(12 12)" fill="#fff" opacity="0"/><text transform="translate(12 17)" fill="#292929" font-size="20" font-family="NotoSans-Medium, Noto Sans" font-weight="500" opacity="0.8"><tspan x="0" y="21">Let vedio into my </tspan><tspan x="0" y="45">Streaming AP, like </tspan><tspan x="0" y="69">Teams, Zoom</tspan></text></g><g transform="translate(586 582)"><g transform="matrix(1, 0, 0, 1, -492, -535.47)" filter="url(#g)"><g transform="translate(492 535.47)" fill="#ea9cc0" stroke="rgba(118,118,118,0.3)" stroke-width="2"><rect width="238" height="111" rx="4" stroke="none"/><rect x="1" y="1" width="236" height="109" rx="3" fill="none"/></g></g><rect width="214" height="87" transform="translate(12 12)" fill="#fff" opacity="0"/><text transform="translate(12 29)" fill="#292929" font-size="20" font-family="NotoSans-Medium, Noto Sans" font-weight="500" opacity="0.8"><tspan x="0" y="21">Download and set up </tspan><tspan x="0" y="45">this APP</tspan></text></g><g transform="translate(884 582)"><g transform="matrix(1, 0, 0, 1, -790, -535.47)" filter="url(#i)"><g transform="translate(790 535.47)" fill="#ea9cc0" stroke="rgba(118,118,118,0.3)" stroke-width="2"><rect width="238" height="111" rx="4" stroke="none"/><rect x="1" y="1" width="236" height="109" rx="3" fill="none"/></g></g><rect width="214" height="87" transform="translate(12 12)" fill="#fff" opacity="0"/><text transform="translate(12 41)" fill="#292929" font-size="20" font-family="NotoSans-Medium, Noto Sans" font-weight="500" opacity="0.8"><tspan x="0" y="21">Get UC9020/40 IP</tspan></text></g><g transform="translate(1182 582)"><g transform="matrix(1, 0, 0, 1, -1088, -535.47)" filter="url(#k)"><g transform="translate(1088 535.47)" fill="#ea9cc0" stroke="rgba(118,118,118,0.3)" stroke-width="2"><rect width="238" height="111" rx="4" stroke="none"/><rect x="1" y="1" width="236" height="109" rx="3" fill="none"/></g></g><rect width="214" height="87" transform="translate(12 12)" fill="#fff" opacity="0"/><text transform="translate(12 41)" fill="#292929" font-size="20" font-family="NotoSans-Medium, Noto Sans" font-weight="500" opacity="0.8"><tspan x="0" y="21">Check the video</tspan></text></g><g transform="translate(1480 582)"><g transform="matrix(1, 0, 0, 1, -1386, -535.47)" filter="url(#m)"><g transform="translate(1386 535.47)" fill="#ea9cc0" stroke="rgba(118,118,118,0.3)" stroke-width="2"><rect width="238" height="111" rx="4" stroke="none"/><rect x="1" y="1" width="236" height="109" rx="3" fill="none"/></g></g><rect width="214" height="87" transform="translate(12 12)" fill="#fff" opacity="0"/><text transform="translate(12 17)" fill="#292929" font-size="20" font-family="NotoSans-Medium, Noto Sans" font-weight="500" opacity="0.8"><tspan x="0" y="21">Manage the device </tspan><tspan x="0" y="45">which have been </tspan><tspan x="0" y="69">connected</tspan></text></g><g transform="translate(1778 582)"><g transform="matrix(1, 0, 0, 1, -1684, -535.47)" filter="url(#o)"><g transform="translate(1684 535.47)" fill="#ea9cc0" stroke="rgba(118,118,118,0.3)" stroke-width="2"><rect width="238" height="111" rx="4" stroke="none"/><rect x="1" y="1" width="236" height="109" rx="3" fill="none"/></g></g><rect width="214" height="87" transform="translate(12 12)" fill="#fff" opacity="0"/><text transform="translate(12 29)" fill="#292929" font-size="20" font-family="NotoSans-Medium, Noto Sans" font-weight="500" opacity="0.8"><tspan x="0" y="21">Let Steaming AP find </tspan><tspan x="0" y="45">the video source</tspan></text></g><g transform="translate(2076 582)"><g transform="matrix(1, 0, 0, 1, -1982, -535.47)" filter="url(#q)"><g transform="translate(1982 535.47)" fill="#ea9cc0" stroke="rgba(118,118,118,0.3)" stroke-width="2"><rect width="238" height="111" rx="4" stroke="none"/><rect x="1" y="1" width="236" height="109" rx="3" fill="none"/></g></g><rect width="214" height="87" transform="translate(12 12)" fill="#fff" opacity="0"/><text transform="translate(12 17)" fill="#292929" font-size="20" font-family="NotoSans-Medium, Noto Sans" font-weight="500" opacity="0.8"><tspan x="0" y="21">Make Video Source  </tspan><tspan x="0" y="45">conform the </tspan><tspan x="0" y="69">Steaming AP</tspan></text></g><g transform="translate(586 753)"><g transform="matrix(1, 0, 0, 1, -492, -706.47)" filter="url(#s)"><g transform="translate(492 706.47)" fill="#fff9b2" stroke="rgba(118,118,118,0.3)" stroke-width="2"><rect width="238" height="111" rx="4" stroke="none"/><rect x="1" y="1" width="236" height="109" rx="3" fill="none"/></g></g><rect width="214" height="87" transform="translate(12 12)" fill="#fff" opacity="0"/><text transform="translate(12 46)" fill="#292929" font-size="16" font-family="NotoSans-Medium, Noto Sans" font-weight="500" opacity="0.8"><tspan x="0" y="17">Aware this APP</tspan></text></g><g transform="translate(586 906)"><g transform="matrix(1, 0, 0, 1, -492, -859.47)" filter="url(#u)"><g transform="translate(492 859.47)" fill="#fff9b2" stroke="rgba(118,118,118,0.3)" stroke-width="2"><rect width="238" height="111" rx="4" stroke="none"/><rect x="1" y="1" width="236" height="109" rx="3" fill="none"/></g></g><rect width="214" height="87" transform="translate(12 12)" fill="#fff" opacity="0"/><text transform="translate(12 46)" fill="#292929" font-size="16" font-family="NotoSans-Medium, Noto Sans" font-weight="500" opacity="0.8"><tspan x="0" y="17">Find the Download link</tspan></text></g><g transform="translate(1182 753)"><g transform="matrix(1, 0, 0, 1, -1088, -706.47)" filter="url(#w)"><g transform="translate(1088 706.47)" fill="#fff9b2" stroke="rgba(118,118,118,0.3)" stroke-width="2"><rect width="238" height="111" rx="4" stroke="none"/><rect x="1" y="1" width="236" height="109" rx="3" fill="none"/></g></g><rect width="214" height="87" transform="translate(12 12)" fill="#fff" opacity="0"/><text transform="translate(12 46)" fill="#292929" font-size="16" font-family="NotoSans-Medium, Noto Sans" font-weight="500" opacity="0.8"><tspan x="0" y="17">Preview the video Source</tspan></text></g><g transform="translate(1778 753)"><g transform="matrix(1, 0, 0, 1, -1684, -706.47)" filter="url(#y)"><g transform="translate(1684 706.47)" fill="#fff9b2" stroke="rgba(118,118,118,0.3)" stroke-width="2"><rect width="238" height="111" rx="4" stroke="none"/><rect x="1" y="1" width="236" height="109" rx="3" fill="none"/></g></g><rect width="214" height="87" transform="translate(12 12)" fill="#fff" opacity="0"/><text transform="translate(12 24)" fill="#292929" font-size="16" font-family="NotoSans-Medium, Noto Sans" font-weight="500" opacity="0.8"><tspan x="0" y="17">Find the source in Steaming </tspan><tspan x="0" y="39">AP it&apos;s not our business?</tspan></text></g><g transform="translate(1814 996)"><g transform="matrix(1, 0, 0, 1, -1720, -949.47)" filter="url(#aa)"><g transform="translate(1720 949.47)" fill="#fff9b2" stroke="rgba(118,118,118,0.3)" stroke-width="2"><rect width="222" height="111" rx="4" stroke="none"/><rect x="1" y="1" width="220" height="109" rx="3" fill="none"/></g></g><rect width="198" height="87" transform="translate(12 12)" fill="#fff" opacity="0"/><text transform="translate(12 43)" fill="#292929" font-size="16" font-family="NotoSans-Medium, Noto Sans" font-weight="500" opacity="0.8"><tspan x="0" y="17">just like users have many </tspan><tspan x="0" y="39">UC3020</tspan></text></g><g transform="translate(2076 1405)"><g transform="matrix(1, 0, 0, 1, -1982, -1358.47)" filter="url(#ac)"><g transform="translate(1982 1358.47)" fill="#f4f5f7" stroke="rgba(118,118,118,0.3)" stroke-width="2"><rect width="238" height="111" rx="4" stroke="none"/><rect x="1" y="1" width="236" height="109" rx="3" fill="none"/></g></g><rect width="214" height="87" transform="translate(12 12)" fill="#fff" opacity="0"/><text transform="translate(12 46)" fill="#292929" font-size="16" font-family="NotoSans-Medium, Noto Sans" font-weight="500" opacity="0.8"><tspan x="0" y="17">Rotate the Video</tspan></text></g><g transform="translate(2076 906)"><g transform="matrix(1, 0, 0, 1, -1982, -859.47)" filter="url(#ae)"><g transform="translate(1982 859.47)" fill="#fff9b2" stroke="rgba(118,118,118,0.3)" stroke-width="2"><rect width="238" height="111" rx="4" stroke="none"/><rect x="1" y="1" width="236" height="109" rx="3" fill="none"/></g></g><rect width="214" height="87" transform="translate(12 12)" fill="#fff" opacity="0"/><text transform="translate(12 33)" fill="#292929" font-size="16" font-family="NotoSans-Medium, Noto Sans" font-weight="500" opacity="0.8"><tspan x="0" y="17">Mirror the Video when APP </tspan><tspan x="0" y="39">wouldn&apos;t mirror it.</tspan></text></g><g transform="translate(884 753)"><g transform="matrix(1, 0, 0, 1, -790, -706.47)" filter="url(#ag)"><g transform="translate(790 706.47)" fill="#fff9b2" stroke="rgba(118,118,118,0.3)" stroke-width="2"><rect width="238" height="111" rx="4" stroke="none"/><rect x="1" y="1" width="236" height="109" rx="3" fill="none"/></g></g><rect width="214" height="87" transform="translate(12 12)" fill="#fff" opacity="0"/><text transform="translate(12 43)" fill="#292929" font-size="16" font-family="NotoSans-Medium, Noto Sans" font-weight="500" opacity="0.8"><tspan x="0" y="17">Auto find the UC9020/40 IP </tspan><tspan x="0" y="39">or </tspan><tspan y="39" font-family="YuGothicUI-Semibold, Yu Gothic UI" font-weight="600">Ｍ</tspan><tspan y="39">ycam</tspan></text></g><g transform="translate(884 1059)"><g transform="matrix(1, 0, 0, 1, -790, -1012.47)" filter="url(#ai)"><g transform="translate(790 1012.47)" fill="#fff9b2" stroke="rgba(118,118,118,0.3)" stroke-width="2"><rect width="238" height="111" rx="4" stroke="none"/><rect x="1" y="1" width="236" height="109" rx="3" fill="none"/></g></g><rect width="214" height="87" transform="translate(12 12)" fill="#fff" opacity="0"/><text transform="translate(12 46)" fill="#292929" font-size="16" font-family="NotoSans-Medium, Noto Sans" font-weight="500" opacity="0.8"><tspan x="0" y="17">Mantul input IP</tspan></text></g><g transform="translate(884 906)"><g transform="matrix(1, 0, 0, 1, -790, -859.47)" filter="url(#ak)"><g transform="translate(790 859.47)" fill="#fff9b2" stroke="rgba(118,118,118,0.3)" stroke-width="2"><rect width="238" height="111" rx="4" stroke="none"/><rect x="1" y="1" width="236" height="109" rx="3" fill="none"/></g></g><rect width="214" height="87" transform="translate(12 12)" fill="#fff" opacity="0"/><text transform="translate(12 34)" fill="#292929" font-size="16" font-family="NotoSans-Medium, Noto Sans" font-weight="500" opacity="0.8"><tspan x="0" y="17">Select the Device and name </tspan><tspan x="0" y="39">it</tspan></text></g><g transform="translate(884 1222)"><g transform="matrix(1, 0, 0, 1, -790, -1175.47)" filter="url(#am)"><g transform="translate(790 1175.47)" fill="#fff9b2" stroke="rgba(118,118,118,0.3)" stroke-width="2"><rect width="238" height="111" rx="4" stroke="none"/><rect x="1" y="1" width="236" height="109" rx="3" fill="none"/></g></g><rect width="214" height="87" transform="translate(12 12)" fill="#fff" opacity="0"/><text transform="translate(12 46)" fill="#292929" font-size="16" font-family="NotoSans-Medium, Noto Sans" font-weight="500" opacity="0.8"><tspan x="0" y="17">Connect multi-Source</tspan></text></g><g transform="translate(884 1405)"><g transform="matrix(1, 0, 0, 1, -790, -1358.47)" filter="url(#ao)"><g transform="translate(790 1358.47)" fill="#fff9b2" stroke="rgba(118,118,118,0.3)" stroke-width="2"><rect width="238" height="111" rx="4" stroke="none"/><rect x="1" y="1" width="236" height="109" rx="3" fill="none"/></g></g><rect width="214" height="87" transform="translate(12 12)" fill="#fff" opacity="0"/><text transform="translate(12 46)" fill="#292929" font-size="16" font-family="NotoSans-Medium, Noto Sans" font-weight="500" opacity="0.8"><tspan x="0" y="17">Get other device IP</tspan></text></g><g transform="translate(993 1302)"><g transform="matrix(1, 0, 0, 1, -899, -1255.47)" filter="url(#aq)"><g transform="translate(899 1255.47)" fill="#fff9b2" stroke="rgba(118,118,118,0.3)" stroke-width="2"><rect width="162" height="80" rx="4" stroke="none"/><rect x="1" y="1" width="160" height="78" rx="3" fill="none"/></g></g><rect width="138" height="56" transform="translate(12 12)" fill="#fff" opacity="0"/><text transform="translate(12 20)" fill="#292929" font-size="15" font-family="NotoSans-Medium, Noto Sans" font-weight="500" opacity="0.8"><tspan x="0" y="16">make it as </tspan><tspan x="0" y="36">advanced function</tspan></text></g><g transform="translate(1165 1222)"><g transform="matrix(1, 0, 0, 1, -1071, -1175.47)" filter="url(#as)"><g transform="translate(1071 1175.47)" fill="#fff9b2" stroke="rgba(118,118,118,0.3)" stroke-width="2"><rect width="238" height="111" rx="4" stroke="none"/><rect x="1" y="1" width="236" height="109" rx="3" fill="none"/></g></g><rect width="214" height="87" transform="translate(12 12)" fill="#fff" opacity="0"/><text transform="translate(12 46)" fill="#292929" font-size="16" font-family="NotoSans-Medium, Noto Sans" font-weight="500" opacity="0.8"><tspan x="0" y="17">Select Source</tspan></text></g><g transform="translate(1480 753)"><g transform="matrix(1, 0, 0, 1, -1386, -706.47)" filter="url(#au)"><g transform="translate(1386 706.47)" fill="#fff9b2" stroke="rgba(118,118,118,0.3)" stroke-width="2"><rect width="238" height="111" rx="4" stroke="none"/><rect x="1" y="1" width="236" height="109" rx="3" fill="none"/></g></g><rect width="214" height="87" transform="translate(12 12)" fill="#fff" opacity="0"/><text transform="translate(12 46)" fill="#292929" font-size="16" font-family="NotoSans-Medium, Noto Sans" font-weight="500" opacity="0.8"><tspan x="0" y="17">Disconnect Device</tspan></text></g><g transform="translate(2076 753)"><g transform="matrix(1, 0, 0, 1, -1982, -706.47)" filter="url(#aw)"><g transform="translate(1982 706.47)" fill="#fff9b2" stroke="rgba(118,118,118,0.3)" stroke-width="2"><rect width="238" height="111" rx="4" stroke="none"/><rect x="1" y="1" width="236" height="109" rx="3" fill="none"/></g></g><rect width="214" height="87" transform="translate(12 12)" fill="#fff" opacity="0"/><text transform="translate(12 33)" fill="#292929" font-size="16" font-family="NotoSans-Medium, Noto Sans" font-weight="500" opacity="0.8"><tspan x="0" y="17">Video Auto-fit for the size </tspan><tspan x="0" y="39">what other AP supports</tspan></text></g><g transform="translate(94 46.527)"><g transform="translate(0 44.472)" fill="#e6e6e6" stroke="rgba(118,118,118,0.3)" stroke-width="2"><rect width="575" height="197" rx="4" stroke="none"/><rect x="1" y="1" width="573" height="195" rx="3" fill="none"/></g><rect width="551" height="173" transform="translate(12 56.472)" fill="#fff" opacity="0"/><text transform="translate(30 125.472)" fill="#292929" font-size="18" font-family="NotoSans-Medium, Noto Sans" font-weight="500" opacity="0.8"><tspan x="0" y="19">Who represent of groups , like enterprise, church, school. </tspan><tspan x="0" y="43">Who want to start streaming by UC9000 but doesn&apos;t have </tspan><tspan x="0" y="67">iPad. ( Who want to buy UC9020 but doesn&apos;t have iPad )</tspan></text><g transform="translate(30)"><path d="M0,44.856V40.469q0-2.289,8.2-5.438a45.361,45.361,0,0,1,33.2,0q8.2,3.147,8.2,5.44v4.388ZM15.563,9a9,9,0,1,1,9,9A9,9,0,0,1,15.563,9Z" transform="translate(3.437 5.472)" fill="#393939"/><path d="M28.239,8.431A7.35,7.35,0,0,0,20.867,15.8a7.354,7.354,0,0,0,7.371,7.371A7.354,7.354,0,0,0,35.61,15.8a7.11,7.11,0,0,0-2.154-5.217,7.1,7.1,0,0,0-5.217-2.154Zm.083,31.8a39.934,39.934,0,0,0-14.41,2.733Q6.79,45.7,6.79,47.684v3.81H49.854v-3.81q0-1.989-7.121-4.721a39.906,39.906,0,0,0-14.412-2.731ZM28.239,1.641A13.65,13.65,0,0,1,38.26,5.781,13.65,13.65,0,0,1,42.4,15.8a13.65,13.65,0,0,1-4.14,10.021,13.65,13.65,0,0,1-10.021,4.14,13.65,13.65,0,0,1-10.021-4.14A13.65,13.65,0,0,1,14.077,15.8,13.647,13.647,0,0,1,18.219,5.781a13.655,13.655,0,0,1,10.021-4.14Zm0,31.8a50.306,50.306,0,0,1,11.512,1.49,36.219,36.219,0,0,1,11.512,4.887q5.217,3.4,5.217,7.865v10.6H0v-10.6q0-4.471,5.217-7.867a36.183,36.183,0,0,1,11.512-4.885,50.464,50.464,0,0,1,11.512-1.49Z" transform="translate(0 -1.641)" fill="#393939"/></g><text transform="translate(30 103.472)" fill="#292929" font-size="28" font-family="NotoSansTC-Bold, Noto Sans TC" font-weight="700" opacity="0.8"><tspan x="0" y="0">System intergrator</tspan></text></g><text transform="translate(94 503)" fill="#393939" font-size="32" font-family="NotoSans-Bold, Noto Sans" font-weight="700"><tspan x="0" y="0">User activities</tspan></text><text transform="translate(94 650)" fill="#393939" font-size="32" font-family="NotoSans-Bold, Noto Sans" font-weight="700"><tspan x="0" y="0">User tasks</tspan></text><text transform="translate(94 821)" fill="#393939" font-size="32" font-family="NotoSans-Bold, Noto Sans" font-weight="700"><tspan x="0" y="0">User stories Release 1</tspan></text><text transform="translate(94 968)" fill="#393939" font-size="32" font-family="NotoSans-Bold, Noto Sans" font-weight="700"><tspan x="0" y="0">Release 2</tspan></text><text transform="translate(94 1457)" fill="#393939" font-size="32" font-family="NotoSans-Bold, Noto Sans" font-weight="700"><tspan x="0" y="0">Release 3</tspan></text><text transform="translate(1761 1444)" fill="#888" font-size="24" font-family="NotoSans, Noto Sans"><tspan x="0" y="0">If video Source = phone</tspan></text><g transform="translate(1778 906)"><g transform="matrix(1, 0, 0, 1, -1684, -859.47)" filter="url(#ay)"><g transform="translate(1684 859.47)" fill="#fff9b2" stroke="rgba(118,118,118,0.3)" stroke-width="2"><rect width="238" height="111" rx="4" stroke="none"/><rect x="1" y="1" width="236" height="109" rx="3" fill="none"/></g></g><rect width="214" height="87" transform="translate(12 12)" fill="#fff" opacity="0"/><text transform="translate(12 33)" fill="#292929" font-size="16" font-family="NotoSans-Medium, Noto Sans" font-weight="500" opacity="0.8"><tspan x="0" y="17">Change the Video Source in </tspan><tspan x="0" y="39">Others APP</tspan></text></g><g transform="translate(1403 969.881)"><path d="M375,0C0,0,375,302.619,0,302.619" transform="translate(0 5)" fill="none" stroke="rgba(0,0,0,0.2)" stroke-width="2" stroke-dasharray="2 2"/><circle cx="5" cy="5" r="5" transform="translate(365)" fill="rgba(0,0,0,0.2)"/><path d="M6,0,.4,4.655a1.1,1.1,0,0,0,0,1.69L6,11" transform="translate(0.5 302.119)" fill="none" stroke="rgba(0,0,0,0.2)" stroke-linecap="round" stroke-width="2"/></g><g transform="translate(-299 -120)"><path d="M43,0H0" transform="translate(1421 1397.5)" fill="none" stroke="rgba(0,0,0,0.2)" stroke-width="2" stroke-dasharray="2 2"/><circle cx="5" cy="5" r="5" transform="translate(1454 1392.5)" fill="rgba(0,0,0,0.2)"/><path d="M6,0,.4,4.655a1.1,1.1,0,0,0,0,1.69L6,11" transform="translate(1421.5 1392)" fill="none" stroke="rgba(0,0,0,0.2)" stroke-linecap="round" stroke-width="2"/></g><g transform="translate(1122 969.881)"><path d="M656,0C484.546,0,507.545,85.83,507.251,274.811,507.067,393.186,382.4,485.619,0,485.619" transform="translate(0 5)" fill="none" stroke="rgba(0,0,0,0.2)" stroke-width="2" stroke-dasharray="2 2"/><circle cx="5" cy="5" r="5" transform="translate(646 0)" fill="rgba(0,0,0,0.2)"/><path d="M6,0,.4,4.655a1.1,1.1,0,0,0,0,1.69L6,11" transform="translate(0.5 485.119)" fill="none" stroke="rgba(0,0,0,0.2)" stroke-linecap="round" stroke-width="2"/></g><g transform="translate(-299 -120)"><path d="M954,0H0" transform="translate(1421 1580.5)" fill="none" stroke="rgba(0,0,0,0.2)" stroke-width="2" stroke-dasharray="2 2"/><path d="M6,0,.4,4.655a1.1,1.1,0,0,0,0,1.69L6,11" transform="translate(1421.5 1575)" fill="none" stroke="rgba(0,0,0,0.2)" stroke-linecap="round" stroke-width="2"/><path d="M0,0,5.6,4.655a1.1,1.1,0,0,1,0,1.69L0,11" transform="translate(2368.5 1575)" fill="none" stroke="rgba(0,0,0,0.2)" stroke-linecap="round" stroke-width="2"/></g></g></svg>