<svg xmlns="http://www.w3.org/2000/svg" viewBox="0 0 341.502 258.461">
  <defs>
    <style>
      .cls-1, .cls-10, .cls-6, .cls-9 {
        fill: #717071;
      }

      .cls-1 {
        font-size: 14px;
        font-family: YuGothicUI-Regular, Yu Gothic UI;
        letter-spacing: 0.1em;
      }

      .cls-2 {
        font-family: SegoeUI, Segoe UI;
      }

      .cls-3, .cls-4, .cls-5 {
        fill: none;
        stroke-miterlimit: 10;
      }

      .cls-3 {
        stroke: #eeb017;
        stroke-width: 1.452px;
      }

      .cls-3, .cls-4 {
        stroke-linecap: round;
      }

      .cls-4 {
        stroke: gray;
        stroke-width: 1.544px;
      }

      .cls-5 {
        stroke: #717071;
        stroke-width: 0.581px;
      }

      .cls-7 {
        fill: #eeb017;
      }

      .cls-8 {
        fill: #595757;
      }

      .cls-9 {
        font-size: 12px;
      }

      .cls-10, .cls-9 {
        font-family: MicrosoftJhengHeiUIRegular, Microsoft JhengHei UI;
      }

      .cls-10 {
        font-size: 13px;
      }
    </style>
  </defs>
  <g id="_016" data-name="016" transform="translate(-907.799 -1991.266)">
    <text id="環境音分貝46.2" class="cls-1" transform="translate(1011.199 2245.727)"><tspan x="0" y="0">環境音分貝</tspan><tspan class="cls-2" y="0">46.2</tspan></text>
    <line id="Line_964" data-name="Line 964" class="cls-3" x1="40.7" y1="6.9" transform="translate(1202.4 2129.4)"/>
    <line id="Line_965" data-name="Line 965" class="cls-3" x1="40.7" y1="7.3" transform="translate(1161.7 2122.1)"/>
    <line id="Line_966" data-name="Line 966" class="cls-3" x1="40.7" y1="7.8" transform="translate(1121 2114.3)"/>
    <line id="Line_967" data-name="Line 967" class="cls-3" x1="40.7" y1="6.8" transform="translate(1080.3 2107.5)"/>
    <line id="Line_968" data-name="Line 968" class="cls-3" x1="40.7" y1="12.6" transform="translate(1039.6 2094.9)"/>
    <line id="Line_969" data-name="Line 969" class="cls-3" x1="40.7" y1="10.1" transform="translate(998.9 2084.8)"/>
    <line id="Line_970" data-name="Line 970" class="cls-3" x1="40.7" y1="9.8" transform="translate(958.2 2075)"/>
    <line id="Line_971" data-name="Line 971" class="cls-4" x1="40.7" y1="2.2" transform="translate(1202.4 2060.8)"/>
    <line id="Line_972" data-name="Line 972" class="cls-4" x1="40.7" transform="translate(1161.7 2060.8)"/>
    <line id="Line_973" data-name="Line 973" class="cls-4" x1="40.7" y1="4.6" transform="translate(1121 2056.2)"/>
    <line id="Line_974" data-name="Line 974" class="cls-4" x1="40.7" y1="4.6" transform="translate(1080.3 2051.6)"/>
    <line id="Line_975" data-name="Line 975" class="cls-4" x1="40.7" y1="2.3" transform="translate(1039.6 2049.3)"/>
    <line id="Line_976" data-name="Line 976" class="cls-4" x1="40.7" y1="6.8" transform="translate(998.9 2042.5)"/>
    <line id="Line_977" data-name="Line 977" class="cls-4" x1="40.7" transform="translate(958.2 2042.5)"/>
    <text id="抗噪前" class="cls-1" transform="translate(945.646 2214.473)"><tspan x="0" y="0">抗噪前</tspan></text>
    <text id="抗噪後" class="cls-1" transform="translate(945.646 2245.727)"><tspan x="0" y="0">抗噪後</tspan></text>
    <path id="Path_20175" data-name="Path 20175" class="cls-5" d="M3444.4,4245.5v-3.2m-38.3,3.2v-3.2m-38.2,3.2v-3.2m-38.3,3.2v-3.2m-38.3,3.2v-3.2m-38.2,3.2v-3.2m-38.3,3.2v-3.2m-38.3,3.2v-3.2m-38.2,3.2v-3.2m0,3.2h306.2" transform="translate(-2201 -2086)"/>
    <path id="Path_20176" data-name="Path 20176" class="cls-5" d="M3138.3,4116.4h7.6m-7.6,43h7.6m-7.6,43.1h7.6m-7.6,43h7.6m-7.6,0V4116.4" transform="translate(-2201 -2086)"/>
    <rect id="Rectangle_1388" data-name="Rectangle 1388" class="cls-6" width="7.1" height="7.9" transform="translate(933.3 2205.9)"/>
    <rect id="Rectangle_1389" data-name="Rectangle 1389" class="cls-7" width="7" height="7.5" transform="translate(933.3 2238)"/>
    <path id="Path_20177" data-name="Path 20177" class="cls-8" d="M3171.2,4256c-.6,0-1,.4-1.3,1.1a8.324,8.324,0,0,0-.5,3.1q0,4.2,1.8,4.2c.6,0,1-.4,1.3-1.1a9.861,9.861,0,0,0,0-6.2,1.56,1.56,0,0,0-1.3-1.1m-.1,9.3a1.879,1.879,0,0,1-1.8-1.3,12.33,12.33,0,0,1,0-7.6,1.9,1.9,0,0,1,3.6,0,7.8,7.8,0,0,1,.7,3.8,8.055,8.055,0,0,1-.7,3.8,1.88,1.88,0,0,1-1.8,1.3" transform="translate(-2201 -2086)"/>
    <path id="Path_20178" data-name="Path 20178" class="cls-8" d="M3174.5,4264.4a1.424,1.424,0,0,1,.2-.6.4.4,0,0,1,.4-.2.519.519,0,0,1,.4.2,1.071,1.071,0,0,1,.2.6,1.424,1.424,0,0,1-.2.6.4.4,0,0,1-.4.2.519.519,0,0,1-.4-.2c-.2-.1-.2-.3-.2-.6" transform="translate(-2201 -2086)"/>
    <path id="Path_20179" data-name="Path 20179" class="cls-8" d="M3177.3,4257.6h-.7a3.019,3.019,0,0,1,.8-1.8,1.816,1.816,0,0,1,1.4-.6,1.746,1.746,0,0,1,1.4.7,2.793,2.793,0,0,1,.6,1.8,2.518,2.518,0,0,1-.9,2,2.412,2.412,0,0,1,1,1,4.014,4.014,0,0,1,.3,1.5,3.233,3.233,0,0,1-.7,2.2,2.271,2.271,0,0,1-1.8.9,1.99,1.99,0,0,1-1.6-.7,4.033,4.033,0,0,1-.8-2.1h.7a2.593,2.593,0,0,0,.6,1.4,1.481,1.481,0,0,0,2.3-.1,2.5,2.5,0,0,0,0-3,2.111,2.111,0,0,0-1.6-.6v-.9a1.657,1.657,0,0,0,1.2-.5,1.606,1.606,0,0,0,.5-1.1,1.367,1.367,0,0,0-.4-1.1,1.222,1.222,0,0,0-.9-.4,1.086,1.086,0,0,0-.9.4,1.541,1.541,0,0,0-.5,1" transform="translate(-2201 -2086)"/>
    <path id="Path_20180" data-name="Path 20180" class="cls-8" d="M3209.7,4256c-.6,0-1,.4-1.3,1.1a8.324,8.324,0,0,0-.5,3.1q0,4.2,1.8,4.2c.6,0,1-.4,1.3-1.1a9.861,9.861,0,0,0,0-6.2c-.3-.7-.7-1.1-1.3-1.1m0,9.3a1.879,1.879,0,0,1-1.8-1.3,12.33,12.33,0,0,1,0-7.6,1.9,1.9,0,0,1,3.6,0,7.8,7.8,0,0,1,.7,3.8,8.055,8.055,0,0,1-.7,3.8,1.971,1.971,0,0,1-1.8,1.3" transform="translate(-2201 -2086)"/>
    <path id="Path_20181" data-name="Path 20181" class="cls-8" d="M3213,4264.4a1.424,1.424,0,0,1,.2-.6.4.4,0,0,1,.4-.2.519.519,0,0,1,.4.2,1.071,1.071,0,0,1,.2.6,1.424,1.424,0,0,1-.2.6.4.4,0,0,1-.4.2.519.519,0,0,1-.4-.2.846.846,0,0,1-.2-.6" transform="translate(-2201 -2086)"/>
    <path id="Path_20182" data-name="Path 20182" class="cls-8" d="M3218.9,4262.3a2.116,2.116,0,0,0-.4-1.4,1.308,1.308,0,0,0-2.2,0,2.3,2.3,0,0,0-.4,1.4,1.955,1.955,0,0,0,.4,1.4,1.308,1.308,0,0,0,2.2,0,1.954,1.954,0,0,0,.4-1.4m-.7-7.2.6.5-2,4a2.352,2.352,0,0,1,.8-.2,1.739,1.739,0,0,1,1.4.9,3.7,3.7,0,0,1,.6,2.1,3.139,3.139,0,0,1-.7,2.1,1.819,1.819,0,0,1-1.6.8,1.921,1.921,0,0,1-1.6-.9,3.7,3.7,0,0,1-.6-2.1,5.032,5.032,0,0,1,.2-1.2,5.178,5.178,0,0,1,.7-1.6Z" transform="translate(-2201 -2086)"/>
    <path id="Path_20183" data-name="Path 20183" class="cls-8" d="M3248,4255.4h1.4v9.7h-.7v-8.8h-1.2Z" transform="translate(-2201 -2086)"/>
    <path id="Path_20184" data-name="Path 20184" class="cls-8" d="M3252.2,4264.4a1.424,1.424,0,0,1,.2-.6.4.4,0,0,1,.4-.2.519.519,0,0,1,.4.2,1.071,1.071,0,0,1,.2.6,1.424,1.424,0,0,1-.2.6.4.4,0,0,1-.4.2.519.519,0,0,1-.4-.2.846.846,0,0,1-.2-.6" transform="translate(-2201 -2086)"/>
    <path id="Path_20185" data-name="Path 20185" class="cls-8" d="M3254.8,4258.4h-.7a4.267,4.267,0,0,1,.7-2.4,2.091,2.091,0,0,1,1.7-.9,1.943,1.943,0,0,1,1.6.8,3.481,3.481,0,0,1,.6,2.1,3.289,3.289,0,0,1-.4,1.7,9.664,9.664,0,0,1-1.1,1.8l-1.8,2.6h3.3v.9h-4.9l2.8-4a11.886,11.886,0,0,0,1-1.7,3.194,3.194,0,0,0,.3-1.4,2.388,2.388,0,0,0-.5-1.4,1.382,1.382,0,0,0-1.1-.6,1.255,1.255,0,0,0-1.1.6c-.1.6-.3,1.2-.4,1.9" transform="translate(-2201 -2086)"/>
    <path id="Path_20186" data-name="Path 20186" class="cls-8" d="M3285.9,4258.8h-.7a4.267,4.267,0,0,1,.7-2.4,1.964,1.964,0,0,1,1.7-.9,2.088,2.088,0,0,1,1.6.8,3.481,3.481,0,0,1,.6,2.1,3.289,3.289,0,0,1-.4,1.7,9.664,9.664,0,0,1-1.1,1.8l-1.8,2.6h3.4v.9H3285l2.8-4a11.886,11.886,0,0,0,1-1.7,3.194,3.194,0,0,0,.3-1.4,2.388,2.388,0,0,0-.5-1.4,1.382,1.382,0,0,0-1.1-.6,1.255,1.255,0,0,0-1.1.6,5.928,5.928,0,0,0-.5,1.9" transform="translate(-2201 -2086)"/>
    <path id="Path_20187" data-name="Path 20187" class="cls-8" d="M3290.8,4264.9a1.424,1.424,0,0,1,.2-.6.4.4,0,0,1,.4-.2.519.519,0,0,1,.4.2,1.071,1.071,0,0,1,.2.6,1.424,1.424,0,0,1-.2.6.4.4,0,0,1-.4.2.519.519,0,0,1-.4-.2,1.42,1.42,0,0,1-.2-.6" transform="translate(-2201 -2086)"/>
    <path id="Path_20188" data-name="Path 20188" class="cls-8" d="M3296,4262.3v-4l-2.1,4Zm.6-6.7h.1v6.8h.9v.9h-.9v2.3h-.7v-2.3h-3.5Z" transform="translate(-2201 -2086)"/>
    <path id="Path_20189" data-name="Path 20189" class="cls-8" d="M3365.4,4262.3v-4l-2.1,4Zm.6-6.7h.1v6.8h.9v.9h-.9v2.3h-.7v-2.3h-3.5Z" transform="translate(-2201 -2086)"/>
    <path id="Path_20190" data-name="Path 20190" class="cls-8" d="M3367.8,4264.9a1.424,1.424,0,0,1,.2-.6.4.4,0,0,1,.4-.2.519.519,0,0,1,.4.2,1.071,1.071,0,0,1,.2.6,1.424,1.424,0,0,1-.2.6.4.4,0,0,1-.4.2.519.519,0,0,1-.4-.2.735.735,0,0,1-.2-.6" transform="translate(-2201 -2086)"/>
    <path id="Path_20191" data-name="Path 20191" class="cls-8" d="M3373.4,4258.1a1.505,1.505,0,0,0-.4-1.1,1.25,1.25,0,0,0-2,0,1.5,1.5,0,0,0-.4,1.1,1.924,1.924,0,0,0,.4,1.2,1.25,1.25,0,0,0,2,0,1.923,1.923,0,0,0,.4-1.2m.4,4.6a2.167,2.167,0,0,0-.5-1.4,1.5,1.5,0,0,0-2.4,0,2.456,2.456,0,0,0-.5,1.5,1.977,1.977,0,0,0,.5,1.4,1.5,1.5,0,0,0,2.4,0,2.458,2.458,0,0,0,.5-1.5m-.7-2.5a2.973,2.973,0,0,1,1.4,2.5,3.233,3.233,0,0,1-.7,2.2,2.138,2.138,0,0,1-1.8.9,2.271,2.271,0,0,1-1.8-.9,3.139,3.139,0,0,1-.7-2.1,3.017,3.017,0,0,1,1.4-2.6,2.477,2.477,0,0,1-1.1-2.1,2.79,2.79,0,0,1,.6-1.8,1.9,1.9,0,0,1,1.5-.8,1.8,1.8,0,0,1,1.5.7,2.793,2.793,0,0,1,.6,1.8,2.032,2.032,0,0,1-.9,2.2" transform="translate(-2201 -2086)"/>
    <path id="Path_20192" data-name="Path 20192" class="cls-8" d="M3325.2,4258.5a2.116,2.116,0,0,0,.4,1.4,1.308,1.308,0,0,0,2.2,0,2.3,2.3,0,0,0,.4-1.4,2.89,2.89,0,0,0-.4-1.4,1.308,1.308,0,0,0-2.2,0,2.3,2.3,0,0,0-.4,1.4m.7,7.2-.6-.5,2-4a2.352,2.352,0,0,1-.8.2,1.9,1.9,0,0,1-1.5-.8,3.7,3.7,0,0,1-.6-2.1,3.139,3.139,0,0,1,.7-2.1,1.819,1.819,0,0,1,1.6-.8,1.921,1.921,0,0,1,1.6.9,3.7,3.7,0,0,1,.6,2.1,6.761,6.761,0,0,1-.2,1.4,4.716,4.716,0,0,1-.6,1.5Z" transform="translate(-2201 -2086)"/>
    <path id="Path_20193" data-name="Path 20193" class="cls-8" d="M3330.1,4264.9a1.424,1.424,0,0,1,.2-.6.4.4,0,0,1,.4-.2.519.519,0,0,1,.4.2,1.071,1.071,0,0,1,.2.6,1.424,1.424,0,0,1-.2.6.4.4,0,0,1-.4.2.519.519,0,0,1-.4-.2.735.735,0,0,1-.2-.6" transform="translate(-2201 -2086)"/>
    <path id="Path_20194" data-name="Path 20194" class="cls-8" d="M3336,4262.8a2.116,2.116,0,0,0-.4-1.4,1.308,1.308,0,0,0-2.2,0,2.3,2.3,0,0,0-.4,1.4,1.955,1.955,0,0,0,.4,1.4,1.738,1.738,0,0,0,1.1.6,1.383,1.383,0,0,0,1.1-.6,2.3,2.3,0,0,0,.4-1.4m-.8-7.2.6.5-2,4a2.352,2.352,0,0,1,.8-.2,1.739,1.739,0,0,1,1.4.9,3.7,3.7,0,0,1,.6,2.1,3.139,3.139,0,0,1-.7,2.1,1.819,1.819,0,0,1-1.6.8,1.921,1.921,0,0,1-1.6-.9,3.7,3.7,0,0,1-.6-2.1,5.032,5.032,0,0,1,.2-1.2,5.178,5.178,0,0,1,.7-1.6Z" transform="translate(-2201 -2086)"/>
    <path id="Path_20195" data-name="Path 20195" class="cls-8" d="M3398.2,4255.8h1.4v9.7h-.7v-8.8h-1.2Z" transform="translate(-2201 -2086)"/>
    <path id="Path_20196" data-name="Path 20196" class="cls-8" d="M3402.7,4258.5a2.116,2.116,0,0,0,.4,1.4,1.308,1.308,0,0,0,2.2,0,2.3,2.3,0,0,0,.4-1.4,2.116,2.116,0,0,0-.4-1.4,1.308,1.308,0,0,0-2.2,0,2.3,2.3,0,0,0-.4,1.4m.7,7.2-.6-.5,2-4a2.352,2.352,0,0,1-.8.2,1.9,1.9,0,0,1-1.5-.8,3.7,3.7,0,0,1-.6-2.1,3.139,3.139,0,0,1,.7-2.1,1.819,1.819,0,0,1,1.6-.8,1.921,1.921,0,0,1,1.6.9,3.7,3.7,0,0,1,.6,2.1,6.761,6.761,0,0,1-.2,1.4,4.716,4.716,0,0,1-.6,1.5Z" transform="translate(-2201 -2086)"/>
    <path id="Path_20197" data-name="Path 20197" class="cls-8" d="M3407.6,4264.9a1.424,1.424,0,0,1,.2-.6.4.4,0,0,1,.4-.2.519.519,0,0,1,.4.2,1.071,1.071,0,0,1,.2.6,1.424,1.424,0,0,1-.2.6.4.4,0,0,1-.4.2.519.519,0,0,1-.4-.2,1.42,1.42,0,0,1-.2-.6" transform="translate(-2201 -2086)"/>
    <path id="Path_20198" data-name="Path 20198" class="cls-8" d="M3410.2,4258.8h-.7a4.267,4.267,0,0,1,.7-2.4,2.029,2.029,0,0,1,3.3-.1,3.481,3.481,0,0,1,.6,2.1,3.289,3.289,0,0,1-.4,1.7,9.664,9.664,0,0,1-1.1,1.8l-1.8,2.6h3.3v.9h-4.9l2.8-4a11.886,11.886,0,0,0,1-1.7,3.194,3.194,0,0,0,.3-1.4,2.388,2.388,0,0,0-.5-1.4,1.382,1.382,0,0,0-1.1-.6,1.255,1.255,0,0,0-1.1.6c-.1.6-.3,1.2-.4,1.9" transform="translate(-2201 -2086)"/>
    <path id="Path_20199" data-name="Path 20199" class="cls-8" d="M3433.7,4256.3h-.7a3.019,3.019,0,0,1,.8-1.8,1.816,1.816,0,0,1,1.4-.6,1.746,1.746,0,0,1,1.4.7,2.793,2.793,0,0,1,.6,1.8,2.518,2.518,0,0,1-.9,2,2.412,2.412,0,0,1,1,1,4.014,4.014,0,0,1,.3,1.5,3.233,3.233,0,0,1-.7,2.2,2.271,2.271,0,0,1-1.8.9,1.99,1.99,0,0,1-1.6-.7,4.033,4.033,0,0,1-.8-2.1h.7a2.593,2.593,0,0,0,.6,1.4,1.481,1.481,0,0,0,2.3-.1,2.5,2.5,0,0,0,0-3,2.111,2.111,0,0,0-1.6-.6v-.9a1.657,1.657,0,0,0,1.2-.5,1.606,1.606,0,0,0,.5-1.1,1.367,1.367,0,0,0-.4-1.1,1.222,1.222,0,0,0-.9-.4,1.086,1.086,0,0,0-.9.4,1.542,1.542,0,0,0-.5,1" transform="translate(-2201 -2086)"/>
    <path id="Path_20200" data-name="Path 20200" class="cls-8" d="M3441.7,4256.3a1.505,1.505,0,0,0-.4-1.1,1.25,1.25,0,0,0-2,0,1.5,1.5,0,0,0-.4,1.1,1.924,1.924,0,0,0,.4,1.2,1.25,1.25,0,0,0,2,0,1.594,1.594,0,0,0,.4-1.2m.4,4.7a2.167,2.167,0,0,0-.5-1.4,1.5,1.5,0,0,0-2.4,0,2.456,2.456,0,0,0-.5,1.5,1.977,1.977,0,0,0,.5,1.4,1.426,1.426,0,0,0,1.2.6,1.761,1.761,0,0,0,1.3-.6,3.316,3.316,0,0,0,.4-1.5m-.7-2.6a2.973,2.973,0,0,1,1.4,2.5,3.233,3.233,0,0,1-.7,2.2,2.138,2.138,0,0,1-1.8.9,2.271,2.271,0,0,1-1.8-.9,3.771,3.771,0,0,1-.7-2.1,3.017,3.017,0,0,1,1.4-2.6,2.477,2.477,0,0,1-1.1-2.1,2.79,2.79,0,0,1,.6-1.8,1.9,1.9,0,0,1,1.5-.8,1.8,1.8,0,0,1,1.5.7,2.793,2.793,0,0,1,.6,1.8,2.031,2.031,0,0,1-.9,2.2" transform="translate(-2201 -2086)"/>
    <path id="Path_20201" data-name="Path 20201" class="cls-8" d="M3443.5,4264.1a1.424,1.424,0,0,1,.2-.6.4.4,0,0,1,.4-.2.519.519,0,0,1,.4.2,1.071,1.071,0,0,1,.2.6,1.424,1.424,0,0,1-.2.6.4.4,0,0,1-.4.2.519.519,0,0,1-.4-.2.847.847,0,0,1-.2-.6" transform="translate(-2201 -2086)"/>
    <path id="Path_20202" data-name="Path 20202" class="cls-8" d="M3448.7,4261.6v-4l-2.1,4Zm.6-6.8h.1v6.8h.9v.9h-.9v2.3h-.7v-2.3h-3.5Z" transform="translate(-2201 -2086)"/>
    <text id="測試草模消噪效果測試" class="cls-1" transform="translate(911.729 2006.266)"><tspan x="0" y="0">測試草模消噪效果測試</tspan></text>
    <g id="Group_4291" data-name="Group 4291" transform="translate(-2201 -2086)">
      <text id="_100" data-name="100" class="cls-9" transform="translate(3108.799 4119.189)"><tspan x="0" y="0">100</tspan></text>
    </g>
    <g id="Group_4292" data-name="Group 4292" transform="translate(-2201 -2086)">
      <text id="_80" data-name="80" class="cls-10" transform="translate(3114.738 4162.79)"><tspan x="0" y="0">80</tspan></text>
    </g>
    <g id="Group_4293" data-name="Group 4293" transform="translate(-2201 -2086)">
      <text id="_60" data-name="60" class="cls-10" transform="translate(3114.738 4206.391)"><tspan x="0" y="0">60</tspan></text>
    </g>
    <text id="_dB_" data-name="(dB)" class="cls-9" transform="translate(908.038 2147.717)"><tspan x="0" y="0">(dB)</tspan></text>
    <text id="_m_" data-name="(m)" class="cls-9" transform="translate(934.871 2176.941)"><tspan x="0" y="0">(m)</tspan></text>
  </g>
</svg>
