<svg xmlns="http://www.w3.org/2000/svg" width="36" height="36" viewBox="0 0 36 36">
  <g id="arr_left" transform="translate(1619 -806)">
    <g id="btn__" data-name="btn_&lt;">
      <g id="Path_703" data-name="Path 703" transform="translate(-1619 806)" fill="none">
        <path d="M18,0A18,18,0,1,1,0,18,18,18,0,0,1,18,0Z" stroke="none"/>
        <path d="M 18 3.5 C 14.12690925598145 3.5 10.48563957214355 5.008260726928711 7.746950149536133 7.746950149536133 C 5.008260726928711 10.48563957214355 3.5 14.12690925598145 3.5 18 C 3.5 21.87308883666992 5.008260726928711 25.51436042785645 7.746950149536133 28.25304985046387 C 10.48563957214355 30.99174118041992 14.12690925598145 32.5 18 32.5 C 21.87308883666992 32.5 25.51436042785645 30.99174118041992 28.25304985046387 28.25304985046387 C 30.99174118041992 25.51436042785645 32.5 21.87308883666992 32.5 18 C 32.5 14.12690925598145 30.99174118041992 10.48563957214355 28.25304985046387 7.746950149536133 C 25.51436042785645 5.008260726928711 21.87308883666992 3.5 18 3.5 M 18 0 C 27.94112968444824 0 36 8.058879852294922 36 18 C 36 27.94112968444824 27.94112968444824 36 18 36 C 8.058879852294922 36 0 27.94112968444824 0 18 C 0 8.058879852294922 8.058879852294922 0 18 0 Z" stroke="none" fill="#2fb0b3"/>
      </g>
      <path id="Path_704" data-name="Path 704" d="M2.884,0,.63,1.837,5.637,6.993.63,12.149l2.255,1.837L10,6.993Z" transform="translate(-1595.996 830.985) rotate(180)" fill="#2fb0b3"/>
    </g>
  </g>
</svg>
