<svg xmlns="http://www.w3.org/2000/svg" width="28" height="28" viewBox="0 0 28 28">
  <g id="delet_off" transform="translate(-926 -1417)">
    <rect id="Rectangle_1003" data-name="Rectangle 1003" width="28" height="28" transform="translate(926 1417)" fill="none"/>
    <path id="trash-alt" d="M1.058,15.338a1.587,1.587,0,0,0,1.587,1.587h9.52a1.587,1.587,0,0,0,1.587-1.587V4.231H1.058Zm8.991-8.462a.529.529,0,1,1,1.058,0v7.4a.529.529,0,0,1-1.058,0Zm-3.173,0a.529.529,0,1,1,1.058,0v7.4a.529.529,0,0,1-1.058,0Zm-3.173,0a.529.529,0,1,1,1.058,0v7.4a.529.529,0,0,1-1.058,0ZM14.28,1.058H10.313L10,.439A.793.793,0,0,0,9.292,0H5.514a.784.784,0,0,0-.707.44L4.5,1.058H.529A.529.529,0,0,0,0,1.587V2.644a.529.529,0,0,0,.529.529H14.28a.529.529,0,0,0,.529-.529V1.587A.529.529,0,0,0,14.28,1.058Z" transform="translate(933 1423)" fill="#c3c3c3"/>
  </g>
</svg>
