<svg xmlns="http://www.w3.org/2000/svg" width="28" height="28" viewBox="0 0 28 28">
  <g id="Group_584" data-name="Group 584" transform="translate(-1319 -1013)">
    <g id="Path_703" data-name="Path 703" transform="translate(1347 1013) rotate(90)" fill="none">
      <path d="M14,0A14,14,0,1,1,0,14,14,14,0,0,1,14,0Z" stroke="none"/>
      <path d="M 14 3 C 11.06179046630859 3 8.299449920654297 4.144199371337891 6.221820831298828 6.221820831298828 C 4.144199371337891 8.299449920654297 3 11.06179046630859 3 14 C 3 16.93820953369141 4.144199371337891 19.7005500793457 6.221820831298828 21.77817916870117 C 8.299449920654297 23.85580062866211 11.06179046630859 25 14 25 C 16.93820953369141 25 19.7005500793457 23.85580062866211 21.77817916870117 21.77817916870117 C 23.85580062866211 19.7005500793457 25 16.93820953369141 25 14 C 25 11.06179046630859 23.85580062866211 8.299449920654297 21.77817916870117 6.221820831298828 C 19.7005500793457 4.144199371337891 16.93820953369141 3 14 3 M 14 0 C 21.73199081420898 0 28 6.268009185791016 28 14 C 28 21.73199081420898 21.73199081420898 28 14 28 C 6.268009185791016 28 0 21.73199081420898 0 14 C 0 6.268009185791016 6.268009185791016 0 14 0 Z" stroke="none" fill="#2fb0b3"/>
    </g>
    <path id="Path_704" data-name="Path 704" d="M1.754,0,0,1.428l3.895,4.01L0,9.449l1.754,1.428L7.291,5.439Z" transform="translate(1327.567 1030.402) rotate(-90)" fill="#2fb0b3"/>
  </g>
</svg>
