<svg xmlns="http://www.w3.org/2000/svg" width="17.548" height="17.548" viewBox="0 0 17.548 17.548">
  <g id="list" transform="translate(-817 -1036)">
    <path id="Rectangle_905" data-name="Rectangle 905" d="M2,0H7.8a0,0,0,0,1,0,0V7.8a0,0,0,0,1,0,0H0a0,0,0,0,1,0,0V2A2,2,0,0,1,2,0Z" transform="translate(817 1036)" fill="#33b3c2"/>
    <path id="Rectangle_908" data-name="Rectangle 908" d="M0,0H7.8a0,0,0,0,1,0,0V7.8a0,0,0,0,1,0,0H2a2,2,0,0,1-2-2V0A0,0,0,0,1,0,0Z" transform="translate(817 1045.749)" fill="#33b3c2"/>
    <path id="Rectangle_906" data-name="Rectangle 906" d="M0,0H5.8a2,2,0,0,1,2,2V7.8a0,0,0,0,1,0,0H0a0,0,0,0,1,0,0V0A0,0,0,0,1,0,0Z" transform="translate(826.749 1036)" fill="#33b3c2"/>
    <path id="Rectangle_907" data-name="Rectangle 907" d="M0,0H7.8a0,0,0,0,1,0,0V5.8a2,2,0,0,1-2,2H0a0,0,0,0,1,0,0V0A0,0,0,0,1,0,0Z" transform="translate(826.749 1045.749)" fill="#33b3c2"/>
  </g>
</svg>
