<svg xmlns="http://www.w3.org/2000/svg" width="17.419" height="17.833" viewBox="0 0 17.419 17.833">
  <g id="map" transform="translate(-0.794 -0.794)">
    <g id="Group_202" data-name="Group 202" transform="translate(0.794 0.794)">
      <path id="Path_835" data-name="Path 835" d="M12.183,289.327a4.03,4.03,0,0,0-4.02,4.02,6.722,6.722,0,0,0,1.831,4.114,13.835,13.835,0,0,0,1.77,1.769l.419.335.419-.335a13.835,13.835,0,0,0,1.77-1.769,6.722,6.722,0,0,0,1.831-4.114A4.03,4.03,0,0,0,12.183,289.327ZM.794,291.593V303.81l.37.186,4.989,2.494V294.273Zm11.39.414a1.34,1.34,0,1,1-1.34,1.34A1.34,1.34,0,0,1,12.183,292.007Zm5.228,2.536a8.666,8.666,0,0,1-2.009,3.775,15.192,15.192,0,0,1-1.963,1.958l-.586.468v3.736l5.36,2.68V294.943Zm-9.917,1.589V306.49l4.02-2.01v-3.736l-.586-.468a15.2,15.2,0,0,1-1.963-1.958,10.93,10.93,0,0,1-1.471-2.187Z" transform="translate(-0.794 -289.327)" fill="#33b3c2"/>
    </g>
  </g>
</svg>
