<svg xmlns="http://www.w3.org/2000/svg" width="34" height="34" viewBox="0 0 34 34">
  <g id="reset" transform="translate(-833 -451)">
    <circle id="Ellipse_54" data-name="Ellipse 54" cx="14.646" cy="14.646" r="14.646" transform="translate(835.354 453.354)" fill="rgba(0,0,0,0.3)"/>
    <path id="redo-alt" d="M13.816,8a5.785,5.785,0,0,1,4,1.608l.836-.836a.562.562,0,0,1,.959.4v3.138a.562.562,0,0,1-.562.562H15.91a.562.562,0,0,1-.4-.959l.977-.977a3.932,3.932,0,1,0-.1,5.832.28.28,0,0,1,.383.013l.928.928a.281.281,0,0,1-.011.408A5.805,5.805,0,1,1,13.816,8Z" transform="translate(835.918 453.969)" fill="#fff"/>
    <rect id="Rectangle_1060" data-name="Rectangle 1060" width="34" height="34" transform="translate(833 451)" fill="none"/>
  </g>
</svg>
