<?xml version="1.0" encoding="utf-8"?>
<!-- Generator: Adobe Illustrator 21.1.0, SVG Export Plug-In . SVG Version: 6.00 Build 0)  -->
<svg version="1.1" id="圖層_1" xmlns="http://www.w3.org/2000/svg" xmlns:xlink="http://www.w3.org/1999/xlink" x="0px" y="0px"
	 viewBox="0 0 243.6 52.3" style="enable-background:new 0 0 243.6 52.3;" xml:space="preserve">
<style type="text/css">
	.st0{fill:#535353;}
	.st1{font-family:'NotoSans-Regular';}
	.st2{font-size:14px;}
	.st3{font-family:'YuGothicUI-Regular';}
	.st4{font-size:12px;}
	.st5{letter-spacing:3;}
	.st6{fill:#135A5D;}
	.st7{fill:#33B3C2;}
	.st8{fill:none;stroke:#33B3C2;stroke-width:6.078;stroke-linecap:round;stroke-miterlimit:10;}
	.st9{fill:none;stroke:#52D1C8;stroke-width:6.078;stroke-linecap:round;stroke-miterlimit:10;}
	.st10{fill:none;stroke:#34C1B3;stroke-width:6.078;stroke-linecap:round;stroke-miterlimit:10;}
	.st11{fill:none;stroke:#519786;stroke-width:5.991;stroke-linecap:round;stroke-miterlimit:10;}
	.st12{fill:none;stroke:#33B3C2;stroke-width:5.928;stroke-linecap:round;stroke-miterlimit:10;}
	.st13{fill:none;stroke:#3BA6AA;stroke-width:5.991;stroke-linecap:round;stroke-miterlimit:10;}
	.st14{fill:none;stroke:#71D3EA;stroke-width:5.991;stroke-linecap:round;stroke-miterlimit:10;}
	.st15{fill:none;stroke:#33B3C2;stroke-width:5.991;stroke-linecap:round;stroke-miterlimit:10;}
</style>
<g id="so_eyewear" transform="translate(-129 -27.217)">
	<g id="logo_word" transform="translate(129 60.497)">
		<text transform="matrix(1 0 0 1 0 15)" class="st0 st1 st2">Explore  Eyewear  Fashion</text>
		<text transform="matrix(1 0 0 1 199.612 14.901)" class="st0 st3 st4 st5">搜鏡王</text>
		<circle id="LOGO_word-2" class="st0" cx="193.2" cy="11.1" r="1.9"/>
	</g>
	<g id="Group_555" transform="translate(-1826.912 -868.634)">
		<g id="Group_556">
			<g id="Group_555-2">
				<path id="Path_936" class="st6" d="M2048.3,902.5h-12.6v6.6h11.6c0.6,0,1.3,0.2,1.8,0.6c0.4,0.4,0.6,0.9,0.6,1.5
					c0,0.6-0.2,1.1-0.6,1.5c-0.5,0.4-1.1,0.6-1.8,0.6h-11.6v7.6h13c0.7,0,1.3,0.2,1.8,0.6c0.4,0.4,0.6,1,0.6,1.6
					c0,0.6-0.2,1.1-0.6,1.5c-0.5,0.4-1.2,0.6-1.8,0.6h-15c-0.9,0.1-1.8-0.2-2.4-0.8c-0.6-0.7-0.8-1.6-0.7-2.5v-20.2
					c0-0.7,0.1-1.3,0.3-1.9c0.2-0.5,0.6-0.9,1-1.1c0.6-0.2,1.2-0.4,1.8-0.3h14.6c0.7-0.1,1.3,0.2,1.8,0.6c0.4,0.4,0.6,0.9,0.6,1.5
					c0,0.6-0.2,1.1-0.6,1.5C2049.6,902.3,2049,902.5,2048.3,902.5z"/>
				<path id="Path_937" class="st6" d="M2092.4,902.5h-12.6v6.6h11.6c0.6,0,1.3,0.2,1.8,0.6c0.4,0.4,0.6,0.9,0.6,1.5
					c0,0.6-0.2,1.1-0.6,1.5c-0.5,0.4-1.1,0.6-1.8,0.6h-11.6v7.6h13c0.7,0,1.3,0.2,1.8,0.6c0.4,0.4,0.6,1,0.6,1.6
					c0,0.6-0.2,1.1-0.6,1.5c-0.5,0.4-1.2,0.6-1.8,0.6h-15c-0.9,0.1-1.8-0.2-2.4-0.8c-0.6-0.7-0.8-1.6-0.7-2.5v-20.2
					c0-0.7,0.1-1.3,0.3-1.9c0.2-0.5,0.6-0.9,1-1.1c0.6-0.2,1.2-0.4,1.8-0.3h14.6c0.7-0.1,1.3,0.2,1.8,0.6c0.4,0.4,0.6,0.9,0.6,1.5
					c0,0.6-0.2,1.1-0.6,1.5C2093.7,902.3,2093,902.5,2092.4,902.5z"/>
				<path id="Path_938" class="st6" d="M2146.6,902.5H2134v6.6h11.6c0.6,0,1.3,0.2,1.8,0.6c0.4,0.4,0.6,0.9,0.6,1.5
					c0,0.6-0.2,1.1-0.6,1.5c-0.5,0.4-1.1,0.6-1.8,0.6H2134v7.6h13c0.7,0,1.3,0.2,1.8,0.6c0.4,0.4,0.6,1,0.6,1.6
					c0,0.6-0.2,1.1-0.6,1.5c-0.5,0.4-1.2,0.6-1.8,0.6h-15c-0.9,0.1-1.8-0.2-2.4-0.8c-0.6-0.7-0.8-1.6-0.7-2.5v-20.2
					c0-0.7,0.1-1.3,0.3-1.9c0.2-0.5,0.6-0.9,1-1.1c0.6-0.2,1.2-0.4,1.8-0.3h14.6c0.7-0.1,1.3,0.2,1.8,0.6c0.4,0.4,0.6,0.9,0.6,1.5
					c0,0.6-0.2,1.1-0.6,1.5C2147.9,902.3,2147.2,902.5,2146.6,902.5z"/>
				<path id="Path_939" class="st6" d="M2059.9,922.3v-8.5l-6.3-10.2c-0.4-0.7-0.8-1.4-1.2-2.1c-0.2-0.4-0.3-0.9-0.3-1.3
					c0-0.6,0.2-1.2,0.7-1.6c0.5-0.4,1.1-0.7,1.7-0.7c0.6,0,1.2,0.2,1.6,0.6c0.6,0.8,1.2,1.6,1.7,2.5l4.8,8.1l4.9-8.1l0.7-1.3
					c0.2-0.3,0.4-0.7,0.7-1c0.2-0.3,0.5-0.5,0.8-0.7c0.9-0.4,2-0.3,2.7,0.4c0.4,0.4,0.7,1,0.7,1.5c0,0.5-0.1,1-0.3,1.4
					c-0.3,0.7-0.7,1.3-1.1,2l-6.4,10.3v8.5c0.1,0.9-0.2,1.8-0.7,2.5c-1,1-2.6,1.1-3.6,0.2c0,0-0.1-0.1-0.1-0.1
					C2060.1,924,2059.9,923.2,2059.9,922.3z"/>
				<path id="Path_940" class="st6" d="M2115.6,920.9l-4-16.1l-4.1,16.1c-0.3,1.2-0.6,2.1-0.8,2.6c-0.2,0.6-0.5,1-1,1.4
					c-0.5,0.4-1.2,0.7-1.8,0.6c-0.5,0-1.1-0.1-1.5-0.4c-0.4-0.3-0.7-0.6-1-1.1c-0.3-0.5-0.5-1.1-0.6-1.6c-0.2-0.6-0.3-1.2-0.4-1.7
					l-4.1-18.1c-0.2-0.8-0.3-1.6-0.4-2.4c0-0.7,0.2-1.3,0.7-1.8c0.4-0.5,1-0.7,1.7-0.7c0.8-0.1,1.5,0.3,1.8,1
					c0.4,0.9,0.7,1.8,0.8,2.8l3.2,15.7l3.6-14.7c0.2-0.9,0.4-1.7,0.7-2.6c0.2-0.6,0.6-1.1,1-1.5c0.6-0.5,1.3-0.7,2-0.6
					c0.7,0,1.4,0.2,2,0.7c0.4,0.4,0.8,0.9,1,1.5c0.2,0.5,0.4,1.4,0.7,2.6l3.7,14.7l3.2-15.7c0.2-0.8,0.3-1.5,0.4-1.9
					c0.1-0.5,0.4-0.9,0.7-1.2c0.4-0.4,0.9-0.6,1.5-0.5c0.6,0,1.2,0.2,1.7,0.7c0.5,0.5,0.7,1.1,0.7,1.8c0,0.8-0.2,1.6-0.4,2.4
					l-4.1,18.1c-0.3,1.2-0.5,2.1-0.7,2.7c-0.2,0.6-0.5,1.1-0.9,1.5c-0.5,0.5-1.2,0.7-1.9,0.6c-0.7,0-1.3-0.2-1.8-0.6
					c-0.4-0.4-0.8-0.9-1-1.4C2116.1,923,2115.9,922.1,2115.6,920.9z"/>
				<path id="Path_941" class="st6" d="M2168.4,922.1l-1.2-3.4h-10.4l-1.2,3.4c-0.3,1-0.7,1.9-1.2,2.7c-0.4,0.5-1,0.8-1.7,0.7
					c-0.7,0-1.3-0.3-1.7-0.8c-0.5-0.4-0.7-1.1-0.8-1.7c0-0.4,0.1-0.8,0.2-1.1c0.1-0.4,0.3-0.9,0.6-1.6l6.6-17.4
					c0.2-0.5,0.4-1.1,0.7-1.8c0.2-0.6,0.5-1.2,0.8-1.7c0.3-0.5,0.7-0.8,1.2-1.1c0.5-0.3-0.2-0.4,0.5-0.4c1,0,2.1,0.1,3.1,0.4
					c0.5,0.3,0.9,0.7,1.2,1.1c0.3,0.5,0.6,0.9,0.8,1.5c0.2,0.5,0.5,1.2,0.8,2.1l6.7,17.3c0.4,0.9,0.7,1.9,0.8,2.9
					c0,0.6-0.3,1.3-0.7,1.7c-0.5,0.5-1.1,0.8-1.8,0.8c-0.4,0-0.7-0.1-1.1-0.2c-0.3-0.1-0.5-0.4-0.7-0.6c-0.3-0.4-0.5-0.8-0.6-1.2
					C2168.8,923,2168.6,922.5,2168.4,922.1z M2158.1,914.6h7.7l-3.9-11.1L2158.1,914.6z"/>
				<path id="Path_942" class="st6" d="M2182.5,913.6h-1c-0.4,0-0.8,0.4-0.8,0.8v7.8c0.1,0.9-0.2,1.8-0.7,2.5
					c-0.5,0.5-1.2,0.8-1.9,0.8c-0.7,0-1.5-0.3-1.9-0.8c-0.5-0.7-0.7-1.6-0.7-2.5v-20.7c-0.1-0.9,0.2-1.8,0.8-2.5
					c0.7-0.6,1.5-0.9,2.4-0.8h8.5c1,0,2,0,3,0.2c0.8,0.1,1.5,0.3,2.2,0.6c0.8,0.4,1.5,0.9,2.1,1.5c0.6,0.7,1.1,1.4,1.4,2.3
					c0.3,0.9,0.5,1.8,0.5,2.8c0.1,1.7-0.5,3.5-1.6,4.8c-0.9,1-2.1,1.7-3.3,2.1c-0.4,0.2-0.6,0.6-0.5,1.1c0.1,0.1,0.1,0.3,0.2,0.3
					c0.5,0.4,0.9,0.8,1.3,1.3c0.8,1,1.6,2.1,2.3,3.2c0.6,0.9,1.2,1.9,1.7,2.9c0.3,0.6,0.5,1.2,0.6,1.9c0,0.4-0.1,0.7-0.3,1.1
					c-0.2,0.3-0.5,0.6-0.9,0.8c-0.4,0.2-0.8,0.3-1.3,0.3c-0.5,0-1-0.1-1.5-0.4c-0.4-0.3-0.8-0.7-1-1.1c-0.5-0.6-0.9-1.2-1.3-1.8
					l-2.1-3.6c-0.6-1.1-1.2-2.1-2-3c-0.5-0.6-1.1-1.1-1.8-1.4C2184.1,913.7,2183.3,913.6,2182.5,913.6z M2185.5,902.4h-4
					c-0.4,0-0.8,0.4-0.8,0.8v5.7c0,0.4,0.4,0.8,0.8,0.8h3.9c1.1,0,2.1-0.1,3.2-0.3c0.8-0.2,1.4-0.6,2-1.2c0.5-0.6,0.7-1.4,0.7-2.2
					c0-0.7-0.2-1.4-0.5-2c-0.4-0.6-0.9-1-1.5-1.3C2187.9,902.4,2186.7,902.3,2185.5,902.4L2185.5,902.4z"/>
			</g>
		</g>
		<path id="Path_943" class="st7" d="M2015.8,915.1l0.3-10.9c0-1.9,0.2-4.1,0.2-4.9c0.1-1.1,0.1-1.6,0.8-2.2s1.8-0.5,2.7-0.4
			c1.2,0.1,2.1,0.1,2.8,0.8c0.4,0.5,0.5,1.1,0.2,2.6c-0.2,0.9-0.7,3.8-0.9,4.8l-1.8,10.6c-0.2,1.2-0.3,1.8-0.8,2.3
			c-0.5,0.5-0.9,0.4-1.6,0.3s-1.3-0.1-1.6-0.7C2015.7,916.8,2015.8,916.4,2015.8,915.1z"/>
		<path id="Path_944" class="st7" d="M2016.9,926.5c-0.7,0-1.3-0.2-1.8-0.7c-0.4-0.6-0.6-1.3-0.4-2.1c0-0.7,0.2-1.3,0.7-1.8
			c0.6-0.4,1.3-0.5,2-0.4c1.1-0.1,2.2,0.7,2.3,1.8c0,0.3,0,0.6-0.1,0.9c-0.1,0.8-0.2,1.5-0.7,1.9
			C2018.3,926.5,2017.6,926.6,2016.9,926.5z"/>
		<path id="Path_945" class="st8" d="M2002.3,901.3c3.6,2.2,5.7,6.1,5.7,10.3c0,2.6-0.8,5.2-2.4,7.3"/>
		<path id="Path_946" class="st9" d="M2005.1,919.7c-2.1,2.4-5.1,3.8-8.3,3.8c-6.4-0.1-11.5-5.5-11.4-11.9c0-2.6,0.8-5.2,2.4-7.3"/>
		<path id="Path_947" class="st10" d="M1988.3,903.5c2.1-2.4,5.1-3.8,8.3-3.8c2,0,4,0.5,5.7,1.6"/>
		<g id="Group_557">
			<path id="Path_948" class="st11" d="M1970.8,911.6c1.8,0.3,3.8,0.7,5,1.9c1.6,1.5,2.1,3.9,1.2,5.9c-0.8,1.6-2.8,2.5-4.8,3.1
				c-1.1,0.3-2.2,0.4-3.4,0.4"/>
			<path id="Path_949" class="st12" d="M1976.4,904.2c-1.1-2.2-3-3.8-5.3-4.6"/>
			<path id="Path_950" class="st13" d="M1968.8,922.9c-1.6,0.1-3.1-0.2-4.5-0.8c-2.4-1-4.2-2.1-5.3-4.6"/>
			<path id="Path_951" class="st14" d="M1971.3,899.7c-2.8-1.1-5.9-1-8.6,0.3c-2.7,1.1-3.9,4.1-2.8,6.8c0.1,0.1,0.1,0.3,0.2,0.4"/>
			<path id="Path_952" class="st15" d="M1960.1,907.3c0.2,0.4,0.5,0.7,0.8,1.1c1.7,1.8,4.7,2.5,7.4,2.9c0.8,0.1,1.7,0.2,2.5,0.4"/>
		</g>
	</g>
</g>
</svg>
