<svg xmlns="http://www.w3.org/2000/svg" width="243.612" height="52.28" viewBox="0 0 243.612 52.28">
  <g id="so_eyewear" data-name="so!eyewear" transform="translate(-129 -27.217)">
    <g id="logo_word" transform="translate(129 60.497)">
      <text id="Explore_Eyewear_Fashion" data-name="Explore  Eyewear  Fashion" transform="translate(0 15)" fill="#535353" font-size="14" font-family="NotoSans-Regular, Noto Sans" letter-spacing="0.05em"><tspan x="0" y="0" xml:space="preserve">Explore  Eyewear  Fashion</tspan></text>
      <text id="搜鏡王" transform="translate(199.612 14.901)" fill="#535353" font-size="12" font-family="YuGothicUI-Regular, Yu Gothic UI" letter-spacing="0.3em"><tspan x="0" y="0">搜鏡王</tspan></text>
      <circle id="LOGO_word-2" data-name="LOGO_word" cx="1.901" cy="1.901" r="1.901" transform="translate(191.267 9.222)" fill="#535353"/>
    </g>
    <g id="Group_555" data-name="Group 555" transform="translate(-1826.912 -868.634)">
      <g id="Group_556" data-name="Group 556">
        <g id="Group_555-2" data-name="Group 555">
          <path id="Path_936" data-name="Path 936" d="M2048.3,902.462h-12.552v6.592h11.624a2.5,2.5,0,0,1,1.778.559,1.942,1.942,0,0,1,.587,1.474,2.02,2.02,0,0,1-.578,1.493,2.443,2.443,0,0,1-1.787.576h-11.624v7.636h12.955a2.586,2.586,0,0,1,1.849.6,2.1,2.1,0,0,1,.621,1.585,2.047,2.047,0,0,1-.621,1.547,2.582,2.582,0,0,1-1.849.6h-14.969a3.245,3.245,0,0,1-2.444-.787,3.628,3.628,0,0,1-.744-2.546V901.6a4.719,4.719,0,0,1,.332-1.913,2.116,2.116,0,0,1,1.043-1.081,4.211,4.211,0,0,1,1.813-.339H2048.3a2.589,2.589,0,0,1,1.848.577,1.99,1.99,0,0,1,.605,1.511,2.012,2.012,0,0,1-.605,1.529A2.593,2.593,0,0,1,2048.3,902.462Z" fill="#135a5d"/>
          <path id="Path_937" data-name="Path 937" d="M2092.359,902.462h-12.551v6.592h11.623a2.5,2.5,0,0,1,1.778.559,1.941,1.941,0,0,1,.587,1.474,2.02,2.02,0,0,1-.578,1.493,2.442,2.442,0,0,1-1.787.576h-11.623v7.636h12.955a2.584,2.584,0,0,1,1.848.6,2.1,2.1,0,0,1,.621,1.585,2.048,2.048,0,0,1-.621,1.547,2.579,2.579,0,0,1-1.848.6h-14.97a3.244,3.244,0,0,1-2.444-.787,3.628,3.628,0,0,1-.744-2.546V901.6a4.719,4.719,0,0,1,.332-1.913,2.116,2.116,0,0,1,1.043-1.081,4.21,4.21,0,0,1,1.813-.339h14.566a2.594,2.594,0,0,1,1.849.577,1.993,1.993,0,0,1,.6,1.511,2.015,2.015,0,0,1-.6,1.529A2.6,2.6,0,0,1,2092.359,902.462Z" fill="#135a5d"/>
          <path id="Path_938" data-name="Path 938" d="M2146.569,902.462h-12.552v6.592h11.624a2.5,2.5,0,0,1,1.778.559,1.941,1.941,0,0,1,.587,1.474,2.02,2.02,0,0,1-.578,1.493,2.442,2.442,0,0,1-1.787.576h-11.624v7.636h12.955a2.586,2.586,0,0,1,1.849.6,2.1,2.1,0,0,1,.621,1.585,2.047,2.047,0,0,1-.621,1.547,2.582,2.582,0,0,1-1.849.6H2132a3.244,3.244,0,0,1-2.444-.787,3.628,3.628,0,0,1-.744-2.546V901.6a4.719,4.719,0,0,1,.332-1.913,2.116,2.116,0,0,1,1.043-1.081,4.212,4.212,0,0,1,1.813-.339h14.566a2.594,2.594,0,0,1,1.849.577,1.993,1.993,0,0,1,.6,1.511,2.015,2.015,0,0,1-.6,1.529A2.6,2.6,0,0,1,2146.569,902.462Z" fill="#135a5d"/>
          <path id="Path_939" data-name="Path 939" d="M2059.924,922.257v-8.515l-6.271-10.163a21.615,21.615,0,0,1-1.165-2.143,3.379,3.379,0,0,1-.342-1.336,2.181,2.181,0,0,1,.692-1.612,2.351,2.351,0,0,1,1.708-.677,2.037,2.037,0,0,1,1.621.631,18.974,18.974,0,0,1,1.656,2.518l4.8,8.149,4.853-8.149.735-1.263a7.977,7.977,0,0,1,.657-.962,2.64,2.64,0,0,1,.8-.686,2.4,2.4,0,0,1,2.707.43,2.142,2.142,0,0,1,.657,1.547,3.373,3.373,0,0,1-.333,1.429,18.8,18.8,0,0,1-1.139,1.977l-6.429,10.31v8.515a3.643,3.643,0,0,1-.736,2.491,2.552,2.552,0,0,1-3.748.009A3.7,3.7,0,0,1,2059.924,922.257Z" fill="#135a5d"/>
          <path id="Path_940" data-name="Path 940" d="M2115.567,920.884l-4-16.1-4.054,16.1q-.472,1.832-.752,2.628a3.47,3.47,0,0,1-.971,1.428,2.627,2.627,0,0,1-1.841.632,2.827,2.827,0,0,1-1.528-.376,2.774,2.774,0,0,1-.972-1.062,7.021,7.021,0,0,1-.608-1.629q-.237-.944-.422-1.749l-4.121-18.074a11.4,11.4,0,0,1-.372-2.4,2.462,2.462,0,0,1,.676-1.758,2.209,2.209,0,0,1,1.672-.714,1.855,1.855,0,0,1,1.841.952,11.424,11.424,0,0,1,.828,2.765l3.243,15.675,3.631-14.668a25.029,25.029,0,0,1,.726-2.564,3.689,3.689,0,0,1,1.048-1.52,2.879,2.879,0,0,1,1.976-.64,2.742,2.742,0,0,1,1.968.668,3.679,3.679,0,0,1,.971,1.456q.269.788.726,2.6L2118.9,917.2l3.243-15.675q.237-1.227.447-1.923a3.127,3.127,0,0,1,.727-1.245,1.949,1.949,0,0,1,1.494-.549,2.232,2.232,0,0,1,1.664.705,2.436,2.436,0,0,1,.684,1.767,12.405,12.405,0,0,1-.371,2.4l-4.121,18.074q-.423,1.832-.7,2.682a3.594,3.594,0,0,1-.946,1.493,2.611,2.611,0,0,1-1.884.641,2.652,2.652,0,0,1-1.841-.623,3.352,3.352,0,0,1-.962-1.4Q2116.057,922.771,2115.567,920.884Z" fill="#135a5d"/>
          <path id="Path_941" data-name="Path 941" d="M2168.444,922.074l-1.226-3.369h-10.44l-1.227,3.443a12.286,12.286,0,0,1-1.225,2.719,1.914,1.914,0,0,1-1.665.705,2.385,2.385,0,0,1-1.734-.751,2.344,2.344,0,0,1-.753-1.7,3.943,3.943,0,0,1,.175-1.135q.175-.586.578-1.63l6.569-17.433q.281-.751.675-1.8a9.238,9.238,0,0,1,.84-1.749,3.478,3.478,0,0,1,1.174-1.126c.485-.287-.164-.43.548-.43a10.067,10.067,0,0,1,3.061.43,3.553,3.553,0,0,1,1.174,1.108,7.906,7.906,0,0,1,.752,1.455q.308.78.78,2.079l6.709,17.323a9.019,9.019,0,0,1,.789,2.875,2.429,2.429,0,0,1-.745,1.712,2.393,2.393,0,0,1-1.795.779,2.247,2.247,0,0,1-1.051-.229,2.17,2.17,0,0,1-.736-.623,5.783,5.783,0,0,1-.64-1.208Q2168.69,922.7,2168.444,922.074Zm-10.3-7.453h7.673l-3.871-11.079Z" fill="#135a5d"/>
          <path id="Path_942" data-name="Path 942" d="M2182.523,913.632h-1.014a.813.813,0,0,0-.807.819v7.806a3.692,3.692,0,0,1-.719,2.509,2.394,2.394,0,0,1-1.874.806,2.343,2.343,0,0,1-1.927-.842,3.852,3.852,0,0,1-.683-2.473V901.6a3.6,3.6,0,0,1,.753-2.545,3.248,3.248,0,0,1,2.435-.788h8.461a24.56,24.56,0,0,1,3,.156,7.268,7.268,0,0,1,2.242.632,6.474,6.474,0,0,1,2.137,1.52,6.7,6.7,0,0,1,1.41,2.3,7.98,7.98,0,0,1,.482,2.774,6.887,6.887,0,0,1-1.62,4.8,8,8,0,0,1-3.329,2.09.825.825,0,0,0-.232,1.408,11.3,11.3,0,0,1,1.292,1.318,23.077,23.077,0,0,1,2.251,3.195,26.35,26.35,0,0,1,1.672,2.927,6.279,6.279,0,0,1,.551,1.877,1.976,1.976,0,0,1-.324,1.053,2.3,2.3,0,0,1-.885.824,2.681,2.681,0,0,1-1.3.3,2.442,2.442,0,0,1-1.471-.43,4.036,4.036,0,0,1-1.025-1.09,21.259,21.259,0,0,1-1.295-1.809l-2.085-3.626a19.976,19.976,0,0,0-2-3.04,4.976,4.976,0,0,0-1.8-1.428A5.937,5.937,0,0,0,2182.523,913.632Zm2.978-11.28h-3.992a.813.813,0,0,0-.807.819v5.742a.813.813,0,0,0,.807.819h3.852a12.494,12.494,0,0,0,3.153-.339,3.663,3.663,0,0,0,1.954-1.154,3.419,3.419,0,0,0,.674-2.243,3.587,3.587,0,0,0-.543-1.969,3.324,3.324,0,0,0-1.507-1.272A10.406,10.406,0,0,0,2185.5,902.352Z" fill="#135a5d"/>
        </g>
      </g>
      <path id="Path_943" data-name="Path 943" d="M2015.765,915.084l.273-10.883c.045-1.936.169-4.068.243-4.907.1-1.14.11-1.6.761-2.183s1.762-.5,2.732-.417c1.175.1,2.147.079,2.774.847.377.463.54,1.1.193,2.617-.2.889-.718,3.838-.9,4.765l-1.759,10.582c-.2,1.2-.266,1.818-.8,2.328-.475.456-.92.351-1.643.287s-1.25-.144-1.6-.749C2015.7,916.781,2015.777,916.374,2015.765,915.084Z" fill="#33b3c2"/>
      <path id="Path_944" data-name="Path 944" d="M2016.935,926.456a2.6,2.6,0,0,1-1.839-.65,2.435,2.435,0,0,1-.391-2.057,2.382,2.382,0,0,1,.7-1.831,2.482,2.482,0,0,1,1.975-.388,2.067,2.067,0,0,1,2.232,2.688c-.074.84-.153,1.478-.731,1.91A2.629,2.629,0,0,1,2016.935,926.456Z" fill="#33b3c2"/>
      <path id="Path_945" data-name="Path 945" d="M2002.348,901.335a11.992,11.992,0,0,1,5.694,10.3,12.179,12.179,0,0,1-2.4,7.308" fill="none" stroke="#33b3c2" stroke-linecap="round" stroke-miterlimit="10" stroke-width="6.078"/>
      <path id="Path_946" data-name="Path 946" d="M2005.082,919.659a11.144,11.144,0,0,1-8.349,3.8,11.651,11.651,0,0,1-11.391-11.894,12.177,12.177,0,0,1,2.4-7.307" fill="none" stroke="#52d1c8" stroke-linecap="round" stroke-miterlimit="10" stroke-width="6.078"/>
      <path id="Path_947" data-name="Path 947" d="M1988.3,903.548a11.144,11.144,0,0,1,8.349-3.8,10.975,10.975,0,0,1,5.7,1.591" fill="none" stroke="#34c1b3" stroke-linecap="round" stroke-miterlimit="10" stroke-width="6.078"/>
      <g id="Group_557" data-name="Group 557">
        <path id="Path_948" data-name="Path 948" d="M1970.8,911.567c1.845.329,3.771.71,4.976,1.892a5.127,5.127,0,0,1,1.15,5.941c-.826,1.581-2.823,2.545-4.78,3.053a13.545,13.545,0,0,1-3.355.43" fill="none" stroke="#519786" stroke-linecap="round" stroke-miterlimit="10" stroke-width="5.991"/>
        <path id="Path_949" data-name="Path 949" d="M1976.37,904.166a9.019,9.019,0,0,0-5.312-4.573" fill="none" stroke="#33b3c2" stroke-linecap="round" stroke-miterlimit="10" stroke-width="5.928"/>
        <path id="Path_950" data-name="Path 950" d="M1968.788,922.883a11.364,11.364,0,0,1-4.549-.775c-2.379-1.034-4.2-2.143-5.327-4.558" fill="none" stroke="#3ba6aa" stroke-linecap="round" stroke-miterlimit="10" stroke-width="5.991"/>
        <path id="Path_951" data-name="Path 951" d="M1971.306,899.7a10.887,10.887,0,0,0-8.591.289,5.2,5.2,0,0,0-2.659,7.194" fill="none" stroke="#71d3ea" stroke-linecap="round" stroke-miterlimit="10" stroke-width="5.991"/>
        <path id="Path_952" data-name="Path 952" d="M1960.107,907.257a4.7,4.7,0,0,0,.772,1.054c1.7,1.752,4.738,2.512,7.4,2.879.831.114,1.68.228,2.515.377" fill="none" stroke="#33b3c2" stroke-linecap="round" stroke-miterlimit="10" stroke-width="5.991"/>
      </g>
    </g>
  </g>
</svg>
