<svg xmlns="http://www.w3.org/2000/svg" width="242.012" height="51.528" viewBox="0 0 242.012 51.528">
  <g id="so_eyewear" data-name="so eyewear" transform="translate(-0.004 -0.113)">
    <g id="logo_word" data-name="logo word">
      <g id="Explore_Eyewear_Fashion" data-name="Explore Eyewear Fashion">
        <g id="Group_566" data-name="Group 566">
          <path id="Path_953" data-name="Path 953" d="M6.944,48.28H1.358v-10H6.944v1.107H2.618v3.122H6.692V43.6H2.618v3.57H6.944Z" fill="#535353"/>
          <path id="Path_954" data-name="Path 954" d="M11.452,44.444l-2.59-3.668h1.4L12.194,43.6l1.918-2.828H15.5l-2.59,3.668,2.73,3.836h-1.4l-2.044-3-2.072,3H8.736Z" fill="#535353"/>
          <path id="Path_955" data-name="Path 955" d="M21.35,40.637a2.823,2.823,0,0,1,2.233.966,4.313,4.313,0,0,1,.847,2.912,4.385,4.385,0,0,1-.847,2.912,2.807,2.807,0,0,1-2.247.993A2.883,2.883,0,0,1,19.9,48.1a2.738,2.738,0,0,1-.889-.771h-.084c.009.159.026.36.049.6s.035.452.035.63v3.08H17.78V40.776h1.008l.168,1.022h.056a2.877,2.877,0,0,1,.882-.825A2.746,2.746,0,0,1,21.35,40.637Zm-.224,1.035a1.889,1.889,0,0,0-1.624.644,3.361,3.361,0,0,0-.49,1.96v.239a4.139,4.139,0,0,0,.455,2.134,1.812,1.812,0,0,0,1.687.749,1.7,1.7,0,0,0,1.12-.371A2.184,2.184,0,0,0,22.939,46a4.787,4.787,0,0,0,.217-1.5,3.758,3.758,0,0,0-.5-2.058A1.7,1.7,0,0,0,21.126,41.672Z" fill="#535353"/>
          <path id="Path_956" data-name="Path 956" d="M28.322,48.28H27.09V37.641h1.232Z" fill="#535353"/>
          <path id="Path_957" data-name="Path 957" d="M37.926,44.515a4.088,4.088,0,0,1-.945,2.883,3.308,3.308,0,0,1-2.555,1.022,3.432,3.432,0,0,1-1.771-.455,3.168,3.168,0,0,1-1.225-1.329,4.609,4.609,0,0,1-.448-2.121,4.073,4.073,0,0,1,.931-2.87,3.306,3.306,0,0,1,2.555-1.008,3.508,3.508,0,0,1,1.792.454,3.13,3.13,0,0,1,1.225,1.316A4.586,4.586,0,0,1,37.926,44.515Zm-5.67,0a3.711,3.711,0,0,0,.525,2.106,2.182,2.182,0,0,0,3.339,0,3.67,3.67,0,0,0,.532-2.106,3.571,3.571,0,0,0-.532-2.086,1.91,1.91,0,0,0-1.68-.757,1.872,1.872,0,0,0-1.666.757A3.65,3.65,0,0,0,32.256,44.515Z" fill="#535353"/>
          <path id="Path_958" data-name="Path 958" d="M44.072,40.637c.14,0,.289.007.448.02a3.414,3.414,0,0,1,.434.064L44.8,41.854c-.122-.028-.257-.051-.406-.07a3.437,3.437,0,0,0-.406-.028,2,2,0,0,0-1.078.315,2.271,2.271,0,0,0-.805.882,2.777,2.777,0,0,0-.3,1.323v4H40.572v-7.5H41.58l.14,1.372h.056a3.535,3.535,0,0,1,.931-1.064A2.173,2.173,0,0,1,44.072,40.637Z" fill="#535353"/>
          <path id="Path_959" data-name="Path 959" d="M49.671,40.637a3.147,3.147,0,0,1,1.653.42A2.743,2.743,0,0,1,52.4,42.239a4.045,4.045,0,0,1,.371,1.785v.743H47.627a2.834,2.834,0,0,0,.651,1.938,2.275,2.275,0,0,0,1.743.665,5.431,5.431,0,0,0,1.268-.133,7.194,7.194,0,0,0,1.141-.384v1.078a5.913,5.913,0,0,1-1.135.371,6.5,6.5,0,0,1-1.33.118,3.951,3.951,0,0,1-1.889-.434A3.03,3.03,0,0,1,46.809,46.7a4.446,4.446,0,0,1-.455-2.114,4.938,4.938,0,0,1,.413-2.113,3.133,3.133,0,0,1,1.162-1.359A3.179,3.179,0,0,1,49.671,40.637Zm-.013,1.008a1.778,1.778,0,0,0-1.393.566,2.675,2.675,0,0,0-.61,1.575h3.823a2.631,2.631,0,0,0-.449-1.547A1.583,1.583,0,0,0,49.658,41.645Z" fill="#535353"/>
          <path id="Path_960" data-name="Path 960" d="M69.8,48.28H64.217v-10H69.8v1.107H65.478v3.122h4.073V43.6H65.478v3.57H69.8Z" fill="#535353"/>
          <path id="Path_961" data-name="Path 961" d="M71.357,40.776h1.316l1.624,4.27c.141.383.266.742.378,1.078a7.053,7.053,0,0,1,.252.966h.056c.056-.233.145-.538.266-.917s.248-.758.378-1.141l1.526-4.256h1.33l-3.234,8.54a4.876,4.876,0,0,1-1.022,1.695,2.28,2.28,0,0,1-1.708.63,4.21,4.21,0,0,1-.588-.036c-.168-.023-.312-.048-.434-.077v-.98c.1.018.227.038.371.056a3.507,3.507,0,0,0,.455.028,1.464,1.464,0,0,0,1.036-.363,2.6,2.6,0,0,0,.63-.966l.392-.994Z" fill="#535353"/>
          <path id="Path_962" data-name="Path 962" d="M83.271,40.637a3.144,3.144,0,0,1,1.653.42A2.743,2.743,0,0,1,86,42.239a4.045,4.045,0,0,1,.371,1.785v.743H81.228a2.829,2.829,0,0,0,.65,1.938,2.276,2.276,0,0,0,1.744.665,5.428,5.428,0,0,0,1.267-.133,7.193,7.193,0,0,0,1.141-.384v1.078A5.9,5.9,0,0,1,84.9,48.3a6.517,6.517,0,0,1-1.331.118,3.951,3.951,0,0,1-1.889-.434A3.03,3.03,0,0,1,80.409,46.7a4.446,4.446,0,0,1-.455-2.114,4.938,4.938,0,0,1,.413-2.113,3.133,3.133,0,0,1,1.162-1.359A3.179,3.179,0,0,1,83.271,40.637Zm-.013,1.008a1.778,1.778,0,0,0-1.393.566,2.675,2.675,0,0,0-.61,1.575h3.823a2.631,2.631,0,0,0-.449-1.547A1.583,1.583,0,0,0,83.258,41.645Z" fill="#535353"/>
          <path id="Path_963" data-name="Path 963" d="M94.821,48.267l-1.287-4.229q-.183-.574-.323-1.12c-.093-.363-.158-.653-.195-.868h-.057c-.037.215-.1.505-.182.868s-.191.742-.321,1.135l-1.345,4.214h-1.4l-2.058-7.5h1.275l1.035,4q.155.6.294,1.217c.094.412.159.751.2,1.022h.055c.029-.158.071-.355.127-.588s.116-.478.181-.734.131-.489.2-.694l1.33-4.227h1.344l1.288,4.227q.14.49.294,1.05a8,8,0,0,1,.209.952h.057a8.721,8.721,0,0,1,.189-.966q.147-.616.315-1.259l1.049-4H98.35l-2.086,7.5Z" fill="#535353"/>
          <path id="Path_964" data-name="Path 964" d="M103.292,40.637a3.143,3.143,0,0,1,1.652.42,2.743,2.743,0,0,1,1.071,1.182,4.045,4.045,0,0,1,.371,1.785v.743h-5.138a2.829,2.829,0,0,0,.65,1.938,2.276,2.276,0,0,0,1.744.665,5.428,5.428,0,0,0,1.267-.133,7.194,7.194,0,0,0,1.141-.384v1.078a5.9,5.9,0,0,1-1.134.371,6.517,6.517,0,0,1-1.331.118,3.951,3.951,0,0,1-1.889-.434,3.03,3.03,0,0,1-1.267-1.288,4.446,4.446,0,0,1-.455-2.114,4.937,4.937,0,0,1,.413-2.113,3.133,3.133,0,0,1,1.162-1.359A3.18,3.18,0,0,1,103.292,40.637Zm-.014,1.008a1.778,1.778,0,0,0-1.393.566,2.675,2.675,0,0,0-.61,1.575H105.1a2.631,2.631,0,0,0-.449-1.547A1.583,1.583,0,0,0,103.278,41.645Z" fill="#535353"/>
          <path id="Path_965" data-name="Path 965" d="M111.832,40.65a2.937,2.937,0,0,1,2.029.6,2.484,2.484,0,0,1,.659,1.918v5.11h-.9l-.239-1.064h-.056a3.417,3.417,0,0,1-1.036.91,3.147,3.147,0,0,1-1.484.294,2.624,2.624,0,0,1-1.694-.539,2.032,2.032,0,0,1-.672-1.687,1.977,1.977,0,0,1,.882-1.729,5.132,5.132,0,0,1,2.717-.665l1.273-.042v-.447a1.7,1.7,0,0,0-.406-1.3,1.663,1.663,0,0,0-1.148-.363,3.582,3.582,0,0,0-1.12.174,8.171,8.171,0,0,0-.994.4l-.377-.925a5.633,5.633,0,0,1,1.161-.455A5.15,5.15,0,0,1,111.832,40.65Zm1.469,3.962-1.106.042a3.721,3.721,0,0,0-1.939.449,1.285,1.285,0,0,0-.539,1.1,1.087,1.087,0,0,0,.386.924,1.577,1.577,0,0,0,.986.295,2.4,2.4,0,0,0,1.576-.526,1.973,1.973,0,0,0,.636-1.617Z" fill="#535353"/>
          <path id="Path_966" data-name="Path 966" d="M121.043,40.637c.14,0,.289.007.448.02a3.414,3.414,0,0,1,.434.064l-.154,1.133c-.122-.028-.257-.051-.406-.07a3.436,3.436,0,0,0-.406-.028,2,2,0,0,0-1.078.315,2.271,2.271,0,0,0-.805.882,2.777,2.777,0,0,0-.3,1.323v4h-1.232v-7.5h1.008l.14,1.372h.056a3.549,3.549,0,0,1,.931-1.064A2.173,2.173,0,0,1,121.043,40.637Z" fill="#535353"/>
          <path id="Path_967" data-name="Path 967" d="M134.133,48.28h-1.26v-10h5.586v1.107h-4.326v3.542h4.06v1.1h-4.06Z" fill="#535353"/>
          <path id="Path_968" data-name="Path 968" d="M143.514,40.65a2.937,2.937,0,0,1,2.029.6,2.488,2.488,0,0,1,.658,1.918v5.11h-.9l-.239-1.064h-.055a3.417,3.417,0,0,1-1.036.91,3.151,3.151,0,0,1-1.485.294,2.623,2.623,0,0,1-1.693-.539,2.035,2.035,0,0,1-.672-1.687,1.977,1.977,0,0,1,.882-1.729,5.131,5.131,0,0,1,2.716-.665L145,43.758v-.447a1.7,1.7,0,0,0-.406-1.3,1.666,1.666,0,0,0-1.148-.363,3.592,3.592,0,0,0-1.121.174,8.22,8.22,0,0,0-.993.4l-.378-.925a5.643,5.643,0,0,1,1.162-.455A5.145,5.145,0,0,1,143.514,40.65Zm1.468,3.962-1.1.042a3.722,3.722,0,0,0-1.94.449,1.285,1.285,0,0,0-.539,1.1,1.087,1.087,0,0,0,.386.924,1.58,1.58,0,0,0,.987.295,2.394,2.394,0,0,0,1.575-.526,1.97,1.97,0,0,0,.636-1.617Z" fill="#535353"/>
          <path id="Path_969" data-name="Path 969" d="M154.111,46.208a1.877,1.877,0,0,1-.812,1.652,3.789,3.789,0,0,1-2.184.56,6.3,6.3,0,0,1-1.351-.126,4.1,4.1,0,0,1-1-.35v-1.12a6.624,6.624,0,0,0,1.085.413,4.521,4.521,0,0,0,1.295.19,2.368,2.368,0,0,0,1.357-.3.94.94,0,0,0,.421-.805.877.877,0,0,0-.154-.5,1.658,1.658,0,0,0-.553-.448,8.913,8.913,0,0,0-1.142-.5,10.962,10.962,0,0,1-1.246-.559,2.292,2.292,0,0,1-.8-.673,1.69,1.69,0,0,1-.281-1.008,1.667,1.667,0,0,1,.777-1.47,3.625,3.625,0,0,1,2.037-.517,5.61,5.61,0,0,1,1.282.139,6.658,6.658,0,0,1,1.113.365l-.42.979a8.4,8.4,0,0,0-.994-.336,4.077,4.077,0,0,0-1.064-.139,2.23,2.23,0,0,0-1.155.245.748.748,0,0,0-.4.665.781.781,0,0,0,.181.531,1.955,1.955,0,0,0,.61.42c.284.14.665.3,1.14.476a9.165,9.165,0,0,1,1.218.546,2.166,2.166,0,0,1,.771.679A1.781,1.781,0,0,1,154.111,46.208Z" fill="#535353"/>
          <path id="Path_970" data-name="Path 970" d="M157.862,37.641v3.122a7.557,7.557,0,0,1-.069,1.05h.084a2.315,2.315,0,0,1,.986-.869,3.13,3.13,0,0,1,1.352-.294,2.893,2.893,0,0,1,2.051.652,2.756,2.756,0,0,1,.693,2.093V48.28H161.74v-4.8q0-1.808-1.679-1.807a1.925,1.925,0,0,0-1.729.707,3.653,3.653,0,0,0-.47,2.023V48.28h-1.231V37.641Z" fill="#535353"/>
          <path id="Path_971" data-name="Path 971" d="M166.612,37.962a.733.733,0,0,1,.5.189.924.924,0,0,1,0,1.19.733.733,0,0,1-.5.189.747.747,0,0,1-.518-.189.951.951,0,0,1,0-1.19A.747.747,0,0,1,166.612,37.962Zm.6,2.814v7.5h-1.233v-7.5Z" fill="#535353"/>
          <path id="Path_972" data-name="Path 972" d="M176.818,44.515a4.084,4.084,0,0,1-.945,2.883,3.305,3.305,0,0,1-2.555,1.022,3.434,3.434,0,0,1-1.771-.455,3.168,3.168,0,0,1-1.225-1.329,4.609,4.609,0,0,1-.447-2.121,4.073,4.073,0,0,1,.931-2.87,3.3,3.3,0,0,1,2.554-1.008,3.5,3.5,0,0,1,1.792.454,3.117,3.117,0,0,1,1.225,1.316A4.573,4.573,0,0,1,176.818,44.515Zm-5.67,0a3.711,3.711,0,0,0,.526,2.106,2.182,2.182,0,0,0,3.339,0,3.678,3.678,0,0,0,.532-2.106,3.579,3.579,0,0,0-.532-2.086,1.911,1.911,0,0,0-1.681-.757,1.873,1.873,0,0,0-1.666.757A3.65,3.65,0,0,0,171.148,44.515Z" fill="#535353"/>
          <path id="Path_973" data-name="Path 973" d="M183.076,40.637a2.394,2.394,0,0,1,2.717,2.758V48.28h-1.219v-4.8q0-1.808-1.679-1.807a1.935,1.935,0,0,0-1.723.7,3.581,3.581,0,0,0-.476,2.017V48.28h-1.231v-7.5h.994l.182,1.022h.07a2.211,2.211,0,0,1,1.008-.875A3.3,3.3,0,0,1,183.076,40.637Z" fill="#535353"/>
        </g>
      </g>
      <g id="搜鏡王">
        <g id="Group_567" data-name="Group 567">
          <path id="Path_974" data-name="Path 974" d="M203.69,41.29a.088.088,0,0,1-.1.1l-1.067-.024h-.035v2.42q.551-.228,1.19-.539a2.591,2.591,0,0,0-.047.457.419.419,0,0,1-.047.24.77.77,0,0,1-.182.106l-.914.422v1.453l.024,1.8a1.831,1.831,0,0,1-.088.656.754.754,0,0,1-.246.305.9.9,0,0,1-.364.169,2.866,2.866,0,0,1-.615.047h-.176a.408.408,0,0,1-.24-.041.437.437,0,0,1-.082-.2,1.729,1.729,0,0,0-.217-.515,7.063,7.063,0,0,0,.85.046.414.414,0,0,0,.375-.146.842.842,0,0,0,.082-.44V44.759l-.686.275a1.361,1.361,0,0,0-.439.235.237.237,0,0,1-.158.07.131.131,0,0,1-.123-.094,6.46,6.46,0,0,1-.2-.685,7.119,7.119,0,0,0,1.054-.293l.551-.188V41.366h-.322l-1.084.024c-.063,0-.094-.034-.094-.1v-.5a.083.083,0,0,1,.094-.094l1.084.024h.322v-.973a9.272,9.272,0,0,0-.082-1.465,6.238,6.238,0,0,1,.768.076c.1.016.158.047.158.094a1.033,1.033,0,0,1-.088.24,4.458,4.458,0,0,0-.059,1.032v1h.035l1.067-.024c.066,0,.1.032.1.094Zm7.43,6.949a1.471,1.471,0,0,0-.31.487c-.059.128-.116.193-.17.193a.759.759,0,0,1-.176-.035,11.718,11.718,0,0,1-3.223-1.166,13.962,13.962,0,0,1-3.422,1.189.541.541,0,0,1-.164.035c-.062,0-.123-.068-.181-.205a1.238,1.238,0,0,0-.311-.427,13.6,13.6,0,0,0,3.475-1,7.2,7.2,0,0,1-1.711-1.957c-.352,0-.66.01-.926.018-.035,0-.1,0-.2.006h-.065c-.062,0-.093-.035-.093-.106v-.433c0-.07.031-.106.093-.106l1.612.024h1.517v-1.1H205.9l-1.6.024a.083.083,0,0,1-.094-.094l.023-1.272V40.54a7.9,7.9,0,0,0-.07-1.283,2.5,2.5,0,0,1,.651.2,4.842,4.842,0,0,0,.814-.357,2.149,2.149,0,0,0,.463-.334,5.642,5.642,0,0,1,.469.451.261.261,0,0,1,.058.146c0,.059-.049.094-.146.106a1.519,1.519,0,0,0-.393.123q-.5.206-1.183.457V41.1h.72l.6-.024c.055,0,.082.031.082.094v.433c0,.063-.027.094-.082.094l-.6-.023h-.72v1.406h1.974V39.591a8.17,8.17,0,0,0-.07-1.342,6.541,6.541,0,0,1,.721.07c.1.012.146.043.146.094a.369.369,0,0,1-.059.193,3.428,3.428,0,0,0-.076.973v3.5h2.127V41.677h-.814l-.592.023a.083.083,0,0,1-.094-.094v-.433a.083.083,0,0,1,.094-.094l.592.024h.814V39.761h-.779l-.674.023a.088.088,0,0,1-.1-.1v-.44a.088.088,0,0,1,.1-.1l.733.023h.562l.75-.023a.083.083,0,0,1,.094.093l-.024,1.178v1.969l.024,1.2a.083.083,0,0,1-.094.094l-1.6-.024h-1.119v1.1h1.659a.7.7,0,0,0,.24-.024.261.261,0,0,1,.146-.047c.055,0,.155.073.3.217s.205.233.205.3a.142.142,0,0,1-.094.129,1.183,1.183,0,0,0-.3.264,6.982,6.982,0,0,1-1.787,1.728A12.254,12.254,0,0,0,211.12,48.239Zm-2.092-2.883h-3.392a5.671,5.671,0,0,0,1.629,1.623A5.353,5.353,0,0,0,209.028,45.356Z" fill="#535353"/>
          <path id="Path_975" data-name="Path 975" d="M220.228,40.552a1.482,1.482,0,0,0-.334.345c-.067.114-.123.17-.17.17s-.086-.041-.164-.123a10.882,10.882,0,0,1-1.3-1.582,9.225,9.225,0,0,1-2.016,2.356.294.294,0,0,1-.152.082c-.043,0-.092-.057-.147-.17a2.057,2.057,0,0,0-.275-.416,6.955,6.955,0,0,0,2.039-2.3,2.019,2.019,0,0,0,.252-.621,4.025,4.025,0,0,1,.709.17q.117.034.117.1t-.1.147a.337.337,0,0,0-.094.082A9.118,9.118,0,0,0,220.228,40.552Zm-.012,6.129a1.911,1.911,0,0,0-.047.445.381.381,0,0,1-.041.228.666.666,0,0,1-.2.083q-1.354.474-3.053.972a1.016,1.016,0,0,0-.428.217.226.226,0,0,1-.158.059c-.059,0-.107-.045-.146-.135a4.446,4.446,0,0,1-.229-.656,6.213,6.213,0,0,0,1.107-.206c.364-.089.62-.158.768-.2V43.944h-.434l-1.248.024a.083.083,0,0,1-.093-.094v-.457a.083.083,0,0,1,.093-.094l1.248.024h.434V42.075h-.059l-.984.024a.089.089,0,0,1-.1-.1V41.56a.089.089,0,0,1,.1-.1l1.031.023h.756l1.031-.023a.088.088,0,0,1,.1.1V42a.089.089,0,0,1-.1.1l-1.031-.024h-.07v1.272h.252l1.248-.024a.083.083,0,0,1,.094.094v.457a.083.083,0,0,1-.094.094l-1.248-.024h-.252V47.29Q219.442,46.986,220.216,46.681Zm-2.988-.035a.33.33,0,0,1,.005.041c0,.042-.048.08-.146.111l-.305.111a.252.252,0,0,1-.094.029c-.031,0-.05-.029-.058-.087A8.369,8.369,0,0,0,216.185,45a.134.134,0,0,1-.018-.059c0-.031.037-.058.111-.082l.317-.111a.427.427,0,0,1,.1-.023c.028,0,.049.023.065.07A7.8,7.8,0,0,1,217.228,46.646Zm2.918-1.752a.148.148,0,0,1-.071.117.632.632,0,0,0-.146.263q-.2.651-.4,1.155c-.047.113-.09.17-.129.17a.617.617,0,0,1-.17-.053,1.349,1.349,0,0,0-.322-.094A10.481,10.481,0,0,0,219.378,45a2.927,2.927,0,0,0,.059-.416,3.982,3.982,0,0,1,.6.2C220.11,44.813,220.146,44.851,220.146,44.894Zm6.492,2.712q-.147.9-.492,1.1a3.846,3.846,0,0,1-2.333.047.761.761,0,0,1-.275-.668v-2.08H222.6a3.092,3.092,0,0,1-.873,1.986,4.731,4.731,0,0,1-1.981,1.055.766.766,0,0,1-.182.035c-.043,0-.1-.049-.175-.146A1.514,1.514,0,0,0,219,48.55a4.89,4.89,0,0,0,2.314-1.067,2.159,2.159,0,0,0,.6-1.476q-.492.006-.873.017l-.27.006a.082.082,0,0,1-.093-.093l.023-1.008V43.692l-.023-1.007a.083.083,0,0,1,.093-.094l1.442.023h1.957l1.429-.023a.083.083,0,0,1,.094.094l-.023,1.007v1.237l.023,1.008a.083.083,0,0,1-.094.093l-1.394-.023V47.87a.384.384,0,0,0,.07.276,1.5,1.5,0,0,0,.674.082,1.748,1.748,0,0,0,.779-.118c.161-.093.248-.447.264-1.06a1.363,1.363,0,0,0,.469.24c.121.043.181.1.181.17C226.649,47.472,226.646,47.521,226.638,47.606Zm-.024-5.794c0,.062-.029.093-.088.093l-1.629-.023h-3.169L220.1,41.9c-.067,0-.1-.031-.1-.093V41.4c0-.062.033-.093.1-.093l1.629.023h.134a4.524,4.524,0,0,0-.433-.973.138.138,0,0,1-.024-.064c0-.027.049-.059.147-.094l.275-.094a.513.513,0,0,1,.1-.029c.027,0,.052.022.076.065a7.262,7.262,0,0,1,.5,1.189h1.383a7.96,7.96,0,0,0,.345-.791,1.967,1.967,0,0,0,.135-.5,2.683,2.683,0,0,1,.621.152c.082.028.123.065.123.112a.2.2,0,0,1-.07.129,1.016,1.016,0,0,0-.158.217q-.353.667-.364.685h.375l1.629-.023c.059,0,.088.031.088.093Zm-.31-1.946c0,.063-.033.094-.1.094l-1.558-.023h-2.667l-1.546.023a.083.083,0,0,1-.094-.094v-.41c0-.055.031-.082.094-.082l1.546.012h.844v-.135a4,4,0,0,0-.088-1,6.358,6.358,0,0,1,.744.064c.1.012.147.039.147.082a.8.8,0,0,1-.07.217,1.87,1.87,0,0,0-.065.621v.147h1.155l1.558-.012c.067,0,.1.027.1.082ZM225.015,44v-.85H221.37V44Zm0,1.465V44.53H221.37v.938Z" fill="#535353"/>
          <path id="Path_976" data-name="Path 976" d="M242.016,47.9c0,.055-.032.082-.094.082l-1.57-.023h-7.067l-1.576.023c-.063,0-.094-.027-.094-.082v-.592a.083.083,0,0,1,.094-.093l1.576.023h3.047V43.792h-1.658l-1.694.023a.082.082,0,0,1-.093-.093v-.569a.082.082,0,0,1,.093-.093l1.694.023h1.658V40.007H233.9l-1.659.023a.082.082,0,0,1-.093-.093v-.581a.082.082,0,0,1,.093-.093l1.659.023h5.865l1.658-.023a.083.083,0,0,1,.094.093v.581a.083.083,0,0,1-.094.093l-1.658-.023H237.1v3.076h1.869l1.693-.023a.083.083,0,0,1,.094.093v.569a.083.083,0,0,1-.094.093l-1.693-.023H237.1v3.451h3.252l1.57-.023a.083.083,0,0,1,.094.093Z" fill="#535353"/>
        </g>
      </g>
      <g id="LOGO_word-2" data-name="LOGO word-2">
        <circle id="Ellipse_58" data-name="Ellipse 58" cx="1.901" cy="1.901" r="1.901" transform="translate(191.267 42.502)" fill="#535353"/>
      </g>
    </g>
    <g id="Group_555" data-name="Group 555">
      <g id="Group_556" data-name="Group 556">
        <g id="Group_555-2" data-name="Group 555-2">
          <g id="Path_936" data-name="Path 936">
            <path id="Path_977" data-name="Path 977" d="M92.388,6.611H79.836V13.2H91.46a2.5,2.5,0,0,1,1.778.559,1.941,1.941,0,0,1,.587,1.474,2.021,2.021,0,0,1-.578,1.493,2.443,2.443,0,0,1-1.787.576H79.836v7.636H92.791a2.586,2.586,0,0,1,1.849.6,2.1,2.1,0,0,1,.621,1.585,2.047,2.047,0,0,1-.621,1.547,2.584,2.584,0,0,1-1.849.6H77.822a3.246,3.246,0,0,1-2.444-.787,3.631,3.631,0,0,1-.744-2.546V5.749a4.722,4.722,0,0,1,.332-1.913,2.118,2.118,0,0,1,1.043-1.081,4.211,4.211,0,0,1,1.813-.339H92.388a2.588,2.588,0,0,1,1.848.577A1.988,1.988,0,0,1,94.841,4.5a2.013,2.013,0,0,1-.605,1.529A2.593,2.593,0,0,1,92.388,6.611Z" fill="#135a5d"/>
          </g>
          <g id="Path_937" data-name="Path 937">
            <path id="Path_978" data-name="Path 978" d="M136.447,6.611H123.9V13.2h11.623a2.5,2.5,0,0,1,1.778.559,1.941,1.941,0,0,1,.587,1.474,2.021,2.021,0,0,1-.578,1.493,2.443,2.443,0,0,1-1.787.576H123.9v7.636h12.955a2.583,2.583,0,0,1,1.848.6,2.1,2.1,0,0,1,.621,1.585,2.047,2.047,0,0,1-.621,1.547,2.582,2.582,0,0,1-1.848.6h-14.97a3.246,3.246,0,0,1-2.444-.787,3.626,3.626,0,0,1-.744-2.546V5.749a4.722,4.722,0,0,1,.332-1.913,2.118,2.118,0,0,1,1.043-1.081,4.211,4.211,0,0,1,1.813-.339h14.566a2.592,2.592,0,0,1,1.849.577,1.991,1.991,0,0,1,.6,1.511,2.015,2.015,0,0,1-.6,1.529A2.6,2.6,0,0,1,136.447,6.611Z" fill="#135a5d"/>
          </g>
          <g id="Path_938" data-name="Path 938">
            <path id="Path_979" data-name="Path 979" d="M190.657,6.611H178.1V13.2h11.624a2.5,2.5,0,0,1,1.778.559,1.941,1.941,0,0,1,.587,1.474,2.021,2.021,0,0,1-.578,1.493,2.443,2.443,0,0,1-1.787.576H178.1v7.636H191.06a2.586,2.586,0,0,1,1.849.6,2.1,2.1,0,0,1,.621,1.585,2.043,2.043,0,0,1-.621,1.547,2.584,2.584,0,0,1-1.849.6H176.088a3.246,3.246,0,0,1-2.444-.787,3.626,3.626,0,0,1-.744-2.546V5.749a4.723,4.723,0,0,1,.332-1.913,2.118,2.118,0,0,1,1.043-1.081,4.211,4.211,0,0,1,1.813-.339h14.566a2.592,2.592,0,0,1,1.849.577,1.991,1.991,0,0,1,.6,1.511,2.015,2.015,0,0,1-.6,1.529A2.6,2.6,0,0,1,190.657,6.611Z" fill="#135a5d"/>
          </g>
          <g id="Path_939" data-name="Path 939">
            <path id="Path_980" data-name="Path 980" d="M104.012,26.406V17.891L97.741,7.728a21.742,21.742,0,0,1-1.165-2.143,3.374,3.374,0,0,1-.342-1.336,2.183,2.183,0,0,1,.692-1.612,2.352,2.352,0,0,1,1.708-.677,2.037,2.037,0,0,1,1.621.631,18.915,18.915,0,0,1,1.656,2.518l4.8,8.149,4.853-8.149.735-1.263a8.083,8.083,0,0,1,.657-.962,2.65,2.65,0,0,1,.8-.686,2.4,2.4,0,0,1,2.707.43,2.14,2.14,0,0,1,.657,1.547,3.369,3.369,0,0,1-.333,1.429,18.549,18.549,0,0,1-1.139,1.977l-6.429,10.31v8.515a3.643,3.643,0,0,1-.736,2.491,2.552,2.552,0,0,1-3.606.15c-.049-.045-.1-.092-.142-.141A3.7,3.7,0,0,1,104.012,26.406Z" fill="#135a5d"/>
          </g>
          <g id="Path_940" data-name="Path 940">
            <path id="Path_981" data-name="Path 981" d="M159.655,25.033l-4-16.1-4.054,16.1q-.473,1.831-.752,2.628a3.471,3.471,0,0,1-.971,1.428,2.624,2.624,0,0,1-1.841.632,2.829,2.829,0,0,1-1.528-.376,2.774,2.774,0,0,1-.972-1.062,7.028,7.028,0,0,1-.608-1.629q-.237-.943-.422-1.749L140.386,6.831a11.4,11.4,0,0,1-.372-2.4,2.457,2.457,0,0,1,.676-1.758,2.209,2.209,0,0,1,1.672-.714,1.855,1.855,0,0,1,1.841.952,11.416,11.416,0,0,1,.828,2.765l3.243,15.675L151.9,6.683a25.028,25.028,0,0,1,.726-2.564,3.69,3.69,0,0,1,1.048-1.52,2.878,2.878,0,0,1,1.976-.64,2.745,2.745,0,0,1,1.968.668,3.683,3.683,0,0,1,.971,1.456q.27.787.726,2.6l3.668,14.666,3.243-15.675q.237-1.227.447-1.923a3.128,3.128,0,0,1,.727-1.245,1.949,1.949,0,0,1,1.494-.549,2.234,2.234,0,0,1,1.664.7,2.437,2.437,0,0,1,.684,1.767,12.408,12.408,0,0,1-.371,2.4L166.755,24.9q-.423,1.832-.7,2.682a3.586,3.586,0,0,1-.946,1.493,2.609,2.609,0,0,1-1.884.641,2.65,2.65,0,0,1-1.841-.623,3.342,3.342,0,0,1-.962-1.4Q160.145,26.921,159.655,25.033Z" fill="#135a5d"/>
          </g>
          <g id="Path_941" data-name="Path 941">
            <path id="Path_982" data-name="Path 982" d="M212.532,26.223l-1.226-3.369h-10.44L199.639,26.3a12.267,12.267,0,0,1-1.225,2.719,1.915,1.915,0,0,1-1.665.7,2.387,2.387,0,0,1-1.734-.751,2.344,2.344,0,0,1-.753-1.7,3.971,3.971,0,0,1,.175-1.135q.176-.587.578-1.63l6.569-17.433q.28-.751.675-1.8a9.286,9.286,0,0,1,.84-1.749A3.474,3.474,0,0,1,204.273,2.4c.485-.287-.164-.43.548-.43a10.069,10.069,0,0,1,3.061.43,3.548,3.548,0,0,1,1.175,1.108,7.889,7.889,0,0,1,.751,1.455q.309.78.781,2.079L217.3,24.362a9.017,9.017,0,0,1,.79,2.875,2.432,2.432,0,0,1-.746,1.712,2.391,2.391,0,0,1-1.794.779,2.254,2.254,0,0,1-1.052-.229,2.179,2.179,0,0,1-.736-.623,5.747,5.747,0,0,1-.639-1.208Q212.778,26.849,212.532,26.223Zm-10.3-7.453H209.9L206.034,7.691Z" fill="#135a5d"/>
          </g>
          <g id="Path_942" data-name="Path 942">
            <path id="Path_983" data-name="Path 983" d="M226.611,17.781H225.6a.813.813,0,0,0-.807.819v7.806a3.692,3.692,0,0,1-.719,2.509,2.393,2.393,0,0,1-1.874.806,2.343,2.343,0,0,1-1.927-.842,3.853,3.853,0,0,1-.683-2.473V5.749A3.6,3.6,0,0,1,220.34,3.2a3.247,3.247,0,0,1,2.435-.788h8.461a24.65,24.65,0,0,1,3,.156,7.278,7.278,0,0,1,2.242.632,6.486,6.486,0,0,1,2.137,1.52,6.7,6.7,0,0,1,1.41,2.3,7.977,7.977,0,0,1,.482,2.774,6.89,6.89,0,0,1-1.62,4.8,8,8,0,0,1-3.33,2.09.825.825,0,0,0-.231,1.408,11.328,11.328,0,0,1,1.292,1.318,23.094,23.094,0,0,1,2.251,3.195,26.533,26.533,0,0,1,1.672,2.927,6.308,6.308,0,0,1,.551,1.877,1.98,1.98,0,0,1-.324,1.053,2.306,2.306,0,0,1-.885.824,2.683,2.683,0,0,1-1.3.3,2.439,2.439,0,0,1-1.471-.43,4.031,4.031,0,0,1-1.025-1.09,21.32,21.32,0,0,1-1.295-1.809l-2.085-3.626a19.959,19.959,0,0,0-2-3.04,4.981,4.981,0,0,0-1.8-1.428A5.941,5.941,0,0,0,226.611,17.781ZM229.589,6.5H225.6a.813.813,0,0,0-.807.819v5.742a.813.813,0,0,0,.807.819h3.852a12.532,12.532,0,0,0,3.153-.339,3.659,3.659,0,0,0,1.954-1.154,3.414,3.414,0,0,0,.674-2.243,3.584,3.584,0,0,0-.543-1.969A3.32,3.32,0,0,0,233.18,6.9a10.405,10.405,0,0,0-3.592-.4Z" fill="#135a5d"/>
          </g>
        </g>
      </g>
      <g id="Path_943" data-name="Path 943">
        <path id="Path_984" data-name="Path 984" d="M59.853,19.233,60.126,8.35c.045-1.936.169-4.068.243-4.907.1-1.14.11-1.6.761-2.183A3.725,3.725,0,0,1,63.862.843c1.175.1,2.147.079,2.774.847.377.463.54,1.1.193,2.617-.2.889-.718,3.838-.9,4.765L64.17,19.654c-.2,1.2-.266,1.818-.8,2.328-.475.456-.92.351-1.643.287s-1.25-.144-1.6-.749S59.865,20.523,59.853,19.233Z" fill="#33b3c2"/>
      </g>
      <g id="Path_944" data-name="Path 944">
        <path id="Path_985" data-name="Path 985" d="M61.023,30.6a2.6,2.6,0,0,1-1.839-.65,2.437,2.437,0,0,1-.391-2.057,2.384,2.384,0,0,1,.7-1.831,2.485,2.485,0,0,1,1.975-.388A2.067,2.067,0,0,1,63.7,28.367c-.074.84-.153,1.478-.731,1.91A2.626,2.626,0,0,1,61.023,30.6Z" fill="#33b3c2"/>
      </g>
      <g id="Path_945" data-name="Path 945">
        <path id="Path_986" data-name="Path 986" d="M49.728,26.131A3.039,3.039,0,0,1,47.29,21.28a9.2,9.2,0,0,0,1.8-5.484A9.019,9.019,0,0,0,44.84,8.07,3.039,3.039,0,1,1,48.032,2.9a15.115,15.115,0,0,1,7.137,12.91,15.288,15.288,0,0,1-3,9.1A3.031,3.031,0,0,1,49.728,26.131Z" fill="#33b3c2"/>
      </g>
      <g id="Path_946" data-name="Path 946">
        <path id="Path_987" data-name="Path 987" d="M40.831,30.647a14.725,14.725,0,0,1-14.439-15,15.242,15.242,0,0,1,3-9.054,3.039,3.039,0,1,1,4.88,3.623,9.193,9.193,0,0,0-1.8,5.483,8.642,8.642,0,0,0,8.42,8.868,8.069,8.069,0,0,0,5.995-2.765,3.039,3.039,0,1,1,4.572,4.006A14.191,14.191,0,0,1,40.831,30.647Z" fill="#52d1c8"/>
      </g>
      <g id="Path_947" data-name="Path 947">
        <path id="Path_988" data-name="Path 988" d="M32.387,10.736A3.039,3.039,0,0,1,30.1,5.694,14.185,14.185,0,0,1,40.729.858h.01a14.019,14.019,0,0,1,7.274,2.031,3.039,3.039,0,1,1-3.152,5.2,7.932,7.932,0,0,0-4.116-1.15h0A8.1,8.1,0,0,0,34.674,9.7,3.035,3.035,0,0,1,32.387,10.736Z" fill="#34c1b3"/>
      </g>
      <g id="Group_557" data-name="Group 557">
        <g id="Path_948" data-name="Path 948">
          <path id="Path_989" data-name="Path 989" d="M12.879,30.027a3,3,0,0,1-.008-5.99,10.568,10.568,0,0,0,2.614-.335,5.07,5.07,0,0,0,2.849-1.5,2.124,2.124,0,0,0-.508-2.4c-.651-.636-2.344-.938-3.464-1.138a3,3,0,0,1,1.052-5.9c1.956.349,4.635.827,6.547,2.7a8.069,8.069,0,0,1,1.764,9.356l-.056.111c-1.415,2.708-4.415,3.977-6.683,4.566a16.544,16.544,0,0,1-4.1.525Zm8.135-6.478h0Z" fill="#519786"/>
        </g>
        <g id="Path_949" data-name="Path 949">
          <path id="Path_990" data-name="Path 990" d="M20.46,11.28A2.964,2.964,0,0,1,17.8,9.633a6.088,6.088,0,0,0-3.566-3.07A2.964,2.964,0,1,1,16.055.921,12.048,12.048,0,0,1,23.113,7,2.966,2.966,0,0,1,20.46,11.28Z" fill="#33b3c2"/>
        </g>
        <g id="Path_950" data-name="Path 950">
          <path id="Path_991" data-name="Path 991" d="M12.46,30.035a14.259,14.259,0,0,1-5.225-.989L7.133,29C4.508,27.863,1.861,26.342.286,22.966a3,3,0,0,1,5.428-2.534c.626,1.341,1.542,2.088,3.754,3.054a8.184,8.184,0,0,0,3.3.553,2.995,2.995,0,1,1,.214,5.986C12.809,30.032,12.634,30.035,12.46,30.035Z" fill="#3ba6aa"/>
        </g>
        <g id="Path_951" data-name="Path 951">
          <path id="Path_992" data-name="Path 992" d="M4.146,14.328a3,3,0,0,1-2.664-1.622q-.165-.32-.3-.653A8.2,8.2,0,0,1,5.6,1.4a13.94,13.94,0,0,1,10.887-.337A3,3,0,1,1,14.305,6.64a7.913,7.913,0,0,0-6.227.209l-.143.063A2.2,2.2,0,0,0,6.727,9.786c.023.055.049.114.079.172a3,3,0,0,1-2.66,4.37Z" fill="#71d3ea"/>
        </g>
        <g id="Path_952" data-name="Path 952">
          <path id="Path_993" data-name="Path 993" d="M14.885,18.712a3.011,3.011,0,0,1-.531-.047c-.735-.132-1.481-.233-2.215-.334l-.18-.024c-4.267-.588-7.257-1.818-9.142-3.761a7.688,7.688,0,0,1-1.26-1.722A3,3,0,0,1,6.834,9.988a1.716,1.716,0,0,0,.281.384c.511.527,1.924,1.484,5.661,2l.178.024c.813.111,1.64.226,2.456.372a3,3,0,0,1-.525,5.944Z" fill="#33b3c2"/>
        </g>
      </g>
    </g>
  </g>
</svg>
