<svg xmlns="http://www.w3.org/2000/svg" width="19" height="25" viewBox="0 0 19 25">
  <g id="tw" transform="translate(-963 -668)">
    <rect id="Rectangle_959" data-name="Rectangle 959" width="19" height="25" transform="translate(963 668)" fill="#fff"/>
    <g id="Group_355" data-name="Group 355" transform="translate(47.842 2.2)">
      <path id="twitter" d="M12.434,50.887c.009.123.009.246.009.369a8.026,8.026,0,0,1-8.081,8.081A8.027,8.027,0,0,1,0,58.063a5.876,5.876,0,0,0,.686.035,5.688,5.688,0,0,0,3.526-1.214,2.845,2.845,0,0,1-2.656-1.97,3.582,3.582,0,0,0,.536.044,3,3,0,0,0,.747-.1A2.841,2.841,0,0,1,.563,52.074v-.035a2.861,2.861,0,0,0,1.284.361,2.845,2.845,0,0,1-.879-3.8,8.074,8.074,0,0,0,5.857,2.972,3.206,3.206,0,0,1-.07-.651,2.843,2.843,0,0,1,4.916-1.943,5.592,5.592,0,0,0,1.8-.686,2.833,2.833,0,0,1-1.249,1.565,5.694,5.694,0,0,0,1.636-.44,6.106,6.106,0,0,1-1.425,1.469Z" transform="translate(918 623.918)" fill="#232626"/>
    </g>
  </g>
</svg>
