<svg xmlns="http://www.w3.org/2000/svg" width="28" height="28" viewBox="0 0 28 28">
  <g id="wechat" transform="translate(-1238 -57)">
    <rect id="Rectangle_758" data-name="Rectangle 758" width="28" height="28" transform="translate(1238 57)" fill="none"/>
    <g id="Group_585" data-name="Group 585" transform="translate(-1298.57 -682.915)">
      <path id="Path_1000" data-name="Path 1000" d="M2550.614,761.163a13.88,13.88,0,0,1-2.953-.288,11.234,11.234,0,0,1-3.093-1.1,6.7,6.7,0,0,1-2.01-1.6,4.164,4.164,0,0,1-.949-2.084,4.54,4.54,0,0,1,.109-1.733,8.034,8.034,0,0,1,1.161-2.537,14.928,14.928,0,0,1,3.027-3.3,11.543,11.543,0,0,1,2.353-1.516,5.994,5.994,0,0,1,1.687-.548,2.561,2.561,0,0,1,1.085.038,1.4,1.4,0,0,1,1.058,1.185,3.455,3.455,0,0,1-.147,1.584,1.121,1.121,0,0,0-.047.223c-.008.11.053.183.162.172a1.4,1.4,0,0,0,.384-.084,10.458,10.458,0,0,1,1.762-.555,5.177,5.177,0,0,1,1.5-.117,2.432,2.432,0,0,1,.914.243,1.458,1.458,0,0,1,.8,1.437,3.425,3.425,0,0,1-.244,1.079,1.356,1.356,0,0,0-.069.236.224.224,0,0,0,.137.268,2.452,2.452,0,0,0,.3.109,4.322,4.322,0,0,1,1.616.894,2.627,2.627,0,0,1,.8,2.789,4.744,4.744,0,0,1-1.081,1.92,8.62,8.62,0,0,1-2.672,2.006,11.917,11.917,0,0,1-3.334,1.078A13.9,13.9,0,0,1,2550.614,761.163Zm-.369-9.651c-.233.024-.691.057-1.145.123a8.413,8.413,0,0,0-2.808.921,5.661,5.661,0,0,0-1.937,1.627,3.244,3.244,0,0,0-.664,1.775,2.851,2.851,0,0,0,.551,1.822,4.5,4.5,0,0,0,1.74,1.418,7.749,7.749,0,0,0,3.122.756,9.51,9.51,0,0,0,2.7-.261,7.966,7.966,0,0,0,2.714-1.188,4.819,4.819,0,0,0,1.559-1.691,2.952,2.952,0,0,0,.347-1.772,3,3,0,0,0-.743-1.619,4.953,4.953,0,0,0-1.889-1.312A8.74,8.74,0,0,0,2550.245,751.512Z" fill="#232626"/>
      <path id="Path_1001" data-name="Path 1001" d="M2633.64,882.07a3.264,3.264,0,0,1-1.972-.728,2.6,2.6,0,0,1-.738-3.146,3.592,3.592,0,0,1,1.927-1.831,3.874,3.874,0,0,1,1.75-.328,3.257,3.257,0,0,1,2.215.905,2.56,2.56,0,0,1,.582,2.852,3.567,3.567,0,0,1-2.04,1.978A4.249,4.249,0,0,1,2633.64,882.07Zm-.417-3.511a1.393,1.393,0,0,0-1.281.84.943.943,0,0,0,.677,1.308,1.39,1.39,0,0,0,1.521-.725,1.02,1.02,0,0,0,.091-.679A.98.98,0,0,0,2633.223,878.559Zm1.68-.509a.523.523,0,0,0-.486.331.355.355,0,0,0,.245.484.528.528,0,0,0,.582-.267A.365.365,0,0,0,2634.9,878.05Z" transform="translate(-84.511 -123.037)" fill="#232626"/>
    </g>
    <g id="Group_587" data-name="Group 587" transform="translate(-1298.57 -682.915)">
      <path id="Path_1000-2" data-name="Path 1000" d="M2550.614,761.163a13.88,13.88,0,0,1-2.953-.288,11.234,11.234,0,0,1-3.093-1.1,6.7,6.7,0,0,1-2.01-1.6,4.164,4.164,0,0,1-.949-2.084,4.54,4.54,0,0,1,.109-1.733,8.034,8.034,0,0,1,1.161-2.537,14.928,14.928,0,0,1,3.027-3.3,11.543,11.543,0,0,1,2.353-1.516,5.994,5.994,0,0,1,1.687-.548,2.561,2.561,0,0,1,1.085.038,1.4,1.4,0,0,1,1.058,1.185,3.455,3.455,0,0,1-.147,1.584,1.121,1.121,0,0,0-.047.223c-.008.11.053.183.162.172a1.4,1.4,0,0,0,.384-.084,10.458,10.458,0,0,1,1.762-.555,5.177,5.177,0,0,1,1.5-.117,2.432,2.432,0,0,1,.914.243,1.458,1.458,0,0,1,.8,1.437,3.425,3.425,0,0,1-.244,1.079,1.356,1.356,0,0,0-.069.236.224.224,0,0,0,.137.268,2.452,2.452,0,0,0,.3.109,4.322,4.322,0,0,1,1.616.894,2.627,2.627,0,0,1,.8,2.789,4.744,4.744,0,0,1-1.081,1.92,8.62,8.62,0,0,1-2.672,2.006,11.917,11.917,0,0,1-3.334,1.078A13.9,13.9,0,0,1,2550.614,761.163Zm-.369-9.651c-.233.024-.691.057-1.145.123a8.413,8.413,0,0,0-2.808.921,5.661,5.661,0,0,0-1.937,1.627,3.244,3.244,0,0,0-.664,1.775,2.851,2.851,0,0,0,.551,1.822,4.5,4.5,0,0,0,1.74,1.418,7.749,7.749,0,0,0,3.122.756,9.51,9.51,0,0,0,2.7-.261,7.966,7.966,0,0,0,2.714-1.188,4.819,4.819,0,0,0,1.559-1.691,2.952,2.952,0,0,0,.347-1.772,3,3,0,0,0-.743-1.619,4.953,4.953,0,0,0-1.889-1.312A8.74,8.74,0,0,0,2550.245,751.512Z" fill="#232626"/>
      <path id="Path_1001-2" data-name="Path 1001" d="M2633.64,882.07a3.264,3.264,0,0,1-1.972-.728,2.6,2.6,0,0,1-.738-3.146,3.592,3.592,0,0,1,1.927-1.831,3.874,3.874,0,0,1,1.75-.328,3.257,3.257,0,0,1,2.215.905,2.56,2.56,0,0,1,.582,2.852,3.567,3.567,0,0,1-2.04,1.978A4.249,4.249,0,0,1,2633.64,882.07Zm-.417-3.511a1.393,1.393,0,0,0-1.281.84.943.943,0,0,0,.677,1.308,1.39,1.39,0,0,0,1.521-.725,1.02,1.02,0,0,0,.091-.679A.98.98,0,0,0,2633.223,878.559Zm1.68-.509a.523.523,0,0,0-.486.331.355.355,0,0,0,.245.484.528.528,0,0,0,.582-.267A.365.365,0,0,0,2634.9,878.05Z" transform="translate(-84.511 -123.037)" fill="#232626"/>
    </g>
  </g>
</svg>
