<svg xmlns="http://www.w3.org/2000/svg" width="28" height="28" viewBox="0 0 28 28">
  <g id="wechat" transform="translate(-1238 -57)">
    <g id="Group_14" data-name="Group 14" transform="translate(1243.434 63.8)">
      <path id="Path_709" data-name="Path 709" d="M31.294,42.7a5.981,5.981,0,0,0-4.031,1.628,4.786,4.786,0,0,0-1.487,4.055c-.612-.076-1.169-.159-1.729-.206a1.074,1.074,0,0,0-.587.1c-.544.307-1.066.654-1.684,1.04.113-.513.187-.962.317-1.394a.53.53,0,0,0-.241-.7,4.768,4.768,0,0,1-2.078-5.355A5.3,5.3,0,0,1,23.5,38.231a6.244,6.244,0,0,1,6.822,2A4.672,4.672,0,0,1,31.294,42.7Zm-7.2-.637a.721.721,0,0,0-.694-.722.7.7,0,0,0-.729.678.692.692,0,0,0,.686.719A.712.712,0,0,0,24.092,42.063Zm3.758-.722a.722.722,0,0,0-.706.711.7.7,0,0,0,.724.688.7.7,0,1,0-.019-1.4Z" transform="translate(-19.582 -37.92)" fill="#232626"/>
      <path id="Path_710" data-name="Path 710" d="M133.045,129.609a5.086,5.086,0,0,0-1.372-.576,7.676,7.676,0,0,0-1.429.267,4.775,4.775,0,0,1-3.873-1.264,3.927,3.927,0,0,1,.619-6.405,5.209,5.209,0,0,1,6.736,1,3.826,3.826,0,0,1-.442,5.336c-.462.41-.628.747-.332,1.287A1.53,1.53,0,0,1,133.045,129.609Zm-5.4-5.226a.558.558,0,1,0,0-1.116.558.558,0,1,0,0,1.116Zm3.48-1.115a.558.558,0,0,0-.554.534.55.55,0,1,0,.554-.534Z" transform="translate(-117.811 -115.129)" fill="#232626"/>
    </g>
    <rect id="Rectangle_758" data-name="Rectangle 758" width="28" height="28" transform="translate(1238 57)" fill="none"/>
  </g>
</svg>
