<svg xmlns="http://www.w3.org/2000/svg" width="40" height="40" viewBox="0 0 40 40">
  <g id="Weibo_lg" transform="translate(-1066 -6007.452)">
    <rect id="Rectangle_1022" data-name="Rectangle 1022" width="40" height="40" transform="translate(1066 6007.452)" fill="none"/>
    <g id="Group_591" data-name="Group 591" transform="translate(-2360.22 6228.457)">
      <path id="Path_1002" data-name="Path 1002" d="M3433-63.745c.026-.2.046-.4.077-.6a8.332,8.332,0,0,1,.854-2.5,14.982,14.982,0,0,1,2.317-3.252,18.235,18.235,0,0,1,3.469-3,10.6,10.6,0,0,1,2.94-1.407,4.234,4.234,0,0,1,1.779-.163,1.81,1.81,0,0,1,1.6,1.653,4.671,4.671,0,0,1-.2,1.831,1.5,1.5,0,0,0-.059.232c-.021.177.056.273.233.256a1.959,1.959,0,0,0,.432-.1c.547-.183,1.087-.392,1.64-.556a6.853,6.853,0,0,1,2.088-.294,3.419,3.419,0,0,1,1.259.234A1.826,1.826,0,0,1,3452.6-69.5a4.627,4.627,0,0,1-.307,1.3,1.544,1.544,0,0,0-.082.3.263.263,0,0,0,.159.295,2.493,2.493,0,0,0,.315.12,5.423,5.423,0,0,1,2.126,1.186,3.207,3.207,0,0,1,1.038,1.965,3.808,3.808,0,0,1-.264,1.9,6.9,6.9,0,0,1-1.772,2.511,11.94,11.94,0,0,1-4.063,2.455,15.845,15.845,0,0,1-4.378.945,16.98,16.98,0,0,1-5.69-.506,12.675,12.675,0,0,1-3.552-1.5,7.4,7.4,0,0,1-2.268-2.127,4.92,4.92,0,0,1-.844-2.379.922.922,0,0,0-.019-.105Zm9.833,5.791a11.832,11.832,0,0,0,2.523-.267,9.945,9.945,0,0,0,3.654-1.539,5.789,5.789,0,0,0,1.922-2.093,3.538,3.538,0,0,0-.286-3.917,5.106,5.106,0,0,0-1.594-1.4,9.227,9.227,0,0,0-4.208-1.2,11.628,11.628,0,0,0-3.028.216,10.154,10.154,0,0,0-3.652,1.462,6.249,6.249,0,0,0-1.948,1.955,3.78,3.78,0,0,0-.588,2.1,3.618,3.618,0,0,0,.843,2.2,5.857,5.857,0,0,0,2.213,1.643A10.04,10.04,0,0,0,3442.834-57.954Z" transform="translate(0 -134.302)" fill="#232626"/>
      <path id="Path_1003" data-name="Path 1003" d="M4222.936-204.445c-.023.15-.039.3-.073.449-.082.364-.154.732-.264,1.088a.967.967,0,0,1-1.039.659.973.973,0,0,1-.865-.849,1.2,1.2,0,0,1,.038-.449,5.183,5.183,0,0,0,.233-1.491,4.867,4.867,0,0,0-1.09-3.118,4.859,4.859,0,0,0-3.086-1.792,4.93,4.93,0,0,0-1.8.045.989.989,0,0,1-1.191-.785.979.979,0,0,1,.8-1.15c.364-.063.734-.093,1.1-.139.039,0,.077-.015.116-.023h.393l.192.026c.367.048.739.071,1.1.149a6.756,6.756,0,0,1,3.757,2.233,6.764,6.764,0,0,1,1.608,3.474c.021.143.046.285.069.427Z" transform="translate(-763.735 0)" fill="#232626"/>
      <path id="Path_1005" data-name="Path 1005" d="M4254.613-48.866a3.388,3.388,0,0,1,3.291,2.71,3.333,3.333,0,0,1-.085,1.67.838.838,0,0,1-.78.627.826.826,0,0,1-.878-.725A1.146,1.146,0,0,1,4256.2-45a1.665,1.665,0,0,0-1.277-2.114,2.212,2.212,0,0,0-.779.018.841.841,0,0,1-.911-.772.832.832,0,0,1,.7-.907C4254.157-48.823,4254.386-48.838,4254.613-48.866Z" transform="translate(-802.319 -159.572)" fill="#232626"/>
      <path id="Path_1006" data-name="Path 1006" d="M3701.813,317.9a4.09,4.09,0,0,1-2.581-.852,3.139,3.139,0,0,1-.836-3.987,4.4,4.4,0,0,1,2.4-2.094,4.638,4.638,0,0,1,2.02-.321,3.9,3.9,0,0,1,2.585,1.09,3.081,3.081,0,0,1,.7,3.421,4.294,4.294,0,0,1-2.521,2.409A4.673,4.673,0,0,1,3701.813,317.9Zm-.74-4.221a1.676,1.676,0,0,0-1.513.95,1.133,1.133,0,0,0,.805,1.629,1.658,1.658,0,0,0,1.85-.975,1.151,1.151,0,0,0-1.143-1.6Zm2.015-.611a.626.626,0,0,0-.581.4.423.423,0,0,0,.3.575.636.636,0,0,0,.678-.306A.439.439,0,0,0,3703.088,313.072Z" transform="translate(-259.23 -511.228)" fill="#232626"/>
    </g>
  </g>
</svg>
