<svg xmlns="http://www.w3.org/2000/svg" width="28" height="28" viewBox="0 0 28 28">
  <g id="Weibo" transform="translate(-1238 -57)">
    <rect id="Rectangle_758" data-name="Rectangle 758" width="28" height="28" transform="translate(1238 57)" fill="none"/>
    <g id="Group_590" data-name="Group 590" transform="translate(-2189.5 275)">
      <path id="Path_1002" data-name="Path 1002" d="M3433-66.623c.019-.148.034-.3.057-.445a6.153,6.153,0,0,1,.629-1.841,11.047,11.047,0,0,1,1.709-2.4,13.456,13.456,0,0,1,2.558-2.209,7.817,7.817,0,0,1,2.167-1.037,3.123,3.123,0,0,1,1.312-.12,1.335,1.335,0,0,1,1.179,1.218,3.442,3.442,0,0,1-.15,1.35,1.175,1.175,0,0,0-.043.171c-.016.131.041.2.172.189a1.442,1.442,0,0,0,.318-.075c.4-.135.8-.289,1.209-.41a5.053,5.053,0,0,1,1.54-.217,2.52,2.52,0,0,1,.928.173,1.346,1.346,0,0,1,.866,1.41,3.4,3.4,0,0,1-.226.959,1.149,1.149,0,0,0-.06.224.194.194,0,0,0,.117.217,1.822,1.822,0,0,0,.232.088,4,4,0,0,1,1.567.874,2.365,2.365,0,0,1,.766,1.449,2.811,2.811,0,0,1-.194,1.4,5.085,5.085,0,0,1-1.307,1.851,8.8,8.8,0,0,1-3,1.81,11.679,11.679,0,0,1-3.228.7,12.519,12.519,0,0,1-4.2-.373,9.343,9.343,0,0,1-2.619-1.108,5.454,5.454,0,0,1-1.672-1.569,3.631,3.631,0,0,1-.622-1.754.774.774,0,0,0-.014-.078Zm7.251,4.27a8.725,8.725,0,0,0,1.86-.2,7.337,7.337,0,0,0,2.694-1.135,4.269,4.269,0,0,0,1.417-1.544,2.608,2.608,0,0,0-.211-2.888,3.763,3.763,0,0,0-1.175-1.036,6.8,6.8,0,0,0-3.1-.883,8.574,8.574,0,0,0-2.232.16,7.485,7.485,0,0,0-2.692,1.078,4.606,4.606,0,0,0-1.437,1.441,2.787,2.787,0,0,0-.434,1.55,2.666,2.666,0,0,0,.622,1.623,4.317,4.317,0,0,0,1.632,1.212A7.4,7.4,0,0,0,3440.251-62.353Z" transform="translate(0 -135.09)" fill="#232626"/>
      <path id="Path_1003" data-name="Path 1003" d="M4220.532-206.43c-.018.11-.029.222-.054.331-.061.269-.114.54-.195.8a.713.713,0,0,1-.766.486.718.718,0,0,1-.638-.626.88.88,0,0,1,.028-.331,3.829,3.829,0,0,0,.172-1.1,3.587,3.587,0,0,0-.8-2.3,3.582,3.582,0,0,0-2.275-1.322,3.636,3.636,0,0,0-1.326.033.729.729,0,0,1-.878-.579.722.722,0,0,1,.59-.848c.268-.047.541-.069.812-.1.029,0,.057-.011.085-.017h.29l.142.019c.271.036.545.053.81.11a4.981,4.981,0,0,1,2.77,1.646,4.989,4.989,0,0,1,1.186,2.562c.016.105.034.21.051.315Z" transform="translate(-768.213)" fill="#232626"/>
      <path id="Path_1005" data-name="Path 1005" d="M4254.249-48.866a2.5,2.5,0,0,1,2.426,2,2.46,2.46,0,0,1-.063,1.231.618.618,0,0,1-.575.463.609.609,0,0,1-.647-.535.847.847,0,0,1,.027-.309,1.228,1.228,0,0,0-.942-1.559,1.631,1.631,0,0,0-.574.013.62.62,0,0,1-.672-.569.613.613,0,0,1,.52-.669C4253.913-48.835,4254.082-48.845,4254.249-48.866Z" transform="translate(-807.023 -160.508)" fill="#232626"/>
      <path id="Path_1006" data-name="Path 1006" d="M3700.815,316a3.015,3.015,0,0,1-1.9-.628,2.315,2.315,0,0,1-.617-2.94,3.244,3.244,0,0,1,1.773-1.544,3.419,3.419,0,0,1,1.489-.237,2.877,2.877,0,0,1,1.906.8,2.272,2.272,0,0,1,.514,2.522,3.167,3.167,0,0,1-1.858,1.777A3.447,3.447,0,0,1,3700.815,316Zm-.545-3.113a1.236,1.236,0,0,0-1.115.7.835.835,0,0,0,.594,1.2,1.222,1.222,0,0,0,1.364-.719.849.849,0,0,0-.842-1.183Zm1.486-.451a.461.461,0,0,0-.428.3.312.312,0,0,0,.225.424.469.469,0,0,0,.5-.226A.324.324,0,0,0,3701.756,312.433Z" transform="translate(-260.749 -514.226)" fill="#232626"/>
    </g>
  </g>
</svg>
