<svg xmlns="http://www.w3.org/2000/svg" xmlns:xlink="http://www.w3.org/1999/xlink" viewBox="0 0 388 388.1">
  <defs>
    <style>
      .cls-1 {
        fill: #b3b3b4;
      }

      .cls-2 {
        fill: #dadbdb;
      }

      .cls-3 {
        fill: #fff;
      }

      .cls-12, .cls-4, .cls-6, .cls-7, .cls-8, .cls-9 {
        fill: #231815;
      }

      .cls-5 {
        fill: none;
      }

      .cls-6 {
        fill-rule: evenodd;
      }

      .cls-12, .cls-7, .cls-8, .cls-9 {
        stroke: #231815;
        stroke-miterlimit: 10;
      }

      .cls-7 {
        stroke-width: 0.259px;
      }

      .cls-8 {
        stroke-width: 0.432px;
      }

      .cls-9 {
        stroke-width: 0.199px;
      }

      .cls-10 {
        clip-path: url(#clip-path);
      }

      .cls-11 {
        clip-path: url(#clip-path-2);
      }

      .cls-12 {
        stroke-width: 0.216px;
      }
    </style>
    <clipPath id="clip-path">
      <path id="Path_1556" data-name="Path 1556" d="M282.5,1503.4c0,.9,13.9,14.4,14.6,17.1,12,45.8-38.3,58.4-53.5,58.4-16,0-63.3-13-52.1-53.5.6-2.1,13-21.2,13-22,0-3.1,17.5-5.6,39-5.6S282.5,1500.3,282.5,1503.4Z"/>
    </clipPath>
    <clipPath id="clip-path-2">
      <path id="Path_1557" data-name="Path 1557" d="M282.5,1503.4c0,.9,13.9,14.4,14.6,17.1,12,45.8-38.3,58.4-53.5,58.4-16,0-63.3-13-52.1-53.5.6-2.1,13-21.2,13-22,0-3.1,17.5-5.6,39-5.6S282.5,1500.3,282.5,1503.4Z" transform="translate(-204.4 -1497.8)"/>
    </clipPath>
  </defs>
  <g id="_006" data-name="006" transform="translate(-332.418 -1499.9)">
    <rect id="Rectangle_673" data-name="Rectangle 673" class="cls-1" width="388" height="388.1" transform="translate(332.418 1499.9)"/>
    <g id="Group_1786" data-name="Group 1786" transform="translate(266.918 224.5)">
      <g id="Group_1740" data-name="Group 1740">
        <g id="Group_1739" data-name="Group 1739">
          <path id="Path_1332" data-name="Path 1332" class="cls-2" d="M200.6,1359.7l-24.9,25-9.5-9.5,24.9-24.9-6.8-6.8,7.9-7.9,23.1,23.1-7.9,7.9Z"/>
        </g>
      </g>
      <g id="Group_1742" data-name="Group 1742">
        <g id="Group_1741" data-name="Group 1741">
          <path id="Path_1333" data-name="Path 1333" class="cls-2" d="M235.3,1407.4l-8.7-8.7,6-13.5-2.5-2.5-9.7,9.7-7.8-7.8,25.5-25.5,13.3,13.3c2.9,2.9,4.5,5.9,4.8,8.9a9.687,9.687,0,0,1-3,7.9,11.349,11.349,0,0,1-4.8,3q-2.55.75-6.6-.6Zm.3-30.1,3.3,3.3a6.033,6.033,0,0,0,3,1.8,2.855,2.855,0,0,0,2.7-.9c1.6-1.6,1.4-3.5-.6-5.5l-3.6-3.6Z"/>
        </g>
      </g>
      <g id="Group_1744" data-name="Group 1744">
        <g id="Group_1743" data-name="Group 1743">
          <path id="Path_1334" data-name="Path 1334" class="cls-2" d="M244.6,1451.5l3.6-6.5-6.8-6.8-6.6,3.5-6.4-6.4,33.4-17.6,8.3,8.3-17.5,33.5Zm3.7-17.5,4.1,4.1,5.3-9.5Z"/>
        </g>
      </g>
      <g id="Group_1746" data-name="Group 1746">
        <g id="Group_1745" data-name="Group 1745">
          <path id="Path_1335" data-name="Path 1335" class="cls-2" d="M322.9,1448.8l-33.4,17.6-8-8,17.2-33.8,8.2,8.2-9.9,17.9a32.389,32.389,0,0,1-1.7,3.2l21-11.6Z"/>
        </g>
      </g>
      <g id="Group_1748" data-name="Group 1748">
        <g id="Group_1747" data-name="Group 1747">
          <path id="Path_1336" data-name="Path 1336" class="cls-2" d="M306.8,1492.5l-5.3,5.3-16.6-16.6,22.1-22.1,16.6,16.6-5.1,5.1-10-10-3.2,3.2,8,8.1-4.9,4.9-8-8-3.6,3.6Z"/>
        </g>
      </g>
      <g id="Group_1750" data-name="Group 1750">
        <g id="Group_1749" data-name="Group 1749">
          <path id="Path_1337" data-name="Path 1337" class="cls-2" d="M214.4,1521l-24.9,24.9-9.5-9.5,24.9-24.9-6.8-6.8,7.9-7.9,23.1,23.1-7.9,7.9Z"/>
        </g>
      </g>
      <g id="Group_1752" data-name="Group 1752">
        <g id="Group_1751" data-name="Group 1751">
          <path id="Path_1338" data-name="Path 1338" class="cls-2" d="M228.3,1569.7l-8.7-8.7,6-13.5-2.5-2.5-9.7,9.7-7.8-7.8,25.5-25.5,13.3,13.3c2.9,2.9,4.5,5.9,4.8,8.9a10.016,10.016,0,0,1-3,7.9,11.349,11.349,0,0,1-4.8,3q-2.55.75-6.6-.6Zm.3-30,3.3,3.3a6.033,6.033,0,0,0,3,1.8,2.855,2.855,0,0,0,2.7-.9c1.6-1.6,1.4-3.4-.6-5.5l-3.6-3.6Z"/>
        </g>
      </g>
      <g id="Group_1754" data-name="Group 1754">
        <g id="Group_1753" data-name="Group 1753">
          <path id="Path_1339" data-name="Path 1339" class="cls-2" d="M312.2,1588.1l-33.4,17.6-8-8L288,1564l8.2,8.2-9.9,17.9a32.389,32.389,0,0,1-1.7,3.2l21-11.6Z"/>
        </g>
      </g>
      <g id="Group_1756" data-name="Group 1756">
        <g id="Group_1755" data-name="Group 1755">
          <path id="Path_1340" data-name="Path 1340" class="cls-2" d="M255.8,1599.4l-5.3,5.3-16.6-16.6L256,1566l16.6,16.6-5.1,5.1-10-10-3.2,3.2,8,8-4.9,4.9-8-8-3.6,3.6Z"/>
        </g>
      </g>
      <g id="Group_1758" data-name="Group 1758">
        <g id="Group_1757" data-name="Group 1757">
          <path id="Path_1341" data-name="Path 1341" class="cls-2" d="M338.4,1511.7l-6.3,6.2L314.2,1500l25.5-25.5,7.8,7.8-19.2,19.2Z"/>
        </g>
      </g>
      <g id="Group_1760" data-name="Group 1760">
        <g id="Group_1759" data-name="Group 1759">
          <path id="Path_1342" data-name="Path 1342" class="cls-2" d="M220.3,1493.9l-10.5-10.5-12,12-9.6-9.6,32.2-32.2,23.3,23.3-7.7,7.7-13.6-13.7-5.2,5.2,10.5,10.5Z"/>
        </g>
      </g>
      <g id="Group_1762" data-name="Group 1762">
        <g id="Group_1761" data-name="Group 1761">
          <path id="Path_1343" data-name="Path 1343" class="cls-2" d="M201.4,1458.1l-10.5-10.5-12,12-9.6-9.6,32.2-32.2,23.3,23.3-7.7,7.7-13.6-13.7-5.2,5.2,10.5,10.5Z"/>
        </g>
      </g>
      <g id="Group_1764" data-name="Group 1764">
        <g id="Group_1763" data-name="Group 1763">
          <path id="Path_1344" data-name="Path 1344" class="cls-2" d="M280.3,1487.6l-25.5,25.5-7.8-7.8,25.5-25.5Z"/>
        </g>
      </g>
      <g id="Group_1766" data-name="Group 1766">
        <g id="Group_1765" data-name="Group 1765">
          <path id="Path_1345" data-name="Path 1345" class="cls-2" d="M260.8,1515.6l8.6,6c-1.4,2.7-.9,5.3,1.6,7.8,2,2,3.5,2.4,4.5,1.4a2.32,2.32,0,0,0,.6-2,11.617,11.617,0,0,0-1.6-3.2c-3.6-5.3-5.4-9.3-5.2-12a9.9,9.9,0,0,1,3-6.8,10.883,10.883,0,0,1,8.7-3.3c3.4.2,6.8,2.1,10.3,5.5,5.2,5.2,6.5,10.7,4,16.5l-8.4-4.5q1.5-3.6-1.5-6.6c-1.7-1.7-3.1-2-4.1-1a1.774,1.774,0,0,0-.5,1.7,9.954,9.954,0,0,0,1.5,3,68.9,68.9,0,0,1,4.8,8.2,10.293,10.293,0,0,1,.7,5.8,9.178,9.178,0,0,1-3,5.5,10.547,10.547,0,0,1-9.4,3.1c-3.7-.5-7.2-2.4-10.6-5.8C258.3,1528.7,257,1522.3,260.8,1515.6Z"/>
        </g>
      </g>
      <g id="Group_1768" data-name="Group 1768">
        <g id="Group_1767" data-name="Group 1767">
          <path id="Path_1346" data-name="Path 1346" class="cls-2" d="M323.9,1549.5l-26.2,26.2-8-8,10.2-10.2-6.1-6.1-10.2,10.2-8-8,26.2-26.2,8,8-9.6,9.6,6.1,6.1,9.6-9.6Z"/>
        </g>
      </g>
      <g id="Group_1785" data-name="Group 1785">
        <g id="Group_1769" data-name="Group 1769">
          <path id="Path_1347" data-name="Path 1347" class="cls-3" d="M235,1391.7a33.961,33.961,0,0,0,2.7,4.3,3.364,3.364,0,0,0,2.8,1.4c3,0,6.5-3.1,7.4-3.9a110.072,110.072,0,0,0-8-10.9l-11.6-1.3A115.978,115.978,0,0,1,235,1391.7Z"/>
        </g>
        <rect id="Rectangle_676" data-name="Rectangle 676" class="cls-4" width="5.8" height="2.4" transform="translate(199.904 1458.128) rotate(-45)"/>
        <rect id="Rectangle_677" data-name="Rectangle 677" class="cls-4" width="5.8" height="2.5" transform="translate(205.342 1463.51) rotate(-45.049)"/>
        <path id="Path_1348" data-name="Path 1348" class="cls-4" d="M207.3,1457.9a2.233,2.233,0,0,0-3.2,0l-4.5,4.5a2.354,2.354,0,0,0,0,3.3,2.234,2.234,0,0,0,3.2,0l4.5-4.5A2.353,2.353,0,0,0,207.3,1457.9Z"/>
        <rect id="Rectangle_678" data-name="Rectangle 678" class="cls-4" width="5.8" height="2.5" transform="matrix(0.707, -0.707, 0.707, 0.707, 220.801, 1478.829)"/>
        <rect id="Rectangle_679" data-name="Rectangle 679" class="cls-4" width="5.8" height="2.4" transform="translate(226.252 1484.352) rotate(-45.036)"/>
        <path id="Path_1349" data-name="Path 1349" class="cls-4" d="M228.1,1478.7a2.234,2.234,0,0,0-3.2,0l-4.5,4.5a2.263,2.263,0,0,0,3.2,3.2l4.5-4.5A2.233,2.233,0,0,0,228.1,1478.7Z"/>
        <path id="Path_1350" data-name="Path 1350" class="cls-3" d="M312.1,1409.7l.9-.9-1.2-1.2,1.1-1.1-.8-.8,12.8-12.8-1.3-1.3-12.8,12.8-.8-.8-1.1,1.1-1.2-1.2-.9.9-19.3-19.3.9-.9-1.2-1.2,1.1-1.1-.8-.8,12.8-12.8L299,1367l-12.8,12.8-.8-.8-1.1,1.1-1.2-1.2-.9.9-3.5-3.5a8.027,8.027,0,0,0-11.3,0l-20.1,20.1c-2,1.6-6.9,4.9-10.4.7-4.4-5.4-14.9-34.1-42.1-29-21.5,4.1-15,18.4-14.6,19.3.5.8,2.1,5.5,1.5,6.2-.6.6-4.1-.5-5.1-1.2-.9-.6-2.4-1.7-2.9-1.2-.7.7-.3,2-.1,3.1.1,1.2,2,28.6,26.6,51a15.047,15.047,0,0,1,3.1-4.8,8.027,8.027,0,0,0,0,11.3l35.4,35.4a8.027,8.027,0,0,0,11.3,0l64.3-64.3a8.027,8.027,0,0,0,0-11.3Zm-5.5,14.2-55.8,55.8a6.941,6.941,0,0,1-9.8,0l-30.8-30.8a6.941,6.941,0,0,1,0-9.8l55.8-55.8a6.941,6.941,0,0,1,9.8,0l30.8,30.8A6.941,6.941,0,0,1,306.6,1423.9Z"/>
        <path id="Path_1351" data-name="Path 1351" class="cls-4" d="M330.8,1382.8l-21.9-21.9a3.479,3.479,0,0,0-4.9-.2l-11.8,11.8,2.3,2.3,10.9-10.9c.8-.8,1.4-.7,2.2.1l.5.5h0a.972.972,0,0,0,.1,1.4,1.071,1.071,0,0,0,1.4.1l.1-.1a.972.972,0,0,1,1.4.1,1.075,1.075,0,0,1,.1,1.4.972.972,0,0,0,.1,1.4,1.075,1.075,0,0,0,1.4.1.972.972,0,0,1,1.4.1,1.082,1.082,0,0,1,.2,1.3l-.2.2a.972.972,0,0,0,.1,1.4h0a1.075,1.075,0,0,0,1.4.1,1.029,1.029,0,0,1,1.5,1.4.972.972,0,0,0,.1,1.4h0a1.075,1.075,0,0,0,1.4.1.972.972,0,0,1,1.4.1,1.071,1.071,0,0,1,.1,1.4.972.972,0,0,0,.1,1.4h0a1.075,1.075,0,0,0,1.4.1l.2-.2a1.064,1.064,0,0,1,1.2.2,1.075,1.075,0,0,1,.1,1.4.972.972,0,0,0,.1,1.4,1.075,1.075,0,0,0,1.4.1.972.972,0,0,1,1.4.1,1.075,1.075,0,0,1,.1,1.4.972.972,0,0,0,.1,1.4,1.075,1.075,0,0,0,1.4.1h0l.4.4a1.074,1.074,0,0,1,0,1.8l-11.1,11.1,2.3,2.3,11.8-11.8A3.36,3.36,0,0,0,330.8,1382.8Z"/>
        <path id="Path_1352" data-name="Path 1352" class="cls-3" d="M283.5,1444.8a1.335,1.335,0,0,1-2,0l-36.7-36.7a1.335,1.335,0,0,1,0-2h0a1.335,1.335,0,0,1,2,0l36.7,36.7a1.335,1.335,0,0,1,0,2Z"/>
        <path id="Path_1353" data-name="Path 1353" class="cls-3" d="M264.4,1463.8a1.335,1.335,0,0,1-2,0l-36.7-36.7a1.335,1.335,0,0,1,0-2h0a1.335,1.335,0,0,1,2,0l36.7,36.7a1.335,1.335,0,0,1,0,2Z"/>
        <g id="Group_1772" data-name="Group 1772">
          <g id="Group_1771" data-name="Group 1771">
            <g id="Group_1770" data-name="Group 1770">
              <path id="Path_1354" data-name="Path 1354" class="cls-5" d="M310.9,1509.4V1497a2.2,2.2,0,0,0-.1-.8,2.752,2.752,0,0,0-.8-1.5,4.2,4.2,0,0,0-1.4-.9,4.972,4.972,0,0,0-1.6-.2h-1.5a4.71,4.71,0,0,0-1.7.4,3.449,3.449,0,0,0-1.7,2.9v11.7a9.15,9.15,0,0,0,.1,1.6,2.752,2.752,0,0,0,.8,1.5,4.2,4.2,0,0,0,1.4.9,4.972,4.972,0,0,0,1.6.2h1.5a4.71,4.71,0,0,0,1.7-.4,3.517,3.517,0,0,0,1.7-3h-1.1a2.213,2.213,0,0,1-2.2,2.2h-1.5a5.284,5.284,0,0,1-1.3-.1,2.075,2.075,0,0,1-1-.6,1.591,1.591,0,0,1-.5-1,5.634,5.634,0,0,1,0-1.3v-11.7a2.213,2.213,0,0,1,2.2-2.2H307a5.284,5.284,0,0,1,1.3.1,2.075,2.075,0,0,1,1,.6,1.591,1.591,0,0,1,.5,1,5.634,5.634,0,0,1,0,1.3v11.7Z"/>
              <path id="Path_1355" data-name="Path 1355" class="cls-6" d="M310.2,1510.1v0Z"/>
              <path id="Path_1356" data-name="Path 1356" class="cls-6" d="M310.2,1510.2v0Z"/>
              <path id="Path_1357" data-name="Path 1357" class="cls-6" d="M310.1,1510.5v.1c-.1-.1,0-.1,0-.1Z"/>
              <path id="Path_1358" data-name="Path 1358" class="cls-6" d="M309.2,1511.3Z"/>
              <path id="Path_1359" data-name="Path 1359" class="cls-6" d="M310.1,1510.4Z"/>
              <path id="Path_1360" data-name="Path 1360" class="cls-6" d="M309.1,1511.4Z"/>
              <path id="Path_1361" data-name="Path 1361" class="cls-6" d="M309.7,1511.1c0-.1-.1,0,0,0Z"/>
              <path id="Path_1362" data-name="Path 1362" class="cls-6" d="M308.7,1511.6h0c-.1,0-.1,0-.1.1h-.1a.1.1,0,0,0-.1.1h.2c0-.1,0-.2.1-.2Z"/>
              <path id="Path_1363" data-name="Path 1363" class="cls-6" d="M309.6,1511.2Z"/>
              <path id="Path_1364" data-name="Path 1364" class="cls-6" d="M309.5,1511.4Z"/>
              <path id="Path_1365" data-name="Path 1365" class="cls-6" d="M307.7,1511.8Z"/>
              <path id="Path_1366" data-name="Path 1366" class="cls-6" d="M309.2,1511.6a.1.1,0,0,0-.1.1A.1.1,0,0,1,309.2,1511.6Z"/>
              <path id="Path_1367" data-name="Path 1367" class="cls-6" d="M307.8,1511.9h-.1c0,.1,0,.1.1,0Z"/>
              <path id="Path_1368" data-name="Path 1368" class="cls-6" d="M308.8,1511.9h.1C308.9,1511.8,308.8,1511.9,308.8,1511.9Z"/>
              <path id="Path_1369" data-name="Path 1369" class="cls-6" d="M308.3,1512h0Z"/>
              <path id="Path_1370" data-name="Path 1370" class="cls-6" d="M306.8,1511.9h-.1S306.8,1511.8,306.8,1511.9Z"/>
              <path id="Path_1371" data-name="Path 1371" class="cls-6" d="M306.7,1511.9Z"/>
              <path id="Path_1372" data-name="Path 1372" class="cls-6" d="M305.9,1511.8h0Z"/>
              <path id="Path_1373" data-name="Path 1373" class="cls-6" d="M308.6,1512Z"/>
              <path id="Path_1374" data-name="Path 1374" class="cls-6" d="M308.3,1512.1h0Z"/>
              <path id="Path_1375" data-name="Path 1375" class="cls-6" d="M308.3,1512.1h0c-.1,0-.3.1-.4.1h.2a.349.349,0,0,0,.2-.1Z"/>
              <path id="Path_1376" data-name="Path 1376" class="cls-6" d="M306,1511.9Z"/>
              <path id="Path_1377" data-name="Path 1377" class="cls-6" d="M309.3,1511.9a.1.1,0,0,0-.1.1A.1.1,0,0,1,309.3,1511.9Z"/>
              <path id="Path_1378" data-name="Path 1378" class="cls-6" d="M309.3,1511.9Z"/>
              <path id="Path_1379" data-name="Path 1379" class="cls-6" d="M309.1,1512Z"/>
              <path id="Path_1380" data-name="Path 1380" class="cls-6" d="M305.8,1511.9h0Z"/>
              <path id="Path_1381" data-name="Path 1381" class="cls-6" d="M309.7,1511.8a.31.31,0,0,0-.2.1C309.6,1511.9,309.6,1511.9,309.7,1511.8Z"/>
              <path id="Path_1382" data-name="Path 1382" class="cls-6" d="M305.3,1511.8c0,.1.1.1,0,0C305.4,1511.9,305.4,1511.8,305.3,1511.8Z"/>
              <path id="Path_1383" data-name="Path 1383" class="cls-6" d="M308.3,1512.3h0Z"/>
              <path id="Path_1384" data-name="Path 1384" class="cls-6" d="M307.3,1512.2h0Z"/>
              <path id="Path_1385" data-name="Path 1385" class="cls-6" d="M308.9,1512.2c-.1,0-.1,0-.2.1A.31.31,0,0,1,308.9,1512.2Z"/>
              <path id="Path_1386" data-name="Path 1386" class="cls-6" d="M305.1,1511.8h0c-.1,0-.2-.1-.3-.1C305,1511.8,305,1511.8,305.1,1511.8Z"/>
              <path id="Path_1387" data-name="Path 1387" class="cls-6" d="M307.6,1512.3h-.1c0,.1,0,.1.1,0Z"/>
              <path id="Path_1388" data-name="Path 1388" class="cls-6" d="M304.8,1511.7Z"/>
              <path id="Path_1389" data-name="Path 1389" class="cls-6" d="M304.7,1511.7c-.1,0-.1,0-.1-.1h0A.1.1,0,0,0,304.7,1511.7Z"/>
              <path id="Path_1390" data-name="Path 1390" class="cls-6" d="M307.6,1512.4h0Z"/>
              <path id="Path_1391" data-name="Path 1391" class="cls-6" d="M304.3,1511.5l-.1-.1.1.1a.768.768,0,0,1-.3-.2v.1h0C304.1,1511.4,304.2,1511.5,304.3,1511.5Z"/>
              <path id="Path_1392" data-name="Path 1392" class="cls-6" d="M305.4,1512.1h-.2C305.3,1512.2,305.4,1512.2,305.4,1512.1Z"/>
              <path id="Path_1393" data-name="Path 1393" class="cls-6" d="M306.3,1512.3Z"/>
              <path id="Path_1394" data-name="Path 1394" class="cls-6" d="M305,1512.2h0Z"/>
              <path id="Path_1395" data-name="Path 1395" class="cls-6" d="M305.8,1512.5Z"/>
              <path id="Path_1396" data-name="Path 1396" class="cls-6" d="M306.5,1512.7h0Z"/>
              <path id="Path_1397" data-name="Path 1397" class="cls-6" d="M303.7,1511.5Z"/>
              <path id="Path_1398" data-name="Path 1398" class="cls-6" d="M305.4,1512.6h0Z"/>
              <path id="Path_1399" data-name="Path 1399" class="cls-6" d="M303.4,1511.4h0C303.5,1511.4,303.4,1511.3,303.4,1511.4Z"/>
              <path id="Path_1400" data-name="Path 1400" class="cls-6" d="M304.5,1512.4l-.2-.1C304.4,1512.4,304.4,1512.4,304.5,1512.4Z"/>
              <path id="Path_1401" data-name="Path 1401" class="cls-6" d="M304.6,1512.5a.31.31,0,0,1-.2-.1C304.5,1512.5,304.5,1512.5,304.6,1512.5Z"/>
              <path id="Path_1402" data-name="Path 1402" class="cls-6" d="M303.8,1512l-.1-.1A.1.1,0,0,0,303.8,1512Z"/>
              <path id="Path_1403" data-name="Path 1403" class="cls-6" d="M303.4,1511.7c-.1,0-.1-.1,0,0Z"/>
              <path id="Path_1404" data-name="Path 1404" class="cls-6" d="M303.2,1511.5Z"/>
              <path id="Path_1405" data-name="Path 1405" class="cls-6" d="M302.7,1509.5h0v-.1h0Z"/>
              <path id="Path_1406" data-name="Path 1406" class="cls-6" d="M302.7,1509.3h0v0Z"/>
              <path id="Path_1407" data-name="Path 1407" class="cls-6" d="M302.7,1509v0Z"/>
              <path id="Path_1408" data-name="Path 1408" class="cls-6" d="M302.7,1510.8Z"/>
              <path id="Path_1409" data-name="Path 1409" class="cls-6" d="M302.8,1510.9a.349.349,0,0,0-.1-.2C302.7,1510.8,302.7,1510.8,302.8,1510.9Z"/>
              <path id="Path_1410" data-name="Path 1410" class="cls-6" d="M302.7,1510.7l-.1-.1a.1.1,0,0,1,.1.1Z"/>
              <path id="Path_1411" data-name="Path 1411" class="cls-6" d="M302.6,1510.4Z"/>
              <path id="Path_1412" data-name="Path 1412" class="cls-6" d="M302.7,1508.6v0Z"/>
              <path id="Path_1413" data-name="Path 1413" class="cls-6" d="M302.7,1507.9v0Z"/>
              <path id="Path_1414" data-name="Path 1414" class="cls-6" d="M302.4,1509.5Z"/>
              <path id="Path_1415" data-name="Path 1415" class="cls-6" d="M302.4,1509.4v0Z"/>
              <path id="Path_1416" data-name="Path 1416" class="cls-6" d="M302.7,1507.3Z"/>
              <path id="Path_1417" data-name="Path 1417" class="cls-6" d="M302.5,1508.5h0C302.4,1508.5,302.5,1508.6,302.5,1508.5Z"/>
              <path id="Path_1418" data-name="Path 1418" class="cls-6" d="M302.3,1506.5v0Z"/>
              <path id="Path_1419" data-name="Path 1419" class="cls-6" d="M302.3,1505.1v0Z"/>
              <path id="Path_1420" data-name="Path 1420" class="cls-6" d="M302.3,1504.5h0v0Z"/>
              <path id="Path_1421" data-name="Path 1421" class="cls-6" d="M302.3,1504.3Z"/>
              <path id="Path_1422" data-name="Path 1422" class="cls-6" d="M302.3,1504.1v0Z"/>
              <path id="Path_1423" data-name="Path 1423" class="cls-6" d="M302.3,1503.9Z"/>
              <path id="Path_1424" data-name="Path 1424" class="cls-6" d="M302.3,1503.8Z"/>
              <path id="Path_1425" data-name="Path 1425" class="cls-6" d="M302.3,1503.8v0Z"/>
              <path id="Path_1426" data-name="Path 1426" class="cls-6" d="M302.3,1502.9v0Z"/>
              <path id="Path_1427" data-name="Path 1427" class="cls-6" d="M302.3,1502.5v0Z"/>
              <path id="Path_1428" data-name="Path 1428" class="cls-6" d="M302.3,1502.2v-.2h0v.2Z"/>
              <path id="Path_1429" data-name="Path 1429" class="cls-6" d="M302.3,1502Z"/>
              <path id="Path_1430" data-name="Path 1430" class="cls-6" d="M302.3,1501.7v0Z"/>
              <path id="Path_1431" data-name="Path 1431" class="cls-6" d="M302.3,1501.7v0Z"/>
              <path id="Path_1432" data-name="Path 1432" class="cls-6" d="M302.3,1501.4Z"/>
              <path id="Path_1433" data-name="Path 1433" class="cls-6" d="M302.3,1501Z"/>
              <path id="Path_1434" data-name="Path 1434" class="cls-6" d="M302.5,1496.1c0-.1,0-.2.1-.2-.1,0-.1.1-.1.2Z"/>
              <path id="Path_1435" data-name="Path 1435" class="cls-6" d="M303.2,1494.7Z"/>
              <path id="Path_1436" data-name="Path 1436" class="cls-6" d="M304.5,1493.8a.31.31,0,0,0,.2-.1C304.7,1493.8,304.6,1493.8,304.5,1493.8Z"/>
              <path id="Path_1437" data-name="Path 1437" class="cls-6" d="M305.3,1493.7h0Z"/>
              <path id="Path_1438" data-name="Path 1438" class="cls-6" d="M306.7,1493.7h0Z"/>
              <path id="Path_1439" data-name="Path 1439" class="cls-6" d="M308.2,1493.8Z"/>
              <path id="Path_1440" data-name="Path 1440" class="cls-6" d="M310,1497.8v0Z"/>
              <path id="Path_1441" data-name="Path 1441" class="cls-6" d="M310,1498.1v0Z"/>
              <path id="Path_1442" data-name="Path 1442" class="cls-6" d="M310.5,1495.6h0c0,.1,0,.1.1.2a.31.31,0,0,1-.1-.2Z"/>
              <path id="Path_1443" data-name="Path 1443" class="cls-6" d="M310.6,1496Z"/>
              <path id="Path_1444" data-name="Path 1444" class="cls-6" d="M310.6,1495.9h0v0Z"/>
              <path id="Path_1445" data-name="Path 1445" class="cls-6" d="M310.8,1499.4v0Z"/>
              <path id="Path_1446" data-name="Path 1446" class="cls-6" d="M310.8,1499.6Z"/>
              <path id="Path_1447" data-name="Path 1447" class="cls-6" d="M310.8,1499.8v0Z"/>
              <path id="Path_1448" data-name="Path 1448" class="cls-6" d="M310.8,1500.3v0Z"/>
              <path id="Path_1449" data-name="Path 1449" class="cls-6" d="M310.8,1500.5v0Z"/>
              <path id="Path_1450" data-name="Path 1450" class="cls-6" d="M310.8,1500.6v.1h0Z"/>
              <path id="Path_1451" data-name="Path 1451" class="cls-6" d="M310.9,1500.8v0Z"/>
              <path id="Path_1452" data-name="Path 1452" class="cls-6" d="M310.8,1501.4h0v.3h0v-.3Z"/>
              <path id="Path_1453" data-name="Path 1453" class="cls-6" d="M310.9,1501v0Z"/>
              <path id="Path_1454" data-name="Path 1454" class="cls-6" d="M310.8,1501.8v0Z"/>
              <path id="Path_1455" data-name="Path 1455" class="cls-6" d="M310.8,1501.9v.2A.138.138,0,0,0,310.8,1501.9Z"/>
              <path id="Path_1456" data-name="Path 1456" class="cls-6" d="M310.8,1502.5h0v-.3S310.9,1502.4,310.8,1502.5Z"/>
              <path id="Path_1457" data-name="Path 1457" class="cls-6" d="M310.9,1502.2v0Z"/>
              <path id="Path_1458" data-name="Path 1458" class="cls-6" d="M310.9,1502.4v0Z"/>
              <path id="Path_1459" data-name="Path 1459" class="cls-6" d="M310.9,1502.5v0Z"/>
              <path id="Path_1460" data-name="Path 1460" class="cls-6" d="M310.9,1502.9h0v-.3A.187.187,0,0,0,310.9,1502.9Z"/>
              <path id="Path_1461" data-name="Path 1461" class="cls-6" d="M310.9,1503.3h0v.2h0v-.2Z"/>
              <path id="Path_1462" data-name="Path 1462" class="cls-6" d="M310.9,1503.4Z"/>
              <path id="Path_1463" data-name="Path 1463" class="cls-6" d="M310.9,1503.5h0v0Z"/>
              <path id="Path_1464" data-name="Path 1464" class="cls-6" d="M310.4,1509.5h0v.4h0v-.2A.138.138,0,0,1,310.4,1509.5Z"/>
              <path id="Path_1465" data-name="Path 1465" class="cls-6" d="M310,1510.6c-.1.1-.1.1-.1.2h0A.349.349,0,0,1,310,1510.6Z"/>
              <path id="Path_1466" data-name="Path 1466" class="cls-6" d="M309.8,1510.9h0l-.1.1-.2.2-.2.2.1-.1-.3.3a.1.1,0,0,0-.1.1h-.1a.349.349,0,0,0-.2.1.31.31,0,0,1,.2-.1l-.2.1a.1.1,0,0,0-.1.1h0c-.1,0-.2.1-.3.1h0c.1,0,.2-.1.3-.1-.1,0-.2.1-.3.1h-2.8c-.1,0-.3-.1-.4-.1H305c-.1,0-.2-.1-.3-.1l-.1-.1h-.1c-.1,0-.3-.2-.4-.3l-.3-.3a.1.1,0,0,0,.1.1l-.2-.2-.1-.2v-.1a.31.31,0,0,1-.1-.2,1.689,1.689,0,0,0-.2-.5,9.632,9.632,0,0,1,0-1.7v-10.8a3.9,3.9,0,0,1,.2-1.6h0a2.92,2.92,0,0,0-.2.9v.1h0v.2h0v1.1h0v.9h0v1.8h0v.3h0v.5h0v.3h0v2.8h0v1.1h0v1.3h0v.5h0v.7h0v1.4h0v.2c0,.1.1.2.1.3h0a.1.1,0,0,0,.1.1h0v-.1a28277756183.68,28277756183.68,0,1,1,.1.1h0c0,.1.1.1.1.2h0l.1.1h0l.1.1h0s.1.1.1,0a.1.1,0,0,0,.1.1h0a.215.215,0,0,1,.2.2l.1.1a.349.349,0,0,0,.2.1c.1,0,.2.1.3.1s.2.1.3.1h0c.2,0,.3.1.5.1h2.8c-.1,0-.3.1-.3,0h-2.9c-.1,0-.2,0-.2-.1h.1a.31.31,0,0,1-.2-.1h.1c-.1,0-.2-.1-.4-.1h0c-.1-.1-.2-.1-.3-.2a.1.1,0,0,1-.1-.1h0l-.2-.2c-.1-.1-.2-.3-.3-.4,0-.1-.1-.1-.1-.2a.1.1,0,0,0-.1-.1h0a2.2,2.2,0,0,1-.1-.8h0v-1h0V1507h0v-8.4h0v-1.1h0v-1a1.482,1.482,0,0,1,.1-.7,2.924,2.924,0,0,1,.7-1.2,2.617,2.617,0,0,1,1.3-.6h2.9c.1,0,.2.1.3.1a2,2,0,0,1,1,.8h0a.349.349,0,0,0,.1.2h0v.1c.1.1.1.2.2.4h0v.1h0v.1h0v.7h0v.7h0v1.2h0v5.5a1.268,1.268,0,0,0,.1.6v.3h0v1.8a.749.749,0,0,0,.1.5v-1.8h0v-.5h0v.1h0v1.6h0v-.2h0v-.2h0v-.2h0v-.1h0v-.3h0v-.1h0v1.1h0v1.8h0c0,.2,0,.5.1.5v-.5h0v-.1h0v-1h0v-.4h0v.1h0v-.3h0v-.3h0v-.5h0v.2h0v-.4h0v-.2h0v-.2h0v-.4h0v-.6h0v-.5h0v.1h0v-.4h0v-.4h0v-.8h0v0h0v-.9h0v-.9h0v.2h0v-.1h0v-.1h0v-.6h0v-.2h0v-1.1h0v-.1h0v-.3h0v-.2h0v-.1h0v-.7h0v-.1h0v-.3h0v-.3h0v-.3h0v-.8c0-.1,0-.1-.1-.2,0-.1,0-.1-.1-.2a.368.368,0,0,0-.1-.3v.1h0c0-.1-.1-.2-.1-.3v-.1s.1.2,0,.1a.1.1,0,0,0,.1.1l-.1-.2c-.1-.1,0-.1-.1-.2a.31.31,0,0,0-.1-.2c-.1-.1-.1-.2-.2-.2a.1.1,0,0,0,.1.1.349.349,0,0,1-.1-.2h0v-.1l-.1-.1.1.1-.1-.1h0l-.1-.1h0c-.1-.1,0,0,0-.1h0l-.1-.1c-.1-.1.1,0,0,0h0l-.1-.1v-.1c-.1,0-.1-.1-.2-.1a.349.349,0,0,0-.2-.1h0c-.1,0-.1-.1-.2-.1h0c-.1,0,0,0-.1-.1h-.1a.6.6,0,0,0-.4-.1h-3.7a.367.367,0,0,0-.3.1h0a.31.31,0,0,0,.2-.1c-.1,0-.1.1-.3.1h-.1c-.1,0-.1.1-.2.1h-.1a3.112,3.112,0,0,0-.6.4h0l-.2.2h0l-.1.1h0l-.1.1h0l-.1.1h0v.1h0a.758.758,0,0,0-.2.4h0a.1.1,0,0,1-.1.1h0c0,.1-.1.2-.1.3v.1h0a.367.367,0,0,0,.1-.3h0v-.1l.1-.1a1.689,1.689,0,0,0-.2.5h0a.368.368,0,0,1-.1.3v.2h0v.7h0v.3h0v.1h0v.1h0v.8h0v.1h0v.1h0v.2h0v.7h0v-.1h0v.2h0v.2h0v.1h0v-.1h0v.4h0v.3h0v-.2h0v.1h0v.5h0v.3h0v0h0v-.1h0v.3h0v0h0v.1h0v.4h0v.2h0v.2h0v.1h0v.4h0v1.5h0v.3h0v-.1h0v.1h0v.3h0v.4h0v-.2h0v.1h0v.4h0v.7h0v-.1h0v.4h0v-.1h0v.6h0v.2h0v1.3h0v.1h0v.2h0v.6h0v0h0a.6.6,0,0,0,.1.4h0l.1.3h0v.1h0a.1.1,0,0,0,.1.1h0c.1.1.2.3.3.4s.1.1.1.2l.2.2-.1-.1.1.1h0l.2.2h0l.1.1c.1,0,.3.2.5.3-.2-.1-.3-.2-.5-.3.1,0,.1.1.2.1l-.1-.1.1.1h0c.1.1.1.1.3.1a.1.1,0,0,1-.1-.1h0a.31.31,0,0,1,.2.1h0c.1,0,.1,0,.2.1h.1s.1.1.1,0h.2c.1,0,.2.1.3.1h.7c-.3,0-.4,0-.5-.1h-.5a.758.758,0,0,1-.4-.2h-.1l-.1-.1c-.1,0-.3-.2-.4-.3a.1.1,0,0,1-.1-.1c.1.1.1,0,.1.1h0c-.1-.1-.2-.1-.2-.2l.1.1c-.1,0-.1-.1,0,0l-.2-.2v-.1l.1.1h0l-.1-.1v.1l-.2-.2h0c-.1-.1,0,0,0-.1h0c0-.1-.2-.3-.2-.4-.1-.1-.1-.2-.2-.3a.1.1,0,0,0,.1.1.1.1,0,0,0-.1-.1h0c0-.1-.1-.2-.1-.3a.31.31,0,0,0-.1-.2h0v.1h0v-.5h0v-.4h0v-.6h0v-.4h0v-.1h0v-.6h0v.1h0v0h0v.2h0v.5h0v-.1h0v.9h0v-.4h0v.1h0v.1h0v.3h0v.5h0a.756.756,0,0,0,.1.4v-.1c0,.1.1.1.1.2h0v.2h0c0,.1,0,.1.1.1h0v.2c.1.1.1.3.2.4-.1-.1.1.2.2.3a.349.349,0,0,1-.1-.2c.1.1.2.2.2.3h0l.1.1.2.2c.1.1.2.1.3.2h0l.2.1h0c.1,0,.1.1.2.1h-.1a.367.367,0,0,0,.3.1h.1a1.69,1.69,0,0,1,.5.2h.2a.6.6,0,0,1,.4.1h3a.367.367,0,0,0,.3-.1h0c.1,0,.1-.1.2-.1h.2a.1.1,0,0,0-.1.1h-.1a.31.31,0,0,0,.2-.1h.1a.349.349,0,0,0,.2-.1h0c.1,0,.1-.1.2-.1l.1-.1c-.1,0-.1.1-.2.1h-.1l.1-.1h-.2a.1.1,0,0,0-.1.1s.1-.1.1,0a.1.1,0,0,0-.1.1h0a.1.1,0,0,0-.1.1h0a.31.31,0,0,0-.2.1h-.2c-.1,0-.1,0-.2.1h-.3c-.2.1-.4,0-.6.1h.3a.367.367,0,0,0,.3-.1c.2,0,.3-.1.4-.1a.1.1,0,0,0,.1-.1h-.2c-.1,0,0,0-.2.1a.1.1,0,0,0,.1-.1s-.1.1-.1,0c-.1,0-.2.1-.3.1.1,0,.1,0,.2-.1H308a.367.367,0,0,0-.3.1h-3.2c-.1,0-.3-.1-.4-.1h-.2c-.2-.1-.3-.1-.5-.2h.1c-.1-.1-.3-.1-.4-.3h0a.1.1,0,0,1-.1-.1l.1.1-.1-.1h0l-.3-.3h0v-.1l-.1-.1v-.1c0-.1-.1-.1-.1-.2h0a.349.349,0,0,0-.1-.2h0c0-.1-.1-.2-.1-.3v0h0v-.1h0l-.1-.2h0v-.4h0v-.2h0v-1.3h0v-.5h0v-.2h0v-.9h0v-.3h0v-.4h0v-.2h0v.2h0v0h0v.8h0v.1h0v.5h0v.3h0v.5h0v.1h0v.2h0v.3h0v.7h0v.3h0v.3h0a1.007,1.007,0,0,1,.1.3c0,.1,0,.1.1.1h0v-.1h0v.2a.1.1,0,0,0,.1.1c0-.1,0-.1-.1-.2v-.1c0,.1,0,0,.1.1h0c0,.1.1.2.1.3a.1.1,0,0,0-.1-.1.349.349,0,0,1,.1.2h0c0,.1,0,0,.1.1-.1-.1.1.2.2.2a.349.349,0,0,0,.2.1l.2.2h0l.1.1a.349.349,0,0,0,.2.1h0l.4.2h0a.1.1,0,0,1,.1.1h3.6c.1,0,.2-.1.3-.1h.1c.1,0,.1-.1.2-.1h-.1c.1-.1.3-.1.4-.2a.1.1,0,0,0,.1-.1h0c.1,0,.2-.1.3-.2l-.1.1a.349.349,0,0,1,.2-.1c0-.1,0,0-.1,0l.1-.1h0c.1,0,.1,0,.1-.1l-.1.1.1-.1.1-.1h0l.1-.1h0a11.5,11.5,0,0,0,.4,2v.1h0v-.1Zm-4.7.9h0Zm-2-2.9h0v.1h0Zm7.5-3v.1S310.5,1506,310.6,1505.9Zm.2,0v.4h0Zm-.1-8.7v0Zm-2.8-3.5h0Zm-3.5.2h0Zm.4,18.6h.2C304.9,1512.6,304.8,1512.6,304.8,1512.5Zm-1.1-.6s.2.2.2.1A.349.349,0,0,1,303.7,1511.9Zm5.1.4Zm-5.9-1.9c0,.1.1.2.1.3A.367.367,0,0,0,302.9,1510.4Zm2,1.7h.2A.139.139,0,0,1,304.9,1512.1Zm1.4.1Zm3.2-1h0l.1-.1A.1.1,0,0,1,309.5,1511.2Zm-1.6.8h0Zm-2-.1h0Zm-.4,0h0Zm2.9.4c-.1,0-.2.1-.3.1A.367.367,0,0,1,308.4,1512.3Zm-3.8-.8a.1.1,0,0,1,.1.1C304.6,1511.6,304.6,1511.6,304.6,1511.5Zm1.6.6h0Zm2.2.2Zm-.1.1h0Zm-.3,0h0Zm-1.8-.2Zm1.3.2Zm.9,0h.1S308.3,1512.5,308.4,1512.4Zm-2.5-.2h-.3c.2,0,.2-.1.3,0h0Zm-1.3-.5h0Zm1.6.5Zm1.7.3h0Zm-.9-.1h0Zm.6.1h0Zm-2.6-.4Zm1.9.3Zm-3.3-1.6Zm.3.5Zm3.2,1.2Zm-.5-.1Zm.4.1Zm-.7-.1h0Zm-.1,0Zm-.4-.1h0Zm1,.2h0Zm-2.1-.5h.2C304.8,1512.1,304.8,1512,304.7,1512Zm1.8.5h0Zm-3-1.7c.1.1.1.1.1.2A.349.349,0,0,1,303.5,1510.8Zm3.3,1.7Zm-.7-.1h0Zm.5.1Zm-2.1-.5h0l-.1-.1c-.1,0-.1,0-.2-.1h0a.349.349,0,0,0,.2.1h0l.1.1-.1-.1A.1.1,0,0,1,304.5,1512Zm0-.1a.1.1,0,0,1,.1.1Zm1.8.6Zm-3-2.2Zm3,2.2Zm-1.2-.2Zm1,.2h0Zm-.3-.1Zm.4.1Zm-2.1-.8a.1.1,0,0,1,.1.1C304.1,1511.8,304,1511.7,304.1,1511.7Zm1.3.7h0Zm-2.2-2.6h0C303.2,1509.9,303.1,1509.9,303.2,1509.8Zm1.8,2.5h0Zm-1.2-.8a.1.1,0,0,1-.1-.1Zm1.8,1.1h0c-.1-.1,0-.1,0,0h0Zm-.4-.1H305c.1-.1.1-.1.2,0C305.1,1512.4,305,1512.4,305.2,1512.5Zm-2.1-3.1h0v0Zm.5,1.9Zm2.3,1.3Zm-1-.2h0Zm-1.4-1.2Zm.6.7c-.1,0,.1.1,0,0C304.2,1512,304.1,1512,304.1,1511.9Zm1.4.6Zm-2.1-1.3Zm0,0,.1.1Zm2.5,1.5Zm-2.8-4.2v0Zm.3,2.9Zm-.5-1.2h0C302.9,1510.3,303,1510.3,302.9,1510.2Zm.3,1-.1-.2c0,.1.1.1.1.2C303.2,1511.1,303.3,1511.2,303.2,1511.2Zm-.1-3.4v0Zm1.5,4.7h0Zm-1.1-.8-.1-.1a.1.1,0,0,0,.1.1c0,.1.1.1,0,0C303.5,1511.8,303.6,1511.8,303.5,1511.7Zm-.7-1.9h0v0Zm.7,2.1c.1,0,.1.1.2.1C303.6,1512,303.6,1512,303.5,1511.9Zm-.6-1.1Zm.1.4.1.1Zm-.1-.3c-.1-.2-.1-.1-.1-.2a.31.31,0,0,0,.1.2Zm-.3-1.2v.2A.138.138,0,0,0,302.6,1509.7Zm.6,2,.1.1c0-.1,0,0-.1-.1Zm.2.1h0a.1.1,0,0,1-.1-.1Zm-.2-.1c.1,0,.2.1,0,0h0C303.3,1511.7,303.2,1511.6,303.2,1511.7Zm-.5-1a.1.1,0,0,0,.1.1Zm.1.2Zm-.1-.3a.1.1,0,0,0-.1-.1v0c.1-.1.1,0,.1.1Zm.1-2.3v.1h0Zm.3-1.7Zm0,5,.1.1C303.2,1511.6,303.1,1511.5,303.1,1511.6Zm-.4-3v0Zm.1,2.4h0c.1.1.1.1.1.2h0a.1.1,0,0,0,.1.1C302.9,1511.2,302.8,1511.1,302.8,1511Zm-.2-2v-.2c.1.1.1.1,0,.2Zm-.1,1.1Zm.2.7h0a.1.1,0,0,0,.1.1C302.7,1510.9,302.7,1510.9,302.7,1510.8Zm-.2-1v0Zm0-.4v.1h0Zm0,.3v0Zm.1.9a.1.1,0,0,0,.1.1C302.6,1510.7,302.6,1510.7,302.6,1510.6Zm-.1-1v0Zm-.1-.2v.2c.1,0,.1-.1,0-.2v0c.1,0,.1-.1,0,0Zm.1-.2v0Zm0,1.5a.31.31,0,0,1,.1.2C302.6,1510.8,302.6,1510.7,302.5,1510.7Zm-.1-.5Zm0,.1h0v-.1l.1.2A.1.1,0,0,1,302.4,1510.3Zm.1-1.2v0Zm0,0Zm-.1.5Zm0,.3Zm0-.8v-.1C302.5,1509.1,302.5,1509.1,302.4,1509.1Zm-.1.5h0v0Zm0-.4v0Zm0,.1h0v0Zm0-.5Zm.2-1.2v0Zm.2-1.4Zm-.2,1.4h0c0,.1-.1.1,0,0Zm0,0Zm-.2.5v-.1c.1.1.1.1,0,.1Zm.1-.5Zm.1-.3v0Zm0-.2Zm.2-1.3h0v-.3h0v.3Zm-.3,1.5v-.1c.1.1.1,0,0,.1Zm0,.5v.1S302.3,1507.8,302.4,1507.8Zm.1-1Zm0-.4h0v0h0v0Zm0-.1v0Zm-.1,1.5v0Zm0-.6Zm0-.2v0Zm0,.5v0Zm.3-2.4Zm0-.1v.1h0Zm-.2,1.6v.1S302.4,1506.6,302.5,1506.6Zm-.1.2Zm.1-.8v0Zm0-.3h0v0Zm0,.2h0v0Zm.6-4c.1-.1.1,0,0,0Zm-.4,2.4v-.1s.1,0,0,.1Zm-.2,1.1h0v0h0v0Zm-.2,1v0Zm.2-1v0Zm-.1.5v.1S302.3,1506,302.4,1505.9Zm-.1.1v0Zm.2-.9Zm-.1.3v0Zm-.1.5h0v0Zm.2-1.4v.3h0v-.3Zm.7-3.5v.1C303.1,1501.1,303.1,1501,303.2,1501Zm-.5,2.3h0c0-.1.1,0,0,0Zm-.4,2.3v.3h0Zm.3-1.3v0Zm-.1.1v0Zm-.2,1.1h0v0Zm0-.3v0Zm.2-.8v-.2h0v.2Zm-.2.9v0Zm0-.3h0v.2h0Zm.2-1.1v0Zm0-.4v0Zm0,0v0Zm.1-.5v0Zm-.1.1v-.2c.1,0,.1.2,0,.2Zm0,0v0Zm0-.5v0Zm-.1.9v0Zm0,0v0Zm0-.2Zm-.1,0h0v.2C302.4,1503.4,302.3,1503.4,302.3,1503.3Zm.3-1.2Zm-.2,1Zm.1-.9v-.3h0v.3Zm.1-.5v.1h0Zm-.1-.1c0-.1.1,0,0,0v.1C302.5,1501.6,302.6,1501.6,302.5,1501.6Zm.1-.4v0Zm.5-3.9v0Zm-.5,3.2v0Zm.5-3.4v-.2h0C303.1,1497,303.2,1497.1,303.1,1497.1Zm0-.4Zm-.7,3.7v0Zm0-.2v-.2h0v.2Zm0-.1v.2C302.4,1500.2,302.3,1500.2,302.4,1500.1Zm.9-4.2.1-.2A.349.349,0,0,1,303.3,1495.9Zm-1,3.9h0c0,.1.1.1,0,0Zm.1-.2Zm-.1.1Zm1.3-4.3Zm-1.2,3.7h0v0Zm1.4-3.9Zm-1.4,3.5v0Zm1.7-3.8Zm-1.7,3.4v0Zm2-3.6h0C304.3,1494.8,304.3,1494.7,304.4,1494.7Zm-2,3.3Zm2.1-3.3Zm-2.1,3.1v0Zm0-.1h0v0Zm2.3-3.1h0c-.1,0-.1.1-.2.1h0Zm-2.3,3Zm0-.2v0Zm0-.3v0Zm0-.3v0Zm0,0Zm0-.4v0Zm0,0v0Zm.1-.4h0v0Zm.4-.9Zm5.7-1.2a.1.1,0,0,1,.1.1.1.1,0,0,0-.1-.1h0Zm.5.2-.1-.1A.1.1,0,0,0,309.1,1494.1Zm.9,5.1h0v0Zm0-.1h0v-.1h0v.1Zm.2-3.9.1.1a.1.1,0,0,0-.1-.1Zm-.2,4.2Zm.4-4c0-.1,0,0-.1-.1C310.3,1495.3,310.4,1495.5,310.4,1495.4Zm-.4,4.1Zm.7.2v-.2C310.8,1499.6,310.8,1499.7,310.7,1499.7Zm0,.2v-.2C310.8,1499.8,310.8,1499.8,310.7,1499.9Zm.1.1Zm-.4,4.5h0v-.3h0Zm0,.4h0v0Zm.4-2.3v0Zm-.4,2.7v0Zm.4-1.7c.1,0,.1.1,0,0v0Zm-.4,2.7h0v0Zm.2-.5h0v.1h0v-.1Zm.2-.5Zm0,.4v0Zm0,.3v0Zm0-.1Zm-.1,2.5v0Z"/>
              <path id="Path_1467" data-name="Path 1467" class="cls-6" d="M302.3,1507.5h0v0Z"/>
              <path id="Path_1468" data-name="Path 1468" class="cls-6" d="M308.8,1511.6a.1.1,0,0,0-.1.1A.1.1,0,0,1,308.8,1511.6Z"/>
              <path id="Path_1469" data-name="Path 1469" class="cls-6" d="M306.4,1511.9Z"/>
              <path id="Path_1470" data-name="Path 1470" class="cls-6" d="M308.5,1512.1Z"/>
              <path id="Path_1471" data-name="Path 1471" class="cls-6" d="M307.6,1512.1Z"/>
              <path id="Path_1472" data-name="Path 1472" class="cls-6" d="M307.7,1512.1Z"/>
              <path id="Path_1473" data-name="Path 1473" class="cls-6" d="M305.8,1511.8Z"/>
              <path id="Path_1474" data-name="Path 1474" class="cls-6" d="M307.9,1512.2h0Z"/>
              <path id="Path_1475" data-name="Path 1475" class="cls-6" d="M305.1,1511.7c-.2,0-.2,0-.2-.1A.31.31,0,0,0,305.1,1511.7Z"/>
              <path id="Path_1476" data-name="Path 1476" class="cls-6" d="M309.7,1511.7Z"/>
              <path id="Path_1477" data-name="Path 1477" class="cls-6" d="M307.5,1512.2h0Z"/>
              <path id="Path_1478" data-name="Path 1478" class="cls-6" d="M305.3,1511.8c0,.1-.1,0,0,0Z"/>
              <path id="Path_1479" data-name="Path 1479" class="cls-6" d="M308.3,1512.4Z"/>
              <path id="Path_1480" data-name="Path 1480" class="cls-6" d="M306.7,1512.3h0Z"/>
              <path id="Path_1481" data-name="Path 1481" class="cls-6" d="M304,1511.3Z"/>
              <path id="Path_1482" data-name="Path 1482" class="cls-6" d="M303.8,1511.1l-.1-.1h0A.1.1,0,0,1,303.8,1511.1Z"/>
              <path id="Path_1483" data-name="Path 1483" class="cls-6" d="M303.6,1510.9c.1.1,0,.1,0,0l.2.2-.2-.2h0c-.1-.1-.1-.1-.1-.2,0,.1,0,.1.1.2Z"/>
              <path id="Path_1484" data-name="Path 1484" class="cls-6" d="M306.8,1512.7Z"/>
              <path id="Path_1485" data-name="Path 1485" class="cls-6" d="M305.4,1512.6h0Z"/>
              <path id="Path_1486" data-name="Path 1486" class="cls-6" d="M304.6,1512.4c-.1,0-.1,0-.2-.1,0,.1.2.1.2.1C304.6,1512.5,304.5,1512.4,304.6,1512.4Z"/>
              <path id="Path_1487" data-name="Path 1487" class="cls-6" d="M302.8,1510.3h0v-.1h0v.1Z"/>
              <path id="Path_1488" data-name="Path 1488" class="cls-6" d="M303.1,1511.4a.349.349,0,0,1-.1-.2.1.1,0,0,0-.1-.1v.1c.1,0,.1.1.2.2Z"/>
              <path id="Path_1489" data-name="Path 1489" class="cls-6" d="M302.9,1511l-.1-.2v.1Z"/>
              <path id="Path_1490" data-name="Path 1490" class="cls-6" d="M302.9,1511.2h0v-.1h0Z"/>
              <path id="Path_1491" data-name="Path 1491" class="cls-6" d="M302.5,1510.4c.1.1.1,0,0,0,.1.1,0,.1.1.1Z"/>
              <path id="Path_1492" data-name="Path 1492" class="cls-6" d="M302.3,1509.7Z"/>
              <path id="Path_1493" data-name="Path 1493" class="cls-6" d="M302.4,1508.7h0c.1,0,0-.1,0,0Z"/>
              <path id="Path_1494" data-name="Path 1494" class="cls-6" d="M302.7,1507.1h0v0Z"/>
              <path id="Path_1495" data-name="Path 1495" class="cls-6" d="M302.3,1508.2v0Z"/>
              <path id="Path_1496" data-name="Path 1496" class="cls-6" d="M302.3,1508v-.5h0v.5Z"/>
              <path id="Path_1497" data-name="Path 1497" class="cls-6" d="M302.2,1508.1v-.4C302.2,1507.9,302.3,1508,302.2,1508.1Z"/>
              <path id="Path_1498" data-name="Path 1498" class="cls-6" d="M302.3,1507.1v0Z"/>
              <path id="Path_1499" data-name="Path 1499" class="cls-6" d="M302.3,1506.3v0Z"/>
              <path id="Path_1500" data-name="Path 1500" class="cls-6" d="M302.3,1506.3v0Z"/>
              <path id="Path_1501" data-name="Path 1501" class="cls-6" d="M302.3,1505.9v0Z"/>
              <path id="Path_1502" data-name="Path 1502" class="cls-6" d="M302.3,1504.3v-.2h0Z"/>
              <path id="Path_1503" data-name="Path 1503" class="cls-6" d="M302.3,1503.5Z"/>
              <path id="Path_1504" data-name="Path 1504" class="cls-6" d="M302.3,1502.7v-.2h0Z"/>
              <path id="Path_1505" data-name="Path 1505" class="cls-6" d="M302.3,1501.4h0v-.3h0v.2h0Z"/>
              <path id="Path_1506" data-name="Path 1506" class="cls-6" d="M302.3,1499.1v-.2h0Z"/>
              <path id="Path_1507" data-name="Path 1507" class="cls-6" d="M302.3,1497.6v0Z"/>
              <path id="Path_1508" data-name="Path 1508" class="cls-6" d="M302.5,1496.1h0c-.1,0-.1.1,0,0Z"/>
              <path id="Path_1509" data-name="Path 1509" class="cls-6" d="M307.2,1493.7h0Z"/>
              <path id="Path_1510" data-name="Path 1510" class="cls-6" d="M309.9,1496.9v.4h0C310,1497.1,310,1497.1,309.9,1496.9Z"/>
              <path id="Path_1511" data-name="Path 1511" class="cls-6" d="M310.8,1500.3Z"/>
              <path id="Path_1512" data-name="Path 1512" class="cls-6" d="M310.8,1500.9Z"/>
            </g>
          </g>
        </g>
        <g id="Group_1773" data-name="Group 1773">
          <path id="Path_1513" data-name="Path 1513" class="cls-4" d="M305.7,1495.8a.585.585,0,0,1,.4.1c0,.1-.1.2-.2.4a2.19,2.19,0,0,1-.5.3v.3a.349.349,0,0,0,.2-.1c.5,0,.8.2.8.6a.9.9,0,0,1-.1.5c-.1.2-.3.3-.4.4-.1,0-.1.1-.2.1s-.1.1-.2.1h-.1v.3a1.088,1.088,0,0,1,.5-.1c.3,0,.5.1.5.3a.215.215,0,0,1-.2.2,1.95,1.95,0,0,0-.8.1v1.5c0,.2-.1.4-.3.4s-.3-.2-.3-.4a1.268,1.268,0,0,1,.1-.6v-.8c-.1,0-.2.1-.3.1a2.544,2.544,0,0,1-.7.2.367.367,0,0,1-.3-.1.1.1,0,1,1,0-.2,5.09,5.09,0,0,0,1.1-.4.367.367,0,0,1,.3-.1v-.3h-.1c-.1,0-.1,0-.2-.1a.1.1,0,1,1,0-.2c.1,0,.1,0,.2-.1v-.3h-.3c-.1,0-.2,0-.2-.1a.1.1,0,0,1,.1-.1.756.756,0,0,1,.4-.1v-.3a.774.774,0,0,1-.3.1c-.2,0-.3,0-.3-.1l.1-.1c.1,0,.2-.1.4-.2.1,0,.1-.1.2-.1v-.3c-.1,0-.2.1-.3.1h0a1.383,1.383,0,0,1,.4-.3v-.2h-.7c-.1,0-.1,0-.1-.1a.1.1,0,0,1,.1-.1c.1,0,.3-.1.7-.2v-.6a.758.758,0,0,0-.2-.4l-.1-.1c0-.1.1-.1.2-.1.2,0,.3,0,.4.1a.519.519,0,0,1,.2.4v.4C305.5,1495.8,305.6,1495.8,305.7,1495.8Zm-1.9,1.7h0a5.743,5.743,0,0,1,.4.7c0,.2.1.4.1.6,0,.1,0,.1-.1.1a.31.31,0,0,1-.2-.1c0-.1-.1-.2-.1-.3a5.635,5.635,0,0,0-.1-.7q0-.15,0-.3Zm1.5.5Zm0-.6v.3h.1c.2,0,.2.1.2.2.1-.1.1-.2.1-.4,0-.1-.1-.1-.2-.1Zm3.5-1.9c.2,0,.3.1.3.2s-.2.2-.7.3h-.2v.4a3.217,3.217,0,0,1,.8-.1.265.265,0,0,1,.3.3c0,.2-.2.5-.6,1a.758.758,0,0,1,.4.2c.2.2.4.4.4.5a.215.215,0,0,1-.2.2q-.15,0-.3-.3c-.3,0-.5.1-.7.1.1,0,.1.1.2.2a.367.367,0,0,1,.1.3h.5c.2,0,.3.1.5.2.1.1.2.2.2.3s-.1.1-.3.2a.6.6,0,0,1-.4-.1,1.007,1.007,0,0,1-.3-.1h0a6.15,6.15,0,0,1-.1,1.4,3.222,3.222,0,0,1-.2.6c-.1,0-.3-.1-.3-.2a.367.367,0,0,1-.1-.3c0-.1,0-.1.1-.1s.1-.1.2-.2a7.966,7.966,0,0,0,.1-1.1v-.1H308a.75.75,0,0,0-.5.1.349.349,0,0,1,.2.1c.1.1.2.2.2.3s-.1.2-.1.3c-.1,0-.2.1-.3.1s-.2,0-.2-.1a.438.438,0,0,1,.1-.3.1.1,0,0,0-.1-.1c-.1-.1-.1-.1-.1-.2v-.1a5.529,5.529,0,0,0-.9.1c-.1,0-.2,0-.2-.1h.1c.9-.2,1.6-.4,2.1-.5a.368.368,0,0,0-.1-.3c0-.1-.1-.1-.2-.2-.1,0-.3.1-.4.1a1.719,1.719,0,0,1-.8.2c-.1,0-.2,0-.2-.1s-.1-.1-.1-.2l.1-.1a4.513,4.513,0,0,0,1.3-.3v-.4h-.4c0,.1,0,.1-.1.1s-.2-.1-.3-.4a1.268,1.268,0,0,1-.1-.6c0-.2,0-.3.1-.3s.2.2.3.5a.6.6,0,0,1,.1.4,4.332,4.332,0,0,1,.5-.1v-.3h-.5a.1.1,0,1,1,0-.2,4.332,4.332,0,0,1,.5-.1v-.3h-.4c-.1,0-.2,0-.2-.1a.31.31,0,0,0,.2-.1c.2,0,.3-.1.4-.1v-.4h-.6a.367.367,0,0,1-.3-.1l-.1-.1a.349.349,0,0,1,.2-.1,3.092,3.092,0,0,0,.8-.2v-.3a.368.368,0,0,0-.1-.3c0-.1-.1-.1-.1-.2s.1-.2.3-.2c.1,0,.1,0,.2.1.1,0,.1.1.1.2v.5C308.5,1495.5,308.6,1495.5,308.8,1495.5Zm0,2.4a.31.31,0,0,1-.1-.2c-.1,0-.2.1-.4.1h-.2v.3c.1-.1.3-.1.5-.2Zm-.7-.4h.2l.5-.8h0c-.3,0-.5.1-.7.1v.2h.2c.1,0,.2,0,.2.1s-.1.2-.3.2h0C308.1,1497.3,308.1,1497.4,308.1,1497.5Z"/>
          <path id="Path_1514" data-name="Path 1514" class="cls-4" d="M305.7,1501.1c.3,0,.4,0,.4.1s-.1.2-.2.4a2.19,2.19,0,0,1-.5.3v.3a.349.349,0,0,0,.2-.1c.5,0,.8.2.8.6a1.087,1.087,0,0,1-.1.5c-.1.2-.3.3-.4.4s-.1.1-.2.1-.1.1-.2.1h-.1v.3a1.088,1.088,0,0,1,.5-.1c.3,0,.5.1.5.3a.215.215,0,0,1-.2.2,1.95,1.95,0,0,0-.8.1v1.5c0,.2-.1.4-.3.4s-.3-.2-.3-.4a1.268,1.268,0,0,1,.1-.6v-.8c-.1,0-.2.1-.3.1a2.544,2.544,0,0,1-.7.2.367.367,0,0,1-.3-.1.1.1,0,1,1,0-.2,2.428,2.428,0,0,0,1.1-.4.367.367,0,0,1,.3-.1v-.3h-.1c-.1,0-.1,0-.2-.1a.1.1,0,1,1,0-.2c.1,0,.1-.1.2-.1v-.3h-.3c-.1,0-.2,0-.2-.1a.1.1,0,0,1,.1-.1.756.756,0,0,1,.4-.1v-.3a.774.774,0,0,1-.3.1.438.438,0,0,1-.3-.1l.1-.1c.1,0,.2-.1.4-.2.1,0,.1-.1.2-.1v-.3c-.1,0-.2.1-.3.1h0a1.383,1.383,0,0,1,.4-.3v-.2h-.7c-.1,0-.1,0-.1-.1a.1.1,0,0,1,.1-.1c.1,0,.3-.1.7-.2v-.6a.758.758,0,0,0-.2-.4.1.1,0,0,1-.1-.1c0-.1.1-.1.2-.1.2,0,.3,0,.4.1a.519.519,0,0,1,.2.4v.4C305.5,1501.1,305.6,1501.1,305.7,1501.1Zm-1.9,1.7h0a5.743,5.743,0,0,1,.4.7c0,.2.1.4.1.6,0,.1,0,.1-.1.1a.31.31,0,0,1-.2-.1c0-.1-.1-.2-.1-.3a5.635,5.635,0,0,0-.1-.7q0-.15,0-.3Zm1.5.5Zm0-.6v.3h.1c.2,0,.2.1.2.1a.367.367,0,0,0,.1-.3c0-.1-.1-.1-.2-.1C305.4,1502.6,305.4,1502.6,305.3,1502.7Zm3.5-1.9c.2,0,.3.1.3.2s-.2.3-.7.3h-.2v.4a3.217,3.217,0,0,1,.8-.1.265.265,0,0,1,.3.3q0,.3-.6.9a.758.758,0,0,1,.4.2c.2.2.4.4.4.5a.215.215,0,0,1-.2.2c-.1,0-.2-.1-.3-.2-.3,0-.5.1-.7.1.1,0,.1.1.2.2a.367.367,0,0,1,.1.3h.5c.2,0,.3.1.5.2.1.1.2.2.2.3s-.1.1-.3.2a.6.6,0,0,1-.4-.1,1.007,1.007,0,0,1-.3-.1h0a6.15,6.15,0,0,1-.1,1.4,3.222,3.222,0,0,1-.2.6c-.1,0-.3-.1-.3-.2a.367.367,0,0,1-.1-.3.1.1,0,0,1,.1-.1c.1,0,.1-.1.2-.2a7.966,7.966,0,0,0,.1-1.1v-.1H308a.75.75,0,0,0-.5.1.349.349,0,0,1,.2.1c.1.1.2.2.2.3s-.1.2-.1.3a.367.367,0,0,1-.3.1c-.1,0-.2,0-.2-.1a.438.438,0,0,1,.1-.3.1.1,0,0,0-.1-.1c-.1-.1-.1-.1-.1-.2v-.1a4.4,4.4,0,0,1-.9.1c-.1,0-.2,0-.2-.1h.1c.9-.2,1.6-.4,2.1-.5a.368.368,0,0,0-.1-.3c0-.1-.1-.1-.2-.2-.1,0-.3.1-.4.1a1.719,1.719,0,0,1-.8.2c-.1,0-.2,0-.2-.1s-.1-.1-.1-.2l.1-.1a4.513,4.513,0,0,0,1.3-.3v-.4h-.4c0,.1,0,.1-.1.1s-.2-.1-.3-.4a1.268,1.268,0,0,1-.1-.6c0-.2,0-.2.1-.3.1,0,.2.2.3.5a.6.6,0,0,1,.1.4,4.332,4.332,0,0,1,.5-.1v-.3h-.5a.1.1,0,1,1,0-.2,4.332,4.332,0,0,1,.5-.1v-.3h-.4c-.1,0-.2,0-.2-.1a.31.31,0,0,0,.2-.1c.2,0,.3-.1.4-.1v-.4h-.6a.367.367,0,0,1-.3-.1l-.1-.1a.349.349,0,0,1,.2-.1,3.092,3.092,0,0,0,.8-.2v-.3a.368.368,0,0,0-.1-.3.1.1,0,0,0-.1-.1c0-.1.1-.2.3-.2.1,0,.1,0,.2.1s.1.1.1.2v.5C308.5,1500.8,308.6,1500.8,308.8,1500.8Zm0,2.4a.31.31,0,0,1-.1-.2c-.1,0-.2.1-.4.1h-.2v.3c.1-.1.3-.1.5-.2Zm-.7-.4h.2l.5-.8h0c-.3,0-.5.1-.7.1v.2h.2c.1,0,.2,0,.2.1s-.1.2-.3.2h0C308.1,1502.6,308.1,1502.7,308.1,1502.8Z"/>
          <path id="Path_1515" data-name="Path 1515" class="cls-4" d="M306.2,1505.1a.367.367,0,0,1,.3.1c.1.1.1.2.1.4v.3a17.2,17.2,0,0,0,2.9,2.1,1.378,1.378,0,0,1,.4.3.31.31,0,0,1,.1.2c0,.1-.2.2-.5.2a2.544,2.544,0,0,1-.7-.2,12.406,12.406,0,0,1-2.2-2l-.2-.2c-.1.1-.2.3-.3.4-.3.3-.5.6-.8.9a1.422,1.422,0,0,0,.6-.2,4.4,4.4,0,0,1,1-.2c.3,0,.4.1.4.3,0,.1-.1.1-.2.1a4.484,4.484,0,0,0-1.2.1h-.7a1.756,1.756,0,0,1-.5.4l-.1.1h.3c.8-.2,1.5-.3,1.9-.4a1.483,1.483,0,0,0,.7-.1h.2c.1,0,.2.1.4.2.1.1.2.2.2.3s0,.1-.1.2-.1.1-.1.3a5.946,5.946,0,0,0-.3.7.25.25,0,0,1-.4,0c-.7,0-1.3.1-1.9.1,0,.1,0,.1-.1.1a.758.758,0,0,1-.4-.2,2.191,2.191,0,0,1-.3-.8q0-.15-.3-.3a2.36,2.36,0,0,1-.9.6,1.422,1.422,0,0,1-.6.2h-.1a10.067,10.067,0,0,0,1.7-1.5,13.277,13.277,0,0,0,1.2-1.6,1.33,1.33,0,0,0,.3-.8c.1,0,.1,0,.2-.1Zm-.8,4h.1c0-.1-.1-.1-.1-.2v-.5c.1,0,.1,0,.2.1a.367.367,0,0,1,.1.3v.1h.2l.1-.8h0a5.074,5.074,0,0,1-.9.2l.1.1C305.3,1508.8,305.4,1509,305.4,1509.1Zm.1.9c.1,0,.2.1.3.2,0,.1.1.2.1.4a.367.367,0,0,0,.3-.1.6.6,0,0,1,.4-.1h.2v-.1c0-.2-.1-.3-.2-.3a2.486,2.486,0,0,0-.8.1c-.1,0-.2,0-.2-.1s.1-.1.2-.2a4.288,4.288,0,0,1,1-.3.758.758,0,0,1,.4.2.367.367,0,0,1,.1.3c0,.8,0,1.3-.2,1.5-.1.2-.1.3-.3.3-.1,0-.1-.1-.2-.2v-.1h-.1a3.537,3.537,0,0,0-.6.1.367.367,0,0,1-.3-.1l-.1-.1-.1.1c-.1,0-.2-.1-.2-.3v-.7c.3-.1.3-.3.3-.5Zm.4,1.3c.1,0,.2-.1.4-.1a.75.75,0,0,1,.5-.1h0v-.5c-.1,0-.1.1-.2.1a2.035,2.035,0,0,0-.5.1h-.2v.4S305.9,1511.3,305.9,1511.3Zm.4-2.2h.1c0-.1.1-.1.1-.2a.9.9,0,0,0,.1-.5v-.1h-.2Zm.4-.1h.5v-.1c.1-.2.2-.3.2-.4a.349.349,0,0,1,.1-.2c0-.1,0-.1-.1-.1H307v.1a.368.368,0,0,1-.1.3.52.52,0,0,1-.2.4Z"/>
        </g>
        <path id="Path_1516" data-name="Path 1516" class="cls-4" d="M209.4,1381.5a3.806,3.806,0,0,0-.9,1.3,4.852,4.852,0,0,0,8.7,4.3,8.8,8.8,0,0,0,.5-1.5Z"/>
        <g id="Group_1774" data-name="Group 1774">
          <path id="Path_1517" data-name="Path 1517" class="cls-7" d="M244.8,1421.8l-1.6-1.6-4.5,4.5-.9-.9,4.5-4.5-1.6-1.6.7-.7,4.1,4.1Z"/>
          <path id="Path_1518" data-name="Path 1518" class="cls-7" d="M247.5,1428.6a1.9,1.9,0,0,1-.2,1.9,5.708,5.708,0,0,0-.9,1.8l-.9-.9c.1-.2.4-.8.9-1.6a1.411,1.411,0,0,0-.1-2l-.5-.5-2.2,2.2-.9-.9,5.1-5c.4.3,1,.8,1.6,1.3a3.783,3.783,0,0,1,1.3,2.1,1.741,1.741,0,0,1-.5,1.5,2.885,2.885,0,0,1-2.7.1Zm-.7-1.3a1.5,1.5,0,0,0,2.1.3c.7-.7.3-1.4-.3-2.1a3.189,3.189,0,0,0-.7-.6l-1.8,1.8Z"/>
          <path id="Path_1519" data-name="Path 1519" class="cls-7" d="M253,1439l-.9-1,1-2-1.8-1.8-2,1-.9-.9,6.9-3.3,1.1,1.1Zm.5-3.7.9-1.8c.2-.4.5-.9.7-1.3h0c-.4.2-.9.5-1.3.7l-1.8.9Z"/>
          <path id="Path_1520" data-name="Path 1520" class="cls-7" d="M264.6,1440.4l-7,3.2-1-1,3.3-6.9,1,1-1.6,3.2c-.4.9-.9,1.7-1.3,2.5h0a19.651,19.651,0,0,1,2.5-1.3l3.2-1.6Z"/>
          <path id="Path_1521" data-name="Path 1521" class="cls-7" d="M265,1450.9l-3.2-3.2,5.1-5.1,3.1,3.1-.6.6-2.2-2.2-1.5,1.5,2.1,2.1-.6.6-2.1-2.1-1.7,1.7,2.3,2.3Z"/>
          <path id="Path_1522" data-name="Path 1522" class="cls-7" d="M270.6,1456.6l-3.2-3.2,5.1-5.1.9.9-4.5,4.5,2.3,2.3Z"/>
        </g>
        <g id="Group_1775" data-name="Group 1775">
          <path id="Path_1523" data-name="Path 1523" class="cls-8" d="M264.2,1406.3l-1.7-1.7,1.7-7.7a46.077,46.077,0,0,1,1.5-5.3h-.1c-1.2,1.4-2.5,2.7-4.2,4.5l-3.8,3.8-1.6-1.6,10-10,1.9,1.9-1.7,7.6a34.078,34.078,0,0,1-1.5,5.1h.1a53.651,53.651,0,0,1,4.1-4.4l3.7-3.7,1.6,1.6Z"/>
          <path id="Path_1524" data-name="Path 1524" class="cls-8" d="M274.1,1415.7a12.041,12.041,0,0,1-3.1-2.2c-3.1-3.1-3.4-7.1-.2-10.3,3.4-3.4,7.7-2.9,10.8.2a8.545,8.545,0,0,1,2,2.8l-1.6.9a7.4,7.4,0,0,0-1.6-2.3c-2.2-2.2-5.1-2.5-7.7.1-2.5,2.5-2.4,5.3-.1,7.6a8.224,8.224,0,0,0,2.4,1.7Z"/>
          <path id="Path_1525" data-name="Path 1525" class="cls-8" d="M283.2,1425.4l-2-2,1.6-7.9-2,.1-3.7,3.7-1.7-1.7,10-10.1,1.7,1.7-4.7,4.7h0c.7-.1,1.3-.2,1.9-.3l6.5-.7,2.1,2.1-8,.6Z"/>
          <path id="Path_1526" data-name="Path 1526" class="cls-8" d="M296.4,1430.3c-3,3-5.9,2.6-8.3.2-2.3-2.3-2.7-5.1.3-8.1l6-6,1.7,1.7-6.1,6.1c-2,2-1.9,3.8-.6,5.1,1.4,1.4,3.2,1.4,5.2-.6l6.1-6.1,1.7,1.7Z"/>
        </g>
        <g id="Group_1776" data-name="Group 1776">
          <path id="Path_1527" data-name="Path 1527" class="cls-9" d="M217.8,1445.6l8.2-8.2,4.6,4.6-1,1-3.3-3.3-2.5,2.5,3,3-1,1-3-3-3.6,3.6Z"/>
          <path id="Path_1528" data-name="Path 1528" class="cls-9" d="M234.5,1445.8l1.3,1.3-8.2,8.2-1.3-1.3Z"/>
          <path id="Path_1529" data-name="Path 1529" class="cls-9" d="M242.8,1456.7a4.742,4.742,0,0,0-1.2-1.9c-1.1-1.1-2.1-.9-2.6-.4-.7.7-.5,1.5.1,3.1.8,2,.8,3.4-.3,4.5-1.4,1.4-3.5,1.3-5.5-.7a5.748,5.748,0,0,1-1.6-2.6l1.3-.7a6.013,6.013,0,0,0,1.4,2.4c1.1,1.1,2.2,1.1,2.9.4s.7-1.6,0-3c-.8-1.8-1-3.4.2-4.6,1.3-1.3,3.4-1.2,5.2.6a7.1,7.1,0,0,1,1.5,2.2Z"/>
          <path id="Path_1530" data-name="Path 1530" class="cls-9" d="M246.5,1474.4l-1.3-1.3,3.8-3.8-3.6-3.6-3.7,3.8-1.3-1.3,8.3-8.3,1.3,1.3-3.4,3.4,3.6,3.6,3.4-3.4,1.3,1.3Z"/>
        </g>
        <g id="Group_1780" data-name="Group 1780">
          <g id="Group_1777" data-name="Group 1777" class="cls-10">
            <path id="Path_1531" data-name="Path 1531" class="cls-4" d="M243.3,1572.7c-.9,0-1.1.5-1.1,1.1l-.5,2.6c0,.6.7,1.1,1.6,1.1s1.6-.5,1.6-1.1l-.5-2.6C244.4,1573.2,244.2,1572.7,243.3,1572.7Z"/>
            <path id="Path_1532" data-name="Path 1532" class="cls-4" d="M246,1567.9h-5.3a1.4,1.4,0,0,0,0,2.8H246a1.367,1.367,0,0,0,1.4-1.4A1.43,1.43,0,0,0,246,1567.9Z"/>
            <path id="Path_1533" data-name="Path 1533" class="cls-4" d="M244.5,1571.1h-2.3a.6.6,0,1,0,0,1.2h2.3a.645.645,0,0,0,.6-.6A.576.576,0,0,0,244.5,1571.1Z"/>
            <path id="Path_1534" data-name="Path 1534" class="cls-4" d="M282.7,1545.4l.5-.9a1.54,1.54,0,0,0-.6-2.1l-1.4-.8a42.861,42.861,0,0,0,4.8-17.8,1.157,1.157,0,0,0,.5-.7,1.893,1.893,0,0,0,1.6.9,2.063,2.063,0,0,0,1.7-1v.2a.6.6,0,0,0,1.2,0V1521a.6.6,0,0,0-1.2,0v.2a1.824,1.824,0,0,0-1.7-1,1.893,1.893,0,0,0-1.6.9,1.793,1.793,0,0,0-.5-.7,40.94,40.94,0,0,0-4.7-17.8l1.4-.8a1.58,1.58,0,0,0,.6-2.1l-.5-.9a1.468,1.468,0,0,0-2.1-.5l-1.4.8a42.759,42.759,0,0,0-13.1-13,1.136,1.136,0,0,0-.3-.8,1.922,1.922,0,0,0,1.6-.9,1.85,1.85,0,0,0,0-1.9l.1.1a.583.583,0,1,0,.6-1l-1.9-1.1a.583.583,0,1,0-.6,1l.1.1a1.965,1.965,0,0,0-1.7.9,1.91,1.91,0,0,0,0,1.8,1.412,1.412,0,0,0-.9.1,42.957,42.957,0,0,0-17.8-4.9v-1.6a1.538,1.538,0,0,0-1.5-1.5h-1a1.538,1.538,0,0,0-1.5,1.5v1.6a42.453,42.453,0,0,0-17.8,4.8,1.412,1.412,0,0,0-.9-.1,2.118,2.118,0,0,0,0-1.9,1.965,1.965,0,0,0-1.7-.9l.1-.1a.583.583,0,1,0-.6-1l-1.9,1.1a.583.583,0,1,0,.6,1l.1-.1a1.85,1.85,0,0,0,0,1.9,1.8,1.8,0,0,0,1.6.9,1.135,1.135,0,0,0-.3.8,42.438,42.438,0,0,0-13.1,12.9l-1.4-.8a1.6,1.6,0,0,0-2.1.5l-.5.9a1.6,1.6,0,0,0,.5,2.1l1.4.8a42.861,42.861,0,0,0-4.8,17.8,1.157,1.157,0,0,0-.5.7,1.893,1.893,0,0,0-1.6-.9,2.062,2.062,0,0,0-1.7,1v-.2a.645.645,0,0,0-.6-.6.576.576,0,0,0-.6.6v2.2a.6.6,0,0,0,1.2,0v-.2a1.824,1.824,0,0,0,1.7,1,1.893,1.893,0,0,0,1.6-.9,1.793,1.793,0,0,0,.5.7,41.747,41.747,0,0,0,4.7,17.9l-1.4.8a1.58,1.58,0,0,0-.6,2.1l.5.9a1.58,1.58,0,0,0,2.1.6l1.4-.8a42.759,42.759,0,0,0,13.1,13,1.136,1.136,0,0,0,.3.8,2.036,2.036,0,0,0-1.6.9,1.85,1.85,0,0,0,0,1.9l-.1-.1a.583.583,0,1,0-.6,1l1.9,1.1a.583.583,0,1,0,.6-1l-.1-.1a1.965,1.965,0,0,0,1.7-.9,1.91,1.91,0,0,0,0-1.8,1.412,1.412,0,0,0,.9-.1,41.5,41.5,0,0,0,17.8,4.9v1.6a1.538,1.538,0,0,0,1.5,1.5h1a1.538,1.538,0,0,0,1.5-1.5v-1.6a42.861,42.861,0,0,0,17.8-4.8,1.412,1.412,0,0,0,.9.1,2.118,2.118,0,0,0,0,1.9,1.965,1.965,0,0,0,1.7.9l-.1.1a.524.524,0,0,0-.2.8.54.54,0,0,0,.8.2l1.9-1.1a.583.583,0,1,0-.6-1l-.1.1a1.85,1.85,0,0,0,0-1.9,1.8,1.8,0,0,0-1.6-.9,1.135,1.135,0,0,0,.3-.8,41.684,41.684,0,0,0,13.1-13l1.4.8A1.734,1.734,0,0,0,282.7,1545.4Zm-12.3-41.1-.4.2a1.58,1.58,0,0,0-.6,2.1l.5.9a1.58,1.58,0,0,0,2.1.6l.4-.2a32.6,32.6,0,0,1,3.3,12.5h-2.2a1.39,1.39,0,0,0-1.4,1.1l-14.9-.4a13.69,13.69,0,0,0-1.3-4.9l13-7.9-.7-1.2-13.4,7.3a15.379,15.379,0,0,0-3.6-3.6l7.1-13.1a1.317,1.317,0,0,0,1.8-.6l1.1-1.9A29.586,29.586,0,0,1,270.4,1504.3ZM243,1491.8h1a1.538,1.538,0,0,0,1.5-1.5v-.4a32.205,32.205,0,0,1,12.4,3.4l-1.1,1.9a1.491,1.491,0,0,0,.2,1.7l-7.8,12.7a13.163,13.163,0,0,0-4.9-1.3l-.4-15.4h-1.4l-.4,15.4a13.687,13.687,0,0,0-4.9,1.3l-7.7-12.7a1.4,1.4,0,0,0,.4-1.9l-1.1-1.9a30.909,30.909,0,0,1,12.5-3.3v.5A1.9,1.9,0,0,0,243,1491.8Zm4.2,30.3a3.7,3.7,0,1,1-3.7-3.7A3.629,3.629,0,0,1,247.2,1522.1Zm-32.3-14.3a1.54,1.54,0,0,0,2.1-.6l.5-.9a1.54,1.54,0,0,0-.6-2.1l-.4-.2a31.913,31.913,0,0,1,9.2-9.1l1.1,1.9a1.385,1.385,0,0,0,1.7.6l7.1,13.1a15.379,15.379,0,0,0-3.6,3.6l-13.5-7.3-.7,1.2,13.1,8a13.16,13.16,0,0,0-1.3,4.9l-14.9.4a1.493,1.493,0,0,0-1.4-1.3h-2.2a32.7,32.7,0,0,1,3.4-12.5Zm1.6,32,.4-.2a1.58,1.58,0,0,0,.6-2.1l-.5-.9a1.58,1.58,0,0,0-2.1-.6l-.4.2a32.6,32.6,0,0,1-3.3-12.5h2.2a1.41,1.41,0,0,0,1.4-1.1l14.9.4a13.69,13.69,0,0,0,1.3,4.9l-13.1,8,.7,1.2,13.4-7.3a15.379,15.379,0,0,0,3.6,3.6l-7.1,13.1a1.345,1.345,0,0,0-1.8.6l-1.1,1.9A29.589,29.589,0,0,1,216.5,1539.8Zm27.3,12.6h-1a1.538,1.538,0,0,0-1.5,1.5v.4a32.205,32.205,0,0,1-12.4-3.4l1.1-1.9a1.529,1.529,0,0,0-.3-1.8l7.8-12.7a13.692,13.692,0,0,0,4.9,1.3l.4,15.2h1.4l.4-15.2a13.687,13.687,0,0,0,4.9-1.3l7.8,12.7a1.4,1.4,0,0,0-.4,1.9l1.1,1.9a30.909,30.909,0,0,1-12.5,3.3v-.5A1.721,1.721,0,0,0,243.8,1552.4Zm17.3-3.3-1.1-1.9a1.478,1.478,0,0,0-1.6-.7l-7.1-13.1a15.379,15.379,0,0,0,3.6-3.6l13.4,7.3.7-1.2-13-7.9a13.688,13.688,0,0,0,1.3-4.9l14.9-.4a1.415,1.415,0,0,0,1.4,1.3h2.2a32.7,32.7,0,0,1-3.4,12.5l-.4-.2a1.54,1.54,0,0,0-2.1.6l-.5.9a1.54,1.54,0,0,0,.6,2.1l.4.2A34.663,34.663,0,0,1,261.1,1549.1Z"/>
            <path id="Path_1535" data-name="Path 1535" class="cls-4" d="M286.4,1542.3a1.342,1.342,0,0,0-1.9.5l-2.7,4.6a1.389,1.389,0,1,0,2.4,1.4l2.7-4.6A1.429,1.429,0,0,0,286.4,1542.3Z"/>
            <path id="Path_1536" data-name="Path 1536" class="cls-4" d="M287.2,1545.4a.524.524,0,0,0-.8.2l-1.1,2a.524.524,0,0,0,.2.8.54.54,0,0,0,.8-.2l1.1-2A.554.554,0,0,0,287.2,1545.4Z"/>
            <path id="Path_1537" data-name="Path 1537" class="cls-4" d="M292.4,1548l-3.3-1.1a1.186,1.186,0,0,0-1.9.5,1.172,1.172,0,0,0,.5,1.9l2.6,2.3c.7.4,1.7-.1,2.3-1.1A2.013,2.013,0,0,0,292.4,1548Z"/>
            <path id="Path_1538" data-name="Path 1538" class="cls-4" d="M284.6,1501.5a1.389,1.389,0,1,0,2.4-1.4l-2.7-4.6a1.389,1.389,0,1,0-2.4,1.4Z"/>
            <path id="Path_1539" data-name="Path 1539" class="cls-4" d="M286.5,1498.6a.583.583,0,0,0,1-.6l-1.1-2a.583.583,0,0,0-1,.6Z"/>
            <path id="Path_1540" data-name="Path 1540" class="cls-4" d="M289.2,1497.4l3.3-1.1c.7-.4.8-1.5.2-2.5s-1.6-1.5-2.3-1.1l-2.6,2.3a1.172,1.172,0,0,0-.5,1.9C287.8,1497.9,288.5,1497.8,289.2,1497.4Z"/>
            <path id="Path_1541" data-name="Path 1541" class="cls-4" d="M240.9,1476.2h5.3a1.4,1.4,0,0,0,0-2.8h-5.3a1.367,1.367,0,0,0-1.4,1.4A1.43,1.43,0,0,0,240.9,1476.2Z"/>
            <path id="Path_1542" data-name="Path 1542" class="cls-4" d="M242.4,1471.9a.6.6,0,1,0,0,1.2h2.3a.6.6,0,1,0,0-1.2Z"/>
            <path id="Path_1543" data-name="Path 1543" class="cls-4" d="M243.5,1471.5c1.1,0,1.4-.6,1.4-1.4l.7-3.4c0-.8-.9-1.4-2.1-1.4-1.1,0-2.1.6-2.1,1.4l.7,3.4C242.1,1470.9,242.4,1471.5,243.5,1471.5Z"/>
            <path id="Path_1544" data-name="Path 1544" class="cls-4" d="M200.5,1501.8a1.342,1.342,0,0,0,1.9-.5l2.7-4.6a1.389,1.389,0,1,0-2.4-1.4l-2.7,4.6A1.321,1.321,0,0,0,200.5,1501.8Z"/>
            <path id="Path_1545" data-name="Path 1545" class="cls-4" d="M199.7,1498.7a.524.524,0,0,0,.8-.2l1.1-2a.583.583,0,0,0-1-.6l-1.1,2A.554.554,0,0,0,199.7,1498.7Z"/>
            <path id="Path_1546" data-name="Path 1546" class="cls-4" d="M194.5,1496.1l3.3,1.1a1.186,1.186,0,0,0,1.9-.5,1.172,1.172,0,0,0-.5-1.9l-2.6-2.3c-.7-.4-1.7.1-2.3,1.1C193.8,1494.6,193.8,1495.7,194.5,1496.1Z"/>
            <path id="Path_1547" data-name="Path 1547" class="cls-4" d="M202.3,1542.6a1.389,1.389,0,1,0-2.4,1.4l2.7,4.6a1.342,1.342,0,0,0,1.9.5,1.362,1.362,0,0,0,.5-1.9Z"/>
            <path id="Path_1548" data-name="Path 1548" class="cls-4" d="M200.4,1545.5a.583.583,0,0,0-1,.6l1.1,2a.583.583,0,0,0,1-.6Z"/>
            <path id="Path_1549" data-name="Path 1549" class="cls-4" d="M197.7,1546.7l-3.3,1.1c-.7.4-.8,1.5-.2,2.5s1.6,1.5,2.3,1.1l2.6-2.3a1.172,1.172,0,0,0,.5-1.9C199.1,1546.2,198.4,1546.3,197.7,1546.7Z"/>
            <path id="Path_1550" data-name="Path 1550" class="cls-4" d="M244.3,1551.4h-1.8a.3.3,0,0,0,0,.6h1.8a.3.3,0,0,0,0-.6Z"/>
            <path id="Path_1551" data-name="Path 1551" class="cls-4" d="M242.5,1492.6h1.8a.3.3,0,0,0,0-.6h-1.8a.265.265,0,0,0-.3.3A.319.319,0,0,0,242.5,1492.6Z"/>
            <path id="Path_1552" data-name="Path 1552" class="cls-4" d="M269.7,1535.8c-.1-.1-.3,0-.4.1l-.9,1.6c-.1.1,0,.3.1.4s.3,0,.4-.1l.9-1.6A.247.247,0,0,0,269.7,1535.8Z"/>
            <path id="Path_1553" data-name="Path 1553" class="cls-4" d="M217.5,1508.1l.9-1.6c.1-.1,0-.3-.1-.4s-.3,0-.4.1l-.9,1.6c-.1.1,0,.3.1.4C217.3,1508.3,217.4,1508.3,217.5,1508.1Z"/>
            <path id="Path_1554" data-name="Path 1554" class="cls-4" d="M269.3,1508.1c.1.1.3.2.4.1s.2-.3.1-.4l-.9-1.6c-.1-.1-.3-.2-.4-.1s-.2.3-.1.4Z"/>
            <path id="Path_1555" data-name="Path 1555" class="cls-4" d="M217.5,1535.9c-.1-.1-.3-.2-.4-.1s-.2.3-.1.4l.9,1.6c.1.1.3.2.4.1s.2-.3.1-.4Z"/>
          </g>
          <g id="Group_1778" data-name="Group 1778" class="cls-11" transform="translate(204.4 1497.8)">
            <ellipse id="Ellipse_311" data-name="Ellipse 311" class="cls-4" cx="39" cy="5.6" rx="39" ry="5.6"/>
          </g>
          <g id="Group_1779" data-name="Group 1779" class="cls-10">
            <path id="Path_1558" data-name="Path 1558" class="cls-3" d="M281.2,1502.7c0,2.7-16.9,4.9-37.8,4.9s-37.8-2.2-37.8-4.9,16.9-4.9,37.8-4.9C264.2,1497.8,281.2,1500,281.2,1502.7Z"/>
          </g>
        </g>
        <path id="Path_1560" data-name="Path 1560" class="cls-3" d="M246.1,1501.3a19.987,19.987,0,0,1,8.1,1.8,19.4,19.4,0,0,1,9.2-2.4h1.2c-3.6-4.3-7.1-8.9-7.1-17.2,0-2.7,3.8-8.7,4.9-9.8l5.5-5.5-18.2,18.2s-3.3,3.3-6.4,3.6c.9,3.2,1.4,7.7-1.1,11.5C243.4,1501.4,244.7,1501.3,246.1,1501.3Z"/>
        <path id="Path_1561" data-name="Path 1561" class="cls-3" d="M302.2,1593.4a18.931,18.931,0,0,1-37.7-3.5,19.376,19.376,0,0,1,3.1-8.8c.9-1.3-2.9-8-2.2-8.6s6.5,4,7.2,3.6a18.9,18.9,0,0,1,29.6,17.3Z"/>
        <g id="Group_1781" data-name="Group 1781">
          <path id="Path_1562" data-name="Path 1562" class="cls-4" d="M317.1,1462.5H317l-.2.2-.2.2-.2.2-.2.2-.2.1-.2.1-.1.1-.2.1-.2.2-.1.1-.2.2-.2.2-.2.1-.2.2-.2.2-.2.2-.2.2-.2.2-.2.3-.2.2-.2.3-.2.2-.2.2-.2.2-.2.2-.2.2h-.1v-.1l.1-.1.2-.1.2-.2.1-.1.2-.2.1-.1.1-.2.4-.5.1-.2.2-.2.2-.2.2-.2.2-.2.2-.2.2-.2.2-.3.2-.3.4-.4.1-.2.2-.1.2-.2.2-.2.1-.3.1-.2.1-.2.1-.2.1-.1h.4l.2.1.1.2v.4Zm3.2,1.5h-.1l-.1-.1-.2-.2-.2-.3-.3-.3-.4-.3-.5-.3-.4-.3-.4-.2-.3-.2-.4-.2-.3-.1-.2-.1h-.3l-.3-.1-.2-.1-.3-.2-.3-.2-.2-.3-.1-.2v-.4l.1-.1.2-.1h.4l.2.1.3.1.2.1.3.2.3.3.4.4.4.4.5.4.4.3.2.1.2.2.3.2.2.3.2.2.2.2.3.4.2.2.2.5-.2-.3Zm-2.7-4.4h-.1v-.1l.1-.1v.2Z"/>
          <path id="Path_1563" data-name="Path 1563" class="cls-4" d="M320.3,1470.8h0l-.2-.1-.1-.1-.1-.1-.2-.1h-.2l-.2-.1H319l-.2.1-.1.1-.1.1-.1.1-.2.1-.2.1-.2.1-.3.3-.1.1-.2.1-.1.1-.2.1-.1.1-.2.1h-.2l-.2-.1-.1-.1-.1-.1v-.1l.1-.1.1-.1.1-.1.2-.2.2-.2.1-.1.1-.1.2-.1.1-.1.2-.1.2-.1.2-.2.1-.1.1-.1.1-.1.1-.2.1-.2.1-.1.1-.1.1-.1h.2l.2.1.2.1.1.1.1.2-.1.1-.1.2-.2.2v.2l.1.1h.2l.2.1.2.1.2.1.2.1.2.1.1.1.1.2-.3-.3Z"/>
          <path id="Path_1564" data-name="Path 1564" class="cls-4" d="M321.6,1477.6h-.2l-.1-.1v-.2l.1-.1.1-.1.1-.2v-.1h-.1l-.1-.1h-.2l-.2-.1h-.2l-.2-.1-.2-.1-.2-.1-.1-.1-.1-.1v-.1l-.1-.2-.1-.2v-.2l.1-.2.1-.2.2-.2.2-.1.2-.1h.6l.2.1.2.2.1.2.2.1.2.1.3.1.1.1.1.1h.1l.1-.2.1-.2v-.4l-.1-.3-.1-.2h-.1l-.1-.1-.2-.1-.2-.1-.1-.1-.1-.2-.2-.1-.1-.2v-.4l.1-.1h.5l.2.1.2.1.3.1.2.1.3.3.2.2.1.2v.2l.1.2v.5l-.1.2-.1.2-.2.2-.2.3-.1.2-.2.1-.2.1-.2.2-.2.2-.4.4-.1.2-.1.2-.2.2Zm.6-1.6h0v-.3l-.1-.1-.1-.1-.1-.1-.2-.1-.1-.1-.1-.1h-.4l-.1.1h-.1l-.1.1-.1.1.1.2.1.2.2.1h.1l.1.1.3.1.2.1h.4l.2-.1Zm-.9,1.1h0l-.1-.1h.2Zm1.2-.2h0l-.1-.1h.1v.1Z"/>
          <path id="Path_1565" data-name="Path 1565" class="cls-4" d="M327.9,1481.1h-1.3l-.2.1h-.8l-.2.1h-.3l-.2.1-.2.1-.2.1h-.2l-.1.1-.1.1h-.3l-.1-.1v-.3l.1-.1.2-.2.2-.1.1-.2.1-.1.1-.2.2-.2.1-.2.2-.2.6-.7.2-.2.3-.3.1-.1.1-.2.1-.2.1-.2.1-.2.1-.2.1-.1.2-.1h.2l.2.1.1.2.1.2v.4l-.1.2-.1.2v.3l-.1.1-.2.1-.1.1h-.2l-.1.1-.2.1-.2.1-.1.2-.2.1-.1.1-.2.1-.2.1h-.2l-.1.1v.1h.3l.4-.1h.6l.1-.1h.8l.2.1h.6v.1l-.3.7Z"/>
          <path id="Path_1566" data-name="Path 1566" class="cls-4" d="M330,1487.7h-.2l-.2-.1-.2-.2-.2-.2-.2-.3-.2-.2-.2-.1-.2-.2-.1-.2-.1-.3-.1-.2-.1-.1-.1-.1h-.2l-.2.1-.1.1-.1.2-.2.4-.1.2v.7l.1.2.1.2.1.1.1.1.1.1v.1h-.1l-.1-.1-.2-.1-.2-.1-.2-.1-.1-.2-.1-.3-.1-.3v-.6l.1-.3v-.2l.1-.2.1-.2v-.1l.3-.3.2-.3.2-.2.2-.1.2-.1.3-.1h.7l.1.1.1.1h.3l.2.1.2.1.1.2.1.3.1.2.1.3v1.4l-.1.2-.1.2-.2.2Zm-2.1.3h0l-.1-.1h.1v.1Zm1.9-1.5.1-.2v-.4l-.1-.2-.1-.2-.1-.1-.2-.1-.2-.1-.1-.1-.2-.1-.1.1.1.1.1.1.1.2v.2l.1.2.1.2.1.2.1.1Z"/>
          <path id="Path_1567" data-name="Path 1567" class="cls-4" d="M336.7,1490.3h-.2l-.2.1h-.2l-.3.1-.2.1h-.2l-.2.1-.6.2h-.2l-.2.1-.3.1h-.2l-.3.1-.3.1-.4.1h-.4l-.1.1-.2.1h-.2l-.2.1-.2.1-.3.1-.2.1h-.3l-.6.2-.2.1-.2.1-.2.1-.1.1-.1.2-.1.1-.1.3h-.1v-.3l.1-.2.2-.3.2-.2.2-.1.2-.1.2-.1.2-.1.2-.1.2-.1h.3l.2-.1h.4l.2-.1.2-.1.3-.1h.2l.2-.1.2-.1.3-.1.3-.2.3-.1.3-.1.6-.3.3-.1.3-.1.2-.2.2-.2.3-.1.1-.2.1-.2.2-.1.2-.1.2.1.1.1.1.2.1.2v.4l-.1.2v.2l-.1.2Zm-5.1,2.3h0l-.1-.2h.2l-.1.2Z"/>
          <path id="Path_1568" data-name="Path 1568" class="cls-4" d="M341,1505.1h-.2l-.1-.1-.1-.1v-1.2l-.1-.2-.1-.2-.1-.2h-.1l-.1-.1-.3-.3-.2-.1-.2-.1h-.2l-.2-.1h-.2l-.3.1h-.9l-.3.1h-.2l-.1.1-.1.1v.3l.1.4v.8l.1.2v.2l-.1.1-.2-.2-.1-.5-.1-.4-.1-.5-.1-.2v-.3l-.1-.1h-.2l-.2-.1-.1-.1h-.2l-.2.1-.5.1-.4.1-.4.1-.4.1-.5.1-.4.1-.4.1-.2.2-.2.1h-.2l-.2-.1h-.1l-.1-.1v-.2l.2-.2.1-.2.2-.1.2-.1h.2l.2.1.4-.1.6-.2.5-.1.5-.1.3-.1.3-.2.4-.1.2-.1.4-.1.9-.3h.4l.9-.2.3-.1h.7l.2-.1h.7l.2.1.1.2v.3l.1.1v.1l.1.1.2.2.2.2.3.2.2.1.2.2.1.2v.5l-.1.2v.6l-.1.1v.2l-.1.1-.1.2v.2l-.1.1Z"/>
          <path id="Path_1569" data-name="Path 1569" class="cls-4" d="M334.2,1512.8l-.1-.1-.1-.1v-.4l-.1-.4-.1-.3-.1-.2-.1-.2-.1-.1-.2-.1h-.4l-.1-.1v-.2l.1-.1v-.1l-.1-.2-.1-.1-.1-.1-.1-.2-.1-.2v-.2l.1-.2.1-.2.2-.1.1-.2.1-.1h.3l.2.1.2.2.2.2.2.2.1.3v.4l.1.1v.1h.1l.3-.1h.2l.2-.1h.7l.3-.1h.4l.4-.1,1.2-.1.1-.1.2.1.5-.1.7-.1.2-.1h.2v-.2l-.1-.2v-.2l-.1-.5v-.2l-.1-.1-.1-.3v-.2l.1-.2.1-.1.1-.1h.2l.1.1.1.2v.2l-.1.2v1.6h.5l.2-.1h.2l.1.1.2-.1.1.1.1.2v.4l-.2.1h-.7l-.2-.1h-.1l-.1.1v1.3h-.1l-.1-.1v-.3l-.1-.2v-.3l-.1-.3-.1-.2-.1-.2h-.8l-.2.1h-.2l-.2.1h-.9l-.2-.1h-.7l-.3.1h-.4l-.9.1h-.3l-.3.1-.3.1v.6l-.1.3v.5l-.1.2v.4Zm.5.2h0l.1-.2.1.1-.2.1Z"/>
          <path id="Path_1570" data-name="Path 1570" class="cls-4" d="M340,1519.3l-.2-.1v-.2l.1-.2.1-.2.1-.2h.1l.1-.2.1-.1v-.7l-.1-.3-.1-.2-.3-.4-.2-.1-.3-.1h-.3l-.3.1-.2.1-.2.3-.2.2-.1.2-.2.2-.2.2-.3.4-.2.2-.2.2-.1.2h-.2l-.3.2-.2.1-.2.1-.3.1-.2.1h-.6l-.3-.2-.2-.1-.2-.2-.2-.1-.2-.2-.1-.2-.1-.3-.1-.4-.1-.3.1-.3v-.4l.1-.1v-.1h.2l.1.1v.1h-.2l-.1.1-.1.2v.7l.1.3.1.3.2.3.2.1.2.1.2.1.2.1h.2l.3.1h.2l.3-.1.2-.1.2-.1.2-.1.2-.1.1-.2.1-.1.1-.2.2-.2.1-.3.2-.2v-.2l.2-.2.2-.2.1-.1.1-.2.2-.2.2-.2.2-.1.3-.1h.5l.3.1.3.1.2.2.2.2.2.2.2.2.1.2.1.2v.6l.1.3.1.3.1.3.1.1v.3l-.1.1-.2.1-.1.1-.1.1-.2.1h-.2Zm-.3,0h-.1v-.3l.1-.1.1.1v.2Z"/>
          <path id="Path_1571" data-name="Path 1571" class="cls-4" d="M331.5,1522.7l-.1-.1.1-.2.1.1-.1.2Zm1.1,4.2h-.2l-.1-.1v-.2l.2-.2.2-.1.3-.1.3-.1h.6l.5-.1h.4l.2.1.1-.1h.9l.3.1h.6l.1-.3.1-.3v-.7l.1-.3v-.7l-.1-.1h-1l-.4-.1h-.4l-.2-.1h-.2l-.1-.1h-.2l-.3-.1-.1-.1H334l-.3-.1h-1.1l-.2.1h-.1v-.1l.1-.1h.1l.1-.1h1l.3.1.1-.1.2.1,2.2.2.2-.1.2.1.1-.1h.3l.2-.1.2-.2.2-.1h.1l.2.1.1.1v.2l.1.1h.3l.3.1h.7l.2.1.2.1.2-.1.2.1.2.1h.8l.2.1.1.2v.3l-.1.2-.2.3-.3.1-.3-.1-.3-.2-.3-.2-.4-.2-.5-.1h-.4l-.6-.1h-.2l-.1-.1-.1.1-.1.2-.1.3-.1.4-.1.4-.1.3v.3l-.1.2v.2h.2l.2.1.2-.1.3.1h.3l.4.1.4.1.4.1.3.1.3.1.3.1h.2l.2.1h.2l.2.1.1.1v.1h-.2l-.1-.1H341l-.3-.1-.2-.1-.4-.1-.4-.1h-.2l-.4-.1h-.2l-.2-.1-1-.1-.5-.1h-1.5l-.4-.1-.4-.1h-1.4l-.3.1h-.3l-.2.1Zm.7-.9h0v-.2h.1l.1.1-.2.1Z"/>
        </g>
        <g id="Group_1782" data-name="Group 1782">
          <path id="Path_1572" data-name="Path 1572" class="cls-4" d="M318.2,1489.1l-.2.1-.1.1-.2.1-.1.1h-.2l-.1.1h-.1l-.1.1h-.2l-.1.1h-.2l-.2.1h-1.5l-.2-.1-.1-.1-.1-.2-.1-.1-.1-.2-.1-.2v-.6l.1-.2.1-.1.1-.1.1-.1.2-.1.1-.1.1-.1.2-.1.2-.1.2-.1h.1l.1-.1.1-.1h.1l.2-.1.1-.1.2-.1h.2l.1-.1h.2l.2-.1.1-.1.1-.1h.5l.1.1.1.1.1.2v.5l-.1.1-.1.1h-.7l-.2.1h-.2l-.2.1-.2.1h-.2l-.2.1-.2.1h-.2l-.2.2-.3.2-.2.1-.1.1v.4l.1.2.1.1.1.1.2.2.2.1h.6l.1-.1h.9l.1-.1h.2l.1-.1.2-.1.2-.1h.2l.2-.1h.2l.2-.1.1-.1.1-.1h.1v-.1h.1l.1-.1h.4l.1.1h-.1l-.2.1-.1.1-.2.1Zm.1.3h0l-.1-.1.1-.1h.1l-.1.2Z"/>
          <path id="Path_1573" data-name="Path 1573" class="cls-4" d="M316.5,1494h-.1v-.2h.1l.1-.1h.1l.1-.1.1-.1h.1l.1-.1.1-.1.2-.1.3-.1.2-.2v-.4l-.1-.1-.1-.1h-1l-.1.1-.1.1-.2.1-.2.1-.1.1-.1.1-.1.1-.1.1h-.3l-.1-.1v-.3l.1-.1.1-.1.2-.1h.1l.1-.1.1-.1.1-.1.1-.1h.1l.1-.1.1-.1.1-.1.1-.1.5-.2.1-.1.1-.1v-.1l.1-.1.1-.1h.3l.1.1.1.1v.5l-.1.1v.1l.1.1.1.1.1.1.1.1.1.1.1.1v.2l-.1.1-.1.1-.1.1-.1.1-.1.1-.1.1-.1.1-.1.1-.1.1-.1.1-.1.1-.1.1h-.1l-.1.1-.1.1-.1.1-.1.1-.4-.2Zm-.3-.3h0v0Z"/>
          <path id="Path_1574" data-name="Path 1574" class="cls-4" d="M319.3,1495h0l-.1-.1h-.4l-.1.1h-.3l-.1.1-.2.1H318l-.1.1-.1.1-.1.1h-.1l-.1.1-.2.1h-.1l-.1.1-.1.1-.1.1h-.1l-.1.1h-.1l.1-.1.1-.1h.1l.1-.1h.1l.1-.1h.1l.1-.1h.1l.1-.1.2-.1h.1l.2-.1h.1l.1-.1h.1l.1-.1v-.2l.1-.1.1-.1.3-.1h.1l.1-.1h.1l.1-.1h.2l.1.1.1.1v.5l-.5-.1Zm1.7-.7h-.4l-.1.1v.1h-.3l-.1-.1-.1-.1v-.3l.1-.1.1-.1.1-.1h.4l.1.1.1.1.1.1.1.1.1.1-.2.1Zm0-.5h0l-.1-.1h.1v.1Z"/>
          <path id="Path_1575" data-name="Path 1575" class="cls-4" d="M320.7,1498.2h-.1l-.1-.1-.1-.1-.1-.1v-.1l-.1-.1-.1-.1v-.1l-.1-.1-.1-.1H319l-.5.2-.1.1h-.6l-.3.1-.1.1-.1.1v.4l.1.2h-.1l-.1-.1-.1-.2v-.4l.1-.2.1-.1.1-.1.1-.1.1-.1h.2l.2-.1.1-.1h.1l.1-.1.2-.1.1-.1h.3l.5-.2-.1-.1-.1-.1-.1-.1-.1-.1v-.3h.2l.1.1v.1l.1.1.1.1.1.1h.1l.1-.1h.1l.2-.1h.1l.1-.1.1-.1h.2l.1.1h.1l.1.1v.3h0l-.1.1h-.1l-.1.1h-.5v.2l.1.1.1.3v.4l.4.6Zm-.5.1h-.1v-.1h.1v.1Z"/>
          <path id="Path_1576" data-name="Path 1576" class="cls-4" d="M320.9,1501.6h-.1l-.1-.1-.1-.1-.1-.1-.1-.2-.1-.2-.1-.1-.1-.1-.1-.1-.1-.2v-.3l-.1-.1h-.1l-.2.1-.1.1-.1.1-.1.2-.1.1v.5l.1.1v.1l.1.1.1.1v.1h-.1l-.1-.1-.1-.1-.1-.1-.1-.1-.1-.1v-.6l.1-.2.1-.2v-.1l.1-.1.1-.1v-.1l.2-.2.2-.2.2-.1.1-.1h.8l.1.1v.1l.2.1.1.1.1.1.1.1.1.2.1.2v.4l-.1.6v.1l-.1.1-.1.1-.1.1Zm-1.4,0Zm1.3-.8h0l.1-.2v-.3l-.1-.1-.1-.1-.1-.1h-.1v.1l.1.2v.2l.1.2.1.1Z"/>
          <path id="Path_1577" data-name="Path 1577" class="cls-4" d="M324.9,1504.3h-1.4l-.2.1h-.5l-.3.1h-.2l-.4.2h-.2l-.2.1h-.7l-.3.1-.2.1-.5.2-.1.1v.1h-.1l-.1-.1v-.1l.1-.1h.1l.1-.1.3-.1.1-.1.1-.1h-.2l-.1-.1v-.1l-.1-.2v-.6l.1-.1v-.2l.1-.1.1-.1.1-.1.1-.1h.2l.2-.1h.6l.2.1.1.2.1.1.2.2v.8l.2-.1h.4l.4-.1.2-.1.2-.1h.5l.2-.1.2-.1.3-.2.2-.1h.3l.1.1v.2l-.1.2.1.2-.1.3Zm-4.1.2.3-.1.2-.1.1-.1h.2l.1-.1v-.3l-.1-.2-.2-.2-.2-.1h-.4l-.2-.1h-.1l-.1.1-.1.1-.1.1-.1.3v.3l.1.2v.3l.1-.1h0l.2-.1Zm1.7-1.3h-.2l-.1-.1h-.1l-.1.1-.1-.1v-.1l.1-.1h.6v.1l-.1.2Z"/>
          <path id="Path_1578" data-name="Path 1578" class="cls-4" d="M325.6,1510.4h-4.3l.1-.1h.4l.4-.1.1-.1h1.4l.2-.1.4-.1h.6l.2-.1.2-.1.1-.1h.3l.1.1v.2l-.1.1-.1.1Zm1,2.1h0v-.8l-.1-.3-.1-.3-.1-.3-.1-.3-.1-.2-.1-.2-.1-.2-.1-.2h-.1l-.1-.1-.1-.1-.1-.2-.1-.2v-.4l.1-.1.1-.1.1-.1h.2l.1.1.1.1.1.1.1.2.1.2.1.3v.7l.1.4.1.4.1.3v.3l.1.2v1.1l-.1.3-.1-.6Zm.4-3.4h0v0Z"/>
          <path id="Path_1579" data-name="Path 1579" class="cls-4" d="M323.8,1514.8h0v-.3l-.1-.1-.1-.1-.1-.1h-.1l-.1-.1h-1.6l-.1-.1v-.3l.1-.1h1.7l.1-.1.1-.1h.4l.1.1.1.1.1.1v.3h-.1l-.1.1h-.2v.1h0v.1l.1.1.1.1.1.1.1.1v.1l.1.1v.2l-.6-.3Z"/>
          <path id="Path_1580" data-name="Path 1580" class="cls-4" d="M322.1,1517.9h0l-.1-.1v-.1l.1-.1h.1l.1-.1h.1v-.1l-.1-.1-.1-.1-.1-.1-.1-.1-.1-.1-.1-.1v-.4l.1-.1.1-.1.1-.1.1-.1h.4l.1.1.1.1.1.1.1.1v.3l.1.1.1.2v.2h.1l.1-.1.1-.1.1-.2v-.5l-.1-.1-.1-.1v-.5l.1-.1h.2l.1.1.1.1.1.1.1.1.1.1.1.1.1.2v.3l-.1.1v.1l-.1.2-.1.1-.1.1-.2.1-.1.1-.2.1-.1.1h-.3l-.2.1h-.2l-.3.1h-.1l-.1.1h-.1Zm0-.3h0v0Zm.8-.3h0l.1-.2v-.3l-.1-.1v-.1l-.1-.1-.1-.1h-.1l-.1-.1h-.4v.3l.1.1v.1l.1.2.1.1.1.1.1.1h.3Zm-.1.6Z"/>
          <path id="Path_1581" data-name="Path 1581" class="cls-4" d="M322.3,1521.3h0l-.1-.2.1-.1h.8l.2-.1h.3l.2-.1.1-.1.1-.1.1-.1v-.3l-.1-.1-.1-.1-.2-.1h-.3l-.1-.1-.1-.1h-1.4v-.2h2.3l.1-.1h.5l.1.1.1.1v.2l-.1.1-.1.1-.1.1h-.2v.8l-.1.1-.1.1h-.3l-.1.1h-.9l-.1.1h-.1l-.1.1-.3-.1Zm-.1-.4h0v0Z"/>
          <path id="Path_1582" data-name="Path 1582" class="cls-4" d="M322.5,1524.3h-.2l-.1-.1-.1-.1-.1-.1v-.1l-.1-.1v-.5l.1-.1v-.1l.1-.2.1-.1.1-.1v-.1h.5l.1.1v.1h-.4l-.1.1-.1.1v.4l-.1.1v.3l.1.1.1.1.1.1h.3l.1-.1v-.1l.1-.1.1-.1.1-.2.1-.1.1-.1v-.3l.1-.1.1-.1.1-.1.1-.1h.4l.1.1.1.1.1.1h0l.1.1v.1h.1v.9l-.1.1-.1.1v.1l-.1.1h-.2l-.1-.1-.1-.1v-.6l-.1-.1-.1-.1-.1-.1h-.2l-.1.1v.1l-.1.1-.1.1-.1.1-.1.1v.2l-.1.1v.1l-.1.1-.1.1-.1.1h-.2Zm2.1-1.9h0v0Z"/>
          <path id="Path_1583" data-name="Path 1583" class="cls-4" d="M326.8,1527.5h0l-.2-.2v-.5l-.1-.1-.1-.1h-.1l-.1-.1-.2-.1-.2-.1h-1.2l-.1.1v.7l-.1.2-.1.1-.1.1v-.1l-.1-.4v-.1l-.1-.2v-.1l-.1-.2h-2l-.2-.1h-.2l-.2-.1h-.8l-.1-.1v-.1h.3l.3.1h.5l.1.1h.2l.2.1.2.1h.4l1.5.1v-.6l.2-.1h.3l.1.1.1.1v.4l.1.1h1.2l.2.1h.2l.2.1.1.1.1.1.1.1h.2l.1.1.1.1.1.1v.5l-.1.1v.1l-.2.2-.4-.7Z"/>
          <path id="Path_1584" data-name="Path 1584" class="cls-4" d="M323.1,1530.4l-.1-.1-.1-.1v-1.8l-.1-.1h-.3l-.1.1-.2.2-.1.1-.1.2-.1.1-.1.1v.6h0v-.1l-.1-.1-.1-.1v-.4l.1-.2.1-.1.1-.2.2-.2.1-.1.1-.1.1-.1v-.1l.3-.1.2-.1h.7l.1.1.1.1.1.1h0l.1.1v.1l.1.1.1.1.1.1v.6l-.1.2-.1.2-.3.5-.1.1-.1.1-.1.1h-.2Zm-1.2-.6Zm1.6-.2h0l.1-.2.1-.1v-.4l-.1-.1v-.1l-.1-.1h-.1v.9l.1.1Z"/>
          <path id="Path_1585" data-name="Path 1585" class="cls-4" d="M323.1,1533.4h0v-.3l-.1-.2-.1-.1v-.1l-.1-.1-.1-.1-.1-.1h-.2l-.1-.1h-.1l-.1-.1h-.5l-.1-.1h-.3l-.1-.1-.1-.1v-.3l.1-.1h1.7l.1-.1h.4l.1.1v.4l-.1.1h-.5v.1l.1.1v.6l-.1.1.3.5Z"/>
          <path id="Path_1586" data-name="Path 1586" class="cls-4" d="M321.1,1541.1l-.2-.1h-.1l-.3-.2-.2-.2-.1-.1-.1-.1-.1-.2-.1-.2-.1-.2v-.6l.1-.2.1-.4.1-.1.1-.2.3-.2.3-.2.3-.2.1-.1.2-.1.2-.1h.3l.3-.1h.3l.3.1.4.1.3.1.3.2.2.2.3.1.2.1.1.1.1.1v.2l.1.2v1.1l.1.2-.1.2-.1.3-.2.1-.1.1-.2.1-.4.1h-.1v-.1l-.2-.1v-.2l.2-.1.1-.2.2-.2.1-.2v-.8l-.1-.2-.1-.1-.2-.2-.3-.2-.3-.2-.2-.1-.2-.1h-.9l-.2.1-.5.3-.2.2-.1.1-.1.4v.7l.1.2.2.2.2.3v.2l.1.1v.1l-.1.1Z"/>
          <path id="Path_1587" data-name="Path 1587" class="cls-4" d="M323.6,1544h0l-.2-.1-.1-.1-.1-.1-.2-.1h-.1l-.1-.1-.2-.1-.4-.2-.1-.1h-.3l-.1-.1-.2-.1-.2-.1-.2-.1-.1-.1-.1-.1h-.2l-.1-.1-.1-.1h-.1l-.2-.1h-.1l-.1-.1-.4-.1h-.4l-.1.1H319l-.2.1h-.1v-.1l.1-.1.1-.1.2-.1h.9l.1.1.2.1.1.1.1.1h.1l.1.1h.2l.1.1h.3l.2.1h.2l.2.1.2.1.4.1.2.1h1.2l.1.1v.4l-.1.1-.1.1-.1.1-.1.1Zm-3.5-.8h0v0Z"/>
          <path id="Path_1588" data-name="Path 1588" class="cls-4" d="M317.8,1546.2h0l-.1-.1v-.2h.2l.1-.1h.7v-.1l-.1-.1-.1-.1-.1-.1-.1-.1-.1-.1v-.1l-.1-.1v-.6l.1-.1.1-.1.1-.1.1-.1h.1l.1-.1h.6l.1.1h.8l.1.1v.3l-.1.1-.1.1h-.4l-.1-.1-.1-.1h-.1l-.1-.1h-.7l-.1.1-.1.1-.1.1v.2l.1.1.1.1.1.1.1.1.1.1.1.1.2.1h.4l.1.1h.3l.1.1v.3h-.5l-.1-.1h-.1v-.1H319l-.2-.1H318l-.2.5Zm1.6-1-.2-.1-.1-.2.1-.1h.2l.1.1h.1v.2l-.1.1Z"/>
          <path id="Path_1589" data-name="Path 1589" class="cls-4" d="M318,1549.6l-.3-.1-.1-.1-.2-.1-.1-.2-.1-.1H317l-.1-.2v-.5l-.1-.2v-.3h.1v.1l.1.1v.2l.1.1v.1l.1.1.1.2.1.2.1.1.1.1.1.1.1.1h.2l.1-.1.1-.1.1-.1.1-.1.1-.1v-.1l.1-.2v-.1l-.1-.1-.1-.1-.1-.1-.2-.1-.1-.1-.1-.1-.1-.1-.1-.1-.2-.1-.1-.1-.1-.1-.1-.1-.3-.1-.1-.1h-.3v-.1h.2l.3.1h.2l.2.1.3.1.2.1.4.2h.1l.1-.1h.3l.1.1.1.1v.1l.1.1.1.2.1.1.2.1.2.1.2.1.2.1h.6l.2.1h.3l.1.1h.5l.1.1v.3l-.1.1-.1.1-.1.1-.1.1h-.1l-.2-.1h-.4l-.2-.1-.1-.1-.1-.1-.1-.1-.2-.1-.2-.2-.2-.1-.2-.1-.2-.1h-.2l-.1.1-.1.2-.1.2-.1.1-.1.1-.1.1-.1.1-.1.1-.2.1-.1.1h0Zm-.9-2.1h0v0Z"/>
        </g>
        <g id="Group_1783" data-name="Group 1783">
          <path id="Path_1590" data-name="Path 1590" class="cls-12" d="M285.1,1585.1l-.1.2v.2l-.1.2-.5.3-.5.2h-.5l-.1.1-.3.1-.6.2-.4.1h-1.3l-2.8.2-.5.1-.5.2-.1.3-.1.6-.2.6v.3l-.1.6v.5l.1.6.1.2.4.1.3.1h.5l.3.1.3-.1.4.2.6.1.5.1.7.3.6.3.5.6.3.4.1.3.3.5.1.3.2.3v.3l.3.2.1.6v.6l-.2.6-.3.4-.1.2-.2.2-.3.6-.5.6-.4.5-.4.3-.6.5-.4.2-.6.2-.7.3-.4.1h-.4l-.7.1-.7-.1-.6-.3-.4-.3-.2-.3v-.4l-.1-.2.1-.1v-.1l.2-.1.3.2.2.3.3.3.3.1.6.1.6-.1.4-.1.5-.1.5-.3.5-.2.4-.4.5-.4.5-.6.3-.6.5-.5.3-.4.2-.3.1-.3v-.3l-.1-.5-.3-.4-.3-.6-.3-.5-.4-.4-.2-.2-.3-.1-.5-.1h-.7l-.7-.2h-1.6l-.6.1-.4-.1-.4-.2-.3-.4-.1-.6-.2-.7v-2l.1-.7v-.6l-.3-.2-.3-.4v-.7l.2-.4v-.1l.1-.3-.1-.4v-.4l.2-.3.4-.2.4-.1.3-.1.6.1.6.3.5.2.4.2.8.2.6.2.6.1.6.1h.7l.6-.1h.5l.6.1h.6l.5-.1.5-.1.5.1.3.1Zm.4,0-.2.1-.1-.1.1-.1.2-.1Z"/>
        </g>
        <g id="Group_1784" data-name="Group 1784">
          <path id="Path_1591" data-name="Path 1591" class="cls-12" d="M289.5,1590.7h0l-.1.2H289l-.2.1h-.4l-.3.1h-.2l-.2.1-.1.1-.1.1v.3l-.1.1v.4l-.1.3v1.6l-.1.2v.5l.1.5.1.1.1.2.1.1.3.1h.4l-.1.1-.2.1h-.5l-.2-.1-.2-.1-.2-.1-.2-.2-.1-.2v-.2l-.1-.2-.1-.2v-1l-.1-.3v-.7l.1-.2v-.9h-.2l-.2.1-.2.1-.1.1h-.2l-.1-.1v-.2l.1-.1.1-.1h.7v-1.2l-.1-.2v-.1l.1-.2.2-.1.1-.1.2-.1h.2l.1.1.2.1.1.1.1.1v.1l.1.2v.3l-.1.1v.2l-.1.1v.1l.1.1h1.3l.2.1h.1Zm-.2.8-.1.1H289v-.1h.3Z"/>
          <path id="Path_1592" data-name="Path 1592" class="cls-12" d="M296.1,1594.8v.2l-.1.1h-.2l-.1-.1.2-.1v-.3l-.1-.3v-.3l-.1-.5v-.2l-.2-.2v-.3l-.1-.2v-.2l-.1-.2-.1-.1-.1-.1-.1-.2v-.2l-.2-.2-.1-.1h-.2l-.3.1-.1.1-.2.3-.1.4-.1.2-.1.1v1.6l.1.5v.8l-.1.1-.1.2h-.2l-.1-.1-.1-.1.1-.2v-.7l-.1-.2.1-.2-.1-.2v-.3l-.1-.3v-.4l-.1-.6v-.6l-.1-.3v-.6l-.1-.1-.1-.5v-.4l-.1-.2v-.3l-.1-.3v-.6l-.1-.1.1-.1v-.2l-.1-.2v-.3l-.1-.1v-.1l-.1-.3-.1-.3v-.2l.1-.2.1-.2h.1l.1-.1.1-.2.2-.1h.4l.2.1.2.2.1.2v.3l-.1.2-.1.2-.1.3v1l-.1.3.1.2v1.9l.2-.2.2-.2.4-.1h.7l.3.1.3.2.2.3.1.2.1.4.1.3v2.8Z"/>
        </g>
      </g>
    </g>
  </g>
</svg>
