<svg xmlns="http://www.w3.org/2000/svg" xmlns:xlink="http://www.w3.org/1999/xlink" viewBox="0 0 388 388">
  <defs>
    <style>
      .cls-1, .cls-4 {
        opacity: 0.5;
      }

      .cls-2 {
        clip-path: url(#clip-path);
      }

      .cls-3 {
        fill: #eeeeef;
      }

      .cls-5 {
        clip-path: url(#clip-path-2);
      }

      .cls-6 {
        fill: url(#radial-gradient);
      }

      .cls-7 {
        fill: #f7f7f7;
      }

      .cls-13, .cls-14, .cls-7, .cls-9 {
        stroke: #ffe259;
      }

      .cls-10, .cls-11, .cls-12, .cls-13, .cls-14, .cls-15, .cls-7, .cls-8, .cls-9 {
        stroke-miterlimit: 10;
      }

      .cls-10, .cls-7, .cls-8, .cls-9 {
        stroke-width: 4.402px;
      }

      .cls-11, .cls-12, .cls-13, .cls-14, .cls-15, .cls-8 {
        fill: none;
      }

      .cls-10, .cls-12, .cls-15, .cls-8 {
        stroke: #61875f;
      }

      .cls-9 {
        fill: #dddd7f;
      }

      .cls-10 {
        fill: #ffe259;
      }

      .cls-11 {
        stroke: #fccf14;
        stroke-width: 0.44px;
      }

      .cls-12, .cls-13 {
        stroke-width: 3.861px;
      }

      .cls-14 {
        stroke-width: 1.235px;
      }

      .cls-15 {
        stroke-width: 1.374px;
      }
    </style>
    <clipPath id="clip-path">
      <rect id="Rectangle_808" data-name="Rectangle 808" width="388" height="388" transform="translate(469.5 1275.5)"/>
    </clipPath>
    <clipPath id="clip-path-2">
      <path id="Path_2008" data-name="Path 2008" class="cls-1" d="M562.6,1608.3l201.8-283.8,105.7,87.7-19.3,212.6-90,24Z" transform="translate(-510.4 -1307.8)"/>
    </clipPath>
    <radialGradient id="radial-gradient" cx="155.826" cy="155.85" r="155.77" gradientUnits="userSpaceOnUse">
      <stop offset="0.286" stop-color="#d0991d"/>
      <stop offset="0.567" stop-color="#fccf14" stop-opacity="0.757"/>
      <stop offset="0.613" stop-color="#fddd5a" stop-opacity="0.569"/>
      <stop offset="0.671" stop-color="#feedad" stop-opacity="0.325"/>
      <stop offset="0.712" stop-color="#fff7e2" stop-opacity="0.153"/>
      <stop offset="0.733" stop-color="#fffbf6" stop-opacity="0.071"/>
      <stop offset="0.922" stop-color="#fffdfb" stop-opacity="0.02"/>
    </radialGradient>
  </defs>
  <g id="_007" data-name="007" transform="translate(-469.5 -1275.5)">
    <g id="Group_2138" data-name="Group 2138" class="cls-2">
      <rect id="Rectangle_807" data-name="Rectangle 807" class="cls-3" width="384.7" height="384.7" transform="translate(471.3 1276.3)"/>
      <g id="Group_2134" data-name="Group 2134" class="cls-4">
        <g id="Group_2133" data-name="Group 2133" class="cls-5" transform="translate(510.4 1307.8)">
          <circle id="Ellipse_437" data-name="Ellipse 437" class="cls-6" cx="155.8" cy="155.8" r="155.8"/>
        </g>
      </g>
      <path id="Path_2009" data-name="Path 2009" class="cls-7" d="M608.8,1543.1c42.5,30.1,102.5,21.4,132.6-21.1s19-102.6-23.5-132.8"/>
      <path id="Path_2010" data-name="Path 2010" class="cls-8" d="M723.9,1381.5c-42.5-30.1-102.6-22-132.8,20.5-30.1,42.5-18.8,103.2,23.7,133.3"/>
      <path id="Path_2011" data-name="Path 2011" class="cls-9" d="M723.9,1381.5a90.864,90.864,0,0,0-18.5-10.2"/>
      <path id="Path_2012" data-name="Path 2012" class="cls-10" d="M608.8,1543.3a97.305,97.305,0,0,0,14.2,8.3"/>
      <line id="Line_232" data-name="Line 232" class="cls-11" x1="201.8" y2="283.8" transform="translate(559.4 1329.3)"/>
      <path id="Path_2013" data-name="Path 2013" class="cls-12" d="M794.8,1277.3H856V1662H509.2"/>
      <path id="Path_2014" data-name="Path 2014" class="cls-13" d="M509.2,1662H471.3V1277.3H794.8"/>
      <g id="Group_2135" data-name="Group 2135">
        <path id="Path_2015" data-name="Path 2015" class="cls-14" d="M726.8,1552.1l4,2.9a4.941,4.941,0,1,0-6.9,1.1,4.767,4.767,0,0,0,3.2.9"/>
        <path id="Path_2016" data-name="Path 2016" class="cls-14" d="M760.4,1576.3l4,2.9a4.941,4.941,0,1,0-6.9,1.1,4.767,4.767,0,0,0,3.2.9"/>
        <circle id="Ellipse_438" data-name="Ellipse 438" class="cls-14" cx="4.9" cy="4.9" r="4.9" transform="translate(729.629 1560.21) rotate(-54.249)"/>
        <circle id="Ellipse_439" data-name="Ellipse 439" class="cls-14" cx="4.9" cy="4.9" r="4.9" transform="matrix(0.584, -0.812, 0.812, 0.584, 738.725, 1566.724)"/>
        <line id="Line_233" data-name="Line 233" class="cls-14" y1="14.8" x2="10.6" transform="translate(729.6 1545.4)"/>
        <line id="Line_234" data-name="Line 234" class="cls-14" y1="10.2" x2="7.4" transform="translate(751 1565.4)"/>
        <line id="Line_235" data-name="Line 235" class="cls-14" y1="8.3" x2="5.9" transform="translate(746.7 1564.2)"/>
        <line id="Line_236" data-name="Line 236" class="cls-14" x2="4.1" y2="2.9" transform="translate(754.9 1565.9)"/>
      </g>
      <g id="Group_2137" data-name="Group 2137">
        <line id="Line_237" data-name="Line 237" class="cls-15" x1="2.6" y2="4" transform="translate(574 1342.9)"/>
        <g id="Group_2136" data-name="Group 2136">
          <path id="Path_2017" data-name="Path 2017" class="cls-15" d="M608.8,1369.7l-3.9-2.6a4.687,4.687,0,1,0,6.5-1.3,4.453,4.453,0,0,0-3.1-.7"/>
          <path id="Path_2018" data-name="Path 2018" class="cls-15" d="M600.3,1364.1a2.316,2.316,0,1,1,3.2-.7"/>
          <path id="Path_2019" data-name="Path 2019" class="cls-15" d="M600.3,1364.1a2.316,2.316,0,1,1-3.2.7"/>
          <circle id="Ellipse_440" data-name="Ellipse 440" class="cls-15" cx="4.7" cy="4.7" r="4.7" transform="matrix(0.549, -0.836, 0.836, 0.549, 581.884, 1357.699)"/>
          <path id="Path_2020" data-name="Path 2020" class="cls-15" d="M581.8,1352a4.687,4.687,0,1,1-7.8-5.2"/>
          <path id="Path_2021" data-name="Path 2021" class="cls-15" d="M589.5,1346a4.687,4.687,0,1,1,7.8,5.2"/>
          <line id="Line_238" data-name="Line 238" class="cls-15" x1="4.1" y2="6.1" transform="translate(593.6 1356.8)"/>
          <line id="Line_239" data-name="Line 239" class="cls-15" x1="0.4" y2="0.5" transform="translate(592.5 1364.1)"/>
          <line id="Line_240" data-name="Line 240" class="cls-15" x1="5.2" y2="7.8" transform="translate(579.2 1348.1)"/>
          <line id="Line_241" data-name="Line 241" class="cls-15" x1="7.8" y2="11.9" transform="translate(581.7 1346)"/>
        </g>
      </g>
    </g>
  </g>
</svg>
