<svg xmlns="http://www.w3.org/2000/svg" xmlns:xlink="http://www.w3.org/1999/xlink" viewBox="0 0 388 174">
  <defs>
    <style>
      .cls-1 {
        clip-path: url(#clip-path);
      }

      .cls-2 {
        fill: #e1dcd3;
      }

      .cls-3 {
        clip-path: url(#clip-path-2);
      }

      .cls-4, .cls-6, .cls-7 {
        opacity: 0.2;
      }

      .cls-5 {
        fill: #995c42;
      }

      .cls-11, .cls-15, .cls-16, .cls-7 {
        fill: none;
      }

      .cls-7 {
        stroke: #000;
      }

      .cls-15, .cls-7 {
        stroke-linecap: round;
        stroke-linejoin: round;
        stroke-width: 1.994px;
      }

      .cls-11, .cls-15, .cls-7 {
        stroke-miterlimit: 10;
      }

      .cls-8 {
        fill: #8ea095;
      }

      .cls-9 {
        fill: #525653;
        opacity: 0.3;
      }

      .cls-10 {
        fill: #78827b;
        opacity: 0.1;
      }

      .cls-11 {
        stroke: #444945;
        stroke-width: 1.353px;
      }

      .cls-12 {
        fill: #6e8473;
        opacity: 0.5;
      }

      .cls-13 {
        fill: #616b63;
      }

      .cls-14 {
        fill: #bac6be;
      }

      .cls-15 {
        stroke: #995c42;
      }

      .cls-17 {
        fill: #262626;
      }
    </style>
    <clipPath id="clip-path">
      <rect id="Rectangle_810" data-name="Rectangle 810" width="388" height="174"/>
    </clipPath>
    <clipPath id="clip-path-2">
      <rect id="Rectangle_811" data-name="Rectangle 811" width="388" height="174" transform="translate(873.5 2007.5)"/>
    </clipPath>
  </defs>
  <g id="_010" data-name="010" transform="translate(-1140.418 -2232)">
    <g id="Group_2174" data-name="Group 2174" transform="translate(266.918 224.5)">
      <g id="Group_2169" data-name="Group 2169" class="cls-1" transform="translate(873.5 2007.5)">
        <rect id="Rectangle_809" data-name="Rectangle 809" class="cls-2" width="388" height="174"/>
      </g>
      <g id="Group_2173" data-name="Group 2173" class="cls-3">
        <path id="Path_2071" data-name="Path 2071" class="cls-4" d="M1085.2,2064s19.7,13.2,19.7,26.8c0,12.4-8.2,35.3-3,39.4.3.3.3.9.4,1.3.5,2.6,1,4.9,2.1,4.2,3.2-2.4,10.7-4.9,16.2-1.9,1.4.8-2.1,2.8-2.8,4.3-.3.6-.9,1.4-1.3,2.1-.1.2-.4.8-.9.8-.4,0-.6.2-.5.6a.5.5,0,0,1-.2.6c-3.2,4-7.9,8.4-7.8,14.2,0,1.6-.6,4.6-1.7,4.5-1.3-.1-2.6-3.2-2.7-5-.4-9.2-2.7-9.8-11.6-11.7-12.2-2.7-22-15.7-24.6-30.6-2.4-14.2-11.5-20.8-14.6-29-2.2-5.7,15.2,10.3,18.4,1.6,2.3-6,1.1-14.3,1.1-20.4,0-2.6.4-1.6,2.4-3.1C1075.8,2061,1082.8,2061.6,1085.2,2064Z"/>
        <g id="Group_2170" data-name="Group 2170">
          <path id="Path_2072" data-name="Path 2072" class="cls-5" d="M1038.2,2049.1l8.2,11.8,8.2,11.9c2.7,4,5.6,7.8,8.1,11.9s5,8.2,7.2,12.5l-.2.1c-3.1-3.7-5.9-7.6-8.7-11.5s-5.2-8.1-7.7-12.1l-7.7-12.2-7.6-12.3Z"/>
        </g>
        <g id="Group_2171" data-name="Group 2171" class="cls-6">
          <path id="Path_2073" data-name="Path 2073" d="M1041.4,2048.3l8.2,11.8,8.2,11.9c2.7,4,5.6,7.8,8.1,11.9s5,8.2,7.2,12.5l-.2.1c-3.1-3.7-5.9-7.6-8.7-11.5s-5.2-8.1-7.7-12.1l-7.7-12.2-7.6-12.3Z"/>
        </g>
        <line id="Line_242" data-name="Line 242" class="cls-7" x2="45.4" y2="69" transform="translate(1108 2149.9)"/>
        <path id="Path_2074" data-name="Path 2074" class="cls-8" d="M1083.1,2066.1s15.6,13.5,12.7,26c-2.8,12-1.8,36.6,3.4,40.7a1.524,1.524,0,0,1,.6,1.1c.5,2.6,2.7,4.1,3.7,3.3,3.2-2.4,9.3-5,14.8-1.9,1.4.8-2,1.1-2.7,2.5-.3.6-.4,2.3-.9,2.9-.1.2-.7.2-1.1.2a.641.641,0,0,0-.6.8c.1.4.2.9.1,1-3.2,4-7.4,8.8-7.3,14.6,0,1.6.2,3.7-.9,3.6-1.3-.1-3.9-2.7-4-4.5-.4-9.2-2.7-9.8-11.6-11.7-12.2-2.7-22-15.7-24.6-30.6-2.4-14.2-9.9-21.3-13-29.6-2.2-5.7,12,13.3,15.2,4.7,2.3-6,2.6-16.8,2.7-22.9a4.053,4.053,0,0,1,4.7-4.1A15.574,15.574,0,0,1,1083.1,2066.1Z"/>
        <path id="Path_2075" data-name="Path 2075" class="cls-9" d="M1077.3,2101.8s-1.1,5.7,3.8,7.5c2.3.8-3.6,4.5-8.4,5.2-.9.1-3-1.5-2.5-2.3,1.2-2.1,3.6-5.1,1.9-8.9"/>
        <path id="Path_2076" data-name="Path 2076" class="cls-9" d="M1077.3,2101.8s-.6,5.6,2.9,7.3c2.1,1-3.5,3.8-7.9,4.4-.8.1-1.7-1.1-1.3-1.8,1.1-1.9,2.7-4.9,1.1-8.3"/>
        <path id="Path_2077" data-name="Path 2077" class="cls-8" d="M1077.3,2101.8s-.9,4.8,2.2,7.1c2.2,1.7-3.8,3.2-7.2,3.9-.7.2-1.3-.7-.9-1.4a8.553,8.553,0,0,0,.7-8.1"/>
        <path id="Path_2078" data-name="Path 2078" class="cls-10" d="M1094,2142.2a2.993,2.993,0,0,1-1,.4c-1.5.2-5.5,1-7.3-1.2-2.2-2.7-1.1-5.2.4-7-.8,1.1-2.9,5.9,1.5,5.8,2.8-.1,4.4-.4,5.2-1.1a1.668,1.668,0,0,1,2.2.2c.4.5.6,1.1.4,1.4C1095.2,2141.3,1094.4,2141.8,1094,2142.2Z"/>
        <path id="Path_2079" data-name="Path 2079" class="cls-10" d="M1091.4,2143.6a3.592,3.592,0,0,1-1.1.2c-1.5-.1-5.8-.1-6.7-2.5a5.34,5.34,0,0,1,2.1-6.7c-1.2.9-4.2,5.2.1,5.9,2.8.5,4.4.4,5.5-.1a1.612,1.612,0,0,1,2.1.6,1.527,1.527,0,0,1-.1,1.5A8.631,8.631,0,0,1,1091.4,2143.6Z"/>
        <path id="Path_2080" data-name="Path 2080" class="cls-10" d="M1090.9,2142.5a1.645,1.645,0,0,1-1,.1c-1.4-.1-5.1-.1-6-2.2a4.768,4.768,0,0,1,1.9-6c-1.1.8-3.7,4.6.1,5.2,2.5.4,4,.4,4.9-.1a1.5,1.5,0,0,1,1.9.6c.1.5.2,1-.1,1.3A4.52,4.52,0,0,1,1090.9,2142.5Z"/>
        <line id="Line_243" data-name="Line 243" class="cls-11" x2="10.7" y2="10.5" transform="translate(1077 2078.6)"/>
        <line id="Line_244" data-name="Line 244" class="cls-11" y1="9.9" x2="8.6" transform="translate(1077.9 2079.4)"/>
        <path id="Path_2081" data-name="Path 2081" class="cls-12" d="M1092.1,2076.8s-3.7,6.2-2.1,9-2.5,4.5-1.5,9.6-1,10.9-1.5,16.1.3,17.4,3,18.6,9,1.7,9.8,3.7-4.8-14.9-4.8-14.9l.6-29.3s1.2-2.4-.3-6.1A64.177,64.177,0,0,0,1092.1,2076.8Z"/>
        <path id="Path_2082" data-name="Path 2082" class="cls-13" d="M1099.5,2089s-2.1,9.1-2.5,11.5c-.3,2.4-.2,14.2.6,16.1.7,1.9.6,7.8,1.7,8.6s-3.8,4.9-3.8,4.9-4.5-9.3-4.5-13.9,2.5-23.9,2.7-25.3c.1-.7.3-2.4.4-3.9a1.421,1.421,0,0,1,2.4-.9Z"/>
        <path id="Path_2083" data-name="Path 2083" class="cls-14" d="M1059,2097.5s3.7-.2,4.5,4.3c.8,4.6,5,18.2,9.5,21.6s5.7,15.6,3.9,14.4-5.8-6.1-8.2-10.1c-3-5-4.3-15.2-5.1-18.8C1062.7,2105.3,1059,2097.5,1059,2097.5Z"/>
        <path id="Path_2084" data-name="Path 2084" class="cls-8" d="M1072.2,2129.1s-3.6,6.5-.9,8.4,2.7.6,2.3-1.7-.7-5,0-5C1074.2,2130.9,1072.2,2129.1,1072.2,2129.1Z"/>
        <line id="Line_245" data-name="Line 245" class="cls-7" x2="4" y2="5.9" transform="translate(1102.7 2144.4)"/>
        <line id="Line_246" data-name="Line 246" class="cls-15" x2="49.3" y2="75" transform="translate(1100.9 2144.7)"/>
        <g id="Group_2172" data-name="Group 2172">
          <path id="Path_2085" data-name="Path 2085" class="cls-16" d="M1100.9,2144.7"/>
        </g>
      </g>
    </g>
    <g id="Group_2175" data-name="Group 2175" class="cls-6" transform="translate(266.918 224.5)">
      <path id="Path_2086" data-name="Path 2086" class="cls-17" d="M936.1,2106c-.1,0-.1-.1-.2-.2l-.9-.9q-.6.6-.9.6c-.2,0-.3-.1-.4-.3,0-.1-.1-.1-.1-.2a.6.6,0,0,1,.1-.4l.3-.3a9.7,9.7,0,0,0,1.6-2.8,2.189,2.189,0,0,1,.3-.5l-1.5.1h-.1c-.4,0-.6-.2-.6-.7,0-.4.2-.6.5-.6l8.8-.5h0a.53.53,0,0,1,.6.6c0,.5-.2.7-.5.7l-6.6.4a.51.51,0,0,1,.4.5,2.3,2.3,0,0,1-.3.9l.9-.1h.2c.6,0,.9.3.9.8a4.515,4.515,0,0,1-.3,1.3,9.063,9.063,0,0,1-3.7,4.5c-.2.1-.3.2-.5.2a.52.52,0,0,1-.4-.2.368.368,0,0,1-.1-.3.723.723,0,0,1,.4-.6A5.8,5.8,0,0,0,936.1,2106Zm.7-1a6.114,6.114,0,0,0,.5-1.2c0-.1.1-.2.1-.3s-.1-.1-.2-.1h-.1l-.9.1c-.2.2-.4.5-.6.7A11.875,11.875,0,0,1,936.8,2105Zm3.9,0v2.1c0,.2.1.4.2.4a3.532,3.532,0,0,0,.6.1c.6,0,1-.1,1.1-.3a2.75,2.75,0,0,0,.2-1.3c0-.4.2-.5.4-.5a.51.51,0,0,1,.5.4,4.44,4.44,0,0,1,.2,1.3c0,.3.1.5.1.7a1,1,0,0,1-.6,1,8.749,8.749,0,0,1-2,.2,4.877,4.877,0,0,1-1.5-.2,1.209,1.209,0,0,1-.6-1.2v-6.1a.55.55,0,0,1,.3-.5.6.6,0,0,1,.4-.1.9.9,0,0,1,.5.1c.2.1.2.3.2.5v2.2a10.093,10.093,0,0,0,1.6-1.3c.2-.2.3-.3.5-.3s.3.1.5.2a.864.864,0,0,1,.3.6.764.764,0,0,1-.2.5,7.419,7.419,0,0,1-1.6,1C941.4,2104.7,941.1,2104.8,940.7,2105Z"/>
      <path id="Path_2087" data-name="Path 2087" class="cls-17" d="M949.3,2106.4a5.925,5.925,0,0,1,.4-.8c.1-.2.2-.3.4-.3h.2c.2.1.2.2.2.4a.368.368,0,0,1-.1.3,5.345,5.345,0,0,0-.6,1.6c-.2.5-.4.8-.8.8a.73.73,0,0,1-.7-.6,7.392,7.392,0,0,1-.4-3,31.477,31.477,0,0,1,.3-4,2.639,2.639,0,0,0,.1-.7c.1-.3.3-.4.7-.4a.749.749,0,0,1,.5.1c.2.1.2.3.2.5a1.338,1.338,0,0,1-.1.5c-.1.6-.2,1.4-.3,2.5,0,.5-.1,1-.1,1.5A10.378,10.378,0,0,1,949.3,2106.4Zm2.9-1.1c.2,0,.3.1.5.3a1.532,1.532,0,0,0,.7.5,4.991,4.991,0,0,0,1.9.2h.7a1.423,1.423,0,0,1,.6.2.764.764,0,0,1,.2.5c0,.5-.3.8-.9.8a9.005,9.005,0,0,1-2.5-.3,3.391,3.391,0,0,1-1.4-.9c-.2-.3-.4-.5-.4-.7a.764.764,0,0,1,.2-.5C951.9,2105.4,952,2105.3,952.2,2105.3Zm3.1-3.3a9.722,9.722,0,0,0-2.7.5c-.1,0-.2.1-.3.1a.548.548,0,0,1-.6-.4v-.2a.634.634,0,0,1,.5-.6c.4-.1.8-.3,1.3-.4a6.171,6.171,0,0,1,1.8-.2,1.082,1.082,0,0,1,.6.1c.4.1.5.3.5.7,0,.2-.1.3-.2.5a.763.763,0,0,1-.5.2Z"/>
      <path id="Path_2088" data-name="Path 2088" class="cls-17" d="M963,2101.1a12.446,12.446,0,0,0,.4-1.6.661.661,0,0,1,.7-.6c.5,0,.8.2.8.6a6.962,6.962,0,0,1-.3,1.4c.5-.1.9-.1,1.2-.2h.3a.55.55,0,0,1,.5.3.6.6,0,0,1,.1.4.634.634,0,0,1-.5.6c-.5.1-1.1.2-2,.3v.1l-.2.7c-.8,2.3-1.3,3.9-1.7,4.7-.1.2-.1.3-.2.3a.842.842,0,0,1-.7.4c-.2,0-.3,0-.4-.1a.6.6,0,0,1-.3-.6,3.927,3.927,0,0,1,.2-.6c.4-.8.8-1.8,1.3-3.1a2.546,2.546,0,0,0,.2-.7,3.259,3.259,0,0,0,.3-1,7.167,7.167,0,0,1-1.3.1.55.55,0,0,1-.5-.3.6.6,0,0,1-.1-.4.632.632,0,0,1,.7-.7C961.8,2101.3,962.3,2101.2,963,2101.1Zm2.4,5.1c.2,0,.3.1.5.2a3.236,3.236,0,0,0,2.5.8h.3a.9.9,0,0,1,.5.1.6.6,0,0,1,.3.6.764.764,0,0,1-.2.5c-.1.2-.4.2-.7.2a5.87,5.87,0,0,1-2.3-.4,2.287,2.287,0,0,1-1.3-1,.756.756,0,0,1-.1-.4.519.519,0,0,1,.2-.4C965.1,2106.3,965.2,2106.2,965.4,2106.2Zm2.5-3.2a2.812,2.812,0,0,1,1.1.1.666.666,0,0,1,.5.7.519.519,0,0,1-.2.4.763.763,0,0,1-.5.2h-1a17.668,17.668,0,0,0-1.9.2h-.2a.462.462,0,0,1-.5-.3c0-.1-.1-.2-.1-.3a.723.723,0,0,1,.4-.6,3.493,3.493,0,0,1,1.2-.3C967.1,2103.1,967.5,2103,967.9,2103Z"/>
      <path id="Path_2089" data-name="Path 2089" class="cls-17" d="M974.2,2100.7a.67.67,0,0,1,.7.4.75.75,0,0,1,.1.5,11.753,11.753,0,0,0,.5,3.7,4.669,4.669,0,0,0,.5,1,.1.1,0,0,0,.1.1l.2-.2a5.763,5.763,0,0,1,.5-.9.55.55,0,0,1,.5-.3.367.367,0,0,1,.3.1.55.55,0,0,1,.3.5,1.087,1.087,0,0,1-.1.5,8.8,8.8,0,0,0-.6,1.7c-.2.5-.4.7-.8.7-.5,0-1.1-.5-1.6-1.4a10.193,10.193,0,0,1-1.1-5.3.778.778,0,0,1,.3-.7C973.9,2100.7,974.1,2100.7,974.2,2100.7Zm6.1,0a1.33,1.33,0,0,1,.7.3,17.064,17.064,0,0,1,1.1,1.4,4.751,4.751,0,0,1,1,2.2.8.8,0,0,1-.9.8.864.864,0,0,1-.6-.3c-.1-.1-.1-.2-.2-.5a11.08,11.08,0,0,0-1.6-3c-.1-.2-.2-.3-.2-.4a.6.6,0,0,1,.1-.4C979.9,2100.8,980.1,2100.7,980.3,2100.7Z"/>
      <path id="Path_2090" data-name="Path 2090" class="cls-17" d="M991.9,2101.2a1.483,1.483,0,0,1,.1.7,8.725,8.725,0,0,1-.5,2.3c-.8,2.3-1.8,3.4-3,3.4a1.574,1.574,0,0,1-1.3-.7,3.566,3.566,0,0,1-.8-2.3,4.127,4.127,0,0,1,1.2-2.8,4.644,4.644,0,0,1,2-1.3,6.873,6.873,0,0,1,2.4-.5,4.278,4.278,0,0,1,2.8.9,3.9,3.9,0,0,1,1.4,3,4.27,4.27,0,0,1-1,2.9,4.828,4.828,0,0,1-2,1.4,1.086,1.086,0,0,1-.5.1.55.55,0,0,1-.5-.3.349.349,0,0,0-.1-.2.51.51,0,0,1,.4-.5,3.773,3.773,0,0,0,2.2-3.3,2.94,2.94,0,0,0-.9-2.2,2.716,2.716,0,0,0-1.7-.6h-.2Zm-1.4.3a4.262,4.262,0,0,0-2,1.4,2.716,2.716,0,0,0-.6,1.7,2.5,2.5,0,0,0,.3,1.3c.1.2.3.4.4.4.3,0,.7-.4,1.1-1.3a7.962,7.962,0,0,0,.7-2,5.757,5.757,0,0,0,.2-1v-.3c0-.1,0-.2-.1-.2Z"/>
      <path id="Path_2091" data-name="Path 2091" class="cls-17" d="M1001,2105.2a.723.723,0,0,1,.6.4,1.789,1.789,0,0,0,1,.9,5.413,5.413,0,0,0,1.9.3,11.091,11.091,0,0,0,1.9-.2h.2c.5,0,.7.2.7.7a.661.661,0,0,1-.6.7,10.942,10.942,0,0,1-2.2.2,5.543,5.543,0,0,1-2.8-.6,2.891,2.891,0,0,1-1.2-1.5c0-.1-.1-.2-.1-.3a.55.55,0,0,1,.3-.5A.368.368,0,0,1,1001,2105.2Zm2-5.2a8.209,8.209,0,0,1,2.8.5,1.133,1.133,0,0,1,.9,1,.938.938,0,0,1-.6.8,6.58,6.58,0,0,0-1.2.6.755.755,0,0,1-.4.1c-.2,0-.3-.1-.3-.2a.31.31,0,0,1-.1-.2c0-.2.3-.5.8-.8a.31.31,0,0,1,.2-.1.349.349,0,0,0-.2-.1,8.962,8.962,0,0,0-1.8-.2,11.79,11.79,0,0,0-1.6.1h-.2c-.2,0-.3,0-.4-.1-.2-.1-.2-.3-.2-.5a.661.661,0,0,1,.6-.7A4.412,4.412,0,0,1,1003,2100Z"/>
      <path id="Path_2092" data-name="Path 2092" class="cls-17" d="M1013.3,2103.6a15.835,15.835,0,0,1-1-2.4c-.1-.3-.2-.5-.3-.8a.756.756,0,0,1-.1-.4.55.55,0,0,1,.3-.5.763.763,0,0,1,.5-.2c.3,0,.5.2.7.5.1.2.2.5.4,1a11.771,11.771,0,0,0,.7,2c1-.7,2-1.3,3-1.9a.6.6,0,0,1,.4-.1.864.864,0,0,1,.6.3.764.764,0,0,1,.2.5.55.55,0,0,1-.3.5,1.233,1.233,0,0,1-.3.2q-4.8,2.4-4.8,3.9c0,.6.6.9,1.7.9a22.784,22.784,0,0,0,2.6-.2h.2a.632.632,0,0,1,.7.7.661.661,0,0,1-.6.7,17.087,17.087,0,0,1-2.6.1,4.772,4.772,0,0,1-2.4-.5,2.019,2.019,0,0,1-.9-1.8C1011.8,2105.4,1012.3,2104.5,1013.3,2103.6Z"/>
    </g>
  </g>
</svg>
