<svg xmlns="http://www.w3.org/2000/svg" viewBox="0 0 389 593.6">
  <defs>
    <style>
      .cls-1 {
        fill: #ec6d71;
      }

      .cls-2 {
        fill: #a25768;
      }

      .cls-3 {
        fill: #fff;
      }
    </style>
  </defs>
  <g id="_012" data-name="012" transform="translate(-331.418 -2420)">
    <rect id="Rectangle_695" data-name="Rectangle 695" class="cls-1" width="389" height="593.6" transform="translate(331.418 2420)"/>
    <path id="Path_1743" data-name="Path 1743" class="cls-2" d="M324.4,2590.2c0,4.7-3.2,6.4-78.7,6.4-67,0-78.7-1.7-78.7-6.4s35.2-8.5,78.7-8.5S324.4,2585.5,324.4,2590.2Z" transform="translate(266.918 224.5)"/>
    <path id="Path_1760" data-name="Path 1760" class="cls-3" d="M324.8,2513.3l-1.1-.1c-8-1.1-20.7,1.9-29.3,4.4.3-1.3.6-2.6.9-3.8a1.613,1.613,0,0,0,.3-.9v-.7h-.1c-.5-5-15.3-11.5-34.4-14.9-19.7-3.5-36.4-2.3-37.6,2.7h-.2c0,.1.1.2.1.4a3.358,3.358,0,0,0,.7,2.2c1.2,3.9,2.5,7.6,3.2,10.6-5.6-1.5-7.2-1.3-9.9-.5l-1,.3c-12.5,3.3-32.3,20.7-33.1,21.4l1.3,1.5c.2-.2,20.2-17.8,32.3-21l1.1-.3c2.4-.7,3.6-1,9.8.8a20.044,20.044,0,0,1,.3,3.2c-.5,11.8-4.5,17.6-7.4,27.9-2-1.8-5.1-4.1-8.1-4.3a5.349,5.349,0,0,0-4.2,1.5c-5.4,4.8-.8,18.9-.2,20.7H191.5v14.1H177v11.1H318.6v-11.1H301v-14.1H282.9c.7-5,0-8.3-2.2-9.7a6.789,6.789,0,0,0-4.9-.7,59.69,59.69,0,0,0,8-10.7,96.14,96.14,0,0,0,9.9-23.3c8.5-2.5,21.7-5.7,29.6-4.6l1.1.1c2.5.3,3.8.4,9.2,4.8l1.2-1.6C329.3,2514,327.8,2513.6,324.8,2513.3Zm-124.6,60.6a2.7,2.7,0,1,1,2.7-2.7A2.689,2.689,0,0,1,200.2,2573.9Zm8.6-9.7.5-.2c-.1-.2-5.2-15.1-.2-19.6a4.35,4.35,0,0,1,3.4-1.2c2.9.2,5.9,2.6,7.8,4.4-.4,1.3-.7,2.7-1,4.2-.9,4.3,1.5,8.8,5,12.4H208.8Zm86.8,4.4a2.7,2.7,0,1,1-2.7,2.7A2.824,2.824,0,0,1,295.6,2568.6ZM261,2498.3c16.8,3,29.9,8.8,30.5,13.2h0v.7c-.8,4.5-15.8,5.6-33.4,2.5s-31.3-9.3-30.5-13.9C228.4,2496.3,243.4,2495.2,261,2498.3Zm19.1,57.1c1.8,1.2,2.4,4.2,1.7,8.8H263.4a58.873,58.873,0,0,0,11-8.9C276.5,2554.7,278.6,2554.4,280.1,2555.4Z" transform="translate(266.918 224.5)"/>
    <path id="Path_1761" data-name="Path 1761" class="cls-3" d="M260,2504.4c-4.5-.8-8.4-.5-8.6.6-.2,1.2,3.3,2.8,7.8,3.6s8.4.5,8.6-.7C268,2506.8,264.5,2505.2,260,2504.4Zm-.6,3.4c-2.8-.5-4.9-1.5-4.8-2.2s2.5-.9,5.2-.4c2.8.5,4.9,1.5,4.8,2.2S262.1,2508.3,259.4,2507.8Z" transform="translate(266.918 224.5)"/>
    <g id="Group_1855" data-name="Group 1855" transform="translate(266.918 224.5)">
      <path id="Path_1762" data-name="Path 1762" class="cls-3" d="M274.5,2469.5c2.9-.6,4.8-4.8,4-9.1-.7-3.5-3-5.9-5.9-5.9a3.4,3.4,0,0,0-1,.1,5.145,5.145,0,0,0-3.4,3.1,10.474,10.474,0,0,0-.7,6.1C268.2,2467.7,271.2,2470.1,274.5,2469.5Z"/>
      <path id="Path_1763" data-name="Path 1763" class="cls-3" d="M288.4,2450.1h-.2a.35.35,0,0,0-.1.2c-.4,1,0,3.8,1.4,6.9s2.9,4.7,3.7,4.7h.2c.1,0,.1-.1.1-.2.1-.1.1-.4.1-.6a80.341,80.341,0,0,0-2.8-8.7C289.8,2450.9,288.9,2450.1,288.4,2450.1Z"/>
      <path id="Path_1764" data-name="Path 1764" class="cls-3" d="M295.7,2472.2H295a5.646,5.646,0,0,0-1.2.4,11.217,11.217,0,0,0-2.2,1.6,19.341,19.341,0,0,1-4.9,3.1,8.765,8.765,0,0,1-2.7.6,9.285,9.285,0,0,1-2.4-.3,6.466,6.466,0,0,1-3-1.9,3.7,3.7,0,0,1-.8-1.1,4.856,4.856,0,0,0,1,.9,7.609,7.609,0,0,0,3,1.5,7.945,7.945,0,0,0,2.2.1,9.768,9.768,0,0,0,2.3-.6,18.148,18.148,0,0,0,4.5-3.1,13.251,13.251,0,0,1,2.5-1.6,4.425,4.425,0,0,1,1.5-.5.853.853,0,0,1,.7,0,73.434,73.434,0,0,0-1.6-8.4c-.1.1-.1.2-.2.2a1.267,1.267,0,0,1-.6.1c-1.4,0-3.2-2.1-4.7-5.4-1.2-2.7-2-6.1-1.4-7.7a1.388,1.388,0,0,1,.7-.8,1.267,1.267,0,0,1,.6-.1,1.863,1.863,0,0,1,1.1.4c-5.4-11.7-13.8-20-24.9-21.9a54.061,54.061,0,0,0-6.9-.8l.3-4.4H256v-2.1h1.9v-1.6H256v-2.1h1.9v-1.6H256V2413h1.9v-1.6H256v-2.1h1.9v-1.6H256v-2.1h1.9V2404H256v-.6h17v-15.1h20.5v-9.1H265.8v-52.4H244.7v52.4H223.1v9.1h14.4v15.1h15.8v1.6h-1.8v1.6h1.8v2.1h-1.8v1.6h1.8v2.1h-1.8v1.6h1.8v2.1h-1.8v1.6h1.8v2.1h-1.8v1.6h1.8v2.1h-1.8l.2,3.2c-11,.4-22,4.7-31.6,18.3-9.8,13.9-2.6,24.7,3.8,37.4h.3c2.2,4.7,17,9.6,35.3,11.2,20.1,1.8,36.4-.8,36.8-5.9A79.2,79.2,0,0,0,295.7,2472.2Zm-29.3-15.3a6.931,6.931,0,0,1,4.9-4.3c4.3-.8,8.2,2.4,9.2,7.4,1,5.4-1.5,10.6-5.5,11.4a6.6,6.6,0,0,1-1.4.1c-3.9,0-7.1-3-7.9-7.4A11.187,11.187,0,0,1,266.4,2456.9ZM251.3,2396a4,4,0,1,1,4,4A4.012,4.012,0,0,1,251.3,2396Z"/>
    </g>
  </g>
</svg>
