<svg xmlns="http://www.w3.org/2000/svg" viewBox="0 0 388 593.6">
  <defs>
    <style>
      .cls-1 {
        fill: #7ebeab;
      }

      .cls-2 {
        fill: #00a497;
      }

      .cls-3 {
        fill: #abced8;
      }

      .cls-4, .cls-5, .cls-6 {
        fill: #fff;
      }

      .cls-5 {
        font-size: 19.14px;
      }

      .cls-5, .cls-6 {
        font-family: BlackadderITC-Regular, Blackadder ITC;
      }

      .cls-6 {
        font-size: 13.6px;
      }
    </style>
  </defs>
  <g id="_013" data-name="013" transform="translate(-736.418 -2420)">
    <rect id="Rectangle_694" data-name="Rectangle 694" class="cls-1" width="388" height="593.6" transform="translate(736.418 2420)"/>
    <ellipse id="Ellipse_319" data-name="Ellipse 319" class="cls-2" cx="55.3" cy="18.8" rx="55.3" ry="18.8" transform="translate(881.718 2784.2)"/>
    <ellipse id="Ellipse_320" data-name="Ellipse 320" class="cls-2" cx="22.9" cy="8.3" rx="22.9" ry="8.3" transform="translate(984.918 2785.8)"/>
    <path id="Path_1744" data-name="Path 1744" class="cls-2" d="M807.4,2547.4c0,4.6-2.8,5.6-40.1,5.6-22.9,0-42.9-1-42.9-5.6s18.6-4.2,41.5-4.2C794.9,2543.1,807.4,2544.7,807.4,2547.4Z" transform="translate(266.918 224.5)"/>
    <path id="Path_1745" data-name="Path 1745" class="cls-3" d="M705.6,2504.5c-3.1,18.2-13.6,27.2-27.7,31.9,3.2,8.1,7.9,22,6.9,29.2-.3,2.1-6.1,5.7-7.9,6.8l-.8-1.4c3.8-2.3,7-4.8,7.1-5.6,1-6.8-3.8-20.5-6.9-28.5a52.9,52.9,0,0,1-5.7,1.5,40.34,40.34,0,0,1-26.6-2.8c-2.8,6.6-6.6,17.1-6.5,23.7,0,1.9,2.8,3.6,6,5.5.8.5,1.7,1,2.5,1.6l-.9,1.4c-.9-.6-1.7-1.1-2.5-1.6-3.8-2.3-6.7-4.1-6.8-6.9-.1-6.9,3.9-17.7,6.7-24.4-10.8-5.6-18-15.5-20.4-23.7v-48.1c1-9.2,2.6-18.1,4.9-25.1,8.5-25,31.7-28,46.9-24.1,21.6,5.5,29.1,16.3,31.5,51.4Z" transform="translate(266.918 224.5)"/>
    <g id="Group_1853" data-name="Group 1853" transform="translate(266.918 224.5)">
      <g id="Group_1845" data-name="Group 1845">
        <path id="Path_1746" data-name="Path 1746" class="cls-4" d="M685.1,2462.2c-4.2,0-7.5-3.5-7.9-8.2a12.239,12.239,0,0,1,1.6-7.1,7.181,7.181,0,0,1,5.3-3.7c4.5-.4,6.2,4.4,7.4,9.3a8.225,8.225,0,0,1-1.1,7.1,6.4,6.4,0,0,1-4.8,2.7C685.6,2462.2,685.3,2462.2,685.1,2462.2Zm-.4-17.1h-.3a5.112,5.112,0,0,0-3.8,2.8,10.224,10.224,0,0,0-1.3,6c.3,3.9,2.9,6.7,6.3,6.4a4.364,4.364,0,0,0,3.3-1.9,6.236,6.236,0,0,0,.7-5.4C688.4,2448,687.2,2445.1,684.7,2445.1Z"/>
      </g>
      <g id="Group_1846" data-name="Group 1846">
        <path id="Path_1747" data-name="Path 1747" class="cls-4" d="M658.9,2472.9a.669.669,0,0,1-.7.6.645.645,0,0,1-.6-.6c0-.3.4-.6.7-.6C658.7,2472.3,659,2472.5,658.9,2472.9Z"/>
      </g>
      <g id="Group_1847" data-name="Group 1847">
        <path id="Path_1748" data-name="Path 1748" class="cls-4" d="M656.5,2470.2c-.1.5-.5.9-.9.8a.875.875,0,0,1-.8-.9.847.847,0,0,1,1-.8A.808.808,0,0,1,656.5,2470.2Z"/>
      </g>
      <g id="Group_1848" data-name="Group 1848">
        <path id="Path_1749" data-name="Path 1749" class="cls-4" d="M655.2,2465.1a1.322,1.322,0,0,1-1.4,1.2,1.155,1.155,0,0,1-1.1-1.3,1.322,1.322,0,0,1,1.4-1.2A1.287,1.287,0,0,1,655.2,2465.1Z"/>
      </g>
      <g id="Group_1849" data-name="Group 1849">
        <path id="Path_1750" data-name="Path 1750" class="cls-4" d="M659.2,2458.1a1.882,1.882,0,0,1-2,1.7,1.627,1.627,0,0,1-1.6-1.8,1.882,1.882,0,0,1,2-1.7A1.488,1.488,0,0,1,659.2,2458.1Z"/>
      </g>
      <g id="Group_1850" data-name="Group 1850">
        <path id="Path_1751" data-name="Path 1751" class="cls-4" d="M666.7,2446.7a3.262,3.262,0,0,1-3.3,2.9,2.844,2.844,0,0,1-2.7-3.1,3.28,3.28,0,0,1,3.4-2.9A2.757,2.757,0,0,1,666.7,2446.7Z"/>
      </g>
      <g id="Group_1851" data-name="Group 1851">
        <path id="Path_1752" data-name="Path 1752" class="cls-4" d="M660.9,2427.9a5.169,5.169,0,0,1-5.4,4.7c-2.7-.3-4.8-2.3-4.5-5.1a5.376,5.376,0,0,1,5.6-4.8A4.619,4.619,0,0,1,660.9,2427.9Z"/>
      </g>
      <g id="Group_1852" data-name="Group 1852">
        <path id="Path_1753" data-name="Path 1753" class="cls-4" d="M643.6,2462.2a8.926,8.926,0,0,1-6.8-3.1,5.945,5.945,0,0,1-1-5.5l.1-.5c1.2-4.5,2.5-9.7,6.8-10,4.4-.3,7.9,3.2,8.3,8.3a11.973,11.973,0,0,1-2.4,8.4,6.73,6.73,0,0,1-4.3,2.4Zm-.3-17.1h-.4c-2.9.2-3.9,4.4-5,8.5l-.1.5a4,4,0,0,0,.7,3.7,6.815,6.815,0,0,0,5.7,2.3,4.467,4.467,0,0,0,3-1.7,9.943,9.943,0,0,0,2-6.9C648.7,2447.8,646.3,2445.1,643.3,2445.1Z"/>
      </g>
      <path id="Path_1754" data-name="Path 1754" class="cls-4" d="M705.8,2373.9a3.64,3.64,0,0,1-.9-1.2,19.822,19.822,0,0,1,.5-3.1h1v-5.2H701c-.8-5.8-6-11.1-14.4-14.6v-2a2.285,2.285,0,0,0-2.5-2.4H680v-1.3a1.89,1.89,0,0,0-2-2h-1.3v-11.3a2.476,2.476,0,0,0-2.5-2.5H655.5a2.476,2.476,0,0,0-2.5,2.5v11.3h-2a1.918,1.918,0,0,0-2,2.1v1.2h-4.6a2.341,2.341,0,0,0-2.5,2.6v2.2c-8,3.5-13,8.6-13.7,14.3H622v5.2h.6a14.56,14.56,0,0,1,.4,3.1,2.432,2.432,0,0,1-.9,1.5,4.179,4.179,0,0,0-1.4,2.7l.1,198.6c0,5.7,15.2,10.8,45.3,10.8,36.1,0,41.1-6.3,41.1-10.8v-9.5h.1V2376.7A4.534,4.534,0,0,0,705.8,2373.9Zm-.2,130.6c-3.1,18.2-13.6,27.2-27.7,31.9,3.2,8.1,7.9,22,6.9,29.2-.3,2.1-6.1,5.7-7.9,6.8l-.8-1.4c3.8-2.3,7-4.8,7.1-5.6,1-6.8-3.8-20.5-6.9-28.5a52.9,52.9,0,0,1-5.7,1.5,40.34,40.34,0,0,1-26.6-2.8c-2.8,6.6-6.6,17.1-6.5,23.7,0,1.9,2.8,3.6,6,5.5.8.5,1.7,1,2.5,1.6l-.9,1.4c-.9-.6-1.7-1.1-2.5-1.6-3.8-2.3-6.7-4.1-6.8-6.9-.1-6.9,3.9-17.7,6.7-24.4-10.8-5.6-18-15.5-20.4-23.7v-48.1c1-9.2,2.6-18.1,4.9-25.1,8.5-25,31.7-28,46.9-24.1,21.6,5.5,29.1,16.3,31.5,51.4Zm0-106.1H673.5a4.99,4.99,0,0,0,.5-2.1c.5-4-2.4-7-6.4-7.5-4-.4-7.7,3-8.1,7a6.884,6.884,0,0,0,.2,2.5H622.2v-21.6a2.573,2.573,0,0,1,1-1.7,4.069,4.069,0,0,0,1.3-2.6,22.732,22.732,0,0,0-.6-4.1l-.1-.6h-.2v-1.9h6.1v-.8c.3-5.4,5.2-10.4,13.3-13.9l3.7-1.5h-3.2v-1.9c0-.7.3-1,.9-1h6.3v-2.8c0-.5.1-.5.4-.5h3.5v-12.9a.9.9,0,0,1,.9-.9h18.7a.9.9,0,0,1,.9.9v12.9H678c.2,0,.4,0,.4.4v2.9h5.7c.7,0,.9.3.9.8v3.1l.5.2c8.5,3.4,13.6,8.5,14,14.1v.8h5.2v1.9h-.6l-.2.6a22.545,22.545,0,0,0-.7,4.1,3.861,3.861,0,0,0,1.3,2.3c.5.5,1.1,1.1,1.1,1.6Z"/>
      <path id="Path_1755" data-name="Path 1755" class="cls-4" d="M663.1,2475.6c-4.5-.5-8.5,2-8.8,4.9-.3,3,3.2,5.3,7.6,5.8,4.5.5,8.2-1.9,8.6-4.8C670.8,2478.5,667.5,2476.1,663.1,2475.6Zm-1.2,4H659v-3.4l2.9-.4Zm3.7,0h-2.8v-3.8l3,.6Z"/>
    </g>
    <ellipse id="Ellipse_321" data-name="Ellipse 321" class="cls-2" cx="16.4" cy="6" rx="16.4" ry="6" transform="translate(843.518 2756.5)"/>
    <path id="Path_1756" data-name="Path 1756" class="cls-4" d="M603.4,2479c-.1-.1-.3-.3-.3-.4,0-.2.1-.6.1-.9h.3v-1.5H602c-.2-1.7-1.7-3.2-4.2-4.2v-.6a.684.684,0,0,0-.7-.7h-1.2v-.4a.53.53,0,0,0-.6-.6h-.4v-3.3a.684.684,0,0,0-.7-.7h-5.4a.684.684,0,0,0-.7.7v3.3h-.6a.576.576,0,0,0-.6.6v.3h-1.3a.632.632,0,0,0-.7.7v.6c-2.3,1-3.8,2.5-4,4.1h-1.8v1.5h.2c0,.2.1.6.1.9a.535.535,0,0,1-.3.4,1.039,1.039,0,0,0-.4.8v57.6c0,1.7,4.4,3.3,13.1,3.3,10.5,0,11.9-2,11.9-3.3v-2.8h0v-54.9C603.8,2479.5,603.6,2479.2,603.4,2479Z" transform="translate(266.918 224.5)"/>
    <path id="Path_1757" data-name="Path 1757" class="cls-4" d="M794.2,2549.9c.1-.1.2-.2.3-.2.2,0,.5.1.7.1v.2h1.2v-1.3c1.4-.2,2.7-1.4,3.5-3.5h.5a.53.53,0,0,0,.6-.6v-1h.3a.472.472,0,0,0,.5-.5v-.3h2.7a.645.645,0,0,0,.6-.6v-4.5a.645.645,0,0,0-.6-.6h-2.7v-.5a.472.472,0,0,0-.5-.5H801V2535a.53.53,0,0,0-.6-.6h-.5c-.8-1.9-2.1-3.1-3.4-3.3v-1.5h-1.2v.1c-.2,0-.5.1-.7.1-.1,0-.2-.1-.4-.2a.908.908,0,0,0-.7-.3H745.9c-1.4,0-2.7,3.7-2.7,10.9,0,8.7,1.6,9.9,2.7,9.9h47.7C793.8,2550.3,794,2550.1,794.2,2549.9Z" transform="translate(266.918 224.5)"/>
    <g id="Group_1854" data-name="Group 1854" transform="translate(266.918 224.5)">
      <path id="Path_1758" data-name="Path 1758" class="cls-4" d="M739.2,2574c-11.5,0-18.9-2-18.9-5.1v-80.3a2.356,2.356,0,0,1,.7-1.5c.1-.1.2-.2.2-.3a1.953,1.953,0,0,0-.1-.7h-.3V2483h2.6c.5-2.2,2.4-4.2,5.5-5.6v-.5a1.522,1.522,0,0,1,1.6-1.6h1.3a1.26,1.26,0,0,1,1.3-1.3h.2v-4a1.58,1.58,0,0,1,1.6-1.6h7.6a1.5,1.5,0,0,1,1.5,1.6v4a1.208,1.208,0,0,1,1.3,1.3h1.1a1.417,1.417,0,0,1,1.5,1.5v.5c3.2,1.4,5.2,3.4,5.7,5.7h2.2v3.1h-.5a3.54,3.54,0,0,1-.1.6c.1.1.1.2.2.2a2.443,2.443,0,0,1,.8,1.5v77.1h0v3.3C756.4,2572.3,750.8,2574,739.2,2574Z"/>
      <path id="Path_1759" data-name="Path 1759" class="cls-1" d="M742.5,2469a1,1,0,0,1,1,1v4.6h.5a.736.736,0,0,1,.8.8v.5h1.7a.945.945,0,0,1,1,1v.8c3.4,1.4,5.5,3.5,5.8,5.9h2.2v2.1h-.4a6.883,6.883,0,0,0-.2,1.3c0,.1.2.3.4.5a1.738,1.738,0,0,1,.6,1.1v76.6h0v3.9c0,1.8-2,4.6-16.6,4.6-12.2,0-18.3-2.2-18.3-4.6v-80.3a1.881,1.881,0,0,1,.5-1.1c.2-.2.4-.4.4-.6a5.853,5.853,0,0,0-.2-1.3h-.2v-2.1H724c.3-2.3,2.3-4.4,5.6-5.8v-.9a.945.945,0,0,1,1-1h1.9v-.5a.817.817,0,0,1,.8-.9h.8V2470a1,1,0,0,1,1-1h7.4m0-1.1H735a2.112,2.112,0,0,0-2.1,2.1v3.5a1.829,1.829,0,0,0-1.5,1.3h-.9a2.051,2.051,0,0,0-2.1,2.1v.2c-2.8,1.4-4.7,3.3-5.3,5.4h-2.8v4.3h.4l-.1.1a2.534,2.534,0,0,0-.8,1.8V2569c0,3.5,7.4,5.6,19.4,5.6,12.1,0,17.7-1.8,17.7-5.6v-80.5a2.606,2.606,0,0,0-.9-1.8h.5v-4.3h-2.4c-.7-2.2-2.6-4.1-5.6-5.5v-.1a2.051,2.051,0,0,0-2.1-2.1h-.7a1.951,1.951,0,0,0-1.2-1.3v-3.6a1.865,1.865,0,0,0-2-1.9Z"/>
    </g>
    <g id="Group" transform="translate(266.918 224.5)">
      <text id="Painting_without_Masks" data-name="Painting without Masks" class="cls-5" transform="translate(582.761 2647.801)"><tspan x="0" y="0">Painting without Masks</tspan></text>
      <text id="_just_like_Bathing_in_paint" data-name=" just like Bathing in paint" class="cls-6" transform="translate(604.561 2664.101)"><tspan x="0" y="0" xml:space="preserve"> just like Bathing in paint</tspan></text>
    </g>
  </g>
</svg>
