<svg xmlns="http://www.w3.org/2000/svg" viewBox="0 0 320.4 439.1">
  <defs>
    <style>
      .cls-1 {
        fill: #7ebeab;
      }

      .cls-2 {
        fill: #00a497;
      }

      .cls-3 {
        fill: #abced8;
      }

      .cls-4, .cls-5, .cls-6 {
        fill: #fff;
      }

      .cls-5 {
        font-size: 15.65px;
      }

      .cls-5, .cls-6 {
        font-family: BlackadderITC-Regular, Blackadder ITC;
      }

      .cls-6 {
        font-size: 11.12px;
      }
    </style>
  </defs>
  <g id="_013" data-name="013" transform="translate(-774.088 -2285.97)">
    <rect id="Rectangle_704" data-name="Rectangle 704" class="cls-1" width="320.4" height="439.1" transform="translate(774.089 2285.97)"/>
    <ellipse id="Ellipse_325" data-name="Ellipse 325" class="cls-2" cx="45.2" cy="15.3" rx="45.2" ry="15.3" transform="translate(895.289 2556.47)"/>
    <ellipse id="Ellipse_326" data-name="Ellipse 326" class="cls-2" cx="18.7" cy="6.8" rx="18.7" ry="6.8" transform="translate(979.689 2557.67)"/>
    <path id="Path_1738" data-name="Path 1738" class="cls-2" d="M661.8,1009.8c0,3.8-2.3,4.6-32.8,4.6-18.7,0-35.1-.8-35.1-4.6s15.2-3.5,33.9-3.5C651.7,1006.3,661.8,1007.6,661.8,1009.8Z" transform="translate(390.889 1536.47)"/>
    <path id="Path_1739" data-name="Path 1739" class="cls-3" d="M578.6,974.7c-2.5,14.9-11.2,22.2-22.7,26.1,2.6,6.7,6.5,18,5.6,23.9-.2,1.7-5,4.7-6.5,5.6l-.7-1.1c3.1-1.8,5.7-4,5.8-4.6.8-5.6-3.1-16.7-5.6-23.3a35.928,35.928,0,0,1-4.7,1.2,33.093,33.093,0,0,1-21.7-2.3c-2.3,5.4-5.4,14-5.3,19.4,0,1.5,2.3,2.9,4.9,4.5a23.921,23.921,0,0,1,2.1,1.3l-.7,1.1c-.7-.5-1.4-.9-2-1.3-3.1-1.9-5.5-3.4-5.6-5.6-.1-5.7,3.2-14.5,5.5-20-8.8-4.6-14.7-12.7-16.6-19.4V940.8a102.045,102.045,0,0,1,4-20.5c6.9-20.4,25.9-22.9,38.4-19.7,17.7,4.5,23.8,13.3,25.8,42Z" transform="translate(390.889 1536.47)"/>
    <g id="Group_1857" data-name="Group 1857" transform="translate(390.889 1536.47)">
      <g id="Group_1849" data-name="Group 1849">
        <path id="Path_1740" data-name="Path 1740" class="cls-4" d="M561.9,940.2c-3.4,0-6.1-2.8-6.4-6.7a9.592,9.592,0,0,1,1.3-5.8,5.737,5.737,0,0,1,4.3-3c3.7-.3,5,3.6,6,7.6a6.8,6.8,0,0,1-.9,5.8,5.072,5.072,0,0,1-3.9,2.2C562.2,940.2,562.1,940.2,561.9,940.2Zm-.4-14h-.3a4.087,4.087,0,0,0-3.1,2.3,9.082,9.082,0,0,0-1.1,4.9c.3,3.2,2.4,5.5,5.2,5.2a3.551,3.551,0,0,0,2.7-1.5,5.452,5.452,0,0,0,.6-4.4C564.6,928.5,563.6,926.2,561.5,926.2Z"/>
      </g>
      <g id="Group_1850" data-name="Group 1850">
        <path id="Path_1741" data-name="Path 1741" class="cls-4" d="M540.5,948.9a.536.536,0,0,1-.5.5.472.472,0,0,1-.5-.5.56.56,0,0,1,.6-.5A.457.457,0,0,1,540.5,948.9Z"/>
      </g>
      <g id="Group_1851" data-name="Group 1851">
        <path id="Path_1742" data-name="Path 1742" class="cls-4" d="M538.5,946.7a.773.773,0,0,1-.8.7.563.563,0,0,1-.6-.7.773.773,0,0,1,.8-.7A.669.669,0,0,1,538.5,946.7Z"/>
      </g>
      <g id="Group_1852" data-name="Group 1852">
        <path id="Path_1743" data-name="Path 1743" class="cls-4" d="M537.4,942.6a1.09,1.09,0,0,1-1.1,1c-.6-.1-1-.5-.9-1a1.164,1.164,0,0,1,1.1-1C537.1,941.6,537.4,942,537.4,942.6Z"/>
      </g>
      <g id="Group_1853" data-name="Group 1853">
        <path id="Path_1744" data-name="Path 1744" class="cls-4" d="M540.7,936.8a1.537,1.537,0,0,1-1.6,1.4,1.367,1.367,0,0,1-1.3-1.5,1.537,1.537,0,0,1,1.6-1.4A1.272,1.272,0,0,1,540.7,936.8Z"/>
      </g>
      <g id="Group_1854" data-name="Group 1854">
        <path id="Path_1745" data-name="Path 1745" class="cls-4" d="M546.9,927.5a2.485,2.485,0,0,1-2.7,2.3,2.286,2.286,0,0,1-2.2-2.5,2.732,2.732,0,0,1,2.8-2.4A2.366,2.366,0,0,1,546.9,927.5Z"/>
      </g>
      <g id="Group_1855" data-name="Group 1855">
        <path id="Path_1746" data-name="Path 1746" class="cls-4" d="M542.1,912.1a4.275,4.275,0,0,1-4.4,3.9,3.841,3.841,0,0,1-3.7-4.1,4.294,4.294,0,0,1,4.5-3.9A3.6,3.6,0,0,1,542.1,912.1Z"/>
      </g>
      <g id="Group_1856" data-name="Group 1856">
        <path id="Path_1747" data-name="Path 1747" class="cls-4" d="M527.9,940.2a7.163,7.163,0,0,1-5.5-2.5,4.79,4.79,0,0,1-.8-4.5l.1-.4c1-3.7,2-7.9,5.5-8.2,3.6-.3,6.4,2.6,6.8,6.8a9.225,9.225,0,0,1-2,6.8,4.961,4.961,0,0,1-3.5,1.9A1.268,1.268,0,0,1,527.9,940.2Zm-.2-14h-.4c-2.3.2-3.2,3.6-4.1,7l-.1.4a3.682,3.682,0,0,0,.5,3.1,5.967,5.967,0,0,0,4.7,1.9,3.626,3.626,0,0,0,2.4-1.4,7.746,7.746,0,0,0,1.6-5.7C532.1,928.4,530.2,926.2,527.7,926.2Z"/>
      </g>
      <path id="Path_1748" data-name="Path 1748" class="cls-4" d="M578.8,867.9a2.609,2.609,0,0,1-.7-1,11.776,11.776,0,0,1,.4-2.5h.8v-4.2h-4.4c-.6-4.8-4.9-9.1-11.8-11.9v-1.6a1.918,1.918,0,0,0-2.1-2h-3.4v-1A1.55,1.55,0,0,0,556,842h-1v-9.3a2.112,2.112,0,0,0-2.1-2.1H537.6a2.112,2.112,0,0,0-2.1,2.1V842H534a1.55,1.55,0,0,0-1.6,1.7v1h-3.8a1.944,1.944,0,0,0-2.1,2.1v1.8c-6.6,2.9-10.6,7.1-11.2,11.7h-5.1v4.2h.5a17.135,17.135,0,0,1,.3,2.5,1.906,1.906,0,0,1-.7,1.2,3.577,3.577,0,0,0-1.1,2.2l.1,162.4c0,4.7,12.5,8.8,37.1,8.8,29.6,0,33.6-5.1,33.6-8.8V1025h.1V870.1A4.472,4.472,0,0,0,578.8,867.9Zm-.2,106.8c-2.5,14.9-11.2,22.2-22.7,26.1,2.6,6.7,6.5,18,5.6,23.9-.2,1.7-5,4.7-6.5,5.6l-.7-1.1c3.1-1.8,5.7-4,5.8-4.6.8-5.6-3.1-16.7-5.6-23.3a35.928,35.928,0,0,1-4.7,1.2,33.093,33.093,0,0,1-21.7-2.3c-2.3,5.4-5.4,14-5.3,19.4,0,1.5,2.3,2.9,4.9,4.5a23.921,23.921,0,0,1,2.1,1.3l-.7,1.1c-.7-.5-1.4-.9-2-1.3-3.1-1.9-5.5-3.4-5.6-5.6-.1-5.7,3.2-14.5,5.5-20-8.8-4.6-14.7-12.7-16.6-19.4V940.8a102.045,102.045,0,0,1,4-20.5c6.9-20.4,25.9-22.9,38.4-19.7,17.7,4.5,23.8,13.3,25.8,42Zm.1-86.7H552.4a4.711,4.711,0,0,0,.4-1.7c.4-3.3-1.9-5.8-5.2-6.1a6.43,6.43,0,0,0-6.6,5.7,5.022,5.022,0,0,0,.2,2.1H510.5V870.4c0-.5.4-.9.8-1.4a3.327,3.327,0,0,0,1.1-2.1,16.04,16.04,0,0,0-.5-3.3l-.1-.5h-.2v-1.6h5v-.6c.3-4.4,4.3-8.5,10.9-11.3l3-1.3h-2.6v-1.5c0-.6.2-.8.8-.8h5.1v-2.3c0-.4.1-.4.3-.4H537V832.7a.684.684,0,0,1,.7-.7H553a.684.684,0,0,1,.7.7v10.6h2.4c.2,0,.3,0,.3.3v2.3h4.7c.6,0,.7.3.7.7v2.5l.4.2c7,2.8,11.1,7,11.4,11.6v.6h4.3v1.6h-.5l-.1.5a15.086,15.086,0,0,0-.6,3.4c0,.7.6,1.3,1.1,1.9.4.4.9.9.9,1.3Z"/>
      <path id="Path_1749" data-name="Path 1749" class="cls-4" d="M543.9,951.1c-3.7-.4-6.9,1.6-7.2,4s2.6,4.3,6.2,4.7c3.7.4,6.7-1.6,7-4C550.2,953.5,547.5,951.5,543.9,951.1Zm-1,3.3h-2.3v-2.8l2.3-.4Zm3,0h-2.3v-3.1l2.4.5Z"/>
    </g>
    <ellipse id="Ellipse_327" data-name="Ellipse 327" class="cls-2" cx="13.4" cy="4.9" rx="13.4" ry="4.9" transform="translate(864.089 2533.67)"/>
    <path id="Path_1750" data-name="Path 1750" class="cls-4" d="M495,953.9c-.1-.1-.2-.2-.2-.3,0-.2.1-.5.1-.7h.2v-1.2h-1.3c-.2-1.4-1.4-2.6-3.4-3.5v-.5a.53.53,0,0,0-.6-.6h-1v-.3a.472.472,0,0,0-.5-.5H488v-2.7a.645.645,0,0,0-.6-.6H483a.645.645,0,0,0-.6.6v2.7h-.5a.472.472,0,0,0-.5.5v.3h-1.1a.53.53,0,0,0-.6.6v.5c-1.9.8-3.1,2-3.3,3.4h-1.5v1.2h.1c0,.2.1.5.1.7,0,.1-.1.2-.2.4a.864.864,0,0,0-.3.6v47.1c0,1.4,3.6,2.7,10.7,2.7,8.6,0,9.7-1.6,9.7-2.7v-2.3h0V954.4C495.4,954.3,495.2,954.1,495,953.9Z" transform="translate(390.889 1536.47)"/>
    <path id="Path_1751" data-name="Path 1751" class="cls-4" d="M651.1,1011.9l.2-.2c.1,0,.4.1.6.1v.2h1v-1a4.4,4.4,0,0,0,2.9-2.8h.4a.472.472,0,0,0,.5-.5v-.8h.2a.43.43,0,0,0,.4-.4v-.3h2.2a.472.472,0,0,0,.5-.5V1002a.472.472,0,0,0-.5-.5h-2.2v-.4a.43.43,0,0,0-.4-.4h-.2v-.9a.472.472,0,0,0-.5-.5h-.4a4.1,4.1,0,0,0-2.8-2.7v-1.2h-1v.1c-.2,0-.4.1-.6.1-.1,0-.2-.1-.3-.2a.85.85,0,0,0-.5-.3H611.7c-1.1,0-2.2,3-2.2,8.9,0,7.1,1.3,8.1,2.2,8.1h39A.757.757,0,0,0,651.1,1011.9Z" transform="translate(390.889 1536.47)"/>
    <g id="Group_1858" data-name="Group 1858" transform="translate(390.889 1536.47)">
      <path id="Path_1752" data-name="Path 1752" class="cls-4" d="M606.1,1031.5c-9.4,0-15.4-1.6-15.4-4.2V961.6a1.559,1.559,0,0,1,.6-1.2l.2-.2a1.486,1.486,0,0,0-.1-.6h-.3V957h2.1c.4-1.8,2-3.4,4.5-4.6V952a1.208,1.208,0,0,1,1.3-1.3h1.1a1.11,1.11,0,0,1,1.1-1.1h.2v-3.3a1.324,1.324,0,0,1,1.3-1.3h6.2a1.324,1.324,0,0,1,1.3,1.3v3.3a1.049,1.049,0,0,1,1.1,1.1h.9a1.24,1.24,0,0,1,1.3,1.2v.4c2.6,1.1,4.3,2.8,4.7,4.7H620v2.6h-.4a4.33,4.33,0,0,1-.1.5c0,.1.1.1.2.2a1.743,1.743,0,0,1,.6,1.2v63h0v2.7C620.2,1030.2,615.6,1031.5,606.1,1031.5Z"/>
      <path id="Path_1753" data-name="Path 1753" class="cls-1" d="M608.8,945.7a.789.789,0,0,1,.8.8v3.7h.4a.684.684,0,0,1,.7.7v.4h1.4a.736.736,0,0,1,.8.8v.7c2.8,1.2,4.5,2.9,4.8,4.8h1.8v1.7h-.3a4.4,4.4,0,0,0-.2,1c0,.1.2.3.3.4a1.346,1.346,0,0,1,.5.9v62.6h0v3.2c0,1.5-1.6,3.7-13.6,3.7-9.9,0-15-1.8-15-3.7V961.7a1.268,1.268,0,0,1,.4-.9c.2-.2.3-.3.3-.5,0-.3-.1-.8-.1-1h-.2v-1.7h2.1c.2-1.9,1.9-3.6,4.5-4.7v-.7a.817.817,0,0,1,.8-.9h1.5v-.4a.684.684,0,0,1,.7-.7h.6v-3.7a.789.789,0,0,1,.8-.8h6.2m0-.9h-6.2a1.752,1.752,0,0,0-1.7,1.7v2.9a1.383,1.383,0,0,0-1.2,1.1H599a1.628,1.628,0,0,0-1.7,1.7v.2a8.177,8.177,0,0,0-4.4,4.4h-2.3v3.5h.3l-.1.1a2.132,2.132,0,0,0-.7,1.5v65.7c0,2.8,6.1,4.6,15.9,4.6,9.9,0,14.5-1.5,14.5-4.6V961.8a2.356,2.356,0,0,0-.7-1.5h.4v-3.5h-2c-.5-1.8-2.1-3.4-4.6-4.5v-.1a1.628,1.628,0,0,0-1.7-1.7h-.5a1.285,1.285,0,0,0-1-1v-2.9a1.579,1.579,0,0,0-1.6-1.8Z"/>
    </g>
    <g id="Group" transform="translate(390.889 1536.47)">
      <text id="Painting_without_Masks" data-name="Painting without Masks" class="cls-5" transform="translate(478.181 1091.92)"><tspan x="0" y="0">Painting without Masks</tspan></text>
      <text id="_just_like_Bathing_in_paint" data-name=" just like Bathing in paint" class="cls-6" transform="translate(495.981 1105.32)"><tspan x="0" y="0" xml:space="preserve"> just like Bathing in paint</tspan></text>
    </g>
  </g>
</svg>
