<svg xmlns="http://www.w3.org/2000/svg" xmlns:xlink="http://www.w3.org/1999/xlink" viewBox="0 0 388 593.5">
  <defs>
    <style>
      .cls-1 {
        fill: #f6d67f;
      }

      .cls-2, .cls-3, .cls-5 {
        fill: #fff;
      }

      .cls-2 {
        font-size: 19.14px;
      }

      .cls-2, .cls-3 {
        font-family: BlackadderITC-Regular, Blackadder ITC;
      }

      .cls-3 {
        font-size: 13.6px;
      }

      .cls-4 {
        fill: #e40012;
      }

      .cls-6 {
        fill: #e4a220;
      }

      .cls-13, .cls-15, .cls-7, .cls-9 {
        fill: none;
        stroke-miterlimit: 10;
      }

      .cls-7 {
        stroke: #e40012;
      }

      .cls-7, .cls-9 {
        stroke-width: 1.789px;
      }

      .cls-8 {
        opacity: 0.6;
      }

      .cls-9 {
        stroke: #fff;
      }

      .cls-10 {
        clip-path: url(#clip-path);
      }

      .cls-11 {
        fill: #9d9d9e;
      }

      .cls-12 {
        fill: #cd191b;
      }

      .cls-13, .cls-15 {
        stroke: #9d9d9e;
        stroke-linecap: round;
        stroke-linejoin: round;
      }

      .cls-13 {
        stroke-width: 0.716px;
      }

      .cls-14 {
        clip-path: url(#clip-path-3);
      }

      .cls-15 {
        stroke-width: 0.358px;
      }

      .cls-16 {
        clip-path: url(#clip-path-5);
      }

      .cls-17 {
        clip-path: url(#clip-path-7);
      }

      .cls-18 {
        clip-path: url(#clip-path-8);
      }
    </style>
    <clipPath id="clip-path">
      <path id="Path_1637" data-name="Path 1637" d="M1094.2,2522a68.464,68.464,0,0,0,3.7-8.1c.3-.9,3.9,4,6.9,7.2,2.5,2.7,21.3.8,22.9-.9,2.1-2.3,8.5-11.3,8.8-12.9s-5.9-14.6-14.5-17c-8.8-2.4-20,5.7-19.9,3.8a53.8,53.8,0,0,0-2-20.2c2.6,10.1,2.4,15.4,1.7,21.1-.5,3.7-2.9,4.6-4.2,8.1-.7,2.1.9,8.1.3,10.2a51.726,51.726,0,0,1-3.9,8.9S1094.2,2522.1,1094.2,2522Z"/>
    </clipPath>
    <clipPath id="clip-path-3">
      <ellipse id="Ellipse_313" data-name="Ellipse 313" cx="1.5" cy="0.8" rx="1.5" ry="0.8" transform="matrix(0.152, -0.988, 0.988, 0.152, 1112.569, 2501.78)"/>
    </clipPath>
    <clipPath id="clip-path-5">
      <path id="Path_1652" data-name="Path 1652" d="M1100.6,2426.8a69.685,69.685,0,0,0-5.2-7.3c-.6-.7,5.4-1.4,9.7-2.4,3.6-.8,11.4-18,10.7-20.3-.9-3-5.5-13-6.8-14.1-1.2-1.1-15.6-2.2-22,4.1-6.5,6.4-5.1,20.2-6.7,19.1-5.6-3.7-10.5-6.5-18.5-8.3,10.1,2.8,14.5,5.6,19.1,9.1,3,2.3,2.6,4.9,4.9,7.6,1.4,1.7,7.5,3.3,9,4.8a44.6,44.6,0,0,1,5.7,7.9C1100.6,2427.1,1100.6,2426.8,1100.6,2426.8Z"/>
    </clipPath>
    <clipPath id="clip-path-7">
      <path id="Path_1659" data-name="Path 1659" d="M1090.4,2398.4c-.3.4,0,1.1.7,1.6.6.5,1.4.7,1.7.3s0-1.1-.7-1.6C1091.4,2398.1,1090.7,2398,1090.4,2398.4Z"/>
    </clipPath>
    <clipPath id="clip-path-8">
      <path id="Path_1660" data-name="Path 1660" d="M1090.4,2398.4c-.3.4,0,1.1.7,1.6.6.5,1.4.7,1.7.3s0-1.1-.7-1.6C1091.4,2398.1,1090.7,2398,1090.4,2398.4Z" transform="translate(-1090.6 -2398.1)"/>
    </clipPath>
  </defs>
  <g id="_014" data-name="014" transform="translate(-1140.418 -2420.1)">
    <rect id="Rectangle_682" data-name="Rectangle 682" class="cls-1" width="388" height="593.5" transform="translate(1140.418 2420.1)"/>
    <g id="Group" transform="translate(266.918 224.5)">
      <text id="Staying_up_late_" data-name="Staying up late " class="cls-2" transform="translate(1015.661 2647.801)"><tspan x="0" y="0">Staying up late </tspan></text>
      <text id="It_s_not_only_bursting_your_liver_" data-name="It&apos;s not only bursting your liver " class="cls-3" transform="translate(996.561 2664.101)"><tspan x="0" y="0">It&apos;s not only bursting your liver </tspan></text>
      <text id="but_also_your_brain" data-name="but also your brain" class="cls-3" transform="translate(1026.061 2680.501)"><tspan x="0" y="0">but also your brain</tspan></text>
    </g>
    <g id="Group_1787" data-name="Group 1787" transform="translate(266.918 224.5)">
      <rect id="Rectangle_683" data-name="Rectangle 683" class="cls-4" width="14.1" height="4.1" transform="translate(1147.202 2502.189) rotate(-57.616)"/>
      <rect id="Rectangle_684" data-name="Rectangle 684" class="cls-4" width="14.1" height="4.1" transform="translate(994.605 2405.202) rotate(-57.608)"/>
      <path id="Path_1593" data-name="Path 1593" class="cls-4" d="M1007.9,2395.6l-8.9,14-1.6-1,8.9-14.1Z"/>
      <path id="Path_1594" data-name="Path 1594" class="cls-4" d="M1028.5,2409l-8.6,13.6-.7-.5,8.6-13.5Z"/>
      <rect id="Rectangle_685" data-name="Rectangle 685" class="cls-5" width="16.6" height="23.6" transform="matrix(0.536, -0.844, 0.844, 0.536, 999.023, 2409.666)"/>
      <path id="Path_1595" data-name="Path 1595" class="cls-4" d="M1144.9,2502.4l8.9-14.1,1.6,1.1-8.9,14Z"/>
      <path id="Path_1596" data-name="Path 1596" class="cls-4" d="M1124.2,2488.9l8.6-13.5.7.4-8.6,13.6Z"/>
      <rect id="Rectangle_686" data-name="Rectangle 686" class="cls-5" width="16.6" height="23.6" transform="translate(1124.82 2489.666) rotate(-57.608)"/>
      <path id="Path_1597" data-name="Path 1597" class="cls-5" d="M1133,2475.2l-8.9,14-104.3-66.4,8.9-14Z"/>
    </g>
    <path id="Path_1598" data-name="Path 1598" class="cls-6" d="M1102.6,2579.2c.1-4.7-16.6-8.8-37.4-9.2-20.7-.4-37.6,3.1-37.7,7.8s11.1,8.5,37.4,9.3C1092.9,2587.8,1102.5,2583.9,1102.6,2579.2Z" transform="translate(266.918 224.5)"/>
    <g id="Group_1788" data-name="Group 1788" transform="translate(266.918 224.5)">
      <path id="Path_1599" data-name="Path 1599" class="cls-5" d="M1061.2,2546.7a11.472,11.472,0,0,1-1.9-.1c-9.8-1.5-23.2-9.9-22.9-20.2a98.993,98.993,0,0,1,2.2-17.3c1.3-7.1,2.5-13.1,1.3-22.2-.4-3.4-3.1-8.5-6.2-14.5-8.1-15.7-19.3-37.1-6.2-55.6,10.3-14.5,23.2-21.6,39.4-21.6a86.076,86.076,0,0,1,12.7,1.1c10.9,1.8,20.2,9,27,20.9,12.9,22.8,14.2,58.5,3.1,87-12.3,31.8-38.5,42.5-48.5,42.5Z"/>
      <path id="Path_1600" data-name="Path 1600" class="cls-1" d="M1067,2396.2a86.646,86.646,0,0,1,12.5,1.1c33.6,5.6,46.4,63.1,29.4,106.7-11.8,30.2-37.1,41.7-47.7,41.7a9.14,9.14,0,0,1-1.7-.1c-9.3-1.4-22.4-9.6-22.1-19.2.6-16.5,5.6-23.9,3.6-39.6-1.6-12.6-30.4-44.2-12.5-69.4,11.6-16.5,25.2-21.2,38.5-21.2m0-1.8c-16.6,0-29.8,7.2-40.2,22-6,8.4-7.6,18.2-4.9,29.8,2.2,9.7,7.1,19.2,11,26.7,3,5.9,5.7,10.9,6.1,14.2,1.1,8.9,0,14.9-1.3,21.9a98.966,98.966,0,0,0-2.2,17.4c-.4,10.8,13.5,19.5,23.7,21.1a12.738,12.738,0,0,0,2,.1c10.2,0,36.9-10.8,49.5-42.9,11.2-28.7,9.9-64.8-3.1-87.8-6.9-12.1-16.5-19.5-27.7-21.4a88.667,88.667,0,0,0-12.9-1.1Z"/>
    </g>
    <path id="Path_1601" data-name="Path 1601" class="cls-7" d="M1061.9,2439.7c.3,4.2-1.9,8.4-5.2,8.7s-6.3-2.3-6.7-6.5,2.1-8.5,5.4-8.8S1061.5,2435.5,1061.9,2439.7Z" transform="translate(266.918 224.5)"/>
    <path id="Path_1602" data-name="Path 1602" class="cls-7" d="M1034.6,2444.9c.3,3.3-2,3.9-3.6,4.1-1.7.1-3.2-2.4-3.5-5.7s.9-5.9,2.5-6.2C1032.8,2436.5,1034.4,2441.6,1034.6,2444.9Z" transform="translate(266.918 224.5)"/>
    <g id="Group_1789" data-name="Group 1789" class="cls-8" transform="translate(266.918 224.5)">
      <path id="Path_1603" data-name="Path 1603" class="cls-4" d="M1033.1,2460.4a3.372,3.372,0,0,0,2.5,2,2.514,2.514,0,0,0,1.5-.2,3.806,3.806,0,0,0,1.3-.9,15.384,15.384,0,0,1,1.3-1.2,2.625,2.625,0,0,1,.9-.5c.4-.1.7-.1,1-.2a10.037,10.037,0,0,1,3.5.9c2.1.9,4.2,1.7,6.4,1.4a6.292,6.292,0,0,0,5.1-3.8,6.225,6.225,0,0,1-1.8,3,6.488,6.488,0,0,1-3.2,1.6,10.883,10.883,0,0,1-3.6-.1,25.5,25.5,0,0,1-3.3-1.1,9.48,9.48,0,0,0-3.1-.8,2.011,2.011,0,0,0-1.3.4c-.4.3-.9.7-1.3,1a5.072,5.072,0,0,1-1.6.9,4.061,4.061,0,0,1-1.9,0A3.108,3.108,0,0,1,1033.1,2460.4Z"/>
    </g>
    <path id="Path_1604" data-name="Path 1604" class="cls-9" d="M1083.1,2534.4s8.1,30.7,5.1,39.9c-2.1,6.4-9.7,5.8-9.7,5.8" transform="translate(266.918 224.5)"/>
    <path id="Path_1605" data-name="Path 1605" class="cls-9" d="M1054.2,2537.8s3.2,24.7-3.2,34.3c-2.1,3.2-7.4,4.3-13.5,4.3" transform="translate(266.918 224.5)"/>
    <path id="Path_1606" data-name="Path 1606" class="cls-9" d="M1003.4,2507s18.2-16.1,29.4-19c3-.8,3.7-1.5,10.7.6" transform="translate(266.918 224.5)"/>
    <path id="Path_1607" data-name="Path 1607" class="cls-4" d="M1067.9,2396a97.513,97.513,0,0,1,9.4,6.6c3,2.4,9.8,5.1,13.3,9,2.8,3.1,1.5,6.2,4.3,10.3,4.8,7.2,8.4,13.5,10.9,23.8-3.7-12.9-7.3-18.7-11.9-24.6-3-3.8-6.3-3.3-9.9-6.3-2.2-1.8-4.3-9.6-6.3-11.5a60.6,60.6,0,0,0-10.2-7.3Z" transform="translate(266.918 224.5)"/>
    <g id="Group_1790" data-name="Group 1790" transform="translate(266.918 224.5)">
      <path id="Path_1608" data-name="Path 1608" class="cls-4" d="M1092.5,2425.2c1.3-.3,2.7-.4,4.1-.6,1.4-.1,2.7-.2,4.1-.2-1.3.3-2.7.4-4.1.6C1095.2,2425.1,1093.9,2425.2,1092.5,2425.2Z"/>
    </g>
    <g id="Group_1791" data-name="Group 1791" transform="translate(266.918 224.5)">
      <path id="Path_1609" data-name="Path 1609" class="cls-4" d="M1096.6,2419.7c0,1.6,0,3.1-.1,4.7a34.065,34.065,0,0,1-.5,4.6c0-1.6,0-3.1.1-4.7A37.99,37.99,0,0,1,1096.6,2419.7Z"/>
    </g>
    <g id="Group_1792" data-name="Group 1792" transform="translate(266.918 224.5)">
      <path id="Path_1610" data-name="Path 1610" class="cls-4" d="M1096.1,2430.7a24.738,24.738,0,0,1,3.8-.5c1.3-.1,2.6-.2,3.8-.2a24.738,24.738,0,0,1-3.8.5C1098.6,2430.6,1097.3,2430.7,1096.1,2430.7Z"/>
    </g>
    <g id="Group_1793" data-name="Group 1793" transform="translate(266.918 224.5)">
      <path id="Path_1611" data-name="Path 1611" class="cls-4" d="M1099.9,2425.6a32.336,32.336,0,0,1-.1,4.4,31.474,31.474,0,0,1-.5,4.3,32.336,32.336,0,0,1,.1-4.4A31.465,31.465,0,0,1,1099.9,2425.6Z"/>
    </g>
    <g id="Group_1794" data-name="Group 1794" transform="translate(266.918 224.5)">
      <path id="Path_1612" data-name="Path 1612" class="cls-4" d="M1099.8,2435.1c1,0,2.1.1,3.1.1a16.686,16.686,0,0,1,3.1.5c-1,0-2.1-.1-3.1-.1A15.46,15.46,0,0,1,1099.8,2435.1Z"/>
    </g>
    <g id="Group_1795" data-name="Group 1795" transform="translate(266.918 224.5)">
      <path id="Path_1613" data-name="Path 1613" class="cls-4" d="M1103.6,2431.7c-.2,1.2-.5,2.3-.7,3.4a18.263,18.263,0,0,1-1.1,3.3c.2-1.2.5-2.3.7-3.4C1102.9,2433.9,1103.2,2432.8,1103.6,2431.7Z"/>
    </g>
    <g id="Group_1796" data-name="Group 1796" transform="translate(266.918 224.5)">
      <path id="Path_1614" data-name="Path 1614" class="cls-4" d="M1101.8,2440.3a9.653,9.653,0,0,1,2.4.1,20.053,20.053,0,0,1,2.4.4,9.653,9.653,0,0,1-2.4-.1A6.721,6.721,0,0,1,1101.8,2440.3Z"/>
    </g>
    <g id="Group_1797" data-name="Group 1797" transform="translate(266.918 224.5)">
      <path id="Path_1615" data-name="Path 1615" class="cls-4" d="M1104.8,2437.7a25.584,25.584,0,0,1-.5,2.7,26.749,26.749,0,0,1-.9,2.6,25.584,25.584,0,0,1,.5-2.7A11.418,11.418,0,0,1,1104.8,2437.7Z"/>
    </g>
    <g id="Group_1798" data-name="Group 1798" transform="translate(266.918 224.5)">
      <path id="Path_1616" data-name="Path 1616" class="cls-4" d="M1070.3,2399.7a20.057,20.057,0,0,1,2.6-1,26.789,26.789,0,0,1,2.7-.7,20.057,20.057,0,0,1-2.6,1C1072.1,2399.2,1071.3,2399.5,1070.3,2399.7Z"/>
    </g>
    <g id="Group_1799" data-name="Group 1799" transform="translate(266.918 224.5)">
      <path id="Path_1617" data-name="Path 1617" class="cls-4" d="M1071.5,2396.8c.5.8.9,1.6,1.4,2.4a18.883,18.883,0,0,1,1.1,2.5c-.5-.8-.9-1.6-1.4-2.4A7.956,7.956,0,0,1,1071.5,2396.8Z"/>
    </g>
    <g id="Group_1800" data-name="Group 1800" transform="translate(266.918 224.5)">
      <path id="Path_1618" data-name="Path 1618" class="cls-4" d="M1074.6,2403.2a6.984,6.984,0,0,1,2-.8,16.008,16.008,0,0,1,2.1-.5,6.984,6.984,0,0,1-2,.8A15.964,15.964,0,0,1,1074.6,2403.2Z"/>
    </g>
    <g id="Group_1801" data-name="Group 1801" transform="translate(266.918 224.5)">
      <path id="Path_1619" data-name="Path 1619" class="cls-4" d="M1076,2400a10.265,10.265,0,0,1,.5,2.4,19.426,19.426,0,0,1,.2,2.4,10.265,10.265,0,0,1-.5-2.4A19.418,19.418,0,0,1,1076,2400Z"/>
    </g>
    <path id="Path_1620" data-name="Path 1620" class="cls-4" d="M1093.4,2521a68.464,68.464,0,0,0,3.7-8.1c1.1-2.7,4.5-7.3,5.4-11.3.7-3.2-1.4-4.7-1.2-8.6a53.8,53.8,0,0,0-2-20.2c2.6,10.1,2.4,15.4,1.7,21.1-.5,3.7-2.9,4.7-4.2,8.1-.7,2.1.9,8.1.3,10.2a51.726,51.726,0,0,1-3.9,8.9C1093.1,2521.2,1093.3,2521.1,1093.4,2521Z" transform="translate(266.918 224.5)"/>
    <g id="Group_1802" data-name="Group 1802" transform="translate(266.918 224.5)">
      <path id="Path_1621" data-name="Path 1621" class="cls-4" d="M1098.4,2491.9c.9-.6,1.9-1,2.8-1.5a26.822,26.822,0,0,1,3-1.2c-.9.6-1.9,1-2.8,1.5C1100.4,2491.1,1099.4,2491.6,1098.4,2491.9Z"/>
    </g>
    <g id="Group_1803" data-name="Group 1803" transform="translate(266.918 224.5)">
      <path id="Path_1622" data-name="Path 1622" class="cls-4" d="M1103.3,2493.9a31.517,31.517,0,0,1-2.2-2.9,32.064,32.064,0,0,1-1.9-3.1,31.517,31.517,0,0,1,2.2,2.9C1102,2491.8,1102.7,2492.8,1103.3,2493.9Z"/>
    </g>
    <g id="Group_1804" data-name="Group 1804" transform="translate(266.918 224.5)">
      <path id="Path_1623" data-name="Path 1623" class="cls-4" d="M1098.6,2486.8a13.037,13.037,0,0,1,2.6-1.4,23.316,23.316,0,0,1,2.8-1.1,13.037,13.037,0,0,1-2.6,1.4A23.276,23.276,0,0,1,1098.6,2486.8Z"/>
    </g>
    <g id="Group_1805" data-name="Group 1805" transform="translate(266.918 224.5)">
      <path id="Path_1624" data-name="Path 1624" class="cls-4" d="M1103.2,2488.7a17.13,17.13,0,0,1-2-2.7c-.6-.9-1.2-1.9-1.8-2.9a17.13,17.13,0,0,1,2,2.7A28.2,28.2,0,0,1,1103.2,2488.7Z"/>
    </g>
    <g id="Group_1806" data-name="Group 1806" transform="translate(266.918 224.5)">
      <path id="Path_1625" data-name="Path 1625" class="cls-4" d="M1099.4,2482.3c.6-.6,1.2-1.1,1.8-1.6a22.664,22.664,0,0,1,2-1.3c-.6.6-1.2,1.1-1.8,1.6A8.58,8.58,0,0,1,1099.4,2482.3Z"/>
    </g>
    <g id="Group_1807" data-name="Group 1807" transform="translate(266.918 224.5)">
      <path id="Path_1626" data-name="Path 1626" class="cls-4" d="M1103.3,2483.1a18.093,18.093,0,0,1-2.1-1.8c-.6-.7-1.3-1.3-1.8-2a18.093,18.093,0,0,1,2.1,1.8C1102.1,2481.7,1102.7,2482.4,1103.3,2483.1Z"/>
    </g>
    <g id="Group_1808" data-name="Group 1808" transform="translate(266.918 224.5)">
      <path id="Path_1627" data-name="Path 1627" class="cls-4" d="M1093.6,2517.6a8.932,8.932,0,0,1,2-.6,15.156,15.156,0,0,1,2.1-.3,8.932,8.932,0,0,1-2,.6A7.614,7.614,0,0,1,1093.6,2517.6Z"/>
    </g>
    <g id="Group_1809" data-name="Group 1809" transform="translate(266.918 224.5)">
      <path id="Path_1628" data-name="Path 1628" class="cls-4" d="M1095.5,2519.1a7.614,7.614,0,0,1-.3-2.1,14.724,14.724,0,0,1,0-2.1,7.614,7.614,0,0,1,.3,2.1A14.724,14.724,0,0,1,1095.5,2519.1Z"/>
    </g>
    <g id="Group_1810" data-name="Group 1810" transform="translate(266.918 224.5)">
      <path id="Path_1629" data-name="Path 1629" class="cls-4" d="M1095,2513.6a4.285,4.285,0,0,1,1.6-.5,8.8,8.8,0,0,1,1.7-.2,4.285,4.285,0,0,1-1.6.5A9.866,9.866,0,0,1,1095,2513.6Z"/>
    </g>
    <g id="Group_1811" data-name="Group 1811" transform="translate(266.918 224.5)">
      <path id="Path_1630" data-name="Path 1630" class="cls-4" d="M1097.2,2515.2a9.153,9.153,0,0,1-.9-1.7,12.094,12.094,0,0,1-.5-1.8,9.153,9.153,0,0,1,.9,1.7A6.07,6.07,0,0,1,1097.2,2515.2Z"/>
    </g>
    <g id="Group_1818" data-name="Group 1818" transform="translate(266.918 224.5)">
      <g id="Group_1813" data-name="Group 1813" class="cls-10">
        <path id="Path_1631" data-name="Path 1631" class="cls-4" d="M1121.2,2514.6l-33.3-7.7h0c-1.1-.3-1.7-2.2-1.2-4.3s1.8-3.6,3-3.4h0l33.3,7.7Z"/>
        <path id="Path_1632" data-name="Path 1632" class="cls-11" d="M1113.3,2512.8l-3.1-.7h0c-1.1-.3-1.7-2.2-1.2-4.3s1.8-3.6,3-3.4h0l3.9.9a5.559,5.559,0,0,0-2.4,3.3A8.495,8.495,0,0,0,1113.3,2512.8Z"/>
        <path id="Path_1633" data-name="Path 1633" class="cls-11" d="M1099.6,2509.6l-3.1-.7h0c-1.1-.3-1.7-2.2-1.2-4.3s1.8-3.6,3-3.4h0l3.9.9a5.559,5.559,0,0,0-2.4,3.3A8.421,8.421,0,0,0,1099.6,2509.6Z"/>
        <path id="Path_1634" data-name="Path 1634" class="cls-4" d="M1123,2506.9c-1.1-.3-2.5,1.2-3,3.4-.5,2.1,0,4.1,1.2,4.3,1.1.3,2.5-1.2,3-3.4C1124.7,2509.1,1124.2,2507.2,1123,2506.9Z"/>
        <g id="Group_1812" data-name="Group 1812">
          <path id="Path_1635" data-name="Path 1635" class="cls-12" d="M1122.8,2507.9c-.9-.2-1.9.9-2.3,2.6-.4,1.6,0,3.1.9,3.3s1.9-.9,2.3-2.6S1123.7,2508.1,1122.8,2507.9Z"/>
        </g>
        <path id="Path_1636" data-name="Path 1636" class="cls-13" d="M1121.9,2510.7c4.4.3,4.8-4.3,8.7-5,2.6-.5,1.7,1.8,5.8,2.5"/>
      </g>
      <g id="Group_1817" data-name="Group 1817" class="cls-10">
        <path id="Path_1638" data-name="Path 1638" class="cls-4" d="M1113.2,2502.4l-16.9-2.6h0c-.6-.1-.9-1-.8-2.1.2-1.1.8-1.9,1.4-1.8h0l16.9,2.6Z"/>
        <path id="Path_1639" data-name="Path 1639" class="cls-11" d="M1109.2,2501.8l-1.6-.2h0c-.6-.1-.9-1-.8-2.1.2-1.1.8-1.9,1.4-1.8h0l2,.3a2.883,2.883,0,0,0-1.1,1.7A3.649,3.649,0,0,0,1109.2,2501.8Z"/>
        <path id="Path_1640" data-name="Path 1640" class="cls-11" d="M1102.2,2500.7l-1.6-.3h0c-.6-.1-.9-1-.8-2.1.2-1.1.8-1.9,1.4-1.8h0l2,.3a2.488,2.488,0,0,0-1.1,1.7A5.115,5.115,0,0,0,1102.2,2500.7Z"/>
        <path id="Path_1641" data-name="Path 1641" class="cls-4" d="M1113.8,2498.5c-.6-.1-1.2.7-1.4,1.8s.2,2,.8,2.1,1.2-.7,1.4-1.8C1114.7,2499.5,1114.4,2498.6,1113.8,2498.5Z"/>
        <g id="Group_1816" data-name="Group 1816">
          <ellipse id="Ellipse_312" data-name="Ellipse 312" class="cls-12" cx="1.5" cy="0.8" rx="1.5" ry="0.8" transform="matrix(0.152, -0.988, 0.988, 0.152, 1112.569, 2501.78)"/>
          <g id="Group_1814" data-name="Group 1814" class="cls-14">
            <path id="Path_1642" data-name="Path 1642" class="cls-12" d="M1113.5,2498.8c-.6-.1-1.2.6-1.3,1.5s.2,1.7.8,1.8,1.2-.6,1.3-1.5C1114.5,2499.7,1114.1,2498.9,1113.5,2498.8Z"/>
          </g>
          <g id="Group_1815" data-name="Group 1815" class="cls-14">
            <path id="Path_1643" data-name="Path 1643" class="cls-12" d="M1113.4,2498.9c-.4-.1-.9.5-1,1.4-.1.8.1,1.5.6,1.6.4.1.9-.5,1-1.4C1114.1,2499.7,1113.8,2499,1113.4,2498.9Z"/>
          </g>
        </g>
        <path id="Path_1644" data-name="Path 1644" class="cls-15" d="M1113.4,2500.4c2.2,0,2.2-2.3,4.2-2.8,1.3-.3.9.8,3,1"/>
      </g>
    </g>
    <g id="Group_1825" data-name="Group 1825" transform="translate(266.918 224.5)">
      <g id="Group_1820" data-name="Group 1820" class="cls-16">
        <path id="Path_1646" data-name="Path 1646" class="cls-4" d="M1107.7,2399.7l-23.4,24.9h0c-.8.9-2.7.3-4.3-1.1-1.6-1.5-2.2-3.4-1.4-4.3h0l23.4-24.9Z"/>
        <path id="Path_1647" data-name="Path 1647" class="cls-11" d="M1102.1,2405.7l-2.2,2.3h0c-.8.9-2.8.3-4.3-1.1-1.6-1.5-2.2-3.4-1.4-4.3h0l2.7-2.9a5.583,5.583,0,0,0,1.6,3.7A8.475,8.475,0,0,0,1102.1,2405.7Z"/>
        <path id="Path_1648" data-name="Path 1648" class="cls-11" d="M1092.5,2416l-2.2,2.3h0c-.8.9-2.7.4-4.3-1.1s-2.2-3.4-1.4-4.3h0l2.7-2.9a5.583,5.583,0,0,0,1.6,3.7A9.9,9.9,0,0,0,1092.5,2416Z"/>
        <path id="Path_1649" data-name="Path 1649" class="cls-4" d="M1102,2394.3c-.8.9-.2,2.8,1.4,4.3s3.5,2,4.3,1.1.2-2.8-1.4-4.3C1104.7,2394,1102.8,2393.4,1102,2394.3Z"/>
        <g id="Group_1819" data-name="Group 1819">
          <path id="Path_1650" data-name="Path 1650" class="cls-12" d="M1102.6,2395c-.6.7-.1,2.1,1.1,3.3,1.2,1.1,2.7,1.5,3.3.9.6-.7.1-2.1-1.1-3.2C1104.7,2394.7,1103.3,2394.3,1102.6,2395Z"/>
        </g>
        <path id="Path_1651" data-name="Path 1651" class="cls-13" d="M1104.7,2397.2c2.5-3.7-1.3-6.3,0-10,.9-2.4,2.4-.6,5.1-3.8"/>
      </g>
      <g id="Group_1824" data-name="Group 1824" class="cls-16">
        <path id="Path_1653" data-name="Path 1653" class="cls-4" d="M1093.1,2400.5l-10.7,13.3h0c-.4.5-1.4.3-2.2-.4-.9-.7-1.2-1.6-.9-2.1h0L1090,2398Z"/>
        <path id="Path_1654" data-name="Path 1654" class="cls-11" d="M1090.6,2403.7l-1,1.3h0c-.4.5-1.4.3-2.2-.4s-1.2-1.6-.9-2.1h0l1.3-1.6a2.664,2.664,0,0,0,1,1.8A3.912,3.912,0,0,0,1090.6,2403.7Z"/>
        <path id="Path_1655" data-name="Path 1655" class="cls-11" d="M1086.2,2409.2l-1,1.3h0c-.4.5-1.4.3-2.2-.4-.9-.7-1.2-1.6-.9-2.1h0l1.3-1.6a2.664,2.664,0,0,0,1,1.8A3.912,3.912,0,0,0,1086.2,2409.2Z"/>
        <path id="Path_1656" data-name="Path 1656" class="cls-4" d="M1090,2398.1c-.4.5,0,1.4.9,2.1s1.8.9,2.2.4,0-1.4-.9-2.1C1091.4,2397.8,1090.4,2397.6,1090,2398.1Z"/>
        <g id="Group_1823" data-name="Group 1823">
          <path id="Path_1657" data-name="Path 1657" class="cls-12" d="M1090.4,2398.4c-.3.4,0,1.1.7,1.6.6.5,1.4.7,1.7.3s0-1.1-.7-1.6C1091.4,2398.1,1090.7,2398,1090.4,2398.4Z"/>
          <g id="Group_1821" data-name="Group 1821" class="cls-17">
            <path id="Path_1658" data-name="Path 1658" class="cls-12" d="M1090.1,2398.5c-.4.5-.1,1.3.6,1.9s1.6.7,2,.2.1-1.3-.6-1.9S1090.5,2398,1090.1,2398.5Z"/>
          </g>
          <g id="Group_1822" data-name="Group 1822" class="cls-18" transform="translate(1089.827 2399.241) rotate(-51.084)">
            <ellipse id="Ellipse_315" data-name="Ellipse 315" class="cls-12" cx="0.8" cy="1.5" rx="0.8" ry="1.5"/>
          </g>
        </g>
        <path id="Path_1661" data-name="Path 1661" class="cls-15" d="M1091.5,2399.4c1.1-1.9-.9-3.1-.4-5,.3-1.3,1.2-.4,2.4-2.1"/>
      </g>
    </g>
    <g id="Group_1826" data-name="Group 1826" transform="translate(266.918 224.5)">
      <path id="Path_1663" data-name="Path 1663" class="cls-4" d="M1058.3,2447.6l.1-1.4.1.1-.8-.1h-.1l.2-1.5-.1,1.5v-.1l.8-.1h.1v.2l.1,1.4Z"/>
    </g>
    <g id="Group_1827" data-name="Group 1827" transform="translate(266.918 224.5)">
      <path id="Path_1664" data-name="Path 1664" class="cls-4" d="M1058,2434.5l-.9,1v-.1l.6.5.1.1h-.1l-1,1,.9-1.1v.1l-.6-.4-.1-.1v-.1l.8-1.2Z"/>
    </g>
    <g id="Group_1828" data-name="Group 1828" transform="translate(266.918 224.5)">
      <path id="Path_1665" data-name="Path 1665" class="cls-4" d="M1051.2,2437.6l1.1.9h-.1l.5-.6v-.1l.1.1,1,1-1.1-.9h.1l-.5.7v.1l-.1-.1-1.2-.8Z"/>
    </g>
    <g id="Group_1829" data-name="Group 1829" transform="translate(266.918 224.5)">
      <path id="Path_1666" data-name="Path 1666" class="cls-4" d="M1049.7,2442.7l1.7.3-.1.1.5-1.5.1-.1v.1l1.7.1h-.1l.5-.6-.4.6v.1h0l-1.7-.1.1-.1-.5,1.6v.1l-.1-.1-1.8-.2Z"/>
    </g>
    <g id="Group_1830" data-name="Group 1830" transform="translate(266.918 224.5)">
      <path id="Path_1667" data-name="Path 1667" class="cls-4" d="M1054.4,2447.3l.9-1.1v.1l-.7-.5h0v-.1l1-1-.9,1.1v-.1l.7.4.1.1-.1.1-.7,1.2Z"/>
    </g>
    <g id="Group_1831" data-name="Group 1831" transform="translate(266.918 224.5)">
      <path id="Path_1668" data-name="Path 1668" class="cls-4" d="M1062.3,2442.8l-1.2-1.4.2.1-1.4.8h-.1l-1.2-1.1h.1l-.8.2.8-.3h0l1.2,1.1h0l1.2-.9.1-.1.1.1,1.3,1.2Z"/>
    </g>
    <g id="Group_1832" data-name="Group 1832" transform="translate(266.918 224.5)">
      <path id="Path_1669" data-name="Path 1669" class="cls-4" d="M1061,2436.4l-1.4.4.1-.2.2.8v.1h0l-1.4.3,1.3-.4v.1l-.3-.8-.1-.1h.2l1.3-.6Z"/>
    </g>
    <g id="Group_1833" data-name="Group 1833" transform="translate(266.918 224.5)">
      <path id="Path_1670" data-name="Path 1670" class="cls-4" d="M1053.6,2434.4l.4,1.3h-.1l.8-.3h.1v.1l.3,1.4-.4-1.4v.1l-.7.3h-.1l-.1-.1-.5-1.3Z"/>
    </g>
    <g id="Group_1834" data-name="Group 1834" transform="translate(266.918 224.5)">
      <path id="Path_1671" data-name="Path 1671" class="cls-4" d="M1032.5,2448.1v-1l.1.1h-.6v-.1l.2-.9v.9h-.1l.5-.1h.1v.1l.1,1Z"/>
    </g>
    <g id="Group_1835" data-name="Group 1835" transform="translate(266.918 224.5)">
      <path id="Path_1672" data-name="Path 1672" class="cls-4" d="M1027.7,2440.7l.6.6h-.1l.3-.4.1-.1.1.1.6.7-.7-.6h.1l-.3.4-.1.1h-.1l-.8-.5Z"/>
    </g>
    <g id="Group_1836" data-name="Group 1836" transform="translate(266.918 224.5)">
      <path id="Path_1673" data-name="Path 1673" class="cls-4" d="M1027.5,2444.4l1.2.2-.1.1.3-1h.1l1.1.1h-.1l.4-.4-.3.4h-1l-.3.9v.1h-.1l-1.2-.1Z"/>
    </g>
    <g id="Group_1837" data-name="Group 1837" transform="translate(266.918 224.5)">
      <path id="Path_1674" data-name="Path 1674" class="cls-4" d="M1029.7,2447l.5-.7.1.2-.5-.4h0v-.1l.6-.6-.5.7v-.1l.5.3h.1l-.1.1-.4.8Z"/>
    </g>
    <g id="Group_1838" data-name="Group 1838" transform="translate(266.918 224.5)">
      <path id="Path_1675" data-name="Path 1675" class="cls-4" d="M1034.2,2444.2l-.8-.9h.2l-.9.5h-.1l-.7-.7h0l-.5.1.5-.2h0l.8.7h-.1l.9-.6v-.1l.1.1.9.8Z"/>
    </g>
    <g id="Group_1839" data-name="Group 1839" transform="translate(266.918 224.5)">
      <path id="Path_1676" data-name="Path 1676" class="cls-4" d="M1032.9,2439.9l-.9.2.1-.1.2.5v.1h-.1l-.9.2.9-.3-.1.1-.2-.5v-.1l.1-.1.8-.3Z"/>
    </g>
    <g id="Group_1840" data-name="Group 1840" transform="translate(266.918 224.5)">
      <path id="Path_1677" data-name="Path 1677" class="cls-4" d="M1029.2,2438.6l.3.9h-.2l.6-.2h.1l.1,1-.3-.9h.1l-.5.3h-.1v-.1l-.4-.8Z"/>
    </g>
    <path id="Path_1678" data-name="Path 1678" class="cls-4" d="M1068.5,2498.9c-.6,1.2,2.1,4.7,1.6,5.6-1.1,2.2-1.3,3.5.5,3.5,2.4.1.7-4,4.4-3.9a4.1,4.1,0,0,1,3.4,2.7c.8,2.6,2.3,3.7,3.2,1.5,1.7-3.6.9-10-3.8-10.3C1073.2,2497.7,1070.3,2495.2,1068.5,2498.9Z" transform="translate(266.918 224.5)"/>
    <path id="Path_1679" data-name="Path 1679" class="cls-4" d="M1081.6,2516.9a2.009,2.009,0,1,1-4,0c0-1.4.9-3.6,2-3.6S1081.6,2515.5,1081.6,2516.9Z" transform="translate(266.918 224.5)"/>
    <circle id="Ellipse_316" data-name="Ellipse 316" class="cls-5" cx="22.2" cy="22.2" r="22.2" transform="translate(1396.918 2576.7)"/>
    <path id="Path_1680" data-name="Path 1680" class="cls-5" d="M1120.1,2306.2a16.3,16.3,0,0,1,.8-20.8,18.748,18.748,0,0,0-6.2,3,17.331,17.331,0,0,0,21.1,27.5,15.986,15.986,0,0,0,4.5-5.2A15.913,15.913,0,0,1,1120.1,2306.2Z" transform="translate(266.918 224.5)"/>
    <circle id="Ellipse_317" data-name="Ellipse 317" class="cls-1" cx="2" cy="2" r="2" transform="translate(1391.518 2588.4)"/>
    <path id="Path_1681" data-name="Path 1681" class="cls-1" d="M1169.7,2369.2l-17.8,5.8-.3-.8,17.8-5.8Z" transform="translate(266.918 224.5)"/>
    <path id="Path_1682" data-name="Path 1682" class="cls-1" d="M1160.7,2384.8l-9.1-10.1.8-.7,9,10.2Z" transform="translate(266.918 224.5)"/>
    <g id="Group_1842" data-name="Group 1842" transform="translate(266.918 224.5)">
      <g id="Group_1841" data-name="Group 1841">
        <rect id="Rectangle_687" data-name="Rectangle 687" class="cls-5" width="6.4" height="69.9" transform="translate(994.514 2446.776) rotate(-14.448)"/>
        <path id="Path_1683" data-name="Path 1683" class="cls-5" d="M994.3,2448.5a1.371,1.371,0,0,0-1.7-1l-9.5,3.6a1.371,1.371,0,0,0-1,1.7l.4,1.4L995,2451Z"/>
        <rect id="Rectangle_688" data-name="Rectangle 688" class="cls-5" width="0.5" height="14.8" transform="translate(996.188 2458.264) rotate(-14.466)"/>
        <path id="Path_1684" data-name="Path 1684" class="cls-5" d="M1009.3,2471.1l-1.1.3-3.7-14.4,1.1-.3Z"/>
        <rect id="Rectangle_689" data-name="Rectangle 689" class="cls-5" width="3.9" height="5.6" transform="translate(992.359 2459.132) rotate(-14.555)"/>
        <path id="Path_1685" data-name="Path 1685" class="cls-5" d="M992,2459.3l-7.7,2,.3,1.2a1.371,1.371,0,0,0,1.7,1l6.7-.2Z"/>
        <path id="Path_1686" data-name="Path 1686" class="cls-5" d="M999.4,2469.5h0a1.6,1.6,0,0,0-1.1,1.9,1.548,1.548,0,0,0,1.9,1.1h0Z"/>
        <path id="Path_1687" data-name="Path 1687" class="cls-5" d="M1009,2453.9l-5,1.3.7,2.5h0c2.3-.5,4.3-3,4.3-3.8Z"/>
        <path id="Path_1688" data-name="Path 1688" class="cls-5" d="M1001.5,2445.9h0l.7,2.5,5-1.3h0C1006.8,2446.5,1003.9,2445.3,1001.5,2445.9Z"/>
        <path id="Path_1689" data-name="Path 1689" class="cls-5" d="M1018.7,2520.2l-.6.1-3-11.7.6-.2Z"/>
        <path id="Path_1690" data-name="Path 1690" class="cls-5" d="M1012.9,2513.1c0,.2-.1.4-.3.4s-.4-.1-.4-.3c-.1-.2.1-.4.3-.4S1012.9,2512.9,1012.9,2513.1Z"/>
        <path id="Path_1691" data-name="Path 1691" class="cls-5" d="M1017.5,2512c0,.2-.1.4-.3.4s-.4-.1-.4-.3.1-.4.3-.4C1017.2,2511.7,1017.4,2511.9,1017.5,2512Z"/>
        <path id="Path_1692" data-name="Path 1692" class="cls-5" d="M1008.9,2463.6a.366.366,0,0,1-.4.4l-.4.1c-.2.1-.5,0-.5-.2l-.3-1a.366.366,0,0,1,.4-.4l.4-.1c.3-.1.5,0,.5.2Z"/>
        <path id="Path_1693" data-name="Path 1693" class="cls-5" d="M997.7,2450.3l-1.7.5v-.1l1.7-.5Z"/>
        <path id="Path_1694" data-name="Path 1694" class="cls-5" d="M997.2,2451.9l-.8.2-.1-.1.9-.2Z"/>
        <path id="Path_1695" data-name="Path 1695" class="cls-5" d="M997.6,2453.2l-.9.2v-.1l.8-.2Z"/>
        <path id="Path_1696" data-name="Path 1696" class="cls-5" d="M997.9,2454.6l-.8.2-.1-.1.9-.2Z"/>
        <path id="Path_1697" data-name="Path 1697" class="cls-5" d="M998.3,2455.9l-.9.2v-.1l.8-.2Z"/>
        <path id="Path_1698" data-name="Path 1698" class="cls-5" d="M999.5,2457.1l-1.7.4-.1-.1,1.7-.5Z"/>
        <path id="Path_1699" data-name="Path 1699" class="cls-5" d="M998.9,2458.6l-.8.2v-.1l.8-.2Z"/>
        <path id="Path_1700" data-name="Path 1700" class="cls-5" d="M999.3,2460l-.9.2v-.1l.9-.2Z"/>
        <path id="Path_1701" data-name="Path 1701" class="cls-5" d="M999.6,2461.3l-.8.2v-.1l.8-.2Z"/>
        <path id="Path_1702" data-name="Path 1702" class="cls-5" d="M1000,2462.7l-.9.2v-.1l.9-.3Z"/>
        <path id="Path_1703" data-name="Path 1703" class="cls-5" d="M1001.2,2463.8l-1.7.4v-.1l1.7-.4Z"/>
        <path id="Path_1704" data-name="Path 1704" class="cls-5" d="M1000.7,2465.3l-.9.3v-.1l.9-.3Z"/>
        <path id="Path_1705" data-name="Path 1705" class="cls-5" d="M1001,2466.7l-.8.2-.1-.1.9-.2Z"/>
        <path id="Path_1706" data-name="Path 1706" class="cls-5" d="M1001.4,2468l-.9.2v-.1l.8-.2Z"/>
        <path id="Path_1707" data-name="Path 1707" class="cls-5" d="M1001.7,2469.4l-.8.2-.1-.1.9-.2Z"/>
        <path id="Path_1708" data-name="Path 1708" class="cls-5" d="M1002.9,2470.5l-1.7.4v-.1l1.7-.4Z"/>
        <path id="Path_1709" data-name="Path 1709" class="cls-5" d="M1002.4,2472.1l-.8.2-.1-.1.9-.2Z"/>
        <path id="Path_1710" data-name="Path 1710" class="cls-5" d="M1002.8,2473.4l-.9.2v-.1l.8-.2Z"/>
        <path id="Path_1711" data-name="Path 1711" class="cls-5" d="M1003.1,2474.8l-.8.2-.1-.1.9-.2Z"/>
        <path id="Path_1712" data-name="Path 1712" class="cls-5" d="M1003.5,2476.1l-.9.2v-.1l.8-.2Z"/>
        <path id="Path_1713" data-name="Path 1713" class="cls-5" d="M1004.7,2477.2l-1.8.5v-.1l1.7-.5Z"/>
        <rect id="Rectangle_690" data-name="Rectangle 690" class="cls-5" width="0.9" height="0.1" transform="translate(1003.333 2478.91) rotate(-14.306)"/>
        <path id="Path_1714" data-name="Path 1714" class="cls-5" d="M1004.5,2480.1l-.9.3v-.1l.9-.3Z"/>
        <path id="Path_1715" data-name="Path 1715" class="cls-5" d="M1004.8,2481.5l-.8.2v-.1l.8-.2Z"/>
        <path id="Path_1716" data-name="Path 1716" class="cls-5" d="M1005.2,2482.8l-.9.3v-.1l.9-.3Z"/>
        <path id="Path_1717" data-name="Path 1717" class="cls-5" d="M1006.4,2484l-1.7.4v-.1l1.7-.4Z"/>
        <path id="Path_1718" data-name="Path 1718" class="cls-5" d="M1005.9,2485.5l-.9.2v-.1l.9-.2Z"/>
        <rect id="Rectangle_691" data-name="Rectangle 691" class="cls-5" width="0.9" height="0.1" transform="matrix(0.969, -0.249, 0.249, 0.969, 1005.375, 2487.092)"/>
        <path id="Path_1719" data-name="Path 1719" class="cls-5" d="M1006.6,2488.2l-.9.2v-.1l.9-.2Z"/>
        <rect id="Rectangle_692" data-name="Rectangle 692" class="cls-5" width="0.9" height="0.1" transform="translate(1005.961 2489.849) rotate(-14.217)"/>
        <path id="Path_1720" data-name="Path 1720" class="cls-5" d="M1008.1,2490.7l-1.7.4v-.1l1.7-.4Z"/>
        <path id="Path_1721" data-name="Path 1721" class="cls-5" d="M1007.6,2492.3l-.8.2-.1-.1.9-.2Z"/>
        <rect id="Rectangle_693" data-name="Rectangle 693" class="cls-5" width="0.9" height="0.1" transform="matrix(0.968, -0.251, 0.251, 0.968, 1007.177, 2493.764)"/>
        <path id="Path_1722" data-name="Path 1722" class="cls-5" d="M1008.3,2495l-.8.2-.1-.1.9-.3Z"/>
        <path id="Path_1723" data-name="Path 1723" class="cls-5" d="M1008.7,2496.3l-.9.2v-.1l.8-.2Z"/>
        <path id="Path_1724" data-name="Path 1724" class="cls-5" d="M1009.9,2497.4l-1.7.5-.1-.1,1.7-.5Z"/>
        <path id="Path_1725" data-name="Path 1725" class="cls-5" d="M1009.4,2499l-.9.2v-.1l.8-.2Z"/>
        <path id="Path_1726" data-name="Path 1726" class="cls-5" d="M1009.7,2500.3l-.9.3v-.2l.9-.2Z"/>
        <path id="Path_1727" data-name="Path 1727" class="cls-5" d="M1010,2501.7l-.8.2v-.1l.8-.2Z"/>
        <path id="Path_1728" data-name="Path 1728" class="cls-5" d="M1010.4,2503l-.9.2v-.1l.9-.2Z"/>
        <path id="Path_1729" data-name="Path 1729" class="cls-5" d="M1011.6,2504.1l-1.7.5v-.1l1.7-.5Z"/>
        <path id="Path_1730" data-name="Path 1730" class="cls-5" d="M1011.1,2505.7l-.9.2v-.1l.9-.2Z"/>
        <path id="Path_1731" data-name="Path 1731" class="cls-5" d="M1011.4,2507.1l-.8.2v-.1l.8-.2Z"/>
        <path id="Path_1732" data-name="Path 1732" class="cls-5" d="M1011.8,2508.4l-.9.2v-.1l.9-.2Z"/>
        <path id="Path_1733" data-name="Path 1733" class="cls-5" d="M1012.1,2509.8l-.8.2-.1-.1.9-.3Z"/>
        <path id="Path_1734" data-name="Path 1734" class="cls-5" d="M1013.3,2510.9l-1.7.4v-.1l1.7-.4Z"/>
      </g>
    </g>
    <g id="Group_1844" data-name="Group 1844" transform="translate(266.918 224.5)">
      <path id="Path_1735" data-name="Path 1735" class="cls-4" d="M1036.8,2494c1.1,1.5-.3,4.2-3.1,6.1s-5.9,2.3-7,.8.3-4.2,3.1-6.1S1035.7,2492.5,1036.8,2494Z"/>
      <path id="Path_1736" data-name="Path 1736" class="cls-4" d="M1054.5,2518.4l-10.6,7.5s-16.5-23.2-16.7-23.4.1-.5-.1-.7a1.4,1.4,0,0,0-.4-.4l10.2-7.2a3.206,3.206,0,0,0,.3.5c.1.1.5.1.6.3C1038,2495.1,1054.5,2518.4,1054.5,2518.4Z"/>
      <path id="Path_1737" data-name="Path 1737" class="cls-4" d="M1054.9,2518.9l-10.6,7.5-.4-.5,10.6-7.5Z"/>
      <path id="Path_1738" data-name="Path 1738" class="cls-4" d="M1036.7,2493.6l-10.3,7.3.3.4,10.3-7.3Z"/>
      <path id="Path_1739" data-name="Path 1739" class="cls-4" d="M1032.6,2492.9c-.2.1-5.4,3.8-5.6,3.9-.1.1-.2.2-.1.4a4.007,4.007,0,0,1,.3.4l6.1-4.2a1.868,1.868,0,0,1-.3-.4C1032.9,2492.8,1032.7,2492.7,1032.6,2492.9Z"/>
      <path id="Path_1740" data-name="Path 1740" class="cls-4" d="M1031.4,2493c-.1.1-3.7,2.6-3.8,2.6a.188.188,0,0,0,0,.3,1.441,1.441,0,0,1,.2.3l4.1-2.9a1.441,1.441,0,0,0-.2-.3A.187.187,0,0,0,1031.4,2493Z"/>
      <g id="Group_1843" data-name="Group 1843">
        <path id="Path_1741" data-name="Path 1741" class="cls-4" d="M1031.2,2493.3a.247.247,0,0,1-.1.4l-2.6,1.8a.247.247,0,0,1-.4-.1l-1.3-1.8a.247.247,0,0,1,.1-.4l2.6-1.8a.247.247,0,0,1,.4.1Z"/>
      </g>
      <circle id="Ellipse_318" data-name="Ellipse 318" class="cls-4" cx="0.5" cy="0.5" r="0.5" transform="matrix(0.992, -0.123, 0.123, 0.992, 1028.408, 2493.096)"/>
    </g>
    <path id="Path_1742" data-name="Path 1742" class="cls-7" d="M1034.1,2516.9s18.2-16.1,29.4-19c3-.8,3.7-1.5,10.7.6" transform="translate(266.918 224.5)"/>
  </g>
</svg>
