<svg id="btn_play" xmlns="http://www.w3.org/2000/svg" width="28" height="28" viewBox="0 0 28 28">
  <circle id="Containter" cx="14" cy="14" r="14" transform="translate(0 0)" fill="#fff"/>
  <path id="play-circle" d="M14,.25a13.474,13.474,0,0,1,9.9,4.108A13.5,13.5,0,0,1,28,14.25a13.5,13.5,0,0,1-4.1,9.892A13.474,13.474,0,0,1,14,28.25a13.474,13.474,0,0,1-9.9-4.108A13.5,13.5,0,0,1,0,14.25,13.5,13.5,0,0,1,4.1,4.358,13.477,13.477,0,0,1,14,.25ZM11.213,20.56l8.394-6.31L11.213,7.94Z" transform="translate(0 -0.25)" fill="#008cff"/>
</svg>
