<svg xmlns="http://www.w3.org/2000/svg" width="216.953" height="18.1" viewBox="0 0 216.953 18.1">
  <g id="footer_text" transform="translate(-29.52 -3.9)">
    <path id="Path_6992" data-name="Path 6992" d="M-131.4-12.595q0,.158-.141.158l-2.32-.035h-.633v9.158l.018,2.452A2.656,2.656,0,0,1-134.6.07a1.119,1.119,0,0,1-.378.492,4.383,4.383,0,0,1-2.241.343h-.448q-.281,0-.334-.062a.789.789,0,0,1-.1-.3,2.684,2.684,0,0,0-.343-.853,15.819,15.819,0,0,0,1.872.1,1.113,1.113,0,0,0,.791-.193,1.04,1.04,0,0,0,.167-.694V-12.472h-2.215l-2.338.035q-.132,0-.132-.158v-.782q0-.158.132-.158l2.338.035h3.964l2.32-.035q.141,0,.141.158ZM-141.513.853q0,.141-.149.141h-.756a.124.124,0,0,1-.141-.141V.237h-3.059v.94a.124.124,0,0,1-.141.141h-.756q-.149,0-.149-.141l.035-2.646V-2.575l-.035-1.564a.124.124,0,0,1,.141-.141l1.608.035h1.635l1.626-.035a.124.124,0,0,1,.141.141l-.035,1.283v1.169Zm-1.046-1.494V-3.366h-3.059V-.642Zm1.784-10.063q0,.158-.141.158l-1.925-.035h-2.628l-1.934.035q-.141,0-.141-.158v-.747a.124.124,0,0,1,.141-.141l1.934.035h2.628l1.925-.035a.124.124,0,0,1,.141.141Zm-.826-2.487q0,.141-.149.141l-1.6-.035h-1.529l-1.6.035q-.149,0-.149-.141v-.721q0-.141.149-.141l1.6.035h1.529l1.6-.035q.149,0,.149.141Zm-.088,7.321q0,.149-.167.149l-1.494-.035h-1.494l-1.512.035q-.141,0-.141-.149v-.7a.124.124,0,0,1,.141-.141l1.512.035h1.494l1.494-.035q.167,0,.167.141Zm0-2.391q0,.141-.167.141l-1.494-.035h-1.494l-1.512.035a.124.124,0,0,1-.141-.141v-.7a.124.124,0,0,1,.141-.141l1.512.035h1.494l1.494-.035q.167,0,.167.141Zm27.281-3.507V-3.4l.053,2.7A1.7,1.7,0,0,1-114.82.668a1.53,1.53,0,0,1-.686.29,9.294,9.294,0,0,1-1.354.07.788.788,0,0,1-.387-.053.641.641,0,0,1-.114-.308,2.937,2.937,0,0,0-.272-.686,4.694,4.694,0,0,1-1.424.158,3.669,3.669,0,0,1-1.67-.237.959.959,0,0,1-.325-.861V-3.023h-1.564a3.75,3.75,0,0,1-.949,2.285A5.458,5.458,0,0,1-125.859.536a1.254,1.254,0,0,1-.229.053q-.1,0-.255-.246a1.856,1.856,0,0,0-.519-.483,5.866,5.866,0,0,0,2.487-1.187,2.7,2.7,0,0,0,.782-1.7q-.58.009-1.02.026-.1,0-.229.009h-.062q-.167,0-.167-.158l.035-1.116v-.853q0-.536-.018-.721a10.866,10.866,0,0,1-1.055.905.473.473,0,0,1-.237.123q-.062,0-.237-.193a1.788,1.788,0,0,0-.519-.422,7.342,7.342,0,0,0,2.25-2.048,3.072,3.072,0,0,0,.5-1.1q.343.123.861.36.22.1.22.237a.333.333,0,0,1-.176.255,2.166,2.166,0,0,0-.492.536q-.22.316-.606.809l1.6.018h2.268l1.617-.018a6.083,6.083,0,0,1-1.257-1.723h-1.274l-1.011.035q-.158,0-.158-.167V-8.8q0-.167.158-.167l1.011.035h.791l1.081-.035q.062,0,.088.158a2.688,2.688,0,0,0,.4.773,6.618,6.618,0,0,0,2.865,2.294,2.627,2.627,0,0,0-.545.5q-.167.193-.255.193a.507.507,0,0,1-.246-.105,10.121,10.121,0,0,1-1.151-.791l-.018.826v.853l.035,1.116q0,.158-.167.158L-118.881-3q-.519-.018-1.213-.026v1.837q0,.308.2.387a2.867,2.867,0,0,0,.853.079q.949,0,1.116-.193a2.7,2.7,0,0,0,.272-1.424,2.258,2.258,0,0,0,.6.325q.29.105.29.272,0,.035-.009.158a1.979,1.979,0,0,1-.466,1.362.833.833,0,0,1-.246.149,10.61,10.61,0,0,0,1.134.053q.571,0,.729-.193a1.113,1.113,0,0,0,.149-.686V-9.7H-118.8l-1.969.035a.124.124,0,0,1-.141-.141l.044-1.441V-12.9l-.044-1.45a.124.124,0,0,1,.141-.141l1.969.035h2.32l1.969-.035a.124.124,0,0,1,.141.141ZM-119.522-3.8V-5.563h-4.57V-3.8Zm-.325-6.7h4.377v-1.222h-4.377Zm0-2.013h4.377v-1.143h-4.377Zm-8.06,2.8v7.022l.035,3.814q0,.149-.141.149h-.853q-.141,0-.141-.149l.035-3.814v-7.813l-.035-3.858a.124.124,0,0,1,.141-.141l2.057.035h2.232l1.854-.035q.123,0,.123.141l-.035,1.538v1.477l.035,1.529q0,.141-.123.141l-1.854-.035Zm0-2.8h4.245v-1.143h-4.245Zm0,.791v1.222h4.245v-1.222ZM-148.676,2h36V3h-36Zm36,0H-108V3h-4.676Zm21.287-6.605a.124.124,0,0,1-.141.141l-2.4-.035h-4.351l-2.435.035a.124.124,0,0,1-.141-.141l.035-1.767V-8.8a11.835,11.835,0,0,1-.826.958q-.2.193-.255.193t-.229-.2a1.544,1.544,0,0,0-.439-.378,8.653,8.653,0,0,0,2.057-2.61,3.829,3.829,0,0,0,.325-.914,5.63,5.63,0,0,1,.817.246q.22.079.22.2,0,.088-.158.193a1,1,0,0,0-.272.343q-.114.229-.176.325h3.023l.325-.554a2.333,2.333,0,0,0,.229-.7q.466.1.888.229.176.053.176.167,0,.079-.123.176a.938.938,0,0,0-.255.272l-.272.413h1.714l2.232-.035a.124.124,0,0,1,.141.141v.527a.124.124,0,0,1-.141.141L-94.052-9.7H-95.8v.993h.993l2.373-.035q.167,0,.167.141v.475q0,.141-.167.141l-2.373-.035H-95.8V-7h.993l2.373-.035q.167,0,.167.141v.475q0,.141-.167.141l-2.373-.035H-95.8v1.063h1.872l2.4-.035a.124.124,0,0,1,.141.141Zm-5.344-.65V-6.319h-3.146v1.063Zm0-1.749v-1.02h-3.146V-7Zm0-1.705V-9.7h-3.146v.993Zm-5-5.388a.231.231,0,0,1-.141.22,2.858,2.858,0,0,0-.51.615,15.038,15.038,0,0,1-1.371,1.96,20.426,20.426,0,0,1,1.178,7.664A8.229,8.229,0,0,1-103.21.246a1.761,1.761,0,0,1-1.635.853q-.378,0-1.028-.035-.211-.026-.255-.088a.987.987,0,0,1-.088-.29,2.051,2.051,0,0,0-.325-.791,11.754,11.754,0,0,0,1.547.123,1.081,1.081,0,0,0,1.081-.738,8.636,8.636,0,0,0,.325-2.865q0-1.837-.123-3.164a12.42,12.42,0,0,1-2.725,3.384.516.516,0,0,1-.229.141q-.07,0-.2-.229a1.944,1.944,0,0,0-.413-.562,12.888,12.888,0,0,0,3.4-4.122,12.532,12.532,0,0,0-.615-2.373,14.387,14.387,0,0,1-1.872,1.529.627.627,0,0,1-.264.141q-.105,0-.255-.255a1.634,1.634,0,0,0-.413-.483,14.951,14.951,0,0,0,2.373-1.925,13.361,13.361,0,0,0-.932-1.564q-.176-.255-.51-.65a.26.26,0,0,1-.07-.132q0-.053.185-.149l.5-.272a.3.3,0,0,1,.141-.053q.079,0,.185.141a14.225,14.225,0,0,1,1.2,1.89,10.476,10.476,0,0,0,1.116-1.67,4.25,4.25,0,0,0,.343-.87,5.451,5.451,0,0,1,.888.527A.3.3,0,0,1-101.733-14.1ZM-90.633.255a2.7,2.7,0,0,0-.448.65q-.132.3-.264.3a1.435,1.435,0,0,1-.2-.026A15.845,15.845,0,0,1-96.53-.229a18.373,18.373,0,0,1-5.062,1.477,1.871,1.871,0,0,1-.193.018q-.141,0-.29-.29a2.264,2.264,0,0,0-.448-.58,19.786,19.786,0,0,0,5-1.187,8.875,8.875,0,0,1-2.215-1.978q-.686.009-1.213.026l-.369.009q-.141,0-.141-.158v-.58a.124.124,0,0,1,.141-.141l2.3.035h4.808a.7.7,0,0,0,.378-.07.568.568,0,0,1,.211-.035q.2,0,.545.343.29.281.29.413t-.22.229a6.435,6.435,0,0,0-.624.527,14.089,14.089,0,0,1-1.9,1.38A17.141,17.141,0,0,0-90.633.255ZM-94.28-2.769h-4.307a7.735,7.735,0,0,0,2.074,1.547A9.432,9.432,0,0,0-94.28-2.769Zm3.419-9.87q0,.141-.149.141l-2.514-.035h-.721l.035.844q0,.167-.141.167h-.721q-.149,0-.149-.167,0-.009.009-.264.018-.272.026-.58h-2.821l.035.826q0,.167-.149.167h-.712q-.149,0-.149-.167,0-.018.009-.264.018-.264.026-.562h-.343l-2.5.035q-.149,0-.149-.141v-.65q0-.123.149-.123l2.5.035h.343a8.507,8.507,0,0,0-.105-1.5q.457.018,1.028.088.176.026.176.176a.937.937,0,0,1-.07.237,3.385,3.385,0,0,0-.088,1h2.821a8.379,8.379,0,0,0-.105-1.485q.457.018,1.028.088.176.026.176.176a.821.821,0,0,1-.07.237,3.293,3.293,0,0,0-.088.984h.721l2.514-.035q.149,0,.149.123Zm15.855,4q0,.141-.149.141l-2.171-.035H-80.4l-2.162.035a.124.124,0,0,1-.141-.141l.035-1.6v-2.145l-.035-1.626a.124.124,0,0,1,.141-.141l2.162.035h3.076l2.171-.035q.149,0,.149.141l-.035,1.626v2.145Zm-1.063-.773v-1.494h-5.6v1.494Zm0-2.338v-1.485h-5.6v1.485Zm2.786,7.778a.124.124,0,0,1-.141.141l-2.391-.035v1.222L-75.8-.36a1.246,1.246,0,0,1-.51,1.151,5.779,5.779,0,0,1-2.3.272q-.264,0-.316-.062A.741.741,0,0,1-79.04.686a2.514,2.514,0,0,0-.36-.773,15.914,15.914,0,0,0,1.661.1q.158,0,.264-.009a.567.567,0,0,0,.6-.65V-3.867h-5.1l-2.5.035q-.149,0-.149-.141v-.721q0-.141.149-.141l2.5.035h5.1V-6.354h-4.913l-2.5.035a.124.124,0,0,1-.141-.141v-.721a.124.124,0,0,1,.141-.141l2.5.035h5.81l2.522-.035a.124.124,0,0,1,.141.141v.721a.124.124,0,0,1-.141.141l-2.355-.035V-4.8l2.391-.035a.124.124,0,0,1,.141.141Zm-11.021-6.3a.265.265,0,0,1-.149.211,1.44,1.44,0,0,0-.431.545q-.334.606-.879,1.415v6.882l.035,2.355q0,.141-.149.141h-.844a.124.124,0,0,1-.141-.141l.035-2.355v-3.3q0-.2.053-2.25a17.937,17.937,0,0,1-1.679,1.714.531.531,0,0,1-.281.158q-.088,0-.185-.22a1.335,1.335,0,0,0-.448-.606,14.693,14.693,0,0,0,3.639-4.43,4,4,0,0,0,.343-.9,7.622,7.622,0,0,1,.9.519Q-84.3-10.4-84.3-10.274Zm-.149-3.744q0,.1-.167.193a1.688,1.688,0,0,0-.448.431,16.961,16.961,0,0,1-3.2,3.34.674.674,0,0,1-.272.141q-.088,0-.237-.255a1.939,1.939,0,0,0-.5-.545A10.9,10.9,0,0,0-86-13.966a3.749,3.749,0,0,0,.431-.826,6.453,6.453,0,0,1,.932.519Q-84.454-14.142-84.454-14.019Zm4.588,12.8a.213.213,0,0,1,.053.114q0,.053-.141.149l-.483.343a.527.527,0,0,1-.211.114q-.053,0-.114-.088a9.408,9.408,0,0,0-1.731-1.969q-.07-.062-.07-.105,0-.062.158-.167l.475-.3a.3.3,0,0,1,.149-.07.182.182,0,0,1,.114.053A10.137,10.137,0,0,1-79.866-1.222ZM-54.694-.211a3.145,3.145,0,0,0-.378.826,1.164,1.164,0,0,1-.123.3.273.273,0,0,1-.193.053h-.088q-.07-.009-.088-.009A29.84,29.84,0,0,1-61.049.272,12.78,12.78,0,0,1-64.67-1.169,11.844,11.844,0,0,1-70.014,1.16a1.663,1.663,0,0,1-.246.035q-.132,0-.281-.308a1.953,1.953,0,0,0-.448-.65,12.1,12.1,0,0,0,5.361-2.03A12.209,12.209,0,0,1-67.57-3.665a.177.177,0,0,1-.053-.105q0-.053.167-.167l.413-.29a.388.388,0,0,1,.176-.088q.053,0,.132.088A8.454,8.454,0,0,0-64.872-2.5a4.481,4.481,0,0,0,.993-2.215h-2.215l-2.558.035a.124.124,0,0,1-.141-.141l.035-1.758v-2.8l-.035-1.749a.124.124,0,0,1,.141-.141l2.558.035h2.522V-12.92h-4.772l-2.355.035q-.149,0-.149-.141v-.8q0-.141.149-.141l2.355.035H-57.7l2.355-.035a.124.124,0,0,1,.141.141v.8a.124.124,0,0,1-.141.141L-57.7-12.92h-4.825v1.688h2.663l2.558-.035a.124.124,0,0,1,.141.141L-57.2-9.378v2.8l.035,1.758a.124.124,0,0,1-.141.141l-2.558-.035h-2.971a5.44,5.44,0,0,1-1.116,2.786Q-60.9-.325-54.694-.211Zm-3.568-5.458V-7.6h-4.315q-.07,1.292-.132,1.934ZM-63.606-7.6h-4.1v1.934h3.973Q-63.668-6.337-63.606-7.6Zm5.344-.932v-1.74h-4.263l-.018,1.74Zm-5.309-1.74h-4.14v1.74h4.122Q-63.571-9.053-63.571-10.274Zm25.945,3.981q0,.123-.22.264a2.7,2.7,0,0,0-.466.466,17.248,17.248,0,0,1-4.579,4.351,24.1,24.1,0,0,1-6.935,2.707,1.337,1.337,0,0,1-.237.035q-.132,0-.281-.272a2.432,2.432,0,0,0-.475-.642,23.451,23.451,0,0,0,7.453-2.777,12.072,12.072,0,0,0-2.074-1.547q-.079-.053-.079-.1t.141-.176l.431-.343a.282.282,0,0,1,.158-.079.3.3,0,0,1,.132.053,15.369,15.369,0,0,1,2.2,1.564,13.545,13.545,0,0,0,3.094-3.208H-43.9a20.819,20.819,0,0,1-5.045,3.076,1.045,1.045,0,0,1-.264.088q-.114,0-.237-.246a2.147,2.147,0,0,0-.545-.633,21.606,21.606,0,0,0,4.271-2.153,14.565,14.565,0,0,0,2.575-2.2,2.791,2.791,0,0,0,.5-.738,7.5,7.5,0,0,1,.9.413.267.267,0,0,1,.185.237q0,.105-.158.176a1.458,1.458,0,0,0-.422.325q-.079.088-.246.255-.316.325-.475.466h3.691a1.409,1.409,0,0,0,.466-.053.619.619,0,0,1,.2-.07,1.076,1.076,0,0,1,.536.325Q-37.626-6.407-37.626-6.293Zm-2.786-6.354q0,.141-.22.264a2.246,2.246,0,0,0-.466.492,19.736,19.736,0,0,1-4.2,3.858,25.061,25.061,0,0,1-6.108,2.8,1.264,1.264,0,0,1-.255.062q-.1,0-.255-.281a2.772,2.772,0,0,0-.5-.6A24.593,24.593,0,0,0-46.2-8.675,12.9,12.9,0,0,0-48.041-10q-.088-.07-.088-.105,0-.053.141-.167l.413-.343a.282.282,0,0,1,.149-.079.283.283,0,0,1,.123.044A18.849,18.849,0,0,1-45.29-9.264,13.679,13.679,0,0,0-42.2-12.349h-4.386a17.969,17.969,0,0,1-4.43,3,1.468,1.468,0,0,1-.237.088q-.07,0-.237-.22a3.064,3.064,0,0,0-.571-.562,16.067,16.067,0,0,0,5.941-4.263,2.848,2.848,0,0,0,.483-.791,6.048,6.048,0,0,1,1.028.36q.176.079.176.193t-.158.185a1.609,1.609,0,0,0-.431.36l-.668.738h3.691a1.382,1.382,0,0,0,.483-.07.524.524,0,0,1,.22-.053.981.981,0,0,1,.5.272Q-40.412-12.806-40.412-12.647ZM-19.2-4.386q0,.141-.158.141l-2.364-.035h-4.658v1.292l.018,2.716a1.3,1.3,0,0,1-.4,1.063,3.708,3.708,0,0,1-1.986.334q-.264,0-.589-.009a.528.528,0,0,1-.325-.062,1.2,1.2,0,0,1-.123-.316,2.744,2.744,0,0,0-.36-.809,14.515,14.515,0,0,0,1.872.105.935.935,0,0,0,.633-.149A.785.785,0,0,0-27.5-.65V-4.28h-4.623l-2.382.035a.124.124,0,0,1-.141-.141v-.782q0-.158.141-.158l2.382.035H-27.5a9.757,9.757,0,0,0-.123-1.775q.624.1.967.176a15.508,15.508,0,0,0,2.681-2.03h-5.291l-2.391.035a.124.124,0,0,1-.141-.141v-.765a.124.124,0,0,1,.141-.141l2.391.035h5.458a1.465,1.465,0,0,0,.519-.07.472.472,0,0,1,.185-.053q.167,0,.5.36.413.413.413.615,0,.176-.22.246a3.972,3.972,0,0,0-.694.475,26.931,26.931,0,0,1-3.278,2.259v.773h4.658l2.364-.035a.14.14,0,0,1,.158.158Zm-.554-4.79q0,.149-.141.149h-.835q-.141,0-.141-.149v-2.681h-12.3v2.681q0,.149-.141.149h-.835q-.141,0-.141-.149l.035-1.942v-.6l-.035-1.011a.124.124,0,0,1,.141-.141l2.5.035h3.946v-.255a8.674,8.674,0,0,0-.132-1.837q.5.026,1.187.1.22.026.22.141a1.072,1.072,0,0,1-.105.343,4.811,4.811,0,0,0-.088,1.257v.255h4.228l2.487-.035a.124.124,0,0,1,.141.141l-.035.888v.721Zm6.706,5.159q3.006-.141,5.1-.325a2.2,2.2,0,0,0-.167.6.453.453,0,0,1-.105.255.8.8,0,0,1-.308.07L-10.7-3.3a3.862,3.862,0,0,1,.7.272q.22.105.22.229t-.185.22a1.1,1.1,0,0,0-.4.431,6.928,6.928,0,0,1-.738.993,14.884,14.884,0,0,1,1.714.809q.079.035.079.079a.577.577,0,0,1-.079.176L-9.7.431q-.088.132-.141.132A.363.363,0,0,1-9.958.519a20.128,20.128,0,0,0-1.819-.967,9.648,9.648,0,0,1-4.535,1.67,1.672,1.672,0,0,1-.176.018q-.132,0-.255-.272a1.857,1.857,0,0,0-.343-.589A10.2,10.2,0,0,0-12.762-.861a19.2,19.2,0,0,0-1.819-.633q-.141.211-.343.475a.239.239,0,0,1-.185.123.464.464,0,0,1-.158-.044l-.483-.141q-.158-.062-.158-.141a.182.182,0,0,1,.053-.114,9.029,9.029,0,0,0,.589-.756q.308-.422.686-1.037-.439.035-1.292.07a1.612,1.612,0,0,0-.738.141.454.454,0,0,1-.22.07q-.123,0-.176-.2a4.309,4.309,0,0,1-.2-.914q.642.035,1.151.035.308,0,.791-.009.756-.044,1.187-.044a13.969,13.969,0,0,0,.615-1.292h-.483l-2.224.035a.124.124,0,0,1-.141-.141l.035-.923v-.606l-.035-.94a.124.124,0,0,1,.141-.141l2.224.035h1.037V-8.965h-.932l-2.145.035q-.158,0-.158-.141l.035-1.406v-.413l-.9.018q-.149,0-.149-.141v-.527q0-.158.149-.158l.9.035v-.378l-.035-1.424q0-.141.158-.141l2.145.035h.932v-.053a7.673,7.673,0,0,0-.105-1.371,6.05,6.05,0,0,1,1,.1q.22.062.22.158a.937.937,0,0,1-.07.237,2.332,2.332,0,0,0-.123.879v.053h1.028l2.145-.035a.124.124,0,0,1,.141.141l-.035,1.424v.378q.325-.009.659-.026l.237-.009q.141,0,.141.158v.527a.124.124,0,0,1-.141.141l-.9-.018v.413l.035,1.406a.124.124,0,0,1-.141.141l-2.145-.035h-1.028v1.011h1.134l2.215-.035a.124.124,0,0,1,.141.141l-.035.976V-6.3l.035.923a.124.124,0,0,1-.141.141l-2.215-.035h-1.6Q-12.762-4.553-13.052-4.017Zm-.483.861q-.185.325-.58.976,1.063.3,2.109.686a5.525,5.525,0,0,0,.861-1.2,2.678,2.678,0,0,0,.22-.6l-1.389.079Q-13.113-3.182-13.535-3.155Zm4.1-2.786V-7.269h-2.558v1.327Zm-5.924-1.327v1.327h2.443V-7.269Zm3.366-3.639v1.222h2.355v-1.222Zm-3.19,0v1.222h2.268v-1.222Zm5.546-1.907h-2.355v1.151h2.355Zm-5.546,0v1.151h2.268v-1.151ZM-6.75-8.06a9.681,9.681,0,0,1-.738,1.38q-.132.237-.2.237t-.229-.176a3.975,3.975,0,0,0-.545-.448,16.641,16.641,0,0,0,2.382-6.249,12.681,12.681,0,0,0,.229-1.644l.58.132.431.105q.255.062.255.211a.778.778,0,0,1-.141.29,2.482,2.482,0,0,0-.29.888q-.246,1.143-.51,2.048h2.7l1.854-.035q.149,0,.149.141v.747q0,.141-.149.141l-.158-.009q-.483-.018-1.081-.026A14.892,14.892,0,0,1-4.017-3.4,11.432,11.432,0,0,0-.527.167a2.122,2.122,0,0,0-.536.659q-.158.237-.237.237A.435.435,0,0,1-1.529.94,14.007,14.007,0,0,1-4.605-2.5,13.918,13.918,0,0,1-8.279,1.143a1.118,1.118,0,0,1-.255.123q-.079,0-.255-.255A3.032,3.032,0,0,0-9.325.457,13.213,13.213,0,0,0-5.168-3.472,16.66,16.66,0,0,1-6.75-8.06Zm.949-2.268q-.123.4-.3.879A18.28,18.28,0,0,0-4.588-4.456a15.312,15.312,0,0,0,1.362-5.871Z" transform="translate(247 19)" fill="#707070"/>
    <path id="Path_6993" data-name="Path 6993" d="M13.535,0H5.52V-1.371L8.6-4.72q.659-.712,1.178-1.3a9.933,9.933,0,0,0,.883-1.151A5.115,5.115,0,0,0,11.215-8.3a3.8,3.8,0,0,0,.193-1.235,2.578,2.578,0,0,0-.149-.914,1.872,1.872,0,0,0-.426-.672,1.8,1.8,0,0,0-.655-.417,2.4,2.4,0,0,0-.844-.141,3.306,3.306,0,0,0-1.507.338,6.187,6.187,0,0,0-1.279.866l-.9-1.046a7.258,7.258,0,0,1,.756-.593,5.2,5.2,0,0,1,.87-.479,5.61,5.61,0,0,1,.984-.321,4.873,4.873,0,0,1,1.09-.119,4.614,4.614,0,0,1,1.525.237,3.215,3.215,0,0,1,1.156.681,3.012,3.012,0,0,1,.734,1.081A3.783,3.783,0,0,1,13.025-9.6a4.344,4.344,0,0,1-.233,1.424,6.525,6.525,0,0,1-.642,1.332,10.771,10.771,0,0,1-.976,1.314q-.567.659-1.226,1.371L7.479-1.529v.07h6.056ZM19.38-7.884A5.268,5.268,0,0,1,21-7.642a3.785,3.785,0,0,1,1.31.716,3.3,3.3,0,0,1,.875,1.178A3.927,3.927,0,0,1,23.5-4.122a5.119,5.119,0,0,1-.3,1.8,3.517,3.517,0,0,1-.888,1.354,3.942,3.942,0,0,1-1.455.848A6.175,6.175,0,0,1,18.87.176a8.784,8.784,0,0,1-.883-.044A8.037,8.037,0,0,1,17.152,0a5.455,5.455,0,0,1-.76-.215,3.714,3.714,0,0,1-.65-.308V-2.03a3.452,3.452,0,0,0,.681.36,5.985,5.985,0,0,0,.822.264,8.035,8.035,0,0,0,.866.163,6.207,6.207,0,0,0,.8.057,4.335,4.335,0,0,0,1.239-.163,2.351,2.351,0,0,0,.923-.505,2.239,2.239,0,0,0,.58-.861,3.384,3.384,0,0,0,.2-1.23,2.391,2.391,0,0,0-.773-1.92,3.365,3.365,0,0,0-2.25-.664q-.237,0-.514.022t-.554.057q-.277.035-.527.075T16.8-6.3l-.791-.5L16.5-12.85h6.064v1.459H17.886l-.343,3.683q.281-.053.743-.114A8.413,8.413,0,0,1,19.38-7.884Zm12.094-7.1L26.754,2.979H25.26L30-14.985ZM41.089,0H33.073V-1.371L36.149-4.72q.659-.712,1.178-1.3a9.933,9.933,0,0,0,.883-1.151A5.115,5.115,0,0,0,38.769-8.3a3.8,3.8,0,0,0,.193-1.235,2.578,2.578,0,0,0-.149-.914,1.872,1.872,0,0,0-.426-.672,1.8,1.8,0,0,0-.655-.417,2.4,2.4,0,0,0-.844-.141,3.306,3.306,0,0,0-1.507.338,6.187,6.187,0,0,0-1.279.866l-.9-1.046a7.258,7.258,0,0,1,.756-.593,5.2,5.2,0,0,1,.87-.479,5.61,5.61,0,0,1,.984-.321,4.873,4.873,0,0,1,1.09-.119,4.614,4.614,0,0,1,1.525.237,3.215,3.215,0,0,1,1.156.681,3.012,3.012,0,0,1,.734,1.081A3.783,3.783,0,0,1,40.579-9.6a4.344,4.344,0,0,1-.233,1.424A6.525,6.525,0,0,1,39.7-6.842a10.771,10.771,0,0,1-.976,1.314q-.567.659-1.226,1.371l-2.47,2.628v.07h6.056Zm5.845-7.884a5.268,5.268,0,0,1,1.622.242,3.785,3.785,0,0,1,1.31.716,3.3,3.3,0,0,1,.875,1.178,3.927,3.927,0,0,1,.316,1.626,5.119,5.119,0,0,1-.3,1.8,3.517,3.517,0,0,1-.888,1.354,3.942,3.942,0,0,1-1.455.848,6.175,6.175,0,0,1-1.991.294,8.784,8.784,0,0,1-.883-.044A8.037,8.037,0,0,1,44.706,0a5.455,5.455,0,0,1-.76-.215,3.714,3.714,0,0,1-.65-.308V-2.03a3.452,3.452,0,0,0,.681.36,5.985,5.985,0,0,0,.822.264,8.035,8.035,0,0,0,.866.163,6.207,6.207,0,0,0,.8.057,4.335,4.335,0,0,0,1.239-.163,2.351,2.351,0,0,0,.923-.505,2.239,2.239,0,0,0,.58-.861,3.384,3.384,0,0,0,.2-1.23,2.391,2.391,0,0,0-.773-1.92,3.365,3.365,0,0,0-2.25-.664q-.237,0-.514.022t-.554.057q-.277.035-.527.075t-.435.075l-.791-.5.483-6.047h6.064v1.459H45.439L45.1-7.708q.281-.053.743-.114A8.413,8.413,0,0,1,46.934-7.884ZM61.128-6.442A15.643,15.643,0,0,1,60.9-3.656a6.4,6.4,0,0,1-.721,2.083A3.474,3.474,0,0,1,58.9-.272a3.761,3.761,0,0,1-1.9.448A3.523,3.523,0,0,1,55.2-.272a3.574,3.574,0,0,1-1.274-1.3,6.684,6.684,0,0,1-.756-2.083,14.038,14.038,0,0,1-.25-2.786,15.643,15.643,0,0,1,.224-2.786,6.487,6.487,0,0,1,.712-2.079,3.43,3.43,0,0,1,1.266-1.3,3.718,3.718,0,0,1,1.885-.448,3.593,3.593,0,0,1,1.819.444,3.569,3.569,0,0,1,1.283,1.292,6.629,6.629,0,0,1,.765,2.079A13.853,13.853,0,0,1,61.128-6.442Zm-6.583,0a17.581,17.581,0,0,0,.132,2.3A6.074,6.074,0,0,0,55.1-2.5a2.3,2.3,0,0,0,.76.984,1.948,1.948,0,0,0,1.147.33,1.988,1.988,0,0,0,1.151-.325,2.346,2.346,0,0,0,.778-.976,5.776,5.776,0,0,0,.439-1.639,17.2,17.2,0,0,0,.136-2.316,17.021,17.021,0,0,0-.136-2.3,5.77,5.77,0,0,0-.439-1.635,2.346,2.346,0,0,0-.778-.976,1.988,1.988,0,0,0-1.151-.325,1.967,1.967,0,0,0-1.147.325,2.272,2.272,0,0,0-.76.976,6.01,6.01,0,0,0-.422,1.635A17.581,17.581,0,0,0,54.545-6.442Z" transform="translate(24 19)" fill="#707070"/>
  </g>
</svg>
