<svg id="icon_more" xmlns="http://www.w3.org/2000/svg" width="24" height="24" viewBox="0 0 24 24">
  <rect id="Layout" width="24" height="24" fill="none"/>
  <path id="more-vert" d="M1.877,5.111A1.807,1.807,0,0,1,.552,4.559,1.833,1.833,0,0,1,0,3.212,1.831,1.831,0,0,1,.552,1.865a1.811,1.811,0,0,1,1.325-.552A1.8,1.8,0,0,1,3.2,1.865a1.836,1.836,0,0,1,.553,1.347A1.829,1.829,0,0,1,3.2,4.559a1.806,1.806,0,0,1-1.325.552Zm0,1.855A1.807,1.807,0,0,1,3.2,7.518a1.919,1.919,0,0,1,0,2.694,1.808,1.808,0,0,1-1.325.552,1.808,1.808,0,0,1-1.325-.552,1.919,1.919,0,0,1,0-2.694,1.807,1.807,0,0,1,1.325-.552Zm0,5.653a1.807,1.807,0,0,1,1.325.552,1.919,1.919,0,0,1,0,2.694,1.808,1.808,0,0,1-1.325.552,1.808,1.808,0,0,1-1.325-.552,1.919,1.919,0,0,1,0-2.694,1.807,1.807,0,0,1,1.325-.552Z" transform="translate(9.779 3.137)" fill="#fff"/>
</svg>
