<svg id="icon_more" xmlns="http://www.w3.org/2000/svg" width="20" height="20" viewBox="0 0 20 20">
  <rect id="Layout" width="20" height="20" fill="none"/>
  <path id="more-vert" d="M1.564,4.478a1.506,1.506,0,0,1-1.1-.46A1.528,1.528,0,0,1,0,2.9,1.526,1.526,0,0,1,.46,1.773a1.509,1.509,0,0,1,1.1-.46,1.5,1.5,0,0,1,1.1.46A1.53,1.53,0,0,1,3.129,2.9a1.524,1.524,0,0,1-.46,1.122,1.505,1.505,0,0,1-1.1.46Zm0,1.546a1.506,1.506,0,0,1,1.1.46,1.6,1.6,0,0,1,0,2.245,1.507,1.507,0,0,1-1.1.46,1.507,1.507,0,0,1-1.1-.46,1.6,1.6,0,0,1,0-2.245,1.506,1.506,0,0,1,1.1-.46Zm0,4.711a1.506,1.506,0,0,1,1.1.46,1.6,1.6,0,0,1,0,2.245,1.507,1.507,0,0,1-1.1.46,1.507,1.507,0,0,1-1.1-.46,1.6,1.6,0,0,1,0-2.245,1.506,1.506,0,0,1,1.1-.46Z" transform="translate(8.149 2.395)" opacity="0.6"/>
</svg>
