<svg id="icon_download" xmlns="http://www.w3.org/2000/svg" width="24" height="24" viewBox="0 0 24 24">
  <rect id="Layout" width="24" height="24" transform="translate(24 24) rotate(180)" fill="none"/>
  <g id="round-download" transform="translate(5 4)">
    <path id="Path_6786" data-name="Path 6786" d="M16.59,9H15V4a1,1,0,0,0-1-1H10A1,1,0,0,0,9,4V9H7.41a1,1,0,0,0-.71,1.71l4.59,4.59a1,1,0,0,0,1.41,0l4.59-4.59A1,1,0,0,0,16.59,9ZM5,19a1,1,0,0,0,1,1H18a1,1,0,1,0,0-2H6A1,1,0,0,0,5,19Z" transform="translate(-5 -3)" fill="#fff"/>
  </g>
</svg>
