<svg xmlns="http://www.w3.org/2000/svg" xmlns:xlink="http://www.w3.org/1999/xlink" width="1379.5" height="82" viewBox="0 0 1379.5 82">
  <defs>
    <filter id="Ellipse_172" x="648.5" y="0" width="82" height="82" filterUnits="userSpaceOnUse">
      <feOffset input="SourceAlpha"/>
      <feGaussianBlur stdDeviation="7" result="blur"/>
      <feFlood flood-opacity="0.078"/>
      <feComposite operator="in" in2="blur"/>
      <feComposite in="SourceGraphic"/>
    </filter>
  </defs>
  <g id="newVoice_on" transform="translate(-297.5 -409)">
    <g id="Group_10806" data-name="Group 10806" transform="translate(969.564 432.564)">
      <g transform="matrix(1, 0, 0, 1, -672.06, -23.56)" filter="url(#Ellipse_172)">
        <g id="Ellipse_172-2" data-name="Ellipse 172" transform="translate(669.5 21)" fill="#f0f0f0" stroke="#d6d6d6" stroke-width="1">
          <circle cx="20" cy="20" r="20" stroke="none"/>
          <circle cx="20" cy="20" r="19.5" fill="none"/>
        </g>
      </g>
      <g id="account" transform="translate(8.436 6.436)" opacity="0.8">
        <path id="account-2" data-name="account" d="M8.211,9.329A3.969,3.969,0,0,1,5.3,8.125a3.969,3.969,0,0,1-1.2-2.913A3.969,3.969,0,0,1,5.3,2.3a3.969,3.969,0,0,1,2.913-1.2,3.969,3.969,0,0,1,2.913,1.2,3.969,3.969,0,0,1,1.2,2.913,3.969,3.969,0,0,1-1.2,2.913A3.969,3.969,0,0,1,8.211,9.329Zm0,2.071a14.614,14.614,0,0,1,3.347.434,10.552,10.552,0,0,1,3.347,1.42,2.745,2.745,0,0,1,1.516,2.239v2.071H0V15.493a2.75,2.75,0,0,1,1.517-2.239,10.541,10.541,0,0,1,3.346-1.421A14.606,14.606,0,0,1,8.211,11.4Z" transform="translate(2.774 1.68)" fill="none"/>
        <rect id="Layout" width="22" height="22" fill="none" opacity="0.5"/>
        <path id="Path_6689" data-name="Path 6689" d="M9.925,12.916c2.645,0,7.925,1.327,7.925,3.963v2.972H2V16.879c0-2.635,5.28-3.963,7.925-3.963M9.925,4A3.963,3.963,0,1,1,5.963,7.963,3.963,3.963,0,0,1,9.925,4m0,10.8c-2.942,0-6.043,1.446-6.043,2.08v1.09H15.968v-1.09c0-.634-3.1-2.08-6.043-2.08m0-8.916a2.08,2.08,0,1,0,2.08,2.08,2.08,2.08,0,0,0-2.08-2.08Z" transform="translate(1.17 -0.83)" fill="#4a4a4a"/>
      </g>
      <path id="Path_6911" data-name="Path 6911" d="M8564.7,22861.949v-2.664H8562v-1.621h2.7V22855h1.56v2.664h2.694v1.621h-2.694v2.664Z" transform="translate(-8555.478 -22843.414)" fill="#4a4a4a" opacity="0.8"/>
    </g>
    <line id="Line_21" data-name="Line 21" x2="659.25" transform="translate(297.5 450.501)" fill="none" stroke="#ececec" stroke-width="2"/>
    <line id="Line_22" data-name="Line 22" x2="657.25" transform="translate(1019.75 450.501)" fill="none" stroke="#e6e6e6" stroke-width="2"/>
  </g>
</svg>
