<svg xmlns="http://www.w3.org/2000/svg" width="1379.5" height="27.318" viewBox="0 0 1379.5 27.318">
  <g id="newVoice" transform="translate(-297.5 -436.843)">
    <line id="Line_21" data-name="Line 21" x2="667.25" transform="translate(297.5 450.501)" fill="none" stroke="#ececec" stroke-width="2"/>
    <line id="Line_22" data-name="Line 22" x2="669.25" transform="translate(1007.75 450.501)" fill="none" stroke="#e6e6e6" stroke-width="2"/>
    <g id="Group_10808" data-name="Group 10808" transform="translate(975.905 439.407)">
      <circle id="Ellipse_172" data-name="Ellipse 172" cx="13.659" cy="13.659" r="13.659" transform="translate(-2.564 -2.564)" fill="#f0f0f0"/>
      <g id="account" transform="translate(4.948 3.582)" opacity="0.8">
        <path id="account-2" data-name="account" d="M5.607,6.718A2.71,2.71,0,0,1,3.618,5.9,2.71,2.71,0,0,1,2.8,3.906a2.71,2.71,0,0,1,.822-1.99,2.71,2.71,0,0,1,1.99-.822,2.71,2.71,0,0,1,1.99.822,2.71,2.71,0,0,1,.822,1.99A2.71,2.71,0,0,1,7.6,5.9,2.71,2.71,0,0,1,5.607,6.718Zm0,1.414a9.981,9.981,0,0,1,2.286.3,7.207,7.207,0,0,1,2.286.97,1.875,1.875,0,0,1,1.036,1.529v1.414H0V10.928A1.878,1.878,0,0,1,1.036,9.4a7.2,7.2,0,0,1,2.285-.971,9.975,9.975,0,0,1,2.286-.3Z" transform="translate(1.894 0.8)" fill="none"/>
        <rect id="Layout" width="15.025" height="15.025" fill="none" opacity="0.5"/>
        <path id="Path_6689" data-name="Path 6689" d="M7.413,10.089c1.806,0,5.413.907,5.413,2.706v2.03H2V12.8c0-1.8,3.606-2.706,5.413-2.706M7.413,4A2.706,2.706,0,1,1,4.706,6.706,2.706,2.706,0,0,1,7.413,4m0,7.375c-2.009,0-4.127.988-4.127,1.421v.744H11.54V12.8c0-.433-2.118-1.421-4.127-1.421m0-6.089A1.421,1.421,0,1,0,8.833,6.706,1.421,1.421,0,0,0,7.413,5.285Z" transform="translate(0.165 -1.835)" fill="#4a4a4a"/>
      </g>
      <path id="Path_6911" data-name="Path 6911" d="M8563.843,22859.746v-1.818H8562v-1.107h1.843V22855h1.064v1.82h1.84v1.107h-1.84v1.818Z" transform="translate(-8558.358 -22847.9)" fill="#4a4a4a" opacity="0.8"/>
    </g>
  </g>
</svg>
