<svg xmlns="http://www.w3.org/2000/svg" viewBox="0 0 955 640">
  <defs>
    <style>
      .cls-1, .cls-2 {
        fill: #7a7a7a;
        font-family: MicrosoftJhengHeiUIRegular, Microsoft JhengHei UI;
      }

      .cls-1 {
        font-size: 10px;
      }

      .cls-2 {
        font-size: 9px;
      }

      .cls-3 {
        fill: none;
        stroke: #939394;
        stroke-miterlimit: 10;
      }
    </style>
  </defs>
  <g id="_006" data-name="006" transform="translate(-359 -2449.528)">
    <text id="瓦斯管線_人員" data-name="瓦斯管線
人員" class="cls-1" transform="translate(775.189 2474.432)"><tspan x="0" y="0">瓦斯管線</tspan><tspan x="0" y="12.6">人員</tspan></text>
    <text id="瓦斯管線_人員-2" data-name="瓦斯管線
人員" class="cls-1" transform="translate(887.189 2474.432)"><tspan x="0" y="0">瓦斯管線</tspan><tspan x="0" y="12.6">人員</tspan></text>
    <text id="刨除機_駕駛" data-name="刨除機
駕駛" class="cls-1" transform="translate(1208.053 2474.432)"><tspan x="0" y="0">刨除機</tspan><tspan x="0" y="12.6">駕駛</tspan></text>
    <text id="主任" class="cls-1" transform="translate(1103.654 2479.261)"><tspan x="0" y="0">主任</tspan></text>
    <text id="police" class="cls-1" transform="translate(998.189 2479.261)"><tspan x="0" y="0">police</tspan></text>
    <text id="哨子" class="cls-1" transform="translate(998.189 2518.018)"><tspan x="0" y="0">哨子</tspan></text>
    <text id="工人" class="cls-1" transform="translate(443.69 2477.261)"><tspan x="0" y="0">工人</tspan></text>
    <text id="工人-2" data-name="工人" class="cls-1" transform="translate(553 2479.261)"><tspan x="0" y="0">工人</tspan></text>
    <text id="工人-3" data-name="工人" class="cls-1" transform="translate(669.139 2479.261)"><tspan x="0" y="0">工人</tspan></text>
    <text id="主任-2" data-name="主任" class="cls-1" transform="translate(483.076 2476.261)"><tspan x="0" y="0">主任</tspan></text>
    <text id="使用工具" class="cls-1" transform="translate(364.802 2527.669)"><tspan x="0" y="0">使用工具</tspan></text>
    <text id="User_Sound" data-name="User Sound" class="cls-1" transform="translate(364.801 2614.917)"><tspan x="0" y="0">User Sound</tspan></text>
    <text id="Envir._Interaction_People" data-name="Envir. 
Interaction 
People" class="cls-1" transform="translate(364.802 2686.393)"><tspan x="0" y="0">Envir. </tspan><tspan x="0" y="12.7">Interaction </tspan><tspan x="0" y="25.4">People</tspan></text>
    <text id="Interaction_Object" data-name="Interaction 
Object" class="cls-1" transform="translate(364.802 2781.526)"><tspan x="0" y="0">Interaction </tspan><tspan x="0" y="12.7">Object</tspan></text>
    <text id="對聲音_的感覺" data-name="對聲音
的感覺" class="cls-1" transform="translate(364.802 2866.774)"><tspan x="0" y="0">對聲音</tspan><tspan x="0" y="12.7">的感覺</tspan></text>
    <text id="對噪音傷害_的認知" data-name="對噪音傷害
的認知" class="cls-1" transform="translate(364.801 2954.022)"><tspan x="0" y="0">對噪音傷害</tspan><tspan x="0" y="12.7">的認知</tspan></text>
    <text id="現有的_防護措施" data-name="現有的
防護措施" class="cls-1" transform="translate(364.802 3041.269)"><tspan x="0" y="0">現有的</tspan><tspan x="0" y="12.7">防護措施</tspan></text>
    <g id="Group" transform="translate(359 2395.428)">
      <text id="電鑽" class="cls-1" transform="translate(84.69 122.59)"><tspan x="0" y="0">電鑽</tspan></text>
      <text id="可鑽土" class="cls-1" transform="translate(84.69 135.29)"><tspan x="0" y="0">可鑽土</tspan></text>
      <text id="可水泥攪拌" class="cls-1" transform="translate(84.69 147.99)"><tspan x="0" y="0">可水泥攪拌</tspan></text>
      <text id="發電機_" data-name="發電機（？）" class="cls-1" transform="translate(84.69 160.59)"><tspan x="0" y="0">發電機（？）</tspan></text>
    </g>
    <text id="手持破碎機_小怪手破碎機" data-name="手持破碎機
小怪手破碎機" class="cls-1" transform="translate(553 2518.018)"><tspan x="0" y="0">手持破碎機</tspan><tspan x="0" y="12.7">小怪手破碎機</tspan></text>
    <text id="大型吊具_水泥_焊槍" data-name="大型吊具
水泥、焊槍" class="cls-1" transform="translate(669.139 2518.018)"><tspan x="0" y="0">大型吊具</tspan><tspan x="0" y="12.7">水泥、焊槍</tspan></text>
    <text id="手持破碎機" class="cls-1" transform="translate(775.189 2518.018)"><tspan x="0" y="0">手持破碎機</tspan></text>
    <text id="鏟子" class="cls-1" transform="translate(887.189 2518.018)"><tspan x="0" y="0">鏟子</tspan></text>
    <text id="眼睛_嘴吧" data-name="眼睛 嘴吧" class="cls-1" transform="translate(1103.654 2518.018)"><tspan x="0" y="0">眼睛 嘴吧</tspan></text>
    <text id="發電機一直吵雜聲_電鑽操作時才有聲_聲想跟發電機差不多" data-name="發電機一直吵雜聲
電鑽操作時才有聲
聲想跟發電機差不多" class="cls-1" transform="translate(443.69 2614.012)"><tspan x="0" y="0">發電機一直吵雜聲</tspan><tspan x="0" y="12.7">電鑽操作時才有聲</tspan><tspan x="0" y="25.4">聲想跟發電機差不多</tspan></text>
    <g id="Group-2" data-name="Group" transform="translate(359 2395.428)">
      <text id="在馬路中間車輛來往頻繁" class="cls-2" transform="translate(84.69 290.964)"><tspan x="0" y="0">在馬路中間車輛來往頻繁</tspan></text>
      <text id="必須盡速完成工作" class="cls-2" transform="translate(84.69 303.664)"><tspan x="0" y="0">必須盡速完成工作</tspan></text>
      <text id="講話溝通時會不使用工具" class="cls-2" transform="translate(84.69 316.364)"><tspan x="0" y="0">講話溝通時會不使用工具</tspan></text>
      <text id="甚至關掉發電機" class="cls-2" transform="translate(84.69 328.964)"><tspan x="0" y="0">甚至關掉發電機</tspan></text>
      <text id="_路人問路_" data-name="（路人問路）" class="cls-2" transform="translate(84.69 341.664)"><tspan x="0" y="0">（路人問路）</tspan></text>
    </g>
    <text id="在黃昏的住宅小巷內_隔兩接街可聽_但不大聲" data-name="在黃昏的住宅小巷內
隔兩接街可聽
但不大聲" class="cls-1" transform="translate(553 2686.393)"><tspan x="0" y="0">在黃昏的住宅小巷內</tspan><tspan x="0" y="12.7">隔兩接街可聽</tspan><tspan x="0" y="25.4">但不大聲</tspan></text>
    <g id="Group-3" data-name="Group" transform="translate(359 2395.428)">
      <text id="溝通時不會使用工具" class="cls-1" transform="translate(310.139 290.964)"><tspan x="0" y="0">溝通時不會使用工具</tspan></text>
      <text id="大聲喧嘩校準的位置" class="cls-1" transform="translate(310.139 303.664)"><tspan x="0" y="0">大聲喧嘩校準的位置</tspan></text>
      <text id="現場七八人" class="cls-1" transform="translate(310.139 316.364)"><tspan x="0" y="0">現場七八人</tspan></text>
      <text id="但操作員兩三人" class="cls-1" transform="translate(310.139 328.964)"><tspan x="0" y="0">但操作員兩三人</tspan></text>
    </g>
    <text id="溝通時會停止機具_看到拍照_才配戴安全帽和背心" data-name="溝通時會停止機具
看到拍照
才配戴安全帽和背心" class="cls-1" transform="translate(775.189 2686.393)"><tspan x="0" y="0">溝通時會停止機具</tspan><tspan x="0" y="12.7">看到拍照</tspan><tspan x="0" y="25.4">才配戴安全帽和背心</tspan></text>
    <text id="在定點_聽刨洗機的聲音_無配戴安全帽_" data-name="在定點
聽刨洗機的聲音
無配戴安全帽！" class="cls-1" transform="translate(887.189 2686.393)"><tspan x="0" y="0">在定點</tspan><tspan x="0" y="12.7">聽刨洗機的聲音</tspan><tspan x="0" y="25.4">無配戴安全帽！</tspan></text>
    <text id="車聲和_隨時會接近的機械聲" data-name="車聲和
隨時會接近的機械聲" class="cls-1" transform="translate(998.189 2686.393)"><tspan x="0" y="0">車聲和</tspan><tspan x="0" y="12.7">隨時會接近的機械聲</tspan></text>
    <g id="Group-4" data-name="Group" transform="translate(359 2395.428)">
      <text id="跟著刨洗機或怪手" class="cls-1" transform="translate(744.654 290.964)"><tspan x="0" y="0">跟著刨洗機或怪手</tspan></text>
      <text id="或指揮或站在遠處" class="cls-1" transform="translate(744.654 303.664)"><tspan x="0" y="0">或指揮或站在遠處</tspan></text>
      <text id="會經過各種機台" class="cls-1" transform="translate(744.654 316.364)"><tspan x="0" y="0">會經過各種機台</tspan></text>
      <text id="接觸各種聲音" class="cls-1" transform="translate(744.654 328.964)"><tspan x="0" y="0">接觸各種聲音</tspan></text>
    </g>
    <text id="一直待在刨除機上_持續聽著高分貝聲音" data-name="一直待在刨除機上
持續聽著高分貝聲音" class="cls-1" transform="translate(1208.053 2686.393)"><tspan x="0" y="0">一直待在刨除機上</tspan><tspan x="0" y="12.7">持續聽著高分貝聲音</tspan></text>
    <g id="Group-5" data-name="Group" transform="translate(359 2395.428)">
      <text id="將四週土和水泥挖掉" class="cls-1" transform="translate(84.69 374.054)"><tspan x="0" y="0">將四週土和水泥挖掉</tspan></text>
      <text id="再換水溝蓋" class="cls-1" transform="translate(84.69 386.754)"><tspan x="0" y="0">再換水溝蓋</tspan></text>
      <text id="修補公作則是" class="cls-1" transform="translate(84.69 399.454)"><tspan x="0" y="0">修補公作則是</tspan></text>
      <text id="另一單位執行" class="cls-1" transform="translate(84.69 412.054)"><tspan x="0" y="0">另一單位執行</tspan></text>
    </g>
    <text id="一群人為著兩台破碎機_溝通時不會使用_看到拍設才戴安全帽" data-name="一群人為著兩台破碎機
溝通時不會使用
看到拍設才戴安全帽" class="cls-1" transform="translate(553 2769.482)"><tspan x="0" y="0">一群人為著兩台破碎機</tspan><tspan x="0" y="12.7">溝通時不會使用</tspan><tspan x="0" y="25.4">看到拍設才戴安全帽</tspan></text>
    <text id="一人操作大型物_或焊接_其它人負責補助" data-name="一人操作大型物
或焊接
其它人負責補助" class="cls-1" transform="translate(669.139 2769.482)"><tspan x="0" y="0">一人操作大型物</tspan><tspan x="0" y="12.7">或焊接</tspan><tspan x="0" y="25.4">其它人負責補助</tspan></text>
    <g id="Group-6" data-name="Group" transform="translate(359 2395.428)">
      <text id="很多人同時在一旁" class="cls-1" transform="translate(416.19 374.054)"><tspan x="0" y="0">很多人同時在一旁</tspan></text>
      <text id="指揮或是在找管線" class="cls-1" transform="translate(416.19 386.754)"><tspan x="0" y="0">指揮或是在找管線</tspan></text>
      <text id="一人在操作_挖到" data-name="一人在操作，挖到" class="cls-1" transform="translate(416.19 399.454)"><tspan x="0" y="0">一人在操作，挖到</tspan></text>
      <text id="接近處會改成" class="cls-1" transform="translate(416.19 412.054)"><tspan x="0" y="0">接近處會改成</tspan></text>
      <text id="用手挖" class="cls-1" transform="translate(416.19 424.754)"><tspan x="0" y="0">用手挖</tspan></text>
    </g>
    <text id="定點監控瓦斯管線" class="cls-1" transform="translate(887.189 2769.482)"><tspan x="0" y="0">定點監控瓦斯管線</tspan></text>
    <text id="在很多聲音裡v_指揮交通_回答問路_避開危險" data-name="在很多聲音裡v
指揮交通
回答問路,避開危險" class="cls-1" transform="translate(998.189 2769.482)"><tspan x="0" y="0">在很多聲音裡v</tspan><tspan x="0" y="12.7">指揮交通</tspan><tspan x="0" y="25.4">回答問路,避開危險</tspan></text>
    <g id="Group-7" data-name="Group" transform="translate(359 2395.428)">
      <text id="會站在遠處" class="cls-1" transform="translate(744.654 374.054)"><tspan x="0" y="0">會站在遠處</tspan></text>
      <text id="跟工人交談時" class="cls-1" transform="translate(744.654 386.754)"><tspan x="0" y="0">跟工人交談時</tspan></text>
      <text id="會站在近處" class="cls-1" transform="translate(744.654 399.454)"><tspan x="0" y="0">會站在近處</tspan></text>
      <text id="等待時機會是大喊" class="cls-1" transform="translate(744.654 412.054)"><tspan x="0" y="0">等待時機會是大喊</tspan></text>
    </g>
    <g id="Group-8" data-name="Group" transform="translate(359 2395.428)">
      <text id="用手勢指揮前方探測人員" class="cls-2" transform="translate(849.053 367.721)"><tspan x="0" y="0">用手勢指揮前方探測人員</tspan></text>
      <text id="跟卡車溝通方式_" data-name="跟卡車溝通方式：" class="cls-2" transform="translate(849.053 378.421)"><tspan x="0" y="0">跟卡車溝通方式：</tspan></text>
      <text id="_每組可能不同_" data-name="（每組可能不同）" class="cls-2" transform="translate(849.053 389.121)"><tspan x="0" y="0">（每組可能不同）</tspan></text>
      <text id="一聲" class="cls-2" transform="translate(849.053 399.721)"><tspan x="0" y="0">一聲</tspan></text>
      <text id="走_" data-name="走、" class="cls-2" transform="translate(867.753 399.721)"><tspan x="0" y="0">走、</tspan></text>
      <text id="兩聲" class="cls-2" transform="translate(880.353 399.721)"><tspan x="0" y="0">兩聲</tspan></text>
      <text id="停_" data-name="停、" class="cls-2" transform="translate(899.053 399.721)"><tspan x="0" y="0">停、</tspan></text>
      <text id="三聲倒" class="cls-2" transform="translate(911.353 399.721)"><tspan x="0" y="0">三聲倒</tspan></text>
      <text id="車" class="cls-2" transform="translate(849.053 410.421)"><tspan x="0" y="0">車</tspan></text>
      <text id="_" data-name="、" class="cls-2" transform="translate(856.453 410.421)"><tspan x="0" y="0">、</tspan></text>
      <text id="多聲滿隨車會配置" class="cls-2" transform="translate(860.953 410.421)"><tspan x="0" y="0">多聲滿隨車會配置</tspan></text>
      <text id="至少一工人跟著走注意" class="cls-2" transform="translate(849.053 421.121)"><tspan x="0" y="0">至少一工人跟著走注意</tspan></text>
      <text id="死角_與溝通" data-name="死角、與溝通" class="cls-2" transform="translate(849.053 431.821)"><tspan x="0" y="0">死角、與溝通</tspan></text>
    </g>
    <text id="覺得聲音吵_但為了求生存沒辦法" data-name="覺得聲音吵
但為了求生存沒辦法" class="cls-1" transform="translate(443.69 2940.133)"><tspan x="0" y="0">覺得聲音吵</tspan><tspan x="0" y="12.7">但為了求生存沒辦法</tspan></text>
    <text id="是應該要付出的代價_有點無奈_的樂天心態_" data-name="是應該要付出的代價
（有點無奈
的樂天心態）" class="cls-1" transform="translate(553 2940.133)"><tspan x="0" y="0">是應該要付出的代價</tspan><tspan x="0" y="12.7">（有點無奈</tspan><tspan x="0" y="25.4">的樂天心態）</tspan></text>
    <text id="知道噪音會造成傷害_不是每天聽_覺得沒關係" data-name="知道噪音會造成傷害
不是每天聽
覺得沒關係" class="cls-1" transform="translate(669.139 2940.133)"><tspan x="0" y="0">知道噪音會造成傷害</tspan><tspan x="0" y="12.7">不是每天聽</tspan><tspan x="0" y="25.4">覺得沒關係</tspan></text>
    <text id="知道噪音會造成傷害" class="cls-1" transform="translate(775.189 2940.133)"><tspan x="0" y="0">知道噪音會造成傷害</tspan></text>
    <text id="知道噪音會造成傷害-2" data-name="知道噪音會造成傷害" class="cls-1" transform="translate(887.189 2940.133)"><tspan x="0" y="0">知道噪音會造成傷害</tspan></text>
    <text id="覺得吵" class="cls-1" transform="translate(998.189 2940.133)"><tspan x="0" y="0">覺得吵</tspan></text>
    <g id="Group-9" data-name="Group" transform="translate(359 2395.428)">
      <text id="認知為職業災害" class="cls-1" transform="translate(744.654 544.705)"><tspan x="0" y="0">認知為職業災害</tspan></text>
      <text id="無可避免" class="cls-1" transform="translate(744.654 557.405)"><tspan x="0" y="0">無可避免</tspan></text>
      <text id="是正常的現象" class="cls-1" transform="translate(744.654 570.105)"><tspan x="0" y="0">是正常的現象</tspan></text>
      <text id="但也希望改善" class="cls-1" transform="translate(744.654 582.705)"><tspan x="0" y="0">但也希望改善</tspan></text>
    </g>
    <g id="Group-10" data-name="Group" transform="translate(359 2395.428)">
      <text id="知道自己處於高分貝" class="cls-1" transform="translate(849.053 544.705)"><tspan x="0" y="0">知道自己處於高分貝</tspan></text>
      <text id="但是為特殊機種" class="cls-1" transform="translate(849.053 557.405)"><tspan x="0" y="0">但是為特殊機種</tspan></text>
      <text id="法律難管" class="cls-1" transform="translate(849.053 570.105)"><tspan x="0" y="0">法律難管</tspan></text>
      <text id="曾有居民反映過很吵" class="cls-1" transform="translate(849.053 582.705)"><tspan x="0" y="0">曾有居民反映過很吵</tspan></text>
      <text id="但沒辦法" class="cls-1" transform="translate(849.053 595.405)"><tspan x="0" y="0">但沒辦法</tspan></text>
    </g>
    <text id="沒使用過_但覺的危險" data-name="沒使用過
但覺的危險" class="cls-1" transform="translate(443.69 3023.223)"><tspan x="0" y="0">沒使用過</tspan><tspan x="0" y="12.7">但覺的危險</tspan></text>
    <text id="鑽鐵時_的尖銳聲會配戴耳塞" data-name="鑽鐵時
的尖銳聲會配戴耳塞" class="cls-1" transform="translate(553 3023.223)"><tspan x="0" y="0">鑽鐵時</tspan><tspan x="0" y="12.7">的尖銳聲會配戴耳塞</tspan></text>
    <text id="沒使用過_但覺得會_造成溝通和安全問題" data-name="沒使用過
但覺得會
造成溝通和安全問題" class="cls-1" transform="translate(669.139 3023.223)"><tspan x="0" y="0">沒使用過</tspan><tspan x="0" y="12.7">但覺得會</tspan><tspan x="0" y="25.4">造成溝通和安全問題</tspan></text>
    <text id="連安全帽_都不太想戴了" data-name="連安全帽
都不太想戴了" class="cls-1" transform="translate(775.189 3023.223)"><tspan x="0" y="0">連安全帽</tspan><tspan x="0" y="12.7">都不太想戴了</tspan></text>
    <g id="Group-11" data-name="Group" transform="translate(359 2395.428)">
      <text id="自己崗位並沒到" class="cls-1" transform="translate(528.19 627.794)"><tspan x="0" y="0">自己崗位並沒到</tspan></text>
      <text id="必須配戴護具" class="cls-1" transform="translate(528.19 640.494)"><tspan x="0" y="0">必須配戴護具</tspan></text>
      <text id="防躁用品會造成" class="cls-1" transform="translate(528.19 653.194)"><tspan x="0" y="0">防躁用品會造成</tspan></text>
      <text id="工作上不便" class="cls-1" transform="translate(528.19 665.794)"><tspan x="0" y="0">工作上不便</tspan></text>
      <text id="所以無配帶" class="cls-1" transform="translate(528.19 678.494)"><tspan x="0" y="0">所以無配帶</tspan></text>
    </g>
    <text id="沒用過" class="cls-1" transform="translate(998.189 3023.223)"><tspan x="0" y="0">沒用過</tspan></text>
    <text id="防躁用品會讓工人_聽不到聲音_無法溝通和危險" data-name="防躁用品會讓工人
聽不到聲音
無法溝通和危險" class="cls-1" transform="translate(1103.654 3023.223)"><tspan x="0" y="0">防躁用品會讓工人</tspan><tspan x="0" y="12.7">聽不到聲音</tspan><tspan x="0" y="25.4">無法溝通和危險</tspan></text>
    <g id="Group-12" data-name="Group" transform="translate(359 2395.428)">
      <text id="機具總體品質來說" class="cls-1" transform="translate(849.053 622.794)"><tspan x="0" y="0">機具總體品質來說</tspan></text>
      <text id="西德才能做出來" class="cls-1" transform="translate(849.053 635.494)"><tspan x="0" y="0">西德才能做出來</tspan></text>
      <text id="也致力於機體降噪" class="cls-1" transform="translate(849.053 648.194)"><tspan x="0" y="0">也致力於機體降噪</tspan></text>
      <text id="但效果都有限" class="cls-1" transform="translate(849.053 660.794)"><tspan x="0" y="0">但效果都有限</tspan></text>
      <text id="耳罩會聽不到路面聲音" class="cls-1" transform="translate(849.053 673.494)"><tspan x="0" y="0">耳罩會聽不到路面聲音</tspan></text>
      <text id="造成機械損害" class="cls-1" transform="translate(849.053 686.194)"><tspan x="0" y="0">造成機械損害</tspan></text>
    </g>
    <text id="_-" data-name="-" class="cls-1" transform="translate(438.189 2852.572)"><tspan x="0" y="0">-</tspan></text>
    <text id="很吵_但覺得鑽水泥聲可接受_鑽鐵時很尖銳會受不了" data-name="很吵
但覺得鑽水泥聲可接受
鑽鐵時很尖銳會受不了" class="cls-1" transform="translate(553 2865.254)"><tspan x="0" y="0">很吵</tspan><tspan x="0" y="12.7">但覺得鑽水泥聲可接受</tspan><tspan x="0" y="25.4">鑽鐵時很尖銳會受不了</tspan></text>
    <text id="這像工作沒有很吵_最吵的就是拔管聲" data-name="這像工作沒有很吵
最吵的就是拔管聲" class="cls-1" transform="translate(669.139 2852.572)"><tspan x="0" y="0">這像工作沒有很吵</tspan><tspan x="0" y="12.7">最吵的就是拔管聲</tspan></text>
    <text id="_--2" data-name="-" class="cls-1" transform="translate(775.189 2852.572)"><tspan x="0" y="0">-</tspan></text>
    <g id="Group-13" data-name="Group" transform="translate(359 2395.428)">
      <text id="覺得很吵_" data-name="覺得很吵！" class="cls-1" transform="translate(528.19 457.144)"><tspan x="0" y="0">覺得很吵！</tspan></text>
      <text id="手持破碎機和刨除機" class="cls-1" transform="translate(528.19 469.844)"><tspan x="0" y="0">手持破碎機和刨除機</tspan></text>
      <text id="相比認為刨除機大聲" class="cls-1" transform="translate(528.19 482.544)"><tspan x="0" y="0">相比認為刨除機大聲</tspan></text>
      <text id="很多_原因為使用破" data-name="很多，原因為使用破" class="cls-1" transform="translate(528.19 495.144)"><tspan x="0" y="0">很多，原因為使用破</tspan></text>
      <text id="碎機時人員較靠近" class="cls-1" transform="translate(528.19 507.844)"><tspan x="0" y="0">碎機時人員較靠近</tspan></text>
    </g>
    <text id="_--3" data-name="-" class="cls-1" transform="translate(998.189 2852.572)"><tspan x="0" y="0">-</tspan></text>
    <text id="大型機具死角很多_聲音和多視線_會重要得多" data-name="大型機具死角很多
聲音和多視線
會重要得多" class="cls-1" transform="translate(1103.654 2852.572)"><tspan x="0" y="0">大型機具死角很多</tspan><tspan x="0" y="12.7">聲音和多視線</tspan><tspan x="0" y="25.4">會重要得多</tspan></text>
    <g id="Group-14" data-name="Group" transform="translate(359 2395.428)">
      <text id="要判別刨除的路面情況" class="cls-1" transform="translate(849.053 457.144)"><tspan x="0" y="0">要判別刨除的路面情況</tspan></text>
      <text id="刀具情況_溝通" data-name="刀具情況，溝通" class="cls-1" transform="translate(849.053 469.844)"><tspan x="0" y="0">刀具情況，溝通</tspan></text>
      <text id="聲音很重要" class="cls-1" transform="translate(849.053 482.544)"><tspan x="0" y="0">聲音很重要</tspan></text>
      <text id="也無奈與樂天得" class="cls-1" transform="translate(849.053 495.144)"><tspan x="0" y="0">也無奈與樂天得</tspan></text>
      <text id="知道處於高分貝環境" class="cls-1" transform="translate(849.053 507.844)"><tspan x="0" y="0">知道處於高分貝環境</tspan></text>
    </g>
    <text id="破碎機敲擊_地面的聲音_大聲不規律" data-name="破碎機敲擊
地面的聲音
大聲不規律" class="cls-1" transform="translate(553 2614.012)"><tspan x="0" y="0">破碎機敲擊</tspan><tspan x="0" y="12.7">地面的聲音</tspan><tspan x="0" y="25.4">大聲不規律</tspan></text>
    <text id="破碎機敲擊_地面的聲音_大聲不規律-2" data-name="破碎機敲擊
地面的聲音
大聲不規律" class="cls-1" transform="translate(669.139 2614.012)"><tspan x="0" y="0">破碎機敲擊</tspan><tspan x="0" y="12.7">地面的聲音</tspan><tspan x="0" y="25.4">大聲不規律</tspan></text>
    <text id="車聲_哨聲" data-name="車聲 哨聲" class="cls-1" transform="translate(998.189 2623.561)"><tspan x="0" y="0">車聲 哨聲</tspan></text>
    <g id="Group-15" data-name="Group" transform="translate(359 2395.428)">
      <text id="破碎機敲擊" class="cls-1" transform="translate(416.19 218.583)"><tspan x="0" y="0">破碎機敲擊</tspan></text>
      <text id="地面的聲音" class="cls-1" transform="translate(416.19 231.283)"><tspan x="0" y="0">地面的聲音</tspan></text>
      <text id="大聲" class="cls-1" transform="translate(416.19 243.984)"><tspan x="0" y="0">大聲</tspan></text>
      <text id="_但沒古蹟刺耳_" data-name="（但沒古蹟刺耳）" class="cls-1" transform="translate(416.19 256.583)"><tspan x="0" y="0">（但沒古蹟刺耳）</tspan></text>
    </g>
    <text id="沒" class="cls-1" transform="translate(887.189 2619.172)"><tspan x="0" y="0">沒</tspan></text>
    <text id="刨除機" class="cls-1" transform="translate(1208.053 2518.018)"><tspan x="0" y="0">刨除機</tspan></text>
    <text id="大聲喊_" data-name="大聲喊！" class="cls-1" transform="translate(1103.654 2601.052)"><tspan x="0" y="0">大聲喊！</tspan></text>
    <text id="一開始從水車灌水" class="cls-1" transform="translate(1208.053 2598.385)"><tspan x="0" y="0">一開始從水車灌水</tspan></text>
    <text id="引擎聲和啟動刨除時" class="cls-1" transform="translate(1208.053 2611.085)"><tspan x="0" y="0">引擎聲和啟動刨除時</tspan></text>
    <text id="的聲音都90分貝" class="cls-1" transform="translate(1208.053 2623.785)"><tspan x="0" y="0">的聲音都90分貝</tspan></text>
    <text id="_10公尺85分貝" data-name="10公尺85分貝" class="cls-1" transform="translate(1208.053 2636.385)"><tspan x="0" y="0">10公尺85分貝</tspan></text>
    <rect id="Rectangle_922" data-name="Rectangle 922" class="cls-3" width="954" height="639" transform="translate(359.5 2450.028)"/>
    <line id="Line_364" data-name="Line 364" class="cls-3" x2="955" transform="translate(359 3003.028)"/>
    <line id="Line_365" data-name="Line 365" class="cls-3" x2="955" transform="translate(359 2919.028)"/>
    <line id="Line_366" data-name="Line 366" class="cls-3" x2="955" transform="translate(359 2834.028)"/>
    <line id="Line_367" data-name="Line 367" class="cls-3" x2="955" transform="translate(359 2749.028)"/>
    <line id="Line_368" data-name="Line 368" class="cls-3" x2="955" transform="translate(359 2664.028)"/>
    <line id="Line_369" data-name="Line 369" class="cls-3" x2="955" transform="translate(359 2580.028)"/>
    <line id="Line_370" data-name="Line 370" class="cls-3" x2="955" transform="translate(359 2494.028)"/>
    <line id="Line_371" data-name="Line 371" class="cls-3" y2="638" transform="translate(1205.5 2450.528)"/>
    <line id="Line_372" data-name="Line 372" class="cls-3" y2="638" transform="translate(1096.5 2450.528)"/>
    <line id="Line_373" data-name="Line 373" class="cls-3" y2="638" transform="translate(986.5 2450.528)"/>
    <line id="Line_374" data-name="Line 374" class="cls-3" y2="638" transform="translate(877.5 2450.528)"/>
    <line id="Line_375" data-name="Line 375" class="cls-3" y2="638" transform="translate(769.5 2450.528)"/>
    <line id="Line_376" data-name="Line 376" class="cls-3" y2="638" transform="translate(659.5 2450.528)"/>
    <line id="Line_377" data-name="Line 377" class="cls-3" y2="638" transform="translate(549.5 2450.528)"/>
    <line id="Line_378" data-name="Line 378" class="cls-3" y2="638" transform="translate(441.5 2450.528)"/>
  </g>
</svg>
