<svg xmlns="http://www.w3.org/2000/svg" xmlns:xlink="http://www.w3.org/1999/xlink" viewBox="0 0 937.25 350.694">
  <defs>
    <style>
      .cls-1 {
        fill: #bbb;
      }

      .cls-1, .cls-2, .cls-3 {
        stroke: #fff;
      }

      .cls-1, .cls-11, .cls-13, .cls-18, .cls-2, .cls-22, .cls-26, .cls-3, .cls-9 {
        stroke-miterlimit: 10;
      }

      .cls-1, .cls-2 {
        stroke-width: 2px;
      }

      .cls-2 {
        fill: #e9d178;
      }

      .cls-3 {
        fill: #e46f65;
      }

      .cls-22, .cls-26, .cls-3, .cls-9 {
        stroke-width: 3px;
      }

      .cls-12, .cls-4 {
        fill: #fff;
      }

      .cls-4 {
        font-size: 23.66px;
      }

      .cls-4, .cls-8 {
        font-family: SegoeUI, Segoe UI;
      }

      .cls-5, .cls-6 {
        font-family: YuGothicUI-Regular, Yu Gothic UI;
      }

      .cls-6 {
        fill: #717071;
        font-size: 13px;
        letter-spacing: 0.1em;
      }

      .cls-11, .cls-13, .cls-18, .cls-22, .cls-26, .cls-28, .cls-7, .cls-9 {
        fill: none;
      }

      .cls-9 {
        stroke: #bbb;
      }

      .cls-10 {
        clip-path: url(#clip-path);
      }

      .cls-11, .cls-13, .cls-18, .cls-28 {
        stroke: #231815;
      }

      .cls-11, .cls-28 {
        stroke-width: 0.201px;
      }

      .cls-13 {
        stroke-width: 0.4px;
      }

      .cls-14 {
        clip-path: url(#clip-path-6);
      }

      .cls-15 {
        clip-path: url(#clip-path-7);
      }

      .cls-16 {
        clip-path: url(#clip-path-8);
      }

      .cls-17 {
        clip-path: url(#clip-path-9);
      }

      .cls-18 {
        stroke-width: 0.601px;
      }

      .cls-19 {
        opacity: 0.34;
      }

      .cls-20 {
        clip-path: url(#clip-path-11);
      }

      .cls-21 {
        fill: #e37e78;
      }

      .cls-22 {
        stroke: #e46f65;
      }

      .cls-23 {
        clip-path: url(#clip-path-12);
      }

      .cls-24 {
        opacity: 0.4;
      }

      .cls-25 {
        clip-path: url(#clip-path-17);
      }

      .cls-26 {
        stroke: #e9d178;
      }

      .cls-27 {
        clip-path: url(#clip-path-18);
      }

      .cls-28 {
        stroke-linecap: round;
        stroke-linejoin: round;
      }

      .cls-29 {
        clip-path: url(#clip-path-21);
      }

      .cls-30 {
        clip-path: url(#clip-path-22);
      }

      .cls-31 {
        clip-path: url(#clip-path-23);
      }

      .cls-32 {
        clip-path: url(#clip-path-24);
      }

      .cls-33 {
        clip-path: url(#clip-path-25);
      }

      .cls-34 {
        opacity: 0.35;
      }

      .cls-35 {
        clip-path: url(#clip-path-26);
      }
    </style>
    <clipPath id="clip-path">
      <rect id="Rectangle_929" data-name="Rectangle 929" width="210.9" height="107.5" transform="translate(501.1 358.5)"/>
    </clipPath>
    <clipPath id="clip-path-6">
      <rect id="Rectangle_934" data-name="Rectangle 934" width="210.9" height="107.5" transform="translate(-53.2 -57.7)"/>
    </clipPath>
    <clipPath id="clip-path-7">
      <rect id="Rectangle_935" data-name="Rectangle 935" width="210.9" height="107.5" transform="translate(-172.2 -52.6)"/>
    </clipPath>
    <clipPath id="clip-path-8">
      <rect id="Rectangle_936" data-name="Rectangle 936" width="210.9" height="107.5" transform="translate(-172.2 -56.2)"/>
    </clipPath>
    <clipPath id="clip-path-9">
      <rect id="Rectangle_937" data-name="Rectangle 937" width="210.9" height="107.5" transform="translate(-179.5 -52.6)"/>
    </clipPath>
    <clipPath id="clip-path-11">
      <rect id="Rectangle_939" data-name="Rectangle 939" width="119.2" height="69.6" transform="translate(483.4 396.4)"/>
    </clipPath>
    <clipPath id="clip-path-12">
      <rect id="Rectangle_941" data-name="Rectangle 941" width="210.9" height="124.1" transform="translate(502 176.3)"/>
    </clipPath>
    <clipPath id="clip-path-17">
      <rect id="Rectangle_946" data-name="Rectangle 946" width="89.7" height="28.3" transform="translate(548.1 257)"/>
    </clipPath>
    <clipPath id="clip-path-18">
      <rect id="Rectangle_947" data-name="Rectangle 947" width="210.9" height="115.5" transform="translate(20.2 205)"/>
    </clipPath>
    <clipPath id="clip-path-21">
      <rect id="Rectangle_950" data-name="Rectangle 950" width="210.9" height="115.5" transform="translate(-53.1 -73.6)"/>
    </clipPath>
    <clipPath id="clip-path-22">
      <rect id="Rectangle_951" data-name="Rectangle 951" width="210.9" height="115.5" transform="translate(-172.1 -68.5)"/>
    </clipPath>
    <clipPath id="clip-path-23">
      <rect id="Rectangle_952" data-name="Rectangle 952" width="210.9" height="115.5" transform="translate(-172.2 -72.1)"/>
    </clipPath>
    <clipPath id="clip-path-24">
      <rect id="Rectangle_953" data-name="Rectangle 953" width="210.9" height="115.5" transform="translate(-179.5 -68.5)"/>
    </clipPath>
    <clipPath id="clip-path-25">
      <rect id="Rectangle_954" data-name="Rectangle 954" width="210.9" height="115.5" transform="translate(-172.2 -68.5)"/>
    </clipPath>
    <clipPath id="clip-path-26">
      <rect id="Rectangle_955" data-name="Rectangle 955" width="135" height="73.2" transform="translate(43.4 247.3)"/>
    </clipPath>
  </defs>
  <g id="_009" data-name="009" transform="translate(-354.044 -4575.828)">
    <path id="Path_18154" data-name="Path 18154" class="cls-1" d="M366.4,339.4l58.2-100.8c54.3,31.3,72.2,101.9,40.1,157.5a113.528,113.528,0,0,1-22.8,28.4Z" transform="translate(335 4427.423)"/>
    <path id="Path_18155" data-name="Path 18155" class="cls-2" d="M366.4,339.4l75.5,85.1c-47.3,43.3-119.5,40.2-161.2-6.8s-37.1-120.2,10.2-163.4Z" transform="translate(335 4427.423)"/>
    <path id="Path_18156" data-name="Path 18156" class="cls-3" d="M366.4,339.4l-75.5-85.1c37.9-34.6,90.3-40.7,133.7-15.7Z" transform="translate(335 4427.423)"/>
    <text id="_20_" data-name="20％" class="cls-4" transform="matrix(1, -0.016, 0.016, 1, 674.353, 4702.103)"><tspan x="0" y="0">20</tspan><tspan class="cls-5" y="0">％</tspan></text>
    <text id="_30_" data-name="30％" class="cls-4" transform="matrix(1, 0.028, -0.028, 1, 749.104, 4770.304)"><tspan x="0" y="0">30</tspan><tspan class="cls-5" y="0">％</tspan></text>
    <text id="_50_" data-name="50％" class="cls-4" transform="translate(638.692 4818.526) rotate(0.3)"><tspan x="0" y="0">50</tspan><tspan class="cls-5" y="0">％</tspan></text>
    <text id="短期搶救通報" class="cls-6" transform="translate(839.535 4589.828)"><tspan x="0" y="0">短期搶救通報</tspan></text>
    <text id="中期施工通報" class="cls-6" transform="translate(354.044 4616.564)"><tspan x="0" y="0">中期施工通報</tspan></text>
    <text id="長期維護通報" class="cls-6" transform="translate(838.95 4766.841)"><tspan x="0" y="0">長期維護通報</tspan></text>
    <rect id="Rectangle_927" data-name="Rectangle 927" class="cls-7" width="199.7" height="80.5" transform="translate(1063.3 4648.123)"/>
    <text id="歷時半天至一天的工程_短暫施工_而不影響交通動線_工具接需具備_機動性強且範圍小使用方式_" data-name="歷時半天至一天的工程，短暫施工
而不影響交通動線。工具接需具備
機動性強且範圍小使用方式。" class="cls-6" transform="translate(1063.294 4658.659)"><tspan x="0" y="0">歷時半天至一天的工程，短暫施工</tspan><tspan class="cls-8" y="0"></tspan><tspan x="0" y="30">而不影響交通動線。工具接需具備</tspan><tspan class="cls-8" y="30"></tspan><tspan x="0" y="60">機動性強且範圍小使用方式。</tspan></text>
    <rect id="Rectangle_928" data-name="Rectangle 928" class="cls-7" width="216.2" height="90.4" transform="translate(354.5 4773.323)"/>
    <text id="施工歷時幾天至一兩周_為了施工順_暢及安全性_工人會用三角錐圍出一_個明確的施工場域_" data-name="施工歷時幾天至一兩周。為了施工順
暢及安全性，工人會用三角錐圍出一
個明確的施工場域。" class="cls-6" transform="translate(354.525 4783.897)"><tspan x="0" y="0">施工歷時幾天至一兩周。為了施工順</tspan><tspan class="cls-8" y="0"></tspan><tspan x="0" y="30">暢及安全性，工人會用三角錐圍出一</tspan><tspan class="cls-8" y="30"></tspan><tspan x="0" y="60">個明確的施工場域。</tspan></text>
    <line id="Line_379" data-name="Line 379" class="cls-9" x2="59.5" transform="translate(775.8 4827.823)"/>
    <g id="Group_2287" data-name="Group 2287" transform="translate(335 4427.423)">
      <g id="Group_2278" data-name="Group 2278" class="cls-10">
        <path id="Path_18157" data-name="Path 18157" class="cls-11" d="M561.8,424.4l-19.2,13.1h-12l-1.8-86.1v-.3H540l2.7,86.4,20.7-14-2-72.4m3.5,86.4,26.4-26.4m-42.7,78.5,49.8-78.3m-86.8,79.4,50.2-50.5"/>
      </g>
      <g id="Group_2279" data-name="Group 2279" class="cls-10">
        <path id="Path_18158" data-name="Path 18158" class="cls-11" d="M528.9,351.1,531,443l-19.4,13.2V351.1Z"/>
      </g>
      <g id="Group_2280" data-name="Group 2280" class="cls-10">
        <path id="Path_18159" data-name="Path 18159" class="cls-11" d="M575,421.7l9.3-8.2-1-62.4h-9.8Zm0,0H563.4l-1.9-70.6h12.1Z"/>
      </g>
      <g id="Group_2281" data-name="Group 2281" class="cls-10">
        <path id="Path_18160" data-name="Path 18160" class="cls-12" d="M561.8,449.4a6.408,6.408,0,0,0,3.5,0l-2.5-59.6s5-1.3,6.1-1.8a3.108,3.108,0,0,0,1.5-1.4l-1.4-.5-7.2,1.4v61.9Z"/>
      </g>
      <g id="Group_2282" data-name="Group 2282" class="cls-10">
        <path id="Path_18161" data-name="Path 18161" class="cls-13" d="M561.8,449.4a6.408,6.408,0,0,0,3.5,0l-2.5-59.6s5-1.3,6.1-1.8a3.108,3.108,0,0,0,1.5-1.4l-1.4-.5-7.2,1.4v61.9Z"/>
      </g>
      <g id="Group_2283" data-name="Group 2283" class="cls-14" transform="translate(554.3 416.2)">
        <line id="Line_380" data-name="Line 380" class="cls-11" y1="79" x2="44.1"/>
      </g>
      <g id="Group_2284" data-name="Group 2284" class="cls-15" transform="translate(673.3 411.1)">
        <line id="Line_381" data-name="Line 381" class="cls-11" x1="143.2" y1="47.8"/>
      </g>
      <g id="Group_2285" data-name="Group 2285" class="cls-16" transform="translate(673.3 414.7)">
        <line id="Line_382" data-name="Line 382" class="cls-11" x1="143.2" y1="54.5"/>
      </g>
      <g id="Group_2286" data-name="Group 2286" class="cls-17" transform="translate(680.6 411.1)">
        <line id="Line_383" data-name="Line 383" class="cls-11" x1="135.9" y1="40"/>
      </g>
    </g>
    <line id="Line_384" data-name="Line 384" class="cls-18" y2="3.6" transform="translate(1008.3 4838.523)"/>
    <g id="Group_2289" data-name="Group 2289" transform="translate(335 4427.423)">
      <g id="Group_2288" data-name="Group 2288" class="cls-15" transform="translate(673.3 411.1)">
        <line id="Line_385" data-name="Line 385" class="cls-11" x2="128.1"/>
      </g>
    </g>
    <path id="Path_18162" data-name="Path 18162" class="cls-12" d="M666.4,415.3a2.626,2.626,0,0,1-1.3,0l.9-22.2s-1.9-.5-2.3-.7a.979.979,0,0,1-.5-.5l.5-.2,2.6.5v23.1Z" transform="translate(335 4427.423)"/>
    <path id="Path_18163" data-name="Path 18163" class="cls-13" d="M666.4,415.3a2.626,2.626,0,0,1-1.3,0l.9-22.2s-1.9-.5-2.3-.7a.979.979,0,0,1-.5-.5l.5-.2,2.6.5v23.1Z" transform="translate(335 4427.423)"/>
    <line id="Line_386" data-name="Line 386" class="cls-13" y2="4.4" transform="translate(914.3 4839.623)"/>
    <path id="Path_18164" data-name="Path 18164" class="cls-18" d="M579.2,412.2H566.6" transform="translate(335 4427.423)"/>
    <path id="Path_18165" data-name="Path 18165" class="cls-12" d="M570.7,416.9a2.626,2.626,0,0,0,1.3,0l-.9-22.2a17.625,17.625,0,0,0,2.2-.7.979.979,0,0,0,.5-.5l-.5-.2-2.6.5Z" transform="translate(335 4427.423)"/>
    <path id="Path_18166" data-name="Path 18166" class="cls-13" d="M570.7,416.9a2.626,2.626,0,0,0,1.3,0l-.9-22.2a17.625,17.625,0,0,0,2.2-.7.979.979,0,0,0,.5-.5l-.5-.2-2.6.5Z" transform="translate(335 4427.423)"/>
    <path id="Path_18167" data-name="Path 18167" class="cls-13" d="M621.8,428.3l8.4,22.1,7.2-.1-12.3-22Z" transform="translate(335 4427.423)"/>
    <g id="Group_2292" data-name="Group 2292" class="cls-19" transform="translate(335 4427.423)">
      <g id="Group_2291" data-name="Group 2291">
        <g id="Group_2290" data-name="Group 2290" class="cls-20">
          <path id="Path_18168" data-name="Path 18168" class="cls-21" d="M501.1,483.3l68.1-.1,34.7-72.1-15-.1Z"/>
        </g>
      </g>
    </g>
    <g id="Group_2293" data-name="Group 2293" transform="translate(335 4427.423)">
      <path id="Path_18169" data-name="Path 18169" class="cls-9" d="M501.4,461a5.015,5.015,0,0,0,5,5H706.5a5.015,5.015,0,0,0,5-5V360.6a5.015,5.015,0,0,0-5-5H506.4a5.015,5.015,0,0,0-5,5Z"/>
    </g>
    <rect id="Rectangle_940" data-name="Rectangle 940" class="cls-7" width="204.6" height="135.8" transform="translate(1063.3 4790.723)"/>
    <text id="施工歷時幾周至數月_一般皆會使用簡易圍籬圍住施工機具_器材_提醒用路人施工範圍_工作_時間也能達到基本防噪施工時_" data-name="施工歷時幾周至數月
一般皆會使用簡易圍籬圍住施工機具
、器材，提醒用路人施工範圍。工作
時間也能達到基本防噪施工時。" class="cls-6" transform="translate(1063.294 4801.25)"><tspan x="0" y="0">施工歷時幾周至數月</tspan><tspan class="cls-8" y="0"></tspan><tspan x="0" y="30">一般皆會使用簡易圍籬圍住施工機具</tspan><tspan class="cls-8" y="30"></tspan><tspan x="0" y="60">、器材，提醒用路人施工範圍。工作</tspan><tspan class="cls-8" y="60"></tspan><tspan x="0" y="90">時間也能達到基本防噪施工時。</tspan></text>
    <path id="Path_18170" data-name="Path 18170" class="cls-22" d="M501.9,209.5H425.1l-17.5,32.2" transform="translate(335 4427.423)"/>
    <g id="Group_2301" data-name="Group 2301" transform="translate(335 4427.423)">
      <g id="Group_2296" data-name="Group 2296" class="cls-23">
        <path id="Path_18171" data-name="Path 18171" class="cls-11" d="M562.6,226.2l-19.2,13.1h-12l-1.8-86.1v-.3h11.1l2.7,86.4,20.7-14-2-72.4m3.6,86.4,26.4-26.4m-42.7,78.4L599.2,213m-85.4,78.1L562.7,242"/>
      </g>
      <g id="Group_2297" data-name="Group 2297" class="cls-23">
        <path id="Path_18172" data-name="Path 18172" class="cls-11" d="M529.6,152.8l2.2,91.9-19.4,13.2V152.8Z"/>
      </g>
      <g id="Group_2298" data-name="Group 2298" class="cls-23">
        <path id="Path_18173" data-name="Path 18173" class="cls-11" d="M575.8,223.4l9.3-8.2-1-62.4h-9.8Zm0,0H564.2l-1.9-70.6h12.1Z"/>
      </g>
      <g id="Group_2299" data-name="Group 2299" class="cls-23">
        <path id="Path_18174" data-name="Path 18174" class="cls-12" d="M562.6,251.1a6.408,6.408,0,0,0,3.5,0l-2.5-59.6s5-1.3,6.1-1.8a3.108,3.108,0,0,0,1.5-1.4l-1.4-.5-7.2,1.4v61.9Z"/>
      </g>
      <g id="Group_2300" data-name="Group 2300" class="cls-23">
        <path id="Path_18175" data-name="Path 18175" class="cls-13" d="M562.6,251.1a6.408,6.408,0,0,0,3.5,0l-2.5-59.6s5-1.3,6.1-1.8a3.108,3.108,0,0,0,1.5-1.4l-1.4-.5-7.2,1.4v61.9Z"/>
      </g>
    </g>
    <line id="Line_387" data-name="Line 387" class="cls-11" y1="73.2" x2="40.8" transform="translate(893.3 4645.323)"/>
    <g id="Group_2302" data-name="Group 2302" transform="translate(335 4427.423)">
      <path id="Path_18176" data-name="Path 18176" class="cls-11" d="M712.3,225.4c-9.9-3.3-28.3-9.2-38.2-12.6"/>
      <path id="Path_18177" data-name="Path 18177" class="cls-11" d="M712.1,230.3c-9.9-3.8-28.2-10.1-38-13.9"/>
      <path id="Path_18178" data-name="Path 18178" class="cls-11" d="M712.3,222c-7.5-2.2-23.4-7-30.8-9.2"/>
    </g>
    <line id="Line_388" data-name="Line 388" class="cls-18" y2="3.6" transform="translate(1009.1 4640.223)"/>
    <path id="Path_18179" data-name="Path 18179" class="cls-12" d="M667.3,233a2.626,2.626,0,0,1-1.3,0l.9-22.2s-1.9-.5-2.3-.7a.979.979,0,0,1-.5-.5l.5-.2,2.6.5V233Z" transform="translate(335 4427.423)"/>
    <path id="Path_18180" data-name="Path 18180" class="cls-13" d="M667.3,233a2.626,2.626,0,0,1-1.3,0l.9-22.2s-1.9-.5-2.3-.7a.979.979,0,0,1-.5-.5l.5-.2,2.6.5V233Z" transform="translate(335 4427.423)"/>
    <line id="Line_389" data-name="Line 389" class="cls-13" y2="4.4" transform="translate(915.1 4657.323)"/>
    <line id="Line_390" data-name="Line 390" class="cls-18" x1="12.7" transform="translate(902.4 4657.323)"/>
    <path id="Path_18181" data-name="Path 18181" class="cls-12" d="M571.6,234.6a2.626,2.626,0,0,0,1.3,0l-.9-22.2s1.9-.5,2.3-.7a.979.979,0,0,0,.5-.5l-.5-.2-2.6.5v23.1Z" transform="translate(335 4427.423)"/>
    <path id="Path_18182" data-name="Path 18182" class="cls-13" d="M571.6,234.6a2.626,2.626,0,0,0,1.3,0l-.9-22.2s1.9-.5,2.3-.7a.979.979,0,0,0,.5-.5l-.5-.2-2.6.5v23.1Z" transform="translate(335 4427.423)"/>
    <g id="Group_2305" data-name="Group 2305" class="cls-24" transform="translate(335 4427.423)">
      <g id="Group_2304" data-name="Group 2304">
        <g id="Group_2303" data-name="Group 2303" class="cls-25">
          <path id="Path_18183" data-name="Path 18183" class="cls-21" d="M620.1,278c0,2.9-12.1,5.3-27.1,5.3s-27.1-2.4-27.1-5.3,12.1-5.3,27.1-5.3,27.1,2.4,27.1,5.3"/>
        </g>
      </g>
    </g>
    <path id="Path_18184" data-name="Path 18184" class="cls-13" d="M640.8,291.1l-2.4-5.3h5.7l4,5.3M622.6,246l8.4,22.1,7.2-.1-12.3-22Z" transform="translate(335 4427.423)"/>
    <g id="Group_2306" data-name="Group 2306" transform="translate(335 4427.423)">
      <path id="Path_18185" data-name="Path 18185" class="cls-22" d="M502.1,286.1a5.015,5.015,0,0,0,5,5H707.2a5.015,5.015,0,0,0,5-5V181.7a5.015,5.015,0,0,0-5-5H507.1a4.951,4.951,0,0,0-5,5Z"/>
    </g>
    <path id="Path_18186" data-name="Path 18186" class="cls-26" d="M278.3,277.1,261,258.7H231.1" transform="translate(335 4427.423)"/>
    <g id="Group_2309" data-name="Group 2309" transform="translate(335 4427.423)">
      <g id="Group_2308" data-name="Group 2308" class="cls-27">
        <path id="Path_18187" data-name="Path 18187" class="cls-11" d="M80.9,286.8,61.7,299.9h-12l-1.8-86.1v-.3H59l2.7,86.4,20.7-14-2-72.4M84,299.9l26.4-26.4M67.7,351.9l49.8-78.3M30.7,353.1l50.2-50.5"/>
      </g>
    </g>
    <path id="Path_18188" data-name="Path 18188" class="cls-28" d="M59.1,213.5H80.5v6" transform="translate(335 4427.423)"/>
    <path id="Path_18189" data-name="Path 18189" class="cls-11" d="M47.9,213.5,50,305.4,30.7,318.5v-105Z" transform="translate(335 4427.423)"/>
    <path id="Path_18190" data-name="Path 18190" class="cls-11" d="M94.1,284.1l9.3-8.2-1-62.4H92.6Zm0,0H82.4l-1.9-70.6H92.6Z" transform="translate(335 4427.423)"/>
    <g id="Group_2316" data-name="Group 2316" transform="translate(335 4427.423)">
      <g id="Group_2310" data-name="Group 2310" class="cls-27">
        <path id="Path_18191" data-name="Path 18191" class="cls-12" d="M80.9,311.8a6.408,6.408,0,0,0,3.5,0l-2.5-59.6s5-1.3,6.1-1.8a3.108,3.108,0,0,0,1.5-1.4l-1.4-.5-7.2,1.4Z"/>
      </g>
      <g id="Group_2311" data-name="Group 2311" class="cls-27">
        <path id="Path_18192" data-name="Path 18192" class="cls-13" d="M80.9,311.8a6.408,6.408,0,0,0,3.5,0l-2.5-59.6s5-1.3,6.1-1.8a3.108,3.108,0,0,0,1.5-1.4l-1.4-.5-7.2,1.4Z"/>
      </g>
      <g id="Group_2312" data-name="Group 2312" class="cls-29" transform="translate(73.3 278.6)">
        <line id="Line_391" data-name="Line 391" class="cls-11" y1="79" x2="44.1"/>
      </g>
      <g id="Group_2313" data-name="Group 2313" class="cls-30" transform="translate(192.3 273.5)">
        <line id="Line_392" data-name="Line 392" class="cls-11" x1="143.3" y1="47.7"/>
      </g>
      <g id="Group_2314" data-name="Group 2314" class="cls-31" transform="translate(192.4 277.1)">
        <line id="Line_393" data-name="Line 393" class="cls-11" x1="143.2" y1="54.5"/>
      </g>
      <g id="Group_2315" data-name="Group 2315" class="cls-32" transform="translate(199.7 273.5)">
        <line id="Line_394" data-name="Line 394" class="cls-11" x1="135.9" y1="40"/>
      </g>
    </g>
    <line id="Line_395" data-name="Line 395" class="cls-18" y2="3.6" transform="translate(527.4 4700.923)"/>
    <g id="Group_2318" data-name="Group 2318" transform="translate(335 4427.423)">
      <g id="Group_2317" data-name="Group 2317" class="cls-33" transform="translate(192.4 273.5)">
        <line id="Line_396" data-name="Line 396" class="cls-11" x2="128.1"/>
      </g>
    </g>
    <path id="Path_18193" data-name="Path 18193" class="cls-12" d="M185.5,261.8a2.626,2.626,0,0,1-1.3,0l.9-22.2a17.627,17.627,0,0,1-2.2-.7.979.979,0,0,1-.5-.5l.5-.2,2.6.5Z" transform="translate(335 4427.423)"/>
    <path id="Path_18194" data-name="Path 18194" class="cls-13" d="M185.5,261.8a2.626,2.626,0,0,1-1.3,0l.9-22.2a17.627,17.627,0,0,1-2.2-.7.979.979,0,0,1-.5-.5l.5-.2,2.6.5Z" transform="translate(335 4427.423)"/>
    <line id="Line_397" data-name="Line 397" class="cls-13" y1="4.4" transform="translate(433.3 4686.123)"/>
    <path id="Path_18195" data-name="Path 18195" class="cls-18" d="M98.3,258.7H85.7" transform="translate(335 4427.423)"/>
    <path id="Path_18196" data-name="Path 18196" class="cls-12" d="M89.8,263.4a2.626,2.626,0,0,0,1.3,0l-.9-22.2a17.627,17.627,0,0,0,2.2-.7.979.979,0,0,0,.5-.5l-.5-.2-2.6.5Z" transform="translate(335 4427.423)"/>
    <path id="Path_18197" data-name="Path 18197" class="cls-13" d="M89.8,263.4a2.626,2.626,0,0,0,1.3,0l-.9-22.2a17.627,17.627,0,0,0,2.2-.7.979.979,0,0,0,.5-.5l-.5-.2-2.6.5Z" transform="translate(335 4427.423)"/>
    <path id="Path_18198" data-name="Path 18198" class="cls-13" d="M158.5,320.5l-1.8-5.9h5.7l3.2,5.9m-24.8-45.7,8.4,22.1,7.2-.1-12.3-22Z" transform="translate(335 4427.423)"/>
    <g id="Group_2321" data-name="Group 2321" class="cls-34" transform="translate(335 4427.423)">
      <g id="Group_2320" data-name="Group 2320">
        <g id="Group_2319" data-name="Group 2319" class="cls-35">
          <path id="Path_18199" data-name="Path 18199" class="cls-21" d="M55,329.7h7.1l100.7.3-26.2-66.8-15.9-.1Z"/>
        </g>
      </g>
    </g>
    <g id="Group_2322" data-name="Group 2322" transform="translate(335 4427.423)">
      <path id="Path_18200" data-name="Path 18200" class="cls-26" d="M20.6,315.5a5.015,5.015,0,0,0,5,5H225.7a5.015,5.015,0,0,0,5-5V207.3a5.015,5.015,0,0,0-5-5H25.6a5.015,5.015,0,0,0-5,5Z"/>
    </g>
  </g>
</svg>
