<svg xmlns="http://www.w3.org/2000/svg" xmlns:xlink="http://www.w3.org/1999/xlink" viewBox="0 0 970.7 502.919">
  <defs>
    <style>
      .cls-1, .cls-15 {
        fill: #6dcbf1;
      }

      .cls-1 {
        opacity: 0.4;
      }

      .cls-2 {
        fill: #717071;
      }

      .cls-11, .cls-16, .cls-2 {
        font-size: 14px;
        letter-spacing: 0.1em;
      }

      .cls-16, .cls-2 {
        font-family: YuGothicUI-Regular, Yu Gothic UI;
      }

      .cls-3 {
        font-family: MicrosoftJhengHeiUIRegular, Microsoft JhengHei UI;
      }

      .cls-11, .cls-4 {
        font-family: SegoeUI, Segoe UI;
      }

      .cls-5 {
        fill: #666;
        font-size: 13.34px;
        font-family: MicrosoftJhengHeiRegular, Microsoft JhengHei;
      }

      .cls-6 {
        fill: #d3a23c;
      }

      .cls-7 {
        clip-path: url(#clip-path);
      }

      .cls-8 {
        opacity: 0.6;
      }

      .cls-9 {
        fill: #1b1b1b;
      }

      .cls-10, .cls-12, .cls-13, .cls-14, .cls-17 {
        fill: none;
      }

      .cls-10 {
        stroke: #534741;
      }

      .cls-10, .cls-12, .cls-13, .cls-17 {
        stroke-miterlimit: 10;
      }

      .cls-11, .cls-16 {
        fill: #474747;
      }

      .cls-12, .cls-13 {
        stroke: #be1d21;
      }

      .cls-13 {
        stroke-width: 1.378px;
      }

      .cls-17 {
        stroke: #909090;
      }
    </style>
    <clipPath id="clip-path">
      <path id="Path_18703" data-name="Path 18703" d="M85.7,436.1V366.5h-6v69.7l.8-.2.5-1.5h2.1l1.2,1.5Z"/>
    </clipPath>
  </defs>
  <g id="_020" data-name="020" transform="translate(-383 -10898.723)">
    <path id="Path_18696" data-name="Path 18696" class="cls-1" d="M99.1,171.3c107.4,18.9,328.6,27.2,806.9,34.6l.9,35.9c-74,2.2-333.9-1.9-408.8-1.9-35.7,0-108,1.5-208.3,1.5-105.4,0-191.3-16.3-191.3-16.3" transform="translate(413 10727.423)"/>
    <text id="觀測點_人耳高度_與測試原型距離變化所測得的分貝數值_每位置測五次平均值_單位dB_" data-name="觀測點（人耳高度）與測試原型距離變化所測得的分貝數值，每位置測五次平均值(單位dB)。" class="cls-2" transform="translate(498.667 11369.396)"><tspan x="0" y="0">觀測點（人耳高度）與測試原型距離變化所測得的分貝數</tspan><tspan class="cls-3" y="0">值</tspan><tspan y="0">，每位置測五次平均</tspan><tspan class="cls-3" y="0">值</tspan><tspan class="cls-4" y="0">(</tspan><tspan y="0">單位</tspan><tspan class="cls-4" y="0">dB)</tspan><tspan y="0">。</tspan></text>
    <g id="Group_2684" data-name="Group 2684" transform="translate(413 10727.423)">
      <g id="Group_2683" data-name="Group 2683">
        <path id="Path_18697" data-name="Path 18697" d="M246,387.7v.1s.1,0,0-.1Z"/>
        <path id="Path_18698" data-name="Path 18698" d="M259,387.8v0Z"/>
        <path id="Path_18699" data-name="Path 18699" d="M247.2,387.7h0v0Z"/>
        <ellipse id="Ellipse_617" data-name="Ellipse 617" cx="5.1" cy="4.8" rx="5.1" ry="4.8" transform="translate(248.604 379.448) rotate(-89.509)"/>
        <path id="Path_18700" data-name="Path 18700" d="M263.3,384.3c0-2-2.1-3.6-3.9-3.6l-13.2-.1a3.441,3.441,0,0,0-3.3,3.5v.3l-.1,17.4a1.6,1.6,0,0,0,3.2,0l.1-14v-.1h0c.1-.2.2-.4.4-.4h.2a.43.43,0,0,1,.4.4h0v.1h0l-.1,17.3v3.4l-.2,22.3a2.546,2.546,0,0,0,2.4,2.1,2.649,2.649,0,0,0,2.4-1.9l.2-22.3a1.122,1.122,0,0,1,2.2,0l-.2,22.3a2.411,2.411,0,0,0,4.8.2l.2-22.6v-3L259,388v-.1h0c.1-.2.2-.4.4-.4h.2c.2,0,.3.2.4.4h0l-.1,14.1a1.6,1.6,0,0,0,3.2,0l.1-17.4v-.1C263.3,384.4,263.3,384.4,263.3,384.3Z"/>
      </g>
    </g>
    <text id="_1m" data-name="1m" class="cls-5" transform="translate(468.222 11160.78)"><tspan x="0" y="0">1m</tspan></text>
    <g id="Group_2694" data-name="Group 2694" transform="translate(413 10727.423)">
      <path id="Path_18701" data-name="Path 18701" class="cls-6" d="M85.7,435.8V333.5h-6V435.9l.8.3.5-1.7h1.9l1.4,1.6Z"/>
      <g id="Group_2693" data-name="Group 2693">
        <g id="Group_2685" data-name="Group 2685" class="cls-7">
          <path id="Path_18702" data-name="Path 18702" d="M96.4,383.4,68.6,395l-.9-1.7,27.8-11.6Z"/>
        </g>
        <g id="Group_2686" data-name="Group 2686" class="cls-7">
          <path id="Path_18704" data-name="Path 18704" d="M96.4,388,68.6,399.6l-.9-1.7,27.8-11.6Z"/>
        </g>
        <g id="Group_2687" data-name="Group 2687" class="cls-7">
          <path id="Path_18706" data-name="Path 18706" d="M96.4,392.6,68.6,404.1l-.9-1.6,27.8-11.6Z"/>
        </g>
        <g id="Group_2688" data-name="Group 2688" class="cls-7">
          <path id="Path_18708" data-name="Path 18708" d="M96.4,397.2,68.6,408.7l-.9-1.6,27.8-11.6Z"/>
        </g>
        <g id="Group_2689" data-name="Group 2689" class="cls-7">
          <path id="Path_18710" data-name="Path 18710" d="M96.4,401.8,68.6,413.3l-.9-1.6,27.8-11.6Z"/>
        </g>
        <g id="Group_2690" data-name="Group 2690" class="cls-7">
          <path id="Path_18712" data-name="Path 18712" d="M96.4,406.4,68.6,417.9l-.9-1.6,27.8-11.6Z"/>
        </g>
        <g id="Group_2691" data-name="Group 2691" class="cls-7">
          <path id="Path_18714" data-name="Path 18714" d="M96.4,411,68.6,422.5l-.9-1.6,27.8-11.6Z"/>
        </g>
        <g id="Group_2692" data-name="Group 2692" class="cls-7">
          <path id="Path_18716" data-name="Path 18716" d="M96.4,415.6,68.6,427.1l-.9-1.7,27.8-11.5Z"/>
        </g>
      </g>
    </g>
    <g id="Group_2699" data-name="Group 2699" class="cls-8" transform="translate(413 10727.423)">
      <g id="Group_2698" data-name="Group 2698">
        <g id="Group_2697" data-name="Group 2697">
          <g id="Group_2696" data-name="Group 2696">
            <g id="Group_2695" data-name="Group 2695">
              <path id="Path_18718" data-name="Path 18718" class="cls-9" d="M939.6,435.9c1.4,0,.9-.1,1.1-.1C938.3,435.9,939.6,435.9,939.6,435.9Z"/>
              <path id="Path_18719" data-name="Path 18719" class="cls-9" d="M916.6,436.1h.5l-3.4.1Z"/>
              <path id="Path_18720" data-name="Path 18720" class="cls-9" d="M895.2,436.1c2,.1,7.8,0,11.6,0h.6l1.7-.1C904.5,436.1,898.5,436.1,895.2,436.1Z"/>
              <path id="Path_18721" data-name="Path 18721" class="cls-9" d="M883.8,435.8c.7.1-2.5,0,2.7,0h-2.7Z"/>
              <path id="Path_18722" data-name="Path 18722" class="cls-9" d="M886,435.8Z"/>
              <path id="Path_18723" data-name="Path 18723" class="cls-9" d="M875.5,435.8h3c-.6,0-3.3,0-2.3-.1C873.2,435.8,873.8,435.8,875.5,435.8Z"/>
              <path id="Path_18724" data-name="Path 18724" class="cls-9" d="M872.7,435.9h0Z"/>
              <path id="Path_18725" data-name="Path 18725" class="cls-9" d="M877.5,435.9h-3.3a6.847,6.847,0,0,0,1.5,0Z"/>
              <path id="Path_18726" data-name="Path 18726" class="cls-9" d="M879.4,435.9c1.7,0,3.8,0,.8.1C885.9,436,885.1,435.9,879.4,435.9Z"/>
              <path id="Path_18727" data-name="Path 18727" class="cls-9" d="M894.1,436.2h4.1C897.3,436.3,894,436.2,894.1,436.2Z"/>
              <path id="Path_18728" data-name="Path 18728" class="cls-9" d="M857,435.8c-.2,0,1,.1,1.2.1h2.2C859.3,435.8,857.2,435.8,857,435.8Z"/>
              <path id="Path_18729" data-name="Path 18729" class="cls-9" d="M858.2,435.9h0Z"/>
              <path id="Path_18730" data-name="Path 18730" class="cls-9" d="M872.2,436.1l5.4-.1-6.4.1Z"/>
              <path id="Path_18731" data-name="Path 18731" class="cls-9" d="M844.5,435.8l1.8-.1-3.3.1Z"/>
              <path id="Path_18732" data-name="Path 18732" class="cls-9" d="M836.2,435.8c1.4-.1-1.9-.1-.4-.1-2.3,0-4.2.1-5.9.1C831.6,435.7,833.6,435.7,836.2,435.8Z"/>
              <path id="Path_18733" data-name="Path 18733" class="cls-9" d="M826.9,435.8c.9,0,1.9,0,2.9-.1A28.1,28.1,0,0,1,826.9,435.8Z"/>
              <path id="Path_18734" data-name="Path 18734" class="cls-9" d="M849.4,435.9c-.3,0-.7-.1-2.6-.1l1.3.1Z"/>
              <path id="Path_18735" data-name="Path 18735" class="cls-9" d="M848.1,435.9Z"/>
              <path id="Path_18736" data-name="Path 18736" class="cls-9" d="M849.7,435.9h0Z"/>
              <path id="Path_18737" data-name="Path 18737" class="cls-9" d="M863.6,436c-1.9,0-6,.1-2.1.2C862.9,436.1,860.7,436.1,863.6,436Z"/>
              <path id="Path_18738" data-name="Path 18738" class="cls-9" d="M851.3,436h3.5c-.1,0-.7-.1.3-.1Z"/>
              <path id="Path_18739" data-name="Path 18739" class="cls-9" d="M849.6,436.1l1.7-.1H850Z"/>
              <path id="Path_18740" data-name="Path 18740" class="cls-9" d="M832.9,435.9h0Z"/>
              <path id="Path_18741" data-name="Path 18741" class="cls-9" d="M840.3,435.9h0Z"/>
              <path id="Path_18742" data-name="Path 18742" class="cls-9" d="M809.5,435.9h0Z"/>
              <path id="Path_18743" data-name="Path 18743" class="cls-9" d="M834.2,436h0Z"/>
              <path id="Path_18744" data-name="Path 18744" class="cls-9" d="M821.8,435.9h2.6A21.877,21.877,0,0,0,821.8,435.9Z"/>
              <path id="Path_18745" data-name="Path 18745" class="cls-9" d="M839.4,435.9h0Z"/>
              <path id="Path_18746" data-name="Path 18746" class="cls-9" d="M839.4,435.9a12.122,12.122,0,0,0-2,.1h2.5A.749.749,0,0,0,839.4,435.9Z"/>
              <path id="Path_18747" data-name="Path 18747" class="cls-9" d="M803.9,436.5c.3-.1,4.2-.1,7.6-.1,3.4-.1,1.2-.3-1.8-.4a22.9,22.9,0,0,1-3.6.1c1.2,0,7.7.1,4.7.2-4.6,0-3.7,0-6-.1,1.9.1-5.8.1-4.8.3h4C804.3,436.4,802.8,436.4,803.9,436.5Z"/>
              <path id="Path_18748" data-name="Path 18748" class="cls-9" d="M816.4,436h1.4c-1.6,0-2.8,0-4.9-.1a26.291,26.291,0,0,0-3,.1h6.5Z"/>
              <path id="Path_18749" data-name="Path 18749" class="cls-9" d="M824.1,436c-1.1.1-4.5.1-2.4.2,4.2,0,2.9-.1,5.4-.1-6.7,0,2-.1-3-.1h.4c-.1-.1-.2-.1-.4,0h0Z"/>
              <path id="Path_18750" data-name="Path 18750" class="cls-9" d="M857.9,436.4h0Z"/>
              <path id="Path_18751" data-name="Path 18751" class="cls-9" d="M855.2,436.3h2.5c1.4,0,0,0,.1.1,1,0,3.4-.1.3-.1h-.5c-2.7,0-6.2-.1-5.7-.1C852.7,436.2,853.4,436.2,855.2,436.3Z"/>
              <path id="Path_18752" data-name="Path 18752" class="cls-9" d="M839.5,436.2h-5.6l2.9.1h-.1C839.8,436.2,839.1,436.2,839.5,436.2Z"/>
              <path id="Path_18753" data-name="Path 18753" class="cls-9" d="M808.9,435.9l.7-.1-3.2.1Z"/>
              <path id="Path_18754" data-name="Path 18754" class="cls-9" d="M801.6,435.9l.2-.1-1.9.1Z"/>
              <path id="Path_18755" data-name="Path 18755" class="cls-9" d="M390.5,436.9h0Z"/>
              <path id="Path_18756" data-name="Path 18756" class="cls-9" d="M402.4,436.9h.3C402.1,436.8,401.9,436.9,402.4,436.9Z"/>
              <path id="Path_18757" data-name="Path 18757" class="cls-9" d="M622.6,435.9a43.961,43.961,0,0,0-4.8-.1l.7.1Z"/>
              <path id="Path_18758" data-name="Path 18758" class="cls-9" d="M500.1,436.4h.7c.6,0,1.1-.1,1.6-.1A16.949,16.949,0,0,1,500.1,436.4Z"/>
              <path id="Path_18759" data-name="Path 18759" class="cls-9" d="M498.4,436.8l-3.2-.1C496,436.7,497,436.7,498.4,436.8Z"/>
              <path id="Path_18760" data-name="Path 18760" class="cls-9" d="M325.3,436.9l-1.9.1C326.4,437,325.1,437,325.3,436.9Z"/>
              <path id="Path_18761" data-name="Path 18761" class="cls-9" d="M727,435.9c-2.1,0-3.7,0-5.2-.1A50.874,50.874,0,0,0,727,435.9Z"/>
              <path id="Path_18762" data-name="Path 18762" class="cls-9" d="M395.1,436c-1,0-1.4,0-1.4.1C394.8,436,395.4,436,395.1,436Z"/>
              <path id="Path_18763" data-name="Path 18763" class="cls-9" d="M715.8,435.9h6C719.9,435.9,717.8,435.8,715.8,435.9Z"/>
              <path id="Path_18764" data-name="Path 18764" class="cls-9" d="M89.1,436.9h0Z"/>
              <path id="Path_18765" data-name="Path 18765" class="cls-9" d="M35.4,436h0Z"/>
              <path id="Path_18766" data-name="Path 18766" class="cls-9" d="M772.3,435.9Z"/>
              <path id="Path_18767" data-name="Path 18767" class="cls-9" d="M779.8,436.2h0Z"/>
              <path id="Path_18768" data-name="Path 18768" class="cls-9" d="M700.4,436.4h0Z"/>
              <path id="Path_18769" data-name="Path 18769" class="cls-9" d="M774.6,435.9h0Z"/>
              <path id="Path_18770" data-name="Path 18770" class="cls-9" d="M774.3,435.9h0Z"/>
              <path id="Path_18771" data-name="Path 18771" class="cls-9" d="M770.1,435.9h0Z"/>
              <path id="Path_18772" data-name="Path 18772" class="cls-9" d="M215.7,436.6h-.3C213.8,436.7,214.5,436.7,215.7,436.6Z"/>
              <path id="Path_18773" data-name="Path 18773" class="cls-9" d="M582.4,436.8h0Z"/>
              <path id="Path_18774" data-name="Path 18774" class="cls-9" d="M576.9,436.8c2.4-.1,3.7-.1,5.5-.1l-1.8-.2Z"/>
              <path id="Path_18775" data-name="Path 18775" class="cls-9" d="M361.9,436.9l3.9.1c-4.7.1-8.1.1-4.4.2.6-.3,15.1,0,15.7-.3l2.6.1h-1.6c5,.1,3.7-.2,10.1-.2,2.2,0,3.8.1,2.3.1l5-.1c1.5,0,1.1.1-.3,0h7.5c1.1,0,3.6-.1,4.8-.1,1.9,0-1,0-.5.1l4.2-.1c1.7.1-1.8.1-4.7.1,3.9.3,3.5-.1,12,.1h-4c2.6.1,5.7.1,10.2.2-1.1,0-9-.2-4.4-.3h5.5a10.757,10.757,0,0,0,1.6.1h3.9l-.3.1a48.764,48.764,0,0,0,4.9-.2,39.779,39.779,0,0,1,5.3.2c5.8,0-4-.2,2.9-.2,4.8,0,8.3,0,14-.1,3.4,0-.6.1.6.1l3-.1h.4c2.5,0,.2-.1,4.2-.2,1.1-.1,8.2.2,13.1,0,1.2,0-.6.1-.2.1,6.8-.1,5.8-.1,11.4-.2l4.7.1c-3.5-.1,1-.2,4.9-.3-1.2,0-2.3-.1-3-.1l6.2-.1c.8,0,.1.1-.9.1h1.1c2.2,0,1.1.1-.5.2-.8,0-1.5-.1-2.2-.1-1.5.1-3,.2-2.6.2h2c-.4,0-.7,0-.5.1h1.9l1.4.1.3-.1,8.1.1c5.8-.1,10.9-.3,20.1-.4-2.3.1-.5.2-.6.3-2.5-.1-7.1.1-11.9,0,2.5,0,1.9.1,1.3.1l8.5-.1a26.674,26.674,0,0,0,4,.1c-1.7-.2,6.4-.1,9.8-.2.2.1-.6.1-4.8.1,4.7.1,6-.2,10.6-.1h-2c2.4-.1,8.3,0,6.9,0h-1c6.9,0,20.9,0,21.9-.2a7,7,0,0,1-1.3.2l12.2-.6c-1.1.1,3.1.5-2.6.6h7.1c-1.1,0-2.8-.2-1.3-.2,4.2.2,2.9.1,8.1.2-1.7,0,.2-.3,2.8-.2-.4,0,.2.2-.7.2l6.6-.2c-1.6,0-.3.2,1.2.2h7.4l-2.8-.1c7.4,0,7.3-.3,14.7-.3-.9,0-2.2.3,1.5.3,1.7-.1,7.6-.5,14.1-.6l1.2.1,5-.1c-3.1.2-11.8.5-16.6.7,2.8,0,.8.1,4.9.1,1.5.1-2.3.1-3.5.1H642c-.4-.1,7.4-.1,7-.2l-10.5.1a124.769,124.769,0,0,1,12.9-.3c1.7.1-1.3.2-1.2.3.9,0,6.5-.1,7.1-.1l-2.9.1c3.8,0,6.2-.2,10.8,0,1.6,0,4.7.2,5,.1-2.6-.1-3.1-.6-1.4-.7.6,0,8.3.1,10.1.2,2.6.1-3.9.3-1.7.4.1,0,1.5-.1,2.1-.1,1.7,0-.7.1,2.9.1.6-.1,7.4,0,1.7-.1h7.9c-1.3-.1,3.7-.3,7.3-.3a4.536,4.536,0,0,0,1,.1c7.2,0,11.1,0,17.9.1.6,0,3.9.1,2.5.1,1,0,1.9-.1,3.9-.1,4,.1-4.6,0-1.6.2.3-.1,5.4-.1,8.4-.2-.9-.1-6.9,0-9.8,0a14.251,14.251,0,0,1,3.5-.2c2.2-.1,5.2-.1,8.8-.2,5.6,0,2.4.1,3.4.1,10.5,0,9-.3,17.7-.2,3.5.1.2.2.9.3-4.6,0-7-.1-10.1-.1h3.8c-1.5,0-4.5.1-6.2,0,2.9.1,17.8,0,25.9.1a16.25,16.25,0,0,0,2.8-.1h-2.6c-2.4-.1,4.8-.1,1.6-.2,3.5-.1,7.3-.2,12.2-.1l.9.1c-.1,0-3.2-.1-4.5,0,2-.1,7.5.2,9.7,0l-3.4-.1c3.5-.1,7.8-.2,12.1-.1-2-.1-1,0-4.1-.1,2.7.2-11,0-6.8.2-3.1-.2-5.4-.1-9.5-.2.1,0,1.5.1-2.2.1h-.7a7.192,7.192,0,0,1,1.8.1c-1.8.1-7.5.1-9.5.1-2.1,0,.9,0-.3-.1l-2.9.1c-.3-.1-5.7-.1-.6-.2h-4.5c-2.7,0-6.4-.1-8.6,0-2.1,0-5.4.1-3.6,0l-7.1.1h-.1c-7,0-14.5.1-22.5,0h-8.8l-.8-.1c-3,0-9.1-.1-10.4,0-3.3-.2-14.8,0-20.1-.1l-.2.1c-3.7,0-7.2,0-11.8.1l.3.1c-3.9.1-10.1-.1-16.4-.1h3.1c-7.5-.2-15.7.1-22.5,0h-9.9l-.8-.1H618c-1.9,0-1.5,0-.5.1a20.119,20.119,0,0,0-2.6.1c-1.5-.1-5.1.1-7.2-.1-1.3.1-9.7.1-10.7.2h-5.8l-.9-.1-4.7.2c-2.9-.1-4-.1-1.2-.2-6.9.1-5.5.1-11.4.2l.3-.1c-2.1,0-5.4.1-6.7,0-4.7-.1-23,0-35-.2,2.3.2-5.6-.1-6,.1-.7-.1-2.4-.1-.4-.1-6.1.1-9.2-.1-13.4.1-.7-.1,1.3-.1.7-.1h-2.6c-.6,0,.9,0,1.9-.1-6.2,0-6.9.2-7.3.3-3.2-.1-4.7-.1-7,0-1.1-.1-2.9-.1.9-.1h-7.5c-3.1,0-5.9,0-6,.1H472.5c-1.9.1-4,0-7.9.1h.1c-8.9-.1-3.8.1-12.6-.1l.5.1c-.8.2-7.8-.1-12.8,0l1.8.1c-2.8.1-7.8-.3-10.5-.3h1.8c-7.3-.1-.9.1-6.4.1-1-.1,1.3-.2-2.4-.2-1.8-.1-10.6.2-15.6.1,1.1.1,2.2.1-.3.1-3.9,0-10.5-.2-14,0h-.7c-3,0-9.6.1-11.4.2-1.4-.2-6-.1-10.2-.1h-5.7a10.476,10.476,0,0,1-2.5-.1h-8.9c-5.8,0-7.9.1-9.9.1-1.3,0-.4,0-.3-.1-8.5-.1-9.3,0-16.5.1l-.7-.1c-1.9.1-12.3-.1-20.6,0h.9c-9.4.1-22.4-.3-25.9.1l-6.2.1c8,0-1.2.2,2.1.2-3.1,0-8.1-.1-4.3-.1h.6c1.4-.2-9.9-.1-9.7-.2-15.7,0-31.1-.1-45.9-.1l1.7.1H215c-1.4,0-1.8-.1,1.9-.1h-3.8c-1.3,0-2.4.1-2.4.1-7.2-.1,2.8-.2.6-.2H209c-2.4.1-2.6.1-7.1.1a22.769,22.769,0,0,1-2.5-.1h-8.1l2.6.1c-2.9.1-6.1,0-3.1.1-4.4-.2-24.2-.1-26.9-.1-4,.1-8,.1-12.9.1,1.2,0,2,.1-2.3.1,1.6-.3-7.8-.1-11.2-.3,3.1.1-12.1,0-7.3.2-3.5,0-.2-.1-2.9-.2-8.4.1-18.6-.1-29,0-.2,0,1.6.1-.7.1l-5.5-.2c-2.1,0-1.9.2-5.7.1.5,0,1.3.1-.1.1-6.2,0-12.4,0-18.7-.1H48.5l-.6,1.6.5,2.1-.9.5-.6,2.6-.5-1.4.4-1.6-.9-1.2H44.5l.2.6,1.8-1.8-1-1.4c-2.2,0-4.3-.1-6.5-.1,2.8.1.9.1-1.2.1,1.4,0,0,.1.2.1l-8.7-.1c-1.6.1-9.3,0-10.2.1h2.7c-3.7.1,5.1.3,4.6.5,4.1-.2,10.8.2,17.5,0,1.5,0-1.3.1-.5.1a9.15,9.15,0,0,0,1.6-.1,4.233,4.233,0,0,1,.5.7l-1.4,1.4-.4.4h1.7c.2.2.3.5.5.7l-.2-.3c.1.1.2.2.2.3a15.461,15.461,0,0,1-.4,1.5c.5,1.3.9,2.5,1.3,3.5.3-1.6.7-3.1,1-4.4.4-.2.7-.4,1.1-.6a20.48,20.48,0,0,1-.5-2.4c.1-.3.3-.7.4-1,4,0,8.1,0,13.9.1l-.9-.1c2.6,0,3.1,0,4.3.1,3-.1-7.3,0-4.6-.2,3.4.2,18.2,0,20.5.2,4,0-1.2-.1,2.8-.1l1.1.1,1-.1c2.6,0,3.9.1,4,.1H88.4c3.4.1,9.5,0,10.7,0H95.3c10.8-.1,24.1,0,34.6-.1h-.8c8-.1,6.4,0,15.2,0H144c1.8,0,4.1-.1,6.5-.1-2.2.1,4.2.1,1.3.2,8.7-.1,4.3-.1,10-.2l1.3.1c2-.1,2.1-.1,6.5-.1-3.6.1,2.8.1-1.2.2,9.2.2,13.7-.2,17.9.1,4.2-.2-8-.1-5.6-.2-2-.1,3.5-.1,6.4-.1s5,.3,12.4.2H198c2.8.1,5.4-.1,8.8,0,1.9-.1,4.4,0,5-.1H205c3.8,0,7.5-.2,13.8-.1-.5,0-2.4.1-3.7.1h5.5c-.5.2-8.2,0-12.4.1,2,.1,7.8-.1,5.7.1,3-.2,7.3,0,12.3-.1l-.3.1c.8,0,2.4-.1,3.9-.1l-2.6.1c4.1-.1,7.8.1,11.7,0-8.1,0-1.8-.1-5.3-.2,10-.1,5.8.2,17,.2-1.5,0-5.7-.1-3.3-.1,2.1,0,5,.1,6.3.1,7.5,0-1.1-.1,2-.1,2.5.1,3.7,0,6.9-.1v.1c8.5.1,2.3-.2,9.9-.1l-3.2.1h4l-.8.1c4.3-.1,5.7-.1,9.9,0-1-.1.6-.2,4.3-.2a21.983,21.983,0,0,0,3.9.1,37.3,37.3,0,0,1-4.8,0c-.3,0-1.2.1-1.4.1,2.8.1,6.9,0,8.9,0h-2.1l7.7-.1c1.2,0,.3.1-.7.1,1.6,0,2.7,0,5-.1a13.893,13.893,0,0,1-3.7.2l7.4-.1c.5,0,3.8.1,2.8.1,4.1,0,10-.1,15.4-.1h2c5.1,0,9.6.1,15.6,0l3.4.1c4.7,0-4.6-.2,3.2-.2,5.6,0,2.1.1,4,.2,2.8-.1,7.6-.2,12.7-.1A9.748,9.748,0,0,1,361.9,436.9Zm58.2-.1c-1.1,0-3.4.1-4.2,0C417.2,436.7,418.2,436.8,420.1,436.8Zm88.6-.2h0Zm246.6-.7h0Zm5.2.1h0Zm-561.3,0h1C197.9,436.1,198.5,436,199.2,436Z"/>
              <path id="Path_18776" data-name="Path 18776" class="cls-9" d="M498.6,436.7c-.3,0-.4,0-.5-.1C497.7,436.7,497.7,436.7,498.6,436.7Z"/>
              <path id="Path_18777" data-name="Path 18777" class="cls-9" d="M325.7,436.9h0Z"/>
              <path id="Path_18778" data-name="Path 18778" class="cls-9" d="M679.6,436.8h-2.1C677.4,436.7,677.9,436.8,679.6,436.8Z"/>
              <path id="Path_18779" data-name="Path 18779" class="cls-9" d="M788.2,435.8h-.3C787.8,435.9,787.2,435.8,788.2,435.8Z"/>
              <path id="Path_18780" data-name="Path 18780" class="cls-9" d="M817.3,436.4h1.4C816.6,436.3,815.2,436.4,817.3,436.4Z"/>
              <path id="Path_18781" data-name="Path 18781" class="cls-9" d="M791.3,436.1a33.111,33.111,0,0,0,4.7,0h-4.7Z"/>
              <path id="Path_18782" data-name="Path 18782" class="cls-9" d="M796.6,436.2h2.2A11.946,11.946,0,0,0,796.6,436.2Z"/>
              <path id="Path_18783" data-name="Path 18783" class="cls-9" d="M767.2,435.9c1.1,0,.7-.1,1.3-.1C769.7,435.8,761.1,436,767.2,435.9Z"/>
              <path id="Path_18784" data-name="Path 18784" class="cls-9" d="M793.2,436.4l-.8-.1-1.3.1Z"/>
              <path id="Path_18785" data-name="Path 18785" class="cls-9" d="M774.7,436.3h0Z"/>
              <path id="Path_18786" data-name="Path 18786" class="cls-9" d="M779.5,436.3h0Z"/>
              <path id="Path_18787" data-name="Path 18787" class="cls-9" d="M788.1,436.4h0Z"/>
              <path id="Path_18788" data-name="Path 18788" class="cls-9" d="M734.4,436.3h-4.1a9.41,9.41,0,0,0,2.2,0Z"/>
              <path id="Path_18789" data-name="Path 18789" class="cls-9" d="M746.8,436.6a8.159,8.159,0,0,1-1.8-.1l-.1.1Z"/>
              <path id="Path_18790" data-name="Path 18790" class="cls-9" d="M734.9,436.6c-.4,0-5.9.1-.8.1C734.5,436.7,738.6,436.6,734.9,436.6Z"/>
              <path id="Path_18791" data-name="Path 18791" class="cls-9" d="M673.2,436.4h1.1l-.2-.2Z"/>
              <path id="Path_18792" data-name="Path 18792" class="cls-9" d="M618.9,436.9c4.8,0,1.2-.1,5.5-.1,1.1,0-3.6,0-2.4-.1C619.1,436.8,617.6,436.8,618.9,436.9Z"/>
              <path id="Path_18793" data-name="Path 18793" class="cls-9" d="M622,436.8h0Z"/>
              <path id="Path_18794" data-name="Path 18794" class="cls-9" d="M24,435.9h0Z"/>
              <path id="Path_18795" data-name="Path 18795" class="cls-9" d="M18,436.1l-.7-.1-1.9.1A22.532,22.532,0,0,1,18,436.1Z"/>
              <path id="Path_18796" data-name="Path 18796" class="cls-9" d="M428.8,437.1h0Z"/>
              <path id="Path_18797" data-name="Path 18797" class="cls-9" d="M386.5,437h.8l-1.4-.1Z"/>
              <path id="Path_18798" data-name="Path 18798" class="cls-9" d="M351,437.1h4.6C352.5,437.1,350.7,437,351,437.1Z"/>
            </g>
          </g>
        </g>
      </g>
    </g>
    <path id="Path_18799" data-name="Path 18799" d="M57.4,400.4l.3-4.5-4.8-.1.1-3.2-7.9-.3-.1,3.2-3.3-.1-.2,4.5,2.4.1-.5,14.9h-.8l-.1,3.4,5.1.2L47,436.1h1.1l.6-17.6,5.1.2.1-3.4h-.8l.5-14.9Zm-11.7-7.3,6.6.2-.1,2.4-6.6-.2Z" transform="translate(413 10727.423)"/>
    <line id="Line_408" data-name="Line 408" class="cls-10" y1="209" transform="translate(512.2 10954.923)"/>
    <line id="Line_409" data-name="Line 409" class="cls-10" y1="206" transform="translate(549.2 10957.923)"/>
    <line id="Line_410" data-name="Line 410" class="cls-10" y1="198" transform="translate(604.2 10965.923)"/>
    <line id="Line_411" data-name="Line 411" class="cls-10" y2="194" transform="translate(704.2 10969.923)"/>
    <line id="Line_412" data-name="Line 412" class="cls-10" y2="198" transform="translate(913.2 10965.923)"/>
    <text id="_0.6" data-name="0.6" class="cls-11" transform="translate(502.439 11205.567)"><tspan x="0" y="0">0.6</tspan></text>
    <text id="_92" data-name="92" class="cls-11" transform="translate(504.039 11255.367)"><tspan x="0" y="0">92</tspan></text>
    <text id="_71" data-name="71" class="cls-11" transform="translate(504.039 11288.167)"><tspan x="0" y="0">71</tspan></text>
    <text id="_21" data-name="21" class="cls-11" transform="translate(504.039 11320.968)"><tspan x="0" y="0">21</tspan></text>
    <text id="_1.2" data-name="1.2" class="cls-11" transform="translate(537.526 11205.567)"><tspan x="0" y="0">1.2</tspan></text>
    <text id="_89" data-name="89" class="cls-11" transform="translate(539.126 11255.367)"><tspan x="0" y="0">89</tspan></text>
    <text id="_70" data-name="70" class="cls-11" transform="translate(539.126 11288.167)"><tspan x="0" y="0">70</tspan></text>
    <text id="_19" data-name="19" class="cls-11" transform="translate(539.126 11320.968)"><tspan x="0" y="0">19</tspan></text>
    <text id="_2.4" data-name="2.4" class="cls-11" transform="translate(593.8 11205.567)"><tspan x="0" y="0">2.4</tspan></text>
    <text id="_88" data-name="88" class="cls-11" transform="translate(595.4 11255.367)"><tspan x="0" y="0">88</tspan></text>
    <text id="_68" data-name="68" class="cls-11" transform="translate(595.4 11288.167)"><tspan x="0" y="0">68</tspan></text>
    <text id="_20" data-name="20" class="cls-11" transform="translate(595.4 11320.968)"><tspan x="0" y="0">20</tspan></text>
    <text id="_4.8" data-name="4.8" class="cls-11" transform="translate(694.439 11205.567)"><tspan x="0" y="0">4.8</tspan></text>
    <text id="_86" data-name="86" class="cls-11" transform="translate(696.039 11255.367)"><tspan x="0" y="0">86</tspan></text>
    <text id="_67" data-name="67" class="cls-11" transform="translate(696.039 11288.167)"><tspan x="0" y="0">67</tspan></text>
    <text id="_19-2" data-name="19" class="cls-11" transform="translate(696.039 11320.968)"><tspan x="0" y="0">19</tspan></text>
    <text id="_9.6" data-name="9.6" class="cls-11" transform="translate(905.255 11206.817)"><tspan x="0" y="0">9.6</tspan></text>
    <text id="_84" data-name="84" class="cls-11" transform="translate(906.855 11256.617)"><tspan x="0" y="0">84</tspan></text>
    <text id="_68-2" data-name="68" class="cls-11" transform="translate(906.855 11289.417)"><tspan x="0" y="0">68</tspan></text>
    <text id="_16" data-name="16" class="cls-11" transform="translate(906.855 11322.218)"><tspan x="0" y="0">16</tspan></text>
    <text id="_19.2" data-name="19.2" class="cls-11" transform="translate(1305.382 11220.15)"><tspan x="0" y="0">19.2</tspan></text>
    <text id="_80" data-name="80" class="cls-11" transform="translate(1311.082 11259.95)"><tspan x="0" y="0">80</tspan></text>
    <text id="_67-2" data-name="67" class="cls-11" transform="translate(1311.082 11292.75)"><tspan x="0" y="0">67</tspan></text>
    <text id="_14" data-name="14" class="cls-11" transform="translate(1311.082 11325.551)"><tspan x="0" y="0">14</tspan></text>
    <line id="Line_413" data-name="Line 413" class="cls-12" y1="54" transform="translate(512.2 10899.923)"/>
    <line id="Line_414" data-name="Line 414" class="cls-12" y1="211" transform="translate(512.2 10953.923)"/>
    <line id="Line_415" data-name="Line 415" class="cls-12" y1="260" transform="translate(549.2 10904.923)"/>
    <line id="Line_416" data-name="Line 416" class="cls-12" y1="254" transform="translate(604.2 10910.923)"/>
    <line id="Line_417" data-name="Line 417" class="cls-12" y1="247" transform="translate(704.2 10917.923)"/>
    <line id="Line_418" data-name="Line 418" class="cls-12" y1="239" transform="translate(913.2 10925.923)"/>
    <line id="Line_419" data-name="Line 419" class="cls-12" y2="231" transform="translate(1319.2 10933.923)"/>
    <path id="Path_18800" data-name="Path 18800" class="cls-13" d="M99.1,172.3c107.4,18.9,329.1,27.2,807.4,34.6" transform="translate(413 10727.423)"/>
    <line id="Line_420" data-name="Line 420" class="cls-14" x2="3" transform="translate(437.7 10903.923)"/>
    <text id="環境噪音:62.4" class="cls-2" transform="translate(498.667 11397.642)"><tspan x="0" y="0">環境噪音</tspan><tspan class="cls-4" y="0">:62.4</tspan></text>
    <path id="Path_18801" data-name="Path 18801" class="cls-15" d="M769.4,217.5" transform="translate(413 10727.423)"/>
    <text id="距離" class="cls-16" transform="translate(431 11205.568)"><tspan x="0" y="0">距離</tspan></text>
    <text id="原始分貝值" class="cls-16" transform="translate(395 11255.368)"><tspan x="0" y="0">原始分貝</tspan><tspan class="cls-3" y="0">值</tspan></text>
    <text id="除噪後分貝數" class="cls-16" transform="translate(383 11288.168)"><tspan x="0" y="0">除噪後分貝數</tspan></text>
    <text id="降低分貝數" class="cls-16" transform="translate(395 11320.969)"><tspan x="0" y="0">降低分貝數</tspan></text>
    <line id="Line_421" data-name="Line 421" class="cls-17" x2="928" transform="translate(418.7 11226.423)"/>
  </g>
</svg>
