<svg xmlns="http://www.w3.org/2000/svg" xmlns:xlink="http://www.w3.org/1999/xlink" viewBox="0 0 400 142">
  <defs>
    <style>
      .cls-1 {
        fill: #231815;
        font-family: SegoeUI, Segoe UI;
      }

      .cls-1, .cls-3 {
        font-size: 14px;
        letter-spacing: 0.1em;
      }

      .cls-2, .cls-3 {
        fill: #717071;
      }

      .cls-3 {
        font-family: YuGothicUI-Regular, Yu Gothic UI;
      }

      .cls-4 {
        fill: #dbd6d3;
      }

      .cls-24, .cls-5 {
        fill: #595757;
      }

      .cls-6 {
        opacity: 0.5;
        clip-path: url(#clip-path);
      }

      .cls-7 {
        clip-path: url(#clip-path-2);
      }

      .cls-23, .cls-26, .cls-8 {
        fill: none;
      }

      .cls-8 {
        stroke: #b21d21;
        stroke-width: 0.13px;
      }

      .cls-23, .cls-8 {
        stroke-miterlimit: 10;
      }

      .cls-9 {
        clip-path: url(#clip-path-5);
      }

      .cls-10 {
        clip-path: url(#clip-path-8);
      }

      .cls-11 {
        clip-path: url(#clip-path-11);
      }

      .cls-12 {
        clip-path: url(#clip-path-14);
      }

      .cls-13 {
        clip-path: url(#clip-path-17);
      }

      .cls-14 {
        clip-path: url(#clip-path-20);
      }

      .cls-15 {
        clip-path: url(#clip-path-23);
      }

      .cls-16 {
        clip-path: url(#clip-path-25);
      }

      .cls-17 {
        fill: #040000;
        font-size: 15.59px;
        font-family: MicrosoftJhengHeiUIRegular, Microsoft JhengHei UI;
      }

      .cls-18 {
        fill: #c0923f;
      }

      .cls-19 {
        opacity: 0.9;
      }

      .cls-20 {
        clip-path: url(#clip-path-74);
      }

      .cls-21 {
        fill: #fff;
      }

      .cls-22 {
        fill: url(#linear-gradient);
      }

      .cls-23 {
        stroke: #d64850;
        stroke-width: 4.148px;
      }

      .cls-24, .cls-25 {
        fill-rule: evenodd;
      }

      .cls-25 {
        fill: #4e4d4d;
      }
    </style>
    <clipPath id="clip-path">
      <path id="Path_20345" data-name="Path 20345" d="M2785.6,3233.5a13.152,13.152,0,1,0,18.6,0,13.28,13.28,0,0,0-18.6,0"/>
    </clipPath>
    <clipPath id="clip-path-2">
      <rect id="Rectangle_1405" data-name="Rectangle 1405" width="37.5" height="13" transform="translate(2763.4 3245)"/>
    </clipPath>
    <clipPath id="clip-path-5">
      <rect id="Rectangle_1407" data-name="Rectangle 1407" width="22" height="34" transform="translate(2772.1 3232.5)"/>
    </clipPath>
    <clipPath id="clip-path-8">
      <rect id="Rectangle_1409" data-name="Rectangle 1409" width="3.4" height="18.1" transform="translate(2792.6 3225.4)"/>
    </clipPath>
    <clipPath id="clip-path-11">
      <rect id="Rectangle_1411" data-name="Rectangle 1411" width="17.4" height="13.3" transform="translate(2795.6 3242.8)"/>
    </clipPath>
    <clipPath id="clip-path-14">
      <rect id="Rectangle_1413" data-name="Rectangle 1413" width="21.4" height="5.2" transform="translate(2795.1 3238.9)"/>
    </clipPath>
    <clipPath id="clip-path-17">
      <rect id="Rectangle_1415" data-name="Rectangle 1415" width="30.7" height="29.6" transform="translate(2762.4 3242.4)"/>
    </clipPath>
    <clipPath id="clip-path-20">
      <rect id="Rectangle_1417" data-name="Rectangle 1417" width="11.2" height="16.4" transform="translate(2783.6 3243.9)"/>
    </clipPath>
    <clipPath id="clip-path-23">
      <rect id="Rectangle_1419" data-name="Rectangle 1419" width="15.7" height="13.1" transform="translate(2793.9 3229.3)"/>
    </clipPath>
    <clipPath id="clip-path-25">
      <path id="Path_20360" data-name="Path 20360" d="M2786.2,3251.5a12.3,12.3,0,1,1,17.4,0,12.312,12.312,0,0,1-17.4,0m-1.2-18.6a14,14,0,1,0,9.9-4.1,14.125,14.125,0,0,0-9.9,4.1"/>
    </clipPath>
    <clipPath id="clip-path-74">
      <rect id="Rectangle_1420" data-name="Rectangle 1420" width="7" height="9.8" transform="translate(2791.3 3238.3)"/>
    </clipPath>
    <linearGradient id="linear-gradient" x1="-63.488" y1="-350.772" x2="-63.478" y2="-350.772" gradientUnits="objectBoundingBox">
      <stop offset="0" stop-color="#fff"/>
      <stop offset="1" stop-color="#9e9f9f"/>
    </linearGradient>
  </defs>
  <g id="_026" data-name="026" transform="translate(-365 -1161)">
    <text id="Thin_and_light_design" data-name="Thin and light design" class="cls-1" transform="translate(451.2 1293.393)"><tspan x="0" y="0">Thin and light design</tspan></text>
    <g id="Group_4361" data-name="Group 4361" transform="translate(-2386 -1970)">
      <path id="Path_20325" data-name="Path 20325" class="cls-2" d="M2787.6,3255.5l-20.4,5.8,20.2-6.4Z"/>
    </g>
    <g id="Group_4362" data-name="Group 4362" transform="translate(-2386 -1970)">
      <path id="Path_20326" data-name="Path 20326" class="cls-2" d="M2788.5,3253.8l-17,4.9,16.9-5.3Z"/>
    </g>
    <g id="Group_4363" data-name="Group 4363" transform="translate(-2386 -1970)">
      <path id="Path_20327" data-name="Path 20327" class="cls-2" d="M2793,3250.4l-28.5,8.8,28.3-9.4Z"/>
    </g>
    <g id="Group_4364" data-name="Group 4364" transform="translate(-2386 -1970)">
      <path id="Path_20328" data-name="Path 20328" class="cls-2" d="M2796.1,3247l-27.2,8.2,27-8.9Z"/>
    </g>
    <g id="Group_4365" data-name="Group 4365" transform="translate(-2386 -1970)">
      <path id="Path_20329" data-name="Path 20329" class="cls-2" d="M2798.3,3243.1l-25.2,7.7,25-8.3Z"/>
    </g>
    <g id="Group_4366" data-name="Group 4366" transform="translate(-2386 -1970)">
      <path id="Path_20330" data-name="Path 20330" class="cls-2" d="M2792.9,3243.8l-34.3,10.6,34.3-10.8Z"/>
    </g>
    <g id="Group_4367" data-name="Group 4367" transform="translate(-2386 -1970)">
      <path id="Path_20331" data-name="Path 20331" class="cls-2" d="M2796.1,3256l-20.2,6.5,20.2-6.6Z"/>
    </g>
    <g id="Group_4368" data-name="Group 4368" transform="translate(-2386 -1970)">
      <path id="Path_20332" data-name="Path 20332" class="cls-2" d="M2802.2,3254.2l-20.2,6.5,20.1-6.6Z"/>
    </g>
    <g id="Group_4369" data-name="Group 4369" transform="translate(-2386 -1970)">
      <path id="Path_20333" data-name="Path 20333" class="cls-2" d="M2792,3253.3l-34.4,10.7,34.3-10.9Z"/>
    </g>
    <g id="Group_4370" data-name="Group 4370" transform="translate(-2386 -1970)">
      <path id="Path_20334" data-name="Path 20334" class="cls-2" d="M2784.8,3241.2l-14.7,4.5,14.7-4.7Z"/>
    </g>
    <g id="Group_4371" data-name="Group 4371" transform="translate(-2386 -1970)">
      <path id="Path_20335" data-name="Path 20335" class="cls-2" d="M2803,3238.7l-28.5,8.7,28.3-9.3Z"/>
    </g>
    <g id="Group_4372" data-name="Group 4372" transform="translate(-2386 -1970)">
      <path id="Path_20336" data-name="Path 20336" class="cls-2" d="M2797.3,3237.7l-18.4,5.5,18.2-6Z"/>
    </g>
    <g id="Group_4373" data-name="Group 4373" transform="translate(-2386 -1970)">
      <path id="Path_20337" data-name="Path 20337" class="cls-2" d="M2791.9,3236.1l-17.4,5.2,17.2-5.7Z"/>
    </g>
    <g id="Group_4374" data-name="Group 4374" transform="translate(-2386 -1970)">
      <path id="Path_20338" data-name="Path 20338" class="cls-2" d="M2798.7,3231.6l-18.2,5.6,18.1-5.9Z"/>
    </g>
    <g id="Group_4375" data-name="Group 4375" transform="translate(-2386 -1970)">
      <path id="Path_20339" data-name="Path 20339" class="cls-2" d="M2790.6,3232.4l-12.2,3.9,12.2-4.1Z"/>
    </g>
    <g id="Group_4376" data-name="Group 4376" transform="translate(-2386 -1970)">
      <path id="Path_20340" data-name="Path 20340" class="cls-2" d="M2794.9,3229.5l-12.6,3.7,12.5-3.9Z"/>
    </g>
    <g id="Group_4377" data-name="Group 4377" transform="translate(-2386 -1970)">
      <path id="Path_20341" data-name="Path 20341" class="cls-2" d="M2798.5,3253.3l-20.1,6.5,20-6.7Z"/>
    </g>
    <g id="Group_4378" data-name="Group 4378" transform="translate(-2386 -1970)">
      <path id="Path_20342" data-name="Path 20342" class="cls-2" d="M2803.5,3252.5l-20.1,6.4,20.1-6.6Z"/>
    </g>
    <text id="提供快速的移動式防噪" class="cls-3" transform="translate(449.967 1267.225)"><tspan x="0" y="0">提供快速的移動式防噪</tspan></text>
    <circle id="Ellipse_2374" data-name="Ellipse 2374" class="cls-4" cx="14.5" cy="14.5" r="14.5" transform="translate(390.565 1263.569) rotate(-17.998)"/>
    <path id="Path_20343" data-name="Path 20343" class="cls-5" d="M2789.8,3237.8a7.142,7.142,0,1,1,0,10.1,7.122,7.122,0,0,1,0-10.1" transform="translate(-2386 -1970)"/>
    <g id="Group_4412" data-name="Group 4412" transform="translate(-2386 -1970)">
      <g id="Group_4383" data-name="Group 4383" class="cls-6">
        <g id="Group_4382" data-name="Group 4382">
          <g id="Group_4381" data-name="Group 4381" class="cls-7">
            <g id="Group_4380" data-name="Group 4380" class="cls-7">
              <path id="Path_20344" data-name="Path 20344" class="cls-8" d="M2795.4,3245c.1.3-1.3,1-1.1,1.3.1.3,1.6-.3,1.7,0s-1.3,1-1.1,1.3c.1.3,1.6-.3,1.7,0s-1.3,1-1.1,1.3,1.6-.3,1.7,0-1.3,1-1.1,1.3c.1.3,1.6-.3,1.7,0s-1.3,1-1.1,1.3c.1.3,1.6-.3,1.7,0s-1.3,1-1.1,1.3c.1.3,1.6-.3,1.7,0s-1.3,1-1.1,1.3c.1.3,1.6-.3,1.7,0s-1.3,1-1.1,1.3c.1.3,1.6-.3,1.7,0s-1.3,1-1.1,1.3c.1.3,1.6-.3,1.7,0s-.3.1-.6.2c-.9.2-.9,1.4-1.8,1.3-1-.1-.8-1.7-1.8-1.8s-1.1,1.5-2.1,1.4-.8-1.7-1.8-1.8-1.1,1.5-2.1,1.3c-1-.1-.8-1.7-1.8-1.8s-1.1,1.5-2.1,1.4-.8-1.7-1.8-1.8-1.1,1.5-2.1,1.4-.8-1.7-1.8-1.8-1.1,1.5-2.1,1.4-.8-1.7-1.8-1.8-1.1,1.5-2.1,1.4-.8-1.7-1.8-1.8-1.1,1.5-2.1,1.3c-1-.1-.8-1.7-1.8-1.8s-1.1,1.4-2.1,1.3-.8-1.6-1.8-1.8c-1-.1-1.1,1.5-2.1,1.4"/>
            </g>
          </g>
        </g>
      </g>
      <g id="Group_4387" data-name="Group 4387" class="cls-6">
        <g id="Group_4386" data-name="Group 4386">
          <g id="Group_4385" data-name="Group 4385" class="cls-9">
            <g id="Group_4384" data-name="Group 4384" class="cls-9">
              <path id="Path_20346" data-name="Path 20346" class="cls-8" d="M2793.8,3243.6c-.3-.3.6-1.5.3-1.8s-1.3,1-1.6.7.6-1.5.3-1.8-1.3,1-1.6.7.6-1.5.3-1.8-1.3,1-1.6.7.6-1.5.3-1.8-1.3,1-1.6.7.6-1.5.3-1.8-1.3,1-1.6.7.6-1.5.3-1.8-1.3,1-1.6.7.6-1.5.3-1.8-1.3,1-1.6.7.6-1.5.3-1.8-1.3,1-1.6.7.6-1.5.3-1.8-1.3,1-1.6.7-.5-2-.8-1.7c-.6.7,1.1,1.6.9,2.5s-1.7.5-2,1.3c-.2.9,1.3,1.3,1.1,2.1-.2.9-1.7.5-2,1.3-.2.9,1.3,1.3,1.1,2.1-.2.9-1.7.5-2,1.3-.2.9,1.3,1.3,1.1,2.1-.2.9-1.7.5-2,1.4s1.3,1.3,1.1,2.1c-.2.9-1.7.5-2,1.3-.2.9,1.3,1.3,1.1,2.1-.2.9-1.7.5-2,1.3-.2.9,1.3,1.3,1.1,2.1-.2.9-1.7.5-2,1.3-.2.9,1.3,1.3,1.1,2.1-.2.9-1.7.5-2,1.3-.2.9,1.3,1.3,1.1,2.1-.2.9-1.7.5-2,1.4-.2.9,1.3,1.3,1,2.1"/>
            </g>
          </g>
        </g>
      </g>
      <g id="Group_4391" data-name="Group 4391" class="cls-6">
        <g id="Group_4390" data-name="Group 4390">
          <g id="Group_4389" data-name="Group 4389" class="cls-10">
            <g id="Group_4388" data-name="Group 4388" class="cls-10">
              <path id="Path_20348" data-name="Path 20348" class="cls-8" d="M2794.5,3243.5c0-.5,1.5-.6,1.5-1.1-.1-.5-1.6-.3-1.7-.8s1.5-.6,1.5-1.1-1.6-.3-1.7-.8c0-.5,1.5-.6,1.5-1.1s-1.6-.3-1.7-.8,1.5-.6,1.4-1.1c0-.5-1.6-.3-1.7-.8s1.5-.6,1.4-1.1c0-.5-1.6-.3-1.6-.8-.1-.5,1.5-.6,1.4-1.1s-1.6-.3-1.7-.8c0-.5,1.5-.6,1.5-1.1s-1.6-.3-1.7-.8,1.5-.6,1.5-1.1c-.1-.5-1.6-.3-1.7-.8s1.5-.6,1.5-1.1c-.1-.5-1.6-.3-1.7-.8s1.5-.6,1.4-1.1"/>
            </g>
          </g>
        </g>
      </g>
      <g id="Group_4395" data-name="Group 4395" class="cls-6">
        <g id="Group_4394" data-name="Group 4394">
          <g id="Group_4393" data-name="Group 4393" class="cls-11">
            <g id="Group_4392" data-name="Group 4392" class="cls-11">
              <path id="Path_20350" data-name="Path 20350" class="cls-8" d="M2795.7,3242.8c.5.3-.4,1.6.1,1.9s1.3-1,1.8-.7-.4,1.6.1,1.9,1.3-1,1.8-.7-.4,1.6.1,1.9,1.3-1,1.8-.7-.4,1.6.1,1.9,1.3-1,1.8-.7-.4,1.6.1,1.9,1.3-1,1.8-.7-.4,1.6.1,1.9,1.3-1,1.8-.7-.4,1.6.1,1.9,1.3-1,1.8-.7-.4,1.6.1,1.9,1.3-1,1.8-.7-.4,1.6.1,1.9,1.3-1,1.8-.7-.4,1.6.1,1.9"/>
            </g>
          </g>
        </g>
      </g>
      <g id="Group_4399" data-name="Group 4399" class="cls-6">
        <g id="Group_4398" data-name="Group 4398">
          <g id="Group_4397" data-name="Group 4397" class="cls-12">
            <g id="Group_4396" data-name="Group 4396" class="cls-12">
              <path id="Path_20352" data-name="Path 20352" class="cls-8" d="M2795.2,3242.7c.6-.1.8,1.4,1.4,1.3s.3-1.6.8-1.7c.6-.1.8,1.4,1.4,1.3s.3-1.6.8-1.7c.6-.1.8,1.4,1.4,1.3s.3-1.6.8-1.7c.6-.1.8,1.4,1.4,1.3s.3-1.6.8-1.7c.6-.1.8,1.4,1.4,1.3s.3-1.6.8-1.7c.6-.1.8,1.4,1.4,1.3s.3-1.6.8-1.7c.6-.1.8,1.4,1.4,1.3s.3-1.6.8-1.7c.6-.1.8,1.4,1.4,1.3s.3-1.6.8-1.7c.6-.1.8,1.4,1.4,1.3s.3-1.6.8-1.7c.6-.1.8,1.4,1.4,1.3"/>
            </g>
          </g>
        </g>
      </g>
      <g id="Group_4403" data-name="Group 4403" class="cls-6">
        <g id="Group_4402" data-name="Group 4402">
          <g id="Group_4401" data-name="Group 4401" class="cls-13">
            <g id="Group_4400" data-name="Group 4400" class="cls-13">
              <path id="Path_20354" data-name="Path 20354" class="cls-8" d="M2793.1,3243.9c-.3.1-.6-1.5-.9-1.4s-.1,1.6-.4,1.7-.6-1.5-.9-1.4-.1,1.6-.4,1.6c-.3.1-.6-1.5-.9-1.4s-.1,1.6-.4,1.7-.6-1.5-.9-1.4-.1,1.6-.4,1.7-.6-1.5-.9-1.4-.1,1.6-.4,1.7-.6-1.5-.9-1.4-.1,1.6-.4,1.7-.6-1.5-.9-1.4-.1,1.6-.4,1.7-.6-1.5-.9-1.4-.1,1.6-.4,1.7-.6-1.5-.9-1.4-.1,1.6-.4,1.7-1.1-1.5-1.3-1.2c-.6.6.7,1.7.2,2.4s-1.8-.2-2.2.5c-.5.7.8,1.6.4,2.3-.5.7-1.8-.2-2.2.5-.5.7.8,1.6.4,2.3-.5.7-1.8-.2-2.2.5-.5.7.8,1.6.4,2.3-.5.7-1.8-.2-2.2.5-.5.7.8,1.6.4,2.3-.5.7-1.8-.2-2.2.5-.5.7.8,1.6.4,2.3-.5.7-1.8-.2-2.2.5-.5.7.8,1.6.4,2.3-.5.7-1.8-.2-2.2.5-.5.7.8,1.6.4,2.3-.5.7-1.8-.2-2.2.5-.5.7.8,1.6.4,2.3-.5.7-1.8-.2-2.2.5s.8,1.6.4,2.3"/>
            </g>
          </g>
        </g>
      </g>
      <g id="Group_4407" data-name="Group 4407" class="cls-6">
        <g id="Group_4406" data-name="Group 4406">
          <g id="Group_4405" data-name="Group 4405" class="cls-14">
            <g id="Group_4404" data-name="Group 4404" class="cls-14">
              <path id="Path_20356" data-name="Path 20356" class="cls-8" d="M2794.7,3244c-.3.4-1.6-.3-1.9.1s1.1,1.2.8,1.7c-.3.4-1.6-.3-1.9.1s1.1,1.2.8,1.7c-.3.4-1.6-.3-1.9.1s1.1,1.2.8,1.7c-.3.4-1.6-.3-1.9.1s1.1,1.2.8,1.7c-.3.4-1.6-.3-1.9.1s1.1,1.2.8,1.7c-.3.4-1.6-.3-1.9.1s1.1,1.2.8,1.7c-.3.4-1.6-.3-1.9.1s1.1,1.2.8,1.7c-.3.4-1.6-.3-1.9.1s1.1,1.2.8,1.7c-.3.4-1.6-.3-1.9.1s1.1,1.2.8,1.7c-.3.4-1.6-.3-1.9.1"/>
            </g>
          </g>
        </g>
      </g>
      <g id="Group_4411" data-name="Group 4411" class="cls-6">
        <g id="Group_4410" data-name="Group 4410">
          <g id="Group_4409" data-name="Group 4409" class="cls-15">
            <g id="Group_4408" data-name="Group 4408" class="cls-15">
              <path id="Path_20358" data-name="Path 20358" class="cls-8" d="M2809.6,3229.9c-.4.3-1.4-.8-1.8-.5s.7,1.5.3,1.8-1.4-.8-1.8-.5.7,1.5.3,1.8-1.4-.8-1.8-.5.7,1.5.3,1.8-1.4-.8-1.8-.5.7,1.5.3,1.8-1.4-.8-1.8-.5.7,1.5.3,1.8-1.4-.8-1.8-.5.7,1.5.3,1.8-1.4-.8-1.8-.5.7,1.5.3,1.8-1.4-.8-1.8-.5.7,1.5.3,1.8-1.4-.8-1.8-.5.7,1.5.3,1.8-1.4-.8-1.8-.5"/>
            </g>
          </g>
        </g>
      </g>
    </g>
    <g id="Group_4462" data-name="Group 4462" transform="translate(-2386 -1970)">
      <g id="Group_4413" data-name="Group 4413" class="cls-16">
        <text id="_" data-name="|" class="cls-17" transform="translate(2781.552 3247.221) rotate(-94.837)"><tspan x="0" y="0">|</tspan></text>
      </g>
      <g id="Group_4414" data-name="Group 4414" class="cls-16">
        <text id="_2" data-name="|" class="cls-17" transform="matrix(0.114, -0.993, 0.993, 0.114, 2780.746, 3244.524)"><tspan x="0" y="0">|</tspan></text>
      </g>
      <g id="Group_4415" data-name="Group 4415" class="cls-16">
        <text id="_3" data-name="|" class="cls-17" transform="translate(2780.59 3241.844) rotate(-71.994)"><tspan x="0" y="0">|</tspan></text>
      </g>
      <g id="Group_4416" data-name="Group 4416" class="cls-16">
        <text id="_4" data-name="|" class="cls-17" transform="translate(2781.077 3239.267) rotate(-60.502)"><tspan x="0" y="0">|</tspan></text>
      </g>
      <g id="Group_4417" data-name="Group 4417" class="cls-16">
        <text id="_5" data-name="|" class="cls-17" transform="translate(2781.789 3236.515) rotate(-50.323)"><tspan x="0" y="0">|</tspan></text>
      </g>
      <g id="Group_4418" data-name="Group 4418" class="cls-16">
        <text id="_6" data-name="|" class="cls-17" transform="matrix(0.793, -0.609, 0.609, 0.793, 2783.099, 3234.139)"><tspan x="0" y="0">|</tspan></text>
      </g>
      <g id="Group_4419" data-name="Group 4419" class="cls-16">
        <text id="_7" data-name="|" class="cls-17" transform="translate(2785.015 3232.231) rotate(-26.263)"><tspan x="0" y="0">|</tspan></text>
      </g>
      <g id="Group_4420" data-name="Group 4420" class="cls-16">
        <text id="_8" data-name="|" class="cls-17" transform="matrix(0.967, -0.255, 0.255, 0.967, 2787.137, 3230.401)"><tspan x="0" y="0">|</tspan></text>
      </g>
      <g id="Group_4421" data-name="Group 4421" class="cls-16">
        <text id="_9" data-name="|" class="cls-17" transform="translate(2789.562 3229.256) rotate(-3.378)"><tspan x="0" y="0">|</tspan></text>
      </g>
      <g id="Group_4422" data-name="Group 4422" class="cls-16">
        <text id="_10" data-name="|" class="cls-17" transform="translate(2792.181 3228.596) rotate(8.03)"><tspan x="0" y="0">|</tspan></text>
      </g>
      <g id="Group_4423" data-name="Group 4423" class="cls-16">
        <text id="_11" data-name="|" class="cls-17" transform="translate(2794.871 3228.395) rotate(19.47)"><tspan x="0" y="0">|</tspan></text>
      </g>
      <g id="Group_4424" data-name="Group 4424" class="cls-16">
        <text id="_12" data-name="|" class="cls-17" transform="translate(2797.594 3228.877) rotate(30.93)"><tspan x="0" y="0">|</tspan></text>
      </g>
      <g id="Group_4425" data-name="Group 4425" class="cls-16">
        <text id="_13" data-name="|" class="cls-17" transform="translate(2800.328 3229.976) rotate(42.345)"><tspan x="0" y="0">|</tspan></text>
      </g>
      <g id="Group_4426" data-name="Group 4426" class="cls-16">
        <text id="_14" data-name="|" class="cls-17" transform="matrix(0.591, 0.806, -0.806, 0.591, 2802.678, 3231.495)"><tspan x="0" y="0">|</tspan></text>
      </g>
      <g id="Group_4427" data-name="Group 4427" class="cls-16">
        <text id="_15" data-name="|" class="cls-17" transform="translate(2804.524 3233.101) rotate(65.196)"><tspan x="0" y="0">|</tspan></text>
      </g>
      <g id="Group_4428" data-name="Group 4428" class="cls-16">
        <text id="_16" data-name="|" class="cls-17" transform="translate(2806.275 3235.449) rotate(76.661)"><tspan x="0" y="0">|</tspan></text>
      </g>
      <g id="Group_4429" data-name="Group 4429" class="cls-16">
        <text id="_17" data-name="|" class="cls-17" transform="matrix(0.034, 0.999, -0.999, 0.034, 2807.234, 3237.795)"><tspan x="0" y="0">|</tspan></text>
      </g>
      <g id="Group_4430" data-name="Group 4430" class="cls-16">
        <text id="_18" data-name="|" class="cls-17" transform="matrix(-0.165, 0.986, -0.986, -0.165, 2807.948, 3240.68)"><tspan x="0" y="0">|</tspan></text>
      </g>
      <g id="Group_4431" data-name="Group 4431" class="cls-16">
        <text id="_19" data-name="|" class="cls-17" transform="translate(2808.01 3243.399) rotate(110.916)"><tspan x="0" y="0">|</tspan></text>
      </g>
      <g id="Group_4432" data-name="Group 4432" class="cls-16">
        <text id="_20" data-name="|" class="cls-17" transform="translate(2807.492 3245.974) rotate(122.384)"><tspan x="0" y="0">|</tspan></text>
      </g>
      <g id="Group_4433" data-name="Group 4433" class="cls-16">
        <text id="_21" data-name="|" class="cls-17" transform="translate(2806.455 3248.486) rotate(133.797)"><tspan x="0" y="0">|</tspan></text>
      </g>
      <g id="Group_4434" data-name="Group 4434" class="cls-16">
        <text id="_22" data-name="|" class="cls-17" transform="matrix(-0.821, 0.571, -0.571, -0.821, 2804.969, 3250.804)"><tspan x="0" y="0">|</tspan></text>
      </g>
      <g id="Group_4435" data-name="Group 4435" class="cls-16">
        <text id="_23" data-name="|" class="cls-17" transform="translate(2803.086 3252.76) rotate(156.66)"><tspan x="0" y="0">|</tspan></text>
      </g>
      <g id="Group_4436" data-name="Group 4436" class="cls-16">
        <text id="_24" data-name="|" class="cls-17" transform="translate(2800.874 3254.3) rotate(168.118)"><tspan x="0" y="0">|</tspan></text>
      </g>
      <g id="Group_4437" data-name="Group 4437" class="cls-16">
        <path id="Path_20384" data-name="Path 20384" class="cls-18" d="M2804.8,3232.9a13.942,13.942,0,0,1,0,19.8,14,14,0,1,1,0-19.8m-18.6,18.6a12.3,12.3,0,1,0,0-17.4,12.312,12.312,0,0,0,0,17.4"/>
      </g>
      <g id="Group_4438" data-name="Group 4438" class="cls-16">
        <text id="_25" data-name="|" class="cls-17" transform="translate(2782.23 3247.867) rotate(-94.832)"><tspan x="0" y="0">|</tspan></text>
      </g>
      <g id="Group_4439" data-name="Group 4439" class="cls-16">
        <text id="_26" data-name="|" class="cls-17" transform="matrix(0.115, -0.993, 0.993, 0.115, 2781.324, 3245.129)"><tspan x="0" y="0">|</tspan></text>
      </g>
      <g id="Group_4440" data-name="Group 4440" class="cls-16">
        <text id="_27" data-name="|" class="cls-17" transform="translate(2781.161 3242.409) rotate(-71.989)"><tspan x="0" y="0">|</tspan></text>
      </g>
      <g id="Group_4441" data-name="Group 4441" class="cls-16">
        <text id="_28" data-name="|" class="cls-17" transform="translate(2781.472 3239.666) rotate(-60.502)"><tspan x="0" y="0">|</tspan></text>
      </g>
      <g id="Group_4442" data-name="Group 4442" class="cls-16">
        <text id="_29" data-name="|" class="cls-17" transform="matrix(0.638, -0.77, 0.77, 0.638, 2782.428, 3237.193)"><tspan x="0" y="0">|</tspan></text>
      </g>
      <g id="Group_4443" data-name="Group 4443" class="cls-16">
        <text id="_30" data-name="|" class="cls-17" transform="matrix(0.793, -0.609, 0.609, 0.793, 2783.676, 3234.729)"><tspan x="0" y="0">|</tspan></text>
      </g>
      <g id="Group_4444" data-name="Group 4444" class="cls-16">
        <text id="_31" data-name="|" class="cls-17" transform="translate(2785.628 3232.805) rotate(-26.258)"><tspan x="0" y="0">|</tspan></text>
      </g>
      <g id="Group_4445" data-name="Group 4445" class="cls-16">
        <text id="_32" data-name="|" class="cls-17" transform="translate(2787.83 3231.175) rotate(-14.798)"><tspan x="0" y="0">|</tspan></text>
      </g>
      <g id="Group_4446" data-name="Group 4446" class="cls-16">
        <text id="_33" data-name="|" class="cls-17" transform="translate(2790.114 3229.756) rotate(-3.376)"><tspan x="0" y="0">|</tspan></text>
      </g>
      <g id="Group_4447" data-name="Group 4447" class="cls-16">
        <text id="_34" data-name="|" class="cls-17" transform="translate(2792.959 3229.359) rotate(8.03)"><tspan x="0" y="0">|</tspan></text>
      </g>
      <g id="Group_4448" data-name="Group 4448" class="cls-16">
        <text id="_35" data-name="|" class="cls-17" transform="matrix(0.943, 0.333, -0.333, 0.943, 2795.722, 3229.228)"><tspan x="0" y="0">|</tspan></text>
      </g>
      <g id="Group_4449" data-name="Group 4449" class="cls-16">
        <text id="_36" data-name="|" class="cls-17" transform="translate(2798.214 3229.407) rotate(30.93)"><tspan x="0" y="0">|</tspan></text>
      </g>
      <g id="Group_4450" data-name="Group 4450" class="cls-16">
        <text id="_37" data-name="|" class="cls-17" transform="translate(2800.906 3230.479) rotate(42.345)"><tspan x="0" y="0">|</tspan></text>
      </g>
      <g id="Group_4451" data-name="Group 4451" class="cls-16">
        <text id="_38" data-name="|" class="cls-17" transform="translate(2803.168 3231.904) rotate(53.749)"><tspan x="0" y="0">|</tspan></text>
      </g>
      <g id="Group_4452" data-name="Group 4452" class="cls-16">
        <text id="_39" data-name="|" class="cls-17" transform="matrix(0.419, 0.908, -0.908, 0.419, 2805.106, 3233.612)"><tspan x="0" y="0">|</tspan></text>
      </g>
      <g id="Group_4453" data-name="Group 4453" class="cls-16">
        <text id="_40" data-name="|" class="cls-17" transform="translate(2806.808 3236.063) rotate(76.661)"><tspan x="0" y="0">|</tspan></text>
      </g>
      <g id="Group_4454" data-name="Group 4454" class="cls-16">
        <text id="_41" data-name="|" class="cls-17" transform="matrix(0.034, 0.999, -0.999, 0.034, 2807.83, 3238.358)"><tspan x="0" y="0">|</tspan></text>
      </g>
      <g id="Group_4455" data-name="Group 4455" class="cls-16">
        <text id="_42" data-name="|" class="cls-17" transform="matrix(-0.165, 0.986, -0.986, -0.165, 2808.515, 3241.189)"><tspan x="0" y="0">|</tspan></text>
      </g>
      <g id="Group_4456" data-name="Group 4456" class="cls-16">
        <text id="_43" data-name="|" class="cls-17" transform="translate(2808.534 3243.831) rotate(110.916)"><tspan x="0" y="0">|</tspan></text>
      </g>
      <g id="Group_4457" data-name="Group 4457" class="cls-16">
        <text id="_44" data-name="|" class="cls-17" transform="translate(2808.046 3246.467) rotate(122.384)"><tspan x="0" y="0">|</tspan></text>
      </g>
      <g id="Group_4458" data-name="Group 4458" class="cls-16">
        <text id="_45" data-name="|" class="cls-17" transform="translate(2807.042 3249.016) rotate(133.797)"><tspan x="0" y="0">|</tspan></text>
      </g>
      <g id="Group_4459" data-name="Group 4459" class="cls-16">
        <text id="_46" data-name="|" class="cls-17" transform="matrix(-0.821, 0.571, -0.571, -0.821, 2805.535, 3251.262)"><tspan x="0" y="0">|</tspan></text>
      </g>
      <g id="Group_4460" data-name="Group 4460" class="cls-16">
        <text id="_47" data-name="|" class="cls-17" transform="translate(2803.642 3253.246) rotate(156.66)"><tspan x="0" y="0">|</tspan></text>
      </g>
      <g id="Group_4461" data-name="Group 4461" class="cls-16">
        <text id="_48" data-name="|" class="cls-17" transform="translate(2801.401 3254.882) rotate(168.113)"><tspan x="0" y="0">|</tspan></text>
      </g>
    </g>
    <g id="Group_4465" data-name="Group 4465" class="cls-19" transform="translate(-2386 -1970)">
      <g id="Group_4464" data-name="Group 4464">
        <g id="Group_4463" data-name="Group 4463" class="cls-20">
          <path id="Path_20410" data-name="Path 20410" class="cls-21" d="M2791.3,3241.8l3.9,2.3-3.1,4,5.7-3.9-2-2.3,2.5-3.6Z"/>
        </g>
      </g>
    </g>
    <text id="The_new_way_to_put_data_into_a_computer" data-name="The new way to put data into a computer" class="cls-1" transform="translate(452.65 1209.66)"><tspan x="0" y="0">The new way to put data into a computer</tspan></text>
    <text id="保護施工人員以及用路人安全" class="cls-3" transform="translate(450.19 1184.284)"><tspan x="0" y="0">保護施工人員以及用路人安全</tspan></text>
    <g id="Group_4469" data-name="Group 4469" transform="translate(-2386 -1993)">
      <path id="Path_20411" data-name="Path 20411" class="cls-22" d="M2770.5,3201.6l-2.8-3.8,40.7-3.3.8,5.5Z"/>
      <path id="Path_20412" data-name="Path 20412" class="cls-23" d="M2774.1,3200.9c-4,0-5.7-2.8-3.7-6.3l15.3-26.5c2-3.5,5.3-3.5,7.4,0l15.3,26.5c2,3.5.4,6.3-3.7,6.3Z"/>
      <path id="Path_20413" data-name="Path 20413" class="cls-24" d="M2781.5,3187.5c-.7-.4-1.1-.7-1.6-1,0,0,.1-.5.2-.5h2.2c-.1.2,0,0,.1-.1.5-2.8,2.2-3.6,4.9-3.3a27.823,27.823,0,0,0,5,0,1.648,1.648,0,0,1,2,1.4,14.471,14.471,0,0,0,.9,2.2c.7-.1,1.4-.2,2-.3.1,0,.3.5.3.6-.4.3-.9.6-1.4,1,1.9,1.4.9,3.5.8,5.3a1.512,1.512,0,0,1-1.2,1.1c-4.7.1-9.3,0-14,.1a1.162,1.162,0,0,1-1.3-1.3c.2-1.8-.8-3.8,1.1-5.2m1.5-.4h11.7c-.9-3.5-.9-3.5-4.2-3.5h-2.8c-3.5,0-3.5,0-4.7,3.2v.3m2.5,2.5c.4,3.3.8,3.5,4.9,3.2,1.2-.1,1.8-1.2,1.8-3.2Zm11,.1c-.7-.4-1-.8-1.4-.8-.4.1-.6.5-1,.8.4.3.7.8,1.1.8.4.1.7-.4,1.3-.8m-12.6,0c-.7-.4-1-.8-1.4-.8s-.6.5-1,.8c.4.3.7.8,1.1.9.3,0,.7-.5,1.3-.9"/>
      <path id="Path_20414" data-name="Path 20414" class="cls-25" d="M2780.9,3194.7h3.1a9.053,9.053,0,0,1-.2,1.3,5.454,5.454,0,0,1-2.2.1c-.3-.1-.5-.8-.7-1.4"/>
      <path id="Path_20415" data-name="Path 20415" class="cls-25" d="M2793.6,3194.7h3.1c-.1.5-.1,1.2-.3,1.3a5.866,5.866,0,0,1-2.3.1c-.2-.1-.3-.8-.5-1.4"/>
    </g>
    <rect id="Rectangle_1441" data-name="Rectangle 1441" class="cls-26" width="400" height="142" transform="translate(365 1161)"/>
  </g>
</svg>
