<svg xmlns="http://www.w3.org/2000/svg" xmlns:xlink="http://www.w3.org/1999/xlink" viewBox="0 0 320.801 147.4">
  <defs>
    <style>
      .cls-1 {
        clip-path: url(#clip-path);
      }

      .cls-2 {
        fill: #e1dcd3;
      }

      .cls-3 {
        clip-path: url(#clip-path-2);
      }

      .cls-4, .cls-6, .cls-7 {
        opacity: 0.2;
      }

      .cls-5 {
        fill: #995c42;
      }

      .cls-11, .cls-15, .cls-16, .cls-7 {
        fill: none;
      }

      .cls-7 {
        stroke: #000;
      }

      .cls-15, .cls-7 {
        stroke-linecap: round;
        stroke-linejoin: round;
        stroke-width: 1.669px;
      }

      .cls-11, .cls-15, .cls-7 {
        stroke-miterlimit: 10;
      }

      .cls-8 {
        fill: #8ea095;
      }

      .cls-9 {
        fill: #525653;
        opacity: 0.3;
      }

      .cls-10 {
        fill: #78827b;
        opacity: 0.1;
      }

      .cls-11 {
        stroke: #444945;
        stroke-width: 1.133px;
      }

      .cls-12 {
        fill: #6e8473;
        opacity: 0.5;
      }

      .cls-13 {
        fill: #616b63;
      }

      .cls-14 {
        fill: #bac6be;
      }

      .cls-15 {
        stroke: #995c42;
      }

      .cls-17 {
        fill: #262626;
      }
    </style>
    <clipPath id="clip-path">
      <rect id="Rectangle_811" data-name="Rectangle 811" width="320.8" height="147.4"/>
    </clipPath>
    <clipPath id="clip-path-2">
      <rect id="Rectangle_812" data-name="Rectangle 812" width="320.8" height="147.4" transform="translate(712.5 594.9)"/>
    </clipPath>
  </defs>
  <g id="_010" data-name="010" transform="translate(-1103.389 -2131.37)">
    <g id="Group_2166" data-name="Group 2166" transform="translate(390.889 1536.47)">
      <g id="Group_2161" data-name="Group 2161" class="cls-1" transform="translate(712.5 594.9)">
        <rect id="Rectangle_810" data-name="Rectangle 810" class="cls-2" width="320.8" height="147.4"/>
      </g>
      <g id="Group_2165" data-name="Group 2165" class="cls-3">
        <path id="Path_2051" data-name="Path 2051" class="cls-4" d="M887.5,642.8s16.3,11.2,16.3,22.7c0,10.5-6.8,29.9-2.5,33.4.3.2.3.8.3,1.1.4,2.2.8,4.2,1.7,3.5,2.6-2,8.8-4.2,13.4-1.6,1.2.7-1.7,2.4-2.3,3.6a8.159,8.159,0,0,1-1.1,1.7c-.1.2-.3.7-.7.7-.3,0-.5.2-.4.5.1.4-.1.4-.2.5-2.7,3.4-6.5,7.1-6.5,12,0,1.3-.5,3.9-1.4,3.8-1.1-.1-2.1-2.7-2.2-4.2-.3-7.8-2.2-8.3-9.6-9.9-10.1-2.2-18.2-13.3-20.3-26-2-12-9.5-17.6-12.1-24.6-1.8-4.9,12.5,8.7,15.2,1.4,1.9-5.1.9-12.1.9-17.3,0-2.2.3-1.3,2-2.7C879.7,640.2,885.5,640.8,887.5,642.8Z"/>
        <g id="Group_2162" data-name="Group 2162">
          <path id="Path_2052" data-name="Path 2052" class="cls-5" d="M848.6,630.2l6.8,10,6.8,10.1c2.3,3.3,4.6,6.6,6.7,10.1s4.1,7,5.9,10.6l-.1.1c-2.6-3.2-4.9-6.5-7.2-9.8s-4.3-6.8-6.4-10.3l-6.3-10.3-6.3-10.4Z"/>
        </g>
        <g id="Group_2163" data-name="Group 2163" class="cls-6">
          <path id="Path_2053" data-name="Path 2053" d="M851.2,629.5l6.8,10,6.8,10.1c2.3,3.3,4.6,6.6,6.7,10.1s4.1,7,5.9,10.6l-.1.1c-2.6-3.2-4.9-6.5-7.2-9.8s-4.3-6.8-6.4-10.3L857.4,640l-6.3-10.4Z"/>
        </g>
        <line id="Line_232" data-name="Line 232" class="cls-7" x2="37.6" y2="58.5" transform="translate(906.3 715.5)"/>
        <path id="Path_2054" data-name="Path 2054" class="cls-8" d="M885.7,644.6s12.9,11.4,10.5,22c-2.3,10.2-1.5,31,2.8,34.5a1.05,1.05,0,0,1,.5.9c.4,2.2,2.2,3.4,3.1,2.8,2.6-2,7.7-4.2,12.3-1.6,1.2.7-1.6.9-2.2,2.2a21.724,21.724,0,0,1-.7,2.4c-.1.2-.5.2-.9.2a.545.545,0,0,0-.5.7c.1.4.2.7.1.9-2.7,3.4-6.1,7.5-6,12.4,0,1.3.2,3.1-.7,3-1.1-.1-3.2-2.3-3.3-3.8-.3-7.8-2.2-8.3-9.6-9.9-10.1-2.2-18.2-13.3-20.3-26-2-12-8.2-18.1-10.7-25.1-1.8-4.9,9.9,11.3,12.6,4,1.9-5.1,2.2-14.2,2.2-19.4a3.383,3.383,0,0,1,3.8-3.5A13.283,13.283,0,0,1,885.7,644.6Z"/>
        <path id="Path_2055" data-name="Path 2055" class="cls-9" d="M880.9,674.8s-.9,4.8,3.1,6.3c1.9.7-3,3.8-7,4.4-.7.1-2.4-1.3-2.1-2,1-1.8,3-4.4,1.6-7.5"/>
        <path id="Path_2056" data-name="Path 2056" class="cls-9" d="M880.9,674.8s-.5,4.7,2.4,6.1c1.7.8-2.9,3.2-6.6,3.7a1.174,1.174,0,0,1-1.1-1.5c.9-1.6,2.2-4.2.9-7.1"/>
        <path id="Path_2057" data-name="Path 2057" class="cls-8" d="M880.9,674.8s-.7,4.1,1.8,6c1.8,1.4-3.1,2.7-6,3.3a.822.822,0,0,1-.8-1.2,7.615,7.615,0,0,0,.6-6.9"/>
        <path id="Path_2058" data-name="Path 2058" class="cls-10" d="M894.7,709a1.135,1.135,0,0,1-.8.3c-1.2.1-4.6.8-6.1-1-1.8-2.3-.9-4.4.3-6-.7.9-2.4,5,1.3,4.9,2.4,0,3.6-.3,4.3-.9a1.513,1.513,0,0,1,1.9.2,1.574,1.574,0,0,1,.4,1.2A3.231,3.231,0,0,1,894.7,709Z"/>
        <path id="Path_2059" data-name="Path 2059" class="cls-10" d="M892.6,710.2a1.412,1.412,0,0,1-.9.1c-1.3-.1-4.8-.1-5.5-2.1a4.6,4.6,0,0,1,1.8-5.7c-1,.8-3.5,4.4.1,5,2.3.4,3.7.4,4.6-.1.7-.3,1.6,0,1.7.5s.2,1-.1,1.2A3.567,3.567,0,0,1,892.6,710.2Z"/>
        <path id="Path_2060" data-name="Path 2060" class="cls-10" d="M892.2,709.3a1.95,1.95,0,0,1-.8.1c-1.1-.1-4.3-.1-4.9-1.9a4.121,4.121,0,0,1,1.6-5.1c-.9.7-3.1,3.9.1,4.4a8.937,8.937,0,0,0,4.1,0,1.074,1.074,0,0,1,1.5.5c.1.4.2.9-.1,1.1A5.968,5.968,0,0,1,892.2,709.3Z"/>
        <line id="Line_233" data-name="Line 233" class="cls-11" x2="8.8" y2="8.8" transform="translate(880.7 655.2)"/>
        <line id="Line_234" data-name="Line 234" class="cls-11" y1="8.4" x2="7" transform="translate(881.5 655.8)"/>
        <path id="Path_2061" data-name="Path 2061" class="cls-12" d="M893.2,653.6s-3,5.3-1.7,7.7-2.1,3.8-1.3,8.1-.8,9.2-1.2,13.7.3,14.8,2.5,15.8,7.4,1.5,8.1,3.2-4-12.6-4-12.6l.5-24.8a6.722,6.722,0,0,0-.2-5.1C894.6,656.3,893.2,653.6,893.2,653.6Z"/>
        <path id="Path_2062" data-name="Path 2062" class="cls-13" d="M899.3,664s-1.8,7.7-2,9.7c-.3,2-.1,12.1.5,13.6.6,1.6.5,6.6,1.4,7.3s-3.2,4.2-3.2,4.2-3.7-7.9-3.7-11.8,2.1-20.3,2.2-21.4a31.394,31.394,0,0,1,.4-3.3,1.2,1.2,0,0,1,2-.8Z"/>
        <path id="Path_2063" data-name="Path 2063" class="cls-14" d="M865.8,671.1s3.1-.2,3.7,3.7,4.1,15.4,7.8,18.3,4.7,13.2,3.2,12.2-4.8-5.1-6.8-8.5c-2.5-4.2-3.6-12.9-4.2-15.9S865.8,671.1,865.8,671.1Z"/>
        <path id="Path_2064" data-name="Path 2064" class="cls-8" d="M876.7,698s-3,5.5-.8,7.1,2.2.5,1.9-1.4-.6-4.2,0-4.2S876.7,698,876.7,698Z"/>
        <line id="Line_235" data-name="Line 235" class="cls-7" x2="3.2" y2="5" transform="translate(902 710.9)"/>
        <line id="Line_236" data-name="Line 236" class="cls-15" x2="40.8" y2="63.5" transform="translate(900.5 711.2)"/>
        <g id="Group_2164" data-name="Group 2164">
          <path id="Path_2065" data-name="Path 2065" class="cls-16" d="M900.5,711.2"/>
        </g>
      </g>
    </g>
    <g id="Group_2167" data-name="Group 2167" class="cls-6" transform="translate(390.889 1536.47)">
      <path id="Path_2066" data-name="Path 2066" class="cls-17" d="M767.2,684.7l-.2-.2a4.513,4.513,0,0,0-.7-.7,1.791,1.791,0,0,1-.7.5c-.1,0-.3-.1-.3-.2s-.1-.1-.1-.2a.367.367,0,0,1,.1-.3,1.238,1.238,0,0,0,.2-.3,7.553,7.553,0,0,0,1.3-2.3,1.381,1.381,0,0,1,.3-.4l-1.2.1h0c-.3,0-.5-.2-.5-.6,0-.3.1-.5.4-.5l7.2-.4h0a.472.472,0,0,1,.5.5c0,.4-.1.6-.4.6l-5.4.3c.2.1.3.2.3.4a2.543,2.543,0,0,1-.2.7l.7-.1h.2c.5,0,.7.2.7.7a5.752,5.752,0,0,1-.2,1,7.1,7.1,0,0,1-1.3,2.2,7.966,7.966,0,0,1-1.7,1.5.756.756,0,0,1-.4.1c-.1,0-.2-.1-.3-.2a.367.367,0,0,1-.1-.3c0-.2.1-.3.4-.5A9.16,9.16,0,0,0,767.2,684.7Zm.5-.8a3.552,3.552,0,0,0,.4-.9.349.349,0,0,1,.1-.2c0-.1-.1-.1-.2-.1h-.1l-.8.1a2.649,2.649,0,0,1-.5.6A1.873,1.873,0,0,1,767.7,683.9Zm3.2-.1v1.8c0,.2.1.3.2.3a4.33,4.33,0,0,0,.5.1,1.439,1.439,0,0,0,.9-.2,4.174,4.174,0,0,0,.2-1.1c0-.3.1-.4.3-.4s.3.1.4.3c.1.3.1.6.2,1v.6a.792.792,0,0,1-.5.8,5.946,5.946,0,0,1-1.7.2,2.872,2.872,0,0,1-1.2-.2,1,1,0,0,1-.5-1v-5a.52.52,0,0,1,.2-.4.367.367,0,0,1,.3-.1c.2,0,.3,0,.4.1a.52.52,0,0,1,.2.4v1.8a6.418,6.418,0,0,0,1.3-1,.6.6,0,0,1,1,.5.52.52,0,0,1-.2.4,4.892,4.892,0,0,1-1.3.8A2.389,2.389,0,0,1,770.9,683.8Z"/>
      <path id="Path_2067" data-name="Path 2067" class="cls-17" d="M778,685a4.877,4.877,0,0,1,.3-.7c.1-.2.2-.2.3-.2h.2c.1.1.2.2.2.3a.367.367,0,0,1-.1.3,12.264,12.264,0,0,0-.5,1.3c-.2.4-.4.6-.7.6a.634.634,0,0,1-.6-.5,6.977,6.977,0,0,1-.3-2.4c0-.9.1-2,.2-3.3a3.536,3.536,0,0,1,.1-.6.55.55,0,0,1,.5-.3c.2,0,.3,0,.4.1a.52.52,0,0,1,.2.4.756.756,0,0,1-.1.4c-.1.5-.2,1.2-.3,2,0,.4-.1.8-.1,1.2A12.1,12.1,0,0,1,778,685Zm2.3-.9a.52.52,0,0,1,.4.2c.2.2.4.4.6.4a6.268,6.268,0,0,0,1.6.2h.6a.764.764,0,0,1,.5.2c.1.1.1.2.1.4,0,.4-.3.6-.8.6a6.647,6.647,0,0,1-2.1-.3,2.1,2.1,0,0,1-1.1-.7.864.864,0,0,1-.3-.6.52.52,0,0,1,.2-.4Zm2.5-2.7a6.428,6.428,0,0,0-2.2.4h-.3a.55.55,0,0,1-.5-.3v-.2a.51.51,0,0,1,.4-.5c.3-.1.7-.2,1.1-.3a10.4,10.4,0,0,1,1.5-.2h.5a.548.548,0,0,1,.4.6c0,.2,0,.3-.1.4a.758.758,0,0,1-.4.2Z"/>
      <path id="Path_2068" data-name="Path 2068" class="cls-17" d="M789.1,680.7c.1-.5.2-.9.3-1.3a.634.634,0,0,1,.6-.5c.4,0,.6.2.6.5a4.548,4.548,0,0,1-.3,1.1c.4-.1.7-.1,1-.2h.2a.52.52,0,0,1,.4.2.367.367,0,0,1,.1.3c0,.3-.1.4-.4.5a15.7,15.7,0,0,1-1.6.3v.1l-.2.5c-.6,1.9-1.1,3.2-1.4,3.9a.774.774,0,0,0-.1.3.55.55,0,0,1-.5.3.367.367,0,0,1-.3-.1.55.55,0,0,1-.3-.5,1.689,1.689,0,0,1,.2-.5,16.121,16.121,0,0,0,1-2.5c.1-.2.1-.4.2-.6a2.191,2.191,0,0,1,.3-.8,7.723,7.723,0,0,0-1,.1.52.52,0,0,1-.4-.2.367.367,0,0,1-.1-.3.53.53,0,0,1,.6-.6C788.1,680.8,788.5,680.7,789.1,680.7Zm2,4.1a.52.52,0,0,1,.4.2,2.654,2.654,0,0,0,2,.6h.3c.2,0,.3,0,.4.1a.764.764,0,0,1,.2.5.52.52,0,0,1-.2.4.764.764,0,0,1-.5.2,5.822,5.822,0,0,1-1.9-.3,2.012,2.012,0,0,1-1.1-.9.6.6,0,0,1-.1-.4.367.367,0,0,1,.1-.3C790.8,684.9,791,684.8,791.1,684.8Zm2-2.6a1.974,1.974,0,0,1,.9.1.548.548,0,0,1,.4.6c0,.1,0,.3-.1.3a.52.52,0,0,1-.4.2h-.8a10.394,10.394,0,0,0-1.5.2h-.2c-.2,0-.4-.1-.4-.3v-.2c0-.2.1-.3.3-.5a6.213,6.213,0,0,1,1-.3C792.5,682.3,792.8,682.2,793.1,682.2Z"/>
      <path id="Path_2069" data-name="Path 2069" class="cls-17" d="M798.3,680.3c.3,0,.5.1.5.3,0,.1.1.2.1.4a10.837,10.837,0,0,0,.4,3,2.993,2.993,0,0,0,.4.8.1.1,0,0,0,.1.1.349.349,0,0,0,.1-.2l.4-.8c.1-.2.2-.2.4-.2.1,0,.2,0,.2.1.2.1.2.2.2.4a.756.756,0,0,1-.1.4,12.121,12.121,0,0,0-.5,1.4.73.73,0,0,1-.7.6c-.4,0-.9-.4-1.3-1.2a8.863,8.863,0,0,1-.9-4.3.6.6,0,0,1,.3-.6C798.1,680.3,798.2,680.3,798.3,680.3Zm4.9.1a.55.55,0,0,1,.5.3,6.235,6.235,0,0,1,.9,1.2,4.247,4.247,0,0,1,.8,1.8.55.55,0,0,1-.3.5c-.1.1-.2.1-.4.1a.764.764,0,0,1-.5-.2c0-.1-.1-.2-.2-.4a7.109,7.109,0,0,0-1.3-2.4c-.1-.1-.1-.2-.1-.4a.367.367,0,0,1,.1-.3C803,680.4,803.1,680.4,803.2,680.4Z"/>
      <path id="Path_2070" data-name="Path 2070" class="cls-17" d="M812.7,680.7c0,.2.1.4.1.6a5.365,5.365,0,0,1-.4,1.9c-.7,1.9-1.5,2.8-2.4,2.8a1.217,1.217,0,0,1-1-.6,2.883,2.883,0,0,1-.6-1.9,3.194,3.194,0,0,1,1-2.3,4.569,4.569,0,0,1,1.6-1.1,4.334,4.334,0,0,1,1.9-.4,3.565,3.565,0,0,1,2.3.8,2.835,2.835,0,0,1,1.1,2.5,3.514,3.514,0,0,1-2.4,3.4.756.756,0,0,1-.4.1.52.52,0,0,1-.4-.2c0-.1-.1-.1-.1-.2,0-.2.1-.3.4-.4a3.091,3.091,0,0,0,1.8-2.7,2.5,2.5,0,0,0-.8-1.8,2.39,2.39,0,0,0-1.4-.5h-.3Zm-1,.3a5.552,5.552,0,0,0-1.7,1.1,1.872,1.872,0,0,0-.5,1.4,3.593,3.593,0,0,0,.2,1.1q.15.3.3.3c.3,0,.6-.4.9-1.1a5.227,5.227,0,0,0,.6-1.6,2.815,2.815,0,0,0,.1-.8v-.3l.1-.1Z"/>
      <path id="Path_2071" data-name="Path 2071" class="cls-17" d="M820.2,684a.55.55,0,0,1,.5.3,1.388,1.388,0,0,0,.8.7,3.664,3.664,0,0,0,1.6.2,6.624,6.624,0,0,0,1.5-.1h.2a.53.53,0,0,1,.6.6.634.634,0,0,1-.5.6,7.45,7.45,0,0,1-1.8.2,4.617,4.617,0,0,1-2.3-.5,2.335,2.335,0,0,1-1-1.2c0-.1-.1-.2-.1-.3a.52.52,0,0,1,.2-.4A.367.367,0,0,1,820.2,684Zm1.7-4.3a5.866,5.866,0,0,1,2.3.4c.5.2.7.5.7.8a.634.634,0,0,1-.5.6,8.923,8.923,0,0,1-1,.5.6.6,0,0,1-.4.1.367.367,0,0,1-.3-.1c0-.1-.1-.1-.1-.2q0-.3.6-.6a.1.1,0,0,0,0-.2,5.9,5.9,0,0,0-1.4-.2,7.776,7.776,0,0,0-1.3.1h-.1a.367.367,0,0,1-.3-.1.52.52,0,0,1-.2-.4.634.634,0,0,1,.5-.6C820.8,679.8,821.3,679.7,821.9,679.7Z"/>
      <path id="Path_2072" data-name="Path 2072" class="cls-17" d="M830.3,682.7a16.165,16.165,0,0,1-.8-2l-.3-.6a.367.367,0,0,1-.1-.3.52.52,0,0,1,.2-.4.6.6,0,0,1,.4-.1.723.723,0,0,1,.6.4,3.386,3.386,0,0,1,.3.8c.2.6.3,1.1.5,1.6.8-.6,1.6-1.1,2.4-1.6a.367.367,0,0,1,.3-.1.764.764,0,0,1,.5.2c.1.1.1.2.1.4a.52.52,0,0,1-.2.4.438.438,0,0,1-.3.1c-2.6,1.3-3.9,2.4-3.9,3.2,0,.5.5.8,1.4.8a14.912,14.912,0,0,0,2.1-.2h.2c.4,0,.5.2.5.6a.634.634,0,0,1-.5.6,10.985,10.985,0,0,1-2.1.1,3.523,3.523,0,0,1-2-.4,1.645,1.645,0,0,1-.8-1.5A4.17,4.17,0,0,1,830.3,682.7Z"/>
    </g>
  </g>
</svg>
