<svg xmlns="http://www.w3.org/2000/svg" viewBox="0 0 320.801 439.1">
  <defs>
    <style>
      .cls-1 {
        fill: #ec6d71;
      }

      .cls-2 {
        fill: #a25768;
      }

      .cls-3, .cls-4, .cls-5 {
        fill: #fff;
      }

      .cls-3 {
        font-size: 15.65px;
      }

      .cls-3, .cls-4 {
        font-family: BlackadderITC-Regular, Blackadder ITC;
      }

      .cls-4 {
        font-size: 11.12px;
      }
    </style>
  </defs>
  <g id="_012" data-name="012" transform="translate(-445.289 -2285.97)">
    <rect id="Rectangle_705" data-name="Rectangle 705" class="cls-1" width="320.8" height="439.1" transform="translate(445.289 2285.97)"/>
    <path id="Path_1737" data-name="Path 1737" class="cls-2" d="M266.9,1044.8c0,3.8-2.6,5.2-64.4,5.2-54.8,0-64.4-1.4-64.4-5.2s28.8-7,64.4-7S266.9,1041,266.9,1044.8Z" transform="translate(390.889 1536.47)"/>
    <g id="Group" transform="translate(390.889 1536.47)">
      <text id="Painting_without_Masks" data-name="Painting without Masks" class="cls-3" transform="translate(139.588 1091.92)"><tspan x="0" y="0">Painting without Masks</tspan></text>
      <text id="_just_like_Bathing_in_paint" data-name=" just like Bathing in paint" class="cls-4" transform="translate(157.388 1105.32)"><tspan x="0" y="0" xml:space="preserve"> just like Bathing in paint</tspan></text>
    </g>
    <path id="Path_1754" data-name="Path 1754" class="cls-5" d="M267.2,981.9l-.9-.1c-6.6-.9-16.9,1.6-24,3.6.3-1,.5-2.1.8-3.1.1-.2.2-.5.3-.7V981h0c-.4-4.1-12.5-9.4-28.1-12.2-16.1-2.9-29.8-1.9-30.7,2.2h-.1c0,.1.1.2.1.3a2.2,2.2,0,0,0,.6,1.8c1,3.2,2,6.2,2.6,8.6-4.6-1.3-5.9-1-8.1-.4l-.8.2c-10.2,2.7-26.4,16.9-27.1,17.5l1.1,1.2c.2-.1,16.6-14.6,26.4-17.2l.9-.2c1.9-.5,3-.8,8,.7a8.191,8.191,0,0,1,.2,2.6c-.4,9.6-3.7,14.4-6.1,22.8-1.7-1.5-4.2-3.3-6.6-3.5a4.57,4.57,0,0,0-3.5,1.2c-4.4,3.9-.7,15.5-.2,16.9H158.4v11.6H146.5v9.1H262.3v-9.1H247.9v-11.6H233c.6-4.1,0-6.8-1.8-8a5.467,5.467,0,0,0-4-.6,51.787,51.787,0,0,0,6.6-8.8,77.7,77.7,0,0,0,8.1-19c7-2,17.7-4.7,24.2-3.8l.9.1c2,.2,3.1.3,7.5,3.9l1-1.3C270.9,982.5,269.6,982.2,267.2,981.9Zm-101.9,49.6a2.2,2.2,0,1,1,2.2-2.2A2.156,2.156,0,0,1,165.3,1031.5Zm7.1-7.9.4-.2c0-.1-4.3-12.4-.1-16.1a3.609,3.609,0,0,1,2.8-1c2.3.2,4.9,2.1,6.4,3.6a33.83,33.83,0,0,0-.8,3.4c-.7,3.5,1.2,7.2,4.1,10.2H172.4Zm71,3.6a2.2,2.2,0,1,1-2.2,2.2A2.156,2.156,0,0,1,243.4,1027.2Zm-28.3-57.5c13.7,2.4,24.5,7.2,24.9,10.8h0v.5c-.7,3.7-12.9,4.6-27.3,2s-25.6-7.6-24.9-11.3C188.4,968,200.7,967.1,215.1,969.7Zm15.6,46.7c1.5,1,1.9,3.4,1.4,7.2h-15a48.9,48.9,0,0,0,9-7.3C227.7,1015.8,229.5,1015.6,230.7,1016.4Z" transform="translate(390.889 1536.47)"/>
    <path id="Path_1755" data-name="Path 1755" class="cls-5" d="M214.2,974.6c-3.7-.7-6.8-.4-7,.5s2.7,2.3,6.4,2.9c3.7.7,6.8.4,7-.5S217.9,975.3,214.2,974.6Zm-.5,2.8c-2.3-.4-4-1.2-3.9-1.8s2-.7,4.3-.3,4,1.2,3.9,1.8S216,977.8,213.7,977.4Z" transform="translate(390.889 1536.47)"/>
    <g id="Group_1859" data-name="Group 1859" transform="translate(390.889 1536.47)">
      <path id="Path_1756" data-name="Path 1756" class="cls-5" d="M226.1,946.1c2.4-.5,3.9-3.9,3.2-7.4-.6-2.9-2.5-4.8-4.8-4.8a2.2,2.2,0,0,0-.8.1,3.808,3.808,0,0,0-2.8,2.6,8.5,8.5,0,0,0-.6,5C221,944.6,223.4,946.6,226.1,946.1Z"/>
      <path id="Path_1757" data-name="Path 1757" class="cls-5" d="M237.4,930.2h-.1a.349.349,0,0,0-.1.2c-.3.8,0,3.1,1.2,5.6,1.1,2.5,2.4,3.9,3.1,3.9h.1a.349.349,0,0,0,.1-.2,1.087,1.087,0,0,1,.1-.5,49.187,49.187,0,0,0-2.3-7.1C238.6,930.9,237.9,930.2,237.4,930.2Z"/>
      <path id="Path_1758" data-name="Path 1758" class="cls-5" d="M243.5,948.3H243a4.178,4.178,0,0,0-1,.4,10.149,10.149,0,0,0-1.8,1.3,14.979,14.979,0,0,1-4,2.5,8.734,8.734,0,0,1-2.2.5,6.929,6.929,0,0,1-2-.3,6.336,6.336,0,0,1-2.5-1.6,2.2,2.2,0,0,1-.6-.9,3.015,3.015,0,0,0,.8.7,7.629,7.629,0,0,0,2.4,1.2,5.31,5.31,0,0,0,1.8.1,6.686,6.686,0,0,0,1.9-.5,14.206,14.206,0,0,0,3.7-2.5,8.577,8.577,0,0,1,2-1.3,2.843,2.843,0,0,1,1.2-.4h.6c-.3-2.4-.8-4.7-1.3-6.9a.1.1,0,0,0-.1.1.75.75,0,0,1-.5.1c-1.2,0-2.6-1.7-3.8-4.4-1-2.2-1.7-5-1.2-6.3a1.175,1.175,0,0,1,1.1-.7,1.613,1.613,0,0,1,.9.3c-4.4-9.5-11.3-16.4-20.3-17.9-1.9-.3-3.7-.5-5.6-.7l.2-3.6h-1.5v-1.7h1.5v-1.3h-1.5v-1.7h1.5v-1.3h-1.5v-1.7h1.5v-1.3h-1.5v-1.7h1.5v-1.3h-1.5v-1.7h1.5v-1.3h-1.5V892H225V879.7h16.8v-7.5H219V829.4H201.7v42.8H184.1v7.5h11.8V892h12.9v1.3h-1.5v1.3h1.5v1.7h-1.5v1.3h1.5v1.7h-1.5v1.3h1.5v1.7h-1.5v1.3h1.5v1.7h-1.5v1.3h1.5v1.7h-1.5l.2,2.7c-9,.3-18,3.9-25.8,14.9-8,11.3-2.1,20.2,3.1,30.6h.3c1.8,3.9,13.9,7.8,28.8,9.2,16.4,1.5,29.7-.7,30.1-4.9A74.29,74.29,0,0,0,243.5,948.3Zm-24.1-12.5a5.745,5.745,0,0,1,4-3.5c3.5-.7,6.7,1.9,7.5,6,.8,4.4-1.2,8.7-4.5,9.3a4.87,4.87,0,0,1-1.2.1c-3.2,0-5.8-2.4-6.5-6A10.864,10.864,0,0,1,219.4,935.8ZM207.1,886a3.3,3.3,0,1,1,3.3,3.3A3.4,3.4,0,0,1,207.1,886Z"/>
    </g>
  </g>
</svg>
