<svg xmlns="http://www.w3.org/2000/svg" width="243.612" height="49.993" viewBox="0 0 243.612 49.993">
  <g id="so_eyewear" data-name="so!eyewear" transform="translate(-129 -34.504)">
    <g id="logo_word" transform="translate(129 65.497)">
      <text id="Explore_Eyewear_Fashion" data-name="Explore  Eyewear  Fashion" transform="translate(0 15)" fill="#535353" font-size="14" font-family="SegoeUI, Segoe UI" letter-spacing="0.05em"><tspan x="0" y="0" xml:space="preserve">Explore  Eyewear  Fashion</tspan></text>
      <text id="搜鏡王" transform="translate(199.612 14.901)" fill="#535353" font-size="12" font-family="YuGothicUI-Regular, Yu Gothic UI" letter-spacing="0.3em"><tspan x="0" y="0">搜鏡王</tspan></text>
      <circle id="LOGO_word-2" data-name="LOGO_word" cx="1.901" cy="1.901" r="1.901" transform="translate(186.267 9.222)" fill="#535353"/>
    </g>
    <g id="Group_210" data-name="Group 210" transform="translate(-1826.333 -860.613)">
      <g id="Group_209" data-name="Group 209">
        <g id="Group_208" data-name="Group 208">
          <path id="Path_873" data-name="Path 873" d="M2048.3,901.441h-12.552v6.593h11.624a2.492,2.492,0,0,1,1.778.559,1.94,1.94,0,0,1,.587,1.473,2.02,2.02,0,0,1-.578,1.493,2.443,2.443,0,0,1-1.787.577h-11.624v7.636h12.955a2.586,2.586,0,0,1,1.849.6,2.093,2.093,0,0,1,.621,1.584,2.048,2.048,0,0,1-.621,1.548,2.586,2.586,0,0,1-1.849.595h-14.969a3.245,3.245,0,0,1-2.444-.788,3.624,3.624,0,0,1-.744-2.545v-20.18a4.724,4.724,0,0,1,.332-1.914,2.118,2.118,0,0,1,1.043-1.08,4.212,4.212,0,0,1,1.813-.339H2048.3a2.589,2.589,0,0,1,1.848.577,1.989,1.989,0,0,1,.605,1.511,2.014,2.014,0,0,1-.605,1.529A2.593,2.593,0,0,1,2048.3,901.441Z" fill="#135a5d"/>
          <path id="Path_874" data-name="Path 874" d="M2092.359,901.441h-12.551v6.593h11.623a2.491,2.491,0,0,1,1.778.559,1.939,1.939,0,0,1,.587,1.473,2.02,2.02,0,0,1-.578,1.493,2.442,2.442,0,0,1-1.787.577h-11.623v7.636h12.955a2.584,2.584,0,0,1,1.848.6,2.093,2.093,0,0,1,.621,1.584,2.049,2.049,0,0,1-.621,1.548,2.584,2.584,0,0,1-1.848.595h-14.97a3.244,3.244,0,0,1-2.444-.788,3.623,3.623,0,0,1-.744-2.545v-20.18a4.724,4.724,0,0,1,.332-1.914,2.118,2.118,0,0,1,1.043-1.08,4.211,4.211,0,0,1,1.813-.339h14.566a2.594,2.594,0,0,1,1.849.577,1.991,1.991,0,0,1,.6,1.511,2.017,2.017,0,0,1-.6,1.529A2.6,2.6,0,0,1,2092.359,901.441Z" fill="#135a5d"/>
          <path id="Path_875" data-name="Path 875" d="M2146.569,901.441h-12.552v6.593h11.624a2.491,2.491,0,0,1,1.778.559,1.939,1.939,0,0,1,.587,1.473,2.02,2.02,0,0,1-.578,1.493,2.442,2.442,0,0,1-1.787.577h-11.624v7.636h12.955a2.586,2.586,0,0,1,1.849.6,2.092,2.092,0,0,1,.621,1.584,2.048,2.048,0,0,1-.621,1.548,2.586,2.586,0,0,1-1.849.595H2132a3.244,3.244,0,0,1-2.444-.788,3.623,3.623,0,0,1-.744-2.545v-20.18a4.724,4.724,0,0,1,.332-1.914,2.118,2.118,0,0,1,1.043-1.08,4.213,4.213,0,0,1,1.813-.339h14.566a2.594,2.594,0,0,1,1.849.577,1.991,1.991,0,0,1,.6,1.511,2.017,2.017,0,0,1-.6,1.529A2.6,2.6,0,0,1,2146.569,901.441Z" fill="#135a5d"/>
          <path id="Path_876" data-name="Path 876" d="M2059.924,921.237v-8.515l-6.271-10.164a21.513,21.513,0,0,1-1.165-2.142,3.384,3.384,0,0,1-.342-1.337,2.179,2.179,0,0,1,.692-1.611,2.347,2.347,0,0,1,1.708-.678,2.037,2.037,0,0,1,1.621.632,18.978,18.978,0,0,1,1.656,2.518l4.8,8.149,4.853-8.149.735-1.264a7.965,7.965,0,0,1,.657-.961,2.659,2.659,0,0,1,.8-.687,2.4,2.4,0,0,1,2.707.431,2.14,2.14,0,0,1,.657,1.547,3.369,3.369,0,0,1-.333,1.428,18.8,18.8,0,0,1-1.139,1.978l-6.429,10.31v8.515a3.64,3.64,0,0,1-.736,2.49,2.552,2.552,0,0,1-3.748.009A3.7,3.7,0,0,1,2059.924,921.237Z" fill="#135a5d"/>
          <path id="Path_877" data-name="Path 877" d="M2115.567,919.864l-4-16.1-4.054,16.1q-.472,1.83-.752,2.627a3.466,3.466,0,0,1-.971,1.429,2.627,2.627,0,0,1-1.841.631,2.836,2.836,0,0,1-1.528-.375,2.774,2.774,0,0,1-.972-1.062,7.048,7.048,0,0,1-.608-1.63q-.237-.942-.422-1.749l-4.121-18.074a11.391,11.391,0,0,1-.372-2.4,2.462,2.462,0,0,1,.676-1.758,2.209,2.209,0,0,1,1.672-.714,1.856,1.856,0,0,1,1.841.952,11.434,11.434,0,0,1,.828,2.766l3.243,15.675,3.631-14.668a25.031,25.031,0,0,1,.726-2.564,3.689,3.689,0,0,1,1.048-1.52,2.88,2.88,0,0,1,1.976-.641,2.739,2.739,0,0,1,1.968.669,3.676,3.676,0,0,1,.971,1.455q.269.788.726,2.6l3.665,14.668,3.243-15.675q.237-1.227.447-1.923a3.137,3.137,0,0,1,.727-1.246,1.949,1.949,0,0,1,1.494-.549,2.232,2.232,0,0,1,1.664.705,2.437,2.437,0,0,1,.684,1.767,12.405,12.405,0,0,1-.371,2.4l-4.121,18.074q-.423,1.832-.7,2.683a3.6,3.6,0,0,1-.946,1.493,2.611,2.611,0,0,1-1.884.64,2.651,2.651,0,0,1-1.841-.622,3.359,3.359,0,0,1-.962-1.4Q2116.057,921.749,2115.567,919.864Z" fill="#135a5d"/>
          <path id="Path_878" data-name="Path 878" d="M2168.444,921.054l-1.226-3.37h-10.44l-1.227,3.443a12.264,12.264,0,0,1-1.225,2.719,1.914,1.914,0,0,1-1.665.705,2.387,2.387,0,0,1-1.734-.75,2.347,2.347,0,0,1-.753-1.7,3.945,3.945,0,0,1,.175-1.136q.175-.585.578-1.63L2157.5,901.9l.675-1.8a9.238,9.238,0,0,1,.84-1.749,3.491,3.491,0,0,1,1.174-1.127c.485-.286-.164-.43.548-.43a10.1,10.1,0,0,1,3.061.43,3.574,3.574,0,0,1,1.174,1.108,7.916,7.916,0,0,1,.752,1.456q.308.778.78,2.079l6.709,17.323a9.006,9.006,0,0,1,.789,2.875,2.429,2.429,0,0,1-.745,1.712,2.392,2.392,0,0,1-1.795.778,2.235,2.235,0,0,1-1.051-.229,2.156,2.156,0,0,1-.736-.622,5.772,5.772,0,0,1-.64-1.209Q2168.69,921.676,2168.444,921.054Zm-10.3-7.453h7.673l-3.871-11.079Z" fill="#135a5d"/>
          <path id="Path_879" data-name="Path 879" d="M2182.523,912.612h-1.014a.813.813,0,0,0-.807.819v7.806a3.694,3.694,0,0,1-.719,2.509,2.393,2.393,0,0,1-1.874.805,2.343,2.343,0,0,1-1.927-.842,3.847,3.847,0,0,1-.683-2.472V900.581a3.6,3.6,0,0,1,.753-2.546,3.252,3.252,0,0,1,2.435-.787h8.461a24.78,24.78,0,0,1,3,.155,7.326,7.326,0,0,1,2.242.632,6.5,6.5,0,0,1,2.137,1.52,6.718,6.718,0,0,1,1.41,2.3,7.972,7.972,0,0,1,.482,2.774,6.891,6.891,0,0,1-1.62,4.8,8,8,0,0,1-3.329,2.089.825.825,0,0,0-.232,1.408,11.315,11.315,0,0,1,1.292,1.319,23.016,23.016,0,0,1,2.251,3.2,26.256,26.256,0,0,1,1.672,2.927,6.263,6.263,0,0,1,.551,1.877,1.979,1.979,0,0,1-.324,1.053,2.32,2.32,0,0,1-.885.824,2.693,2.693,0,0,1-1.3.3,2.448,2.448,0,0,1-1.471-.43A4.051,4.051,0,0,1,2192,922.9a21.32,21.32,0,0,1-1.295-1.81l-2.085-3.625a19.921,19.921,0,0,0-2-3.04,4.992,4.992,0,0,0-1.8-1.429A5.939,5.939,0,0,0,2182.523,912.612Zm2.978-11.28h-3.992a.813.813,0,0,0-.807.819v5.741a.813.813,0,0,0,.807.819h3.852a12.5,12.5,0,0,0,3.153-.338,3.669,3.669,0,0,0,1.954-1.154,3.419,3.419,0,0,0,.674-2.243,3.585,3.585,0,0,0-.543-1.969,3.331,3.331,0,0,0-1.507-1.273A10.413,10.413,0,0,0,2185.5,901.332Z" fill="#135a5d"/>
        </g>
      </g>
      <path id="Path_880" data-name="Path 880" d="M2015.765,914.064l.273-10.883c.045-1.936.169-4.068.243-4.907.1-1.141.11-1.595.761-2.183a3.691,3.691,0,0,1,2.732-.417c1.175.1,2.147.078,2.774.846.377.463.54,1.1.193,2.618-.2.889-.718,3.838-.9,4.765l-1.759,10.581c-.2,1.2-.266,1.819-.8,2.329-.475.455-.92.35-1.643.287s-1.25-.145-1.6-.749S2015.777,915.353,2015.765,914.064Z" fill="#33b3c2"/>
      <path id="Path_881" data-name="Path 881" d="M2016.935,925.435a2.6,2.6,0,0,1-1.839-.65,2.433,2.433,0,0,1-.391-2.057,2.383,2.383,0,0,1,.7-1.831,2.487,2.487,0,0,1,1.975-.388,2.068,2.068,0,0,1,2.232,2.689c-.074.839-.153,1.477-.731,1.91A2.624,2.624,0,0,1,2016.935,925.435Z" fill="#33b3c2"/>
      <path id="Path_882" data-name="Path 882" d="M1970.766,910.67c1.829.408,3.736.873,4.889,2.106a5.128,5.128,0,0,1,.892,5.985c-.893,1.543-2.93,2.42-4.908,2.844a13.577,13.577,0,0,1-3.37.283" transform="translate(0 0.3)" fill="none" stroke="#519786" stroke-linecap="round" stroke-miterlimit="10" stroke-width="5.991"/>
      <path id="Path_883" data-name="Path 883" d="M1963.195,898.855a6.629,6.629,0,0,0-2.6,2.243,4.792,4.792,0,0,0-.366,4.724" transform="translate(0 0.3)" fill="none" stroke="#71d3ea" stroke-linecap="round" stroke-miterlimit="10" stroke-width="5.991"/>
      <path id="Path_884" data-name="Path 884" d="M1976.651,903.761a8.188,8.188,0,0,0-4.627-4.965" transform="translate(0 0.3)" fill="none" stroke="#33b3c2" stroke-linecap="round" stroke-miterlimit="10" stroke-width="5.928"/>
      <path id="Path_885" data-name="Path 885" d="M1968.269,921.888a13.229,13.229,0,0,1-4.512-.97,10.492,10.492,0,0,1-5.424-4.855" transform="translate(0 0.3)" fill="none" stroke="#3ba6aa" stroke-linecap="round" stroke-miterlimit="10" stroke-width="5.991"/>
      <path id="Path_886" data-name="Path 886" d="M2002.348,900.315a11.991,11.991,0,0,1,5.694,10.3,12.181,12.181,0,0,1-2.4,7.308" fill="none" stroke="#71d3ea" stroke-linecap="round" stroke-miterlimit="10" stroke-width="6.078"/>
      <path id="Path_887" data-name="Path 887" d="M1960.272,905.9a4.752,4.752,0,0,0,.726,1.087c1.623,1.824,4.625,2.714,7.272,3.2.824.15,1.668.3,2.5.486" transform="translate(0 0.3)" fill="none" stroke="#33b3c2" stroke-linecap="round" stroke-miterlimit="10" stroke-width="5.991"/>
      <path id="Path_888" data-name="Path 888" d="M1971.914,898.6a10.694,10.694,0,0,0-4.809-.765,9.851,9.851,0,0,0-3.8.96" transform="translate(0 0.3)" fill="none" stroke="#71d3ea" stroke-linecap="round" stroke-miterlimit="10" stroke-width="5.991"/>
      <path id="Path_889" data-name="Path 889" d="M2005.082,918.639a11.146,11.146,0,0,1-8.349,3.8,11.65,11.65,0,0,1-11.391-11.893,12.182,12.182,0,0,1,2.4-7.308" fill="none" stroke="#52d1c8" stroke-linecap="round" stroke-miterlimit="10" stroke-width="6.078"/>
      <path id="Path_890" data-name="Path 890" d="M1988.3,902.527a11.144,11.144,0,0,1,8.349-3.8,10.976,10.976,0,0,1,5.7,1.592" fill="none" stroke="#2fb0b3" stroke-linecap="round" stroke-miterlimit="10" stroke-width="6.078"/>
    </g>
  </g>
</svg>
